<?xml version="1.0" encoding="utf-8"?>
<!-- Generator: Adobe Illustrator 25.4.1, SVG Export Plug-In . SVG Version: 6.00 Build 0)  -->
<svg version="1.1" id="Capa_1" xmlns="http://www.w3.org/2000/svg" xmlns:xlink="http://www.w3.org/1999/xlink" x="0px" y="0px"
	 viewBox="0 0 252 77.61" style="enable-background:new 0 0 252 77.61;" xml:space="preserve">
<style type="text/css">
	.st0{fill:#3F3E3E;}
</style>
<g>
	<path d="M2.2,18.9l2.39-0.23c0.14,0.8,0.44,1.39,0.88,1.77C5.91,20.81,6.5,21,7.25,21c0.79,0,1.39-0.17,1.79-0.5
		c0.4-0.33,0.6-0.73,0.6-1.17c0-0.29-0.08-0.53-0.25-0.73c-0.17-0.2-0.46-0.38-0.88-0.53c-0.29-0.1-0.94-0.28-1.97-0.53
		c-1.32-0.33-2.24-0.73-2.77-1.2c-0.75-0.67-1.12-1.49-1.12-2.45c0-0.62,0.18-1.2,0.53-1.74c0.35-0.54,0.86-0.95,1.52-1.23
		c0.66-0.28,1.46-0.42,2.39-0.42c1.53,0,2.68,0.33,3.45,1c0.77,0.67,1.18,1.56,1.22,2.68l-2.46,0.11c-0.1-0.63-0.33-1.08-0.68-1.35
		c-0.35-0.27-0.86-0.41-1.56-0.41c-0.71,0-1.27,0.15-1.68,0.44c-0.26,0.19-0.39,0.44-0.39,0.76c0,0.29,0.12,0.53,0.37,0.74
		c0.31,0.26,1.06,0.53,2.26,0.81s2.08,0.57,2.65,0.88c0.57,0.3,1.02,0.71,1.34,1.24c0.32,0.52,0.49,1.17,0.49,1.94
		c0,0.7-0.19,1.35-0.58,1.96s-0.93,1.06-1.64,1.36c-0.71,0.3-1.59,0.44-2.65,0.44c-1.54,0-2.72-0.36-3.54-1.07
		C2.85,21.3,2.36,20.26,2.2,18.9z"/>
	<path d="M14.14,12.85v-2.16h2.33v2.16H14.14z M14.14,22.86v-8.82h2.33v8.82H14.14z"/>
	<path d="M18.87,22.86V10.69h2.33v12.17H18.87z"/>
	<path d="M26.01,22.86l-3.55-8.82h2.45l1.66,4.5l0.48,1.5c0.13-0.38,0.21-0.63,0.24-0.76c0.08-0.25,0.16-0.5,0.25-0.75l1.68-4.5h2.4
		l-3.5,8.82H26.01z"/>
	<path d="M33.04,12.85v-2.16h2.33v2.16H33.04z M33.04,22.86v-8.82h2.33v8.82H33.04z"/>
	<path d="M39.51,16.73l-2.12-0.38c0.24-0.85,0.65-1.48,1.23-1.89s1.44-0.61,2.59-0.61c1.04,0,1.81,0.12,2.32,0.37
		c0.51,0.25,0.87,0.56,1.08,0.94c0.21,0.38,0.31,1.07,0.31,2.09l-0.03,2.72c0,0.77,0.04,1.35,0.11,1.71
		c0.07,0.37,0.21,0.76,0.42,1.18h-2.31c-0.06-0.15-0.14-0.38-0.22-0.69c-0.04-0.14-0.07-0.23-0.08-0.27
		c-0.4,0.39-0.82,0.68-1.28,0.87c-0.45,0.19-0.94,0.29-1.45,0.29c-0.91,0-1.62-0.25-2.15-0.74c-0.52-0.49-0.78-1.12-0.78-1.87
		c0-0.5,0.12-0.94,0.36-1.33c0.24-0.39,0.57-0.69,1-0.9c0.43-0.21,1.05-0.39,1.86-0.54c1.09-0.2,1.85-0.4,2.27-0.57v-0.23
		c0-0.45-0.11-0.77-0.33-0.96c-0.22-0.19-0.64-0.29-1.25-0.29c-0.42,0-0.74,0.08-0.97,0.24C39.84,16.04,39.66,16.32,39.51,16.73z
		 M42.63,18.62c-0.3,0.1-0.77,0.22-1.42,0.36s-1.07,0.27-1.27,0.41c-0.3,0.22-0.46,0.49-0.46,0.82c0,0.33,0.12,0.61,0.37,0.85
		s0.55,0.36,0.93,0.36c0.42,0,0.82-0.14,1.2-0.42c0.28-0.21,0.47-0.47,0.56-0.77c0.06-0.2,0.09-0.58,0.09-1.14V18.62z"/>
	<path d="M59.75,18.38l2.38,0.76c-0.37,1.33-0.97,2.31-1.82,2.96c-0.85,0.65-1.93,0.97-3.23,0.97c-1.62,0-2.94-0.55-3.98-1.66
		c-1.04-1.1-1.56-2.61-1.56-4.53c0-2.03,0.52-3.6,1.57-4.72c1.05-1.12,2.42-1.68,4.12-1.68c1.49,0,2.7,0.44,3.63,1.32
		c0.55,0.52,0.97,1.27,1.25,2.24l-2.43,0.58c-0.14-0.63-0.44-1.13-0.9-1.49c-0.46-0.37-1.01-0.55-1.66-0.55
		c-0.9,0-1.63,0.32-2.2,0.97s-0.84,1.7-0.84,3.15c0,1.54,0.28,2.63,0.83,3.29s1.27,0.98,2.16,0.98c0.65,0,1.21-0.21,1.69-0.62
		C59.21,19.93,59.54,19.28,59.75,18.38z"/>
	<path d="M65.97,16.73l-2.12-0.38c0.24-0.85,0.65-1.48,1.23-1.89c0.58-0.41,1.44-0.61,2.59-0.61c1.04,0,1.81,0.12,2.32,0.37
		c0.51,0.25,0.87,0.56,1.07,0.94c0.21,0.38,0.31,1.07,0.31,2.09l-0.02,2.72c0,0.77,0.04,1.35,0.11,1.71
		c0.07,0.37,0.21,0.76,0.42,1.18h-2.31c-0.06-0.15-0.13-0.38-0.22-0.69c-0.04-0.14-0.07-0.23-0.08-0.27
		c-0.4,0.39-0.82,0.68-1.28,0.87s-0.94,0.29-1.45,0.29c-0.91,0-1.62-0.25-2.15-0.74s-0.78-1.12-0.78-1.87c0-0.5,0.12-0.94,0.36-1.33
		c0.24-0.39,0.57-0.69,1-0.9c0.43-0.21,1.05-0.39,1.86-0.54c1.09-0.2,1.85-0.4,2.27-0.57v-0.23c0-0.45-0.11-0.77-0.33-0.96
		c-0.22-0.19-0.64-0.29-1.25-0.29c-0.42,0-0.74,0.08-0.97,0.24C66.3,16.04,66.11,16.32,65.97,16.73z M69.09,18.62
		c-0.3,0.1-0.77,0.22-1.42,0.36c-0.65,0.14-1.07,0.27-1.27,0.41c-0.3,0.22-0.46,0.49-0.46,0.82c0,0.33,0.12,0.61,0.37,0.85
		c0.24,0.24,0.55,0.36,0.93,0.36c0.42,0,0.82-0.14,1.2-0.42c0.28-0.21,0.47-0.47,0.56-0.77c0.06-0.2,0.09-0.58,0.09-1.14V18.62z"/>
	<path d="M75.91,22.86h-2.33v-8.82h2.17v1.25c0.37-0.59,0.7-0.98,1-1.17c0.3-0.19,0.63-0.28,1.01-0.28c0.53,0,1.04,0.15,1.54,0.44
		l-0.72,2.03c-0.39-0.25-0.76-0.38-1.1-0.38c-0.33,0-0.6,0.09-0.83,0.27c-0.23,0.18-0.41,0.51-0.54,0.98
		c-0.13,0.47-0.2,1.46-0.2,2.96V22.86z"/>
	<path d="M79.75,18.33c0-0.77,0.19-1.52,0.57-2.25s0.92-1.28,1.62-1.66c0.7-0.38,1.48-0.57,2.34-0.57c1.33,0,2.43,0.43,3.28,1.3
		c0.85,0.87,1.28,1.96,1.28,3.28c0,1.33-0.43,2.44-1.29,3.32c-0.86,0.88-1.94,1.32-3.25,1.32c-0.81,0-1.58-0.18-2.31-0.55
		c-0.73-0.37-1.29-0.9-1.67-1.61C79.94,20.2,79.75,19.34,79.75,18.33z M82.14,18.45c0,0.87,0.21,1.54,0.62,2.01s0.93,0.7,1.54,0.7
		c0.61,0,1.12-0.23,1.53-0.7s0.62-1.14,0.62-2.03c0-0.86-0.21-1.53-0.62-1.99s-0.92-0.7-1.53-0.7c-0.61,0-1.12,0.23-1.54,0.7
		S82.14,17.58,82.14,18.45z"/>
	<path d="M90.68,22.86V10.69h2.33v12.17H90.68z"/>
	<path d="M95.4,12.85v-2.16h2.33v2.16H95.4z M95.4,22.86v-8.82h2.33v8.82H95.4z"/>
	<path d="M108.14,22.86h-2.33v-4.5c0-0.95-0.05-1.57-0.15-1.85c-0.1-0.28-0.26-0.5-0.49-0.65c-0.22-0.15-0.49-0.23-0.81-0.23
		c-0.4,0-0.77,0.11-1.09,0.33c-0.32,0.22-0.54,0.51-0.66,0.88c-0.12,0.37-0.18,1.04-0.18,2.03v3.99h-2.33v-8.82h2.17v1.29
		c0.77-1,1.74-1.49,2.91-1.49c0.51,0,0.99,0.09,1.41,0.28c0.43,0.19,0.75,0.42,0.97,0.71s0.37,0.61,0.46,0.98s0.13,0.89,0.13,1.57
		V22.86z"/>
	<path d="M112.25,16.73l-2.12-0.38c0.24-0.85,0.65-1.48,1.23-1.89c0.58-0.41,1.44-0.61,2.59-0.61c1.04,0,1.81,0.12,2.32,0.37
		c0.51,0.25,0.87,0.56,1.07,0.94c0.21,0.38,0.31,1.07,0.31,2.09l-0.02,2.72c0,0.77,0.04,1.35,0.11,1.71
		c0.07,0.37,0.21,0.76,0.42,1.18h-2.31c-0.06-0.15-0.13-0.38-0.22-0.69c-0.04-0.14-0.07-0.23-0.08-0.27
		c-0.4,0.39-0.82,0.68-1.28,0.87s-0.94,0.29-1.45,0.29c-0.91,0-1.62-0.25-2.15-0.74s-0.78-1.12-0.78-1.87c0-0.5,0.12-0.94,0.36-1.33
		c0.24-0.39,0.57-0.69,1-0.9c0.43-0.21,1.05-0.39,1.86-0.54c1.09-0.2,1.85-0.4,2.27-0.57v-0.23c0-0.45-0.11-0.77-0.33-0.96
		c-0.22-0.19-0.64-0.29-1.25-0.29c-0.42,0-0.74,0.08-0.97,0.24C112.58,16.04,112.39,16.32,112.25,16.73z M115.37,18.62
		c-0.3,0.1-0.77,0.22-1.42,0.36c-0.65,0.14-1.07,0.27-1.27,0.41c-0.3,0.22-0.46,0.49-0.46,0.82c0,0.33,0.12,0.61,0.37,0.85
		c0.24,0.24,0.55,0.36,0.93,0.36c0.42,0,0.82-0.14,1.2-0.42c0.28-0.21,0.47-0.47,0.56-0.77c0.06-0.2,0.09-0.58,0.09-1.14V18.62z"/>
	<path d="M124.67,22.86V10.69h3.68l2.21,8.3l2.18-8.3h3.69v12.17h-2.28v-9.58l-2.42,9.58h-2.37l-2.41-9.58v9.58H124.67z"/>
	<path d="M143.95,20.05l2.32,0.39c-0.3,0.85-0.77,1.5-1.41,1.95c-0.65,0.45-1.45,0.67-2.42,0.67c-1.53,0-2.67-0.5-3.4-1.5
		c-0.58-0.8-0.87-1.81-0.87-3.04c0-1.46,0.38-2.6,1.15-3.43c0.76-0.83,1.73-1.24,2.9-1.24c1.31,0,2.35,0.43,3.1,1.3
		c0.76,0.87,1.12,2.19,1.09,3.98h-5.84c0.02,0.69,0.21,1.23,0.56,1.61c0.36,0.38,0.81,0.58,1.34,0.58c0.37,0,0.67-0.1,0.92-0.3
		C143.64,20.82,143.82,20.5,143.95,20.05z M144.08,17.7c-0.02-0.68-0.19-1.19-0.52-1.54c-0.33-0.35-0.74-0.53-1.21-0.53
		c-0.51,0-0.93,0.19-1.26,0.56s-0.5,0.87-0.49,1.51H144.08z"/>
	<path d="M156.39,22.86h-2.17v-1.29c-0.36,0.5-0.78,0.88-1.27,1.12c-0.49,0.25-0.98,0.37-1.48,0.37c-1.01,0-1.88-0.41-2.6-1.22
		c-0.72-0.82-1.08-1.95-1.08-3.42c0-1.49,0.35-2.63,1.05-3.41c0.7-0.78,1.59-1.17,2.67-1.17c0.99,0,1.84,0.41,2.56,1.23v-4.38h2.33
		V22.86z M150.16,18.26c0,0.94,0.13,1.62,0.39,2.04c0.38,0.61,0.9,0.91,1.58,0.91c0.54,0,0.99-0.23,1.37-0.68
		c0.38-0.46,0.56-1.14,0.56-2.05c0-1.01-0.18-1.74-0.55-2.19c-0.37-0.45-0.83-0.67-1.4-0.67c-0.55,0-1.02,0.22-1.39,0.66
		C150.35,16.73,150.16,17.39,150.16,18.26z"/>
	<path d="M158.69,12.85v-2.16h2.33v2.16H158.69z M158.69,22.86v-8.82h2.33v8.82H158.69z"/>
	<path d="M171.43,22.86h-2.33v-4.5c0-0.95-0.05-1.57-0.15-1.85c-0.1-0.28-0.26-0.5-0.49-0.65c-0.22-0.15-0.49-0.23-0.81-0.23
		c-0.4,0-0.77,0.11-1.09,0.33c-0.32,0.22-0.54,0.51-0.66,0.88c-0.12,0.37-0.18,1.04-0.18,2.03v3.99h-2.33v-8.82h2.17v1.29
		c0.77-1,1.74-1.49,2.91-1.49c0.51,0,0.99,0.09,1.41,0.28c0.43,0.19,0.75,0.42,0.97,0.71s0.37,0.61,0.46,0.98s0.13,0.89,0.13,1.57
		V22.86z"/>
	<path d="M175.54,16.73l-2.12-0.38c0.24-0.85,0.65-1.48,1.23-1.89c0.58-0.41,1.44-0.61,2.59-0.61c1.04,0,1.81,0.12,2.32,0.37
		c0.51,0.25,0.87,0.56,1.07,0.94c0.21,0.38,0.31,1.07,0.31,2.09l-0.02,2.72c0,0.77,0.04,1.35,0.11,1.71
		c0.07,0.37,0.21,0.76,0.42,1.18h-2.31c-0.06-0.15-0.13-0.38-0.22-0.69c-0.04-0.14-0.07-0.23-0.08-0.27
		c-0.4,0.39-0.82,0.68-1.28,0.87s-0.94,0.29-1.45,0.29c-0.91,0-1.62-0.25-2.15-0.74s-0.78-1.12-0.78-1.87c0-0.5,0.12-0.94,0.36-1.33
		c0.24-0.39,0.57-0.69,1-0.9c0.43-0.21,1.05-0.39,1.86-0.54c1.09-0.2,1.85-0.4,2.27-0.57v-0.23c0-0.45-0.11-0.77-0.33-0.96
		c-0.22-0.19-0.64-0.29-1.25-0.29c-0.42,0-0.74,0.08-0.97,0.24C175.87,16.04,175.68,16.32,175.54,16.73z M178.66,18.62
		c-0.3,0.1-0.77,0.22-1.42,0.36c-0.65,0.14-1.07,0.27-1.27,0.41c-0.3,0.22-0.46,0.49-0.46,0.82c0,0.33,0.12,0.61,0.37,0.85
		c0.24,0.24,0.55,0.36,0.93,0.36c0.42,0,0.82-0.14,1.2-0.42c0.28-0.21,0.47-0.47,0.56-0.77c0.06-0.2,0.09-0.58,0.09-1.14V18.62z"/>
	<path d="M188,22.86V10.69h8.34v2.06h-5.88v2.88h5.08v2.06h-5.08v5.17H188z"/>
	<path d="M200.59,22.86h-2.33v-8.82h2.17v1.25c0.37-0.59,0.7-0.98,1-1.17c0.3-0.19,0.63-0.28,1.01-0.28c0.53,0,1.04,0.15,1.54,0.44
		l-0.72,2.03c-0.39-0.25-0.76-0.38-1.1-0.38c-0.33,0-0.6,0.09-0.83,0.27c-0.23,0.18-0.41,0.51-0.54,0.98
		c-0.13,0.47-0.2,1.46-0.2,2.96V22.86z"/>
	<path d="M206.71,16.73l-2.12-0.38c0.24-0.85,0.65-1.48,1.23-1.89c0.58-0.41,1.44-0.61,2.59-0.61c1.04,0,1.81,0.12,2.32,0.37
		c0.51,0.25,0.87,0.56,1.07,0.94c0.21,0.38,0.31,1.07,0.31,2.09l-0.02,2.72c0,0.77,0.04,1.35,0.11,1.71
		c0.07,0.37,0.21,0.76,0.42,1.18h-2.31c-0.06-0.15-0.13-0.38-0.22-0.69c-0.04-0.14-0.07-0.23-0.08-0.27
		c-0.4,0.39-0.82,0.68-1.28,0.87s-0.94,0.29-1.45,0.29c-0.91,0-1.62-0.25-2.15-0.74s-0.78-1.12-0.78-1.87c0-0.5,0.12-0.94,0.36-1.33
		c0.24-0.39,0.57-0.69,1-0.9c0.43-0.21,1.05-0.39,1.86-0.54c1.09-0.2,1.85-0.4,2.27-0.57v-0.23c0-0.45-0.11-0.77-0.33-0.96
		c-0.22-0.19-0.64-0.29-1.25-0.29c-0.42,0-0.74,0.08-0.97,0.24C207.05,16.04,206.86,16.32,206.71,16.73z M209.83,18.62
		c-0.3,0.1-0.77,0.22-1.42,0.36c-0.65,0.14-1.07,0.27-1.27,0.41c-0.3,0.22-0.46,0.49-0.46,0.82c0,0.33,0.12,0.61,0.37,0.85
		c0.24,0.24,0.55,0.36,0.93,0.36c0.42,0,0.82-0.14,1.2-0.42c0.28-0.21,0.47-0.47,0.56-0.77c0.06-0.2,0.09-0.58,0.09-1.14V18.62z"/>
	<path d="M222.44,22.86h-2.33v-4.5c0-0.95-0.05-1.57-0.15-1.85c-0.1-0.28-0.26-0.5-0.49-0.65c-0.22-0.15-0.49-0.23-0.81-0.23
		c-0.4,0-0.77,0.11-1.09,0.33c-0.32,0.22-0.54,0.51-0.66,0.88s-0.18,1.04-0.18,2.03v3.99h-2.33v-8.82h2.17v1.29
		c0.77-1,1.74-1.49,2.91-1.49c0.51,0,0.98,0.09,1.41,0.28c0.43,0.19,0.75,0.42,0.97,0.71c0.22,0.29,0.37,0.61,0.46,0.98
		c0.08,0.37,0.13,0.89,0.13,1.57V22.86z"/>
	<path d="M232.5,16.65l-2.3,0.42c-0.08-0.46-0.25-0.81-0.53-1.04s-0.63-0.35-1.07-0.35c-0.58,0-1.04,0.2-1.39,0.6
		c-0.35,0.4-0.52,1.07-0.52,2.01c0,1.05,0.18,1.78,0.53,2.22s0.82,0.65,1.42,0.65c0.44,0,0.8-0.13,1.09-0.38
		c0.28-0.25,0.48-0.69,0.6-1.3l2.29,0.39c-0.24,1.05-0.69,1.85-1.37,2.38c-0.67,0.54-1.58,0.81-2.71,0.81
		c-1.29,0-2.32-0.41-3.08-1.22c-0.77-0.81-1.15-1.94-1.15-3.38c0-1.46,0.38-2.59,1.15-3.4c0.77-0.81,1.81-1.22,3.12-1.22
		c1.07,0,1.93,0.23,2.56,0.69C231.76,15,232.22,15.7,232.5,16.65z"/>
	<path d="M233.72,18.33c0-0.77,0.19-1.52,0.57-2.25c0.38-0.73,0.92-1.28,1.62-1.66c0.7-0.38,1.48-0.57,2.35-0.57
		c1.33,0,2.43,0.43,3.28,1.3c0.85,0.87,1.28,1.96,1.28,3.28c0,1.33-0.43,2.44-1.29,3.32c-0.86,0.88-1.94,1.32-3.25,1.32
		c-0.81,0-1.58-0.18-2.31-0.55s-1.29-0.9-1.67-1.61C233.92,20.2,233.72,19.34,233.72,18.33z M236.12,18.45
		c0,0.87,0.21,1.54,0.62,2.01c0.41,0.46,0.93,0.7,1.54,0.7s1.12-0.23,1.53-0.7s0.62-1.14,0.62-2.03c0-0.86-0.21-1.53-0.62-1.99
		s-0.92-0.7-1.53-0.7s-1.12,0.23-1.54,0.7C236.32,16.91,236.12,17.58,236.12,18.45z"/>
</g>
<g>
	<path d="M1.52,44.73l3.85-10.02H6.8l4.1,10.02H9.39L8.22,41.7H4.03l-1.1,3.03H1.52z M4.41,40.62h3.4l-1.05-2.78
		C6.45,37,6.21,36.31,6.05,35.77c-0.13,0.64-0.31,1.28-0.54,1.91L4.41,40.62z"/>
	<path d="M16.56,44.73v-1.07c-0.57,0.82-1.33,1.23-2.3,1.23c-0.43,0-0.83-0.08-1.2-0.25c-0.37-0.16-0.65-0.37-0.83-0.62
		c-0.18-0.25-0.31-0.55-0.38-0.91c-0.05-0.24-0.08-0.62-0.08-1.15v-4.5h1.23v4.03c0,0.64,0.02,1.08,0.08,1.3
		c0.08,0.32,0.24,0.58,0.49,0.76c0.25,0.18,0.56,0.28,0.93,0.28s0.71-0.09,1.04-0.28c0.32-0.19,0.55-0.45,0.69-0.77
		c0.13-0.33,0.2-0.8,0.2-1.42v-3.89h1.23v7.26H16.56z"/>
	<path d="M18.77,44.73l2.65-3.77l-2.45-3.49h1.54l1.11,1.7c0.21,0.32,0.38,0.59,0.51,0.81c0.2-0.3,0.38-0.57,0.55-0.8l1.22-1.72
		h1.47l-2.51,3.42l2.7,3.84h-1.51l-1.49-2.26l-0.4-0.61l-1.91,2.86H18.77z"/>
	<path d="M26.6,36.13v-1.42h1.23v1.42H26.6z M26.6,44.73v-7.26h1.23v7.26H26.6z"/>
	<path d="M29.67,44.73V34.71h1.23v10.02H29.67z"/>
	<path d="M32.82,36.13v-1.42h1.23v1.42H32.82z M32.82,44.73v-7.26h1.23v7.26H32.82z"/>
	<path d="M40.66,43.84c-0.46,0.39-0.89,0.66-1.32,0.82c-0.42,0.16-0.87,0.24-1.36,0.24c-0.8,0-1.41-0.19-1.84-0.58
		c-0.43-0.39-0.64-0.89-0.64-1.49c0-0.36,0.08-0.68,0.24-0.97c0.16-0.29,0.37-0.53,0.64-0.71c0.26-0.18,0.56-0.31,0.89-0.4
		c0.24-0.06,0.61-0.13,1.09-0.18c0.99-0.12,1.72-0.26,2.19-0.42c0-0.17,0.01-0.28,0.01-0.32c0-0.5-0.12-0.85-0.35-1.06
		c-0.31-0.28-0.78-0.42-1.4-0.42c-0.58,0-1.01,0.1-1.28,0.3c-0.28,0.2-0.48,0.56-0.61,1.08l-1.2-0.16c0.11-0.52,0.29-0.93,0.54-1.25
		c0.25-0.32,0.61-0.56,1.09-0.73c0.47-0.17,1.02-0.26,1.65-0.26c0.62,0,1.12,0.07,1.51,0.22c0.39,0.15,0.67,0.33,0.85,0.55
		c0.18,0.22,0.31,0.5,0.38,0.84c0.04,0.21,0.06,0.59,0.06,1.13v1.64c0,1.14,0.03,1.87,0.08,2.17c0.05,0.3,0.16,0.59,0.31,0.87H40.9
		C40.78,44.48,40.69,44.18,40.66,43.84z M40.55,41.09c-0.45,0.18-1.12,0.34-2.01,0.46c-0.51,0.07-0.86,0.15-1.07,0.25
		c-0.21,0.09-0.37,0.22-0.49,0.4c-0.11,0.18-0.17,0.37-0.17,0.58c0,0.33,0.12,0.6,0.37,0.82c0.25,0.22,0.61,0.33,1.09,0.33
		c0.47,0,0.9-0.1,1.26-0.31s0.64-0.49,0.81-0.85c0.13-0.28,0.2-0.69,0.2-1.23V41.09z"/>
	<path d="M43.69,44.73v-7.26h1.11v1.1c0.28-0.52,0.54-0.85,0.78-1.02s0.5-0.25,0.79-0.25c0.41,0,0.84,0.13,1.26,0.4l-0.42,1.14
		c-0.3-0.18-0.6-0.27-0.9-0.27c-0.27,0-0.51,0.08-0.72,0.24c-0.21,0.16-0.37,0.39-0.46,0.67c-0.14,0.44-0.21,0.92-0.21,1.44v3.8
		H43.69z"/>
	<path d="M50.54,44.73l3.85-10.02h1.43l4.1,10.02h-1.51l-1.17-3.03h-4.19l-1.1,3.03H50.54z M53.43,40.62h3.4l-1.05-2.78
		c-0.32-0.84-0.56-1.54-0.71-2.08c-0.13,0.64-0.31,1.28-0.54,1.91L53.43,40.62z"/>
	<path d="M65.53,44.73v-0.92c-0.46,0.72-1.14,1.08-2.03,1.08c-0.58,0-1.11-0.16-1.6-0.48c-0.49-0.32-0.86-0.76-1.13-1.34
		s-0.4-1.23-0.4-1.97c0-0.72,0.12-1.38,0.36-1.97c0.24-0.59,0.6-1.04,1.09-1.36c0.48-0.31,1.02-0.47,1.62-0.47
		c0.44,0,0.83,0.09,1.17,0.28s0.62,0.42,0.83,0.72v-3.6h1.22v10.02H65.53z M61.64,41.11c0,0.93,0.2,1.62,0.59,2.08
		c0.39,0.46,0.85,0.69,1.39,0.69c0.54,0,0.99-0.22,1.37-0.66s0.56-1.11,0.56-2.01c0-0.99-0.19-1.72-0.57-2.19s-0.85-0.7-1.42-0.7
		c-0.55,0-1,0.22-1.37,0.67C61.83,39.45,61.64,40.15,61.64,41.11z"/>
	<path d="M68.61,44.73v-7.26h1.1v1.02c0.23-0.36,0.53-0.64,0.91-0.86c0.38-0.22,0.81-0.32,1.29-0.32c0.54,0,0.98,0.11,1.32,0.33
		c0.34,0.22,0.59,0.54,0.73,0.94c0.57-0.85,1.32-1.27,2.24-1.27c0.72,0,1.27,0.2,1.66,0.6c0.39,0.4,0.58,1.01,0.58,1.84v4.98h-1.22
		v-4.57c0-0.49-0.04-0.85-0.12-1.06c-0.08-0.22-0.22-0.39-0.43-0.52c-0.21-0.13-0.46-0.2-0.74-0.2c-0.51,0-0.93,0.17-1.27,0.51
		c-0.34,0.34-0.51,0.88-0.51,1.63v4.22h-1.23v-4.72c0-0.55-0.1-0.96-0.3-1.23c-0.2-0.27-0.53-0.41-0.98-0.41
		c-0.35,0-0.67,0.09-0.96,0.27s-0.51,0.45-0.64,0.8c-0.13,0.35-0.2,0.86-0.2,1.52v3.77H68.61z"/>
	<path d="M80.28,36.13v-1.42h1.23v1.42H80.28z M80.28,44.73v-7.26h1.23v7.26H80.28z"/>
	<path d="M83.38,44.73v-7.26h1.11v1.03c0.53-0.8,1.3-1.2,2.31-1.2c0.44,0,0.84,0.08,1.21,0.24c0.37,0.16,0.64,0.36,0.82,0.62
		c0.18,0.26,0.31,0.56,0.38,0.91c0.04,0.23,0.07,0.63,0.07,1.2v4.46h-1.23v-4.42c0-0.5-0.05-0.88-0.14-1.12s-0.27-0.45-0.51-0.59
		c-0.24-0.15-0.53-0.22-0.86-0.22c-0.52,0-0.98,0.17-1.36,0.5c-0.38,0.33-0.57,0.96-0.57,1.89v3.96H83.38z"/>
	<path d="M91.17,36.13v-1.42h1.23v1.42H91.17z M91.17,44.73v-7.26h1.23v7.26H91.17z"/>
	<path d="M93.79,42.57L95,42.38c0.07,0.49,0.26,0.86,0.57,1.12c0.31,0.26,0.75,0.39,1.31,0.39c0.56,0,0.98-0.12,1.26-0.35
		s0.41-0.5,0.41-0.81c0-0.28-0.12-0.5-0.36-0.66c-0.17-0.11-0.59-0.25-1.26-0.42c-0.9-0.23-1.53-0.42-1.88-0.59s-0.61-0.4-0.79-0.69
		c-0.18-0.29-0.27-0.62-0.27-0.97c0-0.32,0.07-0.62,0.22-0.9c0.15-0.28,0.35-0.5,0.61-0.69c0.19-0.14,0.45-0.26,0.78-0.36
		c0.33-0.1,0.68-0.15,1.06-0.15c0.57,0,1.07,0.08,1.5,0.25s0.75,0.39,0.95,0.67s0.35,0.66,0.42,1.12l-1.2,0.16
		c-0.05-0.37-0.21-0.67-0.48-0.88c-0.26-0.21-0.63-0.31-1.11-0.31c-0.57,0-0.97,0.09-1.21,0.28c-0.24,0.19-0.36,0.41-0.36,0.66
		c0,0.16,0.05,0.3,0.15,0.43c0.1,0.13,0.26,0.24,0.47,0.33c0.12,0.05,0.49,0.15,1.09,0.31c0.87,0.23,1.48,0.42,1.82,0.57
		c0.34,0.15,0.61,0.36,0.81,0.65c0.2,0.28,0.29,0.63,0.29,1.05c0,0.41-0.12,0.8-0.36,1.16s-0.58,0.64-1.04,0.84s-0.96,0.3-1.53,0.3
		c-0.94,0-1.66-0.2-2.16-0.59C94.24,43.92,93.92,43.34,93.79,42.57z"/>
	<path d="M103.96,43.63l0.18,1.09c-0.35,0.07-0.66,0.11-0.93,0.11c-0.45,0-0.79-0.07-1.04-0.21c-0.25-0.14-0.42-0.33-0.52-0.56
		c-0.1-0.23-0.15-0.71-0.15-1.45v-4.18h-0.9v-0.96h0.9v-1.8l1.22-0.74v2.54h1.24v0.96h-1.24v4.25c0,0.35,0.02,0.58,0.06,0.68
		c0.04,0.1,0.11,0.18,0.21,0.24c0.1,0.06,0.24,0.09,0.42,0.09C103.56,43.68,103.74,43.67,103.96,43.63z"/>
	<path d="M105.15,44.73v-7.26h1.11v1.1c0.28-0.52,0.54-0.85,0.78-1.02s0.5-0.25,0.79-0.25c0.41,0,0.84,0.13,1.26,0.4l-0.42,1.14
		c-0.3-0.18-0.6-0.27-0.9-0.27c-0.27,0-0.51,0.08-0.72,0.24c-0.21,0.16-0.37,0.39-0.46,0.67c-0.14,0.44-0.21,0.92-0.21,1.44v3.8
		H105.15z"/>
	<path d="M114.57,43.84c-0.46,0.39-0.89,0.66-1.32,0.82c-0.42,0.16-0.87,0.24-1.36,0.24c-0.8,0-1.41-0.19-1.84-0.58
		c-0.43-0.39-0.64-0.89-0.64-1.49c0-0.36,0.08-0.68,0.24-0.97c0.16-0.29,0.37-0.53,0.64-0.71c0.26-0.18,0.56-0.31,0.89-0.4
		c0.24-0.06,0.61-0.13,1.09-0.18c0.99-0.12,1.72-0.26,2.19-0.42c0-0.17,0.01-0.28,0.01-0.32c0-0.5-0.12-0.85-0.35-1.06
		c-0.31-0.28-0.78-0.42-1.4-0.42c-0.58,0-1.01,0.1-1.28,0.3c-0.28,0.2-0.48,0.56-0.61,1.08l-1.2-0.16c0.11-0.52,0.29-0.93,0.54-1.25
		c0.25-0.32,0.61-0.56,1.09-0.73c0.47-0.17,1.02-0.26,1.65-0.26c0.62,0,1.12,0.07,1.51,0.22c0.39,0.15,0.67,0.33,0.85,0.55
		c0.18,0.22,0.31,0.5,0.38,0.84c0.04,0.21,0.06,0.59,0.06,1.13v1.64c0,1.14,0.03,1.87,0.08,2.17c0.05,0.3,0.16,0.59,0.31,0.87h-1.29
		C114.69,44.48,114.6,44.18,114.57,43.84z M114.46,41.09c-0.45,0.18-1.12,0.34-2.01,0.46c-0.51,0.07-0.86,0.15-1.07,0.25
		c-0.21,0.09-0.37,0.22-0.49,0.4c-0.11,0.18-0.17,0.37-0.17,0.58c0,0.33,0.12,0.6,0.37,0.82c0.25,0.22,0.61,0.33,1.09,0.33
		c0.47,0,0.9-0.1,1.26-0.31s0.64-0.49,0.81-0.85c0.13-0.28,0.2-0.69,0.2-1.23V41.09z"/>
	<path d="M120.3,43.63l0.18,1.09c-0.35,0.07-0.66,0.11-0.93,0.11c-0.45,0-0.79-0.07-1.04-0.21c-0.25-0.14-0.42-0.33-0.52-0.56
		c-0.1-0.23-0.15-0.71-0.15-1.45v-4.18h-0.9v-0.96h0.9v-1.8l1.22-0.74v2.54h1.24v0.96h-1.24v4.25c0,0.35,0.02,0.58,0.06,0.68
		c0.04,0.1,0.11,0.18,0.21,0.24c0.1,0.06,0.24,0.09,0.42,0.09C119.9,43.68,120.08,43.67,120.3,43.63z"/>
	<path d="M121.51,36.13v-1.42h1.23v1.42H121.51z M121.51,44.73v-7.26h1.23v7.26H121.51z"/>
	<path d="M126.63,44.73l-2.76-7.26h1.3l1.56,4.35c0.17,0.47,0.32,0.96,0.46,1.46c0.11-0.38,0.26-0.84,0.46-1.38l1.61-4.43h1.26
		l-2.75,7.26H126.63z"/>
	<path d="M131.16,41.1c0-1.34,0.37-2.34,1.12-2.99c0.62-0.54,1.38-0.81,2.28-0.81c1,0,1.81,0.33,2.45,0.98
		c0.63,0.65,0.95,1.56,0.95,2.71c0,0.93-0.14,1.67-0.42,2.2s-0.69,0.95-1.22,1.25c-0.54,0.3-1.12,0.44-1.75,0.44
		c-1.02,0-1.84-0.33-2.46-0.98C131.47,43.27,131.16,42.33,131.16,41.1z M132.42,41.1c0,0.93,0.2,1.63,0.61,2.09
		c0.41,0.46,0.92,0.69,1.53,0.69c0.61,0,1.12-0.23,1.52-0.7c0.41-0.46,0.61-1.17,0.61-2.13c0-0.9-0.2-1.58-0.61-2.04
		c-0.41-0.46-0.92-0.69-1.52-0.69c-0.62,0-1.13,0.23-1.53,0.69C132.62,39.48,132.42,40.17,132.42,41.1z"/>
</g>
<g>
	<path d="M1.4,66.51l3.85-10.02h1.43l4.1,10.02H9.27L8.1,63.47H3.91l-1.1,3.04H1.4z M4.29,62.39h3.4l-1.05-2.78
		c-0.32-0.84-0.56-1.54-0.71-2.08c-0.13,0.64-0.31,1.28-0.54,1.91L4.29,62.39z"/>
	<path d="M16.39,66.51v-0.92c-0.46,0.72-1.14,1.08-2.03,1.08c-0.58,0-1.11-0.16-1.6-0.48c-0.49-0.32-0.86-0.76-1.13-1.34
		c-0.27-0.57-0.4-1.23-0.4-1.97c0-0.72,0.12-1.38,0.36-1.97c0.24-0.59,0.6-1.04,1.09-1.36c0.48-0.31,1.02-0.47,1.62-0.47
		c0.44,0,0.83,0.09,1.17,0.28s0.62,0.42,0.83,0.72v-3.6h1.22v10.02H16.39z M12.5,62.88c0,0.93,0.2,1.62,0.59,2.08
		c0.39,0.46,0.85,0.69,1.39,0.69c0.54,0,1-0.22,1.37-0.66c0.38-0.44,0.56-1.11,0.56-2.01c0-0.99-0.19-1.72-0.57-2.19
		s-0.86-0.7-1.42-0.7c-0.55,0-1,0.22-1.37,0.67C12.69,61.22,12.5,61.92,12.5,62.88z"/>
	<path d="M19.47,66.51v-7.26h1.1v1.02c0.23-0.36,0.53-0.64,0.91-0.86c0.38-0.22,0.81-0.33,1.29-0.33c0.54,0,0.98,0.11,1.32,0.33
		c0.34,0.22,0.59,0.54,0.73,0.94c0.57-0.85,1.32-1.27,2.24-1.27c0.72,0,1.27,0.2,1.66,0.6c0.39,0.4,0.58,1.01,0.58,1.84v4.98h-1.22
		v-4.57c0-0.49-0.04-0.85-0.12-1.06c-0.08-0.22-0.22-0.39-0.43-0.52c-0.21-0.13-0.46-0.2-0.74-0.2c-0.51,0-0.93,0.17-1.27,0.51
		c-0.34,0.34-0.51,0.88-0.51,1.63v4.22h-1.23v-4.72c0-0.55-0.1-0.96-0.3-1.23c-0.2-0.27-0.53-0.41-0.98-0.41
		c-0.35,0-0.67,0.09-0.96,0.27c-0.29,0.18-0.51,0.45-0.64,0.8c-0.13,0.35-0.2,0.86-0.2,1.52v3.77H19.47z"/>
	<path d="M31.14,57.9v-1.42h1.23v1.42H31.14z M31.14,66.51v-7.26h1.23v7.26H31.14z"/>
	<path d="M34.24,66.51v-7.26h1.11v1.03c0.53-0.8,1.3-1.2,2.31-1.2c0.44,0,0.84,0.08,1.21,0.24s0.64,0.36,0.82,0.62
		c0.18,0.26,0.31,0.56,0.38,0.91c0.05,0.23,0.07,0.63,0.07,1.2v4.46h-1.23v-4.42c0-0.5-0.05-0.88-0.14-1.12
		c-0.1-0.25-0.27-0.45-0.51-0.59c-0.24-0.15-0.53-0.22-0.86-0.22c-0.52,0-0.98,0.17-1.36,0.5c-0.38,0.33-0.57,0.96-0.57,1.89v3.96
		H34.24z"/>
	<path d="M42.03,57.9v-1.42h1.23v1.42H42.03z M42.03,66.51v-7.26h1.23v7.26H42.03z"/>
	<path d="M44.64,64.34l1.22-0.19c0.07,0.49,0.26,0.86,0.57,1.12s0.75,0.39,1.31,0.39c0.57,0,0.98-0.12,1.26-0.34
		c0.27-0.23,0.41-0.5,0.41-0.81c0-0.28-0.12-0.5-0.36-0.66c-0.17-0.11-0.59-0.25-1.26-0.42c-0.9-0.23-1.53-0.42-1.88-0.59
		c-0.35-0.17-0.61-0.4-0.79-0.69s-0.27-0.62-0.27-0.97c0-0.32,0.07-0.62,0.22-0.9c0.15-0.28,0.35-0.5,0.6-0.69
		c0.19-0.14,0.45-0.26,0.78-0.36c0.33-0.1,0.68-0.15,1.06-0.15c0.57,0,1.07,0.08,1.5,0.25s0.75,0.39,0.95,0.67s0.35,0.66,0.42,1.12
		l-1.2,0.16c-0.05-0.37-0.21-0.67-0.48-0.88c-0.26-0.21-0.63-0.31-1.11-0.31c-0.57,0-0.97,0.09-1.21,0.28
		c-0.24,0.19-0.36,0.41-0.36,0.66c0,0.16,0.05,0.3,0.15,0.43c0.1,0.13,0.26,0.24,0.47,0.33c0.12,0.05,0.49,0.15,1.09,0.31
		c0.87,0.23,1.48,0.42,1.82,0.57c0.34,0.15,0.61,0.36,0.81,0.65c0.2,0.28,0.29,0.63,0.29,1.05c0,0.41-0.12,0.8-0.36,1.16
		s-0.58,0.64-1.04,0.84s-0.96,0.3-1.53,0.3c-0.94,0-1.66-0.2-2.16-0.59C45.1,65.69,44.78,65.11,44.64,64.34z"/>
	<path d="M54.82,65.41L55,66.49c-0.35,0.07-0.66,0.11-0.93,0.11c-0.45,0-0.79-0.07-1.04-0.21c-0.25-0.14-0.42-0.33-0.52-0.56
		c-0.1-0.23-0.15-0.71-0.15-1.45V60.2h-0.9v-0.96h0.9v-1.8l1.22-0.74v2.54h1.24v0.96h-1.24v4.25c0,0.35,0.02,0.58,0.06,0.68
		c0.04,0.1,0.11,0.18,0.21,0.24c0.1,0.06,0.24,0.09,0.42,0.09C54.42,65.45,54.6,65.44,54.82,65.41z"/>
	<path d="M56.01,66.51v-7.26h1.11v1.1c0.28-0.51,0.54-0.85,0.78-1.02s0.5-0.25,0.79-0.25c0.42,0,0.84,0.13,1.27,0.4l-0.42,1.14
		c-0.3-0.18-0.6-0.27-0.9-0.27c-0.27,0-0.51,0.08-0.72,0.24c-0.21,0.16-0.37,0.39-0.46,0.67c-0.14,0.44-0.21,0.92-0.21,1.44v3.8
		H56.01z"/>
	<path d="M65.43,65.61c-0.46,0.39-0.89,0.66-1.32,0.82c-0.42,0.16-0.87,0.24-1.36,0.24c-0.8,0-1.41-0.19-1.84-0.58
		c-0.43-0.39-0.64-0.89-0.64-1.49c0-0.36,0.08-0.68,0.24-0.97s0.37-0.53,0.64-0.71s0.56-0.31,0.89-0.4
		c0.24-0.06,0.61-0.12,1.09-0.18c0.99-0.12,1.72-0.26,2.19-0.42c0-0.17,0.01-0.28,0.01-0.32c0-0.5-0.12-0.85-0.35-1.06
		c-0.31-0.28-0.78-0.42-1.4-0.42c-0.58,0-1.01,0.1-1.28,0.3c-0.28,0.2-0.48,0.56-0.61,1.08l-1.2-0.16c0.11-0.51,0.29-0.93,0.54-1.25
		c0.25-0.32,0.61-0.56,1.09-0.73c0.47-0.17,1.02-0.26,1.65-0.26c0.62,0,1.12,0.07,1.51,0.22c0.39,0.15,0.67,0.33,0.86,0.55
		c0.18,0.22,0.31,0.5,0.38,0.84c0.04,0.21,0.06,0.59,0.06,1.13v1.64c0,1.14,0.03,1.87,0.08,2.17c0.05,0.3,0.16,0.59,0.31,0.87h-1.29
		C65.54,66.25,65.46,65.95,65.43,65.61z M65.32,62.86c-0.45,0.18-1.12,0.34-2.01,0.46c-0.51,0.07-0.86,0.16-1.07,0.25
		c-0.21,0.09-0.37,0.22-0.49,0.4c-0.11,0.17-0.17,0.37-0.17,0.58c0,0.33,0.12,0.6,0.37,0.82s0.61,0.33,1.09,0.33
		c0.47,0,0.89-0.1,1.26-0.31c0.37-0.21,0.64-0.49,0.81-0.85c0.13-0.28,0.2-0.69,0.2-1.23V62.86z"/>
	<path d="M73.21,63.85l1.21,0.16c-0.13,0.83-0.47,1.49-1.02,1.96s-1.21,0.71-2.01,0.71c-0.99,0-1.79-0.32-2.4-0.97
		s-0.91-1.58-0.91-2.79c0-0.78,0.13-1.47,0.39-2.06s0.65-1.03,1.19-1.32s1.11-0.44,1.73-0.44c0.79,0,1.43,0.2,1.94,0.6
		c0.5,0.4,0.82,0.96,0.96,1.7l-1.2,0.18c-0.11-0.49-0.32-0.85-0.61-1.1s-0.64-0.37-1.05-0.37c-0.62,0-1.12,0.22-1.51,0.67
		c-0.39,0.44-0.58,1.15-0.58,2.11c0,0.98,0.19,1.68,0.56,2.13c0.37,0.44,0.86,0.66,1.46,0.66c0.48,0,0.89-0.15,1.21-0.44
		C72.92,64.92,73.12,64.46,73.21,63.85z"/>
	<path d="M75.48,57.9v-1.42h1.23v1.42H75.48z M75.48,66.51v-7.26h1.23v7.26H75.48z"/>
	<path d="M78.13,62.88c0-1.34,0.37-2.34,1.12-2.99c0.62-0.54,1.38-0.81,2.28-0.81c1,0,1.81,0.33,2.45,0.98
		c0.63,0.65,0.95,1.56,0.95,2.71c0,0.93-0.14,1.67-0.42,2.21c-0.28,0.54-0.69,0.95-1.22,1.25c-0.54,0.3-1.12,0.44-1.75,0.44
		c-1.02,0-1.84-0.33-2.46-0.98C78.44,65.04,78.13,64.1,78.13,62.88z M79.39,62.88c0,0.93,0.2,1.63,0.61,2.09
		c0.41,0.46,0.92,0.69,1.53,0.69c0.61,0,1.12-0.23,1.52-0.7c0.41-0.46,0.61-1.17,0.61-2.13c0-0.9-0.21-1.58-0.61-2.04
		c-0.41-0.46-0.92-0.69-1.52-0.69c-0.62,0-1.13,0.23-1.53,0.69C79.59,61.25,79.39,61.95,79.39,62.88z M80.85,58.35l0.91-1.91h1.61
		l-1.5,1.91H80.85z"/>
	<path d="M86.37,66.51v-7.26h1.11v1.03c0.53-0.8,1.3-1.2,2.31-1.2c0.44,0,0.84,0.08,1.21,0.24s0.64,0.36,0.82,0.62
		c0.18,0.26,0.31,0.56,0.38,0.91c0.05,0.23,0.07,0.63,0.07,1.2v4.46h-1.23v-4.42c0-0.5-0.05-0.88-0.14-1.12
		c-0.1-0.25-0.27-0.45-0.51-0.59c-0.24-0.15-0.53-0.22-0.86-0.22c-0.52,0-0.98,0.17-1.36,0.5c-0.38,0.33-0.57,0.96-0.57,1.89v3.96
		H86.37z"/>
	<path d="M98.41,69.45V56.31h1.07v13.14H98.41z"/>
	<path d="M110.42,62.58V61.4l4.24-0.01v3.72c-0.65,0.52-1.32,0.91-2.02,1.17c-0.69,0.26-1.4,0.39-2.13,0.39
		c-0.98,0-1.88-0.21-2.68-0.63c-0.8-0.42-1.41-1.03-1.82-1.83c-0.41-0.8-0.62-1.69-0.62-2.67c0-0.97,0.21-1.89,0.61-2.73
		c0.41-0.85,1-1.47,1.76-1.88s1.65-0.62,2.64-0.62c0.72,0,1.38,0.12,1.97,0.35c0.58,0.23,1.04,0.56,1.38,0.98
		c0.33,0.42,0.58,0.97,0.76,1.64l-1.2,0.33c-0.15-0.51-0.34-0.91-0.56-1.2c-0.22-0.29-0.54-0.53-0.96-0.7
		c-0.42-0.18-0.88-0.26-1.38-0.26c-0.61,0-1.13,0.09-1.57,0.28c-0.44,0.18-0.8,0.43-1.07,0.73s-0.48,0.63-0.63,0.99
		c-0.25,0.62-0.38,1.29-0.38,2.02c0,0.89,0.15,1.64,0.46,2.24s0.75,1.05,1.34,1.34c0.59,0.29,1.21,0.44,1.87,0.44
		c0.57,0,1.13-0.11,1.68-0.33c0.55-0.22,0.96-0.46,1.24-0.71v-1.87H110.42z"/>
	<path d="M115.52,66.51l3.85-10.02h1.43l4.1,10.02h-1.51l-1.17-3.04h-4.19l-1.1,3.04H115.52z M118.41,62.39h3.4l-1.05-2.78
		c-0.32-0.84-0.56-1.54-0.71-2.08c-0.13,0.64-0.31,1.28-0.54,1.91L118.41,62.39z"/>
	<path d="M125.9,66.51V56.49h3.76c0.77,0,1.38,0.1,1.84,0.3c0.46,0.2,0.83,0.51,1.09,0.94c0.26,0.42,0.39,0.86,0.39,1.32
		c0,0.43-0.12,0.83-0.35,1.21c-0.23,0.38-0.58,0.68-1.05,0.92c0.61,0.18,1.07,0.48,1.4,0.91c0.33,0.43,0.49,0.93,0.49,1.52
		c0,0.47-0.1,0.91-0.3,1.31s-0.44,0.71-0.74,0.93c-0.29,0.22-0.66,0.38-1.1,0.5c-0.44,0.11-0.98,0.17-1.62,0.17H125.9z M127.23,60.7
		h2.17c0.59,0,1.01-0.04,1.26-0.12c0.34-0.1,0.59-0.27,0.76-0.5s0.26-0.52,0.26-0.88c0-0.33-0.08-0.62-0.24-0.88
		c-0.16-0.25-0.39-0.43-0.68-0.52c-0.3-0.09-0.8-0.14-1.52-0.14h-2V60.7z M127.23,65.32h2.5c0.43,0,0.73-0.02,0.9-0.05
		c0.3-0.05,0.56-0.15,0.77-0.27c0.21-0.13,0.37-0.31,0.51-0.56c0.13-0.24,0.2-0.53,0.2-0.84c0-0.37-0.1-0.7-0.29-0.97
		c-0.19-0.28-0.46-0.47-0.8-0.58c-0.34-0.11-0.83-0.17-1.47-0.17h-2.32V65.32z"/>
	<path d="M134.2,66.51l3.85-10.02h1.43l4.1,10.02h-1.51l-1.17-3.04h-4.19l-1.1,3.04H134.2z M137.09,62.39h3.4l-1.05-2.78
		c-0.32-0.84-0.56-1.54-0.71-2.08c-0.13,0.64-0.31,1.28-0.54,1.91L137.09,62.39z"/>
	<path d="M144.65,66.51V56.49h4.44c0.89,0,1.57,0.09,2.04,0.27c0.46,0.18,0.84,0.5,1.11,0.95c0.28,0.46,0.42,0.96,0.42,1.51
		c0,0.71-0.23,1.31-0.69,1.8c-0.46,0.49-1.17,0.8-2.13,0.93c0.35,0.17,0.62,0.33,0.8,0.5c0.39,0.36,0.75,0.8,1.1,1.33l1.74,2.73
		h-1.67l-1.33-2.08c-0.39-0.6-0.71-1.06-0.96-1.38c-0.25-0.32-0.48-0.54-0.67-0.67c-0.2-0.13-0.4-0.22-0.61-0.27
		c-0.15-0.03-0.4-0.05-0.74-0.05h-1.54v4.45H144.65z M145.98,60.91h2.85c0.61,0,1.08-0.06,1.42-0.19c0.34-0.13,0.6-0.33,0.78-0.6
		c0.18-0.28,0.27-0.58,0.27-0.9c0-0.47-0.17-0.86-0.52-1.17c-0.34-0.3-0.89-0.46-1.63-0.46h-3.17V60.91z"/>
</g>
</svg>
