<?xml version="1.0" encoding="utf-8"?>
<!-- Generator: Adobe Illustrator 25.4.1, SVG Export Plug-In . SVG Version: 6.00 Build 0)  -->
<svg version="1.1" id="Capa_1" xmlns="http://www.w3.org/2000/svg" xmlns:xlink="http://www.w3.org/1999/xlink" x="0px" y="0px"
	 viewBox="0 0 184 7" style="enable-background:new 0 0 184 7;" xml:space="preserve">
<style type="text/css">
	.st0{fill:#3F3E3E;}
</style>
<g>
	<path class="st0" d="M0.24,4.44l0.61-0.1C0.88,4.58,0.97,4.77,1.13,4.9C1.29,5.03,1.5,5.1,1.79,5.1c0.28,0,0.49-0.06,0.63-0.17
		s0.21-0.25,0.21-0.41c0-0.14-0.06-0.25-0.18-0.33C2.35,4.13,2.14,4.07,1.81,3.98c-0.45-0.11-0.76-0.21-0.94-0.3
		C0.7,3.6,0.56,3.49,0.47,3.34C0.38,3.19,0.34,3.03,0.34,2.85c0-0.16,0.04-0.31,0.11-0.45c0.07-0.14,0.18-0.25,0.3-0.34
		c0.1-0.07,0.23-0.13,0.39-0.18c0.16-0.05,0.34-0.07,0.53-0.07c0.28,0,0.54,0.04,0.75,0.12S2.8,2.12,2.9,2.26
		C3,2.4,3.08,2.59,3.11,2.83l-0.6,0.08C2.49,2.72,2.41,2.58,2.28,2.47S1.96,2.31,1.72,2.31c-0.28,0-0.48,0.05-0.6,0.14
		c-0.12,0.09-0.18,0.2-0.18,0.33c0,0.08,0.03,0.15,0.08,0.22c0.05,0.07,0.13,0.12,0.24,0.16c0.06,0.02,0.24,0.08,0.54,0.16
		C2.22,3.43,2.53,3.53,2.7,3.6s0.31,0.18,0.4,0.32c0.1,0.14,0.15,0.32,0.15,0.53c0,0.21-0.06,0.4-0.18,0.58
		C2.95,5.21,2.78,5.35,2.55,5.45C2.33,5.55,2.07,5.6,1.79,5.6c-0.47,0-0.83-0.1-1.08-0.29C0.46,5.11,0.3,4.82,0.24,4.44z"/>
	<path class="st0" d="M4.16,5.52v-0.7h0.7v0.7H4.16z"/>
	<path class="st0" d="M5.93,5.52V1.89h0.55V2.4c0.11-0.18,0.27-0.32,0.45-0.43c0.19-0.11,0.4-0.16,0.65-0.16
		c0.27,0,0.49,0.06,0.66,0.17C8.41,2.09,8.53,2.24,8.6,2.44c0.29-0.42,0.66-0.64,1.12-0.64c0.36,0,0.64,0.1,0.83,0.3
		c0.19,0.2,0.29,0.51,0.29,0.92v2.49h-0.61V3.23c0-0.25-0.02-0.42-0.06-0.53c-0.04-0.11-0.11-0.2-0.22-0.26
		c-0.11-0.07-0.23-0.1-0.37-0.1c-0.26,0-0.47,0.08-0.64,0.25S8.7,3.04,8.7,3.41v2.11H8.08V3.16c0-0.27-0.05-0.48-0.15-0.62
		S7.67,2.34,7.44,2.34c-0.17,0-0.33,0.05-0.48,0.14C6.81,2.57,6.71,2.7,6.64,2.88c-0.07,0.18-0.1,0.43-0.1,0.76v1.88H5.93z"/>
	<path class="st0" d="M14.24,4.35l0.64,0.08c-0.1,0.37-0.29,0.66-0.56,0.86C14.05,5.5,13.7,5.6,13.28,5.6
		c-0.53,0-0.95-0.16-1.26-0.49c-0.31-0.33-0.47-0.79-0.47-1.38c0-0.61,0.16-1.08,0.47-1.42s0.72-0.51,1.22-0.51
		c0.49,0,0.88,0.17,1.19,0.5c0.31,0.33,0.46,0.8,0.46,1.39c0,0.04,0,0.09,0,0.16h-2.71c0.02,0.4,0.13,0.71,0.34,0.92
		c0.2,0.21,0.46,0.32,0.76,0.32c0.23,0,0.42-0.06,0.58-0.18C14.02,4.8,14.15,4.61,14.24,4.35z M12.22,3.36h2.03
		c-0.03-0.3-0.11-0.53-0.23-0.69c-0.2-0.24-0.45-0.36-0.76-0.36c-0.28,0-0.52,0.09-0.71,0.28C12.35,2.79,12.24,3.04,12.22,3.36z"/>
	<path class="st0" d="M18.01,5.52V5.06c-0.23,0.36-0.57,0.54-1.01,0.54c-0.29,0-0.56-0.08-0.8-0.24s-0.43-0.38-0.56-0.67
		s-0.2-0.62-0.2-0.99c0-0.36,0.06-0.69,0.18-0.99s0.3-0.52,0.54-0.68c0.24-0.16,0.51-0.24,0.81-0.24c0.22,0,0.41,0.05,0.58,0.14
		c0.17,0.09,0.31,0.21,0.42,0.36v-1.8h0.61v5.01H18.01z M16.06,3.71c0,0.46,0.1,0.81,0.29,1.04c0.2,0.23,0.43,0.35,0.69,0.35
		c0.27,0,0.5-0.11,0.69-0.33s0.28-0.55,0.28-1.01c0-0.5-0.1-0.86-0.29-1.09s-0.43-0.35-0.71-0.35c-0.27,0-0.5,0.11-0.69,0.34
		C16.15,2.88,16.06,3.23,16.06,3.71z"/>
	<path class="st0" d="M19.55,1.22V0.51h0.62v0.71H19.55z M19.55,5.52V1.89h0.62v3.63H19.55z"/>
	<path class="st0" d="M21.1,5.52V1.89h0.55v0.52c0.27-0.4,0.65-0.6,1.16-0.6c0.22,0,0.42,0.04,0.6,0.12
		C23.6,2,23.73,2.11,23.82,2.23c0.09,0.13,0.15,0.28,0.19,0.46c0.02,0.11,0.03,0.31,0.03,0.6v2.23h-0.62V3.31
		c0-0.25-0.02-0.44-0.07-0.56s-0.13-0.22-0.25-0.3c-0.12-0.07-0.26-0.11-0.43-0.11c-0.26,0-0.49,0.08-0.68,0.25
		c-0.19,0.17-0.29,0.48-0.29,0.95v1.98H21.1z"/>
	<path class="st0" d="M27.36,5.07c-0.23,0.19-0.45,0.33-0.66,0.41c-0.21,0.08-0.44,0.12-0.68,0.12c-0.4,0-0.71-0.1-0.92-0.29
		c-0.21-0.2-0.32-0.44-0.32-0.75c0-0.18,0.04-0.34,0.12-0.49c0.08-0.15,0.19-0.26,0.32-0.35c0.13-0.09,0.28-0.16,0.44-0.2
		c0.12-0.03,0.3-0.06,0.55-0.09c0.5-0.06,0.86-0.13,1.1-0.21c0-0.08,0-0.14,0-0.16c0-0.25-0.06-0.43-0.17-0.53
		c-0.16-0.14-0.39-0.21-0.7-0.21c-0.29,0-0.5,0.05-0.64,0.15s-0.24,0.28-0.31,0.54l-0.6-0.08c0.05-0.26,0.14-0.47,0.27-0.62
		s0.31-0.28,0.54-0.37c0.24-0.08,0.51-0.13,0.82-0.13c0.31,0,0.56,0.04,0.76,0.11c0.19,0.07,0.34,0.17,0.43,0.28
		s0.16,0.25,0.19,0.42c0.02,0.1,0.03,0.29,0.03,0.57V4c0,0.57,0.01,0.93,0.04,1.09s0.08,0.3,0.16,0.44h-0.64
		C27.42,5.39,27.38,5.24,27.36,5.07z M27.31,3.7c-0.22,0.09-0.56,0.17-1.01,0.23c-0.25,0.04-0.43,0.08-0.54,0.12
		c-0.1,0.05-0.19,0.11-0.24,0.2c-0.06,0.09-0.08,0.19-0.08,0.29c0,0.16,0.06,0.3,0.19,0.41c0.12,0.11,0.31,0.16,0.54,0.16
		c0.24,0,0.45-0.05,0.63-0.16c0.18-0.1,0.32-0.25,0.41-0.42c0.07-0.14,0.1-0.34,0.1-0.62V3.7z"/>
	<path class="st0" d="M32.39,4.96c-0.15,0.17-0.31,0.31-0.5,0.41c-0.18,0.1-0.37,0.16-0.55,0.16c-0.2,0-0.4-0.06-0.59-0.18
		c-0.19-0.12-0.35-0.3-0.47-0.55S30.11,4.29,30.11,4c0-0.36,0.09-0.73,0.28-1.09s0.42-0.64,0.69-0.82c0.28-0.18,0.54-0.27,0.8-0.27
		c0.2,0,0.39,0.05,0.57,0.16s0.33,0.26,0.46,0.47l0.12-0.53h0.61l-0.49,2.29c-0.07,0.32-0.1,0.5-0.1,0.53
		c0,0.06,0.02,0.12,0.07,0.16c0.05,0.04,0.1,0.07,0.17,0.07c0.12,0,0.28-0.07,0.47-0.21c0.26-0.18,0.46-0.43,0.62-0.73
		c0.15-0.31,0.23-0.62,0.23-0.95c0-0.38-0.1-0.74-0.29-1.07c-0.2-0.33-0.49-0.59-0.87-0.79c-0.38-0.2-0.81-0.3-1.28-0.3
		c-0.53,0-1.02,0.12-1.46,0.37c-0.44,0.25-0.78,0.61-1.03,1.07s-0.36,0.96-0.36,1.5c0,0.56,0.12,1.04,0.36,1.44
		c0.24,0.4,0.59,0.7,1.05,0.89s0.97,0.29,1.53,0.29c0.6,0,1.1-0.1,1.5-0.3c0.4-0.2,0.71-0.44,0.91-0.73h0.62
		c-0.12,0.24-0.32,0.48-0.6,0.73c-0.28,0.25-0.62,0.45-1.01,0.59s-0.86,0.22-1.41,0.22c-0.51,0-0.97-0.06-1.4-0.19
		s-0.79-0.33-1.09-0.59s-0.53-0.56-0.68-0.9C28.9,4.88,28.8,4.42,28.8,3.92c0-0.56,0.11-1.08,0.34-1.59
		c0.28-0.62,0.67-1.09,1.18-1.42s1.13-0.49,1.86-0.49c0.56,0,1.07,0.12,1.52,0.35C34.16,1,34.52,1.34,34.78,1.8
		c0.22,0.39,0.33,0.82,0.33,1.29c0,0.66-0.23,1.25-0.7,1.76C34,5.3,33.54,5.53,33.05,5.53c-0.16,0-0.29-0.02-0.38-0.07
		c-0.1-0.05-0.17-0.12-0.21-0.21C32.43,5.2,32.41,5.1,32.39,4.96z M30.74,4.04c0,0.31,0.07,0.55,0.22,0.73
		c0.15,0.17,0.32,0.26,0.51,0.26c0.13,0,0.26-0.04,0.4-0.11s0.28-0.19,0.4-0.34c0.13-0.15,0.23-0.34,0.32-0.57s0.12-0.46,0.12-0.7
		c0-0.31-0.08-0.55-0.23-0.72s-0.34-0.26-0.56-0.26c-0.15,0-0.28,0.04-0.41,0.11c-0.13,0.07-0.25,0.19-0.37,0.36
		c-0.12,0.16-0.22,0.36-0.29,0.6C30.78,3.62,30.74,3.84,30.74,4.04z"/>
	<path class="st0" d="M35.88,5.82l0.6,0.09c0.03,0.18,0.1,0.32,0.21,0.4c0.15,0.11,0.36,0.17,0.62,0.17c0.29,0,0.51-0.06,0.66-0.17
		s0.26-0.27,0.31-0.48c0.03-0.12,0.05-0.39,0.04-0.79c-0.27,0.32-0.6,0.47-1.01,0.47c-0.5,0-0.88-0.18-1.16-0.54
		s-0.41-0.79-0.41-1.3c0-0.35,0.06-0.67,0.19-0.96c0.13-0.29,0.31-0.52,0.55-0.68c0.24-0.16,0.52-0.24,0.84-0.24
		c0.43,0,0.78,0.17,1.06,0.52V1.89h0.57v3.14c0,0.57-0.06,0.97-0.17,1.2c-0.11,0.24-0.3,0.42-0.55,0.56
		c-0.25,0.14-0.56,0.21-0.92,0.21c-0.43,0-0.78-0.1-1.05-0.29C36,6.51,35.87,6.21,35.88,5.82z M36.39,3.64
		c0,0.48,0.09,0.82,0.28,1.04s0.43,0.33,0.71,0.33c0.28,0,0.52-0.11,0.71-0.33s0.29-0.56,0.29-1.02c0-0.44-0.1-0.78-0.3-1
		c-0.2-0.23-0.43-0.34-0.71-0.34c-0.27,0-0.51,0.11-0.7,0.33C36.48,2.87,36.39,3.2,36.39,3.64z"/>
	<path class="st0" d="M42.25,5.07c-0.23,0.19-0.45,0.33-0.66,0.41c-0.21,0.08-0.44,0.12-0.68,0.12c-0.4,0-0.71-0.1-0.92-0.29
		c-0.21-0.2-0.32-0.44-0.32-0.75c0-0.18,0.04-0.34,0.12-0.49c0.08-0.15,0.19-0.26,0.32-0.35s0.28-0.16,0.44-0.2
		c0.12-0.03,0.3-0.06,0.55-0.09c0.5-0.06,0.86-0.13,1.1-0.21c0-0.08,0-0.14,0-0.16c0-0.25-0.06-0.43-0.17-0.53
		c-0.16-0.14-0.39-0.21-0.7-0.21c-0.29,0-0.5,0.05-0.64,0.15c-0.14,0.1-0.24,0.28-0.31,0.54l-0.6-0.08
		c0.05-0.26,0.14-0.47,0.27-0.62c0.12-0.16,0.31-0.28,0.54-0.37c0.24-0.08,0.51-0.13,0.82-0.13c0.31,0,0.56,0.04,0.75,0.11
		s0.34,0.17,0.43,0.28c0.09,0.11,0.16,0.25,0.19,0.42c0.02,0.1,0.03,0.29,0.03,0.57V4c0,0.57,0.01,0.93,0.04,1.09
		c0.03,0.15,0.08,0.3,0.16,0.44h-0.64C42.31,5.39,42.27,5.24,42.25,5.07z M42.2,3.7c-0.22,0.09-0.56,0.17-1,0.23
		c-0.25,0.04-0.43,0.08-0.54,0.12c-0.1,0.05-0.19,0.11-0.24,0.2s-0.09,0.19-0.09,0.29c0,0.16,0.06,0.3,0.19,0.41
		c0.12,0.11,0.3,0.16,0.54,0.16c0.24,0,0.45-0.05,0.63-0.16s0.32-0.25,0.41-0.42c0.07-0.14,0.1-0.34,0.1-0.62V3.7z"/>
	<path class="st0" d="M44.35,5.52h-0.57V0.51h0.62V2.3c0.26-0.33,0.59-0.49,1-0.49c0.22,0,0.43,0.04,0.63,0.13
		c0.2,0.09,0.36,0.22,0.49,0.38c0.13,0.16,0.23,0.36,0.3,0.59c0.07,0.23,0.11,0.48,0.11,0.74c0,0.62-0.15,1.1-0.46,1.44
		c-0.31,0.34-0.68,0.51-1.11,0.51c-0.43,0-0.76-0.18-1.01-0.54V5.52z M44.34,3.68c0,0.43,0.06,0.75,0.18,0.94
		c0.19,0.32,0.46,0.47,0.79,0.47c0.27,0,0.5-0.12,0.7-0.35c0.2-0.23,0.29-0.58,0.29-1.04c0-0.47-0.09-0.82-0.28-1.05
		c-0.19-0.23-0.42-0.34-0.68-0.34c-0.27,0-0.5,0.12-0.7,0.35C44.44,2.9,44.34,3.24,44.34,3.68z"/>
	<path class="st0" d="M50.04,5.07c-0.23,0.19-0.45,0.33-0.66,0.41C49.17,5.56,48.95,5.6,48.7,5.6c-0.4,0-0.71-0.1-0.92-0.29
		c-0.21-0.2-0.32-0.44-0.32-0.75c0-0.18,0.04-0.34,0.12-0.49c0.08-0.15,0.19-0.26,0.32-0.35c0.13-0.09,0.28-0.16,0.44-0.2
		c0.12-0.03,0.3-0.06,0.55-0.09c0.5-0.06,0.86-0.13,1.1-0.21c0-0.08,0-0.14,0-0.16c0-0.25-0.06-0.43-0.17-0.53
		c-0.16-0.14-0.39-0.21-0.7-0.21c-0.29,0-0.5,0.05-0.64,0.15c-0.14,0.1-0.24,0.28-0.31,0.54l-0.6-0.08
		c0.05-0.26,0.14-0.47,0.27-0.62c0.13-0.16,0.31-0.28,0.54-0.37c0.24-0.08,0.51-0.13,0.82-0.13c0.31,0,0.56,0.04,0.76,0.11
		s0.34,0.17,0.43,0.28c0.09,0.11,0.15,0.25,0.19,0.42c0.02,0.1,0.03,0.29,0.03,0.57V4c0,0.57,0.01,0.93,0.04,1.09
		c0.03,0.15,0.08,0.3,0.15,0.44h-0.64C50.1,5.39,50.06,5.24,50.04,5.07z M49.99,3.7c-0.22,0.09-0.56,0.17-1,0.23
		c-0.25,0.04-0.43,0.08-0.54,0.12c-0.11,0.05-0.19,0.11-0.24,0.2s-0.08,0.19-0.08,0.29c0,0.16,0.06,0.3,0.19,0.41
		c0.12,0.11,0.31,0.16,0.54,0.16c0.24,0,0.45-0.05,0.63-0.16s0.32-0.25,0.41-0.42c0.07-0.14,0.1-0.34,0.1-0.62V3.7z"/>
	<path class="st0" d="M51.56,5.52V1.89h0.55v0.55c0.14-0.26,0.27-0.43,0.39-0.51c0.12-0.08,0.25-0.12,0.39-0.12
		c0.21,0,0.42,0.07,0.63,0.2l-0.21,0.57c-0.15-0.09-0.3-0.13-0.45-0.13c-0.13,0-0.25,0.04-0.36,0.12s-0.18,0.19-0.23,0.34
		c-0.07,0.22-0.1,0.46-0.1,0.72v1.9H51.56z"/>
	<path class="st0" d="M53.68,5.52v-0.7h0.7v0.7H53.68z"/>
	<path class="st0" d="M55.45,5.52V1.89H56V2.4c0.11-0.18,0.27-0.32,0.46-0.43c0.19-0.11,0.4-0.16,0.65-0.16
		c0.27,0,0.49,0.06,0.66,0.17c0.17,0.11,0.29,0.27,0.36,0.47c0.29-0.42,0.66-0.64,1.12-0.64c0.36,0,0.64,0.1,0.83,0.3
		c0.19,0.2,0.29,0.51,0.29,0.92v2.49h-0.61V3.23c0-0.25-0.02-0.42-0.06-0.53s-0.11-0.2-0.22-0.26c-0.1-0.07-0.23-0.1-0.37-0.1
		c-0.25,0-0.47,0.08-0.64,0.25s-0.25,0.44-0.25,0.81v2.11h-0.62V3.16c0-0.27-0.05-0.48-0.15-0.62s-0.26-0.21-0.49-0.21
		c-0.17,0-0.33,0.05-0.48,0.14c-0.15,0.09-0.25,0.22-0.32,0.4c-0.07,0.18-0.1,0.43-0.1,0.76v1.88H55.45z"/>
	<path class="st0" d="M60.88,5.52l1.33-1.89l-1.23-1.74h0.77l0.56,0.85c0.1,0.16,0.19,0.3,0.25,0.41c0.1-0.15,0.19-0.28,0.28-0.4
		l0.61-0.86h0.73L62.92,3.6l1.35,1.92h-0.75l-0.75-1.13l-0.2-0.3l-0.95,1.43H60.88z"/>
</g>
</svg>
