<?xml version="1.0" encoding="utf-8"?>
<!-- Generator: Adobe Illustrator 25.4.1, SVG Export Plug-In . SVG Version: 6.00 Build 0)  -->
<svg version="1.1" id="Capa_1" xmlns="http://www.w3.org/2000/svg" xmlns:xlink="http://www.w3.org/1999/xlink" x="0px" y="0px"
	 viewBox="0 0 184 7" style="enable-background:new 0 0 184 7;" xml:space="preserve">
<style type="text/css">
	.st0{fill:#3F3E3E;}
</style>
<g>
	<path class="st0" d="M0.48,5.52V1.89h0.55v0.55C1.17,2.18,1.3,2.01,1.42,1.93c0.12-0.08,0.25-0.12,0.4-0.12
		c0.21,0,0.42,0.07,0.63,0.2L2.24,2.58c-0.15-0.09-0.3-0.13-0.45-0.13c-0.13,0-0.26,0.04-0.36,0.12C1.32,2.65,1.24,2.76,1.19,2.9
		c-0.07,0.22-0.1,0.46-0.1,0.72v1.9H0.48z"/>
	<path class="st0" d="M2.6,5.52v-0.7h0.7v0.7H2.6z"/>
	<path class="st0" d="M4.37,5.52V1.89h0.55v0.55c0.14-0.26,0.27-0.43,0.39-0.51s0.25-0.12,0.39-0.12c0.21,0,0.42,0.07,0.63,0.2
		L6.12,2.58c-0.15-0.09-0.3-0.13-0.45-0.13c-0.13,0-0.25,0.04-0.36,0.12C5.21,2.65,5.13,2.76,5.08,2.9c-0.07,0.22-0.1,0.46-0.1,0.72
		v1.9H4.37z"/>
	<path class="st0" d="M9.19,4.35l0.64,0.08C9.72,4.8,9.54,5.09,9.27,5.29S8.65,5.6,8.23,5.6c-0.53,0-0.95-0.16-1.26-0.49
		S6.5,4.33,6.5,3.74c0-0.61,0.16-1.08,0.47-1.42s0.72-0.51,1.22-0.51c0.49,0,0.88,0.17,1.19,0.5C9.69,2.63,9.84,3.1,9.84,3.7
		c0,0.04,0,0.09,0,0.16H7.13c0.02,0.4,0.14,0.71,0.34,0.92C7.67,4.99,7.93,5.1,8.23,5.1c0.23,0,0.42-0.06,0.58-0.18
		S9.09,4.61,9.19,4.35z M7.17,3.36H9.2c-0.03-0.3-0.11-0.53-0.23-0.69C8.77,2.43,8.51,2.31,8.2,2.31c-0.28,0-0.52,0.09-0.71,0.28
		C7.29,2.79,7.19,3.04,7.17,3.36z"/>
	<path class="st0" d="M9.81,6.93L9.93,6.4c0.12,0.03,0.22,0.05,0.29,0.05c0.12,0,0.22-0.04,0.28-0.12c0.06-0.08,0.09-0.29,0.09-0.62
		V1.89h0.62v3.83c0,0.45-0.06,0.76-0.17,0.93c-0.15,0.23-0.39,0.34-0.74,0.34C10.13,6.99,9.97,6.97,9.81,6.93z M10.59,1.22V0.51
		h0.62v0.71H10.59z"/>
	<path class="st0" d="M11.92,3.71c0-0.67,0.19-1.17,0.56-1.49c0.31-0.27,0.69-0.4,1.14-0.4c0.5,0,0.91,0.16,1.22,0.49
		c0.32,0.33,0.48,0.78,0.48,1.36c0,0.47-0.07,0.83-0.21,1.1s-0.34,0.48-0.61,0.62c-0.27,0.15-0.56,0.22-0.88,0.22
		c-0.51,0-0.92-0.16-1.23-0.49C12.08,4.79,11.92,4.32,11.92,3.71z M12.55,3.71c0,0.46,0.1,0.81,0.3,1.04
		c0.2,0.23,0.46,0.35,0.77,0.35c0.3,0,0.56-0.12,0.76-0.35s0.3-0.59,0.3-1.06c0-0.45-0.1-0.79-0.31-1.02
		c-0.2-0.23-0.46-0.35-0.76-0.35c-0.31,0-0.56,0.12-0.77,0.35C12.66,2.89,12.55,3.24,12.55,3.71z"/>
	<path class="st0" d="M16.04,5.52V1.89h0.55v0.52c0.27-0.4,0.65-0.6,1.16-0.6c0.22,0,0.42,0.04,0.6,0.12
		c0.18,0.08,0.32,0.18,0.41,0.31c0.09,0.13,0.16,0.28,0.19,0.46c0.02,0.11,0.03,0.31,0.03,0.6v2.23h-0.62V3.31
		c0-0.25-0.02-0.44-0.07-0.56c-0.05-0.12-0.13-0.22-0.25-0.3c-0.12-0.07-0.27-0.11-0.43-0.11c-0.26,0-0.49,0.08-0.68,0.25
		c-0.19,0.17-0.29,0.48-0.29,0.95v1.98H16.04z"/>
	<path class="st0" d="M23.44,4.96c-0.15,0.17-0.31,0.31-0.5,0.41s-0.37,0.16-0.55,0.16c-0.2,0-0.4-0.06-0.59-0.18
		c-0.19-0.12-0.35-0.3-0.47-0.55C21.22,4.56,21.16,4.29,21.16,4c0-0.36,0.09-0.73,0.28-1.09c0.19-0.36,0.42-0.64,0.69-0.82
		c0.28-0.18,0.54-0.27,0.8-0.27c0.2,0,0.39,0.05,0.57,0.16s0.33,0.26,0.46,0.47l0.12-0.53h0.61L24.2,4.21
		c-0.07,0.32-0.1,0.5-0.1,0.53c0,0.06,0.02,0.12,0.07,0.16c0.05,0.04,0.1,0.07,0.17,0.07c0.12,0,0.28-0.07,0.48-0.21
		c0.26-0.18,0.47-0.43,0.62-0.73c0.15-0.31,0.23-0.62,0.23-0.95c0-0.38-0.1-0.74-0.29-1.07s-0.48-0.59-0.87-0.79s-0.81-0.3-1.28-0.3
		c-0.53,0-1.02,0.12-1.46,0.37c-0.44,0.25-0.78,0.61-1.03,1.07c-0.24,0.47-0.36,0.96-0.36,1.5c0,0.56,0.12,1.04,0.36,1.44
		c0.24,0.4,0.59,0.7,1.05,0.89c0.46,0.19,0.97,0.29,1.53,0.29c0.6,0,1.1-0.1,1.5-0.3c0.4-0.2,0.71-0.44,0.91-0.73h0.62
		c-0.12,0.24-0.32,0.48-0.6,0.73c-0.28,0.25-0.62,0.45-1.01,0.59s-0.86,0.22-1.41,0.22c-0.51,0-0.97-0.06-1.4-0.19
		c-0.43-0.13-0.79-0.33-1.09-0.59s-0.53-0.56-0.68-0.9c-0.19-0.43-0.29-0.89-0.29-1.39c0-0.56,0.11-1.08,0.34-1.59
		c0.28-0.62,0.67-1.09,1.18-1.42c0.51-0.33,1.13-0.49,1.86-0.49c0.57,0,1.07,0.12,1.52,0.35c0.45,0.23,0.8,0.58,1.06,1.03
		c0.22,0.39,0.33,0.82,0.33,1.29c0,0.66-0.23,1.25-0.7,1.76C25.05,5.3,24.6,5.53,24.1,5.53c-0.16,0-0.28-0.02-0.38-0.07
		c-0.1-0.05-0.17-0.12-0.21-0.21C23.48,5.2,23.46,5.1,23.44,4.96z M21.79,4.04c0,0.31,0.07,0.55,0.22,0.73
		c0.15,0.17,0.32,0.26,0.51,0.26c0.13,0,0.26-0.04,0.4-0.11s0.28-0.19,0.41-0.34S23.56,4.23,23.65,4s0.12-0.46,0.12-0.7
		c0-0.31-0.08-0.55-0.23-0.72c-0.15-0.17-0.34-0.26-0.56-0.26c-0.15,0-0.28,0.04-0.41,0.11s-0.25,0.19-0.38,0.36
		c-0.12,0.16-0.22,0.36-0.29,0.6C21.83,3.62,21.79,3.84,21.79,4.04z"/>
	<path class="st0" d="M26.93,5.82l0.6,0.09c0.02,0.18,0.09,0.32,0.21,0.4c0.15,0.11,0.36,0.17,0.63,0.17c0.28,0,0.5-0.06,0.66-0.17
		s0.26-0.27,0.31-0.48c0.03-0.12,0.05-0.39,0.04-0.79c-0.27,0.32-0.6,0.47-1,0.47c-0.5,0-0.89-0.18-1.16-0.54s-0.41-0.79-0.41-1.3
		c0-0.35,0.06-0.67,0.19-0.96c0.12-0.29,0.31-0.52,0.54-0.68s0.52-0.24,0.84-0.24c0.43,0,0.78,0.17,1.06,0.52V1.89h0.57v3.14
		c0,0.57-0.06,0.97-0.17,1.2c-0.12,0.24-0.3,0.42-0.55,0.56c-0.25,0.14-0.56,0.21-0.92,0.21c-0.43,0-0.78-0.1-1.05-0.29
		C27.05,6.51,26.92,6.21,26.93,5.82z M27.44,3.64c0,0.48,0.1,0.82,0.28,1.04s0.43,0.33,0.71,0.33c0.28,0,0.52-0.11,0.71-0.33
		s0.29-0.56,0.29-1.02c0-0.44-0.1-0.78-0.3-1s-0.43-0.34-0.71-0.34c-0.27,0-0.51,0.11-0.7,0.33C27.54,2.87,27.44,3.2,27.44,3.64z"/>
	<path class="st0" d="M33.3,5.07c-0.23,0.19-0.45,0.33-0.66,0.41c-0.21,0.08-0.44,0.12-0.68,0.12c-0.4,0-0.71-0.1-0.92-0.29
		c-0.21-0.2-0.32-0.44-0.32-0.75c0-0.18,0.04-0.34,0.12-0.49c0.08-0.15,0.19-0.26,0.32-0.35c0.13-0.09,0.28-0.16,0.44-0.2
		c0.12-0.03,0.3-0.06,0.55-0.09c0.5-0.06,0.86-0.13,1.1-0.21c0-0.08,0-0.14,0-0.16c0-0.25-0.06-0.43-0.17-0.53
		c-0.16-0.14-0.39-0.21-0.7-0.21c-0.29,0-0.5,0.05-0.64,0.15c-0.14,0.1-0.24,0.28-0.31,0.54l-0.6-0.08
		c0.05-0.26,0.14-0.47,0.27-0.62c0.13-0.16,0.31-0.28,0.54-0.37c0.24-0.08,0.51-0.13,0.82-0.13c0.31,0,0.56,0.04,0.76,0.11
		s0.34,0.17,0.43,0.28c0.09,0.11,0.15,0.25,0.19,0.42c0.02,0.1,0.03,0.29,0.03,0.57V4c0,0.57,0.01,0.93,0.04,1.09
		c0.03,0.15,0.08,0.3,0.15,0.44h-0.64C33.36,5.39,33.32,5.24,33.3,5.07z M33.25,3.7c-0.22,0.09-0.56,0.17-1,0.23
		C32,3.97,31.82,4.01,31.71,4.05c-0.11,0.05-0.19,0.11-0.24,0.2s-0.08,0.19-0.08,0.29c0,0.16,0.06,0.3,0.19,0.41
		c0.12,0.11,0.31,0.16,0.54,0.16c0.24,0,0.45-0.05,0.63-0.16s0.32-0.25,0.41-0.42c0.07-0.14,0.1-0.34,0.1-0.62V3.7z"/>
	<path class="st0" d="M35.4,5.52h-0.57V0.51h0.62V2.3c0.26-0.33,0.59-0.49,0.99-0.49c0.22,0,0.44,0.04,0.63,0.13
		s0.36,0.22,0.49,0.38s0.23,0.36,0.3,0.59c0.07,0.23,0.11,0.48,0.11,0.74c0,0.62-0.15,1.1-0.46,1.44c-0.31,0.34-0.68,0.51-1.11,0.51
		c-0.43,0-0.76-0.18-1.01-0.54V5.52z M35.39,3.68c0,0.43,0.06,0.75,0.18,0.94c0.19,0.32,0.46,0.47,0.79,0.47
		c0.27,0,0.5-0.12,0.7-0.35c0.2-0.23,0.29-0.58,0.29-1.04c0-0.47-0.09-0.82-0.28-1.05c-0.19-0.23-0.42-0.34-0.68-0.34
		c-0.27,0-0.5,0.12-0.7,0.35C35.49,2.9,35.39,3.24,35.39,3.68z"/>
	<path class="st0" d="M41.09,5.07c-0.23,0.19-0.45,0.33-0.66,0.41C40.22,5.56,40,5.6,39.75,5.6c-0.4,0-0.71-0.1-0.92-0.29
		c-0.21-0.2-0.32-0.44-0.32-0.75c0-0.18,0.04-0.34,0.12-0.49c0.08-0.15,0.19-0.26,0.32-0.35s0.28-0.16,0.44-0.2
		c0.12-0.03,0.3-0.06,0.55-0.09c0.5-0.06,0.86-0.13,1.1-0.21c0-0.08,0-0.14,0-0.16c0-0.25-0.06-0.43-0.17-0.53
		c-0.16-0.14-0.39-0.21-0.7-0.21c-0.29,0-0.5,0.05-0.64,0.15c-0.14,0.1-0.24,0.28-0.31,0.54l-0.6-0.08
		c0.05-0.26,0.14-0.47,0.27-0.62c0.12-0.16,0.31-0.28,0.54-0.37c0.24-0.08,0.51-0.13,0.82-0.13c0.31,0,0.56,0.04,0.75,0.11
		s0.34,0.17,0.43,0.28c0.09,0.11,0.16,0.25,0.19,0.42c0.02,0.1,0.03,0.29,0.03,0.57V4c0,0.57,0.01,0.93,0.04,1.09
		c0.03,0.15,0.08,0.3,0.16,0.44h-0.64C41.15,5.39,41.11,5.24,41.09,5.07z M41.04,3.7c-0.22,0.09-0.56,0.17-1,0.23
		c-0.25,0.04-0.43,0.08-0.54,0.12c-0.1,0.05-0.19,0.11-0.24,0.2s-0.09,0.19-0.09,0.29c0,0.16,0.06,0.3,0.19,0.41
		c0.12,0.11,0.3,0.16,0.54,0.16c0.24,0,0.45-0.05,0.63-0.16s0.32-0.25,0.41-0.42c0.07-0.14,0.1-0.34,0.1-0.62V3.7z"/>
	<path class="st0" d="M42.61,5.52V1.89h0.55v0.55c0.14-0.26,0.27-0.43,0.39-0.51c0.12-0.08,0.25-0.12,0.4-0.12
		c0.21,0,0.42,0.07,0.63,0.2l-0.21,0.57c-0.15-0.09-0.3-0.13-0.45-0.13c-0.13,0-0.26,0.04-0.36,0.12s-0.18,0.19-0.23,0.34
		c-0.07,0.22-0.1,0.46-0.1,0.72v1.9H42.61z"/>
	<path class="st0" d="M44.73,5.52v-0.7h0.7v0.7H44.73z"/>
	<path class="st0" d="M46.51,5.52V1.89h0.55V2.4c0.11-0.18,0.27-0.32,0.45-0.43c0.19-0.11,0.4-0.16,0.65-0.16
		c0.27,0,0.49,0.06,0.66,0.17c0.17,0.11,0.29,0.27,0.36,0.47c0.29-0.42,0.66-0.64,1.12-0.64c0.36,0,0.64,0.1,0.83,0.3
		c0.19,0.2,0.29,0.51,0.29,0.92v2.49h-0.61V3.23c0-0.25-0.02-0.42-0.06-0.53c-0.04-0.11-0.11-0.2-0.22-0.26
		c-0.11-0.07-0.23-0.1-0.37-0.1c-0.26,0-0.47,0.08-0.64,0.25s-0.25,0.44-0.25,0.81v2.11h-0.62V3.16c0-0.27-0.05-0.48-0.15-0.62
		s-0.26-0.21-0.49-0.21c-0.17,0-0.33,0.05-0.48,0.14c-0.15,0.09-0.25,0.22-0.32,0.4c-0.07,0.18-0.1,0.43-0.1,0.76v1.88H46.51z"/>
	<path class="st0" d="M51.93,5.52l1.33-1.89l-1.23-1.74h0.77l0.56,0.85c0.11,0.16,0.19,0.3,0.25,0.41c0.1-0.15,0.19-0.28,0.28-0.4
		l0.61-0.86h0.74L53.97,3.6l1.35,1.92h-0.76l-0.75-1.13l-0.2-0.3l-0.95,1.43H51.93z"/>
</g>
</svg>
