<?xml version="1.0" encoding="utf-8"?>
<!-- Generator: Adobe Illustrator 25.4.1, SVG Export Plug-In . SVG Version: 6.00 Build 0)  -->
<svg version="1.1" id="Capa_1" xmlns="http://www.w3.org/2000/svg" xmlns:xlink="http://www.w3.org/1999/xlink" x="0px" y="0px"
	 viewBox="0 0 184 7" style="enable-background:new 0 0 184 7;" xml:space="preserve">
<style type="text/css">
	.st0{fill:#3F3E3E;}
</style>
<g>
	<path class="st0" d="M2.85,5.07C2.62,5.27,2.4,5.4,2.19,5.48C1.98,5.56,1.76,5.6,1.51,5.6c-0.4,0-0.71-0.1-0.92-0.29
		c-0.21-0.2-0.32-0.44-0.32-0.75c0-0.18,0.04-0.34,0.12-0.49c0.08-0.15,0.19-0.26,0.32-0.35s0.28-0.16,0.44-0.2
		c0.12-0.03,0.3-0.06,0.55-0.09C2.2,3.37,2.56,3.3,2.8,3.22c0-0.08,0-0.14,0-0.16c0-0.25-0.06-0.43-0.17-0.53
		c-0.16-0.14-0.39-0.21-0.7-0.21c-0.29,0-0.5,0.05-0.64,0.15c-0.14,0.1-0.24,0.28-0.31,0.54l-0.6-0.08C0.43,2.67,0.52,2.46,0.65,2.3
		c0.12-0.16,0.31-0.28,0.54-0.37c0.24-0.08,0.51-0.13,0.82-0.13c0.31,0,0.56,0.04,0.75,0.11S3.11,2.08,3.2,2.19
		C3.29,2.3,3.35,2.44,3.39,2.61c0.02,0.1,0.03,0.29,0.03,0.57V4c0,0.57,0.01,0.93,0.04,1.09c0.03,0.15,0.08,0.3,0.16,0.44H2.97
		C2.91,5.39,2.87,5.24,2.85,5.07z M2.8,3.7c-0.22,0.09-0.56,0.17-1,0.23C1.54,3.97,1.36,4.01,1.26,4.05
		c-0.1,0.05-0.19,0.11-0.24,0.2S0.93,4.44,0.93,4.54c0,0.16,0.06,0.3,0.19,0.41c0.12,0.11,0.3,0.16,0.54,0.16
		c0.24,0,0.45-0.05,0.63-0.16S2.61,4.72,2.7,4.54C2.77,4.4,2.8,4.19,2.8,3.92V3.7z"/>
	<path class="st0" d="M6.75,5.52V4.99C6.47,5.4,6.09,5.6,5.6,5.6C5.39,5.6,5.19,5.56,5,5.48C4.82,5.4,4.68,5.29,4.59,5.17
		C4.5,5.04,4.44,4.89,4.4,4.71C4.38,4.59,4.36,4.4,4.36,4.14V1.89h0.62V3.9c0,0.32,0.01,0.54,0.04,0.65
		c0.04,0.16,0.12,0.29,0.25,0.38c0.13,0.09,0.28,0.14,0.46,0.14s0.36-0.05,0.52-0.14s0.28-0.22,0.34-0.39s0.1-0.4,0.1-0.71V1.89H7.3
		v3.63H6.75z"/>
	<path class="st0" d="M7.86,5.52l1.33-1.89L7.96,1.89h0.77l0.56,0.85c0.11,0.16,0.19,0.3,0.25,0.41C9.64,3,9.73,2.86,9.81,2.75
		l0.61-0.86h0.73L9.91,3.6l1.35,1.92H10.5L9.76,4.39l-0.2-0.3L8.6,5.52H7.86z"/>
	<path class="st0" d="M13.92,5.52H13.3V1.6c-0.15,0.14-0.34,0.28-0.58,0.42c-0.24,0.14-0.46,0.25-0.65,0.32V1.75
		c0.34-0.16,0.65-0.36,0.9-0.59s0.44-0.45,0.55-0.67h0.4V5.52z"/>
	<path class="st0" d="M15.84,5.52v-0.7h0.7v0.7H15.84z"/>
	<path class="st0" d="M19.97,5.07c-0.23,0.19-0.45,0.33-0.66,0.41c-0.21,0.08-0.44,0.12-0.68,0.12c-0.4,0-0.71-0.1-0.92-0.29
		c-0.21-0.2-0.32-0.44-0.32-0.75c0-0.18,0.04-0.34,0.12-0.49c0.08-0.15,0.19-0.26,0.32-0.35c0.13-0.09,0.28-0.16,0.44-0.2
		c0.12-0.03,0.3-0.06,0.55-0.09c0.5-0.06,0.86-0.13,1.1-0.21c0-0.08,0-0.14,0-0.16c0-0.25-0.06-0.43-0.17-0.53
		c-0.16-0.14-0.39-0.21-0.7-0.21c-0.29,0-0.5,0.05-0.64,0.15c-0.14,0.1-0.24,0.28-0.31,0.54l-0.6-0.08
		c0.05-0.26,0.14-0.47,0.27-0.62c0.13-0.16,0.31-0.28,0.54-0.37c0.24-0.08,0.51-0.13,0.82-0.13c0.31,0,0.56,0.04,0.76,0.11
		s0.34,0.17,0.43,0.28c0.09,0.11,0.15,0.25,0.19,0.42c0.02,0.1,0.03,0.29,0.03,0.57V4c0,0.57,0.01,0.93,0.04,1.09
		c0.03,0.15,0.08,0.3,0.15,0.44H20.1C20.03,5.39,19.99,5.24,19.97,5.07z M19.92,3.7c-0.22,0.09-0.56,0.17-1,0.23
		c-0.25,0.04-0.43,0.08-0.54,0.12c-0.11,0.05-0.19,0.11-0.24,0.2s-0.08,0.19-0.08,0.29c0,0.16,0.06,0.3,0.19,0.41
		c0.12,0.11,0.31,0.16,0.54,0.16c0.24,0,0.45-0.05,0.63-0.16s0.32-0.25,0.41-0.42c0.07-0.14,0.1-0.34,0.1-0.62V3.7z"/>
	<path class="st0" d="M23.85,5.52V5.06c-0.23,0.36-0.57,0.54-1.01,0.54c-0.29,0-0.56-0.08-0.8-0.24c-0.24-0.16-0.43-0.38-0.56-0.67
		c-0.13-0.29-0.2-0.62-0.2-0.99c0-0.36,0.06-0.69,0.18-0.99c0.12-0.29,0.3-0.52,0.54-0.68c0.24-0.16,0.51-0.24,0.81-0.24
		c0.22,0,0.41,0.05,0.58,0.14c0.17,0.09,0.31,0.21,0.42,0.36v-1.8h0.61v5.01H23.85z M21.91,3.71c0,0.46,0.1,0.81,0.29,1.04
		c0.2,0.23,0.43,0.35,0.69,0.35c0.27,0,0.5-0.11,0.69-0.33c0.19-0.22,0.28-0.55,0.28-1.01c0-0.5-0.1-0.86-0.29-1.09
		s-0.43-0.35-0.71-0.35c-0.27,0-0.5,0.11-0.69,0.34C22,2.88,21.91,3.23,21.91,3.71z"/>
	<path class="st0" d="M25.39,5.52V1.89h0.55V2.4c0.11-0.18,0.27-0.32,0.45-0.43s0.4-0.16,0.65-0.16c0.27,0,0.49,0.06,0.66,0.17
		c0.17,0.11,0.29,0.27,0.36,0.47c0.29-0.42,0.66-0.64,1.12-0.64c0.36,0,0.64,0.1,0.83,0.3s0.29,0.51,0.29,0.92v2.49H29.7V3.23
		c0-0.25-0.02-0.42-0.06-0.53c-0.04-0.11-0.11-0.2-0.22-0.26c-0.1-0.07-0.23-0.1-0.37-0.1c-0.25,0-0.47,0.08-0.63,0.25
		c-0.17,0.17-0.25,0.44-0.25,0.81v2.11h-0.62V3.16c0-0.27-0.05-0.48-0.15-0.62c-0.1-0.14-0.26-0.21-0.49-0.21
		c-0.17,0-0.33,0.05-0.48,0.14c-0.15,0.09-0.25,0.22-0.32,0.4c-0.07,0.18-0.1,0.43-0.1,0.76v1.88H25.39z"/>
	<path class="st0" d="M31.23,1.22V0.51h0.62v0.71H31.23z M31.23,5.52V1.89h0.62v3.63H31.23z"/>
	<path class="st0" d="M32.78,5.52V1.89h0.55v0.52c0.27-0.4,0.65-0.6,1.16-0.6c0.22,0,0.42,0.04,0.6,0.12
		C35.27,2,35.41,2.11,35.5,2.23c0.09,0.13,0.16,0.28,0.19,0.46c0.02,0.11,0.03,0.31,0.03,0.6v2.23h-0.62V3.31
		c0-0.25-0.02-0.44-0.07-0.56c-0.05-0.12-0.13-0.22-0.25-0.3c-0.12-0.07-0.27-0.11-0.43-0.11c-0.26,0-0.49,0.08-0.68,0.25
		c-0.19,0.17-0.29,0.48-0.29,0.95v1.98H32.78z"/>
	<path class="st0" d="M36.68,1.22V0.51h0.62v0.71H36.68z M36.68,5.52V1.89h0.62v3.63H36.68z"/>
	<path class="st0" d="M37.98,4.44l0.61-0.1c0.03,0.24,0.13,0.43,0.29,0.56c0.16,0.13,0.37,0.2,0.65,0.2c0.28,0,0.49-0.06,0.63-0.17
		s0.21-0.25,0.21-0.41c0-0.14-0.06-0.25-0.18-0.33c-0.08-0.05-0.29-0.12-0.63-0.21c-0.45-0.11-0.76-0.21-0.94-0.3
		c-0.17-0.08-0.31-0.2-0.4-0.34c-0.09-0.15-0.13-0.31-0.13-0.49c0-0.16,0.04-0.31,0.11-0.45c0.07-0.14,0.17-0.25,0.3-0.34
		c0.1-0.07,0.23-0.13,0.39-0.18c0.17-0.05,0.34-0.07,0.53-0.07c0.29,0,0.54,0.04,0.75,0.12c0.22,0.08,0.38,0.19,0.48,0.33
		c0.1,0.14,0.17,0.33,0.21,0.56l-0.6,0.08c-0.03-0.19-0.11-0.33-0.24-0.44s-0.32-0.16-0.55-0.16c-0.28,0-0.48,0.05-0.61,0.14
		c-0.12,0.09-0.18,0.2-0.18,0.33c0,0.08,0.03,0.15,0.08,0.22c0.05,0.07,0.13,0.12,0.24,0.16c0.06,0.02,0.24,0.08,0.54,0.16
		c0.43,0.12,0.74,0.21,0.91,0.29s0.31,0.18,0.41,0.32S41,4.24,41,4.45c0,0.21-0.06,0.4-0.18,0.58c-0.12,0.18-0.29,0.32-0.52,0.42
		c-0.23,0.1-0.48,0.15-0.77,0.15c-0.47,0-0.83-0.1-1.08-0.29S38.05,4.82,37.98,4.44z"/>
	<path class="st0" d="M43.07,4.97l0.09,0.54c-0.17,0.04-0.33,0.05-0.46,0.05c-0.22,0-0.4-0.04-0.52-0.11
		c-0.12-0.07-0.21-0.16-0.26-0.28s-0.08-0.36-0.08-0.73V2.37h-0.45V1.89h0.45v-0.9l0.61-0.37v1.27h0.62v0.48h-0.62v2.12
		c0,0.18,0.01,0.29,0.03,0.34s0.06,0.09,0.11,0.12c0.05,0.03,0.12,0.04,0.21,0.04C42.87,4.99,42.96,4.99,43.07,4.97z"/>
	<path class="st0" d="M43.67,5.52V1.89h0.55v0.55c0.14-0.26,0.27-0.43,0.39-0.51c0.12-0.08,0.25-0.12,0.4-0.12
		c0.21,0,0.42,0.07,0.63,0.2l-0.21,0.57c-0.15-0.09-0.3-0.13-0.45-0.13c-0.13,0-0.26,0.04-0.36,0.12c-0.11,0.08-0.18,0.19-0.23,0.34
		c-0.07,0.22-0.1,0.46-0.1,0.72v1.9H43.67z"/>
	<path class="st0" d="M48.37,5.07c-0.23,0.19-0.45,0.33-0.66,0.41C47.5,5.56,47.28,5.6,47.04,5.6c-0.4,0-0.71-0.1-0.92-0.29
		c-0.21-0.2-0.32-0.44-0.32-0.75c0-0.18,0.04-0.34,0.12-0.49C46,3.93,46.1,3.81,46.23,3.72c0.13-0.09,0.28-0.16,0.44-0.2
		c0.12-0.03,0.3-0.06,0.55-0.09c0.5-0.06,0.86-0.13,1.1-0.21c0-0.08,0-0.14,0-0.16c0-0.25-0.06-0.43-0.17-0.53
		c-0.16-0.14-0.39-0.21-0.7-0.21c-0.29,0-0.5,0.05-0.64,0.15c-0.14,0.1-0.24,0.28-0.31,0.54l-0.6-0.08
		c0.05-0.26,0.14-0.47,0.27-0.62c0.13-0.16,0.31-0.28,0.54-0.37c0.24-0.08,0.51-0.13,0.82-0.13c0.31,0,0.56,0.04,0.76,0.11
		s0.34,0.17,0.43,0.28c0.09,0.11,0.15,0.25,0.19,0.42c0.02,0.1,0.03,0.29,0.03,0.57V4c0,0.57,0.01,0.93,0.04,1.09
		c0.03,0.15,0.08,0.3,0.15,0.44h-0.64C48.43,5.39,48.39,5.24,48.37,5.07z M48.32,3.7c-0.22,0.09-0.56,0.17-1,0.23
		c-0.25,0.04-0.43,0.08-0.54,0.12c-0.11,0.05-0.19,0.11-0.24,0.2s-0.08,0.19-0.08,0.29c0,0.16,0.06,0.3,0.19,0.41
		c0.12,0.11,0.31,0.16,0.54,0.16c0.24,0,0.45-0.05,0.63-0.16s0.32-0.25,0.41-0.42c0.07-0.14,0.1-0.34,0.1-0.62V3.7z"/>
	<path class="st0" d="M52.26,4.19l0.6,0.08c-0.07,0.42-0.23,0.74-0.51,0.98c-0.27,0.24-0.61,0.35-1,0.35c-0.5,0-0.9-0.16-1.2-0.49
		c-0.3-0.32-0.45-0.79-0.45-1.4c0-0.39,0.07-0.74,0.19-1.03c0.13-0.29,0.33-0.51,0.59-0.66c0.27-0.15,0.55-0.22,0.87-0.22
		c0.39,0,0.72,0.1,0.97,0.3c0.25,0.2,0.41,0.48,0.48,0.85l-0.6,0.09c-0.06-0.24-0.16-0.43-0.3-0.55c-0.15-0.12-0.32-0.18-0.52-0.18
		c-0.31,0-0.56,0.11-0.76,0.33c-0.19,0.22-0.29,0.57-0.29,1.05c0,0.49,0.09,0.84,0.28,1.06c0.19,0.22,0.43,0.33,0.73,0.33
		c0.24,0,0.44-0.07,0.61-0.22C52.12,4.73,52.22,4.5,52.26,4.19z"/>
	<path class="st0" d="M53.4,1.22V0.51h0.62v0.71H53.4z M53.4,5.52V1.89h0.62v3.63H53.4z"/>
	<path class="st0" d="M54.72,3.71c0-0.67,0.19-1.17,0.56-1.49c0.31-0.27,0.69-0.4,1.14-0.4c0.5,0,0.91,0.16,1.22,0.49
		c0.32,0.33,0.47,0.78,0.47,1.36c0,0.47-0.07,0.83-0.21,1.1c-0.14,0.27-0.34,0.48-0.61,0.62c-0.27,0.15-0.56,0.22-0.88,0.22
		c-0.51,0-0.92-0.16-1.23-0.49C54.88,4.79,54.72,4.32,54.72,3.71z M55.35,3.71c0,0.46,0.1,0.81,0.3,1.04
		c0.2,0.23,0.46,0.35,0.77,0.35c0.31,0,0.56-0.12,0.76-0.35s0.3-0.59,0.3-1.06c0-0.45-0.1-0.79-0.3-1.02
		c-0.21-0.23-0.46-0.35-0.76-0.35c-0.31,0-0.56,0.12-0.77,0.35C55.46,2.89,55.35,3.24,55.35,3.71z"/>
	<path class="st0" d="M58.84,5.52V1.89h0.55v0.52c0.27-0.4,0.65-0.6,1.15-0.6c0.22,0,0.42,0.04,0.6,0.12
		c0.18,0.08,0.32,0.18,0.41,0.31c0.09,0.13,0.15,0.28,0.19,0.46c0.02,0.11,0.03,0.31,0.03,0.6v2.23h-0.62V3.31
		c0-0.25-0.02-0.44-0.07-0.56c-0.05-0.12-0.13-0.22-0.25-0.3s-0.26-0.11-0.43-0.11c-0.26,0-0.49,0.08-0.68,0.25
		c-0.19,0.17-0.29,0.48-0.29,0.95v1.98H58.84z"/>
	<path class="st0" d="M66.24,4.96c-0.15,0.17-0.31,0.31-0.5,0.41c-0.18,0.1-0.37,0.16-0.55,0.16c-0.2,0-0.4-0.06-0.59-0.18
		c-0.19-0.12-0.35-0.3-0.47-0.55S63.96,4.29,63.96,4c0-0.36,0.09-0.73,0.28-1.09s0.42-0.64,0.69-0.82c0.28-0.18,0.54-0.27,0.8-0.27
		c0.2,0,0.39,0.05,0.57,0.16s0.33,0.26,0.46,0.47l0.12-0.53h0.61L67,4.21c-0.07,0.32-0.1,0.5-0.1,0.53c0,0.06,0.02,0.12,0.07,0.16
		c0.05,0.04,0.1,0.07,0.17,0.07c0.12,0,0.28-0.07,0.47-0.21c0.26-0.18,0.46-0.43,0.62-0.73c0.15-0.31,0.23-0.62,0.23-0.95
		c0-0.38-0.1-0.74-0.29-1.07c-0.2-0.33-0.49-0.59-0.87-0.79c-0.38-0.2-0.81-0.3-1.28-0.3c-0.53,0-1.02,0.12-1.46,0.37
		c-0.44,0.25-0.78,0.61-1.03,1.07s-0.36,0.96-0.36,1.5c0,0.56,0.12,1.04,0.36,1.44c0.24,0.4,0.59,0.7,1.05,0.89s0.97,0.29,1.53,0.29
		c0.6,0,1.1-0.1,1.5-0.3c0.4-0.2,0.71-0.44,0.91-0.73h0.62c-0.12,0.24-0.32,0.48-0.6,0.73c-0.28,0.25-0.62,0.45-1.01,0.59
		s-0.86,0.22-1.41,0.22c-0.51,0-0.97-0.06-1.4-0.19s-0.79-0.33-1.09-0.59s-0.53-0.56-0.68-0.9c-0.19-0.43-0.29-0.89-0.29-1.39
		c0-0.56,0.11-1.08,0.34-1.59c0.28-0.62,0.67-1.09,1.18-1.42s1.13-0.49,1.86-0.49c0.56,0,1.07,0.12,1.52,0.35
		C68.02,1,68.37,1.34,68.63,1.8c0.22,0.39,0.33,0.82,0.33,1.29c0,0.66-0.23,1.25-0.7,1.76C67.85,5.3,67.4,5.53,66.9,5.53
		c-0.16,0-0.29-0.02-0.38-0.07c-0.1-0.05-0.17-0.12-0.21-0.21C66.28,5.2,66.26,5.1,66.24,4.96z M64.59,4.04
		c0,0.31,0.07,0.55,0.22,0.73c0.15,0.17,0.32,0.26,0.51,0.26c0.13,0,0.26-0.04,0.4-0.11s0.28-0.19,0.4-0.34
		c0.13-0.15,0.23-0.34,0.32-0.57s0.12-0.46,0.12-0.7c0-0.31-0.08-0.55-0.23-0.72S66,2.32,65.78,2.32c-0.15,0-0.28,0.04-0.41,0.11
		c-0.13,0.07-0.25,0.19-0.37,0.36c-0.12,0.16-0.22,0.36-0.29,0.6C64.63,3.62,64.59,3.84,64.59,4.04z"/>
	<path class="st0" d="M69.73,5.82l0.6,0.09c0.03,0.18,0.1,0.32,0.21,0.4c0.15,0.11,0.36,0.17,0.62,0.17c0.29,0,0.51-0.06,0.66-0.17
		s0.26-0.27,0.31-0.48c0.03-0.12,0.05-0.39,0.04-0.79c-0.27,0.32-0.6,0.47-1.01,0.47c-0.5,0-0.88-0.18-1.16-0.54
		s-0.41-0.79-0.41-1.3c0-0.35,0.06-0.67,0.19-0.96c0.13-0.29,0.31-0.52,0.55-0.68c0.24-0.16,0.52-0.24,0.84-0.24
		c0.43,0,0.78,0.17,1.06,0.52V1.89h0.57v3.14c0,0.57-0.06,0.97-0.17,1.2c-0.11,0.24-0.3,0.42-0.55,0.56
		c-0.25,0.14-0.56,0.21-0.92,0.21c-0.43,0-0.78-0.1-1.05-0.29C69.85,6.51,69.72,6.21,69.73,5.82z M70.24,3.64
		c0,0.48,0.09,0.82,0.28,1.04s0.43,0.33,0.71,0.33c0.28,0,0.52-0.11,0.71-0.33s0.29-0.56,0.29-1.02c0-0.44-0.1-0.78-0.3-1
		c-0.2-0.23-0.43-0.34-0.71-0.34c-0.27,0-0.51,0.11-0.7,0.33C70.34,2.87,70.24,3.2,70.24,3.64z"/>
	<path class="st0" d="M76.11,5.07c-0.23,0.19-0.45,0.33-0.66,0.41c-0.21,0.08-0.44,0.12-0.68,0.12c-0.4,0-0.71-0.1-0.92-0.29
		c-0.21-0.2-0.32-0.44-0.32-0.75c0-0.18,0.04-0.34,0.12-0.49c0.08-0.15,0.19-0.26,0.32-0.35s0.28-0.16,0.44-0.2
		c0.12-0.03,0.3-0.06,0.55-0.09c0.5-0.06,0.86-0.13,1.1-0.21c0-0.08,0-0.14,0-0.16c0-0.25-0.06-0.43-0.17-0.53
		c-0.16-0.14-0.39-0.21-0.7-0.21c-0.29,0-0.5,0.05-0.64,0.15c-0.14,0.1-0.24,0.28-0.31,0.54l-0.6-0.08
		c0.05-0.26,0.14-0.47,0.27-0.62c0.12-0.16,0.31-0.28,0.54-0.37c0.24-0.08,0.51-0.13,0.82-0.13c0.31,0,0.56,0.04,0.75,0.11
		s0.34,0.17,0.43,0.28c0.09,0.11,0.16,0.25,0.19,0.42c0.02,0.1,0.03,0.29,0.03,0.57V4c0,0.57,0.01,0.93,0.04,1.09
		c0.03,0.15,0.08,0.3,0.16,0.44h-0.64C76.16,5.39,76.12,5.24,76.11,5.07z M76.05,3.7c-0.22,0.09-0.56,0.17-1,0.23
		c-0.25,0.04-0.43,0.08-0.54,0.12c-0.1,0.05-0.19,0.11-0.24,0.2s-0.09,0.19-0.09,0.29c0,0.16,0.06,0.3,0.19,0.41
		c0.12,0.11,0.3,0.16,0.54,0.16c0.24,0,0.45-0.05,0.63-0.16s0.32-0.25,0.41-0.42c0.07-0.14,0.1-0.34,0.1-0.62V3.7z"/>
	<path class="st0" d="M78.2,5.52h-0.57V0.51h0.62V2.3c0.26-0.33,0.59-0.49,1-0.49c0.22,0,0.43,0.04,0.63,0.13
		c0.2,0.09,0.36,0.22,0.49,0.38c0.13,0.16,0.23,0.36,0.3,0.59c0.07,0.23,0.11,0.48,0.11,0.74c0,0.62-0.15,1.1-0.46,1.44
		C80,5.43,79.64,5.6,79.21,5.6c-0.43,0-0.76-0.18-1.01-0.54V5.52z M78.19,3.68c0,0.43,0.06,0.75,0.18,0.94
		c0.19,0.32,0.46,0.47,0.79,0.47c0.27,0,0.5-0.12,0.7-0.35c0.2-0.23,0.29-0.58,0.29-1.04c0-0.47-0.09-0.82-0.28-1.05
		c-0.19-0.23-0.42-0.34-0.68-0.34c-0.27,0-0.5,0.12-0.7,0.35C78.29,2.9,78.19,3.24,78.19,3.68z"/>
	<path class="st0" d="M83.89,5.07c-0.23,0.19-0.45,0.33-0.66,0.41C83.02,5.56,82.8,5.6,82.55,5.6c-0.4,0-0.71-0.1-0.92-0.29
		c-0.21-0.2-0.32-0.44-0.32-0.75c0-0.18,0.04-0.34,0.12-0.49c0.08-0.15,0.19-0.26,0.32-0.35c0.13-0.09,0.28-0.16,0.44-0.2
		c0.12-0.03,0.3-0.06,0.55-0.09c0.5-0.06,0.86-0.13,1.1-0.21c0-0.08,0-0.14,0-0.16c0-0.25-0.06-0.43-0.17-0.53
		c-0.16-0.14-0.39-0.21-0.7-0.21c-0.29,0-0.5,0.05-0.64,0.15c-0.14,0.1-0.24,0.28-0.31,0.54l-0.6-0.08
		c0.05-0.26,0.14-0.47,0.27-0.62c0.13-0.16,0.31-0.28,0.54-0.37c0.24-0.08,0.51-0.13,0.82-0.13c0.31,0,0.56,0.04,0.76,0.11
		s0.34,0.17,0.43,0.28c0.09,0.11,0.15,0.25,0.19,0.42c0.02,0.1,0.03,0.29,0.03,0.57V4c0,0.57,0.01,0.93,0.04,1.09
		c0.03,0.15,0.08,0.3,0.15,0.44h-0.64C83.95,5.39,83.91,5.24,83.89,5.07z M83.84,3.7c-0.22,0.09-0.56,0.17-1,0.23
		c-0.25,0.04-0.43,0.08-0.54,0.12c-0.11,0.05-0.19,0.11-0.24,0.2s-0.08,0.19-0.08,0.29c0,0.16,0.06,0.3,0.19,0.41
		c0.12,0.11,0.31,0.16,0.54,0.16c0.24,0,0.45-0.05,0.63-0.16s0.32-0.25,0.41-0.42c0.07-0.14,0.1-0.34,0.1-0.62V3.7z"/>
	<path class="st0" d="M85.41,5.52V1.89h0.55v0.55c0.14-0.26,0.27-0.43,0.39-0.51c0.12-0.08,0.25-0.12,0.39-0.12
		c0.21,0,0.42,0.07,0.63,0.2l-0.21,0.57c-0.15-0.09-0.3-0.13-0.45-0.13c-0.13,0-0.25,0.04-0.36,0.12s-0.18,0.19-0.23,0.34
		c-0.07,0.22-0.1,0.46-0.1,0.72v1.9H85.41z"/>
	<path class="st0" d="M87.54,5.52v-0.7h0.7v0.7H87.54z"/>
	<path class="st0" d="M89.3,5.52V1.89h0.55V2.4c0.11-0.18,0.27-0.32,0.46-0.43c0.19-0.11,0.4-0.16,0.65-0.16
		c0.27,0,0.49,0.06,0.66,0.17c0.17,0.11,0.29,0.27,0.36,0.47c0.29-0.42,0.66-0.64,1.12-0.64c0.36,0,0.64,0.1,0.83,0.3
		c0.19,0.2,0.29,0.51,0.29,0.92v2.49h-0.61V3.23c0-0.25-0.02-0.42-0.06-0.53s-0.11-0.2-0.22-0.26c-0.1-0.07-0.23-0.1-0.37-0.1
		c-0.25,0-0.47,0.08-0.64,0.25s-0.25,0.44-0.25,0.81v2.11h-0.62V3.16c0-0.27-0.05-0.48-0.15-0.62s-0.26-0.21-0.49-0.21
		c-0.17,0-0.33,0.05-0.48,0.14c-0.15,0.09-0.25,0.22-0.32,0.4c-0.07,0.18-0.1,0.43-0.1,0.76v1.88H89.3z"/>
	<path class="st0" d="M94.73,5.52l1.33-1.89l-1.23-1.74h0.77l0.56,0.85c0.1,0.16,0.19,0.3,0.25,0.41c0.1-0.15,0.19-0.28,0.28-0.4
		l0.61-0.86h0.73L96.77,3.6l1.35,1.92h-0.75l-0.75-1.13l-0.2-0.3l-0.95,1.43H94.73z"/>
</g>
</svg>
