<?xml version="1.0" encoding="utf-8"?>
<!-- Generator: Adobe Illustrator 25.4.1, SVG Export Plug-In . SVG Version: 6.00 Build 0)  -->
<svg version="1.1" id="Capa_1" xmlns="http://www.w3.org/2000/svg" xmlns:xlink="http://www.w3.org/1999/xlink" x="0px" y="0px"
	 viewBox="0 0 184 7" style="enable-background:new 0 0 184 7;" xml:space="preserve">
<style type="text/css">
	.st0{fill:#3F3E3E;}
</style>
<g>
	<path class="st0" d="M2.85,5.07C2.62,5.27,2.4,5.4,2.19,5.48C1.98,5.56,1.76,5.6,1.51,5.6c-0.4,0-0.71-0.1-0.92-0.29
		c-0.21-0.2-0.32-0.44-0.32-0.75c0-0.18,0.04-0.34,0.12-0.49c0.08-0.15,0.19-0.26,0.32-0.35s0.28-0.16,0.44-0.2
		c0.12-0.03,0.3-0.06,0.55-0.09C2.2,3.37,2.56,3.3,2.8,3.22c0-0.08,0-0.14,0-0.16c0-0.25-0.06-0.43-0.17-0.53
		c-0.16-0.14-0.39-0.21-0.7-0.21c-0.29,0-0.5,0.05-0.64,0.15c-0.14,0.1-0.24,0.28-0.31,0.54l-0.6-0.08C0.43,2.67,0.52,2.46,0.65,2.3
		c0.12-0.16,0.31-0.28,0.54-0.37c0.24-0.08,0.51-0.13,0.82-0.13c0.31,0,0.56,0.04,0.75,0.11S3.11,2.08,3.2,2.19
		C3.29,2.3,3.35,2.44,3.39,2.61c0.02,0.1,0.03,0.29,0.03,0.57V4c0,0.57,0.01,0.93,0.04,1.09c0.03,0.15,0.08,0.3,0.16,0.44H2.97
		C2.91,5.39,2.87,5.24,2.85,5.07z M2.8,3.7c-0.22,0.09-0.56,0.17-1,0.23C1.54,3.97,1.36,4.01,1.26,4.05
		c-0.1,0.05-0.19,0.11-0.24,0.2S0.93,4.44,0.93,4.54c0,0.16,0.06,0.3,0.19,0.41c0.12,0.11,0.3,0.16,0.54,0.16
		c0.24,0,0.45-0.05,0.63-0.16S2.61,4.72,2.7,4.54C2.77,4.4,2.8,4.19,2.8,3.92V3.7z"/>
	<path class="st0" d="M6.75,5.52V4.99C6.47,5.4,6.09,5.6,5.6,5.6C5.39,5.6,5.19,5.56,5,5.48C4.82,5.4,4.68,5.29,4.59,5.17
		C4.5,5.04,4.44,4.89,4.4,4.71C4.38,4.59,4.36,4.4,4.36,4.14V1.89h0.62V3.9c0,0.32,0.01,0.54,0.04,0.65
		c0.04,0.16,0.12,0.29,0.25,0.38c0.13,0.09,0.28,0.14,0.46,0.14s0.36-0.05,0.52-0.14s0.28-0.22,0.34-0.39s0.1-0.4,0.1-0.71V1.89H7.3
		v3.63H6.75z"/>
	<path class="st0" d="M7.86,5.52l1.33-1.89L7.96,1.89h0.77l0.56,0.85c0.11,0.16,0.19,0.3,0.25,0.41C9.64,3,9.73,2.86,9.81,2.75
		l0.61-0.86h0.73L9.91,3.6l1.35,1.92H10.5L9.76,4.39l-0.2-0.3L8.6,5.52H7.86z"/>
	<path class="st0" d="M14.14,5.07c-0.23,0.19-0.45,0.33-0.66,0.41C13.27,5.56,13.04,5.6,12.8,5.6c-0.4,0-0.71-0.1-0.92-0.29
		c-0.21-0.2-0.32-0.44-0.32-0.75c0-0.18,0.04-0.34,0.12-0.49c0.08-0.15,0.19-0.26,0.32-0.35c0.13-0.09,0.28-0.16,0.44-0.2
		c0.12-0.03,0.3-0.06,0.55-0.09c0.5-0.06,0.86-0.13,1.1-0.21c0-0.08,0-0.14,0-0.16c0-0.25-0.06-0.43-0.17-0.53
		c-0.16-0.14-0.39-0.21-0.7-0.21c-0.29,0-0.5,0.05-0.64,0.15c-0.14,0.1-0.24,0.28-0.31,0.54l-0.6-0.08
		c0.05-0.26,0.14-0.47,0.27-0.62c0.13-0.16,0.31-0.28,0.54-0.37c0.24-0.08,0.51-0.13,0.82-0.13c0.31,0,0.56,0.04,0.76,0.11
		s0.34,0.17,0.43,0.28c0.09,0.11,0.15,0.25,0.19,0.42c0.02,0.1,0.03,0.29,0.03,0.57V4c0,0.57,0.01,0.93,0.04,1.09
		c0.03,0.15,0.08,0.3,0.15,0.44h-0.64C14.2,5.39,14.16,5.24,14.14,5.07z M14.09,3.7c-0.22,0.09-0.56,0.17-1,0.23
		c-0.25,0.04-0.43,0.08-0.54,0.12c-0.11,0.05-0.19,0.11-0.24,0.2s-0.08,0.19-0.08,0.29c0,0.16,0.06,0.3,0.19,0.41
		c0.12,0.11,0.31,0.16,0.54,0.16c0.24,0,0.45-0.05,0.63-0.16s0.32-0.25,0.41-0.42c0.07-0.14,0.1-0.34,0.1-0.62V3.7z"/>
	<path class="st0" d="M15.65,5.52V0.51h0.62v5.01H15.65z"/>
	<path class="st0" d="M17.22,5.52V1.89h0.55V2.4c0.11-0.18,0.27-0.32,0.45-0.43c0.19-0.11,0.4-0.16,0.65-0.16
		c0.27,0,0.49,0.06,0.66,0.17c0.17,0.11,0.29,0.27,0.36,0.47c0.29-0.42,0.66-0.64,1.12-0.64c0.36,0,0.64,0.1,0.83,0.3
		s0.29,0.51,0.29,0.92v2.49h-0.61V3.23c0-0.25-0.02-0.42-0.06-0.53c-0.04-0.11-0.11-0.2-0.22-0.26c-0.1-0.07-0.23-0.1-0.37-0.1
		c-0.25,0-0.47,0.08-0.63,0.25c-0.17,0.17-0.25,0.44-0.25,0.81v2.11h-0.62V3.16c0-0.27-0.05-0.48-0.15-0.62
		c-0.1-0.14-0.26-0.21-0.49-0.21c-0.17,0-0.33,0.05-0.48,0.14C18.1,2.57,18,2.7,17.93,2.88c-0.07,0.18-0.1,0.43-0.1,0.76v1.88H17.22
		z"/>
	<path class="st0" d="M25.42,5.07c-0.23,0.19-0.45,0.33-0.66,0.41c-0.21,0.08-0.44,0.12-0.68,0.12c-0.4,0-0.71-0.1-0.92-0.29
		c-0.21-0.2-0.32-0.44-0.32-0.75c0-0.18,0.04-0.34,0.12-0.49c0.08-0.15,0.19-0.26,0.32-0.35c0.13-0.09,0.28-0.16,0.44-0.2
		c0.12-0.03,0.3-0.06,0.55-0.09c0.5-0.06,0.86-0.13,1.1-0.21c0-0.08,0-0.14,0-0.16c0-0.25-0.06-0.43-0.17-0.53
		c-0.16-0.14-0.39-0.21-0.7-0.21c-0.29,0-0.5,0.05-0.64,0.15c-0.14,0.1-0.24,0.28-0.31,0.54l-0.6-0.08C23,2.67,23.09,2.46,23.21,2.3
		c0.13-0.16,0.31-0.28,0.54-0.37c0.24-0.08,0.51-0.13,0.82-0.13c0.31,0,0.56,0.04,0.76,0.11s0.34,0.17,0.43,0.28
		c0.09,0.11,0.15,0.25,0.19,0.42c0.02,0.1,0.03,0.29,0.03,0.57V4c0,0.57,0.01,0.93,0.04,1.09c0.03,0.15,0.08,0.3,0.15,0.44h-0.64
		C25.48,5.39,25.43,5.24,25.42,5.07z M25.37,3.7c-0.22,0.09-0.56,0.17-1,0.23c-0.25,0.04-0.43,0.08-0.54,0.12
		c-0.11,0.05-0.19,0.11-0.24,0.2S23.5,4.44,23.5,4.54c0,0.16,0.06,0.3,0.19,0.41c0.12,0.11,0.31,0.16,0.54,0.16
		c0.24,0,0.45-0.05,0.63-0.16s0.32-0.25,0.41-0.42c0.07-0.14,0.1-0.34,0.1-0.62V3.7z"/>
	<path class="st0" d="M29.31,4.19l0.6,0.08c-0.07,0.42-0.23,0.74-0.51,0.98c-0.27,0.24-0.61,0.35-1,0.35c-0.5,0-0.9-0.16-1.2-0.49
		c-0.3-0.32-0.45-0.79-0.45-1.4c0-0.39,0.07-0.74,0.19-1.03c0.13-0.29,0.33-0.51,0.59-0.66c0.27-0.15,0.55-0.22,0.87-0.22
		c0.39,0,0.72,0.1,0.97,0.3c0.25,0.2,0.41,0.48,0.48,0.85l-0.6,0.09C29.2,2.8,29.1,2.62,28.96,2.5c-0.15-0.12-0.32-0.18-0.52-0.18
		c-0.31,0-0.56,0.11-0.76,0.33c-0.19,0.22-0.29,0.57-0.29,1.05c0,0.49,0.09,0.84,0.28,1.06C27.85,4.99,28.1,5.1,28.4,5.1
		c0.24,0,0.44-0.07,0.61-0.22C29.16,4.73,29.27,4.5,29.31,4.19z"/>
	<path class="st0" d="M32.93,4.35l0.64,0.08C33.46,4.8,33.28,5.09,33,5.29C32.73,5.5,32.39,5.6,31.96,5.6
		c-0.53,0-0.95-0.16-1.26-0.49c-0.31-0.33-0.47-0.79-0.47-1.38c0-0.61,0.16-1.08,0.47-1.42s0.72-0.51,1.22-0.51
		c0.48,0,0.88,0.17,1.19,0.5c0.31,0.33,0.46,0.8,0.46,1.39c0,0.04,0,0.09,0,0.16h-2.71c0.02,0.4,0.14,0.71,0.34,0.92
		c0.2,0.21,0.46,0.32,0.76,0.32c0.23,0,0.42-0.06,0.58-0.18C32.71,4.8,32.83,4.61,32.93,4.35z M30.91,3.36h2.03
		c-0.03-0.3-0.1-0.53-0.23-0.69c-0.2-0.24-0.45-0.36-0.76-0.36c-0.28,0-0.52,0.09-0.71,0.28C31.03,2.79,30.93,3.04,30.91,3.36z"/>
	<path class="st0" d="M34.33,5.52V1.89h0.55v0.52c0.27-0.4,0.65-0.6,1.16-0.6c0.22,0,0.42,0.04,0.6,0.12
		c0.18,0.08,0.32,0.18,0.41,0.31c0.09,0.13,0.15,0.28,0.19,0.46c0.02,0.11,0.03,0.31,0.03,0.6v2.23h-0.62V3.31
		c0-0.25-0.02-0.44-0.07-0.56s-0.13-0.22-0.25-0.3c-0.12-0.07-0.26-0.11-0.43-0.11c-0.26,0-0.49,0.08-0.68,0.25
		c-0.19,0.17-0.29,0.48-0.29,0.95v1.98H34.33z"/>
	<path class="st0" d="M41.73,4.96c-0.15,0.17-0.31,0.31-0.5,0.41s-0.37,0.16-0.55,0.16c-0.2,0-0.4-0.06-0.59-0.18
		c-0.19-0.12-0.35-0.3-0.47-0.55c-0.12-0.25-0.18-0.52-0.18-0.81c0-0.36,0.09-0.73,0.28-1.09c0.19-0.36,0.42-0.64,0.69-0.82
		s0.54-0.27,0.8-0.27c0.2,0,0.39,0.05,0.57,0.16c0.18,0.1,0.33,0.26,0.46,0.47l0.12-0.53h0.61l-0.49,2.29
		c-0.07,0.32-0.1,0.5-0.1,0.53c0,0.06,0.02,0.12,0.07,0.16c0.05,0.04,0.1,0.07,0.17,0.07c0.12,0,0.28-0.07,0.48-0.21
		c0.26-0.18,0.46-0.43,0.62-0.73s0.23-0.62,0.23-0.95c0-0.38-0.1-0.74-0.29-1.07c-0.2-0.33-0.49-0.59-0.87-0.79
		c-0.39-0.2-0.81-0.3-1.28-0.3c-0.53,0-1.02,0.12-1.46,0.37c-0.44,0.25-0.78,0.61-1.03,1.07c-0.24,0.47-0.36,0.96-0.36,1.5
		c0,0.56,0.12,1.04,0.36,1.44c0.24,0.4,0.59,0.7,1.05,0.89c0.46,0.19,0.97,0.29,1.53,0.29c0.6,0,1.1-0.1,1.5-0.3
		c0.4-0.2,0.71-0.44,0.91-0.73h0.62c-0.12,0.24-0.32,0.48-0.6,0.73c-0.28,0.25-0.62,0.45-1.01,0.59c-0.39,0.14-0.86,0.22-1.41,0.22
		c-0.51,0-0.97-0.06-1.4-0.19c-0.43-0.13-0.79-0.33-1.09-0.59s-0.53-0.56-0.68-0.9c-0.19-0.43-0.29-0.89-0.29-1.39
		c0-0.56,0.11-1.08,0.34-1.59c0.28-0.62,0.67-1.09,1.18-1.42c0.51-0.33,1.13-0.49,1.86-0.49c0.57,0,1.07,0.12,1.52,0.35
		c0.45,0.23,0.8,0.58,1.06,1.03c0.22,0.39,0.33,0.82,0.33,1.29c0,0.66-0.23,1.25-0.7,1.76c-0.41,0.46-0.87,0.69-1.36,0.69
		c-0.16,0-0.28-0.02-0.38-0.07c-0.1-0.05-0.17-0.12-0.21-0.21C41.77,5.2,41.75,5.1,41.73,4.96z M40.08,4.04
		c0,0.31,0.07,0.55,0.22,0.73c0.15,0.17,0.32,0.26,0.51,0.26c0.13,0,0.26-0.04,0.4-0.11c0.14-0.08,0.28-0.19,0.4-0.34
		S41.85,4.23,41.94,4c0.08-0.23,0.12-0.46,0.12-0.7c0-0.31-0.08-0.55-0.23-0.72c-0.15-0.17-0.34-0.26-0.56-0.26
		c-0.15,0-0.28,0.04-0.41,0.11s-0.25,0.19-0.37,0.36s-0.22,0.36-0.29,0.6C40.12,3.62,40.08,3.84,40.08,4.04z"/>
	<path class="st0" d="M45.22,5.82l0.6,0.09c0.03,0.18,0.09,0.32,0.21,0.4c0.15,0.11,0.36,0.17,0.62,0.17c0.29,0,0.5-0.06,0.66-0.17
		c0.15-0.11,0.26-0.27,0.31-0.48c0.03-0.12,0.05-0.39,0.04-0.79c-0.27,0.32-0.6,0.47-1,0.47c-0.5,0-0.88-0.18-1.16-0.54
		s-0.41-0.79-0.41-1.3c0-0.35,0.06-0.67,0.19-0.96s0.31-0.52,0.54-0.68s0.52-0.24,0.84-0.24c0.43,0,0.78,0.17,1.06,0.52V1.89h0.57
		v3.14c0,0.57-0.06,0.97-0.17,1.2c-0.11,0.24-0.3,0.42-0.55,0.56c-0.25,0.14-0.56,0.21-0.92,0.21c-0.43,0-0.78-0.1-1.05-0.29
		C45.34,6.51,45.21,6.21,45.22,5.82z M45.73,3.64c0,0.48,0.09,0.82,0.28,1.04c0.19,0.22,0.43,0.33,0.71,0.33
		c0.28,0,0.52-0.11,0.71-0.33s0.29-0.56,0.29-1.02c0-0.44-0.1-0.78-0.3-1c-0.2-0.23-0.43-0.34-0.71-0.34c-0.27,0-0.51,0.11-0.7,0.33
		C45.83,2.87,45.73,3.2,45.73,3.64z"/>
	<path class="st0" d="M51.59,5.07c-0.23,0.19-0.45,0.33-0.66,0.41C50.73,5.56,50.5,5.6,50.26,5.6c-0.4,0-0.71-0.1-0.92-0.29
		c-0.21-0.2-0.32-0.44-0.32-0.75c0-0.18,0.04-0.34,0.12-0.49c0.08-0.15,0.19-0.26,0.32-0.35s0.28-0.16,0.44-0.2
		c0.12-0.03,0.3-0.06,0.55-0.09c0.5-0.06,0.86-0.13,1.1-0.21c0-0.08,0-0.14,0-0.16c0-0.25-0.06-0.43-0.17-0.53
		c-0.16-0.14-0.39-0.21-0.7-0.21c-0.29,0-0.5,0.05-0.64,0.15c-0.14,0.1-0.24,0.28-0.31,0.54l-0.6-0.08
		c0.05-0.26,0.14-0.47,0.27-0.62s0.31-0.28,0.54-0.37c0.24-0.08,0.51-0.13,0.82-0.13c0.31,0,0.56,0.04,0.75,0.11
		c0.19,0.07,0.34,0.17,0.43,0.28s0.15,0.25,0.19,0.42c0.02,0.1,0.03,0.29,0.03,0.57V4c0,0.57,0.01,0.93,0.04,1.09
		c0.03,0.15,0.08,0.3,0.16,0.44h-0.64C51.65,5.39,51.61,5.24,51.59,5.07z M51.54,3.7c-0.22,0.09-0.56,0.17-1,0.23
		C50.29,3.97,50.11,4.01,50,4.05c-0.11,0.05-0.19,0.11-0.24,0.2c-0.06,0.09-0.09,0.19-0.09,0.29c0,0.16,0.06,0.3,0.19,0.41
		s0.31,0.16,0.54,0.16c0.24,0,0.45-0.05,0.63-0.16c0.19-0.1,0.32-0.25,0.41-0.42c0.07-0.14,0.1-0.34,0.1-0.62V3.7z"/>
	<path class="st0" d="M53.69,5.52h-0.57V0.51h0.62V2.3c0.26-0.33,0.59-0.49,1-0.49c0.22,0,0.43,0.04,0.63,0.13
		c0.2,0.09,0.36,0.22,0.49,0.38s0.23,0.36,0.3,0.59c0.07,0.23,0.11,0.48,0.11,0.74c0,0.62-0.15,1.1-0.46,1.44
		C55.49,5.43,55.12,5.6,54.7,5.6c-0.43,0-0.77-0.18-1.01-0.54V5.52z M53.68,3.68c0,0.43,0.06,0.75,0.18,0.94
		c0.19,0.32,0.46,0.47,0.79,0.47c0.27,0,0.5-0.12,0.7-0.35s0.29-0.58,0.29-1.04c0-0.47-0.09-0.82-0.28-1.05
		c-0.19-0.23-0.42-0.34-0.68-0.34c-0.27,0-0.5,0.12-0.7,0.35S53.68,3.24,53.68,3.68z"/>
	<path class="st0" d="M59.38,5.07c-0.23,0.19-0.45,0.33-0.66,0.41c-0.21,0.08-0.44,0.12-0.68,0.12c-0.4,0-0.71-0.1-0.92-0.29
		c-0.21-0.2-0.32-0.44-0.32-0.75c0-0.18,0.04-0.34,0.12-0.49c0.08-0.15,0.19-0.26,0.32-0.35c0.13-0.09,0.28-0.16,0.44-0.2
		c0.12-0.03,0.3-0.06,0.55-0.09c0.5-0.06,0.86-0.13,1.1-0.21c0-0.08,0-0.14,0-0.16c0-0.25-0.06-0.43-0.17-0.53
		c-0.16-0.14-0.39-0.21-0.7-0.21c-0.29,0-0.5,0.05-0.64,0.15s-0.24,0.28-0.31,0.54l-0.6-0.08c0.05-0.26,0.14-0.47,0.27-0.62
		s0.31-0.28,0.54-0.37c0.24-0.08,0.51-0.13,0.82-0.13c0.31,0,0.56,0.04,0.76,0.11c0.19,0.07,0.34,0.17,0.43,0.28
		s0.16,0.25,0.19,0.42c0.02,0.1,0.03,0.29,0.03,0.57V4c0,0.57,0.01,0.93,0.04,1.09s0.08,0.3,0.16,0.44H59.5
		C59.44,5.39,59.4,5.24,59.38,5.07z M59.33,3.7c-0.22,0.09-0.56,0.17-1.01,0.23c-0.25,0.04-0.43,0.08-0.54,0.12
		c-0.1,0.05-0.19,0.11-0.24,0.2c-0.06,0.09-0.08,0.19-0.08,0.29c0,0.16,0.06,0.3,0.19,0.41c0.12,0.11,0.31,0.16,0.54,0.16
		c0.24,0,0.45-0.05,0.63-0.16c0.18-0.1,0.32-0.25,0.41-0.42c0.07-0.14,0.1-0.34,0.1-0.62V3.7z"/>
	<path class="st0" d="M60.9,5.52V1.89h0.55v0.55c0.14-0.26,0.27-0.43,0.39-0.51c0.12-0.08,0.25-0.12,0.39-0.12
		c0.21,0,0.42,0.07,0.63,0.2l-0.21,0.57c-0.15-0.09-0.3-0.13-0.45-0.13c-0.13,0-0.25,0.04-0.36,0.12c-0.11,0.08-0.18,0.19-0.23,0.34
		c-0.07,0.22-0.1,0.46-0.1,0.72v1.9H60.9z"/>
	<path class="st0" d="M63.02,5.52v-0.7h0.7v0.7H63.02z"/>
	<path class="st0" d="M64.79,5.52V1.89h0.55V2.4c0.11-0.18,0.27-0.32,0.45-0.43c0.19-0.11,0.4-0.16,0.65-0.16
		c0.27,0,0.49,0.06,0.66,0.17c0.17,0.11,0.29,0.27,0.36,0.47c0.29-0.42,0.66-0.64,1.12-0.64c0.36,0,0.64,0.1,0.83,0.3
		s0.29,0.51,0.29,0.92v2.49H69.1V3.23c0-0.25-0.02-0.42-0.06-0.53c-0.04-0.11-0.11-0.2-0.22-0.26c-0.1-0.07-0.23-0.1-0.37-0.1
		c-0.25,0-0.47,0.08-0.63,0.25c-0.17,0.17-0.25,0.44-0.25,0.81v2.11h-0.62V3.16c0-0.27-0.05-0.48-0.15-0.62
		c-0.1-0.14-0.26-0.21-0.49-0.21c-0.17,0-0.33,0.05-0.48,0.14c-0.15,0.09-0.25,0.22-0.32,0.4c-0.07,0.18-0.1,0.43-0.1,0.76v1.88
		H64.79z"/>
	<path class="st0" d="M70.22,5.52l1.33-1.89l-1.23-1.74h0.77l0.56,0.85c0.11,0.16,0.19,0.3,0.25,0.41c0.1-0.15,0.19-0.28,0.28-0.4
		l0.61-0.86h0.73L72.26,3.6l1.35,1.92h-0.76l-0.74-1.13l-0.2-0.3l-0.95,1.43H70.22z"/>
</g>
</svg>
