<?xml version="1.0" encoding="utf-8"?>
<!-- Generator: Adobe Illustrator 25.4.1, SVG Export Plug-In . SVG Version: 6.00 Build 0)  -->
<svg version="1.1" id="Capa_1" xmlns="http://www.w3.org/2000/svg" xmlns:xlink="http://www.w3.org/1999/xlink" x="0px" y="0px"
	 viewBox="0 0 184 7" style="enable-background:new 0 0 184 7;" xml:space="preserve">
<style type="text/css">
	.st0{fill:#3F3E3E;}
</style>
<g>
	<path class="st0" d="M-0.3,6.93l0.12-0.52c0.12,0.03,0.22,0.05,0.29,0.05c0.13,0,0.22-0.04,0.28-0.12S0.48,6.04,0.48,5.7V1.89h0.62
		v3.83c0,0.45-0.06,0.76-0.17,0.93C0.77,6.88,0.53,6.99,0.18,6.99C0.02,6.99-0.15,6.97-0.3,6.93z M0.48,1.22V0.51h0.62v0.71H0.48z"
		/>
	<path class="st0" d="M2.21,5.52v-0.7h0.7v0.7H2.21z"/>
	<path class="st0" d="M5.33,4.97l0.09,0.54C5.24,5.55,5.09,5.57,4.95,5.57c-0.22,0-0.4-0.04-0.52-0.11C4.31,5.39,4.22,5.3,4.17,5.18
		C4.12,5.07,4.1,4.83,4.1,4.46V2.37H3.64V1.89H4.1v-0.9l0.61-0.37v1.27h0.62v0.48H4.71v2.12c0,0.18,0.01,0.29,0.03,0.34
		C4.76,4.88,4.8,4.92,4.85,4.95c0.05,0.03,0.12,0.04,0.21,0.04C5.12,4.99,5.21,4.99,5.33,4.97z"/>
	<path class="st0" d="M5.6,5.52v-0.5l2.31-2.65C7.65,2.38,7.42,2.39,7.22,2.39H5.74v-0.5h2.97V2.3L6.74,4.6L6.36,5.02
		C6.64,5,6.9,4.99,7.14,4.99h1.68v0.53H5.6z"/>
	<path class="st0" d="M11.8,5.07c-0.23,0.19-0.45,0.33-0.66,0.41C10.93,5.56,10.7,5.6,10.46,5.6c-0.4,0-0.71-0.1-0.92-0.29
		c-0.21-0.2-0.32-0.44-0.32-0.75c0-0.18,0.04-0.34,0.12-0.49c0.08-0.15,0.19-0.26,0.32-0.35s0.28-0.16,0.44-0.2
		c0.12-0.03,0.3-0.06,0.55-0.09c0.5-0.06,0.86-0.13,1.1-0.21c0-0.08,0-0.14,0-0.16c0-0.25-0.06-0.43-0.17-0.53
		c-0.16-0.14-0.39-0.21-0.7-0.21c-0.29,0-0.5,0.05-0.64,0.15c-0.14,0.1-0.24,0.28-0.31,0.54l-0.6-0.08C9.38,2.67,9.47,2.46,9.59,2.3
		s0.31-0.28,0.54-0.37c0.24-0.08,0.51-0.13,0.82-0.13c0.31,0,0.56,0.04,0.75,0.11c0.19,0.07,0.34,0.17,0.43,0.28
		s0.15,0.25,0.19,0.42c0.02,0.1,0.03,0.29,0.03,0.57V4c0,0.57,0.01,0.93,0.04,1.09c0.03,0.15,0.08,0.3,0.16,0.44h-0.64
		C11.86,5.39,11.81,5.24,11.8,5.07z M11.74,3.7c-0.22,0.09-0.56,0.17-1,0.23c-0.25,0.04-0.43,0.08-0.54,0.12
		c-0.11,0.05-0.19,0.11-0.24,0.2C9.9,4.34,9.88,4.44,9.88,4.54c0,0.16,0.06,0.3,0.19,0.41s0.31,0.16,0.54,0.16
		c0.24,0,0.45-0.05,0.63-0.16c0.19-0.1,0.32-0.25,0.41-0.42c0.07-0.14,0.1-0.34,0.1-0.62V3.7z"/>
	<path class="st0" d="M13.89,5.52h-0.57V0.51h0.62V2.3c0.26-0.33,0.59-0.49,1-0.49c0.22,0,0.43,0.04,0.63,0.13
		c0.2,0.09,0.36,0.22,0.49,0.38s0.23,0.36,0.3,0.59c0.07,0.23,0.11,0.48,0.11,0.74c0,0.62-0.15,1.1-0.46,1.44
		C15.7,5.43,15.33,5.6,14.9,5.6c-0.43,0-0.77-0.18-1.01-0.54V5.52z M13.88,3.68c0,0.43,0.06,0.75,0.18,0.94
		c0.19,0.32,0.46,0.47,0.79,0.47c0.27,0,0.5-0.12,0.7-0.35s0.29-0.58,0.29-1.04c0-0.47-0.09-0.82-0.28-1.05
		c-0.19-0.23-0.42-0.34-0.68-0.34c-0.27,0-0.5,0.12-0.7,0.35S13.88,3.24,13.88,3.68z"/>
	<path class="st0" d="M20.72,4.96c-0.15,0.17-0.31,0.31-0.5,0.41s-0.37,0.16-0.55,0.16c-0.2,0-0.4-0.06-0.59-0.18
		c-0.19-0.12-0.35-0.3-0.47-0.55c-0.12-0.25-0.18-0.52-0.18-0.81c0-0.36,0.09-0.73,0.28-1.09c0.19-0.36,0.42-0.64,0.69-0.82
		s0.54-0.27,0.8-0.27c0.2,0,0.39,0.05,0.57,0.16c0.18,0.1,0.33,0.26,0.46,0.47l0.12-0.53h0.61l-0.49,2.29
		c-0.07,0.32-0.1,0.5-0.1,0.53c0,0.06,0.02,0.12,0.07,0.16c0.05,0.04,0.1,0.07,0.17,0.07c0.12,0,0.28-0.07,0.48-0.21
		c0.26-0.18,0.46-0.43,0.62-0.73s0.23-0.62,0.23-0.95c0-0.38-0.1-0.74-0.29-1.07c-0.2-0.33-0.49-0.59-0.87-0.79
		c-0.39-0.2-0.81-0.3-1.28-0.3c-0.53,0-1.02,0.12-1.46,0.37C18.59,1.54,18.24,1.9,18,2.36c-0.24,0.47-0.36,0.96-0.36,1.5
		c0,0.56,0.12,1.04,0.36,1.44c0.24,0.4,0.59,0.7,1.05,0.89c0.46,0.19,0.97,0.29,1.53,0.29c0.6,0,1.1-0.1,1.5-0.3
		c0.4-0.2,0.71-0.44,0.91-0.73h0.62c-0.12,0.24-0.32,0.48-0.6,0.73C22.72,6.43,22.39,6.63,22,6.78c-0.39,0.14-0.86,0.22-1.41,0.22
		c-0.51,0-0.97-0.06-1.4-0.19c-0.43-0.13-0.79-0.33-1.09-0.59s-0.53-0.56-0.68-0.9c-0.19-0.43-0.29-0.89-0.29-1.39
		c0-0.56,0.11-1.08,0.34-1.59c0.28-0.62,0.67-1.09,1.18-1.42c0.51-0.33,1.13-0.49,1.86-0.49c0.57,0,1.07,0.12,1.52,0.35
		c0.45,0.23,0.8,0.58,1.06,1.03c0.22,0.39,0.33,0.82,0.33,1.29c0,0.66-0.23,1.25-0.7,1.76c-0.41,0.46-0.87,0.69-1.36,0.69
		c-0.16,0-0.28-0.02-0.38-0.07c-0.1-0.05-0.17-0.12-0.21-0.21C20.76,5.2,20.73,5.1,20.72,4.96z M19.07,4.04
		c0,0.31,0.07,0.55,0.22,0.73c0.15,0.17,0.32,0.26,0.51,0.26c0.13,0,0.26-0.04,0.4-0.11c0.14-0.08,0.28-0.19,0.4-0.34
		S20.84,4.23,20.92,4c0.08-0.23,0.12-0.46,0.12-0.7c0-0.31-0.08-0.55-0.23-0.72c-0.15-0.17-0.34-0.26-0.56-0.26
		c-0.15,0-0.28,0.04-0.41,0.11s-0.25,0.19-0.37,0.36s-0.22,0.36-0.29,0.6C19.1,3.62,19.07,3.84,19.07,4.04z"/>
	<path class="st0" d="M24.21,5.82l0.6,0.09c0.03,0.18,0.09,0.32,0.21,0.4c0.15,0.11,0.36,0.17,0.62,0.17c0.29,0,0.5-0.06,0.66-0.17
		c0.15-0.11,0.26-0.27,0.31-0.48c0.03-0.12,0.05-0.39,0.04-0.79c-0.27,0.32-0.6,0.47-1,0.47c-0.5,0-0.88-0.18-1.16-0.54
		s-0.41-0.79-0.41-1.3c0-0.35,0.06-0.67,0.19-0.96s0.31-0.52,0.54-0.68s0.52-0.24,0.84-0.24c0.43,0,0.78,0.17,1.06,0.52V1.89h0.57
		v3.14c0,0.57-0.06,0.97-0.17,1.2c-0.11,0.24-0.3,0.42-0.55,0.56c-0.25,0.14-0.56,0.21-0.92,0.21c-0.43,0-0.78-0.1-1.05-0.29
		C24.33,6.51,24.2,6.21,24.21,5.82z M24.72,3.64c0,0.48,0.09,0.82,0.28,1.04c0.19,0.22,0.43,0.33,0.71,0.33
		c0.28,0,0.52-0.11,0.71-0.33s0.29-0.56,0.29-1.02c0-0.44-0.1-0.78-0.3-1c-0.2-0.23-0.43-0.34-0.71-0.34c-0.27,0-0.51,0.11-0.7,0.33
		C24.81,2.87,24.72,3.2,24.72,3.64z"/>
	<path class="st0" d="M30.58,5.07c-0.23,0.19-0.45,0.33-0.66,0.41c-0.21,0.08-0.44,0.12-0.68,0.12c-0.4,0-0.71-0.1-0.92-0.29
		C28.11,5.11,28,4.86,28,4.56c0-0.18,0.04-0.34,0.12-0.49c0.08-0.15,0.19-0.26,0.32-0.35s0.28-0.16,0.44-0.2
		c0.12-0.03,0.3-0.06,0.55-0.09c0.5-0.06,0.86-0.13,1.1-0.21c0-0.08,0-0.14,0-0.16c0-0.25-0.06-0.43-0.17-0.53
		c-0.16-0.14-0.39-0.21-0.7-0.21c-0.29,0-0.5,0.05-0.64,0.15c-0.14,0.1-0.24,0.28-0.31,0.54l-0.6-0.08
		c0.05-0.26,0.14-0.47,0.27-0.62s0.31-0.28,0.54-0.37c0.24-0.08,0.51-0.13,0.82-0.13c0.31,0,0.56,0.04,0.75,0.11
		c0.19,0.07,0.34,0.17,0.43,0.28s0.15,0.25,0.19,0.42c0.02,0.1,0.03,0.29,0.03,0.57V4c0,0.57,0.01,0.93,0.04,1.09
		c0.03,0.15,0.08,0.3,0.16,0.44H30.7C30.64,5.39,30.6,5.24,30.58,5.07z M30.53,3.7c-0.22,0.09-0.56,0.17-1,0.23
		c-0.25,0.04-0.43,0.08-0.54,0.12c-0.11,0.05-0.19,0.11-0.24,0.2c-0.06,0.09-0.09,0.19-0.09,0.29c0,0.16,0.06,0.3,0.19,0.41
		s0.31,0.16,0.54,0.16c0.24,0,0.45-0.05,0.63-0.16c0.19-0.1,0.32-0.25,0.41-0.42c0.07-0.14,0.1-0.34,0.1-0.62V3.7z"/>
	<path class="st0" d="M32.67,5.52H32.1V0.51h0.62V2.3c0.26-0.33,0.59-0.49,1-0.49c0.22,0,0.43,0.04,0.63,0.13
		c0.2,0.09,0.36,0.22,0.49,0.38s0.23,0.36,0.3,0.59c0.07,0.23,0.11,0.48,0.11,0.74c0,0.62-0.15,1.1-0.46,1.44
		c-0.31,0.34-0.68,0.51-1.11,0.51c-0.43,0-0.77-0.18-1.01-0.54V5.52z M32.67,3.68c0,0.43,0.06,0.75,0.18,0.94
		c0.19,0.32,0.46,0.47,0.79,0.47c0.27,0,0.5-0.12,0.7-0.35s0.29-0.58,0.29-1.04c0-0.47-0.09-0.82-0.28-1.05
		c-0.19-0.23-0.42-0.34-0.68-0.34c-0.27,0-0.5,0.12-0.7,0.35S32.67,3.24,32.67,3.68z"/>
	<path class="st0" d="M38.37,5.07c-0.23,0.19-0.45,0.33-0.66,0.41C37.5,5.56,37.27,5.6,37.03,5.6c-0.4,0-0.71-0.1-0.92-0.29
		c-0.21-0.2-0.32-0.44-0.32-0.75c0-0.18,0.04-0.34,0.12-0.49c0.08-0.15,0.19-0.26,0.32-0.35c0.13-0.09,0.28-0.16,0.44-0.2
		c0.12-0.03,0.3-0.06,0.55-0.09c0.5-0.06,0.86-0.13,1.1-0.21c0-0.08,0-0.14,0-0.16c0-0.25-0.06-0.43-0.17-0.53
		c-0.16-0.14-0.39-0.21-0.7-0.21c-0.29,0-0.5,0.05-0.64,0.15s-0.24,0.28-0.31,0.54l-0.6-0.08c0.05-0.26,0.14-0.47,0.27-0.62
		s0.31-0.28,0.54-0.37c0.24-0.08,0.51-0.13,0.82-0.13c0.31,0,0.56,0.04,0.76,0.11c0.19,0.07,0.34,0.17,0.43,0.28
		s0.16,0.25,0.19,0.42c0.02,0.1,0.03,0.29,0.03,0.57V4c0,0.57,0.01,0.93,0.04,1.09s0.08,0.3,0.16,0.44h-0.64
		C38.43,5.39,38.38,5.24,38.37,5.07z M38.32,3.7c-0.22,0.09-0.56,0.17-1.01,0.23c-0.25,0.04-0.43,0.08-0.54,0.12
		c-0.1,0.05-0.19,0.11-0.24,0.2c-0.06,0.09-0.08,0.19-0.08,0.29c0,0.16,0.06,0.3,0.19,0.41c0.12,0.11,0.31,0.16,0.54,0.16
		c0.24,0,0.45-0.05,0.63-0.16c0.18-0.1,0.32-0.25,0.41-0.42c0.07-0.14,0.1-0.34,0.1-0.62V3.7z"/>
	<path class="st0" d="M39.88,5.52V1.89h0.55v0.55c0.14-0.26,0.27-0.43,0.39-0.51c0.12-0.08,0.25-0.12,0.39-0.12
		c0.21,0,0.42,0.07,0.63,0.2l-0.21,0.57c-0.15-0.09-0.3-0.13-0.45-0.13c-0.13,0-0.25,0.04-0.36,0.12c-0.11,0.08-0.18,0.19-0.23,0.34
		c-0.07,0.22-0.1,0.46-0.1,0.72v1.9H39.88z"/>
	<path class="st0" d="M42.01,5.52v-0.7h0.7v0.7H42.01z"/>
	<path class="st0" d="M43.78,5.52V1.89h0.55V2.4c0.11-0.18,0.27-0.32,0.45-0.43c0.19-0.11,0.4-0.16,0.65-0.16
		c0.27,0,0.49,0.06,0.66,0.17c0.17,0.11,0.29,0.27,0.36,0.47c0.29-0.42,0.66-0.64,1.12-0.64c0.36,0,0.64,0.1,0.83,0.3
		s0.29,0.51,0.29,0.92v2.49h-0.61V3.23c0-0.25-0.02-0.42-0.06-0.53c-0.04-0.11-0.11-0.2-0.22-0.26c-0.1-0.07-0.23-0.1-0.37-0.1
		c-0.25,0-0.47,0.08-0.63,0.25c-0.17,0.17-0.25,0.44-0.25,0.81v2.11h-0.62V3.16c0-0.27-0.05-0.48-0.15-0.62
		c-0.1-0.14-0.26-0.21-0.49-0.21c-0.17,0-0.33,0.05-0.48,0.14c-0.15,0.09-0.25,0.22-0.32,0.4c-0.07,0.18-0.1,0.43-0.1,0.76v1.88
		H43.78z"/>
	<path class="st0" d="M49.2,5.52l1.33-1.89L49.3,1.89h0.77l0.56,0.85c0.11,0.16,0.19,0.3,0.25,0.41c0.1-0.15,0.19-0.28,0.28-0.4
		l0.61-0.86h0.73L51.25,3.6l1.35,1.92h-0.76L51.1,4.39l-0.2-0.3l-0.95,1.43H49.2z"/>
</g>
</svg>
