<?xml version="1.0" encoding="utf-8"?>
<!-- Generator: Adobe Illustrator 25.4.1, SVG Export Plug-In . SVG Version: 6.00 Build 0)  -->
<svg version="1.1" id="Capa_1" xmlns="http://www.w3.org/2000/svg" xmlns:xlink="http://www.w3.org/1999/xlink" x="0px" y="0px"
	 viewBox="0 0 198 77.61" style="enable-background:new 0 0 198 77.61;" xml:space="preserve">
<style type="text/css">
	.st0{fill:#3F3E3E;}
</style>
<g>
	<path d="M7.21,10.69h2.45v7.7c0,1.01-0.09,1.78-0.27,2.32c-0.24,0.71-0.67,1.28-1.29,1.71c-0.63,0.43-1.45,0.64-2.47,0.64
		c-1.2,0-2.12-0.34-2.77-1.01c-0.65-0.67-0.97-1.66-0.98-2.96l2.32-0.27c0.03,0.7,0.13,1.19,0.31,1.48
		c0.27,0.44,0.67,0.66,1.21,0.66c0.55,0,0.93-0.16,1.16-0.47c0.23-0.31,0.34-0.96,0.34-1.95V10.69z"/>
	<path d="M11.72,18.33c0-0.78,0.19-1.52,0.57-2.25c0.38-0.72,0.92-1.28,1.62-1.66c0.7-0.38,1.48-0.57,2.34-0.57
		c1.33,0,2.43,0.43,3.28,1.3c0.85,0.87,1.28,1.96,1.28,3.28c0,1.33-0.43,2.44-1.29,3.32c-0.86,0.88-1.94,1.32-3.25,1.32
		c-0.81,0-1.58-0.18-2.31-0.55c-0.73-0.37-1.29-0.9-1.67-1.61C11.91,20.2,11.72,19.34,11.72,18.33z M14.11,18.45
		c0,0.88,0.21,1.54,0.62,2.01s0.93,0.7,1.54,0.7c0.61,0,1.12-0.23,1.53-0.7s0.62-1.14,0.62-2.03c0-0.86-0.21-1.53-0.62-1.99
		s-0.92-0.7-1.53-0.7c-0.61,0-1.12,0.23-1.54,0.7S14.11,17.58,14.11,18.45z"/>
	<path d="M21.82,20.34l2.34-0.36c0.1,0.45,0.3,0.8,0.61,1.03c0.3,0.24,0.73,0.35,1.28,0.35c0.6,0,1.06-0.11,1.36-0.33
		c0.21-0.15,0.31-0.36,0.31-0.62c0-0.18-0.06-0.32-0.17-0.44c-0.12-0.11-0.38-0.21-0.78-0.31c-1.88-0.42-3.07-0.79-3.58-1.14
		c-0.7-0.48-1.04-1.14-1.04-1.98c0-0.76,0.3-1.41,0.9-1.93c0.6-0.52,1.54-0.78,2.81-0.78c1.21,0,2.1,0.2,2.69,0.59
		c0.59,0.39,0.99,0.97,1.21,1.74l-2.2,0.41c-0.09-0.34-0.27-0.61-0.54-0.79s-0.64-0.27-1.12-0.27c-0.62,0-1.05,0.09-1.32,0.26
		c-0.18,0.12-0.27,0.28-0.27,0.47c0,0.17,0.08,0.31,0.23,0.42c0.21,0.16,0.94,0.37,2.18,0.66c1.24,0.28,2.11,0.63,2.6,1.04
		c0.49,0.42,0.73,0.99,0.73,1.74c0,0.81-0.34,1.5-1.01,2.08s-1.67,0.87-3,0.87c-1.2,0-2.15-0.24-2.85-0.73
		C22.5,21.84,22.04,21.18,21.82,20.34z"/>
	<path d="M37.2,20.05l2.32,0.39c-0.3,0.85-0.77,1.5-1.41,1.95c-0.65,0.45-1.45,0.67-2.42,0.67c-1.53,0-2.67-0.5-3.4-1.5
		c-0.58-0.8-0.87-1.81-0.87-3.04c0-1.46,0.38-2.6,1.15-3.43c0.76-0.83,1.73-1.24,2.9-1.24c1.31,0,2.35,0.43,3.1,1.3
		c0.76,0.87,1.12,2.19,1.09,3.98h-5.84c0.02,0.69,0.21,1.23,0.56,1.61s0.81,0.58,1.34,0.58c0.37,0,0.67-0.1,0.92-0.3
		C36.89,20.82,37.08,20.5,37.2,20.05z M37.34,17.7c-0.02-0.68-0.19-1.19-0.52-1.54s-0.74-0.53-1.21-0.53
		c-0.51,0-0.93,0.19-1.26,0.56c-0.33,0.37-0.5,0.87-0.49,1.51H37.34z M34.36,12.96l1.15-2.48h2.62l-2.28,2.48H34.36z"/>
	<path d="M46.29,22.86V10.69h9.02v2.06h-6.57v2.7h6.11v2.05h-6.11v3.31h6.8v2.05H46.29z"/>
	<path d="M65.63,22.86H63.3v-4.5c0-0.95-0.05-1.57-0.15-1.85c-0.1-0.28-0.26-0.5-0.49-0.65c-0.22-0.15-0.49-0.23-0.81-0.23
		c-0.4,0-0.77,0.11-1.09,0.33c-0.32,0.22-0.54,0.51-0.66,0.88s-0.18,1.04-0.18,2.03v3.99H57.6v-8.82h2.17v1.29
		c0.77-1,1.74-1.49,2.9-1.49c0.52,0,0.99,0.09,1.41,0.28c0.43,0.18,0.75,0.42,0.97,0.71c0.22,0.29,0.37,0.61,0.46,0.98
		c0.08,0.37,0.13,0.89,0.13,1.57V22.86z"/>
	<path d="M70.23,22.86H67.9v-8.82h2.17v1.25c0.37-0.59,0.7-0.98,1-1.17c0.3-0.19,0.63-0.28,1.01-0.28c0.53,0,1.04,0.15,1.54,0.44
		l-0.72,2.03c-0.39-0.25-0.76-0.38-1.1-0.38c-0.33,0-0.6,0.09-0.83,0.27s-0.41,0.5-0.54,0.98c-0.13,0.47-0.2,1.46-0.2,2.96V22.86z"
		/>
	<path d="M74.62,12.85v-2.16h2.33v2.16H74.62z M74.62,22.86v-8.82h2.33v8.82H74.62z"/>
	<path d="M85.1,26.21v-4.43c-0.3,0.39-0.68,0.7-1.14,0.93s-0.94,0.34-1.47,0.34c-1,0-1.83-0.38-2.47-1.13
		c-0.76-0.88-1.15-2.07-1.15-3.58c0-1.42,0.36-2.52,1.08-3.32c0.72-0.79,1.61-1.19,2.67-1.19c0.59,0,1.09,0.12,1.52,0.37
		c0.43,0.25,0.81,0.63,1.14,1.13v-1.3h2.15v12.17H85.1z M85.17,18.34c0-0.9-0.18-1.57-0.55-2.01c-0.37-0.44-0.83-0.66-1.38-0.66
		c-0.56,0-1.04,0.22-1.42,0.67s-0.57,1.16-0.57,2.13c0,0.97,0.18,1.67,0.55,2.1s0.82,0.64,1.35,0.64c0.54,0,1.01-0.24,1.41-0.72
		C84.97,20.01,85.17,19.29,85.17,18.34z"/>
	<path d="M95.53,22.86v-1.32c-0.32,0.47-0.74,0.84-1.27,1.11c-0.52,0.27-1.08,0.41-1.66,0.41c-0.59,0-1.12-0.13-1.59-0.39
		c-0.47-0.26-0.81-0.62-1.02-1.1c-0.21-0.47-0.32-1.12-0.32-1.95v-5.58h2.33v4.05c0,1.24,0.04,2,0.13,2.28
		c0.08,0.28,0.24,0.5,0.47,0.66c0.23,0.16,0.51,0.25,0.86,0.25c0.4,0,0.75-0.11,1.07-0.33s0.53-0.49,0.65-0.81
		c0.12-0.32,0.17-1.12,0.17-2.38v-3.72h2.33v8.82H95.53z"/>
	<path d="M105.21,20.05l2.32,0.39c-0.3,0.85-0.77,1.5-1.42,1.95c-0.64,0.45-1.45,0.67-2.42,0.67c-1.53,0-2.67-0.5-3.4-1.5
		c-0.58-0.8-0.87-1.81-0.87-3.04c0-1.46,0.38-2.6,1.15-3.43c0.76-0.83,1.73-1.24,2.9-1.24c1.31,0,2.35,0.43,3.1,1.3
		s1.12,2.19,1.09,3.98h-5.84c0.02,0.69,0.21,1.23,0.56,1.61c0.36,0.38,0.81,0.58,1.35,0.58c0.37,0,0.67-0.1,0.92-0.3
		S105.08,20.5,105.21,20.05z M105.34,17.7c-0.02-0.68-0.19-1.19-0.52-1.54s-0.74-0.53-1.21-0.53c-0.51,0-0.93,0.19-1.26,0.56
		c-0.33,0.37-0.49,0.87-0.49,1.51H105.34z"/>
	<path d="M117.04,22.86V12.75h-3.61v-2.06h9.67v2.06h-3.6v10.11H117.04z"/>
	<path d="M123.73,22.86v-1.82l3.3-3.79c0.54-0.62,0.94-1.06,1.2-1.32c-0.27,0.02-0.63,0.03-1.07,0.03l-3.11,0.02v-1.93h7.29v1.65
		l-3.37,3.88l-1.19,1.29c0.65-0.04,1.05-0.06,1.2-0.06h3.61v2.05H123.73z"/>
	<path d="M134.91,16.73l-2.12-0.38c0.24-0.85,0.65-1.48,1.23-1.89c0.58-0.41,1.45-0.61,2.59-0.61c1.04,0,1.82,0.12,2.32,0.37
		c0.51,0.25,0.87,0.56,1.08,0.94c0.21,0.38,0.31,1.07,0.31,2.09l-0.03,2.72c0,0.78,0.04,1.35,0.11,1.71
		c0.07,0.37,0.21,0.76,0.42,1.18h-2.31c-0.06-0.16-0.14-0.38-0.22-0.69c-0.04-0.14-0.07-0.23-0.08-0.27
		c-0.4,0.39-0.83,0.68-1.28,0.87c-0.45,0.19-0.94,0.29-1.45,0.29c-0.91,0-1.62-0.25-2.14-0.74c-0.52-0.49-0.79-1.12-0.79-1.87
		c0-0.5,0.12-0.94,0.36-1.33c0.24-0.39,0.57-0.69,1-0.9c0.43-0.21,1.05-0.39,1.86-0.54c1.09-0.21,1.85-0.4,2.27-0.57v-0.23
		c0-0.45-0.11-0.77-0.33-0.96c-0.22-0.19-0.64-0.29-1.25-0.29c-0.41,0-0.74,0.08-0.97,0.25S135.06,16.32,134.91,16.73z
		 M138.03,18.62c-0.3,0.1-0.77,0.22-1.42,0.36c-0.65,0.14-1.07,0.27-1.27,0.41c-0.3,0.22-0.46,0.49-0.46,0.82
		c0,0.33,0.12,0.61,0.37,0.85c0.24,0.24,0.55,0.36,0.93,0.36c0.42,0,0.82-0.14,1.2-0.42c0.28-0.21,0.47-0.47,0.56-0.77
		c0.06-0.2,0.09-0.58,0.09-1.14V18.62z"/>
	<path d="M142.52,22.86V10.69h2.33v4.38c0.72-0.82,1.57-1.23,2.56-1.23c1.07,0,1.96,0.39,2.67,1.17c0.7,0.78,1.05,1.89,1.05,3.35
		c0,1.5-0.36,2.66-1.08,3.48s-1.59,1.22-2.61,1.22c-0.5,0-1-0.13-1.49-0.38c-0.49-0.25-0.91-0.62-1.27-1.12v1.29H142.52z
		 M144.84,18.26c0,0.91,0.14,1.59,0.43,2.03c0.4,0.62,0.94,0.93,1.61,0.93c0.51,0,0.95-0.22,1.32-0.66
		c0.36-0.44,0.54-1.13,0.54-2.08c0-1.01-0.18-1.73-0.55-2.18c-0.37-0.45-0.83-0.67-1.4-0.67c-0.56,0-1.02,0.22-1.39,0.65
		C145.03,16.71,144.84,17.37,144.84,18.26z"/>
	<path d="M157.75,22.86V10.69h9.02v2.06h-6.57v2.7h6.11v2.05h-6.11v3.31h6.8v2.05H157.75z"/>
	<path d="M168.99,22.86V10.69h2.33v6.46l2.73-3.1h2.87l-3.01,3.22l3.23,5.59h-2.52l-2.22-3.96l-1.09,1.14v2.82H168.99z"/>
</g>
<g>
	<path d="M1.52,44.73l3.85-10.02H6.8l4.1,10.02H9.39L8.22,41.7H4.03l-1.1,3.04H1.52z M4.41,40.62h3.4l-1.05-2.78
		C6.45,37,6.21,36.31,6.05,35.77c-0.13,0.64-0.31,1.28-0.54,1.91L4.41,40.62z"/>
	<path d="M16.56,44.73v-1.07c-0.57,0.82-1.33,1.23-2.3,1.23c-0.43,0-0.83-0.08-1.2-0.25c-0.37-0.16-0.65-0.37-0.83-0.62
		c-0.18-0.25-0.31-0.55-0.38-0.91c-0.05-0.24-0.08-0.62-0.08-1.15v-4.5h1.23v4.03c0,0.64,0.02,1.08,0.08,1.3
		c0.08,0.32,0.24,0.58,0.49,0.76c0.25,0.18,0.56,0.28,0.93,0.28s0.71-0.09,1.04-0.28c0.32-0.19,0.55-0.45,0.69-0.77
		c0.13-0.33,0.2-0.8,0.2-1.42v-3.89h1.23v7.26H16.56z"/>
	<path d="M18.77,44.73l2.65-3.77l-2.45-3.49h1.54l1.11,1.7c0.21,0.32,0.38,0.59,0.51,0.81c0.2-0.3,0.38-0.57,0.55-0.8l1.22-1.72
		h1.47l-2.51,3.42l2.7,3.84h-1.51l-1.49-2.26l-0.4-0.61l-1.91,2.86H18.77z"/>
	<path d="M26.6,36.13v-1.42h1.23v1.42H26.6z M26.6,44.73v-7.26h1.23v7.26H26.6z"/>
	<path d="M29.67,44.73V34.71h1.23v10.02H29.67z"/>
	<path d="M32.82,36.13v-1.42h1.23v1.42H32.82z M32.82,44.73v-7.26h1.23v7.26H32.82z"/>
	<path d="M40.66,43.84c-0.46,0.39-0.89,0.66-1.32,0.82c-0.42,0.16-0.87,0.24-1.36,0.24c-0.8,0-1.41-0.2-1.84-0.58
		c-0.43-0.39-0.64-0.89-0.64-1.49c0-0.36,0.08-0.68,0.24-0.97c0.16-0.29,0.37-0.53,0.64-0.71c0.26-0.18,0.56-0.31,0.89-0.4
		c0.24-0.06,0.61-0.13,1.09-0.18c0.99-0.12,1.72-0.26,2.19-0.42c0-0.17,0.01-0.28,0.01-0.32c0-0.5-0.12-0.85-0.35-1.06
		c-0.31-0.28-0.78-0.42-1.4-0.42c-0.58,0-1.01,0.1-1.28,0.3c-0.28,0.2-0.48,0.56-0.61,1.08l-1.2-0.16c0.11-0.52,0.29-0.93,0.54-1.25
		c0.25-0.32,0.61-0.56,1.09-0.73c0.47-0.17,1.02-0.26,1.65-0.26c0.62,0,1.12,0.07,1.51,0.22c0.39,0.15,0.67,0.33,0.85,0.55
		c0.18,0.22,0.31,0.5,0.38,0.84c0.04,0.21,0.06,0.59,0.06,1.13v1.64c0,1.14,0.03,1.87,0.08,2.17c0.05,0.3,0.16,0.59,0.31,0.87H40.9
		C40.78,44.48,40.69,44.18,40.66,43.84z M40.55,41.09c-0.45,0.18-1.12,0.34-2.01,0.46c-0.51,0.07-0.86,0.15-1.07,0.25
		c-0.21,0.09-0.37,0.22-0.49,0.4c-0.11,0.18-0.17,0.37-0.17,0.58c0,0.33,0.12,0.6,0.37,0.82c0.25,0.22,0.61,0.33,1.09,0.33
		c0.47,0,0.9-0.1,1.26-0.31c0.37-0.21,0.64-0.49,0.81-0.85c0.13-0.28,0.2-0.69,0.2-1.23V41.09z"/>
	<path d="M43.69,44.73v-7.26h1.11v1.1c0.28-0.52,0.54-0.85,0.78-1.02s0.5-0.25,0.79-0.25c0.41,0,0.84,0.13,1.26,0.4l-0.42,1.14
		c-0.3-0.18-0.6-0.27-0.9-0.27c-0.27,0-0.51,0.08-0.72,0.24c-0.21,0.16-0.37,0.39-0.46,0.67c-0.14,0.44-0.21,0.92-0.21,1.44v3.8
		H43.69z"/>
	<path d="M56.97,44.73v-0.92c-0.46,0.72-1.14,1.08-2.03,1.08c-0.58,0-1.11-0.16-1.6-0.48c-0.49-0.32-0.86-0.76-1.13-1.34
		c-0.27-0.57-0.4-1.23-0.4-1.97c0-0.72,0.12-1.38,0.36-1.97c0.24-0.59,0.6-1.04,1.09-1.36c0.48-0.31,1.02-0.47,1.62-0.47
		c0.44,0,0.83,0.09,1.17,0.28s0.62,0.42,0.83,0.72v-3.6h1.22v10.02H56.97z M53.08,41.11c0,0.93,0.2,1.62,0.59,2.08
		c0.39,0.46,0.85,0.69,1.39,0.69c0.54,0,0.99-0.22,1.37-0.66c0.38-0.44,0.56-1.11,0.56-2.01c0-0.99-0.19-1.72-0.57-2.19
		s-0.85-0.7-1.42-0.7c-0.55,0-1,0.22-1.37,0.67C53.26,39.45,53.08,40.15,53.08,41.11z"/>
	<path d="M65.01,42.4l1.27,0.16c-0.2,0.74-0.57,1.32-1.11,1.73c-0.54,0.41-1.24,0.62-2.08,0.62c-1.06,0-1.9-0.33-2.53-0.98
		c-0.62-0.65-0.93-1.57-0.93-2.75c0-1.22,0.31-2.17,0.94-2.84c0.63-0.67,1.44-1.01,2.45-1.01c0.97,0,1.76,0.33,2.38,0.99
		c0.62,0.66,0.92,1.59,0.92,2.79c0,0.07,0,0.18-0.01,0.33h-5.41c0.04,0.8,0.27,1.41,0.68,1.83c0.41,0.42,0.91,0.64,1.52,0.64
		c0.45,0,0.84-0.12,1.16-0.36C64.57,43.29,64.83,42.92,65.01,42.4z M60.97,40.41h4.05c-0.05-0.61-0.21-1.07-0.46-1.37
		c-0.39-0.47-0.9-0.71-1.52-0.71c-0.57,0-1.04,0.19-1.43,0.57C61.23,39.27,61.01,39.77,60.97,40.41z"/>
	<path d="M70,44.73l3.85-10.02h1.43l4.1,10.02h-1.51L76.7,41.7h-4.19l-1.1,3.04H70z M72.9,40.62h3.4l-1.05-2.78
		c-0.32-0.84-0.56-1.54-0.71-2.08c-0.13,0.64-0.31,1.28-0.54,1.91L72.9,40.62z"/>
	<path d="M80.26,44.73V34.71h1.23v10.02H80.26z"/>
	<path d="M83.4,44.73v-7.26h1.1v1.02c0.23-0.36,0.53-0.64,0.91-0.86c0.38-0.22,0.81-0.32,1.29-0.32c0.54,0,0.98,0.11,1.32,0.33
		c0.34,0.22,0.59,0.54,0.73,0.94c0.57-0.85,1.32-1.27,2.24-1.27c0.72,0,1.27,0.2,1.66,0.6c0.39,0.4,0.58,1.01,0.58,1.84v4.98h-1.22
		v-4.57c0-0.49-0.04-0.85-0.12-1.06c-0.08-0.22-0.22-0.39-0.43-0.52c-0.21-0.13-0.46-0.2-0.74-0.2c-0.51,0-0.93,0.17-1.27,0.51
		c-0.34,0.34-0.51,0.88-0.51,1.63v4.22h-1.23v-4.72c0-0.55-0.1-0.96-0.3-1.23c-0.2-0.27-0.53-0.41-0.98-0.41
		c-0.35,0-0.67,0.09-0.96,0.27c-0.29,0.18-0.51,0.45-0.64,0.8c-0.13,0.35-0.2,0.86-0.2,1.52v3.77H83.4z"/>
	<path d="M99.79,43.84c-0.46,0.39-0.89,0.66-1.32,0.82c-0.42,0.16-0.87,0.24-1.36,0.24c-0.8,0-1.41-0.2-1.84-0.58
		c-0.43-0.39-0.64-0.89-0.64-1.49c0-0.36,0.08-0.68,0.24-0.97c0.16-0.29,0.37-0.53,0.64-0.71c0.26-0.18,0.56-0.31,0.89-0.4
		c0.24-0.06,0.61-0.13,1.09-0.18c0.99-0.12,1.72-0.26,2.19-0.42c0-0.17,0.01-0.28,0.01-0.32c0-0.5-0.12-0.85-0.35-1.06
		c-0.31-0.28-0.78-0.42-1.4-0.42c-0.58,0-1.01,0.1-1.28,0.3c-0.28,0.2-0.48,0.56-0.61,1.08l-1.2-0.16c0.11-0.52,0.29-0.93,0.54-1.25
		c0.25-0.32,0.61-0.56,1.09-0.73c0.47-0.17,1.02-0.26,1.65-0.26c0.62,0,1.12,0.07,1.51,0.22c0.39,0.15,0.67,0.33,0.85,0.55
		c0.18,0.22,0.31,0.5,0.38,0.84c0.04,0.21,0.06,0.59,0.06,1.13v1.64c0,1.14,0.03,1.87,0.08,2.17c0.05,0.3,0.16,0.59,0.31,0.87h-1.29
		C99.91,44.48,99.83,44.18,99.79,43.84z M99.69,41.09c-0.45,0.18-1.12,0.34-2.01,0.46c-0.51,0.07-0.86,0.15-1.07,0.25
		c-0.21,0.09-0.37,0.22-0.49,0.4c-0.11,0.18-0.17,0.37-0.17,0.58c0,0.33,0.12,0.6,0.37,0.82c0.25,0.22,0.61,0.33,1.09,0.33
		c0.47,0,0.9-0.1,1.26-0.31c0.37-0.21,0.64-0.49,0.81-0.85c0.13-0.28,0.2-0.69,0.2-1.23V41.09z"/>
	<path d="M107.58,42.08l1.21,0.16c-0.13,0.83-0.47,1.49-1.02,1.96c-0.54,0.47-1.21,0.71-2.01,0.71c-0.99,0-1.79-0.33-2.4-0.97
		c-0.6-0.65-0.91-1.58-0.91-2.79c0-0.78,0.13-1.47,0.39-2.06s0.66-1.03,1.19-1.32c0.53-0.29,1.11-0.44,1.73-0.44
		c0.79,0,1.43,0.2,1.93,0.6c0.5,0.4,0.82,0.96,0.96,1.7l-1.2,0.18c-0.11-0.49-0.32-0.85-0.61-1.1c-0.29-0.25-0.64-0.37-1.05-0.37
		c-0.62,0-1.12,0.22-1.51,0.67c-0.39,0.44-0.58,1.15-0.58,2.11c0,0.97,0.19,1.68,0.56,2.13c0.37,0.44,0.86,0.66,1.46,0.66
		c0.48,0,0.89-0.15,1.21-0.44C107.29,43.15,107.49,42.69,107.58,42.08z"/>
	<path d="M114.81,42.4l1.27,0.16c-0.2,0.74-0.57,1.32-1.11,1.73c-0.54,0.41-1.24,0.62-2.08,0.62c-1.06,0-1.9-0.33-2.53-0.98
		c-0.62-0.65-0.93-1.57-0.93-2.75c0-1.22,0.31-2.17,0.94-2.84c0.63-0.67,1.44-1.01,2.45-1.01c0.97,0,1.76,0.33,2.38,0.99
		c0.62,0.66,0.92,1.59,0.92,2.79c0,0.07,0,0.18-0.01,0.33h-5.41c0.04,0.8,0.27,1.41,0.68,1.83c0.41,0.42,0.91,0.64,1.52,0.64
		c0.45,0,0.84-0.12,1.16-0.36C114.37,43.29,114.63,42.92,114.81,42.4z M110.77,40.41h4.05c-0.05-0.61-0.21-1.07-0.46-1.37
		c-0.39-0.47-0.9-0.71-1.52-0.71c-0.57,0-1.04,0.19-1.43,0.57C111.03,39.27,110.81,39.77,110.77,40.41z M112.1,36.57l0.91-1.91h1.61
		l-1.5,1.91H112.1z"/>
	<path d="M117.63,44.73v-7.26h1.11v1.03c0.53-0.8,1.3-1.2,2.31-1.2c0.44,0,0.84,0.08,1.21,0.24c0.37,0.16,0.64,0.36,0.82,0.62
		c0.18,0.25,0.31,0.56,0.38,0.91c0.04,0.23,0.07,0.63,0.07,1.2v4.46h-1.23v-4.42c0-0.5-0.05-0.88-0.14-1.12
		c-0.1-0.25-0.27-0.45-0.51-0.59c-0.24-0.15-0.53-0.22-0.86-0.22c-0.52,0-0.98,0.17-1.36,0.5c-0.38,0.33-0.57,0.96-0.57,1.89v3.96
		H117.63z"/>
</g>
<g>
	<path d="M1.4,66.51l3.85-10.02h1.43l4.1,10.02H9.27L8.1,63.47H3.91l-1.1,3.04H1.4z M4.29,62.39h3.4l-1.05-2.78
		c-0.32-0.84-0.56-1.54-0.71-2.08c-0.13,0.64-0.31,1.28-0.54,1.91L4.29,62.39z"/>
	<path d="M11.65,66.51V56.49h1.23v10.02H11.65z"/>
	<path d="M14.79,66.51v-7.26h1.1v1.02c0.23-0.36,0.53-0.64,0.91-0.86c0.38-0.22,0.81-0.32,1.29-0.32c0.54,0,0.98,0.11,1.32,0.33
		c0.34,0.22,0.59,0.54,0.73,0.94c0.57-0.85,1.32-1.27,2.24-1.27c0.72,0,1.27,0.2,1.66,0.6c0.39,0.4,0.58,1.01,0.58,1.84v4.98H23.4
		v-4.57c0-0.49-0.04-0.85-0.12-1.06c-0.08-0.22-0.22-0.39-0.43-0.52c-0.21-0.13-0.46-0.2-0.74-0.2c-0.51,0-0.93,0.17-1.27,0.51
		c-0.34,0.34-0.51,0.88-0.51,1.63v4.22h-1.23v-4.72c0-0.55-0.1-0.96-0.3-1.23c-0.2-0.27-0.53-0.41-0.98-0.41
		c-0.35,0-0.67,0.09-0.96,0.27c-0.29,0.18-0.51,0.45-0.64,0.8c-0.13,0.35-0.2,0.86-0.2,1.52v3.77H14.79z"/>
	<path d="M31.19,65.61c-0.46,0.39-0.89,0.66-1.32,0.82c-0.42,0.16-0.87,0.24-1.36,0.24c-0.8,0-1.41-0.2-1.84-0.58
		c-0.43-0.39-0.64-0.89-0.64-1.49c0-0.36,0.08-0.68,0.24-0.97s0.37-0.53,0.64-0.71s0.56-0.31,0.89-0.4
		c0.24-0.06,0.61-0.13,1.09-0.18c0.99-0.12,1.72-0.26,2.19-0.42c0-0.17,0.01-0.28,0.01-0.32c0-0.5-0.12-0.85-0.35-1.06
		c-0.31-0.28-0.78-0.42-1.4-0.42c-0.58,0-1.01,0.1-1.28,0.3c-0.28,0.2-0.48,0.56-0.61,1.08l-1.2-0.16c0.11-0.52,0.29-0.93,0.54-1.25
		c0.25-0.32,0.61-0.56,1.09-0.73c0.47-0.17,1.02-0.26,1.65-0.26c0.62,0,1.12,0.07,1.51,0.22c0.39,0.15,0.67,0.33,0.86,0.55
		c0.18,0.22,0.31,0.5,0.38,0.84c0.04,0.21,0.06,0.59,0.06,1.13v1.64c0,1.14,0.03,1.87,0.08,2.17c0.05,0.3,0.16,0.59,0.31,0.87h-1.29
		C31.31,66.25,31.23,65.95,31.19,65.61z M31.09,62.86c-0.45,0.18-1.12,0.34-2.01,0.46c-0.51,0.07-0.86,0.15-1.07,0.25
		c-0.21,0.09-0.37,0.22-0.49,0.4c-0.11,0.18-0.17,0.37-0.17,0.58c0,0.33,0.12,0.6,0.37,0.82s0.61,0.33,1.09,0.33
		c0.47,0,0.89-0.1,1.26-0.31c0.37-0.21,0.64-0.49,0.81-0.85c0.13-0.28,0.2-0.69,0.2-1.23V62.86z"/>
	<path d="M38.98,63.85l1.21,0.16c-0.13,0.83-0.47,1.49-1.02,1.96s-1.21,0.71-2.01,0.71c-0.99,0-1.79-0.33-2.4-0.97
		s-0.91-1.58-0.91-2.79c0-0.78,0.13-1.47,0.39-2.06s0.65-1.03,1.19-1.32s1.11-0.44,1.73-0.44c0.79,0,1.43,0.2,1.94,0.6
		c0.5,0.4,0.82,0.96,0.96,1.7l-1.2,0.18c-0.11-0.49-0.32-0.85-0.61-1.1s-0.64-0.37-1.05-0.37c-0.62,0-1.12,0.22-1.51,0.67
		c-0.39,0.44-0.58,1.15-0.58,2.11c0,0.97,0.19,1.68,0.56,2.13c0.37,0.44,0.86,0.66,1.46,0.66c0.48,0,0.89-0.15,1.21-0.44
		C38.69,64.92,38.89,64.46,38.98,63.85z"/>
	<path d="M46.21,64.17l1.27,0.16c-0.2,0.74-0.57,1.32-1.11,1.73c-0.54,0.41-1.24,0.62-2.08,0.62c-1.06,0-1.9-0.33-2.53-0.98
		c-0.62-0.65-0.93-1.57-0.93-2.75c0-1.22,0.31-2.17,0.94-2.84c0.63-0.67,1.44-1.01,2.45-1.01c0.97,0,1.76,0.33,2.38,0.99
		c0.62,0.66,0.92,1.59,0.92,2.79c0,0.07,0,0.18-0.01,0.33H42.1c0.04,0.8,0.27,1.41,0.68,1.83c0.41,0.42,0.91,0.64,1.52,0.64
		c0.45,0,0.84-0.12,1.16-0.36C45.77,65.07,46.02,64.69,46.21,64.17z M42.17,62.18h4.05c-0.05-0.61-0.21-1.07-0.46-1.37
		c-0.39-0.47-0.9-0.71-1.52-0.71c-0.57,0-1.04,0.19-1.43,0.57C42.42,61.04,42.21,61.55,42.17,62.18z M43.5,58.35l0.91-1.91h1.61
		l-1.5,1.91H43.5z"/>
	<path d="M49.03,66.51v-7.26h1.11v1.03c0.53-0.8,1.3-1.2,2.31-1.2c0.44,0,0.84,0.08,1.21,0.24s0.64,0.36,0.82,0.62
		c0.18,0.25,0.31,0.56,0.38,0.91c0.04,0.23,0.07,0.63,0.07,1.2v4.46H53.7v-4.42c0-0.5-0.05-0.88-0.14-1.12
		c-0.1-0.25-0.27-0.45-0.51-0.59c-0.24-0.15-0.53-0.22-0.86-0.22c-0.52,0-0.98,0.17-1.36,0.5c-0.38,0.33-0.57,0.96-0.57,1.89v3.96
		H49.03z"/>
	<path d="M61.06,69.45V56.32h1.07v13.14H61.06z"/>
	<path d="M73.07,62.58V61.4l4.25-0.01v3.72c-0.65,0.52-1.32,0.91-2.02,1.17c-0.69,0.26-1.4,0.39-2.13,0.39
		c-0.98,0-1.88-0.21-2.68-0.63c-0.8-0.42-1.41-1.03-1.82-1.83c-0.41-0.8-0.62-1.69-0.62-2.67c0-0.98,0.2-1.89,0.61-2.73
		c0.41-0.84,0.99-1.47,1.76-1.88s1.65-0.62,2.65-0.62c0.72,0,1.38,0.12,1.96,0.35c0.59,0.24,1.04,0.56,1.38,0.98
		c0.33,0.42,0.59,0.97,0.76,1.64l-1.2,0.33c-0.15-0.51-0.34-0.91-0.56-1.2c-0.22-0.29-0.54-0.53-0.96-0.7
		c-0.41-0.17-0.88-0.26-1.38-0.26c-0.61,0-1.13,0.09-1.57,0.28c-0.44,0.18-0.8,0.43-1.07,0.73s-0.48,0.63-0.63,0.99
		c-0.26,0.62-0.38,1.29-0.38,2.02c0,0.89,0.15,1.64,0.46,2.24s0.76,1.05,1.34,1.34c0.59,0.29,1.21,0.44,1.87,0.44
		c0.57,0,1.13-0.11,1.68-0.33c0.55-0.22,0.96-0.46,1.24-0.71v-1.87H73.07z"/>
	<path d="M78.17,66.51l3.85-10.02h1.43l4.1,10.02h-1.51l-1.17-3.04h-4.19l-1.1,3.04H78.17z M81.07,62.39h3.4l-1.04-2.78
		c-0.32-0.84-0.56-1.54-0.71-2.08c-0.13,0.64-0.31,1.28-0.54,1.91L81.07,62.39z"/>
	<path d="M88.56,66.51V56.49h3.76c0.77,0,1.38,0.1,1.84,0.3c0.46,0.2,0.82,0.52,1.09,0.94c0.26,0.42,0.39,0.86,0.39,1.32
		c0,0.43-0.12,0.83-0.35,1.21c-0.23,0.38-0.58,0.68-1.05,0.92c0.61,0.18,1.07,0.48,1.4,0.91c0.33,0.43,0.49,0.93,0.49,1.52
		c0,0.47-0.1,0.91-0.3,1.31s-0.44,0.71-0.73,0.93c-0.29,0.22-0.66,0.38-1.1,0.5c-0.44,0.11-0.98,0.17-1.62,0.17H88.56z M89.88,60.7
		h2.17c0.59,0,1.01-0.04,1.27-0.12c0.34-0.1,0.59-0.27,0.76-0.5s0.26-0.52,0.26-0.88c0-0.33-0.08-0.63-0.24-0.88
		c-0.16-0.25-0.39-0.43-0.68-0.52c-0.3-0.09-0.8-0.14-1.53-0.14h-2V60.7z M89.88,65.33h2.49c0.43,0,0.73-0.02,0.9-0.05
		c0.31-0.05,0.56-0.15,0.77-0.27c0.21-0.13,0.37-0.31,0.51-0.56c0.13-0.24,0.2-0.53,0.2-0.84c0-0.37-0.1-0.7-0.29-0.97
		c-0.19-0.28-0.46-0.47-0.8-0.58c-0.34-0.11-0.83-0.17-1.47-0.17h-2.32V65.33z"/>
	<path d="M96.85,66.51l3.85-10.02h1.43l4.1,10.02h-1.51l-1.17-3.04h-4.19l-1.1,3.04H96.85z M99.74,62.39h3.4l-1.04-2.78
		c-0.32-0.84-0.56-1.54-0.71-2.08c-0.13,0.64-0.31,1.28-0.54,1.91L99.74,62.39z"/>
	<path d="M107.31,66.51V56.49h4.44c0.89,0,1.57,0.09,2.04,0.27c0.46,0.18,0.84,0.5,1.12,0.95c0.28,0.46,0.42,0.96,0.42,1.51
		c0,0.71-0.23,1.31-0.69,1.8c-0.46,0.49-1.17,0.8-2.13,0.93c0.35,0.17,0.62,0.33,0.8,0.5c0.39,0.36,0.75,0.8,1.1,1.33l1.74,2.73
		h-1.67l-1.33-2.08c-0.39-0.6-0.71-1.06-0.96-1.38c-0.25-0.32-0.47-0.54-0.67-0.67c-0.2-0.13-0.4-0.22-0.6-0.27
		c-0.15-0.03-0.4-0.05-0.74-0.05h-1.54v4.45H107.31z M108.63,60.91h2.85c0.61,0,1.08-0.06,1.42-0.19c0.34-0.12,0.6-0.33,0.78-0.6
		c0.18-0.28,0.27-0.58,0.27-0.9c0-0.47-0.17-0.86-0.52-1.17c-0.34-0.31-0.89-0.46-1.63-0.46h-3.17V60.91z"/>
</g>
</svg>
