<?xml version="1.0" encoding="utf-8"?>
<!-- Generator: Adobe Illustrator 25.4.1, SVG Export Plug-In . SVG Version: 6.00 Build 0)  -->
<svg version="1.1" id="Capa_1" xmlns="http://www.w3.org/2000/svg" xmlns:xlink="http://www.w3.org/1999/xlink" x="0px" y="0px"
	 viewBox="0 0 203 77.61" style="enable-background:new 0 0 203 77.61;" xml:space="preserve">
<style type="text/css">
	.st0{fill:#3F3E3E;}
</style>
<g>
	<path d="M2.75,22.86V10.69H5.2v12.17H2.75z"/>
	<path d="M15.55,22.86h-2.33v-4.5c0-0.95-0.05-1.57-0.15-1.85c-0.1-0.28-0.26-0.5-0.49-0.65c-0.22-0.15-0.49-0.23-0.81-0.23
		c-0.4,0-0.77,0.11-1.09,0.33c-0.32,0.22-0.54,0.51-0.66,0.88s-0.18,1.04-0.18,2.03v3.99H7.51v-8.82h2.17v1.29
		c0.77-1,1.74-1.49,2.91-1.49c0.51,0,0.98,0.09,1.41,0.28c0.43,0.18,0.75,0.42,0.97,0.71c0.22,0.29,0.37,0.61,0.46,0.98
		c0.08,0.37,0.13,0.89,0.13,1.57V22.86z"/>
	<path d="M17.7,23.44l2.66,0.32c0.04,0.31,0.15,0.52,0.31,0.64c0.22,0.17,0.57,0.25,1.05,0.25c0.61,0,1.07-0.09,1.37-0.27
		c0.21-0.12,0.36-0.32,0.46-0.59c0.07-0.19,0.11-0.55,0.11-1.07v-1.29c-0.7,0.95-1.58,1.43-2.64,1.43c-1.18,0-2.12-0.5-2.81-1.5
		c-0.54-0.79-0.81-1.78-0.81-2.96c0-1.48,0.36-2.61,1.07-3.39s1.59-1.17,2.65-1.17c1.09,0,1.99,0.48,2.7,1.44v-1.24h2.18v7.91
		c0,1.04-0.09,1.82-0.26,2.33s-0.41,0.92-0.72,1.21c-0.31,0.29-0.72,0.52-1.24,0.69s-1.17,0.25-1.96,0.25
		c-1.49,0-2.55-0.26-3.18-0.77s-0.94-1.16-0.94-1.95C17.69,23.64,17.69,23.55,17.7,23.44z M19.78,18.27c0,0.94,0.18,1.62,0.54,2.05
		c0.36,0.43,0.81,0.65,1.34,0.65c0.57,0,1.05-0.22,1.44-0.67s0.59-1.11,0.59-1.98c0-0.91-0.19-1.59-0.56-2.03
		c-0.38-0.44-0.85-0.66-1.43-0.66c-0.56,0-1.02,0.22-1.38,0.65C19.96,16.71,19.78,17.38,19.78,18.27z"/>
	<path d="M28.3,22.86v-2.33h2.33v2.33H28.3z"/>
	<path d="M37.76,22.86V10.69h9.02v2.06h-6.57v2.7h6.11v2.05h-6.11v3.31h6.8v2.05H37.76z"/>
	<path d="M51.31,22.86h-2.33v-8.82h2.17v1.25c0.37-0.59,0.7-0.98,1-1.17c0.3-0.19,0.63-0.28,1.01-0.28c0.53,0,1.04,0.15,1.54,0.44
		l-0.72,2.03c-0.39-0.25-0.76-0.38-1.1-0.38c-0.33,0-0.6,0.09-0.83,0.27s-0.41,0.5-0.54,0.98c-0.13,0.47-0.2,1.46-0.2,2.96V22.86z"
		/>
	<path d="M55.7,12.85v-2.16h2.33v2.16H55.7z M55.7,22.86v-8.82h2.33v8.82H55.7z"/>
	<path d="M68.11,16.65l-2.3,0.42c-0.08-0.46-0.25-0.81-0.53-1.04c-0.27-0.23-0.63-0.35-1.07-0.35c-0.58,0-1.04,0.2-1.39,0.6
		c-0.35,0.4-0.52,1.07-0.52,2.01c0,1.05,0.18,1.78,0.53,2.22c0.35,0.43,0.82,0.65,1.42,0.65c0.44,0,0.8-0.13,1.09-0.38
		c0.28-0.25,0.48-0.69,0.6-1.3l2.29,0.39c-0.24,1.05-0.7,1.85-1.37,2.38c-0.67,0.54-1.58,0.81-2.71,0.81
		c-1.29,0-2.32-0.41-3.08-1.22c-0.77-0.81-1.15-1.94-1.15-3.38c0-1.46,0.38-2.59,1.15-3.4s1.81-1.22,3.12-1.22
		c1.07,0,1.93,0.23,2.56,0.69C67.38,15,67.83,15.7,68.11,16.65z"/>
	<path d="M69.79,22.86V10.69h2.33v6.46l2.73-3.1h2.87l-3.01,3.22l3.23,5.59h-2.51l-2.22-3.96l-1.09,1.14v2.82H69.79z"/>
	<path d="M84.1,22.86V10.69h2.39l4.98,8.13v-8.13h2.28v12.17h-2.47l-4.91-7.94v7.94H84.1z"/>
	<path d="M95.79,18.33c0-0.78,0.19-1.52,0.57-2.25c0.38-0.72,0.92-1.28,1.62-1.66c0.7-0.38,1.48-0.57,2.35-0.57
		c1.33,0,2.43,0.43,3.28,1.3c0.85,0.87,1.28,1.96,1.28,3.28c0,1.33-0.43,2.44-1.29,3.32c-0.86,0.88-1.94,1.32-3.25,1.32
		c-0.81,0-1.58-0.18-2.31-0.55s-1.29-0.9-1.67-1.61C95.98,20.2,95.79,19.34,95.79,18.33z M98.18,18.45c0,0.88,0.21,1.54,0.62,2.01
		c0.41,0.46,0.93,0.7,1.54,0.7s1.12-0.23,1.53-0.7s0.62-1.14,0.62-2.03c0-0.86-0.21-1.53-0.62-1.99c-0.41-0.46-0.92-0.7-1.53-0.7
		s-1.12,0.23-1.54,0.7C98.39,16.91,98.18,17.58,98.18,18.45z"/>
	<path d="M111.82,20.05l2.32,0.39c-0.3,0.85-0.77,1.5-1.42,1.95c-0.64,0.45-1.45,0.67-2.42,0.67c-1.53,0-2.67-0.5-3.4-1.5
		c-0.58-0.8-0.87-1.81-0.87-3.04c0-1.46,0.38-2.6,1.15-3.43c0.76-0.83,1.73-1.24,2.9-1.24c1.31,0,2.35,0.43,3.11,1.3
		c0.76,0.87,1.12,2.19,1.09,3.98h-5.84c0.02,0.69,0.2,1.23,0.56,1.61s0.81,0.58,1.34,0.58c0.37,0,0.67-0.1,0.92-0.3
		C111.5,20.82,111.69,20.5,111.82,20.05z M111.95,17.7c-0.02-0.68-0.19-1.19-0.52-1.54c-0.33-0.35-0.74-0.53-1.21-0.53
		c-0.51,0-0.93,0.19-1.26,0.56c-0.33,0.37-0.5,0.87-0.49,1.51H111.95z M108.97,12.96l1.15-2.48h2.61l-2.28,2.48H108.97z"/>
	<path d="M120.91,22.86V10.69h3.94c1.49,0,2.47,0.06,2.92,0.18c0.7,0.18,1.28,0.58,1.75,1.19c0.47,0.61,0.71,1.4,0.71,2.37
		c0,0.75-0.13,1.38-0.41,1.88c-0.27,0.51-0.62,0.91-1.03,1.2c-0.42,0.29-0.84,0.48-1.27,0.58c-0.59,0.12-1.44,0.17-2.55,0.17h-1.6
		v4.59H120.91z M123.37,12.75v3.45h1.34c0.97,0,1.62-0.06,1.94-0.19c0.33-0.13,0.58-0.33,0.77-0.6c0.18-0.27,0.28-0.59,0.28-0.95
		c0-0.44-0.13-0.81-0.39-1.1c-0.26-0.29-0.59-0.47-0.99-0.54c-0.29-0.06-0.88-0.08-1.77-0.08H123.37z"/>
	<path d="M138.03,22.86v-1.32c-0.32,0.47-0.74,0.84-1.27,1.11c-0.52,0.27-1.07,0.41-1.66,0.41c-0.59,0-1.12-0.13-1.59-0.39
		c-0.47-0.26-0.81-0.62-1.02-1.1c-0.21-0.47-0.32-1.12-0.32-1.95v-5.58h2.33v4.05c0,1.24,0.04,2,0.13,2.28s0.24,0.5,0.47,0.66
		c0.23,0.16,0.52,0.25,0.86,0.25c0.4,0,0.76-0.11,1.07-0.33s0.53-0.49,0.65-0.81c0.12-0.32,0.17-1.12,0.17-2.38v-3.72h2.33v8.82
		H138.03z"/>
	<path d="M150.3,16.65l-2.3,0.42c-0.08-0.46-0.25-0.81-0.53-1.04c-0.27-0.23-0.63-0.35-1.07-0.35c-0.58,0-1.04,0.2-1.39,0.6
		c-0.35,0.4-0.52,1.07-0.52,2.01c0,1.05,0.18,1.78,0.53,2.22s0.82,0.65,1.42,0.65c0.44,0,0.81-0.13,1.09-0.38
		c0.28-0.25,0.48-0.69,0.6-1.3l2.29,0.39c-0.24,1.05-0.69,1.85-1.37,2.38c-0.68,0.54-1.58,0.81-2.71,0.81
		c-1.29,0-2.32-0.41-3.08-1.22s-1.15-1.94-1.15-3.38c0-1.46,0.38-2.59,1.15-3.4s1.81-1.22,3.12-1.22c1.07,0,1.93,0.23,2.56,0.69
		C149.57,15,150.02,15.7,150.3,16.65z"/>
	<path d="M156.81,22.86V10.69h9.02v2.06h-6.57v2.7h6.11v2.05h-6.11v3.31h6.8v2.05H156.81z"/>
	<path d="M168.05,22.86V10.69h2.33v6.46l2.73-3.1h2.87l-3.01,3.22l3.23,5.59h-2.52l-2.22-3.96l-1.09,1.14v2.82H168.05z"/>
</g>
<g>
	<path d="M1.94,41.89l1.2-0.16c0.03,0.77,0.18,1.29,0.43,1.57c0.26,0.28,0.61,0.42,1.06,0.42c0.33,0,0.62-0.08,0.86-0.23
		c0.24-0.15,0.41-0.36,0.5-0.62c0.09-0.26,0.14-0.68,0.14-1.25v-6.9h1.33v6.83c0,0.84-0.1,1.49-0.3,1.95
		c-0.2,0.46-0.52,0.81-0.96,1.05c-0.44,0.24-0.96,0.36-1.55,0.36c-0.88,0-1.55-0.25-2.02-0.76C2.15,43.64,1.93,42.89,1.94,41.89z"/>
	<path d="M14.43,42.4l1.27,0.16c-0.2,0.74-0.57,1.32-1.11,1.73c-0.54,0.41-1.23,0.62-2.08,0.62c-1.06,0-1.9-0.33-2.53-0.98
		c-0.62-0.65-0.93-1.57-0.93-2.75c0-1.22,0.31-2.17,0.94-2.84c0.63-0.67,1.45-1.01,2.45-1.01c0.97,0,1.76,0.33,2.38,0.99
		c0.62,0.66,0.92,1.59,0.92,2.79c0,0.07,0,0.18-0.01,0.33h-5.41c0.05,0.8,0.27,1.41,0.68,1.83c0.41,0.42,0.91,0.64,1.52,0.64
		c0.45,0,0.84-0.12,1.16-0.36C13.99,43.29,14.25,42.92,14.43,42.4z M10.39,40.41h4.05c-0.05-0.61-0.21-1.07-0.46-1.37
		c-0.39-0.47-0.9-0.71-1.52-0.71c-0.56,0-1.04,0.19-1.42,0.57C10.65,39.27,10.44,39.77,10.39,40.41z"/>
	<path d="M17.54,44.73v-6.3h-1.09v-0.96h1.09V36.7c0-0.49,0.04-0.85,0.13-1.09c0.12-0.32,0.33-0.58,0.63-0.78
		c0.3-0.2,0.72-0.3,1.25-0.3c0.35,0,0.73,0.04,1.15,0.12l-0.18,1.07c-0.25-0.05-0.5-0.07-0.72-0.07c-0.37,0-0.64,0.08-0.79,0.24
		c-0.15,0.16-0.23,0.46-0.23,0.9v0.67h1.42v0.96h-1.42v6.3H17.54z"/>
	<path d="M26.11,42.4l1.27,0.16c-0.2,0.74-0.57,1.32-1.11,1.73c-0.54,0.41-1.23,0.62-2.08,0.62c-1.06,0-1.9-0.33-2.53-0.98
		c-0.62-0.65-0.93-1.57-0.93-2.75c0-1.22,0.31-2.17,0.94-2.84c0.63-0.67,1.45-1.01,2.45-1.01c0.97,0,1.76,0.33,2.38,0.99
		c0.62,0.66,0.92,1.59,0.92,2.79c0,0.07,0,0.18-0.01,0.33H22c0.05,0.8,0.27,1.41,0.68,1.83c0.41,0.42,0.91,0.64,1.52,0.64
		c0.45,0,0.84-0.12,1.16-0.36C25.67,43.29,25.92,42.92,26.11,42.4z M22.07,40.41h4.05c-0.05-0.61-0.21-1.07-0.46-1.37
		c-0.39-0.47-0.9-0.71-1.52-0.71c-0.56,0-1.04,0.19-1.42,0.57C22.32,39.27,22.11,39.77,22.07,40.41z"/>
	<path d="M37.53,44.73v-0.92c-0.46,0.72-1.14,1.08-2.03,1.08c-0.58,0-1.11-0.16-1.6-0.48c-0.49-0.32-0.86-0.76-1.13-1.34
		c-0.27-0.57-0.4-1.23-0.4-1.97c0-0.72,0.12-1.38,0.36-1.97c0.24-0.59,0.6-1.04,1.09-1.36c0.48-0.31,1.02-0.47,1.62-0.47
		c0.44,0,0.83,0.09,1.17,0.28s0.62,0.42,0.83,0.72v-3.6h1.22v10.02H37.53z M33.64,41.11c0,0.93,0.2,1.62,0.59,2.08
		c0.39,0.46,0.85,0.69,1.39,0.69c0.54,0,1-0.22,1.37-0.66c0.38-0.44,0.56-1.11,0.56-2.01c0-0.99-0.19-1.72-0.57-2.19
		s-0.85-0.7-1.42-0.7c-0.55,0-1,0.22-1.37,0.67C33.82,39.45,33.64,40.15,33.64,41.11z"/>
	<path d="M45.57,42.4l1.27,0.16c-0.2,0.74-0.57,1.32-1.11,1.73c-0.54,0.41-1.23,0.62-2.08,0.62c-1.06,0-1.9-0.33-2.53-0.98
		c-0.62-0.65-0.93-1.57-0.93-2.75c0-1.22,0.31-2.17,0.94-2.84c0.63-0.67,1.45-1.01,2.45-1.01c0.97,0,1.76,0.33,2.38,0.99
		c0.62,0.66,0.92,1.59,0.92,2.79c0,0.07,0,0.18-0.01,0.33h-5.41c0.05,0.8,0.27,1.41,0.68,1.83c0.41,0.42,0.91,0.64,1.52,0.64
		c0.45,0,0.84-0.12,1.16-0.36C45.13,43.29,45.39,42.92,45.57,42.4z M41.53,40.41h4.05c-0.05-0.61-0.21-1.07-0.46-1.37
		c-0.39-0.47-0.9-0.71-1.52-0.71c-0.56,0-1.04,0.19-1.42,0.57C41.79,39.27,41.57,39.77,41.53,40.41z"/>
	<path d="M52.38,44.73V34.71h1.33v8.84h4.94v1.18H52.38z"/>
	<path d="M59.61,41.1c0-1.34,0.37-2.34,1.12-2.99c0.62-0.54,1.39-0.81,2.28-0.81c1,0,1.81,0.33,2.45,0.98
		c0.63,0.65,0.95,1.56,0.95,2.71c0,0.93-0.14,1.67-0.42,2.2c-0.28,0.54-0.69,0.95-1.22,1.25c-0.54,0.3-1.12,0.44-1.75,0.44
		c-1.02,0-1.84-0.33-2.46-0.98C59.92,43.27,59.61,42.33,59.61,41.1z M60.87,41.1c0,0.93,0.2,1.63,0.61,2.09
		c0.41,0.46,0.92,0.69,1.53,0.69c0.61,0,1.12-0.23,1.52-0.7c0.41-0.46,0.61-1.17,0.61-2.13c0-0.9-0.2-1.58-0.61-2.04
		c-0.41-0.46-0.92-0.69-1.52-0.69c-0.62,0-1.12,0.23-1.53,0.69C61.07,39.48,60.87,40.17,60.87,41.1z"/>
	<path d="M67.62,45.34l1.2,0.18c0.05,0.37,0.19,0.64,0.42,0.81c0.31,0.23,0.72,0.34,1.25,0.34c0.57,0,1.01-0.11,1.32-0.34
		c0.31-0.23,0.52-0.55,0.63-0.96c0.06-0.25,0.09-0.78,0.09-1.58c-0.54,0.63-1.21,0.95-2.01,0.95c-1,0-1.77-0.36-2.32-1.08
		c-0.55-0.72-0.82-1.58-0.82-2.59c0-0.69,0.13-1.33,0.38-1.92c0.25-0.58,0.61-1.04,1.09-1.36c0.48-0.32,1.04-0.48,1.68-0.48
		c0.86,0,1.56,0.35,2.12,1.04v-0.88h1.13v6.28c0,1.13-0.12,1.93-0.34,2.4c-0.23,0.47-0.59,0.84-1.09,1.12s-1.11,0.41-1.84,0.41
		c-0.87,0-1.57-0.2-2.1-0.58S67.61,46.12,67.62,45.34z M68.64,40.97c0,0.95,0.19,1.65,0.57,2.08c0.38,0.44,0.85,0.66,1.42,0.66
		c0.57,0,1.04-0.22,1.42-0.65c0.38-0.43,0.57-1.12,0.57-2.05c0-0.89-0.2-1.56-0.59-2.01c-0.39-0.45-0.87-0.68-1.43-0.68
		c-0.55,0-1.01,0.22-1.39,0.67S68.64,40.1,68.64,40.97z"/>
	<path d="M76.01,36.57l0.91-1.91h1.61l-1.5,1.91H76.01z M76.07,44.73v-7.26h1.23v7.26H76.07z"/>
	<path d="M79.03,42.57l1.22-0.19c0.07,0.49,0.26,0.86,0.57,1.12c0.31,0.26,0.75,0.39,1.31,0.39c0.57,0,0.98-0.12,1.26-0.35
		c0.27-0.23,0.41-0.5,0.41-0.81c0-0.28-0.12-0.5-0.36-0.66c-0.17-0.11-0.59-0.25-1.26-0.42c-0.9-0.23-1.53-0.42-1.88-0.59
		c-0.35-0.17-0.61-0.4-0.79-0.69c-0.18-0.29-0.27-0.62-0.27-0.97c0-0.32,0.07-0.62,0.22-0.9c0.15-0.28,0.35-0.5,0.6-0.69
		c0.19-0.14,0.45-0.26,0.78-0.36c0.33-0.1,0.68-0.15,1.06-0.15c0.57,0,1.07,0.08,1.5,0.25s0.75,0.39,0.95,0.67s0.35,0.66,0.42,1.12
		l-1.2,0.16c-0.05-0.37-0.21-0.67-0.47-0.88c-0.26-0.21-0.63-0.31-1.11-0.31c-0.56,0-0.97,0.09-1.21,0.28
		c-0.24,0.19-0.36,0.41-0.36,0.66c0,0.16,0.05,0.3,0.15,0.43c0.1,0.13,0.26,0.24,0.47,0.33c0.12,0.04,0.49,0.15,1.09,0.31
		c0.87,0.23,1.48,0.42,1.82,0.57c0.34,0.15,0.61,0.36,0.81,0.65c0.2,0.28,0.29,0.63,0.29,1.05c0,0.41-0.12,0.8-0.36,1.16
		s-0.58,0.64-1.04,0.84s-0.96,0.3-1.53,0.3c-0.94,0-1.66-0.2-2.16-0.59C79.49,43.92,79.17,43.34,79.03,42.57z"/>
	<path d="M89.21,43.63l0.18,1.09c-0.35,0.07-0.66,0.11-0.93,0.11c-0.45,0-0.79-0.07-1.04-0.21c-0.25-0.14-0.42-0.33-0.52-0.56
		c-0.1-0.23-0.15-0.71-0.15-1.45v-4.18h-0.9v-0.96h0.9v-1.8l1.22-0.74v2.54h1.24v0.96h-1.24v4.25c0,0.35,0.02,0.58,0.07,0.68
		c0.04,0.1,0.11,0.18,0.21,0.24c0.1,0.06,0.24,0.09,0.42,0.09C88.81,43.68,88.99,43.67,89.21,43.63z"/>
	<path d="M90.42,36.13v-1.42h1.23v1.42H90.42z M90.42,44.73v-7.26h1.23v7.26H90.42z"/>
	<path d="M98.26,42.08l1.21,0.16c-0.13,0.83-0.47,1.49-1.01,1.96c-0.54,0.47-1.21,0.71-2.01,0.71c-0.99,0-1.79-0.33-2.4-0.97
		c-0.6-0.65-0.91-1.58-0.91-2.79c0-0.78,0.13-1.47,0.39-2.06s0.66-1.03,1.19-1.32c0.53-0.29,1.11-0.44,1.73-0.44
		c0.79,0,1.43,0.2,1.93,0.6c0.5,0.4,0.82,0.96,0.96,1.7l-1.2,0.18c-0.11-0.49-0.32-0.85-0.6-1.1c-0.29-0.25-0.64-0.37-1.05-0.37
		c-0.62,0-1.12,0.22-1.51,0.67c-0.39,0.44-0.58,1.15-0.58,2.11c0,0.97,0.19,1.68,0.56,2.13c0.37,0.44,0.86,0.66,1.46,0.66
		c0.48,0,0.89-0.15,1.21-0.44C97.97,43.15,98.18,42.69,98.26,42.08z"/>
	<path d="M105.26,43.84c-0.46,0.39-0.89,0.66-1.32,0.82c-0.42,0.16-0.87,0.24-1.36,0.24c-0.8,0-1.41-0.2-1.84-0.58
		c-0.43-0.39-0.64-0.89-0.64-1.49c0-0.36,0.08-0.68,0.24-0.97c0.16-0.29,0.37-0.53,0.64-0.71c0.26-0.18,0.56-0.31,0.88-0.4
		c0.24-0.06,0.61-0.13,1.09-0.18c0.99-0.12,1.73-0.26,2.19-0.42c0-0.17,0.01-0.28,0.01-0.32c0-0.5-0.12-0.85-0.35-1.06
		c-0.31-0.28-0.78-0.42-1.4-0.42c-0.58,0-1.01,0.1-1.28,0.3c-0.28,0.2-0.48,0.56-0.61,1.08l-1.2-0.16c0.11-0.52,0.29-0.93,0.54-1.25
		c0.25-0.32,0.61-0.56,1.09-0.73c0.47-0.17,1.02-0.26,1.65-0.26c0.62,0,1.12,0.07,1.51,0.22c0.39,0.15,0.67,0.33,0.85,0.55
		c0.18,0.22,0.31,0.5,0.38,0.84c0.04,0.21,0.06,0.59,0.06,1.13v1.64c0,1.14,0.03,1.87,0.08,2.17c0.05,0.3,0.16,0.59,0.31,0.87h-1.29
		C105.38,44.48,105.3,44.18,105.26,43.84z M105.16,41.09c-0.45,0.18-1.12,0.34-2.01,0.46c-0.51,0.07-0.86,0.15-1.07,0.25
		c-0.21,0.09-0.37,0.22-0.49,0.4c-0.11,0.18-0.17,0.37-0.17,0.58c0,0.33,0.12,0.6,0.37,0.82c0.25,0.22,0.61,0.33,1.09,0.33
		c0.47,0,0.9-0.1,1.26-0.31c0.37-0.21,0.64-0.49,0.81-0.85c0.13-0.28,0.2-0.69,0.2-1.23V41.09z"/>
	<path d="M112.15,47.53l-0.14-1.16c0.27,0.07,0.5,0.11,0.7,0.11c0.27,0,0.49-0.05,0.66-0.14c0.16-0.09,0.3-0.22,0.4-0.38
		c0.08-0.12,0.2-0.43,0.38-0.92c0.02-0.07,0.06-0.17,0.11-0.3l-2.75-7.27h1.33l1.51,4.2c0.2,0.53,0.37,1.09,0.53,1.68
		c0.14-0.57,0.31-1.12,0.51-1.65l1.55-4.23h1.23l-2.76,7.38c-0.3,0.8-0.53,1.35-0.69,1.65c-0.22,0.41-0.47,0.7-0.75,0.89
		c-0.28,0.19-0.62,0.28-1.01,0.28C112.7,47.68,112.44,47.63,112.15,47.53z"/>
	<path d="M121.38,44.73l3.85-10.02h1.43l4.1,10.02h-1.51l-1.17-3.04h-4.19l-1.1,3.04H121.38z M124.27,40.62h3.4l-1.05-2.78
		c-0.32-0.84-0.56-1.54-0.71-2.08c-0.13,0.64-0.31,1.28-0.54,1.91L124.27,40.62z"/>
	<path d="M131.63,44.73V34.71h1.23v10.02H131.63z"/>
	<path d="M134.77,44.73v-7.26h1.1v1.02c0.23-0.36,0.53-0.64,0.91-0.86c0.38-0.22,0.81-0.32,1.29-0.32c0.54,0,0.98,0.11,1.32,0.33
		c0.34,0.22,0.59,0.54,0.73,0.94c0.57-0.85,1.32-1.27,2.24-1.27c0.72,0,1.27,0.2,1.66,0.6c0.39,0.4,0.58,1.01,0.58,1.84v4.98h-1.22
		v-4.57c0-0.49-0.04-0.85-0.12-1.06c-0.08-0.22-0.22-0.39-0.43-0.52c-0.21-0.13-0.46-0.2-0.74-0.2c-0.51,0-0.93,0.17-1.27,0.51
		c-0.34,0.34-0.51,0.88-0.51,1.63v4.22h-1.23v-4.72c0-0.55-0.1-0.96-0.3-1.23c-0.2-0.27-0.53-0.41-0.98-0.41
		c-0.35,0-0.67,0.09-0.96,0.27c-0.29,0.18-0.51,0.45-0.64,0.8c-0.13,0.35-0.2,0.86-0.2,1.52v3.77H134.77z"/>
	<path d="M151.17,43.84c-0.46,0.39-0.89,0.66-1.32,0.82c-0.42,0.16-0.87,0.24-1.36,0.24c-0.8,0-1.41-0.2-1.84-0.58
		c-0.43-0.39-0.64-0.89-0.64-1.49c0-0.36,0.08-0.68,0.24-0.97c0.16-0.29,0.37-0.53,0.64-0.71c0.26-0.18,0.56-0.31,0.88-0.4
		c0.24-0.06,0.61-0.13,1.09-0.18c0.99-0.12,1.73-0.26,2.19-0.42c0-0.17,0.01-0.28,0.01-0.32c0-0.5-0.12-0.85-0.35-1.06
		c-0.31-0.28-0.78-0.42-1.4-0.42c-0.58,0-1.01,0.1-1.28,0.3c-0.28,0.2-0.48,0.56-0.61,1.08l-1.2-0.16c0.11-0.52,0.29-0.93,0.54-1.25
		c0.25-0.32,0.61-0.56,1.09-0.73c0.47-0.17,1.02-0.26,1.65-0.26c0.62,0,1.12,0.07,1.51,0.22c0.39,0.15,0.67,0.33,0.85,0.55
		c0.18,0.22,0.31,0.5,0.38,0.84c0.04,0.21,0.06,0.59,0.06,1.13v1.64c0,1.14,0.03,1.87,0.08,2.17c0.05,0.3,0.16,0.59,0.31,0.87h-1.29
		C151.29,44.48,151.2,44.18,151.17,43.84z M151.06,41.09c-0.45,0.18-1.12,0.34-2.01,0.46c-0.51,0.07-0.86,0.15-1.07,0.25
		c-0.21,0.09-0.37,0.22-0.49,0.4c-0.11,0.18-0.17,0.37-0.17,0.58c0,0.33,0.12,0.6,0.37,0.82c0.25,0.22,0.61,0.33,1.09,0.33
		c0.47,0,0.9-0.1,1.26-0.31c0.37-0.21,0.64-0.49,0.81-0.85c0.13-0.28,0.2-0.69,0.2-1.23V41.09z"/>
	<path d="M158.95,42.08l1.21,0.16c-0.13,0.83-0.47,1.49-1.01,1.96c-0.54,0.47-1.21,0.71-2.01,0.71c-0.99,0-1.79-0.33-2.4-0.97
		c-0.6-0.65-0.91-1.58-0.91-2.79c0-0.78,0.13-1.47,0.39-2.06s0.66-1.03,1.19-1.32c0.53-0.29,1.11-0.44,1.73-0.44
		c0.79,0,1.43,0.2,1.93,0.6c0.5,0.4,0.82,0.96,0.96,1.7l-1.2,0.18c-0.11-0.49-0.32-0.85-0.6-1.1c-0.29-0.25-0.64-0.37-1.05-0.37
		c-0.62,0-1.12,0.22-1.51,0.67c-0.39,0.44-0.58,1.15-0.58,2.11c0,0.97,0.19,1.68,0.56,2.13c0.37,0.44,0.86,0.66,1.46,0.66
		c0.48,0,0.89-0.15,1.21-0.44C158.66,43.15,158.87,42.69,158.95,42.08z"/>
	<path d="M166.19,42.4l1.27,0.16c-0.2,0.74-0.57,1.32-1.11,1.73c-0.54,0.41-1.23,0.62-2.08,0.62c-1.06,0-1.9-0.33-2.53-0.98
		c-0.62-0.65-0.93-1.57-0.93-2.75c0-1.22,0.31-2.17,0.94-2.84c0.63-0.67,1.45-1.01,2.45-1.01c0.97,0,1.76,0.33,2.38,0.99
		c0.62,0.66,0.92,1.59,0.92,2.79c0,0.07,0,0.18-0.01,0.33h-5.41c0.05,0.8,0.27,1.41,0.68,1.83c0.41,0.42,0.91,0.64,1.52,0.64
		c0.45,0,0.84-0.12,1.16-0.36C165.75,43.29,166,42.92,166.19,42.4z M162.15,40.41h4.05c-0.05-0.61-0.21-1.07-0.46-1.37
		c-0.39-0.47-0.9-0.71-1.52-0.71c-0.56,0-1.04,0.19-1.42,0.57C162.4,39.27,162.19,39.77,162.15,40.41z"/>
	<path d="M169,44.73v-7.26h1.11v1.03c0.53-0.8,1.3-1.2,2.31-1.2c0.44,0,0.84,0.08,1.21,0.24c0.37,0.16,0.64,0.36,0.82,0.62
		c0.18,0.25,0.31,0.56,0.38,0.91c0.05,0.23,0.07,0.63,0.07,1.2v4.46h-1.23v-4.42c0-0.5-0.05-0.88-0.14-1.12
		c-0.1-0.25-0.27-0.45-0.51-0.59c-0.24-0.15-0.53-0.22-0.86-0.22c-0.52,0-0.98,0.17-1.36,0.5c-0.38,0.33-0.57,0.96-0.57,1.89v3.96
		H169z"/>
	<path d="M181.76,42.4l1.27,0.16c-0.2,0.74-0.57,1.32-1.11,1.73c-0.54,0.41-1.23,0.62-2.08,0.62c-1.06,0-1.9-0.33-2.53-0.98
		c-0.62-0.65-0.93-1.57-0.93-2.75c0-1.22,0.31-2.17,0.94-2.84c0.63-0.67,1.45-1.01,2.45-1.01c0.97,0,1.76,0.33,2.38,0.99
		c0.62,0.66,0.92,1.59,0.92,2.79c0,0.07,0,0.18-0.01,0.33h-5.41c0.05,0.8,0.27,1.41,0.68,1.83c0.41,0.42,0.91,0.64,1.52,0.64
		c0.45,0,0.84-0.12,1.16-0.36C181.32,43.29,181.57,42.92,181.76,42.4z M177.72,40.41h4.05c-0.05-0.61-0.21-1.07-0.46-1.37
		c-0.39-0.47-0.9-0.71-1.52-0.71c-0.56,0-1.04,0.19-1.42,0.57C177.97,39.27,177.76,39.77,177.72,40.41z"/>
	<path d="M184.08,42.57l1.22-0.19c0.07,0.49,0.26,0.86,0.57,1.12c0.31,0.26,0.75,0.39,1.31,0.39c0.57,0,0.98-0.12,1.26-0.35
		c0.27-0.23,0.41-0.5,0.41-0.81c0-0.28-0.12-0.5-0.36-0.66c-0.17-0.11-0.59-0.25-1.26-0.42c-0.9-0.23-1.53-0.42-1.88-0.59
		c-0.35-0.17-0.61-0.4-0.79-0.69c-0.18-0.29-0.27-0.62-0.27-0.97c0-0.32,0.07-0.62,0.22-0.9c0.15-0.28,0.35-0.5,0.6-0.69
		c0.19-0.14,0.45-0.26,0.78-0.36c0.33-0.1,0.68-0.15,1.06-0.15c0.57,0,1.07,0.08,1.5,0.25s0.75,0.39,0.95,0.67s0.35,0.66,0.42,1.12
		l-1.2,0.16c-0.05-0.37-0.21-0.67-0.47-0.88c-0.26-0.21-0.63-0.31-1.11-0.31c-0.56,0-0.97,0.09-1.21,0.28
		c-0.24,0.19-0.36,0.41-0.36,0.66c0,0.16,0.05,0.3,0.15,0.43c0.1,0.13,0.26,0.24,0.47,0.33c0.12,0.04,0.49,0.15,1.09,0.31
		c0.87,0.23,1.48,0.42,1.82,0.57c0.34,0.15,0.61,0.36,0.81,0.65c0.2,0.28,0.29,0.63,0.29,1.05c0,0.41-0.12,0.8-0.36,1.16
		s-0.58,0.64-1.04,0.84s-0.96,0.3-1.53,0.3c-0.94,0-1.66-0.2-2.16-0.59C184.53,43.92,184.22,43.34,184.08,42.57z"/>
</g>
<g>
	<path d="M2.1,61.63c0-1.66,0.45-2.97,1.34-3.91c0.89-0.94,2.05-1.41,3.46-1.41c0.93,0,1.76,0.22,2.5,0.66
		c0.74,0.44,1.31,1.06,1.7,1.85c0.39,0.79,0.58,1.69,0.58,2.69c0,1.02-0.21,1.92-0.62,2.73c-0.41,0.8-0.99,1.41-1.74,1.82
		c-0.75,0.41-1.56,0.62-2.43,0.62c-0.94,0-1.79-0.23-2.53-0.68c-0.74-0.46-1.31-1.08-1.69-1.87C2.29,63.34,2.1,62.51,2.1,61.63z
		 M3.46,61.65c0,1.21,0.32,2.16,0.97,2.85c0.65,0.7,1.46,1.04,2.44,1.04c1,0,1.82-0.35,2.46-1.05c0.64-0.7,0.97-1.7,0.97-2.99
		c0-0.82-0.14-1.53-0.41-2.14c-0.28-0.61-0.68-1.08-1.21-1.42c-0.53-0.33-1.13-0.5-1.79-0.5c-0.94,0-1.75,0.32-2.42,0.97
		C3.8,59.06,3.46,60.14,3.46,61.65z"/>
	<path d="M13.23,69.29V59.25h1.12v0.94c0.26-0.37,0.56-0.65,0.9-0.83s0.74-0.28,1.21-0.28c0.62,0,1.17,0.16,1.64,0.48
		c0.47,0.32,0.83,0.77,1.07,1.35s0.36,1.22,0.36,1.91c0,0.74-0.13,1.41-0.4,2.01c-0.27,0.59-0.65,1.05-1.16,1.37
		c-0.51,0.32-1.04,0.48-1.6,0.48c-0.41,0-0.78-0.09-1.1-0.26c-0.33-0.17-0.59-0.39-0.8-0.66v3.53H13.23z M14.35,62.92
		c0,0.93,0.19,1.62,0.57,2.07c0.38,0.45,0.84,0.67,1.37,0.67c0.55,0,1.02-0.23,1.4-0.69c0.39-0.46,0.58-1.18,0.58-2.15
		c0-0.93-0.19-1.62-0.57-2.08c-0.38-0.46-0.83-0.69-1.36-0.69c-0.52,0-0.99,0.25-1.39,0.73C14.55,61.27,14.35,61.98,14.35,62.92z"/>
	<path d="M25.99,64.17l1.27,0.16c-0.2,0.74-0.57,1.32-1.11,1.73s-1.23,0.62-2.08,0.62c-1.06,0-1.9-0.33-2.53-0.98
		c-0.62-0.65-0.93-1.57-0.93-2.75c0-1.22,0.31-2.17,0.94-2.84c0.63-0.67,1.45-1.01,2.45-1.01c0.97,0,1.76,0.33,2.38,0.99
		c0.62,0.66,0.92,1.59,0.92,2.79c0,0.07,0,0.18-0.01,0.33h-5.41c0.04,0.8,0.27,1.41,0.68,1.83s0.91,0.64,1.52,0.64
		c0.45,0,0.84-0.12,1.16-0.36C25.55,65.07,25.8,64.69,25.99,64.17z M21.95,62.18H26c-0.05-0.61-0.21-1.07-0.46-1.37
		c-0.39-0.47-0.9-0.71-1.52-0.71c-0.56,0-1.04,0.19-1.43,0.57C22.2,61.04,21.99,61.55,21.95,62.18z"/>
	<path d="M28.79,66.51v-7.26h1.11v1.1c0.28-0.52,0.54-0.85,0.78-1.02c0.24-0.16,0.5-0.25,0.79-0.25c0.42,0,0.84,0.13,1.26,0.4
		l-0.42,1.14c-0.3-0.18-0.6-0.27-0.9-0.27c-0.27,0-0.51,0.08-0.72,0.24c-0.21,0.16-0.37,0.39-0.46,0.67
		c-0.14,0.44-0.21,0.92-0.21,1.44v3.8H28.79z"/>
	<path d="M38.2,65.61c-0.46,0.39-0.89,0.66-1.32,0.82c-0.42,0.16-0.87,0.24-1.36,0.24c-0.8,0-1.41-0.2-1.84-0.58
		s-0.64-0.89-0.64-1.49c0-0.36,0.08-0.68,0.24-0.97c0.16-0.29,0.37-0.53,0.64-0.71c0.26-0.18,0.56-0.31,0.88-0.4
		c0.24-0.06,0.61-0.13,1.09-0.18c0.99-0.12,1.72-0.26,2.19-0.42c0-0.17,0.01-0.28,0.01-0.32c0-0.5-0.12-0.85-0.35-1.06
		c-0.31-0.28-0.78-0.42-1.4-0.42c-0.58,0-1.01,0.1-1.28,0.3c-0.28,0.2-0.48,0.56-0.61,1.08l-1.2-0.16c0.11-0.52,0.29-0.93,0.54-1.25
		c0.25-0.32,0.61-0.56,1.09-0.73s1.02-0.26,1.65-0.26c0.62,0,1.12,0.07,1.51,0.22c0.39,0.15,0.67,0.33,0.85,0.55
		c0.18,0.22,0.31,0.5,0.38,0.84c0.04,0.21,0.06,0.59,0.06,1.13v1.64c0,1.14,0.03,1.87,0.08,2.17c0.05,0.3,0.16,0.59,0.31,0.87h-1.29
		C38.32,66.25,38.24,65.95,38.2,65.61z M38.1,62.86c-0.45,0.18-1.12,0.34-2.01,0.46c-0.51,0.07-0.86,0.15-1.07,0.25
		c-0.21,0.09-0.37,0.22-0.49,0.4c-0.11,0.18-0.17,0.37-0.17,0.58c0,0.33,0.12,0.6,0.37,0.82c0.25,0.22,0.61,0.33,1.09,0.33
		c0.47,0,0.9-0.1,1.26-0.31c0.37-0.21,0.64-0.49,0.81-0.85c0.13-0.28,0.2-0.69,0.2-1.23V62.86z"/>
	<path d="M45.99,63.85l1.21,0.16c-0.13,0.83-0.47,1.49-1.02,1.96c-0.54,0.47-1.21,0.71-2.01,0.71c-0.99,0-1.79-0.33-2.4-0.97
		c-0.6-0.65-0.91-1.58-0.91-2.79c0-0.78,0.13-1.47,0.39-2.06s0.66-1.03,1.19-1.32c0.53-0.29,1.11-0.44,1.73-0.44
		c0.79,0,1.43,0.2,1.93,0.6c0.5,0.4,0.82,0.96,0.96,1.7l-1.2,0.18c-0.11-0.49-0.32-0.85-0.61-1.1c-0.29-0.25-0.64-0.37-1.05-0.37
		c-0.62,0-1.12,0.22-1.51,0.67s-0.58,1.15-0.58,2.11c0,0.97,0.19,1.68,0.56,2.13c0.37,0.44,0.86,0.66,1.46,0.66
		c0.48,0,0.89-0.15,1.21-0.44C45.7,64.92,45.9,64.46,45.99,63.85z"/>
	<path d="M48.26,57.9v-1.42h1.23v1.42H48.26z M48.26,66.51v-7.26h1.23v7.26H48.26z"/>
	<path d="M50.91,62.88c0-1.34,0.37-2.34,1.12-2.99c0.62-0.54,1.38-0.81,2.28-0.81c1,0,1.81,0.33,2.45,0.98
		c0.63,0.65,0.95,1.56,0.95,2.71c0,0.93-0.14,1.67-0.42,2.2c-0.28,0.54-0.69,0.95-1.22,1.25c-0.54,0.3-1.12,0.44-1.75,0.44
		c-1.02,0-1.84-0.33-2.46-0.98C51.22,65.04,50.91,64.1,50.91,62.88z M52.17,62.88c0,0.93,0.2,1.63,0.61,2.09
		c0.41,0.46,0.92,0.69,1.53,0.69c0.61,0,1.12-0.23,1.52-0.7s0.61-1.17,0.61-2.13c0-0.9-0.2-1.58-0.61-2.04
		c-0.41-0.46-0.92-0.69-1.52-0.69c-0.62,0-1.12,0.23-1.53,0.69C52.37,61.25,52.17,61.95,52.17,62.88z"/>
	<path d="M59.15,66.51v-7.26h1.11v1.03c0.53-0.8,1.3-1.2,2.31-1.2c0.44,0,0.84,0.08,1.21,0.24c0.37,0.16,0.64,0.36,0.82,0.62
		c0.18,0.25,0.31,0.56,0.38,0.91c0.05,0.23,0.07,0.63,0.07,1.2v4.46h-1.23v-4.42c0-0.5-0.05-0.88-0.14-1.12
		c-0.1-0.25-0.27-0.45-0.51-0.59c-0.24-0.15-0.53-0.22-0.86-0.22c-0.52,0-0.98,0.17-1.36,0.5c-0.38,0.33-0.57,0.96-0.57,1.89v3.96
		H59.15z"/>
	<path d="M71.91,64.17l1.27,0.16c-0.2,0.74-0.57,1.32-1.11,1.73s-1.24,0.62-2.08,0.62c-1.06,0-1.9-0.33-2.53-0.98
		c-0.62-0.65-0.93-1.57-0.93-2.75c0-1.22,0.31-2.17,0.94-2.84c0.63-0.67,1.44-1.01,2.45-1.01c0.97,0,1.76,0.33,2.38,0.99
		c0.62,0.66,0.92,1.59,0.92,2.79c0,0.07,0,0.18-0.01,0.33H67.8c0.05,0.8,0.27,1.41,0.68,1.83s0.91,0.64,1.52,0.64
		c0.45,0,0.84-0.12,1.16-0.36C71.47,65.07,71.72,64.69,71.91,64.17z M67.87,62.18h4.05c-0.05-0.61-0.21-1.07-0.46-1.37
		c-0.39-0.47-0.9-0.71-1.52-0.71c-0.57,0-1.04,0.19-1.42,0.57C68.12,61.04,67.91,61.55,67.87,62.18z"/>
	<path d="M74.23,64.34l1.22-0.19c0.07,0.49,0.26,0.86,0.57,1.12c0.31,0.26,0.75,0.39,1.31,0.39c0.57,0,0.98-0.12,1.26-0.35
		c0.27-0.23,0.41-0.5,0.41-0.81c0-0.28-0.12-0.5-0.36-0.66c-0.17-0.11-0.59-0.25-1.26-0.42c-0.9-0.23-1.53-0.42-1.88-0.59
		c-0.35-0.17-0.61-0.4-0.79-0.69c-0.18-0.29-0.27-0.62-0.27-0.97c0-0.32,0.07-0.62,0.22-0.9c0.15-0.28,0.35-0.5,0.6-0.69
		c0.19-0.14,0.45-0.26,0.78-0.36c0.33-0.1,0.69-0.15,1.06-0.15c0.57,0,1.07,0.08,1.5,0.25c0.43,0.16,0.75,0.39,0.95,0.67
		s0.35,0.66,0.42,1.12l-1.2,0.16c-0.05-0.37-0.21-0.67-0.47-0.88c-0.26-0.21-0.63-0.31-1.11-0.31c-0.56,0-0.97,0.09-1.21,0.28
		c-0.24,0.19-0.36,0.41-0.36,0.66c0,0.16,0.05,0.3,0.15,0.43c0.1,0.13,0.26,0.24,0.47,0.33c0.12,0.04,0.49,0.15,1.09,0.31
		c0.87,0.23,1.48,0.42,1.82,0.57c0.34,0.15,0.61,0.36,0.81,0.65c0.2,0.28,0.29,0.63,0.29,1.05c0,0.41-0.12,0.8-0.36,1.16
		c-0.24,0.36-0.58,0.64-1.04,0.84s-0.96,0.3-1.53,0.3c-0.94,0-1.66-0.2-2.16-0.59C74.68,65.69,74.37,65.11,74.23,64.34z"/>
	<path d="M85.97,69.45V56.32h1.07v13.14H85.97z"/>
	<path d="M97.98,62.58V61.4l4.25-0.01v3.72c-0.65,0.52-1.32,0.91-2.02,1.17c-0.69,0.26-1.4,0.39-2.13,0.39
		c-0.98,0-1.88-0.21-2.68-0.63c-0.8-0.42-1.41-1.03-1.82-1.83c-0.41-0.8-0.62-1.69-0.62-2.67c0-0.98,0.2-1.89,0.61-2.73
		c0.41-0.84,1-1.47,1.76-1.88s1.65-0.62,2.65-0.62c0.72,0,1.38,0.12,1.96,0.35c0.59,0.24,1.04,0.56,1.38,0.98
		c0.33,0.42,0.58,0.97,0.76,1.64l-1.2,0.33c-0.15-0.51-0.34-0.91-0.56-1.2c-0.22-0.29-0.54-0.53-0.96-0.7
		c-0.42-0.17-0.88-0.26-1.38-0.26c-0.61,0-1.13,0.09-1.57,0.28s-0.8,0.43-1.07,0.73c-0.27,0.3-0.48,0.63-0.63,0.99
		c-0.26,0.62-0.38,1.29-0.38,2.02c0,0.89,0.15,1.64,0.46,2.24c0.31,0.6,0.76,1.05,1.34,1.34c0.59,0.29,1.21,0.44,1.87,0.44
		c0.57,0,1.13-0.11,1.68-0.33c0.55-0.22,0.96-0.46,1.24-0.71v-1.87H97.98z"/>
	<path d="M103.08,66.51l3.85-10.02h1.43l4.1,10.02h-1.51l-1.17-3.04h-4.19l-1.1,3.04H103.08z M105.98,62.39h3.4l-1.05-2.78
		c-0.32-0.84-0.56-1.54-0.71-2.08c-0.13,0.64-0.31,1.28-0.54,1.91L105.98,62.39z"/>
	<path d="M113.47,66.51V56.49h3.76c0.77,0,1.38,0.1,1.84,0.3c0.46,0.2,0.83,0.52,1.09,0.94c0.26,0.42,0.39,0.86,0.39,1.32
		c0,0.43-0.12,0.83-0.35,1.21c-0.23,0.38-0.58,0.68-1.05,0.92c0.61,0.18,1.07,0.48,1.4,0.91c0.33,0.43,0.49,0.93,0.49,1.52
		c0,0.47-0.1,0.91-0.3,1.31c-0.2,0.4-0.44,0.71-0.73,0.93s-0.66,0.38-1.1,0.5c-0.44,0.11-0.98,0.17-1.62,0.17H113.47z M114.79,60.7
		h2.17c0.59,0,1.01-0.04,1.26-0.12c0.34-0.1,0.59-0.27,0.76-0.5c0.17-0.23,0.26-0.52,0.26-0.88c0-0.33-0.08-0.63-0.24-0.88
		s-0.39-0.43-0.68-0.52c-0.3-0.09-0.8-0.14-1.52-0.14h-2V60.7z M114.79,65.33h2.5c0.43,0,0.73-0.02,0.9-0.05
		c0.31-0.05,0.56-0.15,0.77-0.27c0.21-0.13,0.37-0.31,0.51-0.56c0.13-0.24,0.2-0.53,0.2-0.84c0-0.37-0.1-0.7-0.29-0.97
		c-0.19-0.28-0.46-0.47-0.8-0.58c-0.34-0.11-0.83-0.17-1.47-0.17h-2.32V65.33z"/>
	<path d="M121.76,66.51l3.85-10.02h1.43l4.1,10.02h-1.51l-1.17-3.04h-4.19l-1.1,3.04H121.76z M124.65,62.39h3.4L127,59.62
		c-0.32-0.84-0.56-1.54-0.71-2.08c-0.13,0.64-0.31,1.28-0.54,1.91L124.65,62.39z"/>
	<path d="M132.22,66.51V56.49h4.44c0.89,0,1.57,0.09,2.04,0.27c0.46,0.18,0.84,0.5,1.11,0.95c0.28,0.46,0.42,0.96,0.42,1.51
		c0,0.71-0.23,1.31-0.69,1.8c-0.46,0.49-1.17,0.8-2.13,0.93c0.35,0.17,0.62,0.33,0.8,0.5c0.39,0.36,0.75,0.8,1.1,1.33l1.74,2.73
		h-1.67l-1.33-2.08c-0.39-0.6-0.71-1.06-0.96-1.38c-0.25-0.32-0.48-0.54-0.67-0.67c-0.2-0.13-0.4-0.22-0.61-0.27
		c-0.15-0.03-0.4-0.05-0.74-0.05h-1.54v4.45H132.22z M133.55,60.91h2.85c0.61,0,1.08-0.06,1.42-0.19c0.34-0.12,0.6-0.33,0.78-0.6
		c0.18-0.28,0.27-0.58,0.27-0.9c0-0.47-0.17-0.86-0.52-1.17c-0.34-0.31-0.89-0.46-1.63-0.46h-3.17V60.91z"/>
</g>
</svg>
