<?xml version="1.0" encoding="utf-8"?>
<!-- Generator: Adobe Illustrator 25.4.1, SVG Export Plug-In . SVG Version: 6.00 Build 0)  -->
<svg version="1.1" id="Capa_1" xmlns="http://www.w3.org/2000/svg" xmlns:xlink="http://www.w3.org/1999/xlink" x="0px" y="0px"
	 viewBox="0 0 252 77.61" style="enable-background:new 0 0 252 77.61;" xml:space="preserve">
<style type="text/css">
	.st0{fill:#3F3E3E;}
</style>
<g>
	<path d="M2.84,22.86V10.69h8.34v2.06H5.29v2.88h5.08v2.06H5.29v5.17H2.84z"/>
	<path d="M15.42,22.86h-2.33v-8.82h2.17v1.25c0.37-0.59,0.71-0.98,1-1.17c0.3-0.19,0.63-0.28,1.01-0.28c0.53,0,1.04,0.15,1.54,0.44
		l-0.72,2.03c-0.39-0.25-0.76-0.38-1.1-0.38c-0.33,0-0.6,0.09-0.83,0.27c-0.23,0.18-0.4,0.5-0.54,0.98c-0.13,0.47-0.2,1.46-0.2,2.96
		V22.86z"/>
	<path d="M24.91,20.05l2.32,0.39c-0.3,0.85-0.77,1.5-1.42,1.95c-0.65,0.45-1.45,0.67-2.42,0.67c-1.53,0-2.67-0.5-3.4-1.5
		c-0.58-0.8-0.87-1.81-0.87-3.04c0-1.46,0.38-2.6,1.14-3.43c0.76-0.83,1.73-1.24,2.9-1.24c1.31,0,2.35,0.43,3.1,1.3
		s1.12,2.19,1.09,3.98h-5.84c0.02,0.69,0.2,1.23,0.56,1.61c0.36,0.38,0.81,0.58,1.34,0.58c0.37,0,0.67-0.1,0.92-0.3
		S24.78,20.5,24.91,20.05z M25.04,17.7c-0.02-0.68-0.19-1.19-0.52-1.54s-0.74-0.53-1.21-0.53c-0.51,0-0.93,0.19-1.26,0.56
		c-0.33,0.37-0.5,0.87-0.49,1.51H25.04z"/>
	<path d="M37.34,22.86h-2.17v-1.29c-0.36,0.5-0.78,0.88-1.27,1.12c-0.49,0.25-0.98,0.37-1.48,0.37c-1.01,0-1.88-0.41-2.6-1.22
		s-1.08-1.96-1.08-3.42c0-1.49,0.35-2.63,1.05-3.41s1.59-1.17,2.66-1.17c0.99,0,1.84,0.41,2.56,1.23v-4.38h2.33V22.86z M31.12,18.26
		c0,0.94,0.13,1.62,0.39,2.04c0.38,0.61,0.9,0.91,1.58,0.91c0.54,0,0.99-0.23,1.37-0.68c0.38-0.46,0.56-1.14,0.56-2.05
		c0-1.01-0.18-1.74-0.55-2.19c-0.37-0.45-0.83-0.67-1.4-0.67c-0.55,0-1.02,0.22-1.39,0.66C31.31,16.73,31.12,17.38,31.12,18.26z"/>
	<path d="M47.73,22.86h-2.17v-1.29c-0.36,0.5-0.78,0.88-1.27,1.12c-0.49,0.25-0.98,0.37-1.48,0.37c-1.01,0-1.88-0.41-2.6-1.22
		c-0.72-0.82-1.08-1.96-1.08-3.42c0-1.49,0.35-2.63,1.05-3.41c0.7-0.78,1.59-1.17,2.66-1.17c0.98,0,1.84,0.41,2.56,1.23v-4.38h2.33
		V22.86z M41.5,18.26c0,0.94,0.13,1.62,0.39,2.04c0.38,0.61,0.9,0.91,1.58,0.91c0.54,0,0.99-0.23,1.37-0.68
		c0.38-0.46,0.56-1.14,0.56-2.05c0-1.01-0.18-1.74-0.55-2.19c-0.37-0.45-0.83-0.67-1.4-0.67c-0.55,0-1.02,0.22-1.39,0.66
		C41.69,16.73,41.5,17.38,41.5,18.26z"/>
	<path d="M48.92,14.04h2.48l2.11,6.26l2.06-6.26h2.42l-3.11,8.48l-0.56,1.54c-0.21,0.51-0.4,0.91-0.59,1.18
		c-0.19,0.27-0.4,0.49-0.64,0.66s-0.54,0.3-0.89,0.39c-0.35,0.09-0.75,0.14-1.19,0.14c-0.45,0-0.89-0.05-1.32-0.14l-0.21-1.83
		c0.37,0.07,0.7,0.11,0.99,0.11c0.54,0,0.94-0.16,1.2-0.48c0.26-0.32,0.46-0.72,0.6-1.22L48.92,14.04z"/>
	<path d="M75.2,22.86h-2.67l-1.06-2.76H66.6l-1,2.76h-2.61l4.74-12.17h2.6L75.2,22.86z M70.67,18.04L69,13.53l-1.64,4.52H70.67z
		 M67.58,9.99l1.15-2.48h2.61l-2.28,2.48H67.58z"/>
	<path d="M84.5,22.86h-2.33v-4.5c0-0.95-0.05-1.57-0.15-1.85c-0.1-0.28-0.26-0.5-0.49-0.65c-0.22-0.15-0.49-0.23-0.81-0.23
		c-0.4,0-0.77,0.11-1.09,0.33c-0.32,0.22-0.54,0.51-0.66,0.88c-0.12,0.37-0.18,1.04-0.18,2.03v3.99h-2.33v-8.82h2.17v1.29
		c0.77-1,1.74-1.49,2.91-1.49c0.51,0,0.99,0.09,1.41,0.28c0.43,0.18,0.75,0.42,0.97,0.71c0.22,0.29,0.37,0.61,0.46,0.98
		s0.13,0.89,0.13,1.57V22.86z"/>
	<path d="M86.65,23.44l2.67,0.32c0.04,0.31,0.15,0.52,0.31,0.64c0.22,0.17,0.57,0.25,1.05,0.25c0.61,0,1.07-0.09,1.37-0.27
		c0.2-0.12,0.36-0.32,0.46-0.59c0.07-0.19,0.11-0.55,0.11-1.07v-1.29c-0.7,0.95-1.58,1.43-2.64,1.43c-1.18,0-2.12-0.5-2.81-1.5
		c-0.54-0.79-0.81-1.78-0.81-2.96c0-1.48,0.36-2.61,1.07-3.39c0.71-0.78,1.6-1.17,2.65-1.17c1.09,0,1.99,0.48,2.7,1.44v-1.24h2.18
		v7.91c0,1.04-0.09,1.82-0.26,2.33s-0.41,0.92-0.72,1.21c-0.31,0.29-0.72,0.52-1.24,0.69c-0.52,0.17-1.17,0.25-1.96,0.25
		c-1.49,0-2.55-0.26-3.18-0.77s-0.94-1.16-0.94-1.95C86.64,23.64,86.65,23.55,86.65,23.44z M88.73,18.27c0,0.94,0.18,1.62,0.54,2.05
		c0.36,0.43,0.81,0.65,1.34,0.65c0.57,0,1.05-0.22,1.44-0.67s0.59-1.11,0.59-1.98c0-0.91-0.19-1.59-0.56-2.03
		c-0.38-0.44-0.85-0.66-1.43-0.66c-0.56,0-1.02,0.22-1.38,0.65C88.92,16.71,88.73,17.38,88.73,18.27z"/>
	<path d="M102.36,20.05l2.32,0.39c-0.3,0.85-0.77,1.5-1.42,1.95c-0.64,0.45-1.45,0.67-2.42,0.67c-1.53,0-2.67-0.5-3.4-1.5
		c-0.58-0.8-0.87-1.81-0.87-3.04c0-1.46,0.38-2.6,1.15-3.43c0.76-0.83,1.73-1.24,2.9-1.24c1.31,0,2.35,0.43,3.1,1.3
		s1.12,2.19,1.09,3.98h-5.84c0.02,0.69,0.21,1.23,0.56,1.61c0.36,0.38,0.81,0.58,1.35,0.58c0.37,0,0.67-0.1,0.92-0.3
		S102.23,20.5,102.36,20.05z M102.49,17.7c-0.02-0.68-0.19-1.19-0.52-1.54s-0.74-0.53-1.21-0.53c-0.51,0-0.93,0.19-1.26,0.56
		C99.16,16.55,99,17.06,99,17.7H102.49z"/>
	<path d="M106.71,22.86V10.69h2.33v12.17H106.71z"/>
	<path d="M116.14,22.86V10.69h3.68l2.21,8.3l2.18-8.3h3.69v12.17h-2.28v-9.58l-2.42,9.58h-2.37l-2.41-9.58v9.58H116.14z"/>
	<path d="M132.06,16.73l-2.12-0.38c0.24-0.85,0.65-1.48,1.23-1.89c0.58-0.41,1.45-0.61,2.59-0.61c1.04,0,1.82,0.12,2.32,0.37
		c0.51,0.25,0.87,0.56,1.08,0.94c0.21,0.38,0.31,1.07,0.31,2.09l-0.03,2.72c0,0.78,0.04,1.35,0.11,1.71
		c0.07,0.37,0.21,0.76,0.42,1.18h-2.31c-0.06-0.16-0.14-0.38-0.22-0.69c-0.04-0.14-0.07-0.23-0.08-0.27
		c-0.4,0.39-0.83,0.68-1.28,0.87c-0.45,0.19-0.94,0.29-1.45,0.29c-0.91,0-1.62-0.25-2.14-0.74c-0.52-0.49-0.79-1.12-0.79-1.87
		c0-0.5,0.12-0.94,0.36-1.33c0.24-0.39,0.57-0.69,1-0.9c0.43-0.21,1.05-0.39,1.86-0.54c1.09-0.21,1.85-0.4,2.27-0.57v-0.23
		c0-0.45-0.11-0.77-0.33-0.96c-0.22-0.19-0.64-0.29-1.25-0.29c-0.41,0-0.74,0.08-0.97,0.25S132.2,16.32,132.06,16.73z M135.18,18.62
		c-0.3,0.1-0.77,0.22-1.42,0.36c-0.65,0.14-1.07,0.27-1.27,0.41c-0.3,0.22-0.46,0.49-0.46,0.82c0,0.33,0.12,0.61,0.37,0.85
		c0.24,0.24,0.55,0.36,0.93,0.36c0.42,0,0.82-0.14,1.2-0.42c0.28-0.21,0.47-0.47,0.56-0.77c0.06-0.2,0.09-0.58,0.09-1.14V18.62z"/>
	<path d="M142,22.86h-2.33v-8.82h2.17v1.25c0.37-0.59,0.7-0.98,1-1.17c0.3-0.19,0.63-0.28,1.01-0.28c0.53,0,1.04,0.15,1.54,0.44
		l-0.72,2.03c-0.39-0.25-0.76-0.38-1.1-0.38c-0.33,0-0.6,0.09-0.83,0.27s-0.41,0.5-0.54,0.98c-0.13,0.47-0.2,1.46-0.2,2.96V22.86z"
		/>
	<path d="M150.43,14.04v1.86h-1.59v3.55c0,0.72,0.02,1.14,0.05,1.26c0.03,0.12,0.1,0.22,0.21,0.29c0.11,0.08,0.24,0.12,0.39,0.12
		c0.21,0,0.53-0.07,0.94-0.22l0.2,1.81c-0.54,0.23-1.16,0.35-1.84,0.35c-0.42,0-0.8-0.07-1.14-0.21c-0.34-0.14-0.58-0.32-0.74-0.55
		c-0.16-0.22-0.27-0.53-0.33-0.91c-0.05-0.27-0.07-0.82-0.07-1.64V15.9h-1.07v-1.86h1.07v-1.75l2.34-1.36v3.11H150.43z"/>
	<path d="M151.87,12.96l1.14-2.48h2.62l-2.28,2.48H151.87z M152.04,22.86v-8.82h2.33v8.82H152.04z"/>
	<path d="M164.79,22.86h-2.33v-4.5c0-0.95-0.05-1.57-0.15-1.85c-0.1-0.28-0.26-0.5-0.49-0.65c-0.22-0.15-0.49-0.23-0.81-0.23
		c-0.4,0-0.77,0.11-1.09,0.33c-0.32,0.22-0.54,0.51-0.66,0.88c-0.12,0.37-0.18,1.04-0.18,2.03v3.99h-2.33v-8.82h2.17v1.29
		c0.77-1,1.74-1.49,2.91-1.49c0.51,0,0.99,0.09,1.41,0.28c0.43,0.18,0.75,0.42,0.97,0.71c0.22,0.29,0.37,0.61,0.46,0.98
		s0.13,0.89,0.13,1.57V22.86z"/>
	<path d="M177.55,18.38v-2.05h5.3v4.85c-0.52,0.5-1.26,0.94-2.24,1.32c-0.98,0.38-1.97,0.57-2.97,0.57c-1.27,0-2.38-0.27-3.33-0.8
		c-0.95-0.53-1.66-1.3-2.13-2.29s-0.71-2.07-0.71-3.24c0-1.27,0.27-2.39,0.8-3.38c0.53-0.98,1.31-1.74,2.33-2.27
		c0.78-0.4,1.75-0.61,2.91-0.61c1.51,0,2.69,0.32,3.54,0.95c0.85,0.63,1.4,1.51,1.64,2.63l-2.44,0.46c-0.17-0.6-0.49-1.07-0.97-1.42
		c-0.47-0.35-1.06-0.52-1.77-0.52c-1.07,0-1.93,0.34-2.56,1.02c-0.63,0.68-0.95,1.69-0.95,3.03c0,1.44,0.32,2.53,0.96,3.25
		c0.64,0.72,1.48,1.08,2.52,1.08c0.52,0,1.03-0.1,1.55-0.3c0.52-0.2,0.96-0.45,1.33-0.74v-1.54H177.55z"/>
	<path d="M184.56,18.33c0-0.78,0.19-1.52,0.57-2.25c0.38-0.72,0.92-1.28,1.62-1.66c0.7-0.38,1.48-0.57,2.35-0.57
		c1.33,0,2.43,0.43,3.28,1.3c0.85,0.87,1.28,1.96,1.28,3.28c0,1.33-0.43,2.44-1.29,3.32c-0.86,0.88-1.94,1.32-3.25,1.32
		c-0.81,0-1.58-0.18-2.31-0.55c-0.73-0.37-1.29-0.9-1.67-1.61C184.75,20.2,184.56,19.34,184.56,18.33z M186.95,18.45
		c0,0.88,0.21,1.54,0.62,2.01s0.93,0.7,1.54,0.7c0.61,0,1.12-0.23,1.53-0.7c0.41-0.46,0.62-1.14,0.62-2.03
		c0-0.86-0.21-1.53-0.62-1.99c-0.41-0.46-0.92-0.7-1.53-0.7c-0.61,0-1.12,0.23-1.54,0.7S186.95,17.58,186.95,18.45z"/>
	<path d="M203.5,22.86h-2.33v-4.5c0-0.95-0.05-1.57-0.15-1.85c-0.1-0.28-0.26-0.5-0.49-0.65c-0.22-0.15-0.49-0.23-0.81-0.23
		c-0.4,0-0.77,0.11-1.09,0.33c-0.32,0.22-0.54,0.51-0.66,0.88c-0.12,0.37-0.18,1.04-0.18,2.03v3.99h-2.33v-8.82h2.17v1.29
		c0.77-1,1.74-1.49,2.91-1.49c0.51,0,0.99,0.09,1.41,0.28c0.43,0.18,0.75,0.42,0.97,0.71c0.22,0.29,0.37,0.61,0.46,0.98
		s0.13,0.89,0.13,1.57V22.86z"/>
	<path d="M204.93,22.86v-1.82l3.3-3.79c0.54-0.62,0.94-1.06,1.2-1.32c-0.27,0.02-0.63,0.03-1.07,0.03l-3.11,0.02v-1.93h7.29v1.65
		l-3.37,3.88l-1.19,1.29c0.65-0.04,1.05-0.06,1.2-0.06h3.61v2.05H204.93z"/>
	<path d="M216.11,16.73l-2.12-0.38c0.24-0.85,0.65-1.48,1.23-1.89c0.58-0.41,1.44-0.61,2.59-0.61c1.04,0,1.81,0.12,2.32,0.37
		c0.51,0.25,0.87,0.56,1.07,0.94c0.21,0.38,0.31,1.07,0.31,2.09l-0.02,2.72c0,0.78,0.04,1.35,0.11,1.71
		c0.07,0.37,0.21,0.76,0.42,1.18h-2.31c-0.06-0.16-0.13-0.38-0.22-0.69c-0.04-0.14-0.07-0.23-0.08-0.27
		c-0.4,0.39-0.82,0.68-1.28,0.87c-0.45,0.19-0.94,0.29-1.45,0.29c-0.91,0-1.62-0.25-2.15-0.74c-0.52-0.49-0.78-1.12-0.78-1.87
		c0-0.5,0.12-0.94,0.36-1.33c0.24-0.39,0.57-0.69,1-0.9c0.43-0.21,1.05-0.39,1.86-0.54c1.09-0.21,1.85-0.4,2.27-0.57v-0.23
		c0-0.45-0.11-0.77-0.33-0.96c-0.22-0.19-0.64-0.29-1.25-0.29c-0.42,0-0.74,0.08-0.97,0.25S216.25,16.32,216.11,16.73z
		 M219.23,18.62c-0.3,0.1-0.77,0.22-1.42,0.36c-0.65,0.14-1.07,0.27-1.27,0.41c-0.3,0.22-0.46,0.49-0.46,0.82
		c0,0.33,0.12,0.61,0.37,0.85c0.24,0.24,0.55,0.36,0.93,0.36c0.42,0,0.82-0.14,1.2-0.42c0.28-0.21,0.47-0.47,0.56-0.77
		c0.06-0.2,0.09-0.58,0.09-1.14V18.62z M216.71,12.96l1.15-2.48h2.62l-2.28,2.48H216.71z"/>
	<path d="M223.82,22.86V10.69h2.33v12.17H223.82z"/>
	<path d="M233.65,20.05l2.32,0.39c-0.3,0.85-0.77,1.5-1.42,1.95c-0.64,0.45-1.45,0.67-2.42,0.67c-1.53,0-2.67-0.5-3.4-1.5
		c-0.58-0.8-0.87-1.81-0.87-3.04c0-1.46,0.38-2.6,1.15-3.43c0.76-0.83,1.73-1.24,2.9-1.24c1.31,0,2.35,0.43,3.11,1.3
		c0.76,0.87,1.12,2.19,1.09,3.98h-5.84c0.02,0.69,0.2,1.23,0.56,1.61s0.81,0.58,1.34,0.58c0.37,0,0.67-0.1,0.92-0.3
		C233.33,20.82,233.52,20.5,233.65,20.05z M233.78,17.7c-0.02-0.68-0.19-1.19-0.52-1.54s-0.74-0.53-1.21-0.53
		c-0.51,0-0.93,0.19-1.26,0.56c-0.33,0.37-0.5,0.87-0.49,1.51H233.78z"/>
	<path d="M237.06,22.86v-1.82l3.3-3.79c0.54-0.62,0.94-1.06,1.2-1.32c-0.27,0.02-0.63,0.03-1.07,0.03l-3.11,0.02v-1.93h7.29v1.65
		l-3.37,3.88l-1.19,1.29c0.65-0.04,1.05-0.06,1.2-0.06h3.61v2.05H237.06z"/>
</g>
<g>
	<path d="M1.52,44.73l3.85-10.02H6.8l4.1,10.02H9.39L8.22,41.7H4.03l-1.1,3.04H1.52z M4.41,40.62h3.4l-1.05-2.78
		C6.45,37,6.21,36.31,6.05,35.77c-0.13,0.64-0.31,1.28-0.54,1.91L4.41,40.62z"/>
	<path d="M16.56,44.73v-1.07c-0.57,0.82-1.33,1.23-2.3,1.23c-0.43,0-0.83-0.08-1.2-0.25c-0.37-0.16-0.65-0.37-0.83-0.62
		c-0.18-0.25-0.31-0.55-0.38-0.91c-0.05-0.24-0.08-0.62-0.08-1.15v-4.5h1.23v4.03c0,0.64,0.02,1.08,0.08,1.3
		c0.08,0.32,0.24,0.58,0.49,0.76c0.25,0.18,0.56,0.28,0.93,0.28s0.71-0.09,1.04-0.28c0.32-0.19,0.55-0.45,0.69-0.77
		c0.13-0.33,0.2-0.8,0.2-1.42v-3.89h1.23v7.26H16.56z"/>
	<path d="M18.77,44.73l2.65-3.77l-2.45-3.49h1.54l1.11,1.7c0.21,0.32,0.38,0.59,0.51,0.81c0.2-0.3,0.38-0.57,0.55-0.8l1.22-1.72
		h1.47l-2.51,3.42l2.7,3.84h-1.51l-1.49-2.26l-0.4-0.61l-1.91,2.86H18.77z"/>
	<path d="M26.6,36.13v-1.42h1.23v1.42H26.6z M26.6,44.73v-7.26h1.23v7.26H26.6z"/>
	<path d="M29.67,44.73V34.71h1.23v10.02H29.67z"/>
	<path d="M32.82,36.13v-1.42h1.23v1.42H32.82z M32.82,44.73v-7.26h1.23v7.26H32.82z"/>
	<path d="M40.66,43.84c-0.46,0.39-0.89,0.66-1.32,0.82c-0.42,0.16-0.87,0.24-1.36,0.24c-0.8,0-1.41-0.2-1.84-0.58
		c-0.43-0.39-0.64-0.89-0.64-1.49c0-0.36,0.08-0.68,0.24-0.97c0.16-0.29,0.37-0.53,0.64-0.71c0.26-0.18,0.56-0.31,0.89-0.4
		c0.24-0.06,0.61-0.13,1.09-0.18c0.99-0.12,1.72-0.26,2.19-0.42c0-0.17,0.01-0.28,0.01-0.32c0-0.5-0.12-0.85-0.35-1.06
		c-0.31-0.28-0.78-0.42-1.4-0.42c-0.58,0-1.01,0.1-1.28,0.3c-0.28,0.2-0.48,0.56-0.61,1.08l-1.2-0.16c0.11-0.52,0.29-0.93,0.54-1.25
		c0.25-0.32,0.61-0.56,1.09-0.73c0.47-0.17,1.02-0.26,1.65-0.26c0.62,0,1.12,0.07,1.51,0.22c0.39,0.15,0.67,0.33,0.85,0.55
		c0.18,0.22,0.31,0.5,0.38,0.84c0.04,0.21,0.06,0.59,0.06,1.13v1.64c0,1.14,0.03,1.87,0.08,2.17c0.05,0.3,0.16,0.59,0.31,0.87H40.9
		C40.78,44.48,40.69,44.18,40.66,43.84z M40.55,41.09c-0.45,0.18-1.12,0.34-2.01,0.46c-0.51,0.07-0.86,0.15-1.07,0.25
		c-0.21,0.09-0.37,0.22-0.49,0.4c-0.11,0.18-0.17,0.37-0.17,0.58c0,0.33,0.12,0.6,0.37,0.82c0.25,0.22,0.61,0.33,1.09,0.33
		c0.47,0,0.9-0.1,1.26-0.31c0.37-0.21,0.64-0.49,0.81-0.85c0.13-0.28,0.2-0.69,0.2-1.23V41.09z"/>
	<path d="M43.69,44.73v-7.26h1.11v1.1c0.28-0.52,0.54-0.85,0.78-1.02s0.5-0.25,0.79-0.25c0.41,0,0.84,0.13,1.26,0.4l-0.42,1.14
		c-0.3-0.18-0.6-0.27-0.9-0.27c-0.27,0-0.51,0.08-0.72,0.24c-0.21,0.16-0.37,0.39-0.46,0.67c-0.14,0.44-0.21,0.92-0.21,1.44v3.8
		H43.69z"/>
	<path d="M56.97,44.73v-0.92c-0.46,0.72-1.14,1.08-2.03,1.08c-0.58,0-1.11-0.16-1.6-0.48c-0.49-0.32-0.86-0.76-1.13-1.34
		c-0.27-0.57-0.4-1.23-0.4-1.97c0-0.72,0.12-1.38,0.36-1.97c0.24-0.59,0.6-1.04,1.09-1.36c0.48-0.31,1.02-0.47,1.62-0.47
		c0.44,0,0.83,0.09,1.17,0.28s0.62,0.42,0.83,0.72v-3.6h1.22v10.02H56.97z M53.08,41.11c0,0.93,0.2,1.62,0.59,2.08
		c0.39,0.46,0.85,0.69,1.39,0.69c0.54,0,0.99-0.22,1.37-0.66c0.38-0.44,0.56-1.11,0.56-2.01c0-0.99-0.19-1.72-0.57-2.19
		s-0.85-0.7-1.42-0.7c-0.55,0-1,0.22-1.37,0.67C53.26,39.45,53.08,40.15,53.08,41.11z"/>
	<path d="M65.01,42.4l1.27,0.16c-0.2,0.74-0.57,1.32-1.11,1.73c-0.54,0.41-1.24,0.62-2.08,0.62c-1.06,0-1.9-0.33-2.53-0.98
		c-0.62-0.65-0.93-1.57-0.93-2.75c0-1.22,0.31-2.17,0.94-2.84c0.63-0.67,1.44-1.01,2.45-1.01c0.97,0,1.76,0.33,2.38,0.99
		c0.62,0.66,0.92,1.59,0.92,2.79c0,0.07,0,0.18-0.01,0.33h-5.41c0.04,0.8,0.27,1.41,0.68,1.83c0.41,0.42,0.91,0.64,1.52,0.64
		c0.45,0,0.84-0.12,1.16-0.36C64.57,43.29,64.83,42.92,65.01,42.4z M60.97,40.41h4.05c-0.05-0.61-0.21-1.07-0.46-1.37
		c-0.39-0.47-0.9-0.71-1.52-0.71c-0.57,0-1.04,0.19-1.43,0.57C61.23,39.27,61.01,39.77,60.97,40.41z"/>
	<path d="M70,44.73l3.85-10.02h1.43l4.1,10.02h-1.51L76.7,41.7h-4.19l-1.1,3.04H70z M72.9,40.62h3.4l-1.05-2.78
		c-0.32-0.84-0.56-1.54-0.71-2.08c-0.13,0.64-0.31,1.28-0.54,1.91L72.9,40.62z"/>
	<path d="M80.26,44.73V34.71h1.23v10.02H80.26z"/>
	<path d="M83.4,44.73v-7.26h1.1v1.02c0.23-0.36,0.53-0.64,0.91-0.86c0.38-0.22,0.81-0.32,1.29-0.32c0.54,0,0.98,0.11,1.32,0.33
		c0.34,0.22,0.59,0.54,0.73,0.94c0.57-0.85,1.32-1.27,2.24-1.27c0.72,0,1.27,0.2,1.66,0.6c0.39,0.4,0.58,1.01,0.58,1.84v4.98h-1.22
		v-4.57c0-0.49-0.04-0.85-0.12-1.06c-0.08-0.22-0.22-0.39-0.43-0.52c-0.21-0.13-0.46-0.2-0.74-0.2c-0.51,0-0.93,0.17-1.27,0.51
		c-0.34,0.34-0.51,0.88-0.51,1.63v4.22h-1.23v-4.72c0-0.55-0.1-0.96-0.3-1.23c-0.2-0.27-0.53-0.41-0.98-0.41
		c-0.35,0-0.67,0.09-0.96,0.27c-0.29,0.18-0.51,0.45-0.64,0.8c-0.13,0.35-0.2,0.86-0.2,1.52v3.77H83.4z"/>
	<path d="M99.79,43.84c-0.46,0.39-0.89,0.66-1.32,0.82c-0.42,0.16-0.87,0.24-1.36,0.24c-0.8,0-1.41-0.2-1.84-0.58
		c-0.43-0.39-0.64-0.89-0.64-1.49c0-0.36,0.08-0.68,0.24-0.97c0.16-0.29,0.37-0.53,0.64-0.71c0.26-0.18,0.56-0.31,0.89-0.4
		c0.24-0.06,0.61-0.13,1.09-0.18c0.99-0.12,1.72-0.26,2.19-0.42c0-0.17,0.01-0.28,0.01-0.32c0-0.5-0.12-0.85-0.35-1.06
		c-0.31-0.28-0.78-0.42-1.4-0.42c-0.58,0-1.01,0.1-1.28,0.3c-0.28,0.2-0.48,0.56-0.61,1.08l-1.2-0.16c0.11-0.52,0.29-0.93,0.54-1.25
		c0.25-0.32,0.61-0.56,1.09-0.73c0.47-0.17,1.02-0.26,1.65-0.26c0.62,0,1.12,0.07,1.51,0.22c0.39,0.15,0.67,0.33,0.85,0.55
		c0.18,0.22,0.31,0.5,0.38,0.84c0.04,0.21,0.06,0.59,0.06,1.13v1.64c0,1.14,0.03,1.87,0.08,2.17c0.05,0.3,0.16,0.59,0.31,0.87h-1.29
		C99.91,44.48,99.83,44.18,99.79,43.84z M99.69,41.09c-0.45,0.18-1.12,0.34-2.01,0.46c-0.51,0.07-0.86,0.15-1.07,0.25
		c-0.21,0.09-0.37,0.22-0.49,0.4c-0.11,0.18-0.17,0.37-0.17,0.58c0,0.33,0.12,0.6,0.37,0.82c0.25,0.22,0.61,0.33,1.09,0.33
		c0.47,0,0.9-0.1,1.26-0.31c0.37-0.21,0.64-0.49,0.81-0.85c0.13-0.28,0.2-0.69,0.2-1.23V41.09z"/>
	<path d="M107.58,42.08l1.21,0.16c-0.13,0.83-0.47,1.49-1.02,1.96c-0.54,0.47-1.21,0.71-2.01,0.71c-0.99,0-1.79-0.33-2.4-0.97
		c-0.6-0.65-0.91-1.58-0.91-2.79c0-0.78,0.13-1.47,0.39-2.06s0.66-1.03,1.19-1.32c0.53-0.29,1.11-0.44,1.73-0.44
		c0.79,0,1.43,0.2,1.93,0.6c0.5,0.4,0.82,0.96,0.96,1.7l-1.2,0.18c-0.11-0.49-0.32-0.85-0.61-1.1c-0.29-0.25-0.64-0.37-1.05-0.37
		c-0.62,0-1.12,0.22-1.51,0.67c-0.39,0.44-0.58,1.15-0.58,2.11c0,0.97,0.19,1.68,0.56,2.13c0.37,0.44,0.86,0.66,1.46,0.66
		c0.48,0,0.89-0.15,1.21-0.44C107.29,43.15,107.49,42.69,107.58,42.08z"/>
	<path d="M114.81,42.4l1.27,0.16c-0.2,0.74-0.57,1.32-1.11,1.73c-0.54,0.41-1.24,0.62-2.08,0.62c-1.06,0-1.9-0.33-2.53-0.98
		c-0.62-0.65-0.93-1.57-0.93-2.75c0-1.22,0.31-2.17,0.94-2.84c0.63-0.67,1.44-1.01,2.45-1.01c0.97,0,1.76,0.33,2.38,0.99
		c0.62,0.66,0.92,1.59,0.92,2.79c0,0.07,0,0.18-0.01,0.33h-5.41c0.04,0.8,0.27,1.41,0.68,1.83c0.41,0.42,0.91,0.64,1.52,0.64
		c0.45,0,0.84-0.12,1.16-0.36C114.37,43.29,114.63,42.92,114.81,42.4z M110.77,40.41h4.05c-0.05-0.61-0.21-1.07-0.46-1.37
		c-0.39-0.47-0.9-0.71-1.52-0.71c-0.57,0-1.04,0.19-1.43,0.57C111.03,39.27,110.81,39.77,110.77,40.41z M112.1,36.57l0.91-1.91h1.61
		l-1.5,1.91H112.1z"/>
	<path d="M117.63,44.73v-7.26h1.11v1.03c0.53-0.8,1.3-1.2,2.31-1.2c0.44,0,0.84,0.08,1.21,0.24c0.37,0.16,0.64,0.36,0.82,0.62
		c0.18,0.25,0.31,0.56,0.38,0.91c0.04,0.23,0.07,0.63,0.07,1.2v4.46h-1.23v-4.42c0-0.5-0.05-0.88-0.14-1.12
		c-0.1-0.25-0.27-0.45-0.51-0.59c-0.24-0.15-0.53-0.22-0.86-0.22c-0.52,0-0.98,0.17-1.36,0.5c-0.38,0.33-0.57,0.96-0.57,1.89v3.96
		H117.63z"/>
</g>
<g>
	<path d="M1.4,66.51l3.85-10.02h1.43l4.1,10.02H9.27L8.1,63.47H3.91l-1.1,3.04H1.4z M4.29,62.39h3.4l-1.05-2.78
		c-0.32-0.84-0.56-1.54-0.71-2.08c-0.13,0.64-0.31,1.28-0.54,1.91L4.29,62.39z"/>
	<path d="M11.65,66.51V56.49h1.23v10.02H11.65z"/>
	<path d="M14.79,66.51v-7.26h1.1v1.02c0.23-0.36,0.53-0.64,0.91-0.86c0.38-0.22,0.81-0.32,1.29-0.32c0.54,0,0.98,0.11,1.32,0.33
		c0.34,0.22,0.59,0.54,0.73,0.94c0.57-0.85,1.32-1.27,2.24-1.27c0.72,0,1.27,0.2,1.66,0.6c0.39,0.4,0.58,1.01,0.58,1.84v4.98H23.4
		v-4.57c0-0.49-0.04-0.85-0.12-1.06c-0.08-0.22-0.22-0.39-0.43-0.52c-0.21-0.13-0.46-0.2-0.74-0.2c-0.51,0-0.93,0.17-1.27,0.51
		c-0.34,0.34-0.51,0.88-0.51,1.63v4.22h-1.23v-4.72c0-0.55-0.1-0.96-0.3-1.23c-0.2-0.27-0.53-0.41-0.98-0.41
		c-0.35,0-0.67,0.09-0.96,0.27c-0.29,0.18-0.51,0.45-0.64,0.8c-0.13,0.35-0.2,0.86-0.2,1.52v3.77H14.79z"/>
	<path d="M31.19,65.61c-0.46,0.39-0.89,0.66-1.32,0.82c-0.42,0.16-0.87,0.24-1.36,0.24c-0.8,0-1.41-0.2-1.84-0.58
		c-0.43-0.39-0.64-0.89-0.64-1.49c0-0.36,0.08-0.68,0.24-0.97s0.37-0.53,0.64-0.71s0.56-0.31,0.89-0.4
		c0.24-0.06,0.61-0.13,1.09-0.18c0.99-0.12,1.72-0.26,2.19-0.42c0-0.17,0.01-0.28,0.01-0.32c0-0.5-0.12-0.85-0.35-1.06
		c-0.31-0.28-0.78-0.42-1.4-0.42c-0.58,0-1.01,0.1-1.28,0.3c-0.28,0.2-0.48,0.56-0.61,1.08l-1.2-0.16c0.11-0.52,0.29-0.93,0.54-1.25
		c0.25-0.32,0.61-0.56,1.09-0.73c0.47-0.17,1.02-0.26,1.65-0.26c0.62,0,1.12,0.07,1.51,0.22c0.39,0.15,0.67,0.33,0.86,0.55
		c0.18,0.22,0.31,0.5,0.38,0.84c0.04,0.21,0.06,0.59,0.06,1.13v1.64c0,1.14,0.03,1.87,0.08,2.17c0.05,0.3,0.16,0.59,0.31,0.87h-1.29
		C31.31,66.25,31.23,65.95,31.19,65.61z M31.09,62.86c-0.45,0.18-1.12,0.34-2.01,0.46c-0.51,0.07-0.86,0.15-1.07,0.25
		c-0.21,0.09-0.37,0.22-0.49,0.4c-0.11,0.18-0.17,0.37-0.17,0.58c0,0.33,0.12,0.6,0.37,0.82s0.61,0.33,1.09,0.33
		c0.47,0,0.89-0.1,1.26-0.31c0.37-0.21,0.64-0.49,0.81-0.85c0.13-0.28,0.2-0.69,0.2-1.23V62.86z"/>
	<path d="M38.98,63.85l1.21,0.16c-0.13,0.83-0.47,1.49-1.02,1.96s-1.21,0.71-2.01,0.71c-0.99,0-1.79-0.33-2.4-0.97
		s-0.91-1.58-0.91-2.79c0-0.78,0.13-1.47,0.39-2.06s0.65-1.03,1.19-1.32s1.11-0.44,1.73-0.44c0.79,0,1.43,0.2,1.94,0.6
		c0.5,0.4,0.82,0.96,0.96,1.7l-1.2,0.18c-0.11-0.49-0.32-0.85-0.61-1.1s-0.64-0.37-1.05-0.37c-0.62,0-1.12,0.22-1.51,0.67
		c-0.39,0.44-0.58,1.15-0.58,2.11c0,0.97,0.19,1.68,0.56,2.13c0.37,0.44,0.86,0.66,1.46,0.66c0.48,0,0.89-0.15,1.21-0.44
		C38.69,64.92,38.89,64.46,38.98,63.85z"/>
	<path d="M46.21,64.17l1.27,0.16c-0.2,0.74-0.57,1.32-1.11,1.73c-0.54,0.41-1.24,0.62-2.08,0.62c-1.06,0-1.9-0.33-2.53-0.98
		c-0.62-0.65-0.93-1.57-0.93-2.75c0-1.22,0.31-2.17,0.94-2.84c0.63-0.67,1.44-1.01,2.45-1.01c0.97,0,1.76,0.33,2.38,0.99
		c0.62,0.66,0.92,1.59,0.92,2.79c0,0.07,0,0.18-0.01,0.33H42.1c0.04,0.8,0.27,1.41,0.68,1.83c0.41,0.42,0.91,0.64,1.52,0.64
		c0.45,0,0.84-0.12,1.16-0.36C45.77,65.07,46.02,64.69,46.21,64.17z M42.17,62.18h4.05c-0.05-0.61-0.21-1.07-0.46-1.37
		c-0.39-0.47-0.9-0.71-1.52-0.71c-0.57,0-1.04,0.19-1.43,0.57C42.42,61.04,42.21,61.55,42.17,62.18z M43.5,58.35l0.91-1.91h1.61
		l-1.5,1.91H43.5z"/>
	<path d="M49.03,66.51v-7.26h1.11v1.03c0.53-0.8,1.3-1.2,2.31-1.2c0.44,0,0.84,0.08,1.21,0.24s0.64,0.36,0.82,0.62
		c0.18,0.25,0.31,0.56,0.38,0.91c0.04,0.23,0.07,0.63,0.07,1.2v4.46H53.7v-4.42c0-0.5-0.05-0.88-0.14-1.12
		c-0.1-0.25-0.27-0.45-0.51-0.59c-0.24-0.15-0.53-0.22-0.86-0.22c-0.52,0-0.98,0.17-1.36,0.5c-0.38,0.33-0.57,0.96-0.57,1.89v3.96
		H49.03z"/>
	<path d="M61.06,69.45V56.32h1.07v13.14H61.06z"/>
	<path d="M73.07,62.58V61.4l4.25-0.01v3.72c-0.65,0.52-1.32,0.91-2.02,1.17c-0.69,0.26-1.4,0.39-2.13,0.39
		c-0.98,0-1.88-0.21-2.68-0.63c-0.8-0.42-1.41-1.03-1.82-1.83c-0.41-0.8-0.62-1.69-0.62-2.67c0-0.98,0.2-1.89,0.61-2.73
		c0.41-0.84,0.99-1.47,1.76-1.88s1.65-0.62,2.65-0.62c0.72,0,1.38,0.12,1.96,0.35c0.59,0.24,1.04,0.56,1.38,0.98
		c0.33,0.42,0.59,0.97,0.76,1.64l-1.2,0.33c-0.15-0.51-0.34-0.91-0.56-1.2c-0.22-0.29-0.54-0.53-0.96-0.7
		c-0.41-0.17-0.88-0.26-1.38-0.26c-0.61,0-1.13,0.09-1.57,0.28c-0.44,0.18-0.8,0.43-1.07,0.73s-0.48,0.63-0.63,0.99
		c-0.26,0.62-0.38,1.29-0.38,2.02c0,0.89,0.15,1.64,0.46,2.24s0.76,1.05,1.34,1.34c0.59,0.29,1.21,0.44,1.87,0.44
		c0.57,0,1.13-0.11,1.68-0.33c0.55-0.22,0.96-0.46,1.24-0.71v-1.87H73.07z"/>
	<path d="M78.17,66.51l3.85-10.02h1.43l4.1,10.02h-1.51l-1.17-3.04h-4.19l-1.1,3.04H78.17z M81.07,62.39h3.4l-1.04-2.78
		c-0.32-0.84-0.56-1.54-0.71-2.08c-0.13,0.64-0.31,1.28-0.54,1.91L81.07,62.39z"/>
	<path d="M88.56,66.51V56.49h3.76c0.77,0,1.38,0.1,1.84,0.3c0.46,0.2,0.82,0.52,1.09,0.94c0.26,0.42,0.39,0.86,0.39,1.32
		c0,0.43-0.12,0.83-0.35,1.21c-0.23,0.38-0.58,0.68-1.05,0.92c0.61,0.18,1.07,0.48,1.4,0.91c0.33,0.43,0.49,0.93,0.49,1.52
		c0,0.47-0.1,0.91-0.3,1.31s-0.44,0.71-0.73,0.93c-0.29,0.22-0.66,0.38-1.1,0.5c-0.44,0.11-0.98,0.17-1.62,0.17H88.56z M89.88,60.7
		h2.17c0.59,0,1.01-0.04,1.27-0.12c0.34-0.1,0.59-0.27,0.76-0.5s0.26-0.52,0.26-0.88c0-0.33-0.08-0.63-0.24-0.88
		c-0.16-0.25-0.39-0.43-0.68-0.52c-0.3-0.09-0.8-0.14-1.53-0.14h-2V60.7z M89.88,65.33h2.49c0.43,0,0.73-0.02,0.9-0.05
		c0.31-0.05,0.56-0.15,0.77-0.27c0.21-0.13,0.37-0.31,0.51-0.56c0.13-0.24,0.2-0.53,0.2-0.84c0-0.37-0.1-0.7-0.29-0.97
		c-0.19-0.28-0.46-0.47-0.8-0.58c-0.34-0.11-0.83-0.17-1.47-0.17h-2.32V65.33z"/>
	<path d="M96.85,66.51l3.85-10.02h1.43l4.1,10.02h-1.51l-1.17-3.04h-4.19l-1.1,3.04H96.85z M99.74,62.39h3.4l-1.04-2.78
		c-0.32-0.84-0.56-1.54-0.71-2.08c-0.13,0.64-0.31,1.28-0.54,1.91L99.74,62.39z"/>
	<path d="M107.31,66.51V56.49h4.44c0.89,0,1.57,0.09,2.04,0.27c0.46,0.18,0.84,0.5,1.12,0.95c0.28,0.46,0.42,0.96,0.42,1.51
		c0,0.71-0.23,1.31-0.69,1.8c-0.46,0.49-1.17,0.8-2.13,0.93c0.35,0.17,0.62,0.33,0.8,0.5c0.39,0.36,0.75,0.8,1.1,1.33l1.74,2.73
		h-1.67l-1.33-2.08c-0.39-0.6-0.71-1.06-0.96-1.38c-0.25-0.32-0.47-0.54-0.67-0.67c-0.2-0.13-0.4-0.22-0.6-0.27
		c-0.15-0.03-0.4-0.05-0.74-0.05h-1.54v4.45H107.31z M108.63,60.91h2.85c0.61,0,1.08-0.06,1.42-0.19c0.34-0.12,0.6-0.33,0.78-0.6
		c0.18-0.28,0.27-0.58,0.27-0.9c0-0.47-0.17-0.86-0.52-1.17c-0.34-0.31-0.89-0.46-1.63-0.46h-3.17V60.91z"/>
</g>
</svg>
