<?xml version="1.0" encoding="utf-8"?>
<!-- Generator: Adobe Illustrator 25.4.1, SVG Export Plug-In . SVG Version: 6.00 Build 0)  -->
<svg version="1.1" id="Capa_1" xmlns="http://www.w3.org/2000/svg" xmlns:xlink="http://www.w3.org/1999/xlink" x="0px" y="0px"
	 viewBox="0 0 184 7" style="enable-background:new 0 0 184 7;" xml:space="preserve">
<style type="text/css">
	.st0{fill:#3F3E3E;}
</style>
<g>
	<path class="st0" d="M2.85,4.19l0.6,0.08C3.39,4.69,3.22,5.01,2.95,5.25c-0.27,0.24-0.61,0.35-1,0.35c-0.5,0-0.9-0.16-1.2-0.49
		c-0.3-0.32-0.45-0.79-0.45-1.4c0-0.39,0.06-0.74,0.19-1.03s0.33-0.51,0.59-0.66c0.27-0.15,0.55-0.22,0.87-0.22
		c0.39,0,0.72,0.1,0.97,0.3S3.33,2.59,3.4,2.96L2.8,3.05C2.74,2.8,2.64,2.62,2.5,2.5C2.35,2.38,2.18,2.31,1.97,2.31
		c-0.31,0-0.56,0.11-0.76,0.33C1.02,2.87,0.93,3.22,0.93,3.7c0,0.49,0.09,0.84,0.28,1.06C1.39,4.99,1.64,5.1,1.94,5.1
		c0.24,0,0.44-0.07,0.6-0.22C2.71,4.73,2.81,4.5,2.85,4.19z"/>
	<path class="st0" d="M4.16,5.52v-0.7h0.7v0.7H4.16z"/>
	<path class="st0" d="M8.41,4.35l0.64,0.08C8.95,4.8,8.76,5.09,8.49,5.29C8.22,5.5,7.87,5.6,7.45,5.6c-0.53,0-0.95-0.16-1.26-0.49
		C5.88,4.78,5.72,4.33,5.72,3.74c0-0.61,0.16-1.08,0.47-1.42s0.72-0.51,1.22-0.51c0.48,0,0.88,0.17,1.19,0.5
		C8.91,2.63,9.07,3.1,9.07,3.7c0,0.04,0,0.09,0,0.16H6.36c0.02,0.4,0.14,0.71,0.34,0.92C6.9,4.99,7.15,5.1,7.46,5.1
		c0.23,0,0.42-0.06,0.58-0.18C8.19,4.8,8.32,4.61,8.41,4.35z M6.39,3.36h2.03c-0.03-0.3-0.1-0.53-0.23-0.69
		c-0.2-0.24-0.45-0.36-0.76-0.36c-0.28,0-0.52,0.09-0.71,0.28C6.52,2.79,6.41,3.04,6.39,3.36z"/>
	<path class="st0" d="M9.57,4.44l0.61-0.1c0.03,0.24,0.13,0.43,0.29,0.56c0.16,0.13,0.37,0.2,0.65,0.2c0.28,0,0.49-0.06,0.63-0.17
		s0.21-0.25,0.21-0.41c0-0.14-0.06-0.25-0.18-0.33c-0.08-0.05-0.29-0.12-0.63-0.21c-0.45-0.11-0.76-0.21-0.94-0.3
		c-0.18-0.08-0.31-0.2-0.4-0.34C9.72,3.19,9.68,3.03,9.68,2.85c0-0.16,0.04-0.31,0.11-0.45c0.07-0.14,0.18-0.25,0.3-0.34
		c0.1-0.07,0.23-0.13,0.39-0.18c0.16-0.05,0.34-0.07,0.53-0.07c0.28,0,0.54,0.04,0.75,0.12s0.37,0.19,0.48,0.33
		c0.1,0.14,0.17,0.33,0.21,0.56l-0.6,0.08c-0.03-0.19-0.11-0.33-0.24-0.44s-0.32-0.16-0.56-0.16c-0.28,0-0.48,0.05-0.6,0.14
		c-0.12,0.09-0.18,0.2-0.18,0.33c0,0.08,0.03,0.15,0.08,0.22c0.05,0.07,0.13,0.12,0.24,0.16c0.06,0.02,0.24,0.08,0.54,0.16
		c0.43,0.12,0.74,0.21,0.91,0.29s0.31,0.18,0.4,0.32c0.1,0.14,0.15,0.32,0.15,0.53c0,0.21-0.06,0.4-0.18,0.58
		c-0.12,0.18-0.29,0.32-0.52,0.42c-0.23,0.1-0.48,0.15-0.77,0.15c-0.47,0-0.83-0.1-1.08-0.29C9.8,5.11,9.64,4.82,9.57,4.44z"/>
	<path class="st0" d="M15.69,4.19l0.6,0.08c-0.07,0.42-0.24,0.74-0.51,0.98c-0.27,0.24-0.61,0.35-1,0.35c-0.5,0-0.9-0.16-1.2-0.49
		c-0.3-0.32-0.45-0.79-0.45-1.4c0-0.39,0.06-0.74,0.19-1.03s0.33-0.51,0.59-0.66c0.27-0.15,0.55-0.22,0.87-0.22
		c0.39,0,0.72,0.1,0.97,0.3s0.41,0.48,0.48,0.85l-0.6,0.09c-0.06-0.24-0.16-0.43-0.3-0.55c-0.15-0.12-0.32-0.18-0.53-0.18
		c-0.31,0-0.56,0.11-0.76,0.33c-0.19,0.22-0.29,0.57-0.29,1.05c0,0.49,0.09,0.84,0.28,1.06c0.19,0.22,0.43,0.33,0.73,0.33
		c0.24,0,0.44-0.07,0.6-0.22C15.54,4.73,15.65,4.5,15.69,4.19z"/>
	<path class="st0" d="M16.59,3.71c0-0.67,0.19-1.17,0.56-1.49c0.31-0.27,0.69-0.4,1.14-0.4c0.5,0,0.91,0.16,1.22,0.49
		c0.32,0.33,0.47,0.78,0.47,1.36c0,0.47-0.07,0.83-0.21,1.1c-0.14,0.27-0.34,0.48-0.61,0.62C18.9,5.53,18.61,5.6,18.29,5.6
		c-0.51,0-0.92-0.16-1.23-0.49C16.75,4.79,16.59,4.32,16.59,3.71z M17.22,3.71c0,0.46,0.1,0.81,0.3,1.04
		c0.2,0.23,0.46,0.35,0.77,0.35c0.31,0,0.56-0.12,0.76-0.35s0.3-0.59,0.3-1.06c0-0.45-0.1-0.79-0.3-1.02
		c-0.21-0.23-0.46-0.35-0.76-0.35c-0.31,0-0.56,0.12-0.77,0.35C17.33,2.89,17.22,3.24,17.22,3.71z"/>
	<path class="st0" d="M21.28,5.52h-0.57V0.51h0.62V2.3c0.26-0.33,0.59-0.49,1-0.49c0.22,0,0.43,0.04,0.63,0.13
		c0.2,0.09,0.36,0.22,0.49,0.38c0.13,0.16,0.23,0.36,0.3,0.59c0.07,0.23,0.11,0.48,0.11,0.74c0,0.62-0.15,1.1-0.46,1.44
		c-0.31,0.34-0.68,0.51-1.11,0.51c-0.43,0-0.76-0.18-1.01-0.54V5.52z M21.27,3.68c0,0.43,0.06,0.75,0.18,0.94
		c0.19,0.32,0.46,0.47,0.79,0.47c0.27,0,0.5-0.12,0.7-0.35c0.2-0.23,0.29-0.58,0.29-1.04c0-0.47-0.09-0.82-0.28-1.05
		c-0.19-0.23-0.42-0.34-0.68-0.34c-0.27,0-0.5,0.12-0.7,0.35C21.37,2.9,21.27,3.24,21.27,3.68z"/>
	<path class="st0" d="M27.09,4.35l0.63,0.08c-0.1,0.37-0.29,0.66-0.56,0.86S26.55,5.6,26.13,5.6c-0.53,0-0.95-0.16-1.26-0.49
		c-0.31-0.33-0.47-0.79-0.47-1.38c0-0.61,0.16-1.08,0.47-1.42s0.72-0.51,1.22-0.51c0.49,0,0.88,0.17,1.19,0.5
		c0.31,0.33,0.46,0.8,0.46,1.39c0,0.04,0,0.09,0,0.16h-2.71c0.02,0.4,0.14,0.71,0.34,0.92c0.2,0.21,0.46,0.32,0.76,0.32
		c0.22,0,0.42-0.06,0.58-0.18S27,4.61,27.09,4.35z M25.07,3.36h2.03c-0.03-0.3-0.1-0.53-0.23-0.69c-0.2-0.24-0.45-0.36-0.76-0.36
		c-0.28,0-0.52,0.09-0.71,0.28C25.2,2.79,25.09,3.04,25.07,3.36z"/>
	<path class="st0" d="M30.85,5.52V5.06c-0.23,0.36-0.57,0.54-1.01,0.54c-0.29,0-0.56-0.08-0.8-0.24c-0.24-0.16-0.43-0.38-0.56-0.67
		c-0.13-0.29-0.2-0.62-0.2-0.99c0-0.36,0.06-0.69,0.18-0.99c0.12-0.29,0.3-0.52,0.54-0.68c0.24-0.16,0.51-0.24,0.81-0.24
		c0.22,0,0.41,0.05,0.58,0.14c0.17,0.09,0.31,0.21,0.42,0.36v-1.8h0.61v5.01H30.85z M28.91,3.71c0,0.46,0.1,0.81,0.29,1.04
		c0.2,0.23,0.43,0.35,0.69,0.35c0.27,0,0.5-0.11,0.69-0.33c0.19-0.22,0.28-0.55,0.28-1.01c0-0.5-0.1-0.86-0.29-1.09
		s-0.43-0.35-0.71-0.35c-0.27,0-0.5,0.11-0.69,0.34C29,2.88,28.91,3.23,28.91,3.71z"/>
	<path class="st0" d="M32.16,3.71c0-0.67,0.19-1.17,0.56-1.49c0.31-0.27,0.69-0.4,1.14-0.4c0.5,0,0.91,0.16,1.22,0.49
		c0.32,0.33,0.47,0.78,0.47,1.36c0,0.47-0.07,0.83-0.21,1.1c-0.14,0.27-0.34,0.48-0.61,0.62c-0.27,0.15-0.56,0.22-0.88,0.22
		c-0.51,0-0.92-0.16-1.23-0.49C32.32,4.79,32.16,4.32,32.16,3.71z M32.8,3.71c0,0.46,0.1,0.81,0.3,1.04
		c0.2,0.23,0.46,0.35,0.77,0.35c0.31,0,0.56-0.12,0.76-0.35s0.3-0.59,0.3-1.06c0-0.45-0.1-0.79-0.3-1.02
		c-0.21-0.23-0.46-0.35-0.76-0.35c-0.31,0-0.56,0.12-0.77,0.35C32.9,2.89,32.8,3.24,32.8,3.71z"/>
	<path class="st0" d="M39.79,4.96c-0.15,0.17-0.31,0.31-0.5,0.41s-0.37,0.16-0.55,0.16c-0.2,0-0.4-0.06-0.59-0.18
		c-0.19-0.12-0.35-0.3-0.47-0.55C37.57,4.56,37.51,4.29,37.51,4c0-0.36,0.09-0.73,0.28-1.09c0.19-0.36,0.42-0.64,0.69-0.82
		s0.54-0.27,0.8-0.27c0.2,0,0.39,0.05,0.57,0.16c0.18,0.1,0.33,0.26,0.46,0.47l0.12-0.53h0.61l-0.49,2.29
		c-0.07,0.32-0.1,0.5-0.1,0.53c0,0.06,0.02,0.12,0.07,0.16c0.05,0.04,0.1,0.07,0.17,0.07c0.12,0,0.28-0.07,0.48-0.21
		c0.26-0.18,0.46-0.43,0.62-0.73S42,3.4,42,3.07c0-0.38-0.1-0.74-0.29-1.07c-0.2-0.33-0.49-0.59-0.87-0.79
		c-0.39-0.2-0.81-0.3-1.28-0.3c-0.53,0-1.02,0.12-1.46,0.37c-0.44,0.25-0.78,0.61-1.03,1.07c-0.24,0.47-0.36,0.96-0.36,1.5
		c0,0.56,0.12,1.04,0.36,1.44c0.24,0.4,0.59,0.7,1.05,0.89c0.46,0.19,0.97,0.29,1.53,0.29c0.6,0,1.1-0.1,1.5-0.3
		c0.4-0.2,0.71-0.44,0.91-0.73h0.62c-0.12,0.24-0.32,0.48-0.6,0.73c-0.28,0.25-0.62,0.45-1.01,0.59c-0.39,0.14-0.86,0.22-1.41,0.22
		c-0.51,0-0.97-0.06-1.4-0.19c-0.43-0.13-0.79-0.33-1.09-0.59s-0.53-0.56-0.68-0.9C36.3,4.88,36.2,4.42,36.2,3.92
		c0-0.56,0.11-1.08,0.34-1.59c0.28-0.62,0.67-1.09,1.18-1.42c0.51-0.33,1.13-0.49,1.86-0.49c0.57,0,1.07,0.12,1.52,0.35
		c0.45,0.23,0.8,0.58,1.06,1.03c0.22,0.39,0.33,0.82,0.33,1.29c0,0.66-0.23,1.25-0.7,1.76c-0.41,0.46-0.87,0.69-1.36,0.69
		c-0.16,0-0.28-0.02-0.38-0.07c-0.1-0.05-0.17-0.12-0.21-0.21C39.83,5.2,39.81,5.1,39.79,4.96z M38.14,4.04
		c0,0.31,0.07,0.55,0.22,0.73c0.15,0.17,0.32,0.26,0.51,0.26c0.13,0,0.26-0.04,0.4-0.11c0.14-0.08,0.28-0.19,0.4-0.34
		S39.91,4.23,39.99,4s0.12-0.46,0.12-0.7c0-0.31-0.08-0.55-0.23-0.72c-0.15-0.17-0.34-0.26-0.56-0.26c-0.15,0-0.28,0.04-0.41,0.11
		s-0.25,0.19-0.37,0.36s-0.22,0.36-0.29,0.6C38.17,3.62,38.14,3.84,38.14,4.04z"/>
	<path class="st0" d="M43.28,5.82l0.6,0.09c0.03,0.18,0.09,0.32,0.21,0.4c0.15,0.11,0.36,0.17,0.62,0.17c0.29,0,0.5-0.06,0.66-0.17
		c0.15-0.11,0.26-0.27,0.31-0.48c0.03-0.12,0.05-0.39,0.04-0.79c-0.27,0.32-0.6,0.47-1,0.47c-0.5,0-0.88-0.18-1.16-0.54
		s-0.41-0.79-0.41-1.3c0-0.35,0.06-0.67,0.19-0.96s0.31-0.52,0.54-0.68s0.52-0.24,0.84-0.24c0.43,0,0.78,0.17,1.06,0.52V1.89h0.57
		v3.14c0,0.57-0.06,0.97-0.17,1.2c-0.11,0.24-0.3,0.42-0.55,0.56c-0.25,0.14-0.56,0.21-0.92,0.21c-0.43,0-0.78-0.1-1.05-0.29
		C43.4,6.51,43.27,6.21,43.28,5.82z M43.79,3.64c0,0.48,0.09,0.82,0.28,1.04c0.19,0.22,0.43,0.33,0.71,0.33
		c0.28,0,0.52-0.11,0.71-0.33s0.29-0.56,0.29-1.02c0-0.44-0.1-0.78-0.3-1c-0.2-0.23-0.43-0.34-0.71-0.34c-0.27,0-0.51,0.11-0.7,0.33
		C43.88,2.87,43.79,3.2,43.79,3.64z"/>
	<path class="st0" d="M49.65,5.07C49.43,5.27,49.21,5.4,49,5.48c-0.21,0.08-0.44,0.12-0.68,0.12c-0.4,0-0.71-0.1-0.92-0.29
		c-0.21-0.2-0.32-0.44-0.32-0.75c0-0.18,0.04-0.34,0.12-0.49c0.08-0.15,0.19-0.26,0.32-0.35s0.28-0.16,0.44-0.2
		c0.12-0.03,0.3-0.06,0.55-0.09c0.5-0.06,0.86-0.13,1.1-0.21c0-0.08,0-0.14,0-0.16c0-0.25-0.06-0.43-0.17-0.53
		c-0.16-0.14-0.39-0.21-0.7-0.21c-0.29,0-0.5,0.05-0.64,0.15c-0.14,0.1-0.24,0.28-0.31,0.54l-0.6-0.08
		c0.05-0.26,0.14-0.47,0.27-0.62S47.76,2.02,48,1.94c0.24-0.08,0.51-0.13,0.82-0.13c0.31,0,0.56,0.04,0.75,0.11
		c0.19,0.07,0.34,0.17,0.43,0.28s0.15,0.25,0.19,0.42c0.02,0.1,0.03,0.29,0.03,0.57V4c0,0.57,0.01,0.93,0.04,1.09
		c0.03,0.15,0.08,0.3,0.16,0.44h-0.64C49.71,5.39,49.67,5.24,49.65,5.07z M49.6,3.7c-0.22,0.09-0.56,0.17-1,0.23
		c-0.25,0.04-0.43,0.08-0.54,0.12c-0.11,0.05-0.19,0.11-0.24,0.2c-0.06,0.09-0.09,0.19-0.09,0.29c0,0.16,0.06,0.3,0.19,0.41
		s0.31,0.16,0.54,0.16c0.24,0,0.45-0.05,0.63-0.16c0.19-0.1,0.32-0.25,0.41-0.42c0.07-0.14,0.1-0.34,0.1-0.62V3.7z"/>
	<path class="st0" d="M51.75,5.52h-0.57V0.51h0.62V2.3c0.26-0.33,0.59-0.49,1-0.49c0.22,0,0.43,0.04,0.63,0.13s0.36,0.22,0.49,0.38
		s0.23,0.36,0.3,0.59c0.07,0.23,0.11,0.48,0.11,0.74c0,0.62-0.15,1.1-0.46,1.44c-0.31,0.34-0.68,0.51-1.11,0.51
		c-0.43,0-0.77-0.18-1.01-0.54V5.52z M51.74,3.68c0,0.43,0.06,0.75,0.18,0.94c0.19,0.32,0.46,0.47,0.79,0.47
		c0.27,0,0.5-0.12,0.7-0.35s0.29-0.58,0.29-1.04c0-0.47-0.09-0.82-0.28-1.05C53.22,2.43,53,2.31,52.73,2.31
		c-0.27,0-0.5,0.12-0.7,0.35S51.74,3.24,51.74,3.68z"/>
	<path class="st0" d="M57.44,5.07c-0.23,0.19-0.45,0.33-0.66,0.41C56.57,5.56,56.34,5.6,56.1,5.6c-0.4,0-0.71-0.1-0.92-0.29
		c-0.21-0.2-0.32-0.44-0.32-0.75c0-0.18,0.04-0.34,0.12-0.49c0.08-0.15,0.19-0.26,0.32-0.35c0.13-0.09,0.28-0.16,0.44-0.2
		c0.12-0.03,0.3-0.06,0.55-0.09c0.5-0.06,0.86-0.13,1.1-0.21c0-0.08,0-0.14,0-0.16c0-0.25-0.06-0.43-0.17-0.53
		c-0.16-0.14-0.39-0.21-0.7-0.21c-0.29,0-0.5,0.05-0.64,0.15s-0.24,0.28-0.31,0.54l-0.6-0.08c0.05-0.26,0.14-0.47,0.27-0.62
		s0.31-0.28,0.54-0.37c0.24-0.08,0.51-0.13,0.82-0.13c0.31,0,0.56,0.04,0.76,0.11c0.19,0.07,0.34,0.17,0.43,0.28
		s0.16,0.25,0.19,0.42c0.02,0.1,0.03,0.29,0.03,0.57V4c0,0.57,0.01,0.93,0.04,1.09s0.08,0.3,0.16,0.44h-0.64
		C57.5,5.39,57.46,5.24,57.44,5.07z M57.39,3.7c-0.22,0.09-0.56,0.17-1.01,0.23c-0.25,0.04-0.43,0.08-0.54,0.12
		c-0.1,0.05-0.19,0.11-0.24,0.2c-0.06,0.09-0.08,0.19-0.08,0.29c0,0.16,0.06,0.3,0.19,0.41c0.12,0.11,0.31,0.16,0.54,0.16
		c0.24,0,0.45-0.05,0.63-0.16c0.18-0.1,0.32-0.25,0.41-0.42c0.07-0.14,0.1-0.34,0.1-0.62V3.7z"/>
	<path class="st0" d="M58.96,5.52V1.89h0.55v0.55c0.14-0.26,0.27-0.43,0.39-0.51s0.25-0.12,0.39-0.12c0.21,0,0.42,0.07,0.63,0.2
		l-0.21,0.57c-0.15-0.09-0.3-0.13-0.45-0.13c-0.13,0-0.25,0.04-0.36,0.12c-0.11,0.08-0.18,0.19-0.23,0.34
		c-0.07,0.22-0.1,0.46-0.1,0.72v1.9H58.96z"/>
	<path class="st0" d="M61.08,5.52v-0.7h0.7v0.7H61.08z"/>
	<path class="st0" d="M62.85,5.52V1.89h0.55V2.4c0.11-0.18,0.27-0.32,0.45-0.43s0.4-0.16,0.65-0.16c0.27,0,0.49,0.06,0.66,0.17
		c0.17,0.11,0.29,0.27,0.36,0.47c0.29-0.42,0.66-0.64,1.12-0.64c0.36,0,0.64,0.1,0.83,0.3s0.29,0.51,0.29,0.92v2.49h-0.61V3.23
		c0-0.25-0.02-0.42-0.06-0.53c-0.04-0.11-0.11-0.2-0.22-0.26c-0.1-0.07-0.23-0.1-0.37-0.1c-0.25,0-0.47,0.08-0.63,0.25
		c-0.17,0.17-0.25,0.44-0.25,0.81v2.11h-0.62V3.16c0-0.27-0.05-0.48-0.15-0.62c-0.1-0.14-0.26-0.21-0.49-0.21
		c-0.17,0-0.33,0.05-0.48,0.14c-0.15,0.09-0.25,0.22-0.32,0.4c-0.07,0.18-0.1,0.43-0.1,0.76v1.88H62.85z"/>
	<path class="st0" d="M68.27,5.52l1.33-1.89l-1.23-1.74h0.77l0.56,0.85c0.11,0.16,0.19,0.3,0.25,0.41c0.1-0.15,0.19-0.28,0.28-0.4
		l0.61-0.86h0.73L70.32,3.6l1.35,1.92h-0.76l-0.74-1.13l-0.2-0.3l-0.95,1.43H68.27z"/>
</g>
</svg>
