<?xml version="1.0" encoding="utf-8"?>
<!-- Generator: Adobe Illustrator 25.4.1, SVG Export Plug-In . SVG Version: 6.00 Build 0)  -->
<svg version="1.1" id="Capa_1" xmlns="http://www.w3.org/2000/svg" xmlns:xlink="http://www.w3.org/1999/xlink" x="0px" y="0px"
	 viewBox="0 0 252 77.61" style="enable-background:new 0 0 252 77.61;" xml:space="preserve">
<style type="text/css">
	.st0{fill:#3F3E3E;}
</style>
<g>
	<path d="M10.61,18.38l2.38,0.75c-0.37,1.33-0.97,2.31-1.82,2.96c-0.85,0.65-1.93,0.97-3.23,0.97c-1.62,0-2.94-0.55-3.98-1.66
		c-1.04-1.11-1.56-2.61-1.56-4.53c0-2.03,0.52-3.6,1.57-4.72s2.42-1.68,4.12-1.68c1.49,0,2.7,0.44,3.63,1.32
		c0.55,0.52,0.97,1.27,1.25,2.24l-2.43,0.58c-0.14-0.63-0.44-1.13-0.9-1.49c-0.46-0.37-1.01-0.55-1.66-0.55
		c-0.9,0-1.63,0.32-2.2,0.97s-0.84,1.7-0.84,3.15c0,1.54,0.28,2.63,0.83,3.29c0.55,0.65,1.27,0.98,2.16,0.98
		c0.65,0,1.21-0.21,1.69-0.62C10.07,19.93,10.4,19.28,10.61,18.38z"/>
	<path d="M15.08,22.86v-2.33h2.33v2.33H15.08z"/>
	<path d="M19.82,22.86V10.69h3.94c1.49,0,2.47,0.06,2.92,0.18c0.7,0.18,1.28,0.58,1.75,1.19c0.47,0.61,0.71,1.4,0.71,2.37
		c0,0.75-0.14,1.38-0.41,1.88c-0.27,0.51-0.62,0.91-1.03,1.2c-0.42,0.29-0.84,0.48-1.27,0.58c-0.59,0.12-1.44,0.17-2.55,0.17h-1.6
		v4.59H19.82z M22.28,12.75v3.45h1.34c0.97,0,1.62-0.06,1.94-0.19c0.33-0.13,0.58-0.33,0.77-0.6s0.28-0.59,0.28-0.95
		c0-0.44-0.13-0.81-0.39-1.1s-0.59-0.47-0.99-0.54c-0.29-0.05-0.88-0.08-1.77-0.08H22.28z"/>
	<path d="M28.95,22.86v-2.33h2.33v2.33H28.95z"/>
	<path d="M42.81,10.69h2.45v7.7c0,1.01-0.09,1.78-0.27,2.32c-0.24,0.71-0.67,1.28-1.29,1.71c-0.63,0.43-1.45,0.64-2.47,0.64
		c-1.2,0-2.12-0.34-2.77-1.01c-0.65-0.67-0.97-1.66-0.98-2.96l2.32-0.27c0.03,0.7,0.13,1.19,0.31,1.48
		c0.27,0.44,0.67,0.66,1.21,0.66c0.55,0,0.93-0.16,1.16-0.47c0.23-0.31,0.34-0.96,0.34-1.95V10.69z"/>
	<path d="M49.6,16.73l-2.12-0.38c0.24-0.85,0.65-1.48,1.23-1.89c0.58-0.41,1.44-0.61,2.59-0.61c1.04,0,1.81,0.12,2.32,0.37
		c0.51,0.25,0.87,0.56,1.07,0.94s0.31,1.08,0.31,2.09l-0.02,2.72c0,0.78,0.04,1.35,0.11,1.71c0.07,0.37,0.21,0.76,0.42,1.18h-2.31
		c-0.06-0.15-0.13-0.38-0.22-0.69c-0.04-0.14-0.07-0.23-0.08-0.27c-0.4,0.39-0.82,0.68-1.28,0.87s-0.94,0.29-1.45,0.29
		c-0.91,0-1.62-0.25-2.15-0.74s-0.78-1.12-0.78-1.87c0-0.5,0.12-0.94,0.36-1.33c0.24-0.39,0.57-0.69,1-0.9
		c0.43-0.21,1.05-0.39,1.86-0.54c1.09-0.2,1.85-0.39,2.27-0.57v-0.23c0-0.45-0.11-0.77-0.33-0.96s-0.64-0.29-1.25-0.29
		c-0.42,0-0.74,0.08-0.97,0.25C49.93,16.04,49.74,16.32,49.6,16.73z M52.72,18.63c-0.3,0.1-0.77,0.22-1.42,0.36
		c-0.65,0.14-1.07,0.27-1.27,0.41c-0.3,0.21-0.46,0.49-0.46,0.82c0,0.33,0.12,0.61,0.37,0.85c0.24,0.24,0.55,0.36,0.93,0.36
		c0.42,0,0.82-0.14,1.2-0.42c0.28-0.21,0.47-0.47,0.56-0.77c0.06-0.2,0.09-0.58,0.09-1.14V18.63z"/>
	<path d="M57.31,12.85v-2.16h2.33v2.16H57.31z M57.31,22.86v-8.81h2.33v8.81H57.31z"/>
	<path d="M64.26,22.86h-2.33v-8.81h2.17v1.25c0.37-0.59,0.71-0.98,1-1.17c0.3-0.19,0.63-0.28,1.01-0.28c0.53,0,1.04,0.15,1.54,0.44
		l-0.72,2.03c-0.39-0.25-0.76-0.38-1.1-0.38c-0.33,0-0.6,0.09-0.83,0.27c-0.23,0.18-0.4,0.5-0.54,0.97c-0.13,0.47-0.2,1.46-0.2,2.96
		V22.86z"/>
	<path d="M70.39,16.73l-2.12-0.38c0.24-0.85,0.65-1.48,1.23-1.89c0.58-0.41,1.44-0.61,2.59-0.61c1.04,0,1.81,0.12,2.32,0.37
		s0.87,0.56,1.08,0.94c0.21,0.38,0.31,1.08,0.31,2.09l-0.03,2.72c0,0.78,0.04,1.35,0.11,1.71c0.07,0.37,0.21,0.76,0.42,1.18H74
		c-0.06-0.15-0.14-0.38-0.22-0.69c-0.04-0.14-0.07-0.23-0.08-0.27c-0.4,0.39-0.82,0.68-1.28,0.87c-0.45,0.19-0.94,0.29-1.45,0.29
		c-0.91,0-1.62-0.25-2.15-0.74c-0.52-0.49-0.78-1.12-0.78-1.87c0-0.5,0.12-0.94,0.36-1.33c0.24-0.39,0.57-0.69,1-0.9
		c0.43-0.21,1.05-0.39,1.86-0.54c1.09-0.2,1.85-0.39,2.27-0.57v-0.23c0-0.45-0.11-0.77-0.33-0.96c-0.22-0.19-0.64-0.29-1.25-0.29
		c-0.42,0-0.74,0.08-0.97,0.25C70.72,16.04,70.53,16.32,70.39,16.73z M73.51,18.63c-0.3,0.1-0.77,0.22-1.42,0.36
		s-1.07,0.27-1.27,0.41c-0.3,0.21-0.46,0.49-0.46,0.82c0,0.33,0.12,0.61,0.37,0.85s0.55,0.36,0.93,0.36c0.42,0,0.82-0.14,1.2-0.42
		c0.28-0.21,0.47-0.47,0.56-0.77c0.06-0.2,0.09-0.58,0.09-1.14V18.63z"/>
	<path d="M82.83,10.69h4.49c1.01,0,1.78,0.08,2.32,0.23c0.71,0.21,1.33,0.58,1.83,1.12c0.51,0.54,0.9,1.19,1.16,1.97
		s0.4,1.74,0.4,2.88c0,1-0.12,1.86-0.37,2.59c-0.3,0.89-0.74,1.6-1.3,2.15c-0.43,0.42-1,0.74-1.73,0.97
		c-0.54,0.17-1.27,0.26-2.17,0.26h-4.62V10.69z M85.29,12.75v8.06h1.83c0.69,0,1.18-0.04,1.49-0.12c0.4-0.1,0.73-0.27,0.99-0.51
		c0.26-0.24,0.48-0.63,0.64-1.18c0.17-0.54,0.25-1.29,0.25-2.23c0-0.94-0.08-1.66-0.25-2.17s-0.4-0.9-0.7-1.18s-0.68-0.47-1.14-0.57
		c-0.34-0.08-1.02-0.12-2.02-0.12H85.29z"/>
	<path d="M100.9,22.86v-1.32c-0.32,0.47-0.74,0.84-1.27,1.11c-0.52,0.27-1.08,0.41-1.66,0.41c-0.59,0-1.12-0.13-1.59-0.39
		c-0.47-0.26-0.81-0.63-1.02-1.1s-0.32-1.12-0.32-1.95v-5.58h2.33v4.05c0,1.24,0.04,2,0.13,2.28c0.08,0.28,0.24,0.5,0.47,0.66
		c0.23,0.16,0.51,0.25,0.86,0.25c0.4,0,0.75-0.11,1.07-0.33s0.53-0.49,0.65-0.81c0.12-0.32,0.17-1.12,0.17-2.38v-3.72h2.33v8.81
		H100.9z"/>
	<path d="M105.49,22.86V10.69h2.33v12.17H105.49z"/>
	<path d="M115.31,20.05l2.32,0.39c-0.3,0.85-0.77,1.5-1.42,1.95s-1.45,0.67-2.42,0.67c-1.53,0-2.67-0.5-3.4-1.5
		c-0.58-0.8-0.87-1.81-0.87-3.04c0-1.46,0.38-2.6,1.15-3.43c0.76-0.83,1.73-1.24,2.9-1.24c1.31,0,2.35,0.43,3.11,1.3
		c0.76,0.87,1.12,2.19,1.09,3.98h-5.84c0.02,0.69,0.2,1.23,0.56,1.61c0.36,0.38,0.81,0.58,1.34,0.58c0.37,0,0.67-0.1,0.92-0.3
		C115,20.82,115.19,20.5,115.31,20.05z M115.45,17.7c-0.02-0.68-0.19-1.19-0.52-1.54c-0.33-0.35-0.74-0.53-1.21-0.53
		c-0.51,0-0.93,0.19-1.26,0.56c-0.33,0.37-0.5,0.88-0.49,1.51H115.45z"/>
	<path d="M119.66,12.85v-2.16H122v2.16H119.66z M119.66,22.86v-8.81H122v8.81H119.66z"/>
	<path d="M124.21,14.04h2.15v1.2c0.77-0.94,1.68-1.4,2.75-1.4c0.56,0,1.05,0.12,1.47,0.35s0.75,0.58,1.02,1.05
		c0.39-0.47,0.81-0.82,1.25-1.05s0.93-0.35,1.44-0.35c0.65,0,1.2,0.13,1.64,0.39c0.45,0.26,0.78,0.65,1,1.16
		c0.16,0.38,0.24,0.99,0.24,1.83v5.64h-2.33v-5.04c0-0.87-0.08-1.44-0.24-1.69c-0.22-0.33-0.55-0.5-1-0.5c-0.33,0-0.63,0.1-0.92,0.3
		s-0.5,0.49-0.62,0.88c-0.13,0.38-0.19,0.99-0.19,1.82v4.23h-2.33v-4.83c0-0.86-0.04-1.41-0.12-1.66c-0.08-0.25-0.21-0.44-0.39-0.56
		s-0.41-0.18-0.71-0.18c-0.36,0-0.68,0.1-0.97,0.29c-0.29,0.19-0.49,0.47-0.62,0.84c-0.12,0.37-0.19,0.97-0.19,1.82v4.28h-2.33
		V14.04z"/>
	<path d="M141.25,16.73l-2.12-0.38c0.24-0.85,0.65-1.48,1.23-1.89c0.58-0.41,1.44-0.61,2.59-0.61c1.04,0,1.81,0.12,2.32,0.37
		s0.87,0.56,1.08,0.94c0.21,0.38,0.31,1.08,0.31,2.09l-0.03,2.72c0,0.78,0.04,1.35,0.11,1.71c0.07,0.37,0.21,0.76,0.42,1.18h-2.31
		c-0.06-0.15-0.14-0.38-0.22-0.69c-0.04-0.14-0.07-0.23-0.08-0.27c-0.4,0.39-0.82,0.68-1.28,0.87c-0.45,0.19-0.94,0.29-1.45,0.29
		c-0.91,0-1.62-0.25-2.15-0.74c-0.52-0.49-0.78-1.12-0.78-1.87c0-0.5,0.12-0.94,0.36-1.33c0.24-0.39,0.57-0.69,1-0.9
		c0.43-0.21,1.05-0.39,1.86-0.54c1.09-0.2,1.85-0.39,2.27-0.57v-0.23c0-0.45-0.11-0.77-0.33-0.96c-0.22-0.19-0.64-0.29-1.25-0.29
		c-0.42,0-0.74,0.08-0.97,0.25C141.58,16.04,141.39,16.32,141.25,16.73z M144.37,18.63c-0.3,0.1-0.77,0.22-1.42,0.36
		s-1.07,0.27-1.27,0.41c-0.3,0.21-0.46,0.49-0.46,0.82c0,0.33,0.12,0.61,0.37,0.85s0.55,0.36,0.93,0.36c0.42,0,0.82-0.14,1.2-0.42
		c0.28-0.21,0.47-0.47,0.56-0.77c0.06-0.2,0.09-0.58,0.09-1.14V18.63z"/>
	<path d="M153.71,10.69h4.86c0.96,0,1.68,0.04,2.15,0.12c0.47,0.08,0.9,0.25,1.27,0.5c0.37,0.25,0.68,0.59,0.93,1.02
		c0.25,0.42,0.37,0.9,0.37,1.42c0,0.57-0.15,1.09-0.46,1.57c-0.31,0.48-0.72,0.83-1.25,1.07c0.74,0.22,1.31,0.58,1.71,1.1
		c0.4,0.52,0.6,1.13,0.6,1.83c0,0.55-0.13,1.09-0.39,1.62c-0.26,0.52-0.61,0.94-1.05,1.25c-0.45,0.31-1,0.51-1.65,0.58
		c-0.41,0.04-1.4,0.07-2.96,0.08h-4.14V10.69z M156.16,12.72v2.81h1.61c0.96,0,1.55-0.01,1.78-0.04c0.42-0.05,0.75-0.2,0.99-0.44
		c0.24-0.24,0.36-0.56,0.36-0.95c0-0.38-0.1-0.68-0.31-0.92c-0.21-0.24-0.52-0.38-0.92-0.43c-0.24-0.03-0.94-0.04-2.1-0.04H156.16z
		 M156.16,17.55v3.25h2.27c0.89,0,1.45-0.02,1.68-0.08c0.37-0.07,0.66-0.23,0.89-0.48c0.23-0.26,0.34-0.6,0.34-1.03
		c0-0.37-0.09-0.67-0.27-0.93s-0.43-0.44-0.77-0.56c-0.33-0.12-1.06-0.17-2.18-0.17H156.16z"/>
	<path d="M171.06,20.05l2.32,0.39c-0.3,0.85-0.77,1.5-1.42,1.95s-1.45,0.67-2.42,0.67c-1.53,0-2.67-0.5-3.4-1.5
		c-0.58-0.8-0.87-1.81-0.87-3.04c0-1.46,0.38-2.6,1.15-3.43c0.76-0.83,1.73-1.24,2.9-1.24c1.31,0,2.35,0.43,3.11,1.3
		c0.76,0.87,1.12,2.19,1.09,3.98h-5.84c0.02,0.69,0.2,1.23,0.56,1.61c0.36,0.38,0.81,0.58,1.34,0.58c0.37,0,0.67-0.1,0.92-0.3
		C170.75,20.82,170.93,20.5,171.06,20.05z M171.2,17.7c-0.02-0.68-0.19-1.19-0.52-1.54c-0.33-0.35-0.74-0.53-1.21-0.53
		c-0.51,0-0.93,0.19-1.26,0.56c-0.33,0.37-0.5,0.88-0.49,1.51H171.2z"/>
	<path d="M187.94,18.38l2.38,0.75c-0.37,1.33-0.97,2.31-1.82,2.96c-0.85,0.65-1.93,0.97-3.23,0.97c-1.62,0-2.94-0.55-3.98-1.66
		c-1.04-1.11-1.56-2.61-1.56-4.53c0-2.03,0.52-3.6,1.57-4.72c1.04-1.12,2.42-1.68,4.12-1.68c1.49,0,2.7,0.44,3.63,1.32
		c0.55,0.52,0.97,1.27,1.25,2.24l-2.43,0.58c-0.14-0.63-0.44-1.13-0.9-1.49c-0.46-0.37-1.01-0.55-1.66-0.55
		c-0.9,0-1.63,0.32-2.2,0.97c-0.56,0.65-0.84,1.7-0.84,3.15c0,1.54,0.28,2.63,0.83,3.29c0.55,0.65,1.27,0.98,2.16,0.98
		c0.65,0,1.21-0.21,1.68-0.62S187.73,19.28,187.94,18.38z"/>
	<path d="M194.74,10.69v4.47c0.75-0.88,1.65-1.32,2.7-1.32c0.54,0,1.02,0.1,1.45,0.3s0.76,0.45,0.97,0.76
		c0.22,0.31,0.37,0.65,0.45,1.03c0.08,0.38,0.12,0.96,0.12,1.75v5.17h-2.33V18.2c0-0.92-0.04-1.51-0.13-1.76s-0.25-0.45-0.47-0.59
		c-0.22-0.15-0.51-0.22-0.84-0.22c-0.39,0-0.73,0.09-1.04,0.28c-0.3,0.19-0.53,0.47-0.67,0.85c-0.14,0.38-0.21,0.94-0.21,1.68v4.42
		h-2.33V10.69H194.74z"/>
	<path d="M202.62,12.96l1.15-2.48h2.61l-2.28,2.48H202.62z M202.8,22.86v-8.81h2.33v8.81H202.8z"/>
</g>
<g>
	<path d="M9.77,41.22l1.33,0.33c-0.28,1.09-0.78,1.92-1.5,2.49c-0.72,0.57-1.61,0.86-2.65,0.86c-1.08,0-1.96-0.22-2.64-0.66
		c-0.68-0.44-1.19-1.08-1.54-1.91c-0.35-0.83-0.53-1.73-0.53-2.69c0-1.04,0.2-1.95,0.6-2.73c0.4-0.78,0.97-1.37,1.7-1.77
		c0.74-0.4,1.55-0.61,2.43-0.61c1,0,1.85,0.26,2.53,0.77c0.68,0.51,1.16,1.23,1.43,2.15l-1.31,0.31c-0.23-0.73-0.57-1.26-1.01-1.59
		c-0.44-0.33-1-0.5-1.67-0.5c-0.77,0-1.41,0.18-1.93,0.55c-0.52,0.37-0.88,0.87-1.09,1.49c-0.21,0.62-0.31,1.26-0.31,1.92
		c0,0.85,0.12,1.6,0.37,2.23c0.25,0.64,0.63,1.11,1.16,1.42c0.52,0.31,1.09,0.47,1.7,0.47c0.74,0,1.37-0.21,1.89-0.64
		C9.24,42.7,9.59,42.06,9.77,41.22z"/>
	<path d="M12.12,41.1c0-1.34,0.37-2.34,1.12-2.99c0.62-0.54,1.38-0.81,2.28-0.81c1,0,1.81,0.33,2.45,0.98
		c0.63,0.65,0.95,1.56,0.95,2.71c0,0.93-0.14,1.67-0.42,2.21c-0.28,0.54-0.69,0.95-1.22,1.25c-0.54,0.3-1.12,0.44-1.75,0.44
		c-1.02,0-1.84-0.33-2.46-0.98C12.43,43.27,12.12,42.33,12.12,41.1z M13.38,41.1c0,0.93,0.2,1.63,0.61,2.09
		c0.41,0.46,0.92,0.69,1.53,0.69c0.61,0,1.12-0.23,1.52-0.7c0.41-0.46,0.61-1.17,0.61-2.13c0-0.9-0.2-1.58-0.61-2.04
		c-0.41-0.46-0.92-0.69-1.52-0.69c-0.62,0-1.13,0.23-1.53,0.69C13.58,39.48,13.38,40.17,13.38,41.1z"/>
	<path d="M19.9,41.1c0-1.34,0.37-2.34,1.12-2.99c0.62-0.54,1.38-0.81,2.28-0.81c1,0,1.81,0.33,2.45,0.98
		c0.63,0.65,0.95,1.56,0.95,2.71c0,0.93-0.14,1.67-0.42,2.21c-0.28,0.54-0.69,0.95-1.22,1.25c-0.54,0.3-1.12,0.44-1.75,0.44
		c-1.02,0-1.84-0.33-2.46-0.98C20.22,43.27,19.9,42.33,19.9,41.1z M21.17,41.1c0,0.93,0.2,1.63,0.61,2.09
		c0.41,0.46,0.92,0.69,1.53,0.69c0.61,0,1.12-0.23,1.52-0.7c0.41-0.46,0.61-1.17,0.61-2.13c0-0.9-0.2-1.58-0.61-2.04
		c-0.41-0.46-0.92-0.69-1.52-0.69c-0.62,0-1.13,0.23-1.53,0.69C21.37,39.48,21.17,40.17,21.17,41.1z"/>
	<path d="M28.13,44.73v-7.26h1.11v1.1c0.28-0.51,0.54-0.85,0.78-1.02s0.5-0.25,0.79-0.25c0.41,0,0.84,0.13,1.26,0.4l-0.42,1.14
		c-0.3-0.18-0.6-0.27-0.9-0.27c-0.27,0-0.51,0.08-0.72,0.24c-0.21,0.16-0.37,0.39-0.46,0.67c-0.14,0.44-0.21,0.92-0.21,1.44v3.8
		H28.13z"/>
	<path d="M37.52,44.73v-0.92c-0.46,0.72-1.14,1.08-2.03,1.08c-0.58,0-1.11-0.16-1.6-0.48c-0.49-0.32-0.86-0.76-1.13-1.34
		c-0.27-0.57-0.4-1.23-0.4-1.97c0-0.72,0.12-1.38,0.36-1.97c0.24-0.59,0.6-1.04,1.09-1.36c0.48-0.31,1.02-0.47,1.62-0.47
		c0.44,0,0.83,0.09,1.17,0.28s0.62,0.42,0.83,0.72v-3.6h1.22v10.02H37.52z M33.63,41.11c0,0.93,0.2,1.62,0.59,2.08
		c0.39,0.46,0.85,0.69,1.39,0.69c0.54,0,0.99-0.22,1.37-0.66c0.38-0.44,0.56-1.11,0.56-2.01c0-0.99-0.19-1.72-0.57-2.19
		s-0.85-0.7-1.42-0.7c-0.55,0-1,0.22-1.37,0.67C33.81,39.45,33.63,40.15,33.63,41.11z"/>
	<path d="M40.6,36.13v-1.42h1.23v1.42H40.6z M40.6,44.73v-7.26h1.23v7.26H40.6z"/>
	<path d="M43.71,44.73v-7.26h1.11v1.03c0.53-0.8,1.3-1.2,2.31-1.2c0.44,0,0.84,0.08,1.21,0.24c0.37,0.16,0.64,0.36,0.82,0.62
		c0.18,0.26,0.31,0.56,0.38,0.91c0.04,0.23,0.07,0.63,0.07,1.2v4.46h-1.23v-4.42c0-0.5-0.05-0.88-0.14-1.12
		c-0.1-0.25-0.27-0.45-0.51-0.59c-0.24-0.15-0.53-0.22-0.86-0.22c-0.52,0-0.98,0.17-1.36,0.5c-0.38,0.33-0.57,0.96-0.57,1.89v3.96
		H43.71z"/>
	<path d="M56.23,43.84c-0.46,0.39-0.89,0.66-1.32,0.82c-0.42,0.16-0.87,0.24-1.36,0.24c-0.8,0-1.41-0.19-1.84-0.58
		c-0.43-0.39-0.64-0.89-0.64-1.49c0-0.36,0.08-0.68,0.24-0.97c0.16-0.29,0.37-0.53,0.64-0.71c0.26-0.18,0.56-0.31,0.89-0.4
		c0.24-0.06,0.61-0.12,1.09-0.18c0.99-0.12,1.72-0.26,2.19-0.42c0-0.17,0.01-0.28,0.01-0.32c0-0.5-0.12-0.85-0.35-1.06
		c-0.31-0.28-0.78-0.42-1.4-0.42c-0.58,0-1.01,0.1-1.28,0.3c-0.28,0.2-0.48,0.56-0.61,1.08l-1.2-0.16c0.11-0.51,0.29-0.93,0.54-1.25
		c0.25-0.32,0.61-0.56,1.09-0.73c0.47-0.17,1.02-0.26,1.65-0.26c0.62,0,1.12,0.07,1.51,0.22c0.39,0.15,0.67,0.33,0.85,0.55
		c0.18,0.22,0.31,0.5,0.38,0.84c0.04,0.21,0.06,0.59,0.06,1.13v1.64c0,1.14,0.03,1.87,0.08,2.17c0.05,0.3,0.16,0.59,0.31,0.87h-1.29
		C56.35,44.48,56.27,44.18,56.23,43.84z M56.13,41.09c-0.45,0.18-1.12,0.34-2.01,0.46c-0.51,0.07-0.86,0.16-1.07,0.25
		c-0.21,0.09-0.37,0.22-0.49,0.4c-0.11,0.17-0.17,0.37-0.17,0.58c0,0.33,0.12,0.6,0.37,0.82c0.25,0.22,0.61,0.33,1.09,0.33
		c0.47,0,0.9-0.1,1.26-0.31c0.37-0.21,0.64-0.49,0.81-0.85c0.13-0.28,0.2-0.69,0.2-1.23V41.09z"/>
	<path d="M63.99,44.73v-0.92c-0.46,0.72-1.14,1.08-2.03,1.08c-0.58,0-1.11-0.16-1.6-0.48c-0.49-0.32-0.86-0.76-1.13-1.34
		c-0.27-0.57-0.4-1.23-0.4-1.97c0-0.72,0.12-1.38,0.36-1.97c0.24-0.59,0.6-1.04,1.09-1.36c0.48-0.31,1.02-0.47,1.62-0.47
		c0.44,0,0.83,0.09,1.17,0.28s0.62,0.42,0.83,0.72v-3.6h1.22v10.02H63.99z M60.1,41.11c0,0.93,0.2,1.62,0.59,2.08
		c0.39,0.46,0.85,0.69,1.39,0.69c0.54,0,0.99-0.22,1.37-0.66c0.38-0.44,0.56-1.11,0.56-2.01c0-0.99-0.19-1.72-0.57-2.19
		s-0.85-0.7-1.42-0.7c-0.55,0-1,0.22-1.37,0.67C60.28,39.45,60.1,40.15,60.1,41.11z"/>
	<path d="M66.61,41.1c0-1.34,0.37-2.34,1.12-2.99c0.62-0.54,1.38-0.81,2.28-0.81c1,0,1.81,0.33,2.45,0.98
		c0.63,0.65,0.95,1.56,0.95,2.71c0,0.93-0.14,1.67-0.42,2.21c-0.28,0.54-0.69,0.95-1.22,1.25c-0.54,0.3-1.12,0.44-1.75,0.44
		c-1.02,0-1.84-0.33-2.46-0.98C66.92,43.27,66.61,42.33,66.61,41.1z M67.87,41.1c0,0.93,0.2,1.63,0.61,2.09
		c0.41,0.46,0.92,0.69,1.53,0.69c0.61,0,1.12-0.23,1.52-0.7c0.41-0.46,0.61-1.17,0.61-2.13c0-0.9-0.2-1.58-0.61-2.04
		c-0.41-0.46-0.92-0.69-1.52-0.69c-0.62,0-1.13,0.23-1.53,0.69C68.07,39.48,67.87,40.17,67.87,41.1z"/>
	<path d="M74.84,44.73v-7.26h1.11v1.1c0.28-0.51,0.54-0.85,0.78-1.02s0.5-0.25,0.79-0.25c0.41,0,0.84,0.13,1.26,0.4l-0.42,1.14
		c-0.3-0.18-0.6-0.27-0.9-0.27c-0.27,0-0.51,0.08-0.72,0.24c-0.21,0.16-0.37,0.39-0.46,0.67c-0.14,0.44-0.21,0.92-0.21,1.44v3.8
		H74.84z"/>
	<path d="M88.11,44.73v-0.92c-0.46,0.72-1.14,1.08-2.03,1.08c-0.58,0-1.11-0.16-1.6-0.48c-0.49-0.32-0.86-0.76-1.13-1.34
		c-0.27-0.57-0.4-1.23-0.4-1.97c0-0.72,0.12-1.38,0.36-1.97c0.24-0.59,0.6-1.04,1.09-1.36c0.48-0.31,1.02-0.47,1.62-0.47
		c0.44,0,0.83,0.09,1.17,0.28s0.62,0.42,0.83,0.72v-3.6h1.22v10.02H88.11z M84.22,41.11c0,0.93,0.2,1.62,0.59,2.08
		c0.39,0.46,0.85,0.69,1.39,0.69c0.54,0,0.99-0.22,1.37-0.66c0.38-0.44,0.56-1.11,0.56-2.01c0-0.99-0.19-1.72-0.57-2.19
		s-0.85-0.7-1.42-0.7c-0.55,0-1,0.22-1.37,0.67C84.41,39.45,84.22,40.15,84.22,41.11z"/>
	<path d="M96.16,42.4l1.27,0.16c-0.2,0.74-0.57,1.32-1.11,1.73c-0.54,0.41-1.24,0.62-2.08,0.62c-1.06,0-1.9-0.33-2.53-0.98
		c-0.62-0.65-0.93-1.57-0.93-2.75c0-1.22,0.31-2.17,0.94-2.84c0.63-0.67,1.44-1.01,2.45-1.01c0.97,0,1.76,0.33,2.38,0.99
		c0.62,0.66,0.92,1.59,0.92,2.79c0,0.07,0,0.18-0.01,0.33h-5.41c0.04,0.8,0.27,1.41,0.68,1.83c0.41,0.42,0.91,0.64,1.52,0.64
		c0.45,0,0.84-0.12,1.16-0.36C95.72,43.29,95.97,42.92,96.16,42.4z M92.12,40.41h4.05c-0.05-0.61-0.21-1.07-0.46-1.37
		c-0.39-0.47-0.9-0.71-1.52-0.71c-0.57,0-1.04,0.19-1.43,0.57C92.37,39.27,92.16,39.77,92.12,40.41z"/>
	<path d="M110.17,41.22l1.33,0.33c-0.28,1.09-0.78,1.92-1.5,2.49c-0.72,0.57-1.61,0.86-2.65,0.86c-1.08,0-1.96-0.22-2.64-0.66
		c-0.68-0.44-1.19-1.08-1.54-1.91c-0.35-0.83-0.53-1.73-0.53-2.69c0-1.04,0.2-1.95,0.6-2.73c0.4-0.78,0.97-1.37,1.7-1.77
		c0.74-0.4,1.55-0.61,2.43-0.61c1,0,1.85,0.26,2.53,0.77c0.68,0.51,1.16,1.23,1.43,2.15l-1.31,0.31c-0.23-0.73-0.57-1.26-1.01-1.59
		c-0.44-0.33-1-0.5-1.67-0.5c-0.77,0-1.41,0.18-1.93,0.55c-0.52,0.37-0.88,0.87-1.09,1.49c-0.21,0.62-0.31,1.26-0.31,1.92
		c0,0.85,0.12,1.6,0.37,2.23c0.25,0.64,0.63,1.11,1.16,1.42c0.52,0.31,1.09,0.47,1.7,0.47c0.74,0,1.37-0.21,1.89-0.64
		C109.64,42.7,109.99,42.06,110.17,41.22z"/>
	<path d="M112.52,41.1c0-1.34,0.37-2.34,1.12-2.99c0.62-0.54,1.38-0.81,2.28-0.81c1,0,1.81,0.33,2.45,0.98
		c0.63,0.65,0.95,1.56,0.95,2.71c0,0.93-0.14,1.67-0.42,2.21c-0.28,0.54-0.69,0.95-1.22,1.25c-0.54,0.3-1.12,0.44-1.75,0.44
		c-1.02,0-1.84-0.33-2.46-0.98C112.83,43.27,112.52,42.33,112.52,41.1z M113.78,41.1c0,0.93,0.2,1.63,0.61,2.09
		c0.41,0.46,0.92,0.69,1.53,0.69c0.61,0,1.12-0.23,1.52-0.7c0.41-0.46,0.61-1.17,0.61-2.13c0-0.9-0.2-1.58-0.61-2.04
		c-0.41-0.46-0.92-0.69-1.52-0.69c-0.62,0-1.13,0.23-1.53,0.69C113.98,39.48,113.78,40.17,113.78,41.1z"/>
	<path d="M120.76,44.73v-7.26h1.11v1.03c0.53-0.8,1.3-1.2,2.31-1.2c0.44,0,0.84,0.08,1.21,0.24c0.37,0.16,0.64,0.36,0.82,0.62
		c0.18,0.26,0.31,0.56,0.38,0.91c0.04,0.23,0.07,0.63,0.07,1.2v4.46h-1.23v-4.42c0-0.5-0.05-0.88-0.14-1.12
		c-0.1-0.25-0.27-0.45-0.51-0.59c-0.24-0.15-0.53-0.22-0.86-0.22c-0.52,0-0.98,0.17-1.36,0.5c-0.38,0.33-0.57,0.96-0.57,1.89v3.96
		H120.76z"/>
	<path d="M131.23,43.63l0.18,1.09c-0.35,0.07-0.66,0.11-0.93,0.11c-0.45,0-0.79-0.07-1.04-0.21c-0.25-0.14-0.42-0.33-0.52-0.56
		c-0.1-0.23-0.15-0.71-0.15-1.45v-4.18h-0.9v-0.96h0.9v-1.8l1.22-0.74v2.54h1.24v0.96H130v4.25c0,0.35,0.02,0.58,0.06,0.68
		c0.04,0.1,0.11,0.18,0.21,0.24c0.1,0.06,0.24,0.09,0.42,0.09C130.83,43.68,131.01,43.67,131.23,43.63z"/>
	<path d="M137.17,43.84c-0.46,0.39-0.89,0.66-1.32,0.82c-0.42,0.16-0.87,0.24-1.36,0.24c-0.8,0-1.41-0.19-1.84-0.58
		c-0.43-0.39-0.64-0.89-0.64-1.49c0-0.36,0.08-0.68,0.24-0.97c0.16-0.29,0.37-0.53,0.64-0.71c0.26-0.18,0.56-0.31,0.89-0.4
		c0.24-0.06,0.61-0.12,1.09-0.18c0.99-0.12,1.72-0.26,2.19-0.42c0-0.17,0.01-0.28,0.01-0.32c0-0.5-0.12-0.85-0.35-1.06
		c-0.31-0.28-0.78-0.42-1.4-0.42c-0.58,0-1.01,0.1-1.28,0.3c-0.28,0.2-0.48,0.56-0.61,1.08l-1.2-0.16c0.11-0.51,0.29-0.93,0.54-1.25
		c0.25-0.32,0.61-0.56,1.09-0.73c0.47-0.17,1.02-0.26,1.65-0.26c0.62,0,1.12,0.07,1.51,0.22c0.39,0.15,0.67,0.33,0.85,0.55
		c0.18,0.22,0.31,0.5,0.38,0.84c0.04,0.21,0.06,0.59,0.06,1.13v1.64c0,1.14,0.03,1.87,0.08,2.17c0.05,0.3,0.16,0.59,0.31,0.87h-1.29
		C137.29,44.48,137.21,44.18,137.17,43.84z M137.07,41.09c-0.45,0.18-1.12,0.34-2.01,0.46c-0.51,0.07-0.86,0.16-1.07,0.25
		c-0.21,0.09-0.37,0.22-0.49,0.4c-0.11,0.17-0.17,0.37-0.17,0.58c0,0.33,0.12,0.6,0.37,0.82c0.25,0.22,0.61,0.33,1.09,0.33
		c0.47,0,0.9-0.1,1.26-0.31c0.37-0.21,0.64-0.49,0.81-0.85c0.13-0.28,0.2-0.69,0.2-1.23V41.09z"/>
	<path d="M141.36,44.73h-1.14V34.71h1.23v3.58c0.52-0.65,1.18-0.98,1.99-0.98c0.45,0,0.87,0.09,1.27,0.27
		c0.4,0.18,0.73,0.43,0.98,0.76c0.26,0.33,0.46,0.72,0.61,1.18c0.15,0.46,0.22,0.95,0.22,1.48c0,1.24-0.31,2.21-0.92,2.88
		c-0.62,0.68-1.35,1.02-2.21,1.02c-0.86,0-1.53-0.36-2.02-1.07V44.73z M141.34,41.05c0,0.87,0.12,1.5,0.36,1.89
		c0.39,0.63,0.91,0.95,1.57,0.95c0.54,0,1-0.23,1.39-0.7c0.39-0.47,0.59-1.16,0.59-2.09c0-0.95-0.19-1.65-0.56-2.1
		s-0.83-0.68-1.36-0.68c-0.54,0-1,0.23-1.39,0.7C141.54,39.49,141.34,40.17,141.34,41.05z"/>
	<path d="M148.02,36.13v-1.42h1.23v1.42H148.02z M148.02,44.73v-7.26h1.23v7.26H148.02z"/>
	<path d="M151.09,44.73V34.71h1.23v10.02H151.09z"/>
	<path d="M154.24,36.13v-1.42h1.23v1.42H154.24z M154.24,44.73v-7.26h1.23v7.26H154.24z"/>
	<path d="M162.05,44.73v-0.92c-0.46,0.72-1.14,1.08-2.03,1.08c-0.58,0-1.11-0.16-1.6-0.48c-0.49-0.32-0.86-0.76-1.13-1.34
		c-0.27-0.57-0.4-1.23-0.4-1.97c0-0.72,0.12-1.38,0.36-1.97c0.24-0.59,0.6-1.04,1.09-1.36c0.48-0.31,1.02-0.47,1.62-0.47
		c0.44,0,0.83,0.09,1.17,0.28s0.62,0.42,0.83,0.72v-3.6h1.22v10.02H162.05z M158.16,41.11c0,0.93,0.2,1.62,0.59,2.08
		c0.39,0.46,0.85,0.69,1.39,0.69c0.54,0,0.99-0.22,1.37-0.66c0.38-0.44,0.56-1.11,0.56-2.01c0-0.99-0.19-1.72-0.57-2.19
		s-0.85-0.7-1.42-0.7c-0.55,0-1,0.22-1.37,0.67C158.34,39.45,158.16,40.15,158.16,41.11z"/>
	<path d="M169.86,43.84c-0.46,0.39-0.89,0.66-1.32,0.82c-0.42,0.16-0.87,0.24-1.36,0.24c-0.8,0-1.41-0.19-1.84-0.58
		c-0.43-0.39-0.64-0.89-0.64-1.49c0-0.36,0.08-0.68,0.24-0.97c0.16-0.29,0.37-0.53,0.64-0.71c0.26-0.18,0.56-0.31,0.89-0.4
		c0.24-0.06,0.61-0.12,1.09-0.18c0.99-0.12,1.72-0.26,2.19-0.42c0-0.17,0.01-0.28,0.01-0.32c0-0.5-0.12-0.85-0.35-1.06
		c-0.31-0.28-0.78-0.42-1.4-0.42c-0.58,0-1.01,0.1-1.28,0.3c-0.28,0.2-0.48,0.56-0.61,1.08l-1.2-0.16c0.11-0.51,0.29-0.93,0.54-1.25
		c0.25-0.32,0.61-0.56,1.09-0.73c0.47-0.17,1.02-0.26,1.65-0.26c0.62,0,1.12,0.07,1.51,0.22c0.39,0.15,0.67,0.33,0.85,0.55
		c0.18,0.22,0.31,0.5,0.38,0.84c0.04,0.21,0.06,0.59,0.06,1.13v1.64c0,1.14,0.03,1.87,0.08,2.17c0.05,0.3,0.16,0.59,0.31,0.87h-1.29
		C169.98,44.48,169.9,44.18,169.86,43.84z M169.76,41.09c-0.45,0.18-1.12,0.34-2.01,0.46c-0.51,0.07-0.86,0.16-1.07,0.25
		c-0.21,0.09-0.37,0.22-0.49,0.4c-0.11,0.17-0.17,0.37-0.17,0.58c0,0.33,0.12,0.6,0.37,0.82c0.25,0.22,0.61,0.33,1.09,0.33
		c0.47,0,0.9-0.1,1.26-0.31c0.37-0.21,0.64-0.49,0.81-0.85c0.13-0.28,0.2-0.69,0.2-1.23V41.09z"/>
	<path d="M177.62,44.73v-0.92c-0.46,0.72-1.14,1.08-2.03,1.08c-0.58,0-1.11-0.16-1.6-0.48c-0.49-0.32-0.86-0.76-1.13-1.34
		c-0.27-0.57-0.4-1.23-0.4-1.97c0-0.72,0.12-1.38,0.36-1.97c0.24-0.59,0.6-1.04,1.09-1.36c0.48-0.31,1.02-0.47,1.62-0.47
		c0.44,0,0.83,0.09,1.17,0.28s0.62,0.42,0.83,0.72v-3.6h1.22v10.02H177.62z M173.73,41.11c0,0.93,0.2,1.62,0.59,2.08
		c0.39,0.46,0.85,0.69,1.39,0.69c0.54,0,0.99-0.22,1.37-0.66c0.38-0.44,0.56-1.11,0.56-2.01c0-0.99-0.19-1.72-0.57-2.19
		s-0.85-0.7-1.42-0.7c-0.55,0-1,0.22-1.37,0.67C173.92,39.45,173.73,40.15,173.73,41.11z"/>
</g>
<g>
	<path d="M9.65,62.99l1.33,0.33c-0.28,1.09-0.78,1.92-1.5,2.49c-0.72,0.57-1.61,0.86-2.65,0.86c-1.08,0-1.96-0.22-2.64-0.66
		C3.52,65.58,3,64.94,2.65,64.11s-0.53-1.73-0.53-2.69c0-1.04,0.2-1.95,0.6-2.73c0.4-0.78,0.97-1.37,1.7-1.77s1.55-0.61,2.43-0.61
		c1,0,1.85,0.26,2.53,0.77c0.68,0.51,1.16,1.23,1.43,2.15L9.5,59.54c-0.23-0.73-0.57-1.26-1.01-1.59c-0.44-0.33-1-0.5-1.67-0.5
		c-0.77,0-1.41,0.18-1.93,0.55s-0.88,0.87-1.09,1.49c-0.21,0.62-0.31,1.26-0.31,1.92c0,0.85,0.12,1.6,0.37,2.23s0.63,1.11,1.16,1.42
		c0.52,0.31,1.09,0.47,1.7,0.47c0.74,0,1.37-0.21,1.89-0.64C9.12,64.47,9.47,63.84,9.65,62.99z"/>
	<path d="M12,62.88c0-1.34,0.37-2.34,1.12-2.99c0.62-0.54,1.38-0.81,2.28-0.81c1,0,1.81,0.33,2.45,0.98
		c0.63,0.65,0.95,1.56,0.95,2.71c0,0.93-0.14,1.67-0.42,2.21c-0.28,0.54-0.69,0.95-1.22,1.25c-0.54,0.3-1.12,0.44-1.75,0.44
		c-1.02,0-1.84-0.33-2.46-0.98C12.31,65.04,12,64.1,12,62.88z M13.26,62.88c0,0.93,0.2,1.63,0.61,2.09
		c0.41,0.46,0.92,0.69,1.53,0.69c0.61,0,1.12-0.23,1.52-0.7c0.41-0.46,0.61-1.17,0.61-2.13c0-0.9-0.21-1.58-0.61-2.04
		c-0.41-0.46-0.92-0.69-1.52-0.69c-0.62,0-1.13,0.23-1.53,0.69C13.46,61.25,13.26,61.95,13.26,62.88z"/>
	<path d="M20.24,66.51v-7.26h1.11v1.03c0.53-0.8,1.3-1.2,2.31-1.2c0.44,0,0.84,0.08,1.21,0.24s0.64,0.36,0.82,0.62
		c0.18,0.26,0.31,0.56,0.38,0.91c0.05,0.23,0.07,0.63,0.07,1.2v4.46h-1.23v-4.42c0-0.5-0.05-0.88-0.14-1.12
		c-0.1-0.25-0.27-0.45-0.51-0.59c-0.24-0.15-0.53-0.22-0.86-0.22c-0.52,0-0.98,0.17-1.36,0.5c-0.38,0.33-0.57,0.96-0.57,1.89v3.96
		H20.24z"/>
	<path d="M30.71,65.41l0.18,1.09c-0.35,0.07-0.66,0.11-0.93,0.11c-0.45,0-0.79-0.07-1.04-0.21c-0.25-0.14-0.42-0.33-0.52-0.56
		c-0.1-0.23-0.15-0.71-0.15-1.45V60.2h-0.9v-0.96h0.9v-1.8l1.22-0.74v2.54h1.24v0.96h-1.24v4.25c0,0.35,0.02,0.58,0.07,0.68
		c0.04,0.1,0.11,0.18,0.21,0.24c0.1,0.06,0.24,0.09,0.42,0.09C30.31,65.45,30.49,65.44,30.71,65.41z"/>
	<path d="M36.65,65.61c-0.46,0.39-0.89,0.66-1.32,0.82c-0.42,0.16-0.87,0.24-1.36,0.24c-0.8,0-1.41-0.19-1.84-0.58
		c-0.43-0.39-0.64-0.89-0.64-1.49c0-0.36,0.08-0.68,0.24-0.97s0.37-0.53,0.64-0.71s0.56-0.31,0.88-0.4
		c0.24-0.06,0.61-0.12,1.09-0.18c0.99-0.12,1.73-0.26,2.2-0.42c0-0.17,0.01-0.28,0.01-0.32c0-0.5-0.12-0.85-0.35-1.06
		c-0.31-0.28-0.78-0.42-1.4-0.42c-0.58,0-1.01,0.1-1.28,0.3c-0.28,0.2-0.48,0.56-0.61,1.08l-1.2-0.16c0.11-0.51,0.29-0.93,0.54-1.25
		c0.25-0.32,0.61-0.56,1.09-0.73c0.47-0.17,1.02-0.26,1.65-0.26c0.62,0,1.12,0.07,1.51,0.22c0.39,0.15,0.67,0.33,0.85,0.55
		c0.18,0.22,0.31,0.5,0.38,0.84c0.04,0.21,0.06,0.59,0.06,1.13v1.64c0,1.14,0.03,1.87,0.08,2.17c0.05,0.3,0.16,0.59,0.31,0.87H36.9
		C36.77,66.25,36.69,65.95,36.65,65.61z M36.55,62.86c-0.45,0.18-1.12,0.34-2.01,0.46c-0.51,0.07-0.86,0.16-1.07,0.25
		c-0.21,0.09-0.37,0.22-0.48,0.4c-0.11,0.17-0.17,0.37-0.17,0.58c0,0.33,0.12,0.6,0.37,0.82s0.61,0.33,1.09,0.33
		c0.47,0,0.9-0.1,1.27-0.31c0.37-0.21,0.64-0.49,0.81-0.85c0.13-0.28,0.2-0.69,0.2-1.23V62.86z"/>
	<path d="M44.41,66.51v-0.92c-0.46,0.72-1.14,1.08-2.03,1.08c-0.58,0-1.11-0.16-1.6-0.48c-0.49-0.32-0.86-0.76-1.13-1.34
		c-0.27-0.57-0.4-1.23-0.4-1.97c0-0.72,0.12-1.38,0.36-1.97c0.24-0.59,0.6-1.04,1.09-1.36c0.48-0.31,1.02-0.47,1.62-0.47
		c0.44,0,0.83,0.09,1.17,0.28s0.62,0.42,0.83,0.72v-3.6h1.22v10.02H44.41z M40.52,62.88c0,0.93,0.2,1.62,0.59,2.08
		c0.39,0.46,0.86,0.69,1.39,0.69c0.54,0,0.99-0.22,1.37-0.66c0.38-0.44,0.56-1.11,0.56-2.01c0-0.99-0.19-1.72-0.57-2.19
		s-0.85-0.7-1.41-0.7c-0.55,0-1,0.22-1.37,0.67C40.71,61.22,40.52,61.92,40.52,62.88z"/>
	<path d="M47.03,62.88c0-1.34,0.37-2.34,1.12-2.99c0.62-0.54,1.39-0.81,2.28-0.81c1,0,1.81,0.33,2.45,0.98
		c0.63,0.65,0.95,1.56,0.95,2.71c0,0.93-0.14,1.67-0.42,2.21c-0.28,0.54-0.69,0.95-1.22,1.25c-0.54,0.3-1.12,0.44-1.75,0.44
		c-1.02,0-1.84-0.33-2.46-0.98C47.34,65.04,47.03,64.1,47.03,62.88z M48.29,62.88c0,0.93,0.2,1.63,0.61,2.09
		c0.41,0.46,0.92,0.69,1.53,0.69c0.61,0,1.12-0.23,1.53-0.7c0.41-0.46,0.61-1.17,0.61-2.13c0-0.9-0.2-1.58-0.61-2.04
		c-0.41-0.46-0.92-0.69-1.52-0.69c-0.62,0-1.12,0.23-1.53,0.69C48.5,61.25,48.29,61.95,48.29,62.88z"/>
	<path d="M55.26,66.51v-7.26h1.11v1.1c0.28-0.51,0.54-0.85,0.78-1.02s0.5-0.25,0.79-0.25c0.42,0,0.84,0.13,1.27,0.4l-0.42,1.14
		c-0.3-0.18-0.6-0.27-0.9-0.27c-0.27,0-0.51,0.08-0.72,0.24c-0.21,0.16-0.37,0.39-0.46,0.67c-0.14,0.44-0.21,0.92-0.21,1.44v3.8
		H55.26z"/>
	<path d="M64.67,65.61c-0.46,0.39-0.89,0.66-1.32,0.82c-0.42,0.16-0.87,0.24-1.36,0.24c-0.8,0-1.41-0.19-1.84-0.58
		c-0.43-0.39-0.64-0.89-0.64-1.49c0-0.36,0.08-0.68,0.24-0.97s0.37-0.53,0.64-0.71s0.56-0.31,0.89-0.4
		c0.24-0.06,0.61-0.12,1.09-0.18c0.99-0.12,1.72-0.26,2.19-0.42c0-0.17,0.01-0.28,0.01-0.32c0-0.5-0.12-0.85-0.35-1.06
		c-0.31-0.28-0.78-0.42-1.4-0.42c-0.58,0-1.01,0.1-1.28,0.3c-0.28,0.2-0.48,0.56-0.61,1.08l-1.2-0.16c0.11-0.51,0.29-0.93,0.54-1.25
		c0.25-0.32,0.61-0.56,1.09-0.73c0.47-0.17,1.02-0.26,1.65-0.26c0.62,0,1.12,0.07,1.51,0.22c0.39,0.15,0.67,0.33,0.86,0.55
		c0.18,0.22,0.31,0.5,0.38,0.84c0.04,0.21,0.06,0.59,0.06,1.13v1.64c0,1.14,0.03,1.87,0.08,2.17c0.05,0.3,0.16,0.59,0.31,0.87h-1.29
		C64.79,66.25,64.71,65.95,64.67,65.61z M64.57,62.86c-0.45,0.18-1.12,0.34-2.01,0.46c-0.51,0.07-0.86,0.16-1.07,0.25
		c-0.21,0.09-0.37,0.22-0.49,0.4c-0.11,0.17-0.17,0.37-0.17,0.58c0,0.33,0.12,0.6,0.37,0.82s0.61,0.33,1.09,0.33
		c0.47,0,0.89-0.1,1.26-0.31c0.37-0.21,0.64-0.49,0.81-0.85c0.13-0.28,0.2-0.69,0.2-1.23V62.86z"/>
	<path d="M71.97,69.45V56.31h1.07v13.14H71.97z"/>
	<path d="M83.98,62.58V61.4l4.25-0.01v3.72c-0.65,0.52-1.32,0.91-2.02,1.17c-0.69,0.26-1.4,0.39-2.13,0.39
		c-0.98,0-1.88-0.21-2.68-0.63c-0.8-0.42-1.41-1.03-1.82-1.83c-0.41-0.8-0.62-1.69-0.62-2.67c0-0.97,0.2-1.89,0.61-2.73
		c0.41-0.85,0.99-1.47,1.76-1.88s1.65-0.62,2.65-0.62c0.72,0,1.38,0.12,1.96,0.35c0.59,0.23,1.04,0.56,1.38,0.98
		c0.33,0.42,0.59,0.97,0.76,1.64l-1.2,0.33c-0.15-0.51-0.34-0.91-0.56-1.2c-0.22-0.29-0.54-0.53-0.96-0.7
		c-0.41-0.18-0.88-0.26-1.38-0.26c-0.61,0-1.13,0.09-1.57,0.28c-0.44,0.18-0.8,0.43-1.07,0.73s-0.48,0.63-0.63,0.99
		c-0.26,0.62-0.38,1.29-0.38,2.02c0,0.89,0.15,1.64,0.46,2.24s0.76,1.05,1.34,1.34c0.59,0.29,1.21,0.44,1.87,0.44
		c0.57,0,1.13-0.11,1.68-0.33c0.55-0.22,0.96-0.46,1.24-0.71v-1.87H83.98z"/>
	<path d="M89.08,66.51l3.85-10.02h1.43l4.1,10.02h-1.51l-1.17-3.04h-4.19l-1.1,3.04H89.08z M91.98,62.39h3.4l-1.04-2.78
		c-0.32-0.84-0.56-1.54-0.71-2.08c-0.13,0.64-0.31,1.28-0.54,1.91L91.98,62.39z"/>
	<path d="M99.47,66.51V56.49h3.76c0.77,0,1.38,0.1,1.84,0.3c0.46,0.2,0.82,0.51,1.09,0.94c0.26,0.42,0.39,0.86,0.39,1.32
		c0,0.43-0.12,0.83-0.35,1.21c-0.23,0.38-0.58,0.68-1.05,0.92c0.61,0.18,1.07,0.48,1.4,0.91c0.33,0.43,0.49,0.93,0.49,1.52
		c0,0.47-0.1,0.91-0.3,1.31s-0.44,0.71-0.73,0.93c-0.29,0.22-0.66,0.38-1.1,0.5c-0.44,0.11-0.98,0.17-1.62,0.17H99.47z M100.79,60.7
		h2.17c0.59,0,1.01-0.04,1.27-0.12c0.34-0.1,0.59-0.27,0.76-0.5s0.26-0.52,0.26-0.88c0-0.33-0.08-0.62-0.24-0.88
		c-0.16-0.25-0.39-0.43-0.68-0.52c-0.3-0.09-0.8-0.14-1.53-0.14h-2V60.7z M100.79,65.32h2.49c0.43,0,0.73-0.02,0.9-0.05
		c0.31-0.05,0.56-0.15,0.77-0.27c0.21-0.13,0.37-0.31,0.51-0.56c0.13-0.24,0.2-0.53,0.2-0.84c0-0.37-0.1-0.7-0.29-0.97
		c-0.19-0.28-0.46-0.47-0.8-0.58c-0.34-0.11-0.83-0.17-1.47-0.17h-2.32V65.32z"/>
	<path d="M107.76,66.51l3.85-10.02h1.43l4.1,10.02h-1.51l-1.17-3.04h-4.19l-1.1,3.04H107.76z M110.65,62.39h3.4L113,59.62
		c-0.32-0.84-0.56-1.54-0.71-2.08c-0.13,0.64-0.31,1.28-0.54,1.91L110.65,62.39z"/>
	<path d="M118.22,66.51V56.49h4.44c0.89,0,1.57,0.09,2.04,0.27c0.46,0.18,0.84,0.5,1.12,0.95c0.28,0.46,0.42,0.96,0.42,1.51
		c0,0.71-0.23,1.31-0.69,1.8c-0.46,0.49-1.17,0.8-2.13,0.93c0.35,0.17,0.62,0.33,0.8,0.5c0.39,0.36,0.75,0.8,1.1,1.33l1.74,2.73
		h-1.67l-1.33-2.08c-0.39-0.6-0.71-1.06-0.96-1.38c-0.25-0.32-0.47-0.54-0.67-0.67c-0.2-0.13-0.4-0.22-0.6-0.27
		c-0.15-0.03-0.4-0.05-0.74-0.05h-1.54v4.45H118.22z M119.54,60.91h2.85c0.61,0,1.08-0.06,1.42-0.19c0.34-0.13,0.6-0.33,0.78-0.6
		c0.18-0.28,0.27-0.58,0.27-0.9c0-0.47-0.17-0.86-0.52-1.17c-0.34-0.3-0.89-0.46-1.63-0.46h-3.17V60.91z"/>
</g>
</svg>
