<?xml version="1.0" encoding="utf-8"?>
<!-- Generator: Adobe Illustrator 25.4.1, SVG Export Plug-In . SVG Version: 6.00 Build 0)  -->
<svg version="1.1" id="Capa_1" xmlns="http://www.w3.org/2000/svg" xmlns:xlink="http://www.w3.org/1999/xlink" x="0px" y="0px"
	 viewBox="0 0 330 77.61" style="enable-background:new 0 0 330 77.61;" xml:space="preserve">
<style type="text/css">
	.st0{fill:#3F3E3E;}
</style>
<g>
	<path d="M2.89,22.86V10.79h2.46v10.02h6.11v2.05H2.89z"/>
	<path d="M13.19,12.85v-2.16h2.33v2.16H13.19z M13.19,22.86v-8.82h2.33v8.82H13.19z"/>
	<path d="M25.6,16.65l-2.3,0.42c-0.08-0.46-0.25-0.8-0.53-1.04c-0.27-0.23-0.63-0.35-1.07-0.35c-0.58,0-1.04,0.2-1.39,0.6
		c-0.35,0.4-0.52,1.07-0.52,2.01c0,1.05,0.18,1.79,0.53,2.22s0.82,0.65,1.42,0.65c0.44,0,0.81-0.13,1.09-0.38
		c0.28-0.25,0.48-0.68,0.6-1.3l2.29,0.39c-0.24,1.05-0.69,1.85-1.37,2.38c-0.68,0.54-1.58,0.8-2.71,0.8c-1.29,0-2.32-0.41-3.08-1.22
		s-1.15-1.94-1.15-3.38c0-1.46,0.38-2.59,1.15-3.4c0.77-0.81,1.81-1.22,3.12-1.22c1.07,0,1.93,0.23,2.56,0.69S25.32,15.7,25.6,16.65
		z"/>
	<path d="M27.37,22.86v-2.33h2.33v2.33H27.37z"/>
	<path d="M36.8,22.86V10.69h3.68l2.21,8.3l2.18-8.3h3.69v12.17h-2.28v-9.58l-2.42,9.58h-2.37l-2.41-9.58v9.58H36.8z"/>
	<path d="M52.72,16.73l-2.12-0.38c0.24-0.85,0.65-1.48,1.23-1.89c0.58-0.41,1.44-0.61,2.59-0.61c1.04,0,1.81,0.12,2.32,0.37
		c0.51,0.25,0.87,0.56,1.07,0.94s0.31,1.08,0.31,2.09l-0.02,2.72c0,0.77,0.04,1.35,0.11,1.71s0.21,0.76,0.42,1.18h-2.31
		c-0.06-0.15-0.13-0.38-0.22-0.69c-0.04-0.14-0.07-0.23-0.08-0.27c-0.4,0.39-0.82,0.68-1.28,0.87c-0.45,0.19-0.94,0.29-1.45,0.29
		c-0.91,0-1.62-0.25-2.15-0.74c-0.52-0.49-0.78-1.12-0.78-1.87c0-0.5,0.12-0.94,0.36-1.33c0.24-0.39,0.57-0.69,1-0.9
		c0.43-0.21,1.05-0.39,1.86-0.54c1.09-0.2,1.85-0.4,2.27-0.57v-0.23c0-0.45-0.11-0.77-0.33-0.96c-0.22-0.19-0.64-0.29-1.25-0.29
		c-0.42,0-0.74,0.08-0.97,0.24C53.05,16.04,52.86,16.32,52.72,16.73z M55.84,18.62c-0.3,0.1-0.77,0.22-1.42,0.36
		c-0.65,0.14-1.07,0.27-1.27,0.41c-0.3,0.22-0.46,0.49-0.46,0.82c0,0.33,0.12,0.61,0.37,0.85c0.24,0.24,0.55,0.36,0.93,0.36
		c0.42,0,0.82-0.14,1.2-0.42c0.28-0.21,0.47-0.47,0.56-0.77c0.06-0.2,0.09-0.58,0.09-1.14V18.62z"/>
	<path d="M66.23,22.86v-1.32c-0.32,0.47-0.74,0.84-1.27,1.11c-0.52,0.27-1.08,0.41-1.66,0.41c-0.59,0-1.12-0.13-1.59-0.39
		c-0.47-0.26-0.81-0.63-1.02-1.1c-0.21-0.47-0.32-1.12-0.32-1.95v-5.58h2.33v4.05c0,1.24,0.04,2,0.13,2.28
		c0.08,0.28,0.24,0.5,0.47,0.66c0.23,0.16,0.51,0.25,0.86,0.25c0.4,0,0.75-0.11,1.07-0.33c0.31-0.22,0.53-0.49,0.65-0.81
		c0.12-0.32,0.17-1.12,0.17-2.38v-3.72h2.33v8.82H66.23z"/>
	<path d="M73.05,22.86h-2.33v-8.82h2.17v1.25c0.37-0.59,0.7-0.98,1-1.17c0.3-0.19,0.63-0.28,1.01-0.28c0.53,0,1.04,0.15,1.54,0.44
		l-0.72,2.03c-0.39-0.25-0.76-0.38-1.1-0.38c-0.33,0-0.6,0.09-0.83,0.27c-0.23,0.18-0.41,0.51-0.54,0.98
		c-0.13,0.47-0.2,1.46-0.2,2.96V22.86z"/>
	<path d="M77.43,12.85v-2.16h2.33v2.16H77.43z M77.43,22.86v-8.82h2.33v8.82H77.43z"/>
	<path d="M89.84,16.65l-2.3,0.42c-0.08-0.46-0.25-0.8-0.53-1.04c-0.27-0.23-0.63-0.35-1.07-0.35c-0.58,0-1.04,0.2-1.39,0.6
		c-0.35,0.4-0.52,1.07-0.52,2.01c0,1.05,0.18,1.79,0.53,2.22c0.35,0.43,0.82,0.65,1.41,0.65c0.44,0,0.81-0.13,1.09-0.38
		s0.48-0.68,0.6-1.3l2.29,0.39c-0.24,1.05-0.69,1.85-1.37,2.38c-0.68,0.54-1.58,0.8-2.71,0.8c-1.29,0-2.32-0.41-3.08-1.22
		c-0.77-0.81-1.15-1.94-1.15-3.38c0-1.46,0.38-2.59,1.15-3.4c0.77-0.81,1.81-1.22,3.12-1.22c1.07,0,1.93,0.23,2.56,0.69
		C89.11,15,89.56,15.7,89.84,16.65z"/>
	<path d="M91.61,12.85v-2.16h2.33v2.16H91.61z M91.61,22.86v-8.82h2.33v8.82H91.61z"/>
	<path d="M95.79,18.33c0-0.77,0.19-1.52,0.57-2.25c0.38-0.73,0.92-1.28,1.62-1.66c0.7-0.38,1.48-0.57,2.34-0.57
		c1.33,0,2.43,0.43,3.28,1.3c0.85,0.87,1.28,1.96,1.28,3.28c0,1.33-0.43,2.44-1.29,3.32c-0.86,0.88-1.94,1.32-3.25,1.32
		c-0.81,0-1.58-0.18-2.31-0.55c-0.73-0.37-1.29-0.9-1.67-1.61C95.98,20.2,95.79,19.34,95.79,18.33z M98.18,18.45
		c0,0.87,0.21,1.54,0.62,2.01s0.93,0.7,1.54,0.7c0.61,0,1.12-0.23,1.53-0.7s0.62-1.14,0.62-2.03c0-0.86-0.21-1.53-0.62-1.99
		c-0.41-0.46-0.92-0.7-1.53-0.7c-0.61,0-1.12,0.23-1.54,0.7C98.39,16.91,98.18,17.58,98.18,18.45z"/>
	<path d="M111.42,22.86V10.69h3.68l2.21,8.3l2.18-8.3h3.69v12.17h-2.28v-9.58l-2.42,9.58h-2.37l-2.41-9.58v9.58H111.42z"/>
	<path d="M125.6,22.86v-2.33h2.33v2.33H125.6z"/>
	<path d="M143.13,22.86h-2.17v-1.29c-0.36,0.5-0.78,0.88-1.27,1.12s-0.98,0.37-1.48,0.37c-1.01,0-1.88-0.41-2.6-1.22
		c-0.72-0.82-1.08-1.95-1.08-3.42c0-1.49,0.35-2.63,1.05-3.41c0.7-0.78,1.59-1.17,2.66-1.17c0.99,0,1.84,0.41,2.56,1.23v-4.38h2.33
		V22.86z M136.9,18.26c0,0.94,0.13,1.62,0.39,2.04c0.38,0.61,0.9,0.91,1.58,0.91c0.54,0,0.99-0.23,1.37-0.68
		c0.38-0.46,0.56-1.14,0.56-2.05c0-1.01-0.18-1.74-0.55-2.19c-0.37-0.45-0.83-0.67-1.4-0.67c-0.55,0-1.02,0.22-1.39,0.66
		C137.09,16.73,136.9,17.39,136.9,18.26z"/>
	<path d="M150.53,20.05l2.32,0.39c-0.3,0.85-0.77,1.5-1.42,1.95s-1.45,0.67-2.42,0.67c-1.53,0-2.67-0.5-3.4-1.5
		c-0.58-0.8-0.87-1.82-0.87-3.04c0-1.46,0.38-2.61,1.15-3.43s1.73-1.24,2.9-1.24c1.31,0,2.35,0.43,3.1,1.3
		c0.76,0.87,1.12,2.19,1.09,3.98h-5.84c0.02,0.69,0.21,1.23,0.56,1.61c0.36,0.38,0.81,0.58,1.35,0.58c0.37,0,0.67-0.1,0.92-0.3
		S150.41,20.5,150.53,20.05z M150.67,17.69c-0.02-0.67-0.19-1.19-0.52-1.54c-0.33-0.35-0.74-0.53-1.21-0.53
		c-0.51,0-0.93,0.19-1.26,0.56c-0.33,0.37-0.49,0.88-0.49,1.51H150.67z"/>
	<path d="M154.88,22.86V10.69h2.33v12.17H154.88z"/>
	<path d="M168.74,10.69h2.45v7.7c0,1.01-0.09,1.78-0.27,2.32c-0.24,0.71-0.67,1.28-1.29,1.71s-1.45,0.64-2.47,0.64
		c-1.2,0-2.12-0.34-2.77-1.01c-0.65-0.67-0.97-1.66-0.98-2.96l2.32-0.27c0.03,0.7,0.13,1.19,0.31,1.48
		c0.27,0.44,0.67,0.66,1.21,0.66c0.55,0,0.93-0.16,1.16-0.47s0.34-0.96,0.34-1.95V10.69z"/>
	<path d="M178.89,20.05l2.32,0.39c-0.3,0.85-0.77,1.5-1.42,1.95s-1.45,0.67-2.42,0.67c-1.53,0-2.67-0.5-3.4-1.5
		c-0.58-0.8-0.87-1.82-0.87-3.04c0-1.46,0.38-2.61,1.15-3.43s1.73-1.24,2.9-1.24c1.31,0,2.35,0.43,3.1,1.3
		c0.76,0.87,1.12,2.19,1.09,3.98h-5.84c0.02,0.69,0.21,1.23,0.56,1.61c0.36,0.38,0.81,0.58,1.35,0.58c0.37,0,0.67-0.1,0.92-0.3
		S178.76,20.5,178.89,20.05z M179.02,17.69c-0.02-0.67-0.19-1.19-0.52-1.54c-0.33-0.35-0.74-0.53-1.21-0.53
		c-0.51,0-0.93,0.19-1.26,0.56c-0.33,0.37-0.49,0.88-0.49,1.51H179.02z"/>
	<path d="M182.42,20.34l2.34-0.36c0.1,0.45,0.3,0.8,0.61,1.03c0.3,0.24,0.73,0.35,1.28,0.35c0.6,0,1.06-0.11,1.36-0.33
		c0.21-0.16,0.31-0.36,0.31-0.62c0-0.18-0.05-0.32-0.17-0.44c-0.12-0.11-0.38-0.21-0.78-0.31c-1.88-0.42-3.07-0.79-3.58-1.14
		c-0.7-0.48-1.05-1.14-1.05-1.98c0-0.76,0.3-1.41,0.91-1.93c0.6-0.52,1.54-0.78,2.8-0.78c1.21,0,2.1,0.2,2.69,0.59
		c0.59,0.39,0.99,0.97,1.21,1.74l-2.2,0.41c-0.09-0.34-0.27-0.61-0.54-0.79c-0.26-0.18-0.64-0.27-1.12-0.27
		c-0.61,0-1.05,0.09-1.32,0.26c-0.18,0.12-0.27,0.28-0.27,0.47c0,0.17,0.08,0.31,0.23,0.42c0.21,0.15,0.94,0.37,2.18,0.66
		c1.24,0.28,2.11,0.63,2.6,1.04c0.49,0.42,0.73,0.99,0.73,1.73c0,0.81-0.34,1.5-1.01,2.08c-0.67,0.58-1.67,0.87-3,0.87
		c-1.2,0-2.15-0.24-2.85-0.73C183.09,21.84,182.63,21.18,182.42,20.34z"/>
	<path d="M198.5,22.86v-1.32c-0.32,0.47-0.74,0.84-1.27,1.11c-0.52,0.27-1.08,0.41-1.66,0.41c-0.59,0-1.12-0.13-1.59-0.39
		c-0.47-0.26-0.81-0.63-1.02-1.1c-0.21-0.47-0.31-1.12-0.31-1.95v-5.58h2.33v4.05c0,1.24,0.04,2,0.13,2.28
		c0.09,0.28,0.24,0.5,0.47,0.66c0.23,0.16,0.51,0.25,0.86,0.25c0.4,0,0.76-0.11,1.07-0.33c0.32-0.22,0.53-0.49,0.65-0.81
		c0.12-0.32,0.17-1.12,0.17-2.38v-3.72h2.33v8.82H198.5z M195.47,12.96l1.15-2.48h2.61l-2.28,2.48H195.47z"/>
	<path d="M202.26,20.34l2.34-0.36c0.1,0.45,0.3,0.8,0.61,1.03c0.3,0.24,0.73,0.35,1.28,0.35c0.6,0,1.06-0.11,1.36-0.33
		c0.2-0.16,0.31-0.36,0.31-0.62c0-0.18-0.06-0.32-0.17-0.44c-0.12-0.11-0.38-0.21-0.78-0.31c-1.88-0.42-3.07-0.79-3.58-1.14
		c-0.7-0.48-1.05-1.14-1.05-1.98c0-0.76,0.3-1.41,0.9-1.93c0.6-0.52,1.54-0.78,2.81-0.78c1.21,0,2.1,0.2,2.69,0.59
		c0.59,0.39,0.99,0.97,1.21,1.74l-2.2,0.41c-0.09-0.34-0.27-0.61-0.54-0.79c-0.26-0.18-0.64-0.27-1.12-0.27
		c-0.61,0-1.05,0.09-1.32,0.26c-0.18,0.12-0.27,0.28-0.27,0.47c0,0.17,0.08,0.31,0.23,0.42c0.21,0.15,0.94,0.37,2.18,0.66
		s2.11,0.63,2.6,1.04c0.49,0.42,0.73,0.99,0.73,1.73c0,0.81-0.34,1.5-1.01,2.08c-0.68,0.58-1.67,0.87-3,0.87
		c-1.2,0-2.15-0.24-2.85-0.73C202.93,21.84,202.47,21.18,202.26,20.34z"/>
	<path d="M217.28,22.86V10.69h5.17c1.3,0,2.25,0.11,2.83,0.33s1.06,0.61,1.42,1.17c0.35,0.56,0.53,1.2,0.53,1.92
		c0,0.91-0.27,1.67-0.81,2.26c-0.54,0.59-1.34,0.97-2.41,1.12c0.53,0.31,0.97,0.65,1.31,1.02c0.35,0.37,0.81,1.03,1.4,1.98
		l1.49,2.37h-2.94l-1.78-2.65c-0.63-0.95-1.06-1.54-1.29-1.79s-0.48-0.42-0.74-0.51c-0.26-0.09-0.67-0.14-1.24-0.14h-0.5v5.08
		H217.28z M219.74,15.84h1.82c1.18,0,1.92-0.05,2.21-0.15s0.52-0.27,0.69-0.51c0.17-0.24,0.25-0.55,0.25-0.91
		c0-0.41-0.11-0.74-0.33-0.99c-0.22-0.25-0.53-0.41-0.92-0.48c-0.2-0.03-0.8-0.04-1.79-0.04h-1.92V15.84z"/>
	<path d="M229.53,12.85v-2.16h2.33v2.16H229.53z M229.53,22.86v-8.82h2.33v8.82H229.53z"/>
	<path d="M236.68,22.86l-3.55-8.82h2.45l1.66,4.5l0.48,1.5c0.13-0.38,0.21-0.63,0.24-0.76c0.08-0.25,0.16-0.5,0.25-0.75l1.68-4.5
		h2.4l-3.5,8.82H236.68z"/>
	<path d="M245.45,16.73l-2.12-0.38c0.24-0.85,0.65-1.48,1.23-1.89c0.58-0.41,1.44-0.61,2.59-0.61c1.04,0,1.82,0.12,2.32,0.37
		c0.51,0.25,0.87,0.56,1.08,0.94c0.21,0.38,0.31,1.08,0.31,2.09l-0.02,2.72c0,0.77,0.04,1.35,0.11,1.71
		c0.07,0.37,0.21,0.76,0.42,1.18h-2.31c-0.06-0.15-0.14-0.38-0.22-0.69c-0.04-0.14-0.07-0.23-0.08-0.27
		c-0.4,0.39-0.83,0.68-1.28,0.87c-0.45,0.19-0.94,0.29-1.45,0.29c-0.91,0-1.62-0.25-2.15-0.74c-0.52-0.49-0.79-1.12-0.79-1.87
		c0-0.5,0.12-0.94,0.36-1.33c0.24-0.39,0.57-0.69,1-0.9c0.43-0.21,1.05-0.39,1.86-0.54c1.09-0.2,1.85-0.4,2.27-0.57v-0.23
		c0-0.45-0.11-0.77-0.33-0.96c-0.22-0.19-0.64-0.29-1.25-0.29c-0.42,0-0.74,0.08-0.97,0.24C245.79,16.04,245.6,16.32,245.45,16.73z
		 M248.57,18.62c-0.3,0.1-0.77,0.22-1.42,0.36c-0.65,0.14-1.07,0.27-1.27,0.41c-0.3,0.22-0.46,0.49-0.46,0.82
		c0,0.33,0.12,0.61,0.37,0.85c0.24,0.24,0.55,0.36,0.93,0.36c0.42,0,0.82-0.14,1.2-0.42c0.28-0.21,0.47-0.47,0.56-0.77
		c0.06-0.2,0.09-0.58,0.09-1.14V18.62z"/>
	<path d="M252.34,20.34l2.34-0.36c0.1,0.45,0.3,0.8,0.61,1.03c0.3,0.24,0.73,0.35,1.28,0.35c0.6,0,1.06-0.11,1.36-0.33
		c0.21-0.16,0.31-0.36,0.31-0.62c0-0.18-0.05-0.32-0.17-0.44c-0.12-0.11-0.38-0.21-0.78-0.31c-1.88-0.42-3.07-0.79-3.58-1.14
		c-0.7-0.48-1.05-1.14-1.05-1.98c0-0.76,0.3-1.41,0.91-1.93c0.6-0.52,1.54-0.78,2.8-0.78c1.21,0,2.1,0.2,2.69,0.59
		c0.59,0.39,0.99,0.97,1.21,1.74l-2.2,0.41c-0.09-0.34-0.27-0.61-0.54-0.79c-0.26-0.18-0.64-0.27-1.12-0.27
		c-0.61,0-1.05,0.09-1.32,0.26c-0.18,0.12-0.27,0.28-0.27,0.47c0,0.17,0.08,0.31,0.23,0.42c0.21,0.15,0.94,0.37,2.18,0.66
		c1.24,0.28,2.11,0.63,2.6,1.04c0.49,0.42,0.73,0.99,0.73,1.73c0,0.81-0.34,1.5-1.01,2.08c-0.67,0.58-1.67,0.87-3,0.87
		c-1.2,0-2.15-0.24-2.85-0.73C253.02,21.84,252.56,21.18,252.34,20.34z"/>
	<path d="M267.37,10.69h4.87c0.96,0,1.68,0.04,2.15,0.12c0.47,0.08,0.9,0.25,1.27,0.5c0.37,0.25,0.68,0.59,0.93,1.02
		c0.25,0.42,0.37,0.9,0.37,1.42c0,0.57-0.15,1.09-0.46,1.57c-0.31,0.48-0.72,0.83-1.25,1.07c0.74,0.22,1.31,0.58,1.71,1.1
		c0.4,0.52,0.6,1.13,0.6,1.83c0,0.55-0.13,1.09-0.38,1.61c-0.26,0.52-0.61,0.94-1.05,1.25c-0.45,0.31-1,0.51-1.65,0.58
		c-0.41,0.04-1.4,0.07-2.96,0.08h-4.14V10.69z M269.82,12.71v2.81h1.61c0.96,0,1.55-0.01,1.78-0.04c0.42-0.05,0.75-0.2,0.99-0.44
		c0.24-0.24,0.36-0.56,0.36-0.95c0-0.38-0.1-0.68-0.31-0.92c-0.21-0.23-0.52-0.38-0.93-0.43c-0.24-0.03-0.94-0.04-2.1-0.04H269.82z
		 M269.82,17.55v3.25h2.28c0.88,0,1.45-0.03,1.68-0.08c0.37-0.07,0.66-0.23,0.89-0.49c0.23-0.26,0.35-0.6,0.35-1.03
		c0-0.37-0.09-0.68-0.27-0.93c-0.18-0.25-0.43-0.44-0.77-0.56c-0.34-0.12-1.06-0.17-2.18-0.17H269.82z"/>
	<path d="M281.36,16.73l-2.12-0.38c0.24-0.85,0.65-1.48,1.23-1.89c0.58-0.41,1.44-0.61,2.59-0.61c1.04,0,1.81,0.12,2.32,0.37
		c0.51,0.25,0.87,0.56,1.08,0.94c0.21,0.38,0.31,1.08,0.31,2.09l-0.03,2.72c0,0.77,0.04,1.35,0.11,1.71
		c0.07,0.37,0.21,0.76,0.42,1.18h-2.31c-0.06-0.15-0.14-0.38-0.22-0.69c-0.04-0.14-0.07-0.23-0.08-0.27
		c-0.4,0.39-0.82,0.68-1.28,0.87c-0.45,0.19-0.94,0.29-1.45,0.29c-0.91,0-1.62-0.25-2.15-0.74c-0.52-0.49-0.78-1.12-0.78-1.87
		c0-0.5,0.12-0.94,0.36-1.33c0.24-0.39,0.57-0.69,1-0.9c0.43-0.21,1.05-0.39,1.86-0.54c1.09-0.2,1.85-0.4,2.27-0.57v-0.23
		c0-0.45-0.11-0.77-0.33-0.96c-0.22-0.19-0.64-0.29-1.25-0.29c-0.42,0-0.74,0.08-0.97,0.24C281.7,16.04,281.51,16.32,281.36,16.73z
		 M284.48,18.62c-0.3,0.1-0.77,0.22-1.42,0.36c-0.65,0.14-1.07,0.27-1.27,0.41c-0.3,0.22-0.46,0.49-0.46,0.82
		c0,0.33,0.12,0.61,0.37,0.85c0.24,0.24,0.55,0.36,0.93,0.36c0.42,0,0.82-0.14,1.2-0.42c0.28-0.21,0.47-0.47,0.56-0.77
		c0.06-0.2,0.09-0.58,0.09-1.14V18.62z"/>
	<path d="M293.12,14.04v1.86h-1.59v3.55c0,0.72,0.01,1.14,0.04,1.26c0.03,0.12,0.1,0.22,0.21,0.29c0.11,0.08,0.24,0.12,0.39,0.12
		c0.22,0,0.53-0.08,0.94-0.22l0.2,1.81c-0.54,0.23-1.16,0.35-1.84,0.35c-0.42,0-0.8-0.07-1.14-0.21c-0.34-0.14-0.59-0.32-0.74-0.55
		c-0.16-0.22-0.27-0.53-0.33-0.91c-0.05-0.27-0.08-0.82-0.08-1.64V15.9h-1.07v-1.86h1.07v-1.75l2.34-1.36v3.11H293.12z"/>
	<path d="M294.74,12.85v-2.16h2.33v2.16H294.74z M294.74,22.86v-8.82h2.33v8.82H294.74z"/>
	<path d="M298.64,20.34l2.34-0.36c0.1,0.45,0.3,0.8,0.61,1.03c0.3,0.24,0.73,0.35,1.28,0.35c0.6,0,1.06-0.11,1.36-0.33
		c0.21-0.16,0.31-0.36,0.31-0.62c0-0.18-0.06-0.32-0.17-0.44c-0.12-0.11-0.38-0.21-0.78-0.31c-1.88-0.42-3.07-0.79-3.58-1.14
		c-0.7-0.48-1.04-1.14-1.04-1.98c0-0.76,0.3-1.41,0.9-1.93c0.6-0.52,1.54-0.78,2.81-0.78c1.21,0,2.1,0.2,2.69,0.59
		c0.59,0.39,0.99,0.97,1.21,1.74l-2.2,0.41c-0.09-0.34-0.27-0.61-0.54-0.79s-0.64-0.27-1.12-0.27c-0.62,0-1.05,0.09-1.32,0.26
		c-0.18,0.12-0.27,0.28-0.27,0.47c0,0.17,0.08,0.31,0.23,0.42c0.21,0.15,0.94,0.37,2.18,0.66c1.24,0.28,2.11,0.63,2.6,1.04
		c0.49,0.42,0.73,0.99,0.73,1.73c0,0.81-0.34,1.5-1.01,2.08s-1.67,0.87-3,0.87c-1.2,0-2.15-0.24-2.85-0.73
		C299.31,21.84,298.85,21.18,298.64,20.34z"/>
	<path d="M312.96,14.04v1.86h-1.59v3.55c0,0.72,0.02,1.14,0.05,1.26c0.03,0.12,0.1,0.22,0.21,0.29c0.11,0.08,0.24,0.12,0.39,0.12
		c0.21,0,0.53-0.08,0.94-0.22l0.2,1.81c-0.54,0.23-1.16,0.35-1.84,0.35c-0.42,0-0.8-0.07-1.14-0.21c-0.34-0.14-0.58-0.32-0.74-0.55
		c-0.16-0.22-0.27-0.53-0.33-0.91c-0.05-0.27-0.07-0.82-0.07-1.64V15.9h-1.07v-1.86h1.07v-1.75l2.34-1.36v3.11H312.96z"/>
	<path d="M316.32,16.73l-2.12-0.38c0.24-0.85,0.65-1.48,1.23-1.89c0.58-0.41,1.44-0.61,2.59-0.61c1.04,0,1.81,0.12,2.32,0.37
		c0.51,0.25,0.87,0.56,1.07,0.94s0.31,1.08,0.31,2.09l-0.02,2.72c0,0.77,0.04,1.35,0.11,1.71s0.21,0.76,0.42,1.18h-2.31
		c-0.06-0.15-0.13-0.38-0.22-0.69c-0.04-0.14-0.07-0.23-0.08-0.27c-0.4,0.39-0.82,0.68-1.28,0.87c-0.45,0.19-0.94,0.29-1.45,0.29
		c-0.91,0-1.62-0.25-2.15-0.74c-0.52-0.49-0.78-1.12-0.78-1.87c0-0.5,0.12-0.94,0.36-1.33c0.24-0.39,0.57-0.69,1-0.9
		c0.43-0.21,1.05-0.39,1.86-0.54c1.09-0.2,1.85-0.4,2.27-0.57v-0.23c0-0.45-0.11-0.77-0.33-0.96c-0.22-0.19-0.64-0.29-1.25-0.29
		c-0.42,0-0.74,0.08-0.97,0.24C316.65,16.04,316.46,16.32,316.32,16.73z M319.44,18.62c-0.3,0.1-0.77,0.22-1.42,0.36
		c-0.65,0.14-1.07,0.27-1.27,0.41c-0.3,0.22-0.46,0.49-0.46,0.82c0,0.33,0.12,0.61,0.37,0.85c0.24,0.24,0.55,0.36,0.93,0.36
		c0.42,0,0.82-0.14,1.2-0.42c0.28-0.21,0.47-0.47,0.56-0.77c0.06-0.2,0.09-0.58,0.09-1.14V18.62z"/>
</g>
<g>
	<path d="M2.62,44.73V34.71h3.45c0.78,0,1.37,0.05,1.78,0.14c0.57,0.13,1.06,0.37,1.47,0.72c0.53,0.45,0.92,1.02,1.19,1.71
		c0.26,0.69,0.39,1.49,0.39,2.38c0,0.76-0.09,1.44-0.27,2.02s-0.41,1.07-0.68,1.46c-0.28,0.38-0.58,0.69-0.91,0.91
		c-0.33,0.22-0.73,0.39-1.2,0.5c-0.47,0.11-1,0.17-1.61,0.17H2.62z M3.95,43.55h2.14c0.66,0,1.18-0.06,1.55-0.18s0.68-0.3,0.9-0.52
		c0.31-0.31,0.56-0.74,0.73-1.27c0.18-0.53,0.26-1.17,0.26-1.93c0-1.05-0.17-1.85-0.52-2.42c-0.34-0.56-0.76-0.94-1.25-1.13
		c-0.36-0.14-0.93-0.21-1.72-0.21H3.95V43.55z"/>
	<path d="M12.58,36.13v-1.42h1.23v1.42H12.58z M12.58,44.73v-7.26h1.23v7.26H12.58z"/>
	<path d="M15.67,44.73v-7.26h1.11v1.1c0.28-0.51,0.54-0.85,0.78-1.02s0.5-0.25,0.79-0.25c0.41,0,0.84,0.13,1.26,0.4l-0.42,1.14
		c-0.3-0.18-0.6-0.27-0.9-0.27c-0.27,0-0.51,0.08-0.72,0.24c-0.21,0.16-0.37,0.39-0.46,0.67c-0.14,0.44-0.21,0.92-0.21,1.44v3.8
		H15.67z"/>
	<path d="M25.32,42.4l1.27,0.16c-0.2,0.74-0.57,1.32-1.11,1.73c-0.54,0.41-1.24,0.62-2.08,0.62c-1.06,0-1.9-0.33-2.53-0.98
		c-0.62-0.65-0.93-1.57-0.93-2.75c0-1.22,0.31-2.17,0.94-2.84c0.63-0.67,1.44-1.01,2.45-1.01c0.97,0,1.76,0.33,2.38,0.99
		c0.62,0.66,0.92,1.59,0.92,2.79c0,0.07,0,0.18-0.01,0.33h-5.41c0.04,0.8,0.27,1.41,0.68,1.83c0.41,0.42,0.91,0.64,1.52,0.64
		c0.45,0,0.84-0.12,1.16-0.36C24.88,43.29,25.13,42.92,25.32,42.4z M21.28,40.41h4.05c-0.05-0.61-0.21-1.07-0.46-1.37
		c-0.39-0.47-0.9-0.71-1.52-0.71c-0.57,0-1.04,0.19-1.43,0.57C21.53,39.27,21.32,39.77,21.28,40.41z"/>
	<path d="M32.87,42.07l1.21,0.16c-0.13,0.83-0.47,1.49-1.02,1.96c-0.54,0.47-1.21,0.71-2.01,0.71c-0.99,0-1.79-0.32-2.4-0.97
		c-0.6-0.65-0.91-1.58-0.91-2.79c0-0.78,0.13-1.47,0.39-2.06s0.66-1.03,1.19-1.32c0.53-0.29,1.11-0.44,1.73-0.44
		c0.79,0,1.43,0.2,1.93,0.6c0.5,0.4,0.82,0.96,0.96,1.7l-1.2,0.18c-0.11-0.49-0.32-0.85-0.61-1.1c-0.29-0.25-0.64-0.37-1.05-0.37
		c-0.62,0-1.12,0.22-1.51,0.67c-0.39,0.44-0.58,1.15-0.58,2.11c0,0.98,0.19,1.68,0.56,2.13c0.37,0.44,0.86,0.66,1.46,0.66
		c0.48,0,0.89-0.15,1.21-0.44C32.58,43.15,32.78,42.69,32.87,42.07z"/>
	<path d="M37.82,43.63L38,44.72c-0.35,0.07-0.66,0.11-0.93,0.11c-0.45,0-0.79-0.07-1.04-0.21c-0.25-0.14-0.42-0.33-0.52-0.56
		c-0.1-0.23-0.15-0.71-0.15-1.45v-4.18h-0.9v-0.96h0.9v-1.8l1.22-0.74v2.54h1.24v0.96h-1.24v4.25c0,0.35,0.02,0.58,0.06,0.68
		c0.04,0.1,0.11,0.18,0.21,0.24c0.1,0.06,0.24,0.09,0.42,0.09C37.42,43.68,37.6,43.67,37.82,43.63z"/>
	<path d="M38.57,41.1c0-1.34,0.37-2.34,1.12-2.99c0.62-0.54,1.38-0.81,2.28-0.81c1,0,1.81,0.33,2.45,0.98
		c0.63,0.65,0.95,1.56,0.95,2.71c0,0.93-0.14,1.67-0.42,2.21c-0.28,0.54-0.69,0.95-1.22,1.25c-0.54,0.3-1.12,0.44-1.75,0.44
		c-1.02,0-1.84-0.33-2.46-0.98C38.88,43.27,38.57,42.33,38.57,41.1z M39.83,41.1c0,0.93,0.2,1.63,0.61,2.09
		c0.41,0.46,0.92,0.69,1.53,0.69c0.61,0,1.12-0.23,1.52-0.7c0.41-0.46,0.61-1.17,0.61-2.13c0-0.9-0.2-1.58-0.61-2.04
		c-0.41-0.46-0.92-0.69-1.52-0.69c-0.62,0-1.13,0.23-1.53,0.69C40.03,39.48,39.83,40.17,39.83,41.1z"/>
	<path d="M46.8,44.73v-7.26h1.11v1.1c0.28-0.51,0.54-0.85,0.78-1.02s0.5-0.25,0.79-0.25c0.41,0,0.84,0.13,1.26,0.4l-0.42,1.14
		c-0.3-0.18-0.6-0.27-0.9-0.27c-0.27,0-0.51,0.08-0.72,0.24c-0.21,0.16-0.37,0.39-0.46,0.67c-0.14,0.44-0.21,0.92-0.21,1.44v3.8
		H46.8z"/>
	<path d="M53.65,44.73l3.85-10.02h1.43l4.1,10.02h-1.51l-1.17-3.04h-4.19l-1.1,3.04H53.65z M56.54,40.62h3.4l-1.05-2.78
		c-0.32-0.84-0.56-1.54-0.71-2.08c-0.13,0.64-0.31,1.28-0.54,1.91L56.54,40.62z"/>
	<path d="M68.64,44.73v-0.92c-0.46,0.72-1.14,1.08-2.03,1.08c-0.58,0-1.11-0.16-1.6-0.48c-0.49-0.32-0.86-0.76-1.13-1.34
		c-0.27-0.57-0.4-1.23-0.4-1.97c0-0.72,0.12-1.38,0.36-1.97c0.24-0.59,0.6-1.04,1.09-1.36c0.48-0.31,1.02-0.47,1.62-0.47
		c0.44,0,0.83,0.09,1.17,0.28s0.62,0.42,0.83,0.72v-3.6h1.22v10.02H68.64z M64.75,41.11c0,0.93,0.2,1.62,0.59,2.08
		c0.39,0.46,0.85,0.69,1.39,0.69c0.54,0,0.99-0.22,1.37-0.66c0.38-0.44,0.56-1.11,0.56-2.01c0-0.99-0.19-1.72-0.57-2.19
		s-0.85-0.7-1.42-0.7c-0.55,0-1,0.22-1.37,0.67C64.93,39.45,64.75,40.15,64.75,41.11z"/>
	<path d="M71.71,44.73v-7.26h1.1v1.02c0.23-0.36,0.53-0.64,0.91-0.86c0.38-0.22,0.81-0.33,1.29-0.33c0.54,0,0.98,0.11,1.32,0.33
		c0.34,0.22,0.59,0.54,0.73,0.94c0.57-0.85,1.32-1.27,2.24-1.27c0.72,0,1.27,0.2,1.66,0.6c0.39,0.4,0.58,1.01,0.58,1.84v4.98h-1.22
		v-4.57c0-0.49-0.04-0.85-0.12-1.06c-0.08-0.22-0.22-0.39-0.43-0.52c-0.21-0.13-0.46-0.2-0.74-0.2c-0.51,0-0.93,0.17-1.27,0.51
		c-0.34,0.34-0.51,0.88-0.51,1.63v4.22h-1.23v-4.72c0-0.55-0.1-0.96-0.3-1.23c-0.2-0.27-0.53-0.41-0.98-0.41
		c-0.35,0-0.67,0.09-0.96,0.27c-0.29,0.18-0.51,0.45-0.64,0.8c-0.13,0.35-0.2,0.86-0.2,1.52v3.77H71.71z"/>
	<path d="M83.38,36.13v-1.42h1.23v1.42H83.38z M83.38,44.73v-7.26h1.23v7.26H83.38z"/>
	<path d="M86.49,44.73v-7.26h1.11v1.03c0.53-0.8,1.3-1.2,2.31-1.2c0.44,0,0.84,0.08,1.21,0.24c0.37,0.16,0.64,0.36,0.82,0.62
		c0.18,0.26,0.31,0.56,0.38,0.91c0.04,0.23,0.07,0.63,0.07,1.2v4.46h-1.23v-4.42c0-0.5-0.05-0.88-0.14-1.12
		c-0.1-0.25-0.27-0.45-0.51-0.59c-0.24-0.15-0.53-0.22-0.86-0.22c-0.52,0-0.98,0.17-1.36,0.5c-0.38,0.33-0.57,0.96-0.57,1.89v3.96
		H86.49z"/>
	<path d="M94.28,36.13v-1.42h1.23v1.42H94.28z M94.28,44.73v-7.26h1.23v7.26H94.28z"/>
	<path d="M96.89,42.57l1.22-0.19c0.07,0.49,0.26,0.86,0.57,1.12c0.31,0.26,0.75,0.39,1.31,0.39c0.56,0,0.98-0.12,1.26-0.34
		c0.27-0.23,0.41-0.5,0.41-0.81c0-0.28-0.12-0.5-0.36-0.66c-0.17-0.11-0.59-0.25-1.26-0.42c-0.9-0.23-1.53-0.42-1.88-0.59
		c-0.35-0.17-0.61-0.4-0.79-0.69c-0.18-0.29-0.27-0.62-0.27-0.97c0-0.32,0.07-0.62,0.22-0.9c0.15-0.28,0.35-0.5,0.61-0.69
		c0.19-0.14,0.45-0.26,0.78-0.36c0.33-0.1,0.68-0.15,1.06-0.15c0.57,0,1.07,0.08,1.5,0.25s0.75,0.39,0.95,0.67s0.35,0.66,0.42,1.12
		l-1.2,0.16c-0.05-0.37-0.21-0.67-0.48-0.88c-0.26-0.21-0.63-0.31-1.11-0.31c-0.57,0-0.97,0.09-1.21,0.28
		c-0.24,0.19-0.36,0.41-0.36,0.66c0,0.16,0.05,0.3,0.15,0.43c0.1,0.13,0.26,0.24,0.47,0.33c0.12,0.05,0.49,0.15,1.09,0.31
		c0.87,0.23,1.48,0.42,1.82,0.57c0.34,0.15,0.61,0.36,0.81,0.65c0.2,0.28,0.29,0.63,0.29,1.05c0,0.41-0.12,0.8-0.36,1.16
		s-0.58,0.64-1.04,0.84s-0.96,0.3-1.53,0.3c-0.94,0-1.66-0.2-2.16-0.59C97.34,43.92,97.03,43.34,96.89,42.57z"/>
	<path d="M107.07,43.63l0.18,1.09c-0.35,0.07-0.66,0.11-0.93,0.11c-0.45,0-0.79-0.07-1.04-0.21c-0.25-0.14-0.42-0.33-0.52-0.56
		c-0.1-0.23-0.15-0.71-0.15-1.45v-4.18h-0.9v-0.96h0.9v-1.8l1.22-0.74v2.54h1.24v0.96h-1.24v4.25c0,0.35,0.02,0.58,0.06,0.68
		c0.04,0.1,0.11,0.18,0.21,0.24c0.1,0.06,0.24,0.09,0.42,0.09C106.67,43.68,106.84,43.67,107.07,43.63z"/>
	<path d="M108.26,44.73v-7.26h1.11v1.1c0.28-0.51,0.54-0.85,0.78-1.02s0.5-0.25,0.79-0.25c0.41,0,0.84,0.13,1.26,0.4l-0.42,1.14
		c-0.3-0.18-0.6-0.27-0.9-0.27c-0.27,0-0.51,0.08-0.72,0.24c-0.21,0.16-0.37,0.39-0.46,0.67c-0.14,0.44-0.21,0.92-0.21,1.44v3.8
		H108.26z"/>
	<path d="M117.67,43.84c-0.46,0.39-0.89,0.66-1.32,0.82c-0.42,0.16-0.87,0.24-1.36,0.24c-0.8,0-1.41-0.19-1.84-0.58
		c-0.43-0.39-0.64-0.89-0.64-1.49c0-0.36,0.08-0.68,0.24-0.97c0.16-0.29,0.37-0.53,0.64-0.71c0.26-0.18,0.56-0.31,0.89-0.4
		c0.24-0.06,0.61-0.12,1.09-0.18c0.99-0.12,1.72-0.26,2.19-0.42c0-0.17,0.01-0.28,0.01-0.32c0-0.5-0.12-0.85-0.35-1.06
		c-0.31-0.28-0.78-0.42-1.4-0.42c-0.58,0-1.01,0.1-1.28,0.3c-0.28,0.2-0.48,0.56-0.61,1.08l-1.2-0.16c0.11-0.51,0.29-0.93,0.54-1.25
		c0.25-0.32,0.61-0.56,1.09-0.73c0.47-0.17,1.02-0.26,1.65-0.26c0.62,0,1.12,0.07,1.51,0.22c0.39,0.15,0.67,0.33,0.85,0.55
		c0.18,0.22,0.31,0.5,0.38,0.84c0.04,0.21,0.06,0.59,0.06,1.13v1.64c0,1.14,0.03,1.87,0.08,2.17c0.05,0.3,0.16,0.59,0.31,0.87h-1.29
		C117.79,44.48,117.71,44.18,117.67,43.84z M117.57,41.09c-0.45,0.18-1.12,0.34-2.01,0.46c-0.51,0.07-0.86,0.16-1.07,0.25
		c-0.21,0.09-0.37,0.22-0.49,0.4c-0.11,0.17-0.17,0.37-0.17,0.58c0,0.33,0.12,0.6,0.37,0.82c0.25,0.22,0.61,0.33,1.09,0.33
		c0.47,0,0.9-0.1,1.26-0.31c0.37-0.21,0.64-0.49,0.81-0.85c0.13-0.28,0.2-0.69,0.2-1.23V41.09z"/>
	<path d="M123.41,43.63l0.18,1.09c-0.35,0.07-0.66,0.11-0.93,0.11c-0.45,0-0.79-0.07-1.04-0.21c-0.25-0.14-0.42-0.33-0.52-0.56
		c-0.1-0.23-0.15-0.71-0.15-1.45v-4.18h-0.9v-0.96h0.9v-1.8l1.22-0.74v2.54h1.24v0.96h-1.24v4.25c0,0.35,0.02,0.58,0.06,0.68
		c0.04,0.1,0.11,0.18,0.21,0.24c0.1,0.06,0.24,0.09,0.42,0.09C123,43.68,123.18,43.67,123.41,43.63z"/>
	<path d="M124.62,36.13v-1.42h1.23v1.42H124.62z M124.62,44.73v-7.26h1.23v7.26H124.62z"/>
	<path d="M129.74,44.73l-2.76-7.26h1.3l1.56,4.35c0.17,0.47,0.32,0.96,0.46,1.46c0.11-0.38,0.26-0.84,0.46-1.38l1.61-4.43h1.26
		l-2.75,7.26H129.74z"/>
	<path d="M134.26,41.1c0-1.34,0.37-2.34,1.12-2.99c0.62-0.54,1.38-0.81,2.28-0.81c1,0,1.81,0.33,2.45,0.98
		c0.63,0.65,0.95,1.56,0.95,2.71c0,0.93-0.14,1.67-0.42,2.21c-0.28,0.54-0.69,0.95-1.22,1.25c-0.54,0.3-1.12,0.44-1.75,0.44
		c-1.02,0-1.84-0.33-2.46-0.98C134.58,43.27,134.26,42.33,134.26,41.1z M135.53,41.1c0,0.93,0.2,1.63,0.61,2.09
		c0.41,0.46,0.92,0.69,1.53,0.69c0.61,0,1.12-0.23,1.52-0.7c0.41-0.46,0.61-1.17,0.61-2.13c0-0.9-0.2-1.58-0.61-2.04
		c-0.41-0.46-0.92-0.69-1.52-0.69c-0.62,0-1.13,0.23-1.53,0.69C135.73,39.48,135.53,40.17,135.53,41.1z"/>
</g>
<g>
	<path d="M2.5,66.51V56.49h3.45c0.78,0,1.37,0.05,1.78,0.14C8.31,56.76,8.8,57,9.21,57.35c0.53,0.45,0.92,1.02,1.19,1.71
		c0.26,0.7,0.39,1.49,0.39,2.38c0,0.76-0.09,1.44-0.27,2.02s-0.41,1.07-0.68,1.46c-0.28,0.39-0.58,0.69-0.91,0.91
		c-0.33,0.22-0.73,0.39-1.2,0.5c-0.47,0.11-1,0.17-1.61,0.17H2.5z M3.83,65.32h2.14c0.66,0,1.18-0.06,1.55-0.18s0.68-0.3,0.9-0.52
		c0.31-0.31,0.56-0.74,0.74-1.27c0.17-0.53,0.26-1.17,0.26-1.93c0-1.05-0.17-1.85-0.52-2.42c-0.34-0.56-0.76-0.94-1.25-1.13
		c-0.36-0.14-0.93-0.21-1.72-0.21H3.83V65.32z"/>
	<path d="M12.46,57.9v-1.42h1.23v1.42H12.46z M12.46,66.51v-7.26h1.23v7.26H12.46z"/>
	<path d="M15.55,66.51v-7.26h1.11v1.1c0.28-0.52,0.54-0.85,0.78-1.02s0.5-0.25,0.79-0.25c0.41,0,0.84,0.13,1.26,0.4l-0.42,1.14
		c-0.3-0.18-0.6-0.27-0.9-0.27c-0.27,0-0.51,0.08-0.72,0.24c-0.21,0.16-0.37,0.39-0.46,0.67c-0.14,0.44-0.21,0.92-0.21,1.44v3.8
		H15.55z"/>
	<path d="M25.2,64.17l1.27,0.16c-0.2,0.74-0.57,1.32-1.11,1.73c-0.54,0.41-1.24,0.62-2.08,0.62c-1.06,0-1.9-0.33-2.53-0.98
		c-0.62-0.65-0.93-1.57-0.93-2.75c0-1.22,0.31-2.17,0.94-2.84c0.63-0.67,1.44-1.01,2.45-1.01c0.97,0,1.76,0.33,2.38,0.99
		c0.62,0.66,0.92,1.59,0.92,2.79c0,0.07,0,0.18-0.01,0.33h-5.41c0.04,0.8,0.27,1.41,0.68,1.83c0.41,0.42,0.91,0.64,1.52,0.64
		c0.45,0,0.84-0.12,1.16-0.36C24.76,65.07,25.01,64.69,25.2,64.17z M21.16,62.18h4.05c-0.05-0.61-0.21-1.07-0.46-1.37
		c-0.39-0.47-0.9-0.71-1.52-0.71c-0.57,0-1.04,0.19-1.43,0.57C21.41,61.04,21.2,61.55,21.16,62.18z"/>
	<path d="M32.75,63.85l1.21,0.16c-0.13,0.83-0.47,1.49-1.01,1.96s-1.21,0.71-2.01,0.71c-0.99,0-1.79-0.33-2.4-0.97
		s-0.91-1.58-0.91-2.79c0-0.78,0.13-1.47,0.39-2.06s0.66-1.03,1.19-1.32s1.11-0.44,1.73-0.44c0.79,0,1.43,0.2,1.93,0.6
		c0.5,0.4,0.82,0.96,0.96,1.7l-1.2,0.18c-0.11-0.49-0.31-0.85-0.6-1.1s-0.64-0.37-1.05-0.37c-0.62,0-1.12,0.22-1.51,0.67
		c-0.39,0.44-0.58,1.15-0.58,2.11c0,0.97,0.19,1.68,0.56,2.13c0.37,0.44,0.86,0.66,1.46,0.66c0.48,0,0.89-0.15,1.21-0.44
		C32.46,64.92,32.66,64.46,32.75,63.85z"/>
	<path d="M39.75,63.85l1.21,0.16c-0.13,0.83-0.47,1.49-1.01,1.96s-1.21,0.71-2.01,0.71c-0.99,0-1.79-0.33-2.4-0.97
		s-0.91-1.58-0.91-2.79c0-0.78,0.13-1.47,0.39-2.06s0.66-1.03,1.19-1.32s1.11-0.44,1.73-0.44c0.79,0,1.43,0.2,1.93,0.6
		c0.5,0.4,0.82,0.96,0.96,1.7l-1.2,0.18c-0.11-0.49-0.31-0.85-0.6-1.1s-0.64-0.37-1.05-0.37c-0.62,0-1.12,0.22-1.51,0.67
		c-0.39,0.44-0.58,1.15-0.58,2.11c0,0.97,0.19,1.68,0.56,2.13c0.37,0.44,0.86,0.66,1.46,0.66c0.48,0,0.89-0.15,1.21-0.44
		C39.46,64.92,39.66,64.46,39.75,63.85z"/>
	<path d="M42.02,57.9v-1.42h1.23v1.42H42.02z M42.02,66.51v-7.26h1.23v7.26H42.02z"/>
	<path d="M44.66,62.88c0-1.34,0.37-2.34,1.12-2.99c0.62-0.54,1.39-0.81,2.28-0.81c1,0,1.81,0.33,2.45,0.98
		c0.63,0.65,0.95,1.56,0.95,2.71c0,0.93-0.14,1.67-0.42,2.2c-0.28,0.54-0.69,0.95-1.22,1.25c-0.54,0.3-1.12,0.44-1.75,0.44
		c-1.02,0-1.84-0.33-2.46-0.98C44.98,65.04,44.66,64.1,44.66,62.88z M45.93,62.88c0,0.93,0.2,1.63,0.61,2.09
		c0.41,0.46,0.92,0.69,1.53,0.69c0.61,0,1.12-0.23,1.53-0.7c0.41-0.46,0.61-1.17,0.61-2.13c0-0.9-0.2-1.58-0.61-2.04
		c-0.41-0.46-0.92-0.69-1.52-0.69c-0.62,0-1.12,0.23-1.53,0.69C46.13,61.25,45.93,61.95,45.93,62.88z M47.38,58.35l0.91-1.91h1.61
		l-1.5,1.91H47.38z"/>
	<path d="M52.91,66.51v-7.26h1.11v1.03c0.53-0.8,1.3-1.2,2.31-1.2c0.44,0,0.84,0.08,1.21,0.24s0.64,0.36,0.82,0.62
		c0.18,0.25,0.31,0.56,0.38,0.91c0.04,0.23,0.07,0.63,0.07,1.2v4.46h-1.23v-4.42c0-0.5-0.05-0.88-0.14-1.12
		c-0.1-0.25-0.27-0.45-0.51-0.59c-0.24-0.15-0.53-0.22-0.86-0.22c-0.52,0-0.98,0.17-1.36,0.5c-0.38,0.33-0.57,0.96-0.57,1.89v3.96
		H52.91z"/>
	<path d="M64.95,69.45V56.32h1.07v13.14H64.95z"/>
	<path d="M76.96,62.58V61.4l4.25-0.01v3.72c-0.65,0.52-1.32,0.91-2.02,1.17c-0.69,0.26-1.4,0.39-2.13,0.39
		c-0.98,0-1.88-0.21-2.68-0.63c-0.8-0.42-1.41-1.03-1.82-1.83c-0.41-0.8-0.62-1.69-0.62-2.67c0-0.98,0.2-1.89,0.61-2.73
		c0.41-0.84,0.99-1.47,1.76-1.88s1.65-0.62,2.65-0.62c0.72,0,1.38,0.12,1.96,0.35c0.59,0.24,1.04,0.56,1.38,0.98
		c0.33,0.42,0.59,0.97,0.76,1.64l-1.2,0.33c-0.15-0.51-0.34-0.91-0.56-1.2c-0.22-0.29-0.54-0.53-0.96-0.7
		c-0.41-0.17-0.88-0.26-1.38-0.26c-0.61,0-1.13,0.09-1.57,0.28c-0.44,0.18-0.8,0.43-1.07,0.73s-0.48,0.63-0.63,0.99
		c-0.26,0.62-0.38,1.29-0.38,2.02c0,0.89,0.15,1.64,0.46,2.24s0.76,1.05,1.34,1.34c0.59,0.29,1.21,0.44,1.87,0.44
		c0.57,0,1.13-0.11,1.68-0.33c0.55-0.22,0.96-0.46,1.24-0.71v-1.87H76.96z"/>
	<path d="M82.06,66.51l3.85-10.02h1.43l4.1,10.02h-1.51l-1.17-3.04h-4.19l-1.1,3.04H82.06z M84.95,62.39h3.4l-1.04-2.78
		c-0.32-0.84-0.56-1.54-0.71-2.08c-0.13,0.64-0.31,1.28-0.54,1.91L84.95,62.39z"/>
	<path d="M92.44,66.51V56.49h3.76c0.77,0,1.38,0.1,1.84,0.3c0.46,0.2,0.82,0.52,1.09,0.94c0.26,0.42,0.39,0.86,0.39,1.32
		c0,0.43-0.12,0.83-0.35,1.21c-0.23,0.38-0.58,0.68-1.05,0.92c0.61,0.18,1.07,0.48,1.4,0.91c0.33,0.43,0.49,0.93,0.49,1.52
		c0,0.47-0.1,0.91-0.3,1.31s-0.44,0.71-0.73,0.93c-0.29,0.22-0.66,0.38-1.1,0.5c-0.44,0.11-0.98,0.17-1.62,0.17H92.44z M93.77,60.7
		h2.17c0.59,0,1.01-0.04,1.27-0.12c0.34-0.1,0.59-0.27,0.76-0.5s0.26-0.52,0.26-0.88c0-0.33-0.08-0.63-0.24-0.88
		c-0.16-0.25-0.39-0.43-0.68-0.52c-0.3-0.09-0.8-0.14-1.53-0.14h-2V60.7z M93.77,65.32h2.49c0.43,0,0.73-0.02,0.9-0.05
		c0.31-0.05,0.56-0.15,0.77-0.27c0.21-0.13,0.37-0.31,0.51-0.56c0.13-0.24,0.2-0.53,0.2-0.84c0-0.37-0.1-0.7-0.29-0.97
		c-0.19-0.28-0.46-0.47-0.8-0.58c-0.34-0.11-0.83-0.17-1.47-0.17h-2.32V65.32z"/>
	<path d="M100.73,66.51l3.85-10.02h1.43l4.1,10.02h-1.51l-1.17-3.04h-4.19l-1.1,3.04H100.73z M103.62,62.39h3.4l-1.04-2.78
		c-0.32-0.84-0.56-1.54-0.71-2.08c-0.13,0.64-0.31,1.28-0.54,1.91L103.62,62.39z"/>
	<path d="M111.19,66.51V56.49h4.44c0.89,0,1.57,0.09,2.04,0.27c0.46,0.18,0.84,0.5,1.12,0.95c0.28,0.46,0.42,0.96,0.42,1.51
		c0,0.71-0.23,1.31-0.69,1.8c-0.46,0.49-1.17,0.8-2.13,0.93c0.35,0.17,0.62,0.33,0.8,0.5c0.39,0.36,0.75,0.8,1.1,1.33l1.74,2.73
		h-1.67l-1.33-2.08c-0.39-0.6-0.71-1.06-0.96-1.38c-0.25-0.32-0.47-0.54-0.67-0.67c-0.2-0.13-0.4-0.22-0.6-0.27
		c-0.15-0.03-0.4-0.05-0.74-0.05h-1.54v4.45H111.19z M112.52,60.91h2.85c0.61,0,1.08-0.06,1.42-0.19c0.34-0.12,0.6-0.33,0.78-0.6
		c0.18-0.28,0.27-0.58,0.27-0.9c0-0.47-0.17-0.86-0.52-1.17c-0.34-0.31-0.89-0.46-1.63-0.46h-3.17V60.91z"/>
</g>
</svg>
