<?xml version="1.0" encoding="utf-8"?>
<!-- Generator: Adobe Illustrator 25.4.1, SVG Export Plug-In . SVG Version: 6.00 Build 0)  -->
<svg version="1.1" id="Capa_1" xmlns="http://www.w3.org/2000/svg" xmlns:xlink="http://www.w3.org/1999/xlink" x="0px" y="0px"
	 viewBox="0 0 175 7" style="enable-background:new 0 0 175 7;" xml:space="preserve">
<style type="text/css">
	.st0{fill:#3F3E3E;}
</style>
<g>
	<path class="st0" d="M4.25,3.74l0.66,0.17C4.77,4.45,4.52,4.87,4.16,5.16C3.8,5.44,3.36,5.58,2.83,5.58
		c-0.54,0-0.98-0.11-1.32-0.33C1.18,5.04,0.92,4.72,0.74,4.3C0.57,3.88,0.48,3.43,0.48,2.96c0-0.52,0.1-0.98,0.3-1.37
		c0.2-0.39,0.48-0.68,0.85-0.89C2,0.5,2.4,0.4,2.84,0.4c0.5,0,0.92,0.13,1.26,0.38C4.45,1.04,4.69,1.4,4.82,1.86L4.17,2.02
		c-0.12-0.37-0.28-0.63-0.51-0.8s-0.5-0.25-0.83-0.25c-0.39,0-0.71,0.09-0.97,0.28C1.61,1.43,1.43,1.68,1.32,1.99
		C1.22,2.3,1.16,2.62,1.16,2.95c0,0.43,0.06,0.8,0.19,1.12c0.12,0.32,0.32,0.56,0.58,0.71s0.55,0.24,0.85,0.24
		c0.37,0,0.69-0.11,0.94-0.32C3.98,4.48,4.15,4.16,4.25,3.74z"/>
	<path class="st0" d="M5.82,5.5V4.8h0.7v0.7H5.82z"/>
	<path class="st0" d="M12.6,4.91V5.5H9.29c0-0.15,0.02-0.29,0.07-0.43c0.08-0.22,0.22-0.45,0.4-0.67c0.19-0.22,0.45-0.47,0.81-0.76
		c0.54-0.45,0.91-0.8,1.1-1.06s0.29-0.51,0.29-0.74c0-0.24-0.09-0.45-0.26-0.62c-0.17-0.17-0.4-0.25-0.68-0.25
		c-0.3,0-0.53,0.09-0.71,0.27s-0.27,0.42-0.27,0.74L9.4,1.92c0.04-0.47,0.21-0.83,0.49-1.08s0.66-0.37,1.14-0.37
		c0.48,0,0.86,0.13,1.14,0.4c0.28,0.27,0.42,0.6,0.42,0.99c0,0.2-0.04,0.4-0.12,0.59s-0.22,0.4-0.41,0.61
		c-0.19,0.21-0.51,0.51-0.95,0.88c-0.37,0.31-0.61,0.52-0.71,0.63s-0.19,0.22-0.26,0.33H12.6z"/>
	<path class="st0" d="M15.58,5.5h-0.62V1.58C14.81,1.72,14.62,1.86,14.38,2c-0.24,0.14-0.46,0.25-0.65,0.32V1.73
		c0.34-0.16,0.65-0.36,0.9-0.59s0.44-0.45,0.55-0.67h0.4V5.5z"/>
	<path class="st0" d="M21.62,5.5V5.04c-0.23,0.36-0.57,0.54-1.02,0.54c-0.29,0-0.56-0.08-0.8-0.24c-0.24-0.16-0.43-0.38-0.56-0.67
		c-0.13-0.29-0.2-0.62-0.2-0.99c0-0.36,0.06-0.69,0.18-0.99s0.3-0.52,0.54-0.68c0.24-0.16,0.51-0.24,0.81-0.24
		c0.22,0,0.41,0.05,0.58,0.14c0.17,0.09,0.31,0.21,0.42,0.36v-1.8h0.61V5.5H21.62z M19.68,3.69c0,0.46,0.1,0.81,0.29,1.04
		c0.2,0.23,0.43,0.35,0.69,0.35c0.27,0,0.5-0.11,0.69-0.33c0.19-0.22,0.28-0.55,0.28-1.01c0-0.5-0.1-0.86-0.29-1.09
		S20.92,2.3,20.64,2.3c-0.27,0-0.5,0.11-0.69,0.34C19.77,2.85,19.68,3.21,19.68,3.69z"/>
	<path class="st0" d="M23.16,1.2V0.49h0.62V1.2H23.16z M23.16,5.5V1.87h0.62V5.5H23.16z"/>
	<path class="st0" d="M27.08,5.05c-0.23,0.19-0.45,0.33-0.66,0.41c-0.21,0.08-0.44,0.12-0.68,0.12c-0.4,0-0.71-0.1-0.92-0.29
		c-0.21-0.2-0.32-0.44-0.32-0.75c0-0.18,0.04-0.34,0.12-0.49c0.08-0.15,0.19-0.26,0.32-0.35c0.13-0.09,0.28-0.16,0.44-0.2
		c0.12-0.03,0.3-0.06,0.55-0.09c0.5-0.06,0.86-0.13,1.1-0.21c0-0.08,0-0.14,0-0.16c0-0.25-0.06-0.43-0.17-0.53
		c-0.16-0.14-0.39-0.21-0.7-0.21c-0.29,0-0.5,0.05-0.64,0.15c-0.14,0.1-0.24,0.28-0.31,0.54l-0.6-0.08
		c0.05-0.26,0.14-0.47,0.27-0.62S25.19,2,25.43,1.92c0.24-0.08,0.51-0.13,0.82-0.13c0.31,0,0.56,0.04,0.76,0.11s0.34,0.17,0.43,0.28
		s0.15,0.25,0.19,0.42c0.02,0.1,0.03,0.29,0.03,0.57v0.82c0,0.57,0.01,0.93,0.04,1.09c0.03,0.15,0.08,0.3,0.16,0.44h-0.64
		C27.14,5.37,27.1,5.22,27.08,5.05z M27.03,3.68c-0.22,0.09-0.56,0.17-1,0.23c-0.25,0.04-0.43,0.08-0.54,0.12
		c-0.1,0.05-0.19,0.11-0.24,0.2s-0.09,0.19-0.09,0.29c0,0.16,0.06,0.3,0.19,0.41c0.12,0.11,0.31,0.16,0.54,0.16
		c0.24,0,0.45-0.05,0.63-0.16s0.32-0.25,0.41-0.42c0.07-0.14,0.1-0.34,0.1-0.62V3.68z"/>
	<path class="st0" d="M28.5,5.8l0.6,0.09c0.02,0.18,0.09,0.32,0.21,0.4c0.15,0.11,0.36,0.17,0.63,0.17c0.28,0,0.5-0.06,0.66-0.17
		s0.26-0.27,0.31-0.48c0.03-0.12,0.05-0.39,0.04-0.79c-0.27,0.32-0.6,0.47-1,0.47c-0.5,0-0.89-0.18-1.16-0.54s-0.41-0.79-0.41-1.3
		c0-0.35,0.06-0.67,0.19-0.96s0.31-0.52,0.55-0.68c0.24-0.16,0.52-0.24,0.84-0.24c0.43,0,0.78,0.17,1.06,0.52V1.87h0.57v3.14
		c0,0.57-0.06,0.97-0.17,1.2c-0.11,0.24-0.3,0.42-0.55,0.56C30.6,6.9,30.3,6.97,29.93,6.97c-0.43,0-0.78-0.1-1.05-0.29
		C28.62,6.49,28.49,6.19,28.5,5.8z M29.01,3.62c0,0.48,0.09,0.82,0.28,1.04S29.72,4.99,30,4.99c0.28,0,0.52-0.11,0.71-0.33
		S31,4.1,31,3.64c0-0.44-0.1-0.78-0.3-1c-0.2-0.23-0.43-0.34-0.71-0.34c-0.27,0-0.51,0.11-0.7,0.33C29.1,2.85,29.01,3.18,29.01,3.62
		z"/>
	<path class="st0" d="M32.27,3.68c0-0.67,0.19-1.17,0.56-1.49c0.31-0.27,0.69-0.4,1.14-0.4c0.5,0,0.91,0.16,1.22,0.49
		s0.48,0.78,0.48,1.36c0,0.47-0.07,0.83-0.21,1.1C35.32,5,35.12,5.21,34.85,5.36c-0.27,0.15-0.56,0.22-0.88,0.22
		c-0.51,0-0.92-0.16-1.23-0.49C32.43,4.77,32.27,4.3,32.27,3.68z M32.91,3.68c0,0.46,0.1,0.81,0.3,1.04s0.46,0.35,0.77,0.35
		c0.31,0,0.56-0.12,0.76-0.35s0.3-0.59,0.3-1.06c0-0.45-0.1-0.79-0.31-1.02c-0.2-0.23-0.46-0.35-0.76-0.35
		c-0.31,0-0.56,0.12-0.77,0.35S32.91,3.22,32.91,3.68z"/>
	<path class="st0" d="M36.4,5.5V1.87h0.55v0.52c0.27-0.4,0.65-0.6,1.16-0.6c0.22,0,0.42,0.04,0.6,0.12
		c0.18,0.08,0.32,0.18,0.41,0.31c0.09,0.13,0.15,0.28,0.19,0.46c0.02,0.11,0.03,0.31,0.03,0.6V5.5h-0.62V3.29
		c0-0.25-0.02-0.44-0.07-0.56s-0.13-0.22-0.25-0.3c-0.12-0.07-0.27-0.11-0.43-0.11c-0.26,0-0.49,0.08-0.68,0.25
		c-0.19,0.17-0.29,0.48-0.29,0.95V5.5H36.4z"/>
	<path class="st0" d="M42.66,5.05C42.43,5.25,42.21,5.38,42,5.46c-0.21,0.08-0.44,0.12-0.68,0.12c-0.4,0-0.71-0.1-0.92-0.29
		c-0.21-0.2-0.32-0.44-0.32-0.75c0-0.18,0.04-0.34,0.12-0.49c0.08-0.15,0.19-0.26,0.32-0.35c0.13-0.09,0.28-0.16,0.44-0.2
		c0.12-0.03,0.3-0.06,0.55-0.09c0.5-0.06,0.86-0.13,1.1-0.21c0-0.08,0-0.14,0-0.16c0-0.25-0.06-0.43-0.17-0.53
		c-0.16-0.14-0.39-0.21-0.7-0.21c-0.29,0-0.5,0.05-0.64,0.15c-0.14,0.1-0.24,0.28-0.31,0.54l-0.6-0.08
		c0.05-0.26,0.14-0.47,0.27-0.62S40.76,2,41,1.92c0.24-0.08,0.51-0.13,0.82-0.13c0.31,0,0.56,0.04,0.76,0.11s0.34,0.17,0.43,0.28
		s0.15,0.25,0.19,0.42c0.02,0.1,0.03,0.29,0.03,0.57v0.82c0,0.57,0.01,0.93,0.04,1.09c0.03,0.15,0.08,0.3,0.16,0.44h-0.64
		C42.72,5.37,42.68,5.22,42.66,5.05z M42.61,3.68c-0.22,0.09-0.56,0.17-1,0.23c-0.25,0.04-0.43,0.08-0.54,0.12
		c-0.1,0.05-0.19,0.11-0.24,0.2s-0.09,0.19-0.09,0.29c0,0.16,0.06,0.3,0.19,0.41c0.12,0.11,0.31,0.16,0.54,0.16
		c0.24,0,0.45-0.05,0.63-0.16s0.32-0.25,0.41-0.42c0.07-0.14,0.1-0.34,0.1-0.62V3.68z"/>
	<path class="st0" d="M44.17,5.5V0.49h0.62V5.5H44.17z"/>
	<path class="st0" d="M47.75,5.5V0.49h0.68l2.63,3.93V0.49h0.64V5.5h-0.68l-2.63-3.94V5.5H47.75z"/>
	<path class="st0" d="M52.51,3.68c0-0.67,0.19-1.17,0.56-1.49c0.31-0.27,0.69-0.4,1.14-0.4c0.5,0,0.91,0.16,1.22,0.49
		s0.48,0.78,0.48,1.36c0,0.47-0.07,0.83-0.21,1.1C55.56,5,55.35,5.21,55.09,5.36c-0.27,0.15-0.56,0.22-0.88,0.22
		c-0.51,0-0.92-0.16-1.23-0.49C52.66,4.77,52.51,4.3,52.51,3.68z M53.14,3.68c0,0.46,0.1,0.81,0.3,1.04s0.46,0.35,0.77,0.35
		c0.31,0,0.56-0.12,0.76-0.35s0.3-0.59,0.3-1.06c0-0.45-0.1-0.79-0.31-1.02c-0.2-0.23-0.46-0.35-0.76-0.35
		c-0.31,0-0.56,0.12-0.77,0.35S53.14,3.22,53.14,3.68z"/>
	<path class="st0" d="M56.8,5.5V4.8h0.7v0.7H56.8z"/>
	<path class="st0" d="M62.32,5.5V4.3h-2.17V3.74l2.29-3.25h0.5v3.25h0.68V4.3h-0.68v1.2H62.32z M62.32,3.74V1.48l-1.57,2.26H62.32z"
		/>
	<path class="st0" d="M66.56,5.5h-0.62V1.58C65.8,1.72,65.6,1.86,65.36,2c-0.24,0.14-0.46,0.25-0.65,0.32V1.73
		c0.34-0.16,0.65-0.36,0.9-0.59s0.44-0.45,0.55-0.67h0.4V5.5z"/>
	<path class="st0" d="M68.13,3.03c0-0.59,0.06-1.07,0.18-1.43c0.12-0.36,0.3-0.64,0.54-0.84c0.24-0.2,0.54-0.29,0.91-0.29
		c0.27,0,0.5,0.05,0.71,0.16s0.37,0.26,0.5,0.47s0.24,0.45,0.31,0.75s0.11,0.69,0.11,1.18c0,0.59-0.06,1.06-0.18,1.42
		s-0.3,0.64-0.54,0.84c-0.24,0.2-0.54,0.3-0.91,0.3c-0.48,0-0.86-0.17-1.14-0.52C68.3,4.65,68.13,3.97,68.13,3.03z M68.77,3.03
		c0,0.82,0.1,1.37,0.29,1.64c0.19,0.27,0.43,0.41,0.71,0.41s0.52-0.14,0.71-0.41c0.19-0.27,0.29-0.82,0.29-1.64
		c0-0.83-0.1-1.37-0.29-1.64c-0.19-0.27-0.43-0.41-0.72-0.41c-0.28,0-0.51,0.12-0.68,0.36C68.87,1.64,68.77,2.21,68.77,3.03z"/>
	<path class="st0" d="M76.63,4.33l0.64,0.08c-0.1,0.37-0.29,0.66-0.56,0.86s-0.62,0.31-1.04,0.31c-0.53,0-0.95-0.16-1.26-0.49
		c-0.31-0.33-0.47-0.79-0.47-1.38c0-0.61,0.16-1.08,0.47-1.42s0.72-0.51,1.22-0.51c0.49,0,0.88,0.17,1.19,0.5
		c0.31,0.33,0.46,0.8,0.46,1.39c0,0.04,0,0.09,0,0.16h-2.71c0.02,0.4,0.14,0.71,0.34,0.92c0.2,0.21,0.46,0.32,0.76,0.32
		c0.23,0,0.42-0.06,0.58-0.18S76.54,4.59,76.63,4.33z M74.61,3.33h2.03c-0.03-0.3-0.1-0.53-0.23-0.69c-0.2-0.24-0.45-0.36-0.76-0.36
		c-0.28,0-0.52,0.09-0.71,0.28C74.74,2.77,74.63,3.02,74.61,3.33z"/>
	<path class="st0" d="M78.04,5.5V1.87h0.55v0.52c0.27-0.4,0.65-0.6,1.16-0.6c0.22,0,0.42,0.04,0.6,0.12
		c0.18,0.08,0.32,0.18,0.41,0.31c0.09,0.13,0.15,0.28,0.19,0.46c0.02,0.11,0.03,0.31,0.03,0.6V5.5h-0.62V3.29
		c0-0.25-0.02-0.44-0.07-0.56s-0.13-0.22-0.25-0.3c-0.12-0.07-0.27-0.11-0.43-0.11c-0.26,0-0.49,0.08-0.68,0.25
		c-0.19,0.17-0.29,0.48-0.29,0.95V5.5H78.04z"/>
	<path class="st0" d="M83.27,4.95l0.09,0.54c-0.17,0.04-0.33,0.05-0.46,0.05c-0.22,0-0.4-0.04-0.52-0.11
		c-0.12-0.07-0.21-0.16-0.26-0.28s-0.08-0.36-0.08-0.73V2.35h-0.45V1.87h0.45v-0.9l0.61-0.37v1.27h0.62v0.48h-0.62v2.12
		c0,0.18,0.01,0.29,0.03,0.34c0.02,0.05,0.06,0.09,0.11,0.12c0.05,0.03,0.12,0.04,0.21,0.04C83.07,4.97,83.16,4.96,83.27,4.95z"/>
	<path class="st0" d="M83.87,5.5V1.87h0.55v0.55c0.14-0.26,0.27-0.43,0.39-0.51c0.12-0.08,0.25-0.12,0.4-0.12
		c0.21,0,0.42,0.07,0.63,0.2l-0.21,0.57c-0.15-0.09-0.3-0.13-0.45-0.13c-0.13,0-0.26,0.04-0.36,0.12s-0.18,0.19-0.23,0.34
		c-0.07,0.22-0.1,0.46-0.1,0.72v1.9H83.87z"/>
	<path class="st0" d="M88.69,4.33l0.64,0.08c-0.1,0.37-0.29,0.66-0.56,0.86s-0.62,0.31-1.04,0.31c-0.53,0-0.95-0.16-1.26-0.49
		C86.16,4.76,86,4.3,86,3.71c0-0.61,0.16-1.08,0.47-1.42s0.72-0.51,1.22-0.51c0.49,0,0.88,0.17,1.19,0.5
		c0.31,0.33,0.46,0.8,0.46,1.39c0,0.04,0,0.09,0,0.16h-2.71c0.02,0.4,0.14,0.71,0.34,0.92c0.2,0.21,0.46,0.32,0.76,0.32
		c0.23,0,0.42-0.06,0.58-0.18S88.6,4.59,88.69,4.33z M86.67,3.33h2.03c-0.03-0.3-0.1-0.53-0.23-0.69c-0.2-0.24-0.45-0.36-0.76-0.36
		c-0.28,0-0.52,0.09-0.71,0.28C86.8,2.77,86.69,3.02,86.67,3.33z"/>
	<path class="st0" d="M93.84,5.5V4.3h-2.17V3.74l2.29-3.25h0.5v3.25h0.68V4.3h-0.68v1.2H93.84z M93.84,3.74V1.48l-1.57,2.26H93.84z"
		/>
	<path class="st0" d="M99,4.91V5.5h-3.31c0-0.15,0.02-0.29,0.07-0.43c0.08-0.22,0.22-0.45,0.4-0.67c0.19-0.22,0.45-0.47,0.81-0.76
		c0.54-0.45,0.91-0.8,1.1-1.06s0.29-0.51,0.29-0.74c0-0.24-0.09-0.45-0.26-0.62c-0.17-0.17-0.4-0.25-0.68-0.25
		c-0.3,0-0.53,0.09-0.71,0.27s-0.27,0.42-0.27,0.74L95.8,1.92c0.04-0.47,0.21-0.83,0.49-1.08s0.66-0.37,1.14-0.37
		c0.48,0,0.86,0.13,1.14,0.4c0.28,0.27,0.42,0.6,0.42,0.99c0,0.2-0.04,0.4-0.12,0.59s-0.22,0.4-0.41,0.61
		c-0.19,0.21-0.51,0.51-0.95,0.88c-0.37,0.31-0.61,0.52-0.71,0.63s-0.19,0.22-0.26,0.33H99z"/>
	<path class="st0" d="M101.75,6.9l-0.07-0.58c0.13,0.04,0.25,0.05,0.35,0.05c0.14,0,0.25-0.02,0.33-0.07s0.15-0.11,0.2-0.19
		c0.04-0.06,0.1-0.21,0.19-0.46c0.01-0.03,0.03-0.08,0.05-0.15l-1.38-3.64h0.66l0.76,2.1c0.1,0.27,0.19,0.55,0.26,0.84
		c0.07-0.28,0.15-0.56,0.25-0.83l0.78-2.12h0.62l-1.38,3.69c-0.15,0.4-0.26,0.67-0.35,0.82c-0.11,0.2-0.23,0.35-0.38,0.45
		s-0.31,0.14-0.51,0.14C102.02,6.97,101.89,6.95,101.75,6.9z"/>
	<path class="st0" d="M109.02,5.5V4.3h-2.17V3.74l2.29-3.25h0.5v3.25h0.68V4.3h-0.68v1.2H109.02z M109.02,3.74V1.48l-1.57,2.26
		H109.02z"/>
	<path class="st0" d="M112.91,5.5V4.3h-2.17V3.74l2.29-3.25h0.5v3.25h0.68V4.3h-0.68v1.2H112.91z M112.91,3.74V1.48l-1.57,2.26
		H112.91z"/>
	<path class="st0" d="M120.6,3.74l0.66,0.17c-0.14,0.54-0.39,0.96-0.75,1.25c-0.36,0.29-0.8,0.43-1.32,0.43
		c-0.54,0-0.98-0.11-1.32-0.33c-0.34-0.22-0.6-0.54-0.77-0.96c-0.18-0.42-0.26-0.87-0.26-1.34c0-0.52,0.1-0.98,0.3-1.37
		c0.2-0.39,0.48-0.68,0.85-0.89c0.37-0.2,0.77-0.3,1.21-0.3c0.5,0,0.92,0.13,1.26,0.38c0.34,0.25,0.58,0.61,0.71,1.08l-0.65,0.15
		c-0.12-0.37-0.28-0.63-0.51-0.8s-0.5-0.25-0.83-0.25c-0.39,0-0.71,0.09-0.97,0.28c-0.26,0.18-0.44,0.43-0.54,0.74
		c-0.1,0.31-0.16,0.63-0.16,0.96c0,0.43,0.06,0.8,0.19,1.12c0.12,0.32,0.32,0.56,0.58,0.71s0.55,0.24,0.85,0.24
		c0.37,0,0.69-0.11,0.94-0.32C120.34,4.48,120.51,4.16,120.6,3.74z"/>
	<path class="st0" d="M121.78,3.68c0-0.67,0.19-1.17,0.56-1.49c0.31-0.27,0.69-0.4,1.14-0.4c0.5,0,0.91,0.16,1.22,0.49
		s0.48,0.78,0.48,1.36c0,0.47-0.07,0.83-0.21,1.1c-0.14,0.27-0.34,0.48-0.61,0.62c-0.27,0.15-0.56,0.22-0.88,0.22
		c-0.51,0-0.92-0.16-1.23-0.49C121.93,4.77,121.78,4.3,121.78,3.68z M122.41,3.68c0,0.46,0.1,0.81,0.3,1.04s0.46,0.35,0.77,0.35
		c0.31,0,0.56-0.12,0.76-0.35s0.3-0.59,0.3-1.06c0-0.45-0.1-0.79-0.31-1.02c-0.2-0.23-0.46-0.35-0.76-0.35
		c-0.31,0-0.56,0.12-0.77,0.35S122.41,3.22,122.41,3.68z"/>
	<path class="st0" d="M125.88,5.5V0.49h0.62V5.5H125.88z"/>
	<path class="st0" d="M127.63,5.5V4.8h0.7v0.7H127.63z"/>
	<path class="st0" d="M131.4,5.5V0.49h1l1.19,3.55c0.11,0.33,0.19,0.58,0.24,0.74c0.06-0.18,0.15-0.45,0.27-0.8l1.2-3.49h0.89V5.5
		h-0.64V1.31l-1.46,4.19h-0.6l-1.45-4.27V5.5H131.4z"/>
	<path class="st0" d="M139.66,4.33l0.64,0.08c-0.1,0.37-0.29,0.66-0.56,0.86s-0.62,0.31-1.04,0.31c-0.53,0-0.95-0.16-1.26-0.49
		c-0.31-0.33-0.47-0.79-0.47-1.38c0-0.61,0.16-1.08,0.47-1.42s0.72-0.51,1.22-0.51c0.49,0,0.88,0.17,1.19,0.5
		c0.31,0.33,0.46,0.8,0.46,1.39c0,0.04,0,0.09,0,0.16h-2.71c0.02,0.4,0.14,0.71,0.34,0.92c0.2,0.21,0.46,0.32,0.76,0.32
		c0.23,0,0.42-0.06,0.58-0.18S139.57,4.59,139.66,4.33z M137.64,3.33h2.03c-0.03-0.3-0.1-0.53-0.23-0.69
		c-0.2-0.24-0.45-0.36-0.76-0.36c-0.28,0-0.52,0.09-0.71,0.28C137.77,2.77,137.66,3.02,137.64,3.33z M138.3,1.42l0.45-0.96h0.81
		l-0.75,0.96H138.3z"/>
	<path class="st0" d="M141.06,5.5V1.87h0.55v0.55c0.14-0.26,0.27-0.43,0.39-0.51c0.12-0.08,0.25-0.12,0.4-0.12
		c0.21,0,0.42,0.07,0.63,0.2l-0.21,0.57c-0.15-0.09-0.3-0.13-0.45-0.13c-0.13,0-0.26,0.04-0.36,0.12s-0.18,0.19-0.23,0.34
		c-0.07,0.22-0.1,0.46-0.1,0.72v1.9H141.06z"/>
	<path class="st0" d="M143.4,1.2V0.49h0.62V1.2H143.4z M143.4,5.5V1.87h0.62V5.5H143.4z"/>
	<path class="st0" d="M147.31,5.5V5.04c-0.23,0.36-0.57,0.54-1.02,0.54c-0.29,0-0.56-0.08-0.8-0.24c-0.24-0.16-0.43-0.38-0.56-0.67
		c-0.13-0.29-0.2-0.62-0.2-0.99c0-0.36,0.06-0.69,0.18-0.99s0.3-0.52,0.54-0.68c0.24-0.16,0.51-0.24,0.81-0.24
		c0.22,0,0.41,0.05,0.58,0.14c0.17,0.09,0.31,0.21,0.42,0.36v-1.8h0.61V5.5H147.31z M145.36,3.69c0,0.46,0.1,0.81,0.29,1.04
		c0.2,0.23,0.43,0.35,0.69,0.35c0.27,0,0.5-0.11,0.69-0.33c0.19-0.22,0.28-0.55,0.28-1.01c0-0.5-0.1-0.86-0.29-1.09
		s-0.43-0.35-0.71-0.35c-0.27,0-0.5,0.11-0.69,0.34C145.46,2.85,145.36,3.21,145.36,3.69z"/>
	<path class="st0" d="M151.22,5.05c-0.23,0.19-0.45,0.33-0.66,0.41c-0.21,0.08-0.44,0.12-0.68,0.12c-0.4,0-0.71-0.1-0.92-0.29
		c-0.21-0.2-0.32-0.44-0.32-0.75c0-0.18,0.04-0.34,0.12-0.49c0.08-0.15,0.19-0.26,0.32-0.35c0.13-0.09,0.28-0.16,0.44-0.2
		c0.12-0.03,0.3-0.06,0.55-0.09c0.5-0.06,0.86-0.13,1.1-0.21c0-0.08,0-0.14,0-0.16c0-0.25-0.06-0.43-0.17-0.53
		c-0.16-0.14-0.39-0.21-0.7-0.21c-0.29,0-0.5,0.05-0.64,0.15c-0.14,0.1-0.24,0.28-0.31,0.54l-0.6-0.08
		c0.05-0.26,0.14-0.47,0.27-0.62s0.31-0.28,0.54-0.37c0.24-0.08,0.51-0.13,0.82-0.13c0.31,0,0.56,0.04,0.76,0.11
		s0.34,0.17,0.43,0.28s0.15,0.25,0.19,0.42c0.02,0.1,0.03,0.29,0.03,0.57v0.82c0,0.57,0.01,0.93,0.04,1.09
		c0.03,0.15,0.08,0.3,0.16,0.44h-0.64C151.27,5.37,151.23,5.22,151.22,5.05z M151.16,3.68c-0.22,0.09-0.56,0.17-1,0.23
		c-0.25,0.04-0.43,0.08-0.54,0.12c-0.1,0.05-0.19,0.11-0.24,0.2s-0.09,0.19-0.09,0.29c0,0.16,0.06,0.3,0.19,0.41
		c0.12,0.11,0.31,0.16,0.54,0.16c0.24,0,0.45-0.05,0.63-0.16s0.32-0.25,0.41-0.42c0.07-0.14,0.1-0.34,0.1-0.62V3.68z"/>
	<path class="st0" d="M154.61,4.34l0.59-0.05c0.05,0.28,0.15,0.48,0.29,0.6s0.32,0.19,0.54,0.19c0.19,0,0.35-0.04,0.5-0.13
		c0.14-0.09,0.26-0.2,0.35-0.35s0.17-0.34,0.23-0.59s0.09-0.5,0.09-0.75c0-0.03,0-0.07,0-0.12c-0.12,0.2-0.29,0.35-0.5,0.48
		c-0.21,0.12-0.44,0.18-0.69,0.18c-0.41,0-0.77-0.15-1.05-0.45s-0.43-0.7-0.43-1.19c0-0.51,0.15-0.92,0.45-1.23
		c0.3-0.31,0.67-0.46,1.13-0.46c0.33,0,0.62,0.09,0.89,0.26c0.27,0.17,0.48,0.42,0.62,0.75c0.14,0.32,0.21,0.79,0.21,1.41
		c0,0.64-0.07,1.15-0.21,1.53c-0.14,0.38-0.35,0.67-0.62,0.87c-0.27,0.2-0.6,0.3-0.97,0.3c-0.39,0-0.71-0.11-0.96-0.33
		S154.66,4.73,154.61,4.34z M157.12,2.13c0-0.35-0.09-0.63-0.28-0.84c-0.19-0.21-0.41-0.31-0.68-0.31c-0.27,0-0.51,0.11-0.71,0.33
		c-0.2,0.22-0.3,0.51-0.3,0.87c0,0.32,0.1,0.58,0.29,0.78c0.19,0.2,0.43,0.3,0.71,0.3c0.28,0,0.52-0.1,0.7-0.3
		C157.03,2.76,157.12,2.48,157.12,2.13z"/>
	<path class="st0" d="M158.45,1.14V0.55h3.24v0.48c-0.32,0.34-0.64,0.79-0.95,1.35c-0.31,0.56-0.56,1.14-0.73,1.74
		c-0.12,0.42-0.2,0.88-0.24,1.38h-0.63c0.01-0.39,0.08-0.87,0.23-1.43s0.36-1.1,0.64-1.62c0.28-0.52,0.57-0.96,0.88-1.31H158.45z"/>
	<path class="st0" d="M165.53,4.91V5.5h-3.31c0-0.15,0.02-0.29,0.07-0.43c0.08-0.22,0.22-0.45,0.4-0.67
		c0.19-0.22,0.45-0.47,0.81-0.76c0.54-0.45,0.91-0.8,1.1-1.06s0.29-0.51,0.29-0.74c0-0.24-0.09-0.45-0.26-0.62
		c-0.17-0.17-0.4-0.25-0.68-0.25c-0.3,0-0.53,0.09-0.71,0.27s-0.27,0.42-0.27,0.74l-0.63-0.06c0.04-0.47,0.21-0.83,0.49-1.08
		s0.66-0.37,1.14-0.37c0.48,0,0.86,0.13,1.14,0.4c0.28,0.27,0.42,0.6,0.42,0.99c0,0.2-0.04,0.4-0.12,0.59s-0.22,0.4-0.41,0.61
		c-0.19,0.21-0.51,0.51-0.95,0.88c-0.37,0.31-0.61,0.52-0.71,0.63s-0.19,0.22-0.26,0.33H165.53z"/>
	<path class="st0" d="M166.19,3.03c0-0.59,0.06-1.07,0.18-1.43c0.12-0.36,0.3-0.64,0.54-0.84c0.24-0.2,0.54-0.29,0.91-0.29
		c0.27,0,0.5,0.05,0.71,0.16s0.37,0.26,0.5,0.47s0.24,0.45,0.31,0.75s0.11,0.69,0.11,1.18c0,0.59-0.06,1.06-0.18,1.42
		s-0.3,0.64-0.54,0.84c-0.24,0.2-0.54,0.3-0.91,0.3c-0.48,0-0.86-0.17-1.14-0.52C166.36,4.65,166.19,3.97,166.19,3.03z M166.83,3.03
		c0,0.82,0.1,1.37,0.29,1.64c0.19,0.27,0.43,0.41,0.71,0.41s0.52-0.14,0.71-0.41c0.19-0.27,0.29-0.82,0.29-1.64
		c0-0.83-0.1-1.37-0.29-1.64c-0.19-0.27-0.43-0.41-0.72-0.41c-0.28,0-0.51,0.12-0.68,0.36C166.93,1.64,166.83,2.21,166.83,3.03z"/>
	<path class="st0" d="M170.09,4.18l0.62-0.08c0.07,0.35,0.19,0.6,0.36,0.75c0.17,0.15,0.38,0.23,0.62,0.23c0.29,0,0.53-0.1,0.73-0.3
		c0.2-0.2,0.3-0.45,0.3-0.75c0-0.28-0.09-0.51-0.28-0.7s-0.42-0.28-0.7-0.28c-0.12,0-0.26,0.02-0.43,0.07l0.07-0.54
		c0.04,0,0.07,0.01,0.1,0.01c0.26,0,0.5-0.07,0.71-0.21s0.31-0.35,0.31-0.63c0-0.23-0.08-0.41-0.23-0.56
		c-0.15-0.15-0.35-0.22-0.59-0.22c-0.24,0-0.44,0.08-0.6,0.23s-0.26,0.38-0.31,0.68l-0.62-0.11c0.08-0.41,0.25-0.73,0.51-0.96
		s0.6-0.34,0.99-0.34c0.27,0,0.53,0.06,0.76,0.18s0.41,0.28,0.53,0.48c0.12,0.2,0.18,0.42,0.18,0.65c0,0.22-0.06,0.41-0.17,0.59
		s-0.29,0.32-0.52,0.42c0.3,0.07,0.53,0.21,0.69,0.43c0.16,0.21,0.25,0.48,0.25,0.81c0,0.44-0.16,0.81-0.48,1.11
		c-0.32,0.3-0.72,0.46-1.21,0.46c-0.44,0-0.8-0.13-1.1-0.39C170.3,4.93,170.13,4.59,170.09,4.18z"/>
</g>
</svg>
