<?xml version="1.0" encoding="utf-8"?>
<!-- Generator: Adobe Illustrator 25.4.1, SVG Export Plug-In . SVG Version: 6.00 Build 0)  -->
<svg version="1.1" id="Capa_1" xmlns="http://www.w3.org/2000/svg" xmlns:xlink="http://www.w3.org/1999/xlink" x="0px" y="0px"
	 viewBox="0 0 258 12" style="enable-background:new 0 0 258 12;" xml:space="preserve">
<style type="text/css">
	.st0{fill:#3F3E3E;}
</style>
<g>
	<path class="st0" d="M5.91,7.94c0,0.06,0,0.11-0.01,0.15S5.89,8.17,5.88,8.2C5.87,8.23,5.86,8.26,5.85,8.29S5.81,8.34,5.77,8.38
		C5.74,8.42,5.66,8.47,5.55,8.54S5.29,8.69,5.12,8.76C4.95,8.83,4.75,8.89,4.53,8.94C4.31,8.98,4.07,9.01,3.81,9.01
		c-0.45,0-0.86-0.08-1.22-0.23C2.23,8.63,1.92,8.41,1.66,8.12C1.4,7.82,1.21,7.46,1.07,7.03C0.93,6.6,0.86,6.1,0.86,5.54
		c0-0.58,0.07-1.09,0.22-1.54c0.15-0.45,0.36-0.83,0.63-1.15S2.3,2.3,2.67,2.13c0.37-0.17,0.79-0.25,1.24-0.25
		c0.2,0,0.4,0.02,0.59,0.06c0.19,0.04,0.37,0.08,0.53,0.14c0.16,0.06,0.3,0.12,0.43,0.2s0.21,0.14,0.26,0.19
		C5.77,2.52,5.8,2.55,5.81,2.58C5.83,2.6,5.84,2.63,5.85,2.67C5.86,2.7,5.87,2.74,5.87,2.79c0.01,0.05,0.01,0.1,0.01,0.17
		c0,0.07,0,0.13-0.01,0.18C5.86,3.19,5.85,3.23,5.83,3.26C5.82,3.3,5.8,3.32,5.78,3.34C5.76,3.35,5.74,3.36,5.71,3.36
		c-0.05,0-0.12-0.04-0.21-0.11C5.41,3.19,5.29,3.11,5.15,3.03C5.01,2.94,4.84,2.87,4.63,2.8c-0.2-0.07-0.45-0.1-0.73-0.1
		c-0.31,0-0.59,0.06-0.85,0.19C2.8,3,2.59,3.18,2.41,3.42C2.23,3.66,2.09,3.95,1.99,4.3S1.84,5.04,1.84,5.48
		c0,0.44,0.05,0.83,0.14,1.17c0.1,0.34,0.23,0.62,0.41,0.85c0.18,0.23,0.4,0.4,0.66,0.52S3.6,8.19,3.93,8.19
		c0.28,0,0.52-0.03,0.73-0.1c0.21-0.07,0.38-0.14,0.53-0.23C5.33,7.78,5.45,7.7,5.54,7.63s0.17-0.1,0.22-0.1
		c0.03,0,0.05,0,0.06,0.02s0.03,0.03,0.04,0.06C5.88,7.64,5.89,7.68,5.9,7.73C5.9,7.79,5.91,7.86,5.91,7.94z"/>
	<path class="st0" d="M8.17,8.34c0,0.25-0.04,0.42-0.13,0.51C7.96,8.93,7.81,8.97,7.59,8.97c-0.21,0-0.36-0.04-0.45-0.12
		S7.02,8.6,7.02,8.35c0-0.25,0.04-0.42,0.13-0.51C7.23,7.76,7.38,7.72,7.6,7.72c0.21,0,0.36,0.04,0.45,0.12
		C8.13,7.92,8.17,8.09,8.17,8.34z"/>
	<path class="st0" d="M16.43,8.52c0,0.06,0,0.12-0.01,0.17c-0.01,0.05-0.02,0.09-0.04,0.13c-0.02,0.03-0.04,0.06-0.06,0.08
		c-0.03,0.02-0.06,0.02-0.09,0.02h-3.84c-0.05,0-0.09-0.01-0.13-0.02c-0.04-0.01-0.07-0.03-0.1-0.06c-0.03-0.03-0.05-0.07-0.06-0.12
		c-0.01-0.05-0.02-0.12-0.02-0.2c0-0.07,0-0.13,0.01-0.19s0.02-0.1,0.04-0.14c0.02-0.04,0.04-0.08,0.07-0.12
		c0.03-0.04,0.06-0.08,0.11-0.13l1.39-1.43c0.32-0.33,0.58-0.62,0.77-0.89c0.19-0.26,0.34-0.5,0.45-0.71
		c0.1-0.21,0.17-0.41,0.21-0.59c0.03-0.17,0.05-0.34,0.05-0.49c0-0.15-0.03-0.3-0.08-0.44s-0.13-0.26-0.22-0.36
		c-0.1-0.1-0.22-0.19-0.37-0.25c-0.15-0.06-0.32-0.09-0.51-0.09c-0.23,0-0.43,0.03-0.61,0.09c-0.18,0.06-0.34,0.13-0.47,0.2
		c-0.14,0.07-0.25,0.14-0.34,0.2c-0.09,0.06-0.16,0.09-0.2,0.09c-0.03,0-0.05-0.01-0.07-0.02c-0.02-0.01-0.04-0.04-0.05-0.07
		c-0.01-0.03-0.02-0.08-0.03-0.13s-0.01-0.12-0.01-0.19c0-0.05,0-0.1,0.01-0.14s0.01-0.07,0.02-0.1c0.01-0.03,0.02-0.06,0.03-0.08
		s0.04-0.06,0.09-0.09c0.04-0.04,0.12-0.09,0.22-0.15c0.11-0.06,0.24-0.13,0.4-0.19c0.16-0.06,0.33-0.12,0.53-0.16
		c0.19-0.04,0.39-0.06,0.6-0.06c0.34,0,0.63,0.05,0.88,0.14c0.25,0.09,0.46,0.22,0.63,0.39c0.17,0.17,0.29,0.36,0.37,0.58
		c0.08,0.22,0.12,0.45,0.12,0.7c0,0.22-0.02,0.44-0.06,0.66c-0.04,0.22-0.12,0.46-0.25,0.71c-0.13,0.26-0.31,0.54-0.55,0.85
		S14.7,6.58,14.3,6.99l-1.1,1.15h3.02c0.03,0,0.06,0.01,0.08,0.02c0.03,0.02,0.05,0.04,0.07,0.07c0.02,0.03,0.03,0.07,0.04,0.12
		C16.43,8.4,16.43,8.46,16.43,8.52z"/>
	<path class="st0" d="M22.11,2.37c0,0.06,0,0.12-0.01,0.17c0,0.05-0.01,0.1-0.02,0.15c-0.01,0.05-0.02,0.09-0.04,0.14
		c-0.02,0.04-0.04,0.09-0.06,0.14l-2.5,5.77c-0.02,0.04-0.04,0.08-0.07,0.11c-0.03,0.03-0.06,0.05-0.1,0.06
		c-0.04,0.02-0.09,0.03-0.16,0.03c-0.06,0-0.14,0.01-0.24,0.01c-0.12,0-0.22,0-0.28-0.02c-0.07-0.01-0.12-0.03-0.15-0.05
		c-0.03-0.02-0.04-0.05-0.04-0.09s0.02-0.07,0.04-0.12l2.63-5.9h-3.34c-0.07,0-0.12-0.04-0.15-0.11c-0.03-0.07-0.05-0.17-0.05-0.3
		c0-0.07,0-0.13,0.01-0.18c0.01-0.05,0.02-0.09,0.04-0.13S17.67,2.01,17.69,2c0.02-0.02,0.05-0.02,0.09-0.02h4.05
		c0.05,0,0.09,0,0.13,0.02C22,2,22.03,2.02,22.05,2.05c0.02,0.03,0.04,0.07,0.05,0.12S22.11,2.29,22.11,2.37z"/>
	<path class="st0" d="M30.07,8.79c0,0.03-0.01,0.05-0.02,0.08c-0.01,0.02-0.03,0.04-0.06,0.05c-0.03,0.01-0.07,0.02-0.12,0.03
		s-0.11,0.01-0.18,0.01c-0.08,0-0.14,0-0.19-0.01s-0.09-0.02-0.12-0.03s-0.06-0.03-0.07-0.05s-0.02-0.05-0.02-0.08V8.15
		c-0.25,0.28-0.52,0.49-0.79,0.64c-0.27,0.15-0.57,0.23-0.9,0.23c-0.35,0-0.66-0.07-0.91-0.21s-0.45-0.32-0.61-0.56
		c-0.16-0.23-0.27-0.51-0.34-0.83c-0.07-0.32-0.11-0.65-0.11-1c0-0.42,0.04-0.79,0.13-1.12s0.22-0.62,0.4-0.86s0.39-0.42,0.65-0.54
		c0.26-0.13,0.56-0.19,0.9-0.19c0.28,0,0.54,0.06,0.78,0.19c0.23,0.12,0.47,0.3,0.7,0.54V1.63c0-0.02,0.01-0.05,0.02-0.07
		c0.01-0.02,0.04-0.04,0.07-0.05s0.08-0.02,0.14-0.03c0.06-0.01,0.13-0.01,0.21-0.01c0.09,0,0.16,0,0.22,0.01s0.1,0.02,0.13,0.03
		s0.06,0.03,0.07,0.05c0.02,0.02,0.02,0.05,0.02,0.07V8.79z M29.18,5.39c-0.24-0.3-0.47-0.52-0.7-0.68
		c-0.22-0.16-0.46-0.23-0.7-0.23c-0.23,0-0.42,0.05-0.57,0.16s-0.29,0.25-0.38,0.42c-0.1,0.17-0.17,0.37-0.21,0.6
		c-0.04,0.22-0.07,0.45-0.07,0.68c0,0.24,0.02,0.48,0.06,0.71c0.04,0.23,0.1,0.44,0.2,0.62s0.22,0.33,0.37,0.43s0.35,0.16,0.58,0.16
		c0.12,0,0.23-0.02,0.34-0.05c0.11-0.03,0.22-0.09,0.34-0.16c0.11-0.07,0.23-0.17,0.36-0.29s0.26-0.27,0.4-0.44V5.39z"/>
	<path class="st0" d="M32.7,2.32c0,0.21-0.04,0.35-0.12,0.42s-0.22,0.11-0.44,0.11c-0.21,0-0.35-0.04-0.43-0.11
		c-0.08-0.07-0.12-0.21-0.12-0.42c0-0.21,0.04-0.35,0.12-0.42s0.22-0.11,0.44-0.11c0.21,0,0.35,0.04,0.43,0.11
		C32.66,1.98,32.7,2.12,32.7,2.32z M32.59,8.79c0,0.03-0.01,0.05-0.02,0.07S32.54,8.9,32.5,8.91s-0.08,0.03-0.13,0.03
		s-0.13,0.01-0.22,0.01c-0.09,0-0.16,0-0.21-0.01s-0.1-0.02-0.14-0.03c-0.03-0.01-0.06-0.03-0.07-0.05
		c-0.01-0.02-0.02-0.04-0.02-0.07V3.95c0-0.02,0.01-0.05,0.02-0.07c0.01-0.02,0.04-0.04,0.07-0.05c0.03-0.01,0.08-0.03,0.14-0.03
		s0.13-0.01,0.21-0.01c0.09,0,0.16,0,0.22,0.01s0.1,0.02,0.13,0.03s0.06,0.03,0.07,0.05s0.02,0.04,0.02,0.07V8.79z"/>
	<path class="st0" d="M37.87,8.79c0,0.04-0.01,0.08-0.04,0.1s-0.07,0.04-0.12,0.05c-0.05,0.01-0.12,0.02-0.22,0.02
		c-0.09,0-0.17,0-0.22-0.02c-0.06-0.01-0.1-0.03-0.12-0.05s-0.04-0.05-0.04-0.1V8.31c-0.21,0.23-0.45,0.4-0.71,0.53
		c-0.26,0.12-0.53,0.19-0.82,0.19c-0.25,0-0.48-0.03-0.69-0.1c-0.21-0.07-0.38-0.16-0.53-0.29c-0.14-0.12-0.26-0.28-0.34-0.46
		c-0.08-0.18-0.12-0.39-0.12-0.62c0-0.27,0.06-0.51,0.17-0.71c0.11-0.2,0.27-0.37,0.48-0.5s0.46-0.23,0.76-0.3s0.64-0.1,1.02-0.1
		h0.67V5.57c0-0.19-0.02-0.35-0.06-0.49s-0.1-0.26-0.19-0.36c-0.09-0.09-0.2-0.17-0.34-0.21c-0.14-0.05-0.31-0.07-0.52-0.07
		c-0.22,0-0.41,0.03-0.59,0.08c-0.17,0.05-0.33,0.11-0.46,0.17c-0.13,0.06-0.24,0.12-0.33,0.17c-0.09,0.05-0.15,0.08-0.2,0.08
		c-0.03,0-0.05-0.01-0.08-0.02c-0.02-0.01-0.04-0.04-0.06-0.06c-0.02-0.03-0.03-0.07-0.04-0.11s-0.01-0.09-0.01-0.15
		c0-0.09,0.01-0.16,0.02-0.21c0.01-0.05,0.04-0.1,0.09-0.15c0.05-0.05,0.13-0.1,0.25-0.16s0.25-0.12,0.41-0.17s0.32-0.09,0.5-0.13
		s0.37-0.05,0.55-0.05c0.35,0,0.64,0.04,0.89,0.12s0.44,0.19,0.59,0.35s0.26,0.34,0.33,0.57s0.1,0.49,0.1,0.79V8.79z M36.99,6.59
		h-0.76c-0.24,0-0.45,0.02-0.63,0.06s-0.33,0.1-0.45,0.18c-0.12,0.08-0.21,0.18-0.26,0.29c-0.06,0.11-0.08,0.24-0.08,0.39
		c0,0.25,0.08,0.45,0.24,0.6c0.16,0.15,0.38,0.22,0.67,0.22c0.23,0,0.45-0.06,0.65-0.18c0.2-0.12,0.41-0.3,0.63-0.54V6.59z"/>
	<path class="st0" d="M43.54,4.17c0,0.12-0.02,0.22-0.05,0.27c-0.03,0.06-0.08,0.08-0.13,0.08h-0.69c0.13,0.13,0.21,0.27,0.26,0.43
		C42.98,5.11,43,5.27,43,5.44c0,0.28-0.04,0.53-0.13,0.74s-0.22,0.4-0.38,0.54c-0.17,0.15-0.36,0.26-0.59,0.34
		c-0.23,0.08-0.48,0.12-0.76,0.12c-0.2,0-0.38-0.03-0.56-0.08c-0.18-0.05-0.31-0.12-0.41-0.2C40.09,6.98,40.04,7.05,40,7.13
		c-0.04,0.08-0.06,0.18-0.06,0.29c0,0.12,0.06,0.23,0.17,0.31c0.12,0.08,0.27,0.13,0.46,0.13l1.26,0.05
		c0.24,0.01,0.46,0.04,0.66,0.1c0.2,0.06,0.37,0.14,0.52,0.25s0.26,0.24,0.34,0.4s0.12,0.34,0.12,0.56c0,0.22-0.05,0.43-0.14,0.63
		c-0.09,0.2-0.24,0.38-0.43,0.53c-0.19,0.15-0.44,0.27-0.73,0.36s-0.65,0.13-1.05,0.13c-0.39,0-0.72-0.03-1-0.1
		c-0.27-0.07-0.5-0.16-0.67-0.27s-0.3-0.25-0.38-0.41s-0.12-0.33-0.12-0.52c0-0.12,0.01-0.23,0.04-0.34
		c0.03-0.11,0.07-0.22,0.13-0.32c0.06-0.1,0.13-0.2,0.22-0.29c0.09-0.09,0.19-0.18,0.3-0.27c-0.18-0.09-0.31-0.2-0.39-0.34
		c-0.08-0.14-0.13-0.28-0.13-0.44c0-0.22,0.04-0.41,0.13-0.58s0.2-0.33,0.33-0.46c-0.11-0.13-0.2-0.28-0.26-0.45
		c-0.06-0.17-0.1-0.37-0.1-0.6c0-0.28,0.05-0.52,0.14-0.74s0.22-0.4,0.39-0.55s0.36-0.27,0.59-0.35c0.23-0.08,0.48-0.12,0.75-0.12
		c0.15,0,0.28,0.01,0.41,0.02c0.13,0.02,0.25,0.04,0.36,0.07h1.46c0.06,0,0.11,0.03,0.14,0.09C43.53,3.96,43.54,4.05,43.54,4.17z
		 M42.6,9.28c0-0.21-0.08-0.37-0.25-0.48c-0.17-0.11-0.4-0.17-0.69-0.18L40.4,8.57c-0.11,0.09-0.21,0.17-0.28,0.26
		c-0.07,0.08-0.13,0.16-0.17,0.23s-0.07,0.15-0.09,0.22c-0.02,0.07-0.02,0.15-0.02,0.22c0,0.23,0.12,0.41,0.35,0.53
		s0.57,0.18,0.99,0.18c0.27,0,0.49-0.03,0.67-0.08c0.18-0.05,0.33-0.12,0.44-0.21s0.19-0.18,0.24-0.3C42.58,9.51,42.6,9.4,42.6,9.28
		z M42.15,5.45c0-0.33-0.09-0.59-0.27-0.77C41.7,4.49,41.45,4.4,41.11,4.4c-0.17,0-0.32,0.03-0.45,0.09
		c-0.13,0.06-0.23,0.14-0.32,0.24c-0.08,0.1-0.15,0.22-0.19,0.35C40.12,5.2,40.1,5.34,40.1,5.48c0,0.32,0.09,0.57,0.27,0.75
		c0.18,0.18,0.43,0.27,0.76,0.27c0.18,0,0.33-0.03,0.46-0.08s0.24-0.13,0.32-0.23c0.08-0.1,0.15-0.21,0.19-0.34
		C42.13,5.72,42.15,5.59,42.15,5.45z"/>
	<path class="st0" d="M49.1,6.32c0,0.39-0.05,0.76-0.16,1.09s-0.26,0.62-0.46,0.86c-0.21,0.24-0.46,0.43-0.77,0.56
		c-0.31,0.13-0.67,0.2-1.08,0.2c-0.4,0-0.74-0.06-1.04-0.18c-0.3-0.12-0.54-0.29-0.74-0.52s-0.34-0.5-0.44-0.82s-0.15-0.69-0.15-1.1
		c0-0.39,0.05-0.76,0.15-1.09c0.1-0.33,0.26-0.62,0.46-0.86c0.21-0.24,0.46-0.43,0.77-0.56c0.31-0.13,0.67-0.2,1.08-0.2
		c0.4,0,0.74,0.06,1.04,0.18c0.29,0.12,0.54,0.29,0.74,0.52c0.2,0.23,0.34,0.5,0.44,0.82C49.05,5.55,49.1,5.91,49.1,6.32z
		 M48.18,6.38c0-0.26-0.02-0.51-0.07-0.74s-0.13-0.44-0.24-0.61s-0.26-0.31-0.46-0.42c-0.19-0.1-0.43-0.15-0.72-0.15
		c-0.26,0-0.49,0.05-0.68,0.14c-0.19,0.09-0.35,0.22-0.47,0.39c-0.12,0.17-0.21,0.37-0.27,0.6s-0.09,0.49-0.09,0.76
		c0,0.26,0.02,0.51,0.07,0.75c0.05,0.23,0.13,0.44,0.24,0.61s0.27,0.31,0.46,0.41c0.19,0.1,0.43,0.15,0.72,0.15
		c0.26,0,0.49-0.05,0.68-0.14c0.19-0.09,0.35-0.22,0.47-0.39c0.12-0.17,0.21-0.37,0.27-0.6C48.15,6.91,48.18,6.66,48.18,6.38z"/>
	<path class="st0" d="M54.57,8.79c0,0.03-0.01,0.05-0.02,0.07s-0.04,0.04-0.07,0.05s-0.08,0.03-0.13,0.03s-0.13,0.01-0.21,0.01
		c-0.09,0-0.16,0-0.22-0.01s-0.1-0.02-0.13-0.03s-0.06-0.03-0.07-0.05s-0.02-0.04-0.02-0.07V5.96c0-0.28-0.02-0.5-0.06-0.67
		s-0.11-0.31-0.19-0.44c-0.08-0.12-0.19-0.21-0.32-0.28c-0.13-0.06-0.28-0.1-0.45-0.1c-0.22,0-0.44,0.08-0.67,0.24
		c-0.22,0.16-0.45,0.39-0.7,0.69v3.38c0,0.03-0.01,0.05-0.02,0.07S51.23,8.9,51.2,8.91s-0.08,0.03-0.13,0.03s-0.13,0.01-0.22,0.01
		c-0.09,0-0.16,0-0.21-0.01s-0.1-0.02-0.14-0.03c-0.03-0.01-0.06-0.03-0.07-0.05c-0.01-0.02-0.02-0.04-0.02-0.07V3.95
		c0-0.03,0.01-0.05,0.02-0.07s0.03-0.04,0.06-0.05c0.03-0.02,0.07-0.03,0.12-0.03c0.05,0,0.12-0.01,0.2-0.01c0.08,0,0.14,0,0.2,0.01
		c0.05,0.01,0.09,0.02,0.12,0.03c0.03,0.02,0.05,0.03,0.06,0.05c0.01,0.02,0.02,0.04,0.02,0.07v0.64c0.27-0.3,0.54-0.53,0.81-0.67
		c0.27-0.14,0.54-0.21,0.82-0.21c0.32,0,0.59,0.05,0.81,0.16c0.22,0.11,0.4,0.25,0.53,0.44s0.23,0.4,0.29,0.64
		c0.06,0.25,0.09,0.54,0.09,0.88V8.79z"/>
	<path class="st0" d="M59.83,8.79c0,0.04-0.01,0.08-0.04,0.1s-0.07,0.04-0.12,0.05c-0.05,0.01-0.12,0.02-0.22,0.02
		c-0.09,0-0.17,0-0.22-0.02c-0.06-0.01-0.1-0.03-0.12-0.05s-0.04-0.05-0.04-0.1V8.31c-0.21,0.23-0.45,0.4-0.71,0.53
		c-0.26,0.12-0.53,0.19-0.82,0.19c-0.25,0-0.48-0.03-0.69-0.1c-0.21-0.07-0.38-0.16-0.53-0.29c-0.14-0.12-0.26-0.28-0.34-0.46
		c-0.08-0.18-0.12-0.39-0.12-0.62c0-0.27,0.06-0.51,0.17-0.71c0.11-0.2,0.27-0.37,0.48-0.5s0.46-0.23,0.76-0.3s0.64-0.1,1.02-0.1
		h0.67V5.57c0-0.19-0.02-0.35-0.06-0.49s-0.1-0.26-0.19-0.36c-0.09-0.09-0.2-0.17-0.34-0.21c-0.14-0.05-0.31-0.07-0.52-0.07
		c-0.22,0-0.41,0.03-0.59,0.08c-0.17,0.05-0.33,0.11-0.46,0.17c-0.13,0.06-0.24,0.12-0.33,0.17c-0.09,0.05-0.15,0.08-0.2,0.08
		c-0.03,0-0.05-0.01-0.08-0.02c-0.02-0.01-0.04-0.04-0.06-0.06c-0.02-0.03-0.03-0.07-0.04-0.11s-0.01-0.09-0.01-0.15
		c0-0.09,0.01-0.16,0.02-0.21c0.01-0.05,0.04-0.1,0.09-0.15c0.05-0.05,0.13-0.1,0.25-0.16s0.25-0.12,0.41-0.17s0.32-0.09,0.5-0.13
		s0.37-0.05,0.55-0.05c0.35,0,0.64,0.04,0.89,0.12s0.44,0.19,0.59,0.35s0.26,0.34,0.33,0.57s0.1,0.49,0.1,0.79V8.79z M58.94,6.59
		h-0.76c-0.24,0-0.45,0.02-0.63,0.06s-0.33,0.1-0.45,0.18c-0.12,0.08-0.21,0.18-0.26,0.29c-0.06,0.11-0.08,0.24-0.08,0.39
		c0,0.25,0.08,0.45,0.24,0.6c0.16,0.15,0.38,0.22,0.67,0.22c0.23,0,0.45-0.06,0.65-0.18c0.2-0.12,0.41-0.3,0.63-0.54V6.59z"/>
	<path class="st0" d="M62.34,8.79c0,0.03-0.01,0.05-0.02,0.07s-0.04,0.04-0.07,0.05s-0.08,0.03-0.13,0.03s-0.13,0.01-0.22,0.01
		c-0.09,0-0.16,0-0.21-0.01s-0.1-0.02-0.14-0.03c-0.03-0.01-0.06-0.03-0.07-0.05c-0.01-0.02-0.02-0.04-0.02-0.07V1.61
		c0-0.03,0.01-0.05,0.02-0.07c0.01-0.02,0.04-0.04,0.07-0.05c0.03-0.01,0.08-0.02,0.14-0.03c0.06-0.01,0.13-0.01,0.21-0.01
		c0.09,0,0.16,0,0.22,0.01c0.06,0.01,0.1,0.02,0.13,0.03c0.03,0.01,0.06,0.03,0.07,0.05s0.02,0.05,0.02,0.07V8.79z"/>
	<path class="st0" d="M71.82,8.54c0,0.07-0.01,0.13-0.04,0.18c-0.02,0.05-0.06,0.09-0.09,0.12c-0.04,0.03-0.08,0.06-0.13,0.07
		c-0.05,0.01-0.1,0.02-0.14,0.02h-0.31c-0.1,0-0.18-0.01-0.25-0.03s-0.14-0.06-0.21-0.11c-0.06-0.05-0.13-0.12-0.19-0.21
		s-0.13-0.2-0.21-0.34l-2.12-3.95c-0.11-0.2-0.22-0.42-0.33-0.64C67.68,3.43,67.58,3.21,67.48,3h-0.01
		c0.01,0.26,0.01,0.52,0.02,0.79s0.01,0.54,0.01,0.8v4.19c0,0.03-0.01,0.05-0.02,0.07s-0.04,0.04-0.08,0.05
		c-0.04,0.01-0.08,0.02-0.14,0.03s-0.13,0.01-0.22,0.01s-0.17,0-0.22-0.01s-0.1-0.02-0.14-0.03c-0.03-0.01-0.06-0.03-0.07-0.05
		s-0.02-0.05-0.02-0.07V2.37c0-0.14,0.04-0.25,0.12-0.31c0.08-0.06,0.17-0.09,0.27-0.09h0.45c0.11,0,0.2,0.01,0.27,0.03
		c0.07,0.02,0.14,0.05,0.19,0.09c0.06,0.04,0.11,0.1,0.17,0.17c0.05,0.07,0.11,0.17,0.17,0.28l1.63,3.05
		c0.1,0.19,0.2,0.37,0.29,0.55c0.09,0.18,0.18,0.35,0.27,0.52S70.57,7,70.65,7.16c0.08,0.17,0.17,0.33,0.25,0.5h0.01
		C70.9,7.38,70.9,7.09,70.9,6.78c0-0.31,0-0.6,0-0.88V2.13c0-0.02,0.01-0.05,0.02-0.07S70.96,2.02,70.99,2
		c0.04-0.02,0.08-0.03,0.14-0.03c0.06-0.01,0.14-0.01,0.23-0.01c0.08,0,0.16,0,0.22,0.01c0.06,0.01,0.11,0.02,0.14,0.03
		c0.03,0.02,0.06,0.04,0.07,0.06s0.02,0.04,0.02,0.07V8.54z"/>
	<path class="st0" d="M78.06,6.32c0,0.39-0.05,0.76-0.16,1.09s-0.26,0.62-0.46,0.86c-0.21,0.24-0.46,0.43-0.77,0.56
		c-0.31,0.13-0.67,0.2-1.08,0.2c-0.4,0-0.74-0.06-1.04-0.18c-0.3-0.12-0.54-0.29-0.74-0.52s-0.34-0.5-0.44-0.82s-0.15-0.69-0.15-1.1
		c0-0.39,0.05-0.76,0.15-1.09c0.1-0.33,0.26-0.62,0.46-0.86c0.21-0.24,0.46-0.43,0.77-0.56c0.31-0.13,0.67-0.2,1.08-0.2
		c0.4,0,0.74,0.06,1.04,0.18c0.29,0.12,0.54,0.29,0.74,0.52c0.2,0.23,0.34,0.5,0.44,0.82C78.01,5.55,78.06,5.91,78.06,6.32z
		 M77.14,6.38c0-0.26-0.02-0.51-0.07-0.74s-0.13-0.44-0.24-0.61s-0.26-0.31-0.46-0.42c-0.19-0.1-0.43-0.15-0.72-0.15
		c-0.26,0-0.49,0.05-0.68,0.14c-0.19,0.09-0.35,0.22-0.47,0.39c-0.12,0.17-0.21,0.37-0.27,0.6s-0.09,0.49-0.09,0.76
		c0,0.26,0.02,0.51,0.07,0.75c0.05,0.23,0.13,0.44,0.24,0.61s0.27,0.31,0.46,0.41c0.19,0.1,0.43,0.15,0.72,0.15
		c0.26,0,0.49-0.05,0.68-0.14c0.19-0.09,0.35-0.22,0.47-0.39c0.12-0.17,0.21-0.37,0.27-0.6C77.11,6.91,77.14,6.66,77.14,6.38z"/>
	<path class="st0" d="M80.51,8.34c0,0.25-0.04,0.42-0.13,0.51c-0.08,0.08-0.24,0.13-0.46,0.13c-0.21,0-0.36-0.04-0.45-0.12
		s-0.12-0.25-0.12-0.49c0-0.25,0.04-0.42,0.13-0.51c0.08-0.08,0.24-0.13,0.46-0.13c0.21,0,0.36,0.04,0.45,0.12
		C80.47,7.92,80.51,8.09,80.51,8.34z"/>
	<path class="st0" d="M88.72,6.93c0,0.32-0.06,0.61-0.17,0.86s-0.27,0.47-0.48,0.66c-0.21,0.18-0.46,0.32-0.77,0.42
		s-0.65,0.15-1.03,0.15c-0.23,0-0.45-0.02-0.65-0.06c-0.2-0.04-0.38-0.08-0.54-0.13s-0.29-0.11-0.39-0.16s-0.17-0.1-0.2-0.12
		c-0.03-0.02-0.05-0.05-0.06-0.07c-0.01-0.03-0.03-0.06-0.04-0.09s-0.02-0.08-0.02-0.13c-0.01-0.05-0.01-0.12-0.01-0.19
		c0-0.13,0.01-0.22,0.04-0.27c0.03-0.05,0.06-0.08,0.11-0.08c0.03,0,0.1,0.03,0.2,0.09c0.1,0.06,0.22,0.12,0.38,0.19
		c0.15,0.07,0.33,0.13,0.53,0.19c0.2,0.06,0.43,0.09,0.68,0.09c0.24,0,0.46-0.03,0.64-0.09s0.34-0.15,0.46-0.26
		c0.12-0.11,0.22-0.24,0.28-0.39s0.09-0.32,0.09-0.5c0-0.2-0.04-0.37-0.12-0.53c-0.08-0.16-0.2-0.29-0.35-0.41
		c-0.15-0.11-0.34-0.2-0.57-0.26c-0.22-0.06-0.48-0.09-0.76-0.09h-0.68c-0.03,0-0.06-0.01-0.09-0.02c-0.03-0.01-0.05-0.03-0.07-0.06
		s-0.04-0.07-0.05-0.11c-0.01-0.05-0.02-0.11-0.02-0.18c0-0.07,0.01-0.12,0.02-0.17s0.03-0.08,0.05-0.11
		c0.02-0.03,0.04-0.05,0.07-0.06S85.25,5,85.28,5h0.61c0.24,0,0.45-0.03,0.64-0.09c0.19-0.06,0.35-0.15,0.48-0.26
		c0.13-0.11,0.23-0.25,0.3-0.41c0.07-0.16,0.1-0.34,0.1-0.54c0-0.14-0.02-0.28-0.07-0.41s-0.12-0.24-0.21-0.34
		c-0.09-0.1-0.21-0.17-0.36-0.23c-0.14-0.06-0.31-0.08-0.5-0.08c-0.21,0-0.4,0.03-0.57,0.09c-0.17,0.06-0.33,0.13-0.46,0.2
		s-0.25,0.14-0.34,0.2s-0.15,0.09-0.19,0.09c-0.02,0-0.05,0-0.07-0.01c-0.02-0.01-0.04-0.03-0.05-0.05
		c-0.01-0.03-0.02-0.06-0.03-0.11C84.56,3,84.55,2.93,84.55,2.85c0-0.05,0-0.1,0.01-0.14s0.01-0.08,0.02-0.11s0.02-0.06,0.04-0.08
		s0.04-0.05,0.07-0.09c0.03-0.03,0.1-0.08,0.21-0.15s0.23-0.13,0.38-0.19c0.15-0.06,0.33-0.12,0.53-0.16
		c0.2-0.04,0.41-0.06,0.64-0.06c0.32,0,0.6,0.04,0.85,0.12s0.45,0.2,0.61,0.35c0.16,0.15,0.29,0.33,0.37,0.54
		c0.08,0.21,0.12,0.44,0.12,0.7c0,0.22-0.03,0.42-0.09,0.61c-0.06,0.19-0.14,0.35-0.25,0.5c-0.11,0.15-0.25,0.27-0.41,0.37
		c-0.16,0.1-0.35,0.17-0.56,0.21v0.01c0.24,0.03,0.46,0.08,0.66,0.18c0.2,0.09,0.37,0.21,0.51,0.36s0.26,0.31,0.34,0.5
		C88.68,6.51,88.72,6.72,88.72,6.93z"/>
	<path class="st0" d="M94.45,2.37c0,0.06,0,0.12-0.01,0.17c0,0.05-0.01,0.1-0.02,0.15c-0.01,0.05-0.02,0.09-0.04,0.14
		c-0.02,0.04-0.04,0.09-0.06,0.14l-2.5,5.77c-0.02,0.04-0.04,0.08-0.07,0.11c-0.03,0.03-0.06,0.05-0.1,0.06
		c-0.04,0.02-0.09,0.03-0.16,0.03c-0.06,0-0.14,0.01-0.24,0.01c-0.12,0-0.22,0-0.28-0.02c-0.07-0.01-0.12-0.03-0.15-0.05
		c-0.03-0.02-0.04-0.05-0.04-0.09s0.02-0.07,0.04-0.12l2.63-5.9h-3.34c-0.07,0-0.12-0.04-0.15-0.11c-0.03-0.07-0.05-0.17-0.05-0.3
		c0-0.07,0-0.13,0.01-0.18c0.01-0.05,0.02-0.09,0.04-0.13S90.01,2.01,90.03,2c0.02-0.02,0.05-0.02,0.09-0.02h4.05
		c0.05,0,0.09,0,0.13,0.02c0.04,0.01,0.07,0.03,0.09,0.06c0.02,0.03,0.04,0.07,0.05,0.12S94.45,2.29,94.45,2.37z"/>
	<path class="st0" d="M100.22,6.95c0,0.12-0.02,0.21-0.05,0.28s-0.09,0.1-0.15,0.1h-0.78v1.46c0,0.03-0.01,0.05-0.02,0.07
		c-0.02,0.02-0.04,0.04-0.08,0.05s-0.08,0.03-0.14,0.03c-0.06,0.01-0.13,0.01-0.23,0.01c-0.09,0-0.16,0-0.22-0.01
		s-0.11-0.02-0.14-0.03s-0.06-0.03-0.07-0.05c-0.01-0.02-0.02-0.04-0.02-0.07V7.33h-2.84c-0.04,0-0.08,0-0.11-0.02
		c-0.03-0.01-0.05-0.03-0.08-0.06c-0.02-0.03-0.04-0.07-0.05-0.12S95.22,7,95.22,6.92c0-0.07,0-0.13,0.01-0.18
		c0-0.05,0.01-0.1,0.02-0.15c0.01-0.04,0.02-0.09,0.04-0.13c0.02-0.04,0.04-0.08,0.06-0.13l2.48-4.22c0.02-0.03,0.04-0.05,0.08-0.07
		c0.03-0.02,0.08-0.04,0.13-0.05c0.05-0.01,0.12-0.02,0.2-0.03c0.08,0,0.18-0.01,0.29-0.01c0.12,0,0.23,0,0.31,0.01
		c0.09,0.01,0.16,0.02,0.22,0.04c0.05,0.01,0.1,0.03,0.13,0.06s0.04,0.05,0.04,0.08v4.44h0.78c0.06,0,0.11,0.03,0.15,0.09
		C100.2,6.72,100.22,6.82,100.22,6.95z M98.3,2.75h-0.01l-2.23,3.81h2.25V2.75z"/>
	<path class="st0" d="M103.53,6.21c0,0.14-0.02,0.24-0.05,0.29c-0.03,0.05-0.08,0.08-0.14,0.08h-2.25c-0.06,0-0.11-0.03-0.15-0.08
		s-0.05-0.15-0.05-0.29c0-0.14,0.02-0.23,0.05-0.28s0.08-0.08,0.15-0.08h2.25c0.03,0,0.05,0.01,0.08,0.02
		c0.02,0.01,0.04,0.03,0.06,0.06c0.02,0.03,0.03,0.07,0.04,0.12C103.53,6.08,103.53,6.14,103.53,6.21z"/>
	<path class="st0" d="M109.41,6.93c0,0.22-0.03,0.42-0.08,0.6c-0.06,0.18-0.13,0.35-0.23,0.5s-0.22,0.28-0.36,0.39
		c-0.14,0.11-0.3,0.2-0.48,0.28c-0.18,0.08-0.37,0.13-0.57,0.17c-0.2,0.04-0.43,0.06-0.7,0.06h-1.82c-0.08,0-0.16-0.03-0.23-0.08
		c-0.07-0.06-0.11-0.15-0.11-0.29v-6.2c0-0.14,0.04-0.24,0.11-0.29c0.07-0.06,0.15-0.08,0.23-0.08h1.58c0.42,0,0.76,0.04,1.02,0.12
		s0.49,0.19,0.66,0.34c0.18,0.15,0.31,0.33,0.4,0.55c0.09,0.22,0.13,0.47,0.13,0.74c0,0.16-0.02,0.32-0.06,0.47s-0.1,0.29-0.17,0.42
		c-0.08,0.13-0.17,0.24-0.29,0.34c-0.12,0.1-0.25,0.18-0.4,0.25c0.19,0.04,0.37,0.1,0.53,0.2s0.31,0.22,0.43,0.36
		c0.12,0.15,0.22,0.32,0.29,0.52S109.41,6.69,109.41,6.93z M108.02,3.82c0-0.17-0.02-0.32-0.07-0.46c-0.05-0.14-0.12-0.25-0.22-0.35
		s-0.23-0.17-0.39-0.22s-0.37-0.08-0.64-0.08h-0.95v2.25h1.05c0.24,0,0.43-0.03,0.58-0.09s0.27-0.15,0.36-0.25
		c0.1-0.11,0.17-0.23,0.21-0.37C107.99,4.12,108.02,3.97,108.02,3.82z M108.43,6.98c0-0.21-0.03-0.39-0.1-0.55
		c-0.07-0.16-0.16-0.29-0.29-0.4s-0.29-0.19-0.48-0.24c-0.19-0.06-0.43-0.08-0.72-0.08h-1.1v2.45h1.34c0.21,0,0.39-0.03,0.55-0.08
		s0.3-0.12,0.42-0.22s0.21-0.22,0.28-0.37S108.43,7.18,108.43,6.98z"/>
	<path class="st0" d="M117.32,6.16c0,0.14-0.04,0.24-0.11,0.3c-0.07,0.06-0.15,0.09-0.24,0.09h-3.18c0,0.27,0.03,0.51,0.08,0.73
		c0.05,0.21,0.14,0.4,0.27,0.55s0.29,0.27,0.49,0.35c0.2,0.08,0.45,0.12,0.74,0.12c0.23,0,0.44-0.02,0.62-0.06
		c0.18-0.04,0.34-0.08,0.47-0.13c0.13-0.05,0.24-0.09,0.32-0.13c0.08-0.04,0.15-0.06,0.19-0.06c0.02,0,0.05,0.01,0.07,0.02
		c0.02,0.01,0.03,0.03,0.05,0.06c0.01,0.03,0.02,0.06,0.02,0.11s0.01,0.1,0.01,0.16c0,0.05,0,0.09-0.01,0.12s-0.01,0.06-0.01,0.09
		c0,0.03-0.01,0.05-0.03,0.07c-0.01,0.02-0.03,0.04-0.05,0.06c-0.02,0.02-0.08,0.05-0.17,0.1s-0.22,0.09-0.38,0.13
		s-0.33,0.08-0.53,0.12c-0.2,0.03-0.42,0.05-0.65,0.05c-0.4,0-0.75-0.05-1.04-0.17c-0.3-0.11-0.55-0.28-0.75-0.49
		s-0.36-0.49-0.46-0.82c-0.1-0.33-0.16-0.71-0.16-1.15c0-0.42,0.05-0.79,0.16-1.12s0.26-0.61,0.46-0.84
		c0.2-0.23,0.45-0.41,0.73-0.53c0.29-0.12,0.61-0.19,0.96-0.19c0.38,0,0.7,0.06,0.97,0.18c0.27,0.12,0.49,0.29,0.66,0.49
		s0.3,0.45,0.38,0.73c0.08,0.28,0.12,0.57,0.12,0.89V6.16z M116.43,5.9c0.01-0.47-0.09-0.83-0.31-1.1c-0.22-0.27-0.54-0.4-0.97-0.4
		c-0.22,0-0.41,0.04-0.58,0.12c-0.17,0.08-0.3,0.19-0.42,0.33c-0.11,0.14-0.2,0.29-0.26,0.48c-0.06,0.18-0.1,0.37-0.1,0.57H116.43z"
		/>
	<path class="st0" d="M122.83,8.79c0,0.03-0.01,0.05-0.02,0.07s-0.04,0.04-0.07,0.05s-0.08,0.03-0.13,0.03s-0.13,0.01-0.21,0.01
		c-0.09,0-0.16,0-0.22-0.01s-0.1-0.02-0.13-0.03s-0.06-0.03-0.07-0.05s-0.02-0.04-0.02-0.07V5.96c0-0.28-0.02-0.5-0.06-0.67
		s-0.11-0.31-0.19-0.44c-0.08-0.12-0.19-0.21-0.32-0.28c-0.13-0.06-0.28-0.1-0.45-0.1c-0.22,0-0.44,0.08-0.67,0.24
		c-0.22,0.16-0.45,0.39-0.7,0.69v3.38c0,0.03-0.01,0.05-0.02,0.07s-0.04,0.04-0.07,0.05s-0.08,0.03-0.13,0.03s-0.13,0.01-0.22,0.01
		c-0.09,0-0.16,0-0.21-0.01s-0.1-0.02-0.14-0.03c-0.03-0.01-0.06-0.03-0.07-0.05c-0.01-0.02-0.02-0.04-0.02-0.07V3.95
		c0-0.03,0.01-0.05,0.02-0.07s0.03-0.04,0.06-0.05c0.03-0.02,0.07-0.03,0.12-0.03c0.05,0,0.12-0.01,0.2-0.01c0.08,0,0.14,0,0.2,0.01
		c0.05,0.01,0.09,0.02,0.12,0.03c0.03,0.02,0.05,0.03,0.06,0.05c0.01,0.02,0.02,0.04,0.02,0.07v0.64c0.27-0.3,0.54-0.53,0.81-0.67
		c0.27-0.14,0.54-0.21,0.82-0.21c0.32,0,0.59,0.05,0.81,0.16c0.22,0.11,0.4,0.25,0.53,0.44s0.23,0.4,0.29,0.64
		c0.06,0.25,0.09,0.54,0.09,0.88V8.79z"/>
	<path class="st0" d="M126.86,8.43c0,0.1-0.01,0.19-0.02,0.25c-0.01,0.06-0.04,0.11-0.06,0.13s-0.07,0.06-0.13,0.08
		c-0.06,0.03-0.12,0.05-0.2,0.06c-0.07,0.02-0.15,0.03-0.23,0.04s-0.16,0.02-0.25,0.02c-0.25,0-0.47-0.03-0.64-0.1
		s-0.33-0.17-0.44-0.3c-0.11-0.13-0.2-0.3-0.25-0.51c-0.05-0.21-0.08-0.45-0.08-0.73V4.55h-0.68c-0.05,0-0.1-0.03-0.13-0.09
		s-0.05-0.15-0.05-0.28c0-0.07,0-0.12,0.01-0.17c0.01-0.05,0.02-0.08,0.04-0.12s0.03-0.05,0.06-0.06c0.02-0.01,0.05-0.02,0.08-0.02
		h0.67V2.66c0-0.02,0.01-0.05,0.02-0.07c0.01-0.02,0.04-0.04,0.07-0.06c0.03-0.02,0.08-0.03,0.14-0.03
		c0.06-0.01,0.13-0.01,0.21-0.01c0.09,0,0.16,0,0.22,0.01c0.06,0.01,0.1,0.02,0.13,0.03c0.03,0.02,0.06,0.04,0.07,0.06
		s0.02,0.04,0.02,0.07v1.15h1.24c0.03,0,0.05,0.01,0.08,0.02s0.04,0.03,0.06,0.06c0.02,0.03,0.03,0.07,0.03,0.12s0.01,0.1,0.01,0.17
		c0,0.13-0.02,0.22-0.05,0.28s-0.08,0.09-0.13,0.09h-1.24v2.7c0,0.33,0.05,0.58,0.15,0.75c0.1,0.17,0.27,0.25,0.53,0.25
		c0.08,0,0.16-0.01,0.22-0.02c0.06-0.02,0.12-0.03,0.17-0.05s0.09-0.04,0.13-0.05c0.04-0.02,0.07-0.02,0.1-0.02
		c0.02,0,0.04,0,0.05,0.01c0.02,0.01,0.03,0.03,0.04,0.05c0.01,0.03,0.02,0.06,0.02,0.1S126.86,8.37,126.86,8.43z"/>
	<path class="st0" d="M130.85,4.27c0,0.08,0,0.15-0.01,0.2c0,0.05-0.01,0.1-0.02,0.13s-0.02,0.05-0.04,0.07
		c-0.02,0.02-0.04,0.02-0.07,0.02s-0.06-0.01-0.1-0.02c-0.04-0.02-0.09-0.03-0.14-0.05c-0.05-0.02-0.11-0.03-0.17-0.05
		s-0.13-0.02-0.21-0.02c-0.09,0-0.18,0.02-0.26,0.05s-0.18,0.09-0.27,0.18c-0.09,0.08-0.19,0.19-0.3,0.33s-0.22,0.3-0.34,0.5v3.18
		c0,0.03-0.01,0.05-0.02,0.07s-0.04,0.04-0.07,0.05s-0.08,0.03-0.13,0.03s-0.13,0.01-0.22,0.01c-0.09,0-0.16,0-0.21-0.01
		s-0.1-0.02-0.14-0.03c-0.03-0.01-0.06-0.03-0.07-0.05c-0.01-0.02-0.02-0.04-0.02-0.07V3.95c0-0.03,0.01-0.05,0.02-0.07
		s0.03-0.04,0.06-0.05c0.03-0.02,0.07-0.03,0.12-0.03c0.05,0,0.12-0.01,0.2-0.01c0.08,0,0.14,0,0.2,0.01
		c0.05,0.01,0.09,0.02,0.12,0.03c0.03,0.02,0.05,0.03,0.06,0.05c0.01,0.02,0.02,0.04,0.02,0.07v0.7c0.13-0.19,0.26-0.35,0.37-0.47
		c0.12-0.12,0.23-0.22,0.33-0.29c0.1-0.07,0.21-0.12,0.31-0.15c0.1-0.03,0.2-0.04,0.31-0.04c0.05,0,0.1,0,0.16,0.01
		c0.06,0.01,0.12,0.02,0.19,0.03c0.06,0.01,0.12,0.03,0.17,0.05c0.05,0.02,0.09,0.04,0.11,0.05s0.04,0.04,0.04,0.05
		c0.01,0.02,0.01,0.04,0.02,0.06c0,0.02,0.01,0.06,0.01,0.11C130.85,4.12,130.85,4.19,130.85,4.27z"/>
	<path class="st0" d="M135.84,6.16c0,0.14-0.04,0.24-0.11,0.3c-0.07,0.06-0.15,0.09-0.24,0.09h-3.18c0,0.27,0.03,0.51,0.08,0.73
		c0.05,0.21,0.14,0.4,0.27,0.55s0.29,0.27,0.49,0.35c0.2,0.08,0.45,0.12,0.74,0.12c0.23,0,0.44-0.02,0.62-0.06
		c0.18-0.04,0.34-0.08,0.47-0.13c0.13-0.05,0.24-0.09,0.32-0.13c0.08-0.04,0.15-0.06,0.19-0.06c0.02,0,0.05,0.01,0.07,0.02
		c0.02,0.01,0.03,0.03,0.05,0.06c0.01,0.03,0.02,0.06,0.02,0.11s0.01,0.1,0.01,0.16c0,0.05,0,0.09-0.01,0.12s-0.01,0.06-0.01,0.09
		c0,0.03-0.01,0.05-0.03,0.07c-0.01,0.02-0.03,0.04-0.05,0.06c-0.02,0.02-0.08,0.05-0.17,0.1s-0.22,0.09-0.38,0.13
		s-0.33,0.08-0.53,0.12c-0.2,0.03-0.42,0.05-0.65,0.05c-0.4,0-0.75-0.05-1.04-0.17c-0.3-0.11-0.55-0.28-0.75-0.49
		s-0.36-0.49-0.46-0.82c-0.1-0.33-0.16-0.71-0.16-1.15c0-0.42,0.05-0.79,0.16-1.12s0.26-0.61,0.46-0.84
		c0.2-0.23,0.45-0.41,0.73-0.53c0.29-0.12,0.61-0.19,0.96-0.19c0.38,0,0.7,0.06,0.97,0.18c0.27,0.12,0.49,0.29,0.66,0.49
		s0.3,0.45,0.38,0.73c0.08,0.28,0.12,0.57,0.12,0.89V6.16z M134.95,5.9c0.01-0.47-0.09-0.83-0.31-1.1c-0.22-0.27-0.54-0.4-0.97-0.4
		c-0.22,0-0.41,0.04-0.58,0.12c-0.17,0.08-0.3,0.19-0.42,0.33c-0.11,0.14-0.2,0.29-0.26,0.48c-0.06,0.18-0.1,0.37-0.1,0.57H134.95z"
		/>
	<path class="st0" d="M144.11,6.95c0,0.12-0.02,0.21-0.05,0.28s-0.09,0.1-0.15,0.1h-0.78v1.46c0,0.03-0.01,0.05-0.02,0.07
		c-0.02,0.02-0.04,0.04-0.08,0.05s-0.08,0.03-0.14,0.03c-0.06,0.01-0.13,0.01-0.23,0.01c-0.09,0-0.16,0-0.22-0.01
		s-0.11-0.02-0.14-0.03s-0.06-0.03-0.07-0.05c-0.01-0.02-0.02-0.04-0.02-0.07V7.33h-2.84c-0.04,0-0.08,0-0.11-0.02
		c-0.03-0.01-0.05-0.03-0.08-0.06c-0.02-0.03-0.04-0.07-0.05-0.12s-0.01-0.12-0.01-0.21c0-0.07,0-0.13,0.01-0.18
		c0-0.05,0.01-0.1,0.02-0.15c0.01-0.04,0.02-0.09,0.04-0.13c0.02-0.04,0.04-0.08,0.06-0.13l2.48-4.22c0.02-0.03,0.04-0.05,0.08-0.07
		c0.03-0.02,0.08-0.04,0.13-0.05c0.05-0.01,0.12-0.02,0.2-0.03c0.08,0,0.18-0.01,0.29-0.01c0.12,0,0.23,0,0.31,0.01
		c0.09,0.01,0.16,0.02,0.22,0.04c0.05,0.01,0.1,0.03,0.13,0.06s0.04,0.05,0.04,0.08v4.44h0.78c0.06,0,0.11,0.03,0.15,0.09
		C144.1,6.72,144.11,6.82,144.11,6.95z M142.2,2.75h-0.01l-2.23,3.81h2.25V2.75z"/>
	<path class="st0" d="M149.39,8.52c0,0.06,0,0.12-0.01,0.17c-0.01,0.05-0.02,0.09-0.04,0.13c-0.02,0.03-0.04,0.06-0.06,0.08
		c-0.03,0.02-0.06,0.02-0.09,0.02h-3.84c-0.05,0-0.09-0.01-0.13-0.02c-0.04-0.01-0.07-0.03-0.1-0.06c-0.03-0.03-0.05-0.07-0.06-0.12
		c-0.01-0.05-0.02-0.12-0.02-0.2c0-0.07,0-0.13,0.01-0.19s0.02-0.1,0.04-0.14c0.02-0.04,0.04-0.08,0.07-0.12
		c0.03-0.04,0.06-0.08,0.11-0.13l1.39-1.43c0.32-0.33,0.58-0.62,0.77-0.89c0.19-0.26,0.34-0.5,0.45-0.71
		c0.1-0.21,0.17-0.41,0.21-0.59c0.03-0.17,0.05-0.34,0.05-0.49c0-0.15-0.03-0.3-0.08-0.44s-0.13-0.26-0.22-0.36
		c-0.1-0.1-0.22-0.19-0.37-0.25c-0.15-0.06-0.32-0.09-0.51-0.09c-0.23,0-0.43,0.03-0.61,0.09c-0.18,0.06-0.34,0.13-0.47,0.2
		c-0.14,0.07-0.25,0.14-0.34,0.2c-0.09,0.06-0.16,0.09-0.2,0.09c-0.03,0-0.05-0.01-0.07-0.02c-0.02-0.01-0.04-0.04-0.05-0.07
		c-0.01-0.03-0.02-0.08-0.03-0.13s-0.01-0.12-0.01-0.19c0-0.05,0-0.1,0.01-0.14s0.01-0.07,0.02-0.1c0.01-0.03,0.02-0.06,0.03-0.08
		s0.04-0.06,0.09-0.09c0.04-0.04,0.12-0.09,0.22-0.15c0.11-0.06,0.24-0.13,0.4-0.19c0.16-0.06,0.33-0.12,0.53-0.16
		c0.19-0.04,0.39-0.06,0.6-0.06c0.34,0,0.63,0.05,0.88,0.14c0.25,0.09,0.46,0.22,0.63,0.39c0.17,0.17,0.29,0.36,0.37,0.58
		c0.08,0.22,0.12,0.45,0.12,0.7c0,0.22-0.02,0.44-0.06,0.66c-0.04,0.22-0.12,0.46-0.25,0.71c-0.13,0.26-0.31,0.54-0.55,0.85
		s-0.56,0.67-0.96,1.08l-1.1,1.15h3.02c0.03,0,0.06,0.01,0.08,0.02c0.03,0.02,0.05,0.04,0.07,0.07c0.02,0.03,0.03,0.07,0.04,0.12
		C149.39,8.4,149.39,8.46,149.39,8.52z"/>
	<path class="st0" d="M155.52,8.92l-0.64,1.78c-0.02,0.06-0.08,0.1-0.16,0.13c-0.09,0.03-0.22,0.05-0.4,0.05
		c-0.09,0-0.17,0-0.23-0.01s-0.1-0.02-0.13-0.04c-0.03-0.02-0.05-0.05-0.05-0.09c0-0.04,0.01-0.08,0.03-0.13l0.67-1.68
		c-0.03-0.01-0.06-0.04-0.09-0.07c-0.03-0.03-0.05-0.07-0.06-0.1l-1.72-4.62c-0.03-0.08-0.04-0.13-0.04-0.18s0.01-0.08,0.04-0.1
		s0.08-0.04,0.14-0.05s0.15-0.01,0.26-0.01s0.19,0,0.25,0.01c0.06,0.01,0.11,0.02,0.15,0.03c0.04,0.01,0.06,0.04,0.08,0.06
		c0.02,0.03,0.03,0.06,0.05,0.11l1.38,3.88h0.02l1.33-3.9c0.02-0.07,0.05-0.11,0.08-0.13c0.03-0.02,0.08-0.03,0.14-0.04
		s0.15-0.01,0.26-0.01c0.1,0,0.18,0,0.25,0.01s0.11,0.03,0.14,0.05c0.03,0.03,0.05,0.06,0.05,0.1s-0.01,0.1-0.03,0.16L155.52,8.92z"
		/>
	<path class="st0" d="M165.22,6.95c0,0.12-0.02,0.21-0.05,0.28s-0.09,0.1-0.15,0.1h-0.78v1.46c0,0.03-0.01,0.05-0.02,0.07
		c-0.02,0.02-0.04,0.04-0.08,0.05s-0.08,0.03-0.14,0.03c-0.06,0.01-0.13,0.01-0.23,0.01c-0.09,0-0.16,0-0.22-0.01
		s-0.11-0.02-0.14-0.03s-0.06-0.03-0.07-0.05c-0.01-0.02-0.02-0.04-0.02-0.07V7.33h-2.84c-0.04,0-0.08,0-0.11-0.02
		c-0.03-0.01-0.05-0.03-0.08-0.06c-0.02-0.03-0.04-0.07-0.05-0.12s-0.01-0.12-0.01-0.21c0-0.07,0-0.13,0.01-0.18
		c0-0.05,0.01-0.1,0.02-0.15c0.01-0.04,0.02-0.09,0.04-0.13c0.02-0.04,0.04-0.08,0.06-0.13l2.48-4.22c0.02-0.03,0.04-0.05,0.08-0.07
		c0.03-0.02,0.08-0.04,0.13-0.05c0.05-0.01,0.12-0.02,0.2-0.03c0.08,0,0.18-0.01,0.29-0.01c0.12,0,0.23,0,0.31,0.01
		c0.09,0.01,0.16,0.02,0.22,0.04c0.05,0.01,0.1,0.03,0.13,0.06s0.04,0.05,0.04,0.08v4.44h0.78c0.06,0,0.11,0.03,0.15,0.09
		C165.2,6.72,165.22,6.82,165.22,6.95z M163.31,2.75h-0.01l-2.23,3.81h2.25V2.75z"/>
	<path class="st0" d="M170.79,6.95c0,0.12-0.02,0.21-0.05,0.28s-0.09,0.1-0.15,0.1h-0.78v1.46c0,0.03-0.01,0.05-0.02,0.07
		c-0.02,0.02-0.04,0.04-0.08,0.05s-0.08,0.03-0.14,0.03c-0.06,0.01-0.13,0.01-0.23,0.01c-0.09,0-0.16,0-0.22-0.01
		s-0.11-0.02-0.14-0.03s-0.06-0.03-0.07-0.05c-0.01-0.02-0.02-0.04-0.02-0.07V7.33h-2.84c-0.04,0-0.08,0-0.11-0.02
		c-0.03-0.01-0.05-0.03-0.08-0.06c-0.02-0.03-0.04-0.07-0.05-0.12s-0.01-0.12-0.01-0.21c0-0.07,0-0.13,0.01-0.18
		c0-0.05,0.01-0.1,0.02-0.15c0.01-0.04,0.02-0.09,0.04-0.13c0.02-0.04,0.04-0.08,0.06-0.13l2.48-4.22c0.02-0.03,0.04-0.05,0.08-0.07
		c0.03-0.02,0.08-0.04,0.13-0.05c0.05-0.01,0.12-0.02,0.2-0.03c0.08,0,0.18-0.01,0.29-0.01c0.12,0,0.23,0,0.31,0.01
		c0.09,0.01,0.16,0.02,0.22,0.04c0.05,0.01,0.1,0.03,0.13,0.06s0.04,0.05,0.04,0.08v4.44h0.78c0.06,0,0.11,0.03,0.15,0.09
		C170.77,6.72,170.79,6.82,170.79,6.95z M168.88,2.75h-0.01l-2.23,3.81h2.25V2.75z"/>
	<path class="st0" d="M179.16,7.94c0,0.06,0,0.11-0.01,0.15s-0.01,0.08-0.02,0.11c-0.01,0.03-0.02,0.06-0.03,0.09
		s-0.04,0.06-0.08,0.09c-0.04,0.04-0.11,0.09-0.23,0.16s-0.26,0.15-0.43,0.21c-0.17,0.07-0.37,0.13-0.58,0.18
		c-0.22,0.05-0.46,0.07-0.72,0.07c-0.45,0-0.86-0.08-1.22-0.23c-0.36-0.15-0.67-0.37-0.93-0.67c-0.26-0.29-0.45-0.66-0.59-1.09
		c-0.14-0.43-0.21-0.93-0.21-1.49c0-0.58,0.07-1.09,0.22-1.54c0.15-0.45,0.36-0.83,0.63-1.15s0.59-0.55,0.96-0.72
		c0.37-0.17,0.79-0.25,1.24-0.25c0.2,0,0.4,0.02,0.59,0.06c0.19,0.04,0.37,0.08,0.53,0.14c0.16,0.06,0.3,0.12,0.43,0.2
		s0.21,0.14,0.26,0.19c0.05,0.05,0.08,0.08,0.09,0.11c0.01,0.03,0.03,0.05,0.03,0.09c0.01,0.03,0.02,0.07,0.02,0.12
		c0.01,0.05,0.01,0.1,0.01,0.17c0,0.07,0,0.13-0.01,0.18c-0.01,0.05-0.02,0.09-0.03,0.13c-0.01,0.03-0.03,0.06-0.05,0.08
		c-0.02,0.02-0.04,0.02-0.07,0.02c-0.05,0-0.12-0.04-0.21-0.11c-0.09-0.07-0.21-0.15-0.35-0.23c-0.14-0.08-0.31-0.16-0.52-0.23
		c-0.2-0.07-0.45-0.1-0.73-0.1c-0.31,0-0.59,0.06-0.85,0.19c-0.25,0.12-0.47,0.3-0.65,0.54c-0.18,0.24-0.32,0.53-0.42,0.88
		s-0.15,0.74-0.15,1.18c0,0.44,0.05,0.83,0.14,1.17c0.1,0.34,0.23,0.62,0.41,0.85c0.18,0.23,0.4,0.4,0.66,0.52s0.55,0.17,0.88,0.17
		c0.28,0,0.52-0.03,0.73-0.1c0.21-0.07,0.38-0.14,0.53-0.23c0.15-0.08,0.27-0.16,0.36-0.23s0.17-0.1,0.22-0.1
		c0.03,0,0.05,0,0.06,0.02s0.03,0.03,0.04,0.06c0.01,0.03,0.02,0.07,0.02,0.13C179.16,7.79,179.16,7.86,179.16,7.94z"/>
	<path class="st0" d="M184.78,6.32c0,0.39-0.05,0.76-0.16,1.09s-0.26,0.62-0.46,0.86c-0.21,0.24-0.46,0.43-0.77,0.56
		c-0.31,0.13-0.67,0.2-1.08,0.2c-0.4,0-0.74-0.06-1.04-0.18c-0.3-0.12-0.54-0.29-0.74-0.52s-0.34-0.5-0.44-0.82s-0.15-0.69-0.15-1.1
		c0-0.39,0.05-0.76,0.15-1.09c0.1-0.33,0.26-0.62,0.46-0.86c0.21-0.24,0.46-0.43,0.77-0.56c0.31-0.13,0.67-0.2,1.08-0.2
		c0.4,0,0.74,0.06,1.04,0.18c0.29,0.12,0.54,0.29,0.74,0.52c0.2,0.23,0.34,0.5,0.44,0.82C184.73,5.55,184.78,5.91,184.78,6.32z
		 M183.86,6.38c0-0.26-0.02-0.51-0.07-0.74s-0.13-0.44-0.24-0.61s-0.26-0.31-0.46-0.42c-0.19-0.1-0.43-0.15-0.72-0.15
		c-0.26,0-0.49,0.05-0.68,0.14c-0.19,0.09-0.35,0.22-0.47,0.39c-0.12,0.17-0.21,0.37-0.27,0.6s-0.09,0.49-0.09,0.76
		c0,0.26,0.02,0.51,0.07,0.75c0.05,0.23,0.13,0.44,0.24,0.61s0.27,0.31,0.46,0.41c0.19,0.1,0.43,0.15,0.72,0.15
		c0.26,0,0.49-0.05,0.68-0.14c0.19-0.09,0.35-0.22,0.47-0.39c0.12-0.17,0.21-0.37,0.27-0.6C183.83,6.91,183.86,6.66,183.86,6.38z"/>
	<path class="st0" d="M186.97,8.79c0,0.03-0.01,0.05-0.02,0.07s-0.04,0.04-0.07,0.05s-0.08,0.03-0.13,0.03s-0.13,0.01-0.22,0.01
		c-0.09,0-0.16,0-0.21-0.01s-0.1-0.02-0.14-0.03c-0.03-0.01-0.06-0.03-0.07-0.05c-0.01-0.02-0.02-0.04-0.02-0.07V1.61
		c0-0.03,0.01-0.05,0.02-0.07c0.01-0.02,0.04-0.04,0.07-0.05c0.03-0.01,0.08-0.02,0.14-0.03c0.06-0.01,0.13-0.01,0.21-0.01
		c0.09,0,0.16,0,0.22,0.01c0.06,0.01,0.1,0.02,0.13,0.03c0.03,0.01,0.06,0.03,0.07,0.05s0.02,0.05,0.02,0.07V8.79z"/>
	<path class="st0" d="M189.75,8.34c0,0.25-0.04,0.42-0.13,0.51c-0.08,0.08-0.24,0.13-0.46,0.13c-0.21,0-0.36-0.04-0.45-0.12
		s-0.12-0.25-0.12-0.49c0-0.25,0.04-0.42,0.13-0.51c0.08-0.08,0.24-0.13,0.46-0.13c0.21,0,0.36,0.04,0.45,0.12
		C189.71,7.92,189.75,8.09,189.75,8.34z"/>
	<path class="st0" d="M201.53,8.78c0,0.03-0.01,0.05-0.02,0.08c-0.02,0.02-0.04,0.04-0.08,0.05s-0.08,0.02-0.14,0.03
		s-0.13,0.01-0.22,0.01c-0.08,0-0.16,0-0.22-0.01c-0.06-0.01-0.11-0.02-0.14-0.03s-0.06-0.03-0.07-0.05s-0.02-0.05-0.02-0.08V2.73
		h-0.01l-2.45,6.08c-0.01,0.03-0.03,0.05-0.05,0.06c-0.02,0.02-0.05,0.03-0.09,0.05c-0.04,0.01-0.08,0.02-0.13,0.03
		c-0.05,0-0.11,0.01-0.19,0.01c-0.08,0-0.14,0-0.19-0.01s-0.1-0.02-0.13-0.03s-0.06-0.03-0.08-0.05c-0.02-0.02-0.03-0.04-0.04-0.06
		l-2.34-6.08h-0.01v6.05c0,0.03-0.01,0.05-0.02,0.08c-0.02,0.02-0.04,0.04-0.08,0.05s-0.08,0.02-0.14,0.03
		c-0.06,0.01-0.13,0.01-0.23,0.01c-0.09,0-0.16,0-0.22-0.01s-0.11-0.02-0.14-0.03s-0.06-0.03-0.07-0.05
		c-0.01-0.02-0.02-0.05-0.02-0.08V2.39c0-0.15,0.04-0.26,0.12-0.32c0.08-0.06,0.17-0.1,0.27-0.1h0.57c0.12,0,0.22,0.01,0.31,0.03
		s0.16,0.06,0.23,0.1c0.07,0.05,0.12,0.11,0.16,0.18c0.04,0.07,0.08,0.16,0.11,0.25l1.99,5.03h0.03l2.07-5.02
		c0.04-0.11,0.08-0.2,0.13-0.27c0.05-0.07,0.1-0.13,0.16-0.18c0.06-0.04,0.12-0.08,0.19-0.1c0.07-0.02,0.15-0.03,0.24-0.03h0.59
		c0.05,0,0.11,0.01,0.16,0.02c0.05,0.02,0.09,0.04,0.13,0.08s0.06,0.08,0.08,0.13s0.03,0.12,0.03,0.19V8.78z"/>
	<path class="st0" d="M207.4,6.16c0,0.14-0.04,0.24-0.11,0.3c-0.07,0.06-0.15,0.09-0.24,0.09h-3.18c0,0.27,0.03,0.51,0.08,0.73
		s0.14,0.4,0.27,0.55s0.29,0.27,0.49,0.35c0.2,0.08,0.45,0.12,0.74,0.12c0.23,0,0.43-0.02,0.62-0.06c0.18-0.04,0.33-0.08,0.47-0.13
		c0.13-0.05,0.24-0.09,0.32-0.13c0.08-0.04,0.15-0.06,0.19-0.06c0.02,0,0.05,0.01,0.07,0.02c0.02,0.01,0.03,0.03,0.05,0.06
		c0.01,0.03,0.02,0.06,0.02,0.11c0.01,0.04,0.01,0.1,0.01,0.16c0,0.05,0,0.09-0.01,0.12c0,0.03-0.01,0.06-0.01,0.09
		c0,0.03-0.01,0.05-0.03,0.07s-0.03,0.04-0.05,0.06c-0.02,0.02-0.08,0.05-0.17,0.1s-0.22,0.09-0.38,0.13
		c-0.15,0.04-0.33,0.08-0.54,0.12c-0.2,0.03-0.42,0.05-0.65,0.05c-0.4,0-0.75-0.05-1.04-0.17s-0.55-0.28-0.75-0.49
		s-0.36-0.49-0.46-0.82c-0.1-0.33-0.16-0.71-0.16-1.15c0-0.42,0.05-0.79,0.16-1.12s0.26-0.61,0.46-0.84
		c0.2-0.23,0.45-0.41,0.73-0.53c0.29-0.12,0.61-0.19,0.96-0.19c0.38,0,0.7,0.06,0.97,0.18c0.27,0.12,0.49,0.29,0.66,0.49
		s0.3,0.45,0.38,0.73c0.08,0.28,0.12,0.57,0.12,0.89V6.16z M206.51,5.9c0.01-0.47-0.09-0.83-0.31-1.1c-0.22-0.27-0.54-0.4-0.97-0.4
		c-0.22,0-0.41,0.04-0.58,0.12s-0.3,0.19-0.42,0.33c-0.11,0.14-0.2,0.29-0.26,0.48c-0.06,0.18-0.09,0.37-0.1,0.57H206.51z
		 M205.64,1.59c0.02-0.04,0.05-0.07,0.08-0.1c0.03-0.03,0.06-0.04,0.1-0.06s0.09-0.03,0.15-0.03c0.06-0.01,0.13-0.01,0.22-0.01
		c0.1,0,0.18,0.01,0.24,0.02c0.06,0.01,0.11,0.03,0.13,0.05c0.03,0.02,0.04,0.05,0.03,0.08c0,0.03-0.02,0.06-0.05,0.09l-0.97,1.25
		c-0.03,0.04-0.05,0.06-0.08,0.09c-0.02,0.02-0.05,0.04-0.08,0.05s-0.07,0.02-0.12,0.03c-0.05,0.01-0.11,0.01-0.18,0.01
		c-0.08,0-0.14-0.01-0.19-0.02c-0.05-0.01-0.08-0.03-0.1-0.04c-0.02-0.02-0.03-0.04-0.02-0.07c0.01-0.03,0.02-0.06,0.05-0.1
		L205.64,1.59z"/>
	<path class="st0" d="M211.58,4.27c0,0.08,0,0.15,0,0.2c0,0.05-0.01,0.1-0.02,0.13s-0.02,0.05-0.04,0.07
		c-0.02,0.02-0.04,0.02-0.07,0.02c-0.03,0-0.06-0.01-0.1-0.02c-0.04-0.02-0.09-0.03-0.14-0.05c-0.05-0.02-0.11-0.03-0.17-0.05
		s-0.13-0.02-0.21-0.02c-0.09,0-0.18,0.02-0.26,0.05s-0.18,0.09-0.27,0.18c-0.09,0.08-0.19,0.19-0.3,0.33
		c-0.1,0.14-0.22,0.3-0.34,0.5v3.18c0,0.03-0.01,0.05-0.02,0.07c-0.01,0.02-0.04,0.04-0.07,0.05s-0.08,0.03-0.13,0.03
		c-0.06,0.01-0.13,0.01-0.22,0.01c-0.09,0-0.16,0-0.21-0.01c-0.06-0.01-0.1-0.02-0.14-0.03s-0.06-0.03-0.07-0.05
		c-0.01-0.02-0.02-0.04-0.02-0.07V3.95c0-0.03,0.01-0.05,0.02-0.07s0.03-0.04,0.06-0.05c0.03-0.02,0.07-0.03,0.12-0.03
		c0.05,0,0.12-0.01,0.2-0.01c0.08,0,0.14,0,0.2,0.01c0.05,0.01,0.09,0.02,0.12,0.03c0.03,0.02,0.05,0.03,0.06,0.05
		c0.01,0.02,0.02,0.04,0.02,0.07v0.7c0.13-0.19,0.26-0.35,0.37-0.47s0.23-0.22,0.33-0.29c0.1-0.07,0.21-0.12,0.31-0.15
		c0.1-0.03,0.2-0.04,0.31-0.04c0.05,0,0.1,0,0.16,0.01c0.06,0.01,0.12,0.02,0.19,0.03c0.06,0.01,0.12,0.03,0.17,0.05
		c0.05,0.02,0.09,0.04,0.11,0.05s0.04,0.04,0.04,0.05c0.01,0.02,0.01,0.04,0.02,0.06c0,0.02,0.01,0.06,0.01,0.11
		C211.57,4.12,211.58,4.19,211.58,4.27z"/>
	<path class="st0" d="M213.57,2.32c0,0.21-0.04,0.35-0.12,0.42c-0.08,0.08-0.22,0.11-0.43,0.11c-0.21,0-0.35-0.04-0.43-0.11
		c-0.08-0.07-0.12-0.21-0.12-0.42c0-0.21,0.04-0.35,0.12-0.42c0.08-0.08,0.22-0.11,0.44-0.11c0.21,0,0.35,0.04,0.43,0.11
		S213.57,2.12,213.57,2.32z M213.47,8.79c0,0.03-0.01,0.05-0.02,0.07c-0.01,0.02-0.04,0.04-0.07,0.05s-0.08,0.03-0.13,0.03
		c-0.06,0.01-0.13,0.01-0.22,0.01c-0.09,0-0.16,0-0.21-0.01c-0.06-0.01-0.1-0.02-0.14-0.03s-0.06-0.03-0.07-0.05
		c-0.01-0.02-0.02-0.04-0.02-0.07V3.95c0-0.02,0.01-0.05,0.02-0.07c0.01-0.02,0.04-0.04,0.07-0.05s0.08-0.03,0.14-0.03
		c0.06-0.01,0.13-0.01,0.21-0.01c0.09,0,0.16,0,0.22,0.01c0.06,0.01,0.1,0.02,0.13,0.03s0.06,0.03,0.07,0.05
		c0.01,0.02,0.02,0.04,0.02,0.07V8.79z"/>
	<path class="st0" d="M219.25,8.79c0,0.03-0.01,0.05-0.02,0.08c-0.01,0.02-0.03,0.04-0.06,0.05c-0.03,0.01-0.07,0.02-0.12,0.03
		c-0.05,0.01-0.11,0.01-0.18,0.01c-0.08,0-0.14,0-0.19-0.01c-0.05-0.01-0.09-0.02-0.12-0.03s-0.06-0.03-0.07-0.05
		c-0.01-0.02-0.02-0.05-0.02-0.08V8.15c-0.25,0.28-0.52,0.49-0.79,0.64c-0.27,0.15-0.57,0.23-0.9,0.23c-0.35,0-0.66-0.07-0.91-0.21
		c-0.25-0.14-0.45-0.32-0.61-0.56c-0.16-0.23-0.27-0.51-0.34-0.83c-0.07-0.32-0.11-0.65-0.11-1c0-0.42,0.04-0.79,0.13-1.12
		c0.09-0.33,0.22-0.62,0.4-0.86c0.18-0.24,0.39-0.42,0.65-0.54c0.26-0.13,0.56-0.19,0.9-0.19c0.28,0,0.54,0.06,0.78,0.19
		c0.23,0.12,0.47,0.3,0.7,0.54V1.63c0-0.02,0.01-0.05,0.02-0.07s0.04-0.04,0.07-0.05c0.04-0.01,0.08-0.02,0.14-0.03
		c0.05-0.01,0.13-0.01,0.21-0.01c0.09,0,0.16,0,0.22,0.01c0.06,0.01,0.1,0.02,0.13,0.03s0.06,0.03,0.07,0.05
		c0.02,0.02,0.02,0.05,0.02,0.07V8.79z M218.36,5.39c-0.24-0.3-0.47-0.52-0.7-0.68c-0.22-0.16-0.46-0.23-0.7-0.23
		c-0.23,0-0.42,0.05-0.58,0.16c-0.16,0.11-0.29,0.25-0.38,0.42c-0.1,0.17-0.17,0.37-0.21,0.6s-0.07,0.45-0.07,0.68
		c0,0.24,0.02,0.48,0.06,0.71c0.04,0.23,0.1,0.44,0.2,0.62c0.09,0.18,0.22,0.33,0.37,0.43c0.15,0.11,0.35,0.16,0.58,0.16
		c0.12,0,0.23-0.02,0.34-0.05c0.11-0.03,0.22-0.09,0.33-0.16c0.12-0.07,0.23-0.17,0.36-0.29c0.12-0.12,0.26-0.27,0.4-0.44V5.39z"/>
	<path class="st0" d="M224.53,8.79c0,0.04-0.01,0.08-0.04,0.1c-0.03,0.02-0.07,0.04-0.12,0.05c-0.05,0.01-0.12,0.02-0.22,0.02
		c-0.09,0-0.17,0-0.22-0.02c-0.06-0.01-0.1-0.03-0.12-0.05c-0.03-0.02-0.04-0.05-0.04-0.1V8.31c-0.21,0.23-0.45,0.4-0.71,0.53
		s-0.53,0.19-0.82,0.19c-0.25,0-0.48-0.03-0.69-0.1s-0.38-0.16-0.53-0.29c-0.14-0.12-0.26-0.28-0.34-0.46
		c-0.08-0.18-0.12-0.39-0.12-0.62c0-0.27,0.06-0.51,0.17-0.71c0.11-0.2,0.27-0.37,0.48-0.5c0.21-0.13,0.46-0.23,0.76-0.3
		s0.64-0.1,1.01-0.1h0.67V5.57c0-0.19-0.02-0.35-0.06-0.49c-0.04-0.14-0.1-0.26-0.19-0.36c-0.09-0.09-0.2-0.17-0.34-0.21
		c-0.14-0.05-0.31-0.07-0.52-0.07c-0.22,0-0.41,0.03-0.59,0.08s-0.33,0.11-0.46,0.17c-0.13,0.06-0.24,0.12-0.33,0.17
		s-0.15,0.08-0.2,0.08c-0.03,0-0.05-0.01-0.08-0.02c-0.02-0.01-0.04-0.04-0.06-0.06c-0.02-0.03-0.03-0.07-0.04-0.11
		c-0.01-0.04-0.01-0.09-0.01-0.15c0-0.09,0.01-0.16,0.02-0.21s0.04-0.1,0.09-0.15c0.05-0.05,0.13-0.1,0.25-0.16s0.25-0.12,0.41-0.17
		c0.15-0.05,0.32-0.09,0.5-0.13s0.37-0.05,0.55-0.05c0.35,0,0.64,0.04,0.89,0.12c0.24,0.08,0.44,0.19,0.59,0.35s0.26,0.34,0.33,0.57
		c0.07,0.23,0.1,0.49,0.1,0.79V8.79z M223.65,6.59h-0.76c-0.24,0-0.46,0.02-0.63,0.06c-0.18,0.04-0.33,0.1-0.45,0.18
		c-0.12,0.08-0.21,0.18-0.26,0.29c-0.06,0.11-0.08,0.24-0.08,0.39c0,0.25,0.08,0.45,0.24,0.6s0.38,0.22,0.67,0.22
		c0.23,0,0.45-0.06,0.65-0.18c0.2-0.12,0.41-0.3,0.62-0.54V6.59z"/>
	<path class="st0" d="M232.84,5.17c0,0.3-0.02,0.61-0.05,0.91c-0.04,0.31-0.1,0.6-0.18,0.89c-0.09,0.29-0.2,0.55-0.35,0.8
		c-0.14,0.25-0.33,0.47-0.55,0.65c-0.22,0.19-0.48,0.33-0.78,0.44s-0.65,0.16-1.06,0.16c-0.15,0-0.3-0.01-0.45-0.03
		c-0.14-0.02-0.28-0.04-0.39-0.07c-0.12-0.03-0.21-0.06-0.29-0.09c-0.08-0.03-0.14-0.06-0.17-0.1c-0.04-0.03-0.06-0.08-0.08-0.13
		c-0.02-0.06-0.02-0.13-0.02-0.22c0-0.08,0-0.14,0.01-0.19c0-0.05,0.01-0.08,0.02-0.11s0.03-0.04,0.05-0.05s0.04-0.01,0.07-0.01
		c0.04,0,0.09,0.01,0.17,0.04c0.07,0.03,0.16,0.06,0.27,0.09c0.11,0.03,0.24,0.06,0.38,0.09c0.15,0.03,0.31,0.04,0.49,0.04
		c0.35,0,0.65-0.07,0.89-0.2c0.25-0.13,0.45-0.31,0.61-0.54c0.16-0.23,0.28-0.49,0.35-0.78c0.08-0.3,0.12-0.61,0.13-0.94
		c-0.19,0.11-0.42,0.21-0.68,0.29c-0.26,0.09-0.57,0.13-0.91,0.13c-0.39,0-0.71-0.05-0.97-0.16c-0.26-0.11-0.47-0.25-0.63-0.43
		s-0.27-0.4-0.34-0.65c-0.07-0.25-0.1-0.53-0.1-0.82c0-0.31,0.04-0.6,0.13-0.88c0.09-0.28,0.23-0.52,0.42-0.73
		c0.19-0.21,0.43-0.38,0.73-0.5c0.29-0.12,0.64-0.19,1.05-0.19c0.29,0,0.55,0.04,0.77,0.11s0.42,0.18,0.58,0.32
		c0.16,0.14,0.3,0.3,0.42,0.5c0.11,0.2,0.21,0.42,0.28,0.66c0.07,0.25,0.12,0.52,0.15,0.8S232.84,4.85,232.84,5.17z M231.9,5.07
		c0-0.46-0.03-0.84-0.09-1.16c-0.06-0.31-0.15-0.57-0.27-0.76s-0.26-0.33-0.44-0.42s-0.37-0.13-0.6-0.13c-0.23,0-0.43,0.04-0.6,0.13
		c-0.16,0.08-0.3,0.2-0.41,0.34s-0.18,0.3-0.23,0.48c-0.05,0.18-0.08,0.36-0.08,0.55c0,0.21,0.02,0.41,0.07,0.58
		c0.04,0.18,0.12,0.32,0.22,0.45c0.1,0.12,0.23,0.22,0.39,0.28s0.36,0.1,0.6,0.1c0.27,0,0.53-0.04,0.78-0.12
		C231.5,5.31,231.72,5.2,231.9,5.07z"/>
	<path class="st0" d="M238.46,2.37c0,0.06,0,0.12-0.01,0.17c0,0.05-0.01,0.1-0.02,0.15c-0.01,0.05-0.02,0.09-0.04,0.14
		c-0.02,0.04-0.04,0.09-0.06,0.14l-2.5,5.77c-0.02,0.04-0.04,0.08-0.07,0.11c-0.03,0.03-0.06,0.05-0.1,0.06
		c-0.04,0.02-0.09,0.03-0.16,0.03c-0.06,0-0.14,0.01-0.24,0.01c-0.12,0-0.22,0-0.28-0.02c-0.07-0.01-0.12-0.03-0.15-0.05
		c-0.03-0.02-0.04-0.05-0.04-0.09c0-0.03,0.02-0.07,0.04-0.12l2.63-5.9h-3.34c-0.07,0-0.12-0.04-0.15-0.11
		c-0.03-0.07-0.05-0.17-0.05-0.3c0-0.07,0-0.13,0.01-0.18s0.02-0.09,0.04-0.13c0.02-0.03,0.04-0.06,0.06-0.08
		c0.03-0.02,0.05-0.02,0.09-0.02h4.05c0.05,0,0.09,0,0.13,0.02c0.04,0.01,0.07,0.03,0.09,0.06c0.02,0.03,0.04,0.07,0.05,0.12
		S238.46,2.29,238.46,2.37z"/>
	<path class="st0" d="M243.94,8.52c0,0.06,0,0.12-0.01,0.17s-0.02,0.09-0.04,0.13c-0.02,0.03-0.04,0.06-0.06,0.08
		c-0.03,0.02-0.06,0.02-0.09,0.02h-3.84c-0.05,0-0.09-0.01-0.13-0.02c-0.04-0.01-0.07-0.03-0.1-0.06c-0.03-0.03-0.05-0.07-0.06-0.12
		s-0.02-0.12-0.02-0.2c0-0.07,0-0.13,0.01-0.19c0.01-0.05,0.02-0.1,0.04-0.14s0.04-0.08,0.07-0.12s0.06-0.08,0.11-0.13l1.39-1.43
		c0.32-0.33,0.58-0.62,0.77-0.89c0.19-0.26,0.34-0.5,0.45-0.71c0.1-0.21,0.17-0.41,0.21-0.59c0.03-0.17,0.05-0.34,0.05-0.49
		c0-0.15-0.03-0.3-0.08-0.44s-0.13-0.26-0.22-0.36s-0.22-0.19-0.37-0.25c-0.15-0.06-0.32-0.09-0.51-0.09
		c-0.22,0-0.43,0.03-0.61,0.09s-0.34,0.13-0.47,0.2c-0.14,0.07-0.25,0.14-0.34,0.2c-0.09,0.06-0.16,0.09-0.2,0.09
		c-0.03,0-0.05-0.01-0.07-0.02c-0.02-0.01-0.04-0.04-0.05-0.07c-0.01-0.03-0.02-0.08-0.03-0.13c-0.01-0.05-0.01-0.12-0.01-0.19
		c0-0.05,0-0.1,0-0.14c0-0.04,0.01-0.07,0.02-0.1c0.01-0.03,0.02-0.06,0.03-0.08c0.01-0.03,0.04-0.06,0.09-0.09
		c0.04-0.04,0.12-0.09,0.22-0.15c0.11-0.06,0.24-0.13,0.4-0.19c0.16-0.06,0.33-0.12,0.53-0.16c0.19-0.04,0.39-0.06,0.6-0.06
		c0.34,0,0.63,0.05,0.88,0.14c0.25,0.09,0.46,0.22,0.63,0.39c0.17,0.17,0.29,0.36,0.37,0.58c0.08,0.22,0.12,0.45,0.12,0.7
		c0,0.22-0.02,0.44-0.06,0.66c-0.04,0.22-0.12,0.46-0.25,0.71s-0.31,0.54-0.55,0.85c-0.24,0.31-0.56,0.67-0.96,1.08l-1.1,1.15h3.02
		c0.03,0,0.06,0.01,0.08,0.02c0.03,0.02,0.05,0.04,0.07,0.07s0.03,0.07,0.04,0.12C243.93,8.4,243.94,8.46,243.94,8.52z"/>
	<path class="st0" d="M249.74,5.43c0,0.53-0.04,1.02-0.13,1.46s-0.22,0.82-0.42,1.14c-0.2,0.32-0.45,0.56-0.77,0.74
		c-0.31,0.17-0.7,0.26-1.17,0.26c-0.44,0-0.8-0.08-1.1-0.23c-0.3-0.16-0.54-0.38-0.72-0.69s-0.31-0.67-0.39-1.12
		s-0.12-0.95-0.12-1.52c0-0.53,0.04-1.02,0.13-1.46s0.23-0.82,0.42-1.14c0.19-0.32,0.45-0.56,0.76-0.74
		c0.31-0.17,0.7-0.26,1.16-0.26c0.44,0,0.81,0.08,1.11,0.23c0.3,0.16,0.54,0.38,0.72,0.69s0.31,0.67,0.39,1.12
		S249.74,4.86,249.74,5.43z M248.8,5.5c0-0.35-0.01-0.66-0.04-0.93c-0.03-0.28-0.06-0.52-0.11-0.73c-0.05-0.21-0.11-0.39-0.19-0.54
		c-0.08-0.15-0.17-0.28-0.28-0.38s-0.23-0.17-0.37-0.21c-0.14-0.04-0.29-0.07-0.46-0.07c-0.3,0-0.55,0.07-0.74,0.21
		c-0.19,0.14-0.34,0.34-0.45,0.59c-0.11,0.25-0.18,0.54-0.22,0.88c-0.04,0.34-0.06,0.7-0.06,1.08c0,0.52,0.03,0.96,0.08,1.32
		s0.14,0.66,0.26,0.89c0.12,0.23,0.26,0.4,0.45,0.5c0.18,0.1,0.4,0.16,0.66,0.16c0.2,0,0.38-0.03,0.53-0.1
		c0.15-0.06,0.28-0.16,0.39-0.28s0.2-0.26,0.27-0.43c0.07-0.17,0.13-0.35,0.17-0.56s0.07-0.42,0.09-0.66
		C248.79,6,248.8,5.75,248.8,5.5z"/>
	<path class="st0" d="M255.03,6.93c0,0.32-0.06,0.61-0.17,0.86c-0.11,0.26-0.27,0.47-0.48,0.66c-0.21,0.18-0.46,0.32-0.77,0.42
		c-0.3,0.1-0.65,0.15-1.03,0.15c-0.23,0-0.45-0.02-0.65-0.06c-0.2-0.04-0.38-0.08-0.54-0.13c-0.16-0.05-0.29-0.11-0.39-0.16
		c-0.1-0.06-0.17-0.1-0.2-0.12c-0.03-0.02-0.05-0.05-0.06-0.07c-0.01-0.03-0.03-0.06-0.04-0.09s-0.02-0.08-0.02-0.13
		c-0.01-0.05-0.01-0.12-0.01-0.19c0-0.13,0.01-0.22,0.04-0.27c0.03-0.05,0.06-0.08,0.11-0.08c0.03,0,0.1,0.03,0.2,0.09
		s0.22,0.12,0.38,0.19c0.15,0.07,0.33,0.13,0.53,0.19c0.2,0.06,0.43,0.09,0.68,0.09c0.24,0,0.46-0.03,0.64-0.09s0.34-0.15,0.46-0.26
		s0.22-0.24,0.28-0.39s0.09-0.32,0.09-0.5c0-0.2-0.04-0.37-0.12-0.53c-0.08-0.16-0.2-0.29-0.35-0.41c-0.15-0.11-0.34-0.2-0.57-0.26
		c-0.22-0.06-0.48-0.09-0.76-0.09h-0.68c-0.03,0-0.06-0.01-0.09-0.02c-0.03-0.01-0.05-0.03-0.07-0.06s-0.04-0.07-0.05-0.11
		c-0.01-0.05-0.02-0.11-0.02-0.18c0-0.07,0-0.12,0.02-0.17s0.03-0.08,0.05-0.11c0.02-0.03,0.04-0.05,0.07-0.06
		C251.53,5,251.56,5,251.6,5h0.61c0.24,0,0.45-0.03,0.64-0.09c0.19-0.06,0.35-0.15,0.48-0.26c0.13-0.11,0.23-0.25,0.3-0.41
		c0.07-0.16,0.1-0.34,0.1-0.54c0-0.14-0.02-0.28-0.07-0.41c-0.05-0.13-0.12-0.24-0.21-0.34c-0.09-0.1-0.21-0.17-0.36-0.23
		c-0.14-0.06-0.31-0.08-0.5-0.08c-0.21,0-0.4,0.03-0.57,0.09s-0.33,0.13-0.46,0.2c-0.14,0.07-0.25,0.14-0.34,0.2
		c-0.09,0.06-0.15,0.09-0.19,0.09c-0.02,0-0.05,0-0.07-0.01c-0.02-0.01-0.04-0.03-0.05-0.05c-0.01-0.03-0.02-0.06-0.03-0.11
		c-0.01-0.05-0.01-0.11-0.01-0.19c0-0.05,0-0.1,0.01-0.14c0-0.04,0.01-0.08,0.02-0.11s0.02-0.06,0.04-0.08
		c0.01-0.03,0.04-0.05,0.07-0.09c0.03-0.03,0.1-0.08,0.21-0.15c0.1-0.06,0.23-0.13,0.38-0.19c0.15-0.06,0.33-0.12,0.53-0.16
		c0.2-0.04,0.41-0.06,0.64-0.06c0.32,0,0.6,0.04,0.85,0.12c0.24,0.08,0.45,0.2,0.61,0.35s0.29,0.33,0.37,0.54
		c0.08,0.21,0.12,0.44,0.12,0.7c0,0.22-0.03,0.42-0.09,0.61c-0.06,0.19-0.14,0.35-0.25,0.5c-0.11,0.15-0.25,0.27-0.41,0.37
		c-0.16,0.1-0.35,0.17-0.56,0.21v0.01c0.24,0.03,0.46,0.08,0.66,0.18c0.2,0.09,0.37,0.21,0.51,0.36c0.14,0.14,0.26,0.31,0.34,0.5
		C254.99,6.51,255.03,6.72,255.03,6.93z"/>
</g>
</svg>
