<?xml version="1.0" encoding="utf-8"?>
<!-- Generator: Adobe Illustrator 25.4.1, SVG Export Plug-In . SVG Version: 6.00 Build 0)  -->
<svg version="1.1" id="Capa_1" xmlns="http://www.w3.org/2000/svg" xmlns:xlink="http://www.w3.org/1999/xlink" x="0px" y="0px"
	 viewBox="0 0 184 7" style="enable-background:new 0 0 184 7;" xml:space="preserve">
<style type="text/css">
	.st0{fill:#3F3E3E;}
</style>
<g>
	<path class="st0" d="M4.14,3.76L4.8,3.93C4.66,4.47,4.41,4.89,4.05,5.18c-0.36,0.29-0.8,0.43-1.32,0.43
		c-0.54,0-0.98-0.11-1.32-0.33c-0.34-0.22-0.6-0.54-0.77-0.96C0.46,3.9,0.37,3.46,0.37,2.98c0-0.52,0.1-0.98,0.3-1.37
		c0.2-0.39,0.48-0.68,0.85-0.89c0.37-0.2,0.77-0.3,1.21-0.3c0.5,0,0.92,0.13,1.26,0.38c0.34,0.25,0.58,0.61,0.71,1.08L4.06,2.04
		c-0.12-0.37-0.28-0.63-0.51-0.8s-0.5-0.25-0.83-0.25c-0.39,0-0.71,0.09-0.97,0.28C1.5,1.45,1.32,1.7,1.21,2.01
		c-0.1,0.31-0.16,0.63-0.16,0.96c0,0.43,0.06,0.8,0.19,1.12C1.36,4.41,1.56,4.64,1.82,4.8s0.55,0.24,0.85,0.24
		c0.37,0,0.69-0.11,0.94-0.32C3.87,4.5,4.04,4.18,4.14,3.76z"/>
	<path class="st0" d="M5.71,5.52v-0.7h0.7v0.7H5.71z"/>
	<path class="st0" d="M12.49,4.93v0.59H9.18c0-0.15,0.02-0.29,0.07-0.43c0.08-0.22,0.22-0.45,0.4-0.67
		c0.19-0.22,0.45-0.47,0.81-0.76c0.54-0.45,0.91-0.8,1.1-1.06s0.29-0.51,0.29-0.74c0-0.24-0.09-0.45-0.26-0.62
		C11.42,1.08,11.19,1,10.91,1c-0.3,0-0.53,0.09-0.71,0.27S9.93,1.69,9.93,2L9.29,1.94C9.34,1.47,9.5,1.11,9.78,0.86
		s0.66-0.37,1.14-0.37c0.48,0,0.86,0.13,1.14,0.4c0.28,0.27,0.42,0.6,0.42,0.99c0,0.2-0.04,0.4-0.12,0.59s-0.22,0.4-0.41,0.61
		C11.76,3.3,11.44,3.59,11,3.96c-0.37,0.31-0.61,0.52-0.71,0.63s-0.19,0.22-0.26,0.33H12.49z"/>
	<path class="st0" d="M13.19,1.17V0.57h3.24v0.48c-0.32,0.34-0.64,0.79-0.95,1.35c-0.31,0.56-0.56,1.14-0.73,1.74
		c-0.12,0.42-0.2,0.88-0.24,1.38h-0.63c0.01-0.39,0.08-0.87,0.23-1.43s0.36-1.1,0.64-1.62c0.28-0.52,0.57-0.96,0.88-1.31H13.19z"/>
	<path class="st0" d="M21.51,5.52V5.06C21.28,5.42,20.94,5.6,20.5,5.6c-0.29,0-0.56-0.08-0.8-0.24c-0.24-0.16-0.43-0.38-0.56-0.67
		c-0.13-0.29-0.2-0.62-0.2-0.99c0-0.36,0.06-0.69,0.18-0.99s0.3-0.52,0.54-0.68c0.24-0.16,0.51-0.24,0.81-0.24
		c0.22,0,0.41,0.05,0.58,0.14c0.17,0.09,0.31,0.21,0.42,0.36v-1.8h0.61v5.01H21.51z M19.57,3.71c0,0.46,0.1,0.81,0.29,1.04
		c0.2,0.23,0.43,0.35,0.69,0.35c0.27,0,0.5-0.11,0.69-0.33c0.19-0.22,0.28-0.55,0.28-1.01c0-0.5-0.1-0.86-0.29-1.09
		s-0.43-0.35-0.71-0.35c-0.27,0-0.5,0.11-0.69,0.34C19.66,2.88,19.57,3.23,19.57,3.71z"/>
	<path class="st0" d="M23.05,1.22V0.51h0.62v0.71H23.05z M23.05,5.52V1.89h0.62v3.63H23.05z"/>
	<path class="st0" d="M26.98,5.07c-0.23,0.19-0.45,0.33-0.66,0.41c-0.21,0.08-0.44,0.12-0.68,0.12c-0.4,0-0.71-0.1-0.92-0.29
		c-0.21-0.2-0.32-0.44-0.32-0.75c0-0.18,0.04-0.34,0.12-0.49c0.08-0.15,0.19-0.26,0.32-0.35c0.13-0.09,0.28-0.16,0.44-0.2
		c0.12-0.03,0.3-0.06,0.55-0.09c0.5-0.06,0.86-0.13,1.1-0.21c0-0.08,0-0.14,0-0.16c0-0.25-0.06-0.43-0.17-0.53
		c-0.16-0.14-0.39-0.21-0.7-0.21c-0.29,0-0.5,0.05-0.64,0.15c-0.14,0.1-0.24,0.28-0.31,0.54l-0.6-0.08
		c0.05-0.26,0.14-0.47,0.27-0.62s0.31-0.28,0.54-0.37c0.24-0.08,0.51-0.13,0.82-0.13c0.31,0,0.56,0.04,0.76,0.11
		s0.34,0.17,0.43,0.28s0.15,0.25,0.19,0.42c0.02,0.1,0.03,0.29,0.03,0.57V4c0,0.57,0.01,0.93,0.04,1.09
		c0.03,0.15,0.08,0.3,0.16,0.44H27.1C27.03,5.39,26.99,5.24,26.98,5.07z M26.92,3.7c-0.22,0.09-0.56,0.17-1,0.23
		c-0.25,0.04-0.43,0.08-0.54,0.12c-0.1,0.05-0.19,0.11-0.24,0.2s-0.09,0.19-0.09,0.29c0,0.16,0.06,0.3,0.19,0.41
		c0.12,0.11,0.31,0.16,0.54,0.16c0.24,0,0.45-0.05,0.63-0.16s0.32-0.25,0.41-0.42c0.07-0.14,0.1-0.34,0.1-0.62V3.7z"/>
	<path class="st0" d="M28.39,5.82l0.6,0.09c0.02,0.18,0.09,0.32,0.21,0.4c0.15,0.11,0.36,0.17,0.63,0.17c0.28,0,0.5-0.06,0.66-0.17
		s0.26-0.27,0.31-0.48c0.03-0.12,0.05-0.39,0.04-0.79c-0.27,0.32-0.6,0.47-1,0.47c-0.5,0-0.89-0.18-1.16-0.54s-0.41-0.79-0.41-1.3
		c0-0.35,0.06-0.67,0.19-0.96S28.76,2.21,29,2.05c0.24-0.16,0.52-0.24,0.84-0.24c0.43,0,0.78,0.17,1.06,0.52V1.89h0.57v3.14
		c0,0.57-0.06,0.97-0.17,1.2c-0.11,0.24-0.3,0.42-0.55,0.56c-0.25,0.14-0.56,0.21-0.92,0.21c-0.43,0-0.78-0.1-1.05-0.29
		C28.51,6.51,28.38,6.21,28.39,5.82z M28.9,3.64c0,0.48,0.09,0.82,0.28,1.04s0.43,0.33,0.71,0.33c0.28,0,0.52-0.11,0.71-0.33
		s0.29-0.56,0.29-1.02c0-0.44-0.1-0.78-0.3-1c-0.2-0.23-0.43-0.34-0.71-0.34c-0.27,0-0.51,0.11-0.7,0.33
		C28.99,2.87,28.9,3.2,28.9,3.64z"/>
	<path class="st0" d="M32.16,3.71c0-0.67,0.19-1.17,0.56-1.49c0.31-0.27,0.69-0.4,1.14-0.4c0.5,0,0.91,0.16,1.22,0.49
		s0.48,0.78,0.48,1.36c0,0.47-0.07,0.83-0.21,1.1c-0.14,0.27-0.34,0.48-0.61,0.62c-0.27,0.15-0.56,0.22-0.88,0.22
		c-0.51,0-0.92-0.16-1.23-0.49C32.32,4.79,32.16,4.32,32.16,3.71z M32.8,3.71c0,0.46,0.1,0.81,0.3,1.04s0.46,0.35,0.77,0.35
		c0.31,0,0.56-0.12,0.76-0.35s0.3-0.59,0.3-1.06c0-0.45-0.1-0.79-0.31-1.02c-0.2-0.23-0.46-0.35-0.76-0.35
		c-0.31,0-0.56,0.12-0.77,0.35S32.8,3.24,32.8,3.71z"/>
	<path class="st0" d="M36.29,5.52V1.89h0.55v0.52c0.27-0.4,0.65-0.6,1.16-0.6c0.22,0,0.42,0.04,0.6,0.12
		c0.18,0.08,0.32,0.18,0.41,0.31c0.09,0.13,0.15,0.28,0.19,0.46c0.02,0.11,0.03,0.31,0.03,0.6v2.23h-0.62V3.31
		c0-0.25-0.02-0.44-0.07-0.56s-0.13-0.22-0.25-0.3c-0.12-0.07-0.27-0.11-0.43-0.11c-0.26,0-0.49,0.08-0.68,0.25
		C37,2.76,36.9,3.07,36.9,3.54v1.98H36.29z"/>
	<path class="st0" d="M42.55,5.07c-0.23,0.19-0.45,0.33-0.66,0.41c-0.21,0.08-0.44,0.12-0.68,0.12c-0.4,0-0.71-0.1-0.92-0.29
		c-0.21-0.2-0.32-0.44-0.32-0.75c0-0.18,0.04-0.34,0.12-0.49c0.08-0.15,0.19-0.26,0.32-0.35c0.13-0.09,0.28-0.16,0.44-0.2
		c0.12-0.03,0.3-0.06,0.55-0.09c0.5-0.06,0.86-0.13,1.1-0.21c0-0.08,0-0.14,0-0.16c0-0.25-0.06-0.43-0.17-0.53
		c-0.16-0.14-0.39-0.21-0.7-0.21c-0.29,0-0.5,0.05-0.64,0.15c-0.14,0.1-0.24,0.28-0.31,0.54l-0.6-0.08
		c0.05-0.26,0.14-0.47,0.27-0.62s0.31-0.28,0.54-0.37c0.24-0.08,0.51-0.13,0.82-0.13c0.31,0,0.56,0.04,0.76,0.11
		s0.34,0.17,0.43,0.28s0.15,0.25,0.19,0.42c0.02,0.1,0.03,0.29,0.03,0.57V4c0,0.57,0.01,0.93,0.04,1.09
		c0.03,0.15,0.08,0.3,0.16,0.44h-0.64C42.61,5.39,42.57,5.24,42.55,5.07z M42.5,3.7c-0.22,0.09-0.56,0.17-1,0.23
		c-0.25,0.04-0.43,0.08-0.54,0.12c-0.1,0.05-0.19,0.11-0.24,0.2s-0.09,0.19-0.09,0.29c0,0.16,0.06,0.3,0.19,0.41
		c0.12,0.11,0.31,0.16,0.54,0.16c0.24,0,0.45-0.05,0.63-0.16s0.32-0.25,0.41-0.42c0.07-0.14,0.1-0.34,0.1-0.62V3.7z"/>
	<path class="st0" d="M44.06,5.52V0.51h0.62v5.01H44.06z"/>
	<path class="st0" d="M47.64,5.52V0.51h0.68l2.63,3.93V0.51h0.64v5.01h-0.68l-2.63-3.94v3.94H47.64z"/>
	<path class="st0" d="M52.4,3.71c0-0.67,0.19-1.17,0.56-1.49c0.31-0.27,0.69-0.4,1.14-0.4c0.5,0,0.91,0.16,1.22,0.49
		s0.48,0.78,0.48,1.36c0,0.47-0.07,0.83-0.21,1.1c-0.14,0.27-0.34,0.48-0.61,0.62C54.71,5.53,54.42,5.6,54.1,5.6
		c-0.51,0-0.92-0.16-1.23-0.49C52.55,4.79,52.4,4.32,52.4,3.71z M53.03,3.71c0,0.46,0.1,0.81,0.3,1.04S53.79,5.1,54.1,5.1
		c0.31,0,0.56-0.12,0.76-0.35s0.3-0.59,0.3-1.06c0-0.45-0.1-0.79-0.31-1.02c-0.2-0.23-0.46-0.35-0.76-0.35
		c-0.31,0-0.56,0.12-0.77,0.35S53.03,3.24,53.03,3.71z"/>
	<path class="st0" d="M56.69,5.52v-0.7h0.7v0.7H56.69z"/>
	<path class="st0" d="M60.24,4.2l0.62-0.08c0.07,0.35,0.19,0.6,0.36,0.75c0.17,0.15,0.38,0.23,0.62,0.23c0.29,0,0.53-0.1,0.73-0.3
		c0.2-0.2,0.3-0.45,0.3-0.75c0-0.28-0.09-0.51-0.28-0.7s-0.42-0.28-0.7-0.28c-0.12,0-0.26,0.02-0.43,0.07l0.07-0.54
		c0.04,0,0.07,0.01,0.1,0.01c0.26,0,0.5-0.07,0.71-0.21s0.31-0.35,0.31-0.63c0-0.23-0.08-0.41-0.23-0.56
		c-0.15-0.15-0.35-0.22-0.59-0.22c-0.24,0-0.44,0.08-0.6,0.23S60.96,1.6,60.92,1.9L60.3,1.79c0.08-0.41,0.25-0.73,0.51-0.96
		s0.6-0.34,0.99-0.34c0.27,0,0.53,0.06,0.76,0.18s0.41,0.28,0.53,0.48c0.12,0.2,0.18,0.42,0.18,0.65c0,0.22-0.06,0.41-0.17,0.59
		s-0.29,0.32-0.52,0.42c0.3,0.07,0.53,0.21,0.69,0.43c0.16,0.21,0.25,0.48,0.25,0.81c0,0.44-0.16,0.81-0.48,1.11
		c-0.32,0.3-0.72,0.46-1.21,0.46c-0.44,0-0.8-0.13-1.1-0.39C60.45,4.95,60.28,4.61,60.24,4.2z"/>
	<path class="st0" d="M64.17,1.17V0.57h3.24v0.48c-0.32,0.34-0.64,0.79-0.95,1.35c-0.31,0.56-0.56,1.14-0.73,1.74
		c-0.12,0.42-0.2,0.88-0.24,1.38h-0.63c0.01-0.39,0.08-0.87,0.23-1.43s0.36-1.1,0.64-1.62c0.28-0.52,0.57-0.96,0.88-1.31H64.17z"/>
	<path class="st0" d="M70,5.52v-1.2h-2.17V3.76l2.29-3.25h0.5v3.25h0.68v0.56h-0.68v1.2H70z M70,3.76V1.5l-1.57,2.26H70z"/>
	<path class="st0" d="M71.85,4.02V3.4h1.89v0.62H71.85z"/>
	<path class="st0" d="M74.47,5.52V0.51h1.88c0.38,0,0.69,0.05,0.92,0.15c0.23,0.1,0.41,0.26,0.54,0.47c0.13,0.21,0.2,0.43,0.2,0.66
		c0,0.21-0.06,0.42-0.17,0.6s-0.29,0.34-0.53,0.46c0.3,0.09,0.54,0.24,0.7,0.46c0.16,0.21,0.24,0.47,0.24,0.76
		c0,0.24-0.05,0.45-0.15,0.66c-0.1,0.2-0.22,0.36-0.37,0.47s-0.33,0.19-0.55,0.25c-0.22,0.06-0.49,0.08-0.81,0.08H74.47z
		 M75.13,2.61h1.08c0.29,0,0.5-0.02,0.63-0.06c0.17-0.05,0.3-0.13,0.38-0.25c0.09-0.12,0.13-0.26,0.13-0.44
		c0-0.17-0.04-0.31-0.12-0.44c-0.08-0.13-0.19-0.21-0.34-0.26S76.5,1.1,76.14,1.1h-1V2.61z M75.13,4.93h1.25
		c0.21,0,0.36-0.01,0.45-0.02c0.15-0.03,0.28-0.07,0.38-0.14s0.19-0.16,0.25-0.28s0.1-0.26,0.1-0.42c0-0.19-0.05-0.35-0.14-0.49
		s-0.23-0.24-0.4-0.29c-0.17-0.06-0.41-0.08-0.73-0.08h-1.16V4.93z"/>
	<path class="st0" d="M83.52,4.35l0.64,0.08c-0.1,0.37-0.29,0.66-0.56,0.86S82.98,5.6,82.56,5.6c-0.53,0-0.95-0.16-1.26-0.49
		c-0.31-0.33-0.47-0.79-0.47-1.38c0-0.61,0.16-1.08,0.47-1.42s0.72-0.51,1.22-0.51c0.49,0,0.88,0.17,1.19,0.5
		c0.31,0.33,0.46,0.8,0.46,1.39c0,0.04,0,0.09,0,0.16h-2.71c0.02,0.4,0.14,0.71,0.34,0.92c0.2,0.21,0.46,0.32,0.76,0.32
		c0.23,0,0.42-0.06,0.58-0.18S83.43,4.61,83.52,4.35z M81.5,3.36h2.03c-0.03-0.3-0.1-0.53-0.23-0.69c-0.2-0.24-0.45-0.36-0.76-0.36
		c-0.28,0-0.52,0.09-0.71,0.28C81.63,2.79,81.52,3.04,81.5,3.36z"/>
	<path class="st0" d="M84.93,5.52V1.89h0.55v0.52c0.27-0.4,0.65-0.6,1.16-0.6c0.22,0,0.42,0.04,0.6,0.12
		c0.18,0.08,0.32,0.18,0.41,0.31c0.09,0.13,0.15,0.28,0.19,0.46c0.02,0.11,0.03,0.31,0.03,0.6v2.23h-0.62V3.31
		c0-0.25-0.02-0.44-0.07-0.56s-0.13-0.22-0.25-0.3c-0.12-0.07-0.27-0.11-0.43-0.11c-0.26,0-0.49,0.08-0.68,0.25
		c-0.19,0.17-0.29,0.48-0.29,0.95v1.98H84.93z"/>
	<path class="st0" d="M90.16,4.97l0.09,0.54c-0.17,0.04-0.33,0.05-0.46,0.05c-0.22,0-0.4-0.04-0.52-0.11
		c-0.12-0.07-0.21-0.16-0.26-0.28s-0.08-0.36-0.08-0.73V2.37h-0.45V1.89h0.45v-0.9l0.61-0.37v1.27h0.62v0.48h-0.62v2.12
		c0,0.18,0.01,0.29,0.03,0.34c0.02,0.05,0.06,0.09,0.11,0.12c0.05,0.03,0.12,0.04,0.21,0.04C89.96,4.99,90.05,4.99,90.16,4.97z"/>
	<path class="st0" d="M90.76,5.52V1.89h0.55v0.55c0.14-0.26,0.27-0.43,0.39-0.51c0.12-0.08,0.25-0.12,0.4-0.12
		c0.21,0,0.42,0.07,0.63,0.2l-0.21,0.57c-0.15-0.09-0.3-0.13-0.45-0.13c-0.13,0-0.26,0.04-0.36,0.12s-0.18,0.19-0.23,0.34
		c-0.07,0.22-0.1,0.46-0.1,0.72v1.9H90.76z"/>
	<path class="st0" d="M95.58,4.35l0.64,0.08c-0.1,0.37-0.29,0.66-0.56,0.86S95.04,5.6,94.62,5.6c-0.53,0-0.95-0.16-1.26-0.49
		c-0.31-0.33-0.47-0.79-0.47-1.38c0-0.61,0.16-1.08,0.47-1.42s0.72-0.51,1.22-0.51c0.49,0,0.88,0.17,1.19,0.5
		c0.31,0.33,0.46,0.8,0.46,1.39c0,0.04,0,0.09,0,0.16h-2.71c0.02,0.4,0.14,0.71,0.34,0.92c0.2,0.21,0.46,0.32,0.76,0.32
		c0.23,0,0.42-0.06,0.58-0.18S95.49,4.61,95.58,4.35z M93.56,3.36h2.03c-0.03-0.3-0.1-0.53-0.23-0.69c-0.2-0.24-0.45-0.36-0.76-0.36
		c-0.28,0-0.52,0.09-0.71,0.28C93.69,2.79,93.58,3.04,93.56,3.36z"/>
	<path class="st0" d="M100.73,5.52v-1.2h-2.17V3.76l2.29-3.25h0.5v3.25h0.68v0.56h-0.68v1.2H100.73z M100.73,3.76V1.5l-1.57,2.26
		H100.73z"/>
	<path class="st0" d="M105.89,4.93v0.59h-3.31c0-0.15,0.02-0.29,0.07-0.43c0.08-0.22,0.22-0.45,0.4-0.67
		c0.19-0.22,0.45-0.47,0.81-0.76c0.54-0.45,0.91-0.8,1.1-1.06s0.29-0.51,0.29-0.74c0-0.24-0.09-0.45-0.26-0.62
		c-0.17-0.17-0.4-0.25-0.68-0.25c-0.3,0-0.53,0.09-0.71,0.27s-0.27,0.42-0.27,0.74l-0.63-0.06c0.04-0.47,0.21-0.83,0.49-1.08
		s0.66-0.37,1.14-0.37c0.48,0,0.86,0.13,1.14,0.4c0.28,0.27,0.42,0.6,0.42,0.99c0,0.2-0.04,0.4-0.12,0.59s-0.22,0.4-0.41,0.61
		c-0.19,0.21-0.51,0.51-0.95,0.88c-0.37,0.31-0.61,0.52-0.71,0.63s-0.19,0.22-0.26,0.33H105.89z"/>
	<path class="st0" d="M108.64,6.92l-0.07-0.58c0.13,0.04,0.25,0.05,0.35,0.05c0.14,0,0.25-0.02,0.33-0.07s0.15-0.11,0.2-0.19
		c0.04-0.06,0.1-0.21,0.19-0.46c0.01-0.03,0.03-0.08,0.05-0.15l-1.38-3.64h0.66l0.76,2.1c0.1,0.27,0.19,0.55,0.26,0.84
		c0.07-0.28,0.15-0.56,0.25-0.83l0.78-2.12h0.62l-1.38,3.69c-0.15,0.4-0.26,0.67-0.35,0.82c-0.11,0.2-0.23,0.35-0.38,0.45
		s-0.31,0.14-0.51,0.14C108.92,6.99,108.78,6.97,108.64,6.92z"/>
	<path class="st0" d="M115.91,5.52v-1.2h-2.17V3.76l2.29-3.25h0.5v3.25h0.68v0.56h-0.68v1.2H115.91z M115.91,3.76V1.5l-1.57,2.26
		H115.91z"/>
	<path class="st0" d="M119.8,5.52v-1.2h-2.17V3.76l2.29-3.25h0.5v3.25h0.68v0.56h-0.68v1.2H119.8z M119.8,3.76V1.5l-1.57,2.26H119.8
		z"/>
	<path class="st0" d="M127.49,3.76l0.66,0.17c-0.14,0.54-0.39,0.96-0.75,1.25c-0.36,0.29-0.8,0.43-1.32,0.43
		c-0.54,0-0.98-0.11-1.32-0.33c-0.34-0.22-0.6-0.54-0.77-0.96c-0.18-0.42-0.26-0.87-0.26-1.34c0-0.52,0.1-0.98,0.3-1.37
		c0.2-0.39,0.48-0.68,0.85-0.89c0.37-0.2,0.77-0.3,1.21-0.3c0.5,0,0.92,0.13,1.26,0.38c0.34,0.25,0.58,0.61,0.71,1.08l-0.65,0.15
		c-0.12-0.37-0.28-0.63-0.51-0.8s-0.5-0.25-0.83-0.25c-0.39,0-0.71,0.09-0.97,0.28c-0.26,0.18-0.44,0.43-0.54,0.74
		c-0.1,0.31-0.16,0.63-0.16,0.96c0,0.43,0.06,0.8,0.19,1.12c0.12,0.32,0.32,0.56,0.58,0.71s0.55,0.24,0.85,0.24
		c0.37,0,0.69-0.11,0.94-0.32C127.23,4.5,127.4,4.18,127.49,3.76z"/>
	<path class="st0" d="M128.67,3.71c0-0.67,0.19-1.17,0.56-1.49c0.31-0.27,0.69-0.4,1.14-0.4c0.5,0,0.91,0.16,1.22,0.49
		s0.48,0.78,0.48,1.36c0,0.47-0.07,0.83-0.21,1.1c-0.14,0.27-0.34,0.48-0.61,0.62c-0.27,0.15-0.56,0.22-0.88,0.22
		c-0.51,0-0.92-0.16-1.23-0.49C128.82,4.79,128.67,4.32,128.67,3.71z M129.3,3.71c0,0.46,0.1,0.81,0.3,1.04s0.46,0.35,0.77,0.35
		c0.31,0,0.56-0.12,0.76-0.35s0.3-0.59,0.3-1.06c0-0.45-0.1-0.79-0.31-1.02c-0.2-0.23-0.46-0.35-0.76-0.35
		c-0.31,0-0.56,0.12-0.77,0.35S129.3,3.24,129.3,3.71z"/>
	<path class="st0" d="M132.77,5.52V0.51h0.62v5.01H132.77z"/>
	<path class="st0" d="M134.52,5.52v-0.7h0.7v0.7H134.52z"/>
	<path class="st0" d="M138.29,5.52V0.51h1l1.19,3.55c0.11,0.33,0.19,0.58,0.24,0.74c0.06-0.18,0.15-0.45,0.27-0.8l1.2-3.49h0.89
		v5.01h-0.64V1.33l-1.46,4.19h-0.6l-1.45-4.27v4.27H138.29z"/>
	<path class="st0" d="M146.55,4.35l0.64,0.08c-0.1,0.37-0.29,0.66-0.56,0.86s-0.62,0.31-1.04,0.31c-0.53,0-0.95-0.16-1.26-0.49
		c-0.31-0.33-0.47-0.79-0.47-1.38c0-0.61,0.16-1.08,0.47-1.42s0.72-0.51,1.22-0.51c0.49,0,0.88,0.17,1.19,0.5
		c0.31,0.33,0.46,0.8,0.46,1.39c0,0.04,0,0.09,0,0.16h-2.71c0.02,0.4,0.14,0.71,0.34,0.92c0.2,0.21,0.46,0.32,0.76,0.32
		c0.23,0,0.42-0.06,0.58-0.18S146.46,4.61,146.55,4.35z M144.53,3.36h2.03c-0.03-0.3-0.1-0.53-0.23-0.69
		c-0.2-0.24-0.45-0.36-0.76-0.36c-0.28,0-0.52,0.09-0.71,0.28C144.66,2.79,144.55,3.04,144.53,3.36z M145.19,1.44l0.45-0.96h0.81
		l-0.75,0.96H145.19z"/>
	<path class="st0" d="M147.95,5.52V1.89h0.55v0.55c0.14-0.26,0.27-0.43,0.39-0.51c0.12-0.08,0.25-0.12,0.4-0.12
		c0.21,0,0.42,0.07,0.63,0.2l-0.21,0.57c-0.15-0.09-0.3-0.13-0.45-0.13c-0.13,0-0.26,0.04-0.36,0.12s-0.18,0.19-0.23,0.34
		c-0.07,0.22-0.1,0.46-0.1,0.72v1.9H147.95z"/>
	<path class="st0" d="M150.29,1.22V0.51h0.62v0.71H150.29z M150.29,5.52V1.89h0.62v3.63H150.29z"/>
	<path class="st0" d="M154.2,5.52V5.06c-0.23,0.36-0.57,0.54-1.02,0.54c-0.29,0-0.56-0.08-0.8-0.24c-0.24-0.16-0.43-0.38-0.56-0.67
		c-0.13-0.29-0.2-0.62-0.2-0.99c0-0.36,0.06-0.69,0.18-0.99s0.3-0.52,0.54-0.68c0.24-0.16,0.51-0.24,0.81-0.24
		c0.22,0,0.41,0.05,0.58,0.14c0.17,0.09,0.31,0.21,0.42,0.36v-1.8h0.61v5.01H154.2z M152.25,3.71c0,0.46,0.1,0.81,0.29,1.04
		c0.2,0.23,0.43,0.35,0.69,0.35c0.27,0,0.5-0.11,0.69-0.33c0.19-0.22,0.28-0.55,0.28-1.01c0-0.5-0.1-0.86-0.29-1.09
		s-0.43-0.35-0.71-0.35c-0.27,0-0.5,0.11-0.69,0.34C152.35,2.88,152.25,3.23,152.25,3.71z"/>
	<path class="st0" d="M158.11,5.07c-0.23,0.19-0.45,0.33-0.66,0.41c-0.21,0.08-0.44,0.12-0.68,0.12c-0.4,0-0.71-0.1-0.92-0.29
		c-0.21-0.2-0.32-0.44-0.32-0.75c0-0.18,0.04-0.34,0.12-0.49c0.08-0.15,0.19-0.26,0.32-0.35c0.13-0.09,0.28-0.16,0.44-0.2
		c0.12-0.03,0.3-0.06,0.55-0.09c0.5-0.06,0.86-0.13,1.1-0.21c0-0.08,0-0.14,0-0.16c0-0.25-0.06-0.43-0.17-0.53
		c-0.16-0.14-0.39-0.21-0.7-0.21c-0.29,0-0.5,0.05-0.64,0.15c-0.14,0.1-0.24,0.28-0.31,0.54l-0.6-0.08
		c0.05-0.26,0.14-0.47,0.27-0.62s0.31-0.28,0.54-0.37c0.24-0.08,0.51-0.13,0.82-0.13c0.31,0,0.56,0.04,0.76,0.11
		s0.34,0.17,0.43,0.28s0.15,0.25,0.19,0.42c0.02,0.1,0.03,0.29,0.03,0.57V4c0,0.57,0.01,0.93,0.04,1.09
		c0.03,0.15,0.08,0.3,0.16,0.44h-0.64C158.16,5.39,158.12,5.24,158.11,5.07z M158.05,3.7c-0.22,0.09-0.56,0.17-1,0.23
		c-0.25,0.04-0.43,0.08-0.54,0.12c-0.1,0.05-0.19,0.11-0.24,0.2s-0.09,0.19-0.09,0.29c0,0.16,0.06,0.3,0.19,0.41
		c0.12,0.11,0.31,0.16,0.54,0.16c0.24,0,0.45-0.05,0.63-0.16s0.32-0.25,0.41-0.42c0.07-0.14,0.1-0.34,0.1-0.62V3.7z"/>
	<path class="st0" d="M161.5,4.36l0.59-0.05c0.05,0.28,0.15,0.48,0.29,0.6s0.32,0.19,0.54,0.19c0.19,0,0.35-0.04,0.5-0.13
		c0.14-0.09,0.26-0.2,0.35-0.35s0.17-0.34,0.23-0.59s0.09-0.5,0.09-0.75c0-0.03,0-0.07,0-0.12c-0.12,0.2-0.29,0.35-0.5,0.48
		c-0.21,0.12-0.44,0.18-0.69,0.18c-0.41,0-0.77-0.15-1.05-0.45s-0.43-0.7-0.43-1.19c0-0.51,0.15-0.92,0.45-1.23
		c0.3-0.31,0.67-0.46,1.13-0.46c0.33,0,0.62,0.09,0.89,0.26c0.27,0.17,0.48,0.42,0.62,0.75c0.14,0.32,0.21,0.79,0.21,1.41
		c0,0.64-0.07,1.15-0.21,1.53c-0.14,0.38-0.35,0.67-0.62,0.87c-0.27,0.2-0.6,0.3-0.97,0.3c-0.39,0-0.71-0.11-0.96-0.33
		S161.55,4.75,161.5,4.36z M164.02,2.15c0-0.35-0.09-0.63-0.28-0.84C163.54,1.1,163.32,1,163.05,1c-0.27,0-0.51,0.11-0.71,0.33
		c-0.2,0.22-0.3,0.51-0.3,0.87c0,0.32,0.1,0.58,0.29,0.78c0.19,0.2,0.43,0.3,0.71,0.3c0.28,0,0.52-0.1,0.7-0.3
		C163.92,2.78,164.02,2.5,164.02,2.15z"/>
	<path class="st0" d="M165.34,1.17V0.57h3.24v0.48c-0.32,0.34-0.64,0.79-0.95,1.35c-0.31,0.56-0.56,1.14-0.73,1.74
		c-0.12,0.42-0.2,0.88-0.24,1.38h-0.63c0.01-0.39,0.08-0.87,0.23-1.43s0.36-1.1,0.64-1.62c0.28-0.52,0.57-0.96,0.88-1.31H165.34z"/>
	<path class="st0" d="M172.42,4.93v0.59h-3.31c0-0.15,0.02-0.29,0.07-0.43c0.08-0.22,0.22-0.45,0.4-0.67
		c0.19-0.22,0.45-0.47,0.81-0.76c0.54-0.45,0.91-0.8,1.1-1.06s0.29-0.51,0.29-0.74c0-0.24-0.09-0.45-0.26-0.62
		c-0.17-0.17-0.4-0.25-0.68-0.25c-0.3,0-0.53,0.09-0.71,0.27s-0.27,0.42-0.27,0.74l-0.63-0.06c0.04-0.47,0.21-0.83,0.49-1.08
		s0.66-0.37,1.14-0.37c0.48,0,0.86,0.13,1.14,0.4c0.28,0.27,0.42,0.6,0.42,0.99c0,0.2-0.04,0.4-0.12,0.59s-0.22,0.4-0.41,0.61
		c-0.19,0.21-0.51,0.51-0.95,0.88c-0.37,0.31-0.61,0.52-0.71,0.63s-0.19,0.22-0.26,0.33H172.42z"/>
	<path class="st0" d="M173.08,3.05c0-0.59,0.06-1.07,0.18-1.43c0.12-0.36,0.3-0.64,0.54-0.84c0.24-0.2,0.54-0.29,0.91-0.29
		c0.27,0,0.5,0.05,0.71,0.16s0.37,0.26,0.5,0.47s0.24,0.45,0.31,0.75s0.11,0.69,0.11,1.18c0,0.59-0.06,1.06-0.18,1.42
		s-0.3,0.64-0.54,0.84c-0.24,0.2-0.54,0.3-0.91,0.3c-0.48,0-0.86-0.17-1.14-0.52C173.25,4.67,173.08,3.99,173.08,3.05z M173.72,3.05
		c0,0.82,0.1,1.37,0.29,1.64c0.19,0.27,0.43,0.41,0.71,0.41s0.52-0.14,0.71-0.41c0.19-0.27,0.29-0.82,0.29-1.64
		c0-0.83-0.1-1.37-0.29-1.64C175.24,1.13,175,1,174.71,1c-0.28,0-0.51,0.12-0.68,0.36C173.82,1.66,173.72,2.23,173.72,3.05z"/>
	<path class="st0" d="M176.98,4.2l0.62-0.08c0.07,0.35,0.19,0.6,0.36,0.75c0.17,0.15,0.38,0.23,0.62,0.23c0.29,0,0.53-0.1,0.73-0.3
		c0.2-0.2,0.3-0.45,0.3-0.75c0-0.28-0.09-0.51-0.28-0.7s-0.42-0.28-0.7-0.28c-0.12,0-0.26,0.02-0.43,0.07l0.07-0.54
		c0.04,0,0.07,0.01,0.1,0.01c0.26,0,0.5-0.07,0.71-0.21s0.31-0.35,0.31-0.63c0-0.23-0.08-0.41-0.23-0.56
		c-0.15-0.15-0.35-0.22-0.59-0.22c-0.24,0-0.44,0.08-0.6,0.23s-0.26,0.38-0.31,0.68l-0.62-0.11c0.08-0.41,0.25-0.73,0.51-0.96
		s0.6-0.34,0.99-0.34c0.27,0,0.53,0.06,0.76,0.18s0.41,0.28,0.53,0.48c0.12,0.2,0.18,0.42,0.18,0.65c0,0.22-0.06,0.41-0.17,0.59
		s-0.29,0.32-0.52,0.42c0.3,0.07,0.53,0.21,0.69,0.43c0.16,0.21,0.25,0.48,0.25,0.81c0,0.44-0.16,0.81-0.48,1.11
		c-0.32,0.3-0.72,0.46-1.21,0.46c-0.44,0-0.8-0.13-1.1-0.39C177.19,4.95,177.02,4.61,176.98,4.2z"/>
</g>
</svg>
