<?xml version="1.0" encoding="utf-8"?>
<!-- Generator: Adobe Illustrator 25.4.1, SVG Export Plug-In . SVG Version: 6.00 Build 0)  -->
<svg version="1.1" id="Capa_1" xmlns="http://www.w3.org/2000/svg" xmlns:xlink="http://www.w3.org/1999/xlink" x="0px" y="0px"
	 viewBox="0 0 252 77.61" style="enable-background:new 0 0 252 77.61;" xml:space="preserve">
<style type="text/css">
	.st0{fill:#3F3E3E;}
</style>
<g>
	<path d="M8.48,18.38v-2.05h5.29v4.85c-0.51,0.5-1.26,0.94-2.24,1.32s-1.97,0.57-2.97,0.57c-1.27,0-2.38-0.27-3.33-0.8
		c-0.95-0.53-1.66-1.3-2.13-2.29C2.64,18.98,2.4,17.9,2.4,16.73c0-1.27,0.27-2.39,0.8-3.38s1.31-1.74,2.33-2.27
		c0.78-0.4,1.75-0.61,2.91-0.61c1.51,0,2.69,0.32,3.54,0.95c0.85,0.63,1.4,1.51,1.64,2.63l-2.44,0.46c-0.17-0.6-0.49-1.07-0.97-1.42
		c-0.47-0.35-1.06-0.52-1.77-0.52c-1.07,0-1.93,0.34-2.56,1.02s-0.95,1.69-0.95,3.03c0,1.45,0.32,2.53,0.96,3.25
		c0.64,0.72,1.48,1.08,2.52,1.08c0.51,0,1.03-0.1,1.55-0.3c0.52-0.2,0.96-0.45,1.33-0.74v-1.54H8.48z"/>
	<path d="M17.77,16.73l-2.12-0.38c0.24-0.85,0.65-1.48,1.23-1.89c0.58-0.41,1.44-0.62,2.59-0.62c1.04,0,1.81,0.12,2.32,0.37
		c0.51,0.25,0.87,0.56,1.07,0.94c0.21,0.38,0.31,1.07,0.31,2.09l-0.02,2.72c0,0.77,0.04,1.35,0.11,1.71
		c0.07,0.37,0.21,0.76,0.42,1.18h-2.31c-0.06-0.16-0.13-0.38-0.22-0.69c-0.04-0.14-0.07-0.23-0.08-0.27
		c-0.4,0.39-0.82,0.68-1.28,0.87s-0.94,0.29-1.45,0.29c-0.91,0-1.62-0.25-2.15-0.74s-0.78-1.12-0.78-1.87c0-0.5,0.12-0.94,0.36-1.33
		c0.24-0.39,0.57-0.69,1-0.9c0.43-0.21,1.05-0.39,1.86-0.54c1.09-0.21,1.85-0.4,2.27-0.57v-0.23c0-0.45-0.11-0.77-0.33-0.96
		c-0.22-0.19-0.64-0.29-1.25-0.29c-0.42,0-0.74,0.08-0.97,0.24C18.1,16.04,17.92,16.32,17.77,16.73z M20.89,18.62
		c-0.3,0.1-0.77,0.22-1.42,0.36c-0.65,0.14-1.07,0.27-1.27,0.41c-0.3,0.22-0.46,0.49-0.46,0.82c0,0.33,0.12,0.61,0.37,0.85
		c0.24,0.24,0.55,0.36,0.93,0.36c0.42,0,0.82-0.14,1.2-0.41c0.28-0.21,0.47-0.47,0.56-0.77c0.06-0.2,0.09-0.58,0.09-1.14V18.62z"/>
	<path d="M25.38,22.86V10.69h2.33v4.38c0.72-0.82,1.57-1.23,2.56-1.23c1.07,0,1.96,0.39,2.66,1.17c0.7,0.78,1.05,1.89,1.05,3.35
		c0,1.51-0.36,2.67-1.08,3.48c-0.72,0.81-1.59,1.22-2.61,1.22c-0.5,0-1-0.13-1.49-0.38c-0.49-0.25-0.91-0.62-1.27-1.12v1.29H25.38z
		 M27.7,18.26c0,0.91,0.14,1.59,0.43,2.03c0.4,0.62,0.94,0.93,1.61,0.93c0.51,0,0.95-0.22,1.32-0.66c0.36-0.44,0.54-1.13,0.54-2.08
		c0-1.01-0.18-1.73-0.55-2.18c-0.37-0.45-0.83-0.67-1.4-0.67c-0.56,0-1.02,0.22-1.39,0.65C27.88,16.71,27.7,17.37,27.7,18.26z"/>
	<path d="M37.61,16.73l-2.12-0.38c0.24-0.85,0.65-1.48,1.23-1.89c0.58-0.41,1.45-0.62,2.59-0.62c1.04,0,1.82,0.12,2.32,0.37
		c0.51,0.25,0.87,0.56,1.08,0.94c0.21,0.38,0.31,1.07,0.31,2.09L43,19.96c0,0.77,0.04,1.35,0.11,1.71c0.07,0.37,0.21,0.76,0.42,1.18
		h-2.31c-0.06-0.16-0.14-0.38-0.22-0.69c-0.04-0.14-0.07-0.23-0.08-0.27c-0.4,0.39-0.83,0.68-1.28,0.87s-0.94,0.29-1.45,0.29
		c-0.91,0-1.62-0.25-2.14-0.74c-0.52-0.49-0.79-1.12-0.79-1.87c0-0.5,0.12-0.94,0.36-1.33c0.24-0.39,0.57-0.69,1-0.9
		c0.43-0.21,1.05-0.39,1.86-0.54c1.09-0.21,1.85-0.4,2.27-0.57v-0.23c0-0.45-0.11-0.77-0.33-0.96c-0.22-0.19-0.64-0.29-1.25-0.29
		c-0.41,0-0.74,0.08-0.97,0.24C37.94,16.04,37.75,16.32,37.61,16.73z M40.73,18.62c-0.3,0.1-0.77,0.22-1.42,0.36
		c-0.65,0.14-1.07,0.27-1.27,0.41c-0.3,0.22-0.46,0.49-0.46,0.82c0,0.33,0.12,0.61,0.37,0.85c0.24,0.24,0.55,0.36,0.93,0.36
		c0.42,0,0.82-0.14,1.2-0.41c0.28-0.21,0.47-0.47,0.56-0.77c0.06-0.2,0.09-0.58,0.09-1.14V18.62z"/>
	<path d="M47.55,22.86h-2.33v-8.82h2.17v1.25c0.37-0.59,0.7-0.98,1-1.17c0.3-0.19,0.63-0.28,1.01-0.28c0.53,0,1.04,0.15,1.54,0.44
		l-0.72,2.03c-0.39-0.25-0.76-0.38-1.1-0.38c-0.33,0-0.6,0.09-0.83,0.27c-0.23,0.18-0.41,0.51-0.54,0.98
		c-0.13,0.47-0.2,1.46-0.2,2.96V22.86z"/>
	<path d="M56.6,22.86V10.69h2.46v12.17H56.6z"/>
	<path d="M69.4,22.86h-2.33v-4.5c0-0.95-0.05-1.57-0.15-1.85c-0.1-0.28-0.26-0.5-0.49-0.65c-0.22-0.15-0.49-0.23-0.81-0.23
		c-0.4,0-0.77,0.11-1.09,0.33c-0.32,0.22-0.54,0.51-0.66,0.88s-0.18,1.04-0.18,2.03v3.99h-2.33v-8.82h2.17v1.29
		c0.77-1,1.74-1.49,2.9-1.49c0.52,0,0.99,0.09,1.41,0.28c0.43,0.18,0.75,0.42,0.97,0.71s0.37,0.61,0.46,0.98
		c0.08,0.37,0.13,0.89,0.13,1.57V22.86z"/>
	<path d="M71.55,23.44l2.67,0.32c0.04,0.31,0.15,0.52,0.31,0.64c0.22,0.17,0.57,0.25,1.04,0.25c0.61,0,1.07-0.09,1.37-0.27
		c0.2-0.12,0.36-0.32,0.46-0.59c0.07-0.19,0.11-0.55,0.11-1.07v-1.29c-0.7,0.95-1.58,1.43-2.64,1.43c-1.18,0-2.12-0.5-2.81-1.5
		c-0.54-0.79-0.81-1.78-0.81-2.96c0-1.48,0.36-2.61,1.07-3.39s1.6-1.17,2.65-1.17c1.09,0,1.99,0.48,2.7,1.44v-1.24h2.18v7.91
		c0,1.04-0.09,1.82-0.26,2.33c-0.17,0.51-0.41,0.92-0.72,1.21c-0.31,0.29-0.72,0.52-1.24,0.69s-1.17,0.25-1.96,0.25
		c-1.49,0-2.55-0.26-3.18-0.77c-0.62-0.51-0.94-1.16-0.94-1.95C71.54,23.64,71.55,23.55,71.55,23.44z M73.64,18.27
		c0,0.93,0.18,1.62,0.54,2.05c0.36,0.44,0.81,0.65,1.34,0.65c0.57,0,1.05-0.22,1.44-0.67c0.39-0.45,0.59-1.11,0.59-1.98
		c0-0.91-0.19-1.59-0.56-2.03c-0.38-0.44-0.85-0.66-1.43-0.66c-0.56,0-1.02,0.22-1.38,0.65C73.82,16.71,73.64,17.38,73.64,18.27z"/>
	<path d="M87.26,20.05l2.32,0.39c-0.3,0.85-0.77,1.5-1.41,1.95c-0.65,0.45-1.45,0.67-2.42,0.67c-1.53,0-2.67-0.5-3.4-1.5
		c-0.58-0.8-0.87-1.82-0.87-3.04c0-1.46,0.38-2.61,1.15-3.43c0.76-0.83,1.73-1.24,2.9-1.24c1.31,0,2.35,0.43,3.1,1.3
		c0.76,0.87,1.12,2.19,1.09,3.98h-5.84c0.02,0.69,0.21,1.23,0.56,1.62s0.81,0.58,1.34,0.58c0.37,0,0.67-0.1,0.92-0.3
		C86.94,20.82,87.13,20.5,87.26,20.05z M87.39,17.69c-0.02-0.67-0.19-1.19-0.52-1.54c-0.33-0.35-0.74-0.53-1.21-0.53
		c-0.51,0-0.93,0.19-1.26,0.56c-0.33,0.37-0.5,0.87-0.49,1.51H87.39z"/>
	<path d="M99.63,22.86h-2.33v-4.5c0-0.95-0.05-1.57-0.15-1.85c-0.1-0.28-0.26-0.5-0.49-0.65c-0.22-0.15-0.49-0.23-0.81-0.23
		c-0.4,0-0.77,0.11-1.09,0.33c-0.32,0.22-0.54,0.51-0.66,0.88c-0.12,0.37-0.18,1.04-0.18,2.03v3.99h-2.33v-8.82h2.17v1.29
		c0.77-1,1.74-1.49,2.91-1.49c0.51,0,0.99,0.09,1.41,0.28c0.43,0.18,0.75,0.42,0.97,0.71s0.37,0.61,0.46,0.98
		c0.09,0.37,0.13,0.89,0.13,1.57V22.86z"/>
	<path d="M101.99,12.85v-2.16h2.33v2.16H101.99z M101.99,22.86v-8.82h2.33v8.82H101.99z"/>
	<path d="M111.82,20.05l2.32,0.39c-0.3,0.85-0.77,1.5-1.42,1.95c-0.65,0.45-1.45,0.67-2.42,0.67c-1.53,0-2.67-0.5-3.4-1.5
		c-0.58-0.8-0.87-1.82-0.87-3.04c0-1.46,0.38-2.61,1.14-3.43c0.76-0.83,1.73-1.24,2.9-1.24c1.31,0,2.35,0.43,3.1,1.3
		c0.76,0.87,1.12,2.19,1.09,3.98h-5.84c0.02,0.69,0.2,1.23,0.56,1.62c0.36,0.38,0.81,0.58,1.34,0.58c0.37,0,0.67-0.1,0.92-0.3
		S111.69,20.5,111.82,20.05z M111.95,17.69c-0.02-0.67-0.19-1.19-0.52-1.54c-0.33-0.35-0.74-0.53-1.21-0.53
		c-0.51,0-0.93,0.19-1.26,0.56c-0.33,0.37-0.5,0.87-0.49,1.51H111.95z"/>
	<path d="M118.4,22.86h-2.33v-8.82h2.17v1.25c0.37-0.59,0.71-0.98,1-1.17c0.3-0.19,0.63-0.28,1.01-0.28c0.53,0,1.04,0.15,1.54,0.44
		l-0.72,2.03c-0.39-0.25-0.76-0.38-1.1-0.38c-0.33,0-0.6,0.09-0.83,0.27c-0.23,0.18-0.4,0.51-0.54,0.98
		c-0.13,0.47-0.2,1.46-0.2,2.96V22.86z"/>
	<path d="M122.61,12.96l1.15-2.48h2.61l-2.28,2.48H122.61z M122.78,22.86v-8.82h2.33v8.82H122.78z"/>
	<path d="M129.25,16.73l-2.12-0.38c0.24-0.85,0.65-1.48,1.23-1.89c0.58-0.41,1.45-0.62,2.59-0.62c1.04,0,1.82,0.12,2.32,0.37
		c0.51,0.25,0.87,0.56,1.08,0.94c0.21,0.38,0.31,1.07,0.31,2.09l-0.03,2.72c0,0.77,0.04,1.35,0.11,1.71
		c0.07,0.37,0.21,0.76,0.42,1.18h-2.31c-0.06-0.16-0.14-0.38-0.22-0.69c-0.04-0.14-0.07-0.23-0.08-0.27
		c-0.4,0.39-0.83,0.68-1.28,0.87s-0.94,0.29-1.45,0.29c-0.91,0-1.62-0.25-2.14-0.74c-0.52-0.49-0.79-1.12-0.79-1.87
		c0-0.5,0.12-0.94,0.36-1.33c0.24-0.39,0.57-0.69,1-0.9c0.43-0.21,1.05-0.39,1.86-0.54c1.09-0.21,1.85-0.4,2.27-0.57v-0.23
		c0-0.45-0.11-0.77-0.33-0.96c-0.22-0.19-0.64-0.29-1.25-0.29c-0.41,0-0.74,0.08-0.97,0.24C129.58,16.04,129.4,16.32,129.25,16.73z
		 M132.37,18.62c-0.3,0.1-0.77,0.22-1.42,0.36c-0.65,0.14-1.07,0.27-1.27,0.41c-0.3,0.22-0.46,0.49-0.46,0.82
		c0,0.33,0.12,0.61,0.37,0.85c0.24,0.24,0.55,0.36,0.93,0.36c0.42,0,0.82-0.14,1.2-0.41c0.28-0.21,0.47-0.47,0.56-0.77
		c0.06-0.2,0.09-0.58,0.09-1.14V18.62z"/>
</g>
<g>
	<path d="M7.19,62.58V61.4l4.24-0.01v3.72c-0.65,0.52-1.32,0.91-2.02,1.17c-0.69,0.26-1.4,0.39-2.13,0.39
		c-0.98,0-1.88-0.21-2.68-0.63c-0.8-0.42-1.41-1.03-1.82-1.83c-0.41-0.8-0.62-1.69-0.62-2.67c0-0.97,0.21-1.89,0.61-2.73
		c0.41-0.85,1-1.47,1.76-1.88s1.65-0.62,2.64-0.62c0.72,0,1.38,0.12,1.97,0.35c0.58,0.23,1.04,0.56,1.38,0.98
		c0.33,0.42,0.58,0.97,0.76,1.64l-1.2,0.33c-0.15-0.51-0.34-0.91-0.56-1.2c-0.22-0.29-0.54-0.53-0.96-0.7
		c-0.42-0.18-0.88-0.26-1.38-0.26c-0.61,0-1.13,0.09-1.57,0.28c-0.44,0.18-0.8,0.43-1.07,0.73s-0.48,0.63-0.63,0.99
		c-0.25,0.62-0.38,1.29-0.38,2.02c0,0.89,0.15,1.64,0.46,2.24s0.75,1.05,1.34,1.34c0.59,0.29,1.21,0.44,1.87,0.44
		c0.57,0,1.13-0.11,1.68-0.33c0.55-0.22,0.96-0.46,1.24-0.71v-1.87H7.19z"/>
	<path d="M12.29,66.51l3.85-10.02h1.43l4.1,10.02h-1.51l-1.17-3.04H14.8l-1.1,3.04H12.29z M15.18,62.39h3.4l-1.05-2.78
		c-0.32-0.84-0.56-1.54-0.71-2.08c-0.13,0.64-0.31,1.28-0.54,1.91L15.18,62.39z"/>
	<path d="M22.67,66.51V56.49h3.76c0.77,0,1.38,0.1,1.84,0.3c0.46,0.2,0.83,0.51,1.09,0.94c0.26,0.42,0.39,0.86,0.39,1.32
		c0,0.43-0.12,0.83-0.35,1.21c-0.23,0.38-0.58,0.68-1.05,0.92c0.61,0.18,1.07,0.48,1.4,0.91c0.33,0.43,0.49,0.93,0.49,1.52
		c0,0.47-0.1,0.91-0.3,1.31s-0.44,0.71-0.74,0.93c-0.29,0.22-0.66,0.38-1.1,0.5c-0.44,0.11-0.98,0.17-1.62,0.17H22.67z M24,60.7
		h2.17c0.59,0,1.01-0.04,1.26-0.12c0.34-0.1,0.59-0.27,0.76-0.5s0.26-0.52,0.26-0.88c0-0.33-0.08-0.62-0.24-0.88
		c-0.16-0.25-0.39-0.43-0.68-0.52c-0.3-0.09-0.8-0.14-1.52-0.14h-2V60.7z M24,65.32h2.5c0.43,0,0.73-0.02,0.9-0.05
		c0.3-0.05,0.56-0.15,0.77-0.27c0.21-0.13,0.37-0.31,0.51-0.56c0.13-0.24,0.2-0.53,0.2-0.84c0-0.37-0.1-0.7-0.29-0.97
		c-0.19-0.28-0.46-0.47-0.8-0.58c-0.34-0.11-0.83-0.17-1.47-0.17H24V65.32z"/>
	<path d="M30.97,66.51l3.85-10.02h1.43l4.1,10.02h-1.51l-1.17-3.04h-4.19l-1.1,3.04H30.97z M33.86,62.39h3.4l-1.05-2.78
		c-0.32-0.84-0.56-1.54-0.71-2.08c-0.13,0.64-0.31,1.28-0.54,1.91L33.86,62.39z"/>
	<path d="M41.42,66.51V56.49h4.44c0.89,0,1.57,0.09,2.04,0.27c0.46,0.18,0.84,0.5,1.11,0.95c0.28,0.46,0.42,0.96,0.42,1.51
		c0,0.71-0.23,1.31-0.69,1.8c-0.46,0.49-1.17,0.8-2.13,0.93c0.35,0.17,0.62,0.33,0.8,0.5c0.39,0.36,0.75,0.8,1.1,1.33l1.74,2.73
		h-1.67l-1.33-2.08c-0.39-0.6-0.71-1.06-0.96-1.38c-0.25-0.32-0.48-0.54-0.67-0.67c-0.2-0.13-0.4-0.22-0.61-0.27
		c-0.15-0.03-0.4-0.05-0.74-0.05h-1.54v4.45H41.42z M42.75,60.91h2.85c0.61,0,1.08-0.06,1.42-0.19c0.34-0.13,0.6-0.33,0.78-0.6
		c0.18-0.28,0.27-0.58,0.27-0.9c0-0.47-0.17-0.86-0.52-1.17c-0.34-0.3-0.89-0.46-1.63-0.46h-3.17V60.91z"/>
</g>
</svg>
