<?xml version="1.0" encoding="utf-8"?>
<!-- Generator: Adobe Illustrator 25.4.1, SVG Export Plug-In . SVG Version: 6.00 Build 0)  -->
<svg version="1.1" id="Capa_1" xmlns="http://www.w3.org/2000/svg" xmlns:xlink="http://www.w3.org/1999/xlink" x="0px" y="0px"
	 viewBox="0 0 184 7" style="enable-background:new 0 0 184 7;" xml:space="preserve">
<style type="text/css">
	.st0{fill:#3F3E3E;}
</style>
<g>
	<path class="st0" d="M0.37,5.82l0.6,0.09c0.02,0.18,0.09,0.32,0.21,0.4C1.33,6.43,1.54,6.48,1.8,6.48c0.28,0,0.5-0.06,0.66-0.17
		C2.62,6.2,2.72,6.04,2.78,5.83c0.03-0.12,0.05-0.39,0.04-0.79c-0.27,0.32-0.6,0.47-1,0.47c-0.5,0-0.89-0.18-1.16-0.54
		s-0.41-0.79-0.41-1.3c0-0.35,0.06-0.67,0.19-0.96s0.31-0.52,0.55-0.68C1.22,1.89,1.5,1.81,1.82,1.81c0.43,0,0.78,0.17,1.06,0.52
		V1.89h0.57v3.14c0,0.57-0.06,0.97-0.17,1.2c-0.12,0.24-0.3,0.42-0.55,0.56S2.17,6.99,1.8,6.99c-0.43,0-0.78-0.1-1.05-0.29
		C0.49,6.51,0.36,6.21,0.37,5.82z M0.88,3.64c0,0.48,0.09,0.82,0.28,1.04C1.35,4.9,1.59,5.01,1.87,5.01c0.28,0,0.52-0.11,0.71-0.33
		s0.29-0.56,0.29-1.02c0-0.44-0.1-0.78-0.29-1S2.14,2.32,1.86,2.32c-0.27,0-0.51,0.11-0.7,0.33C0.97,2.87,0.88,3.2,0.88,3.64z"/>
	<path class="st0" d="M4.55,5.52v-0.7h0.7v0.7H4.55z"/>
	<path class="st0" d="M6.31,5.52V1.89h0.55v0.55c0.14-0.26,0.27-0.43,0.39-0.51c0.12-0.08,0.25-0.12,0.4-0.12
		c0.21,0,0.42,0.07,0.63,0.2L8.07,2.58c-0.15-0.09-0.3-0.13-0.45-0.13c-0.13,0-0.26,0.04-0.36,0.12C7.15,2.65,7.08,2.76,7.03,2.9
		c-0.07,0.22-0.1,0.46-0.1,0.72v1.9H6.31z"/>
	<path class="st0" d="M8.65,1.22V0.51h0.62v0.71H8.65z M8.65,5.52V1.89h0.62v3.63H8.65z"/>
	<path class="st0" d="M9.98,3.71c0-0.67,0.19-1.17,0.56-1.49c0.31-0.27,0.69-0.4,1.14-0.4c0.5,0,0.91,0.16,1.22,0.49
		s0.48,0.78,0.48,1.36c0,0.47-0.07,0.83-0.21,1.1c-0.14,0.27-0.34,0.48-0.61,0.62C12.29,5.53,12,5.6,11.68,5.6
		c-0.51,0-0.92-0.16-1.23-0.49C10.13,4.79,9.98,4.32,9.98,3.71z M10.61,3.71c0,0.46,0.1,0.81,0.3,1.04s0.46,0.35,0.77,0.35
		c0.3,0,0.56-0.12,0.76-0.35c0.2-0.23,0.3-0.59,0.3-1.06c0-0.45-0.1-0.79-0.31-1.02s-0.46-0.35-0.76-0.35
		c-0.31,0-0.56,0.12-0.77,0.35S10.61,3.24,10.61,3.71z"/>
	<path class="st0" d="M13.85,4.44l0.61-0.1c0.03,0.24,0.13,0.43,0.29,0.56c0.16,0.13,0.37,0.2,0.65,0.2c0.28,0,0.49-0.06,0.63-0.17
		s0.21-0.25,0.21-0.41c0-0.14-0.06-0.25-0.18-0.33c-0.08-0.05-0.29-0.12-0.63-0.21c-0.45-0.11-0.76-0.21-0.94-0.3
		c-0.18-0.08-0.31-0.2-0.4-0.34C14,3.19,13.96,3.03,13.96,2.85c0-0.16,0.04-0.31,0.11-0.45c0.07-0.14,0.18-0.25,0.3-0.34
		c0.1-0.07,0.23-0.13,0.39-0.18c0.16-0.05,0.34-0.07,0.53-0.07c0.28,0,0.54,0.04,0.75,0.12s0.37,0.19,0.48,0.33
		c0.1,0.14,0.17,0.33,0.21,0.56l-0.6,0.08c-0.03-0.19-0.11-0.33-0.24-0.44s-0.32-0.16-0.56-0.16c-0.28,0-0.48,0.05-0.6,0.14
		c-0.12,0.09-0.18,0.2-0.18,0.33c0,0.08,0.03,0.15,0.08,0.22c0.05,0.07,0.13,0.12,0.24,0.16c0.06,0.02,0.24,0.08,0.54,0.16
		c0.43,0.12,0.74,0.21,0.91,0.29s0.31,0.18,0.4,0.32c0.1,0.14,0.15,0.32,0.15,0.53c0,0.21-0.06,0.4-0.18,0.58
		c-0.12,0.18-0.29,0.32-0.52,0.42c-0.23,0.1-0.48,0.15-0.77,0.15c-0.47,0-0.83-0.1-1.08-0.29C14.08,5.11,13.92,4.82,13.85,4.44z"/>
	<path class="st0" d="M21.11,4.96c-0.15,0.17-0.31,0.31-0.5,0.41s-0.37,0.16-0.55,0.16c-0.2,0-0.4-0.06-0.59-0.18
		C19.27,5.23,19.12,5.05,19,4.8C18.88,4.56,18.82,4.29,18.82,4c0-0.36,0.09-0.73,0.28-1.09c0.19-0.36,0.42-0.64,0.69-0.82
		c0.28-0.18,0.54-0.27,0.8-0.27c0.2,0,0.39,0.05,0.57,0.16s0.33,0.26,0.46,0.47l0.12-0.53h0.61l-0.49,2.29
		c-0.07,0.32-0.1,0.5-0.1,0.53c0,0.06,0.02,0.12,0.07,0.16c0.05,0.04,0.1,0.07,0.17,0.07c0.12,0,0.28-0.07,0.48-0.21
		c0.26-0.18,0.47-0.43,0.62-0.73c0.15-0.31,0.23-0.62,0.23-0.95c0-0.38-0.1-0.74-0.29-1.07s-0.48-0.59-0.87-0.79s-0.81-0.3-1.28-0.3
		c-0.53,0-1.02,0.12-1.46,0.37c-0.44,0.25-0.78,0.61-1.03,1.07c-0.24,0.47-0.36,0.96-0.36,1.5c0,0.56,0.12,1.04,0.36,1.44
		c0.24,0.4,0.59,0.7,1.05,0.89c0.46,0.19,0.97,0.29,1.53,0.29c0.6,0,1.1-0.1,1.5-0.3c0.4-0.2,0.71-0.44,0.91-0.73h0.62
		c-0.12,0.24-0.32,0.48-0.6,0.73c-0.28,0.25-0.62,0.45-1.01,0.59s-0.86,0.22-1.41,0.22c-0.51,0-0.97-0.06-1.4-0.19
		c-0.43-0.13-0.79-0.33-1.09-0.59s-0.53-0.56-0.68-0.9c-0.19-0.43-0.29-0.89-0.29-1.39c0-0.56,0.11-1.08,0.34-1.59
		c0.28-0.62,0.67-1.09,1.18-1.42c0.51-0.33,1.13-0.49,1.86-0.49c0.57,0,1.07,0.12,1.52,0.35c0.45,0.23,0.8,0.58,1.06,1.03
		c0.22,0.39,0.33,0.82,0.33,1.29c0,0.66-0.23,1.25-0.7,1.76c-0.42,0.46-0.87,0.69-1.36,0.69c-0.16,0-0.28-0.02-0.38-0.07
		c-0.1-0.05-0.17-0.12-0.21-0.21C21.14,5.2,21.12,5.1,21.11,4.96z M19.45,4.04c0,0.31,0.07,0.55,0.22,0.73
		c0.15,0.17,0.32,0.26,0.51,0.26c0.13,0,0.26-0.04,0.4-0.11s0.28-0.19,0.41-0.34S21.23,4.23,21.31,4s0.12-0.46,0.12-0.7
		c0-0.31-0.08-0.55-0.23-0.72c-0.15-0.17-0.34-0.26-0.56-0.26c-0.15,0-0.28,0.04-0.41,0.11s-0.25,0.19-0.38,0.36
		c-0.12,0.16-0.22,0.36-0.29,0.6C19.49,3.62,19.45,3.84,19.45,4.04z"/>
	<path class="st0" d="M24.59,5.82l0.6,0.09c0.02,0.18,0.09,0.32,0.21,0.4c0.15,0.11,0.36,0.17,0.63,0.17c0.28,0,0.5-0.06,0.66-0.17
		S26.94,6.04,27,5.83c0.03-0.12,0.05-0.39,0.04-0.79c-0.27,0.32-0.6,0.47-1,0.47c-0.5,0-0.89-0.18-1.16-0.54s-0.41-0.79-0.41-1.3
		c0-0.35,0.06-0.67,0.19-0.96c0.12-0.29,0.31-0.52,0.54-0.68s0.52-0.24,0.84-0.24c0.43,0,0.78,0.17,1.06,0.52V1.89h0.57v3.14
		c0,0.57-0.06,0.97-0.17,1.2c-0.12,0.24-0.3,0.42-0.55,0.56c-0.25,0.14-0.56,0.21-0.92,0.21c-0.43,0-0.78-0.1-1.05-0.29
		C24.71,6.51,24.58,6.21,24.59,5.82z M25.1,3.64c0,0.48,0.1,0.82,0.28,1.04s0.43,0.33,0.71,0.33c0.28,0,0.52-0.11,0.71-0.33
		s0.29-0.56,0.29-1.02c0-0.44-0.1-0.78-0.3-1s-0.43-0.34-0.71-0.34c-0.27,0-0.51,0.11-0.7,0.33C25.2,2.87,25.1,3.2,25.1,3.64z"/>
	<path class="st0" d="M30.97,5.07c-0.23,0.19-0.45,0.33-0.66,0.41C30.1,5.56,29.87,5.6,29.63,5.6c-0.4,0-0.71-0.1-0.92-0.29
		c-0.21-0.2-0.32-0.44-0.32-0.75c0-0.18,0.04-0.34,0.12-0.49c0.08-0.15,0.19-0.26,0.32-0.35c0.13-0.09,0.28-0.16,0.44-0.2
		c0.12-0.03,0.3-0.06,0.55-0.09c0.5-0.06,0.86-0.13,1.1-0.21c0-0.08,0-0.14,0-0.16c0-0.25-0.06-0.43-0.17-0.53
		c-0.16-0.14-0.39-0.21-0.7-0.21c-0.29,0-0.5,0.05-0.64,0.15c-0.14,0.1-0.24,0.28-0.31,0.54l-0.6-0.08
		c0.05-0.26,0.14-0.47,0.27-0.62c0.13-0.16,0.31-0.28,0.54-0.37c0.24-0.08,0.51-0.13,0.82-0.13c0.31,0,0.56,0.04,0.76,0.11
		s0.34,0.17,0.43,0.28c0.09,0.11,0.15,0.25,0.19,0.42c0.02,0.1,0.03,0.29,0.03,0.57V4c0,0.57,0.01,0.93,0.04,1.09
		c0.03,0.15,0.08,0.3,0.15,0.44h-0.64C31.03,5.39,30.99,5.24,30.97,5.07z M30.92,3.7c-0.22,0.09-0.56,0.17-1,0.23
		c-0.25,0.04-0.43,0.08-0.54,0.12c-0.11,0.05-0.19,0.11-0.24,0.2s-0.08,0.19-0.08,0.29c0,0.16,0.06,0.3,0.19,0.41
		c0.12,0.11,0.31,0.16,0.54,0.16c0.24,0,0.45-0.05,0.63-0.16s0.32-0.25,0.41-0.42c0.07-0.14,0.1-0.34,0.1-0.62V3.7z"/>
	<path class="st0" d="M33.06,5.52h-0.57V0.51h0.62V2.3c0.26-0.33,0.59-0.49,0.99-0.49c0.22,0,0.44,0.04,0.63,0.13
		s0.36,0.22,0.49,0.38s0.23,0.36,0.3,0.59c0.07,0.23,0.11,0.48,0.11,0.74c0,0.62-0.15,1.1-0.46,1.44C34.87,5.43,34.5,5.6,34.07,5.6
		c-0.43,0-0.76-0.18-1.01-0.54V5.52z M33.05,3.68c0,0.43,0.06,0.75,0.18,0.94c0.19,0.32,0.46,0.47,0.79,0.47
		c0.27,0,0.5-0.12,0.7-0.35c0.2-0.23,0.29-0.58,0.29-1.04c0-0.47-0.09-0.82-0.28-1.05c-0.19-0.23-0.42-0.34-0.68-0.34
		c-0.27,0-0.5,0.12-0.7,0.35C33.15,2.9,33.05,3.24,33.05,3.68z"/>
	<path class="st0" d="M38.75,5.07c-0.23,0.19-0.45,0.33-0.66,0.41c-0.21,0.08-0.44,0.12-0.68,0.12c-0.4,0-0.71-0.1-0.92-0.29
		c-0.21-0.2-0.32-0.44-0.32-0.75c0-0.18,0.04-0.34,0.12-0.49c0.08-0.15,0.19-0.26,0.32-0.35s0.28-0.16,0.44-0.2
		c0.12-0.03,0.3-0.06,0.55-0.09c0.5-0.06,0.86-0.13,1.1-0.21c0-0.08,0-0.14,0-0.16c0-0.25-0.06-0.43-0.17-0.53
		c-0.16-0.14-0.39-0.21-0.7-0.21c-0.29,0-0.5,0.05-0.64,0.15c-0.14,0.1-0.24,0.28-0.31,0.54l-0.6-0.08
		c0.05-0.26,0.14-0.47,0.27-0.62c0.12-0.16,0.31-0.28,0.54-0.37c0.24-0.08,0.51-0.13,0.82-0.13c0.31,0,0.56,0.04,0.75,0.11
		s0.34,0.17,0.43,0.28c0.09,0.11,0.16,0.25,0.19,0.42c0.02,0.1,0.03,0.29,0.03,0.57V4c0,0.57,0.01,0.93,0.04,1.09
		c0.03,0.15,0.08,0.3,0.16,0.44h-0.64C38.81,5.39,38.77,5.24,38.75,5.07z M38.7,3.7c-0.22,0.09-0.56,0.17-1,0.23
		c-0.25,0.04-0.43,0.08-0.54,0.12c-0.1,0.05-0.19,0.11-0.24,0.2s-0.09,0.19-0.09,0.29c0,0.16,0.06,0.3,0.19,0.41
		c0.12,0.11,0.3,0.16,0.54,0.16c0.24,0,0.45-0.05,0.63-0.16s0.32-0.25,0.41-0.42c0.07-0.14,0.1-0.34,0.1-0.62V3.7z"/>
	<path class="st0" d="M40.27,5.52V1.89h0.55v0.55c0.14-0.26,0.27-0.43,0.39-0.51c0.12-0.08,0.25-0.12,0.4-0.12
		c0.21,0,0.42,0.07,0.63,0.2l-0.21,0.57c-0.15-0.09-0.3-0.13-0.45-0.13c-0.13,0-0.26,0.04-0.36,0.12s-0.18,0.19-0.23,0.34
		c-0.07,0.22-0.1,0.46-0.1,0.72v1.9H40.27z"/>
	<path class="st0" d="M42.4,5.52v-0.7h0.7v0.7H42.4z"/>
	<path class="st0" d="M44.17,5.52V1.89h0.55V2.4c0.11-0.18,0.27-0.32,0.45-0.43c0.19-0.11,0.4-0.16,0.65-0.16
		c0.27,0,0.49,0.06,0.66,0.17c0.17,0.11,0.29,0.27,0.36,0.47c0.29-0.42,0.66-0.64,1.12-0.64c0.36,0,0.64,0.1,0.83,0.3
		c0.19,0.2,0.29,0.51,0.29,0.92v2.49h-0.61V3.23c0-0.25-0.02-0.42-0.06-0.53c-0.04-0.11-0.11-0.2-0.22-0.26
		c-0.11-0.07-0.23-0.1-0.37-0.1c-0.26,0-0.47,0.08-0.64,0.25s-0.25,0.44-0.25,0.81v2.11h-0.62V3.16c0-0.27-0.05-0.48-0.15-0.62
		s-0.26-0.21-0.49-0.21c-0.17,0-0.33,0.05-0.48,0.14c-0.15,0.09-0.25,0.22-0.32,0.4c-0.07,0.18-0.1,0.43-0.1,0.76v1.88H44.17z"/>
	<path class="st0" d="M49.59,5.52l1.33-1.89l-1.23-1.74h0.77l0.56,0.85c0.11,0.16,0.19,0.3,0.25,0.41c0.1-0.15,0.19-0.28,0.28-0.4
		l0.61-0.86h0.74L51.64,3.6l1.35,1.92h-0.76l-0.75-1.13l-0.2-0.3l-0.95,1.43H49.59z"/>
</g>
</svg>
