<?xml version="1.0" encoding="utf-8"?>
<!-- Generator: Adobe Illustrator 25.4.1, SVG Export Plug-In . SVG Version: 6.00 Build 0)  -->
<svg version="1.1" id="Capa_1" xmlns="http://www.w3.org/2000/svg" xmlns:xlink="http://www.w3.org/1999/xlink" x="0px" y="0px"
	 viewBox="0 0 184 7" style="enable-background:new 0 0 184 7;" xml:space="preserve">
<style type="text/css">
	.st0{fill:#3F3E3E;}
</style>
<g>
	<path class="st0" d="M0.37,5.82l0.6,0.09c0.02,0.18,0.09,0.32,0.21,0.4C1.33,6.43,1.54,6.48,1.8,6.48c0.28,0,0.5-0.06,0.66-0.17
		s0.26-0.27,0.31-0.48c0.03-0.12,0.05-0.39,0.04-0.79c-0.27,0.32-0.6,0.47-1,0.47c-0.5,0-0.89-0.18-1.16-0.54s-0.41-0.79-0.41-1.3
		c0-0.35,0.06-0.67,0.19-0.96c0.12-0.29,0.31-0.52,0.54-0.68S1.5,1.81,1.82,1.81c0.43,0,0.78,0.17,1.06,0.52V1.89h0.57v3.14
		c0,0.57-0.06,0.97-0.17,1.2c-0.12,0.24-0.3,0.42-0.55,0.56C2.48,6.92,2.17,6.99,1.81,6.99c-0.43,0-0.78-0.1-1.05-0.29
		C0.49,6.51,0.36,6.21,0.37,5.82z M0.88,3.64c0,0.48,0.1,0.82,0.28,1.04s0.43,0.33,0.71,0.33c0.28,0,0.52-0.11,0.71-0.33
		s0.29-0.56,0.29-1.02c0-0.44-0.1-0.78-0.3-1S2.14,2.32,1.86,2.32c-0.27,0-0.51,0.11-0.7,0.33C0.97,2.87,0.88,3.2,0.88,3.64z"/>
	<path class="st0" d="M4.55,5.52v-0.7h0.7v0.7H4.55z"/>
	<path class="st0" d="M6.31,5.52V1.89h0.55v0.55c0.14-0.26,0.27-0.43,0.39-0.51c0.12-0.08,0.25-0.12,0.4-0.12
		c0.21,0,0.42,0.07,0.63,0.2L8.07,2.58c-0.15-0.09-0.3-0.13-0.45-0.13c-0.13,0-0.26,0.04-0.36,0.12S7.08,2.76,7.03,2.9
		c-0.07,0.22-0.1,0.46-0.1,0.72v1.9H6.31z"/>
	<path class="st0" d="M8.42,3.7c0-0.67,0.19-1.17,0.56-1.49c0.31-0.27,0.69-0.4,1.14-0.4c0.5,0,0.91,0.16,1.22,0.49
		s0.48,0.78,0.48,1.36c0,0.47-0.07,0.83-0.21,1.1C11.47,5.02,11.27,5.23,11,5.38c-0.27,0.15-0.56,0.22-0.88,0.22
		c-0.51,0-0.92-0.16-1.23-0.49C8.58,4.79,8.42,4.32,8.42,3.7z M9.05,3.7c0,0.46,0.1,0.81,0.3,1.04S9.82,5.1,10.12,5.1
		c0.3,0,0.56-0.12,0.76-0.35c0.2-0.23,0.3-0.59,0.3-1.06c0-0.45-0.1-0.79-0.31-1.02s-0.46-0.35-0.76-0.35
		c-0.31,0-0.56,0.12-0.77,0.35S9.05,3.24,9.05,3.7z"/>
	<path class="st0" d="M14.9,5.52V5.06c-0.23,0.36-0.57,0.54-1.02,0.54c-0.29,0-0.55-0.08-0.8-0.24c-0.24-0.16-0.43-0.38-0.56-0.67
		c-0.13-0.29-0.2-0.62-0.2-0.99c0-0.36,0.06-0.69,0.18-0.99s0.3-0.52,0.54-0.68c0.24-0.16,0.51-0.24,0.81-0.24
		c0.22,0,0.41,0.05,0.58,0.14c0.17,0.09,0.31,0.21,0.42,0.36v-1.8h0.61v5.01H14.9z M12.95,3.71c0,0.46,0.1,0.81,0.29,1.04
		c0.2,0.23,0.43,0.35,0.69,0.35c0.27,0,0.5-0.11,0.69-0.33c0.19-0.22,0.28-0.55,0.28-1.01c0-0.5-0.1-0.86-0.29-1.09
		s-0.43-0.35-0.71-0.35c-0.27,0-0.5,0.11-0.69,0.34C13.05,2.87,12.95,3.23,12.95,3.71z"/>
	<path class="st0" d="M16.43,5.52V1.89h0.55v0.55c0.14-0.26,0.27-0.43,0.39-0.51c0.12-0.08,0.25-0.12,0.4-0.12
		c0.21,0,0.42,0.07,0.63,0.2l-0.21,0.57c-0.15-0.09-0.3-0.13-0.45-0.13c-0.13,0-0.26,0.04-0.36,0.12s-0.18,0.19-0.23,0.34
		c-0.07,0.22-0.1,0.46-0.1,0.72v1.9H16.43z"/>
	<path class="st0" d="M18.77,1.22V0.51h0.62v0.71H18.77z M18.77,5.52V1.89h0.62v3.63H18.77z"/>
	<path class="st0" d="M20.21,5.82l0.6,0.09c0.02,0.18,0.09,0.32,0.21,0.4c0.15,0.11,0.36,0.17,0.63,0.17c0.28,0,0.5-0.06,0.66-0.17
		c0.16-0.11,0.26-0.27,0.31-0.48c0.03-0.12,0.05-0.39,0.04-0.79c-0.27,0.32-0.6,0.47-1,0.47c-0.5,0-0.89-0.18-1.16-0.54
		s-0.41-0.79-0.41-1.3c0-0.35,0.06-0.67,0.19-0.96s0.31-0.52,0.55-0.68c0.24-0.16,0.52-0.24,0.84-0.24c0.43,0,0.78,0.17,1.06,0.52
		V1.89h0.57v3.14c0,0.57-0.06,0.97-0.17,1.2c-0.12,0.24-0.3,0.42-0.55,0.56s-0.56,0.21-0.92,0.21c-0.43,0-0.78-0.1-1.05-0.29
		C20.33,6.51,20.2,6.21,20.21,5.82z M20.72,3.64c0,0.48,0.09,0.82,0.28,1.04c0.19,0.22,0.43,0.33,0.71,0.33
		c0.28,0,0.52-0.11,0.71-0.33s0.29-0.56,0.29-1.02c0-0.44-0.1-0.78-0.29-1s-0.44-0.34-0.71-0.34c-0.27,0-0.51,0.11-0.7,0.33
		C20.82,2.87,20.72,3.2,20.72,3.64z"/>
	<path class="st0" d="M26.6,5.52V4.99C26.31,5.4,25.93,5.6,25.44,5.6c-0.21,0-0.41-0.04-0.6-0.12c-0.19-0.08-0.32-0.19-0.41-0.31
		c-0.09-0.12-0.15-0.28-0.19-0.46C24.22,4.59,24.2,4.4,24.2,4.14V1.89h0.62V3.9c0,0.32,0.01,0.54,0.04,0.65
		c0.04,0.16,0.12,0.29,0.25,0.38c0.13,0.09,0.28,0.14,0.46,0.14s0.36-0.05,0.52-0.14s0.28-0.22,0.34-0.39s0.1-0.4,0.1-0.71V1.89
		h0.62v3.63H26.6z"/>
	<path class="st0" d="M30.6,4.35l0.63,0.08c-0.1,0.37-0.29,0.66-0.56,0.86S30.06,5.6,29.63,5.6c-0.53,0-0.95-0.16-1.26-0.49
		c-0.31-0.33-0.47-0.79-0.47-1.38c0-0.61,0.16-1.08,0.47-1.42s0.72-0.51,1.22-0.51c0.49,0,0.88,0.17,1.19,0.5
		c0.31,0.33,0.46,0.8,0.46,1.39c0,0.04,0,0.09,0,0.16h-2.71c0.02,0.4,0.14,0.71,0.34,0.92c0.2,0.21,0.46,0.32,0.76,0.32
		c0.22,0,0.42-0.06,0.58-0.18S30.5,4.61,30.6,4.35z M28.57,3.36h2.03c-0.03-0.3-0.1-0.53-0.23-0.69c-0.2-0.24-0.45-0.36-0.76-0.36
		c-0.28,0-0.52,0.09-0.71,0.28C28.7,2.79,28.6,3.04,28.57,3.36z"/>
	<path class="st0" d="M31.68,5.52v-0.5l2.31-2.65c-0.26,0.01-0.49,0.02-0.69,0.02h-1.48v-0.5h2.97V2.3l-1.97,2.3l-0.38,0.42
		c0.28-0.02,0.53-0.03,0.78-0.03h1.68v0.53H31.68z"/>
	<path class="st0" d="M39.01,4.96c-0.15,0.17-0.31,0.31-0.5,0.41c-0.18,0.1-0.37,0.16-0.55,0.16c-0.2,0-0.4-0.06-0.59-0.18
		c-0.19-0.12-0.35-0.3-0.47-0.55c-0.12-0.25-0.18-0.52-0.18-0.81c0-0.36,0.09-0.73,0.28-1.09s0.42-0.64,0.69-0.82
		s0.54-0.27,0.8-0.27c0.2,0,0.39,0.05,0.57,0.16c0.18,0.1,0.34,0.26,0.46,0.47l0.12-0.53h0.61l-0.49,2.29
		c-0.07,0.32-0.1,0.5-0.1,0.53c0,0.06,0.02,0.12,0.07,0.16c0.05,0.04,0.1,0.07,0.17,0.07c0.12,0,0.28-0.07,0.47-0.21
		c0.26-0.18,0.47-0.43,0.62-0.73c0.15-0.31,0.23-0.62,0.23-0.95c0-0.38-0.1-0.74-0.29-1.07c-0.2-0.33-0.49-0.59-0.87-0.79
		c-0.39-0.2-0.81-0.3-1.28-0.3c-0.53,0-1.02,0.12-1.46,0.37c-0.44,0.25-0.78,0.61-1.03,1.07c-0.24,0.47-0.36,0.96-0.36,1.5
		c0,0.56,0.12,1.04,0.36,1.44c0.24,0.4,0.59,0.7,1.05,0.89s0.97,0.29,1.53,0.29c0.6,0,1.1-0.1,1.5-0.3c0.4-0.2,0.71-0.44,0.91-0.73
		h0.62c-0.12,0.24-0.31,0.48-0.6,0.73c-0.28,0.25-0.62,0.45-1.01,0.59c-0.39,0.14-0.86,0.22-1.41,0.22c-0.51,0-0.97-0.06-1.4-0.19
		c-0.43-0.13-0.79-0.33-1.09-0.59s-0.53-0.56-0.68-0.9c-0.19-0.43-0.29-0.89-0.29-1.39c0-0.56,0.11-1.08,0.34-1.59
		c0.28-0.62,0.67-1.09,1.18-1.42s1.13-0.49,1.86-0.49c0.56,0,1.07,0.12,1.52,0.35s0.81,0.58,1.07,1.03
		c0.22,0.39,0.33,0.82,0.33,1.29c0,0.66-0.23,1.25-0.7,1.76c-0.42,0.46-0.87,0.69-1.36,0.69c-0.16,0-0.28-0.02-0.38-0.07
		c-0.1-0.05-0.17-0.12-0.21-0.21C39.04,5.2,39.02,5.1,39.01,4.96z M37.35,4.04c0,0.31,0.07,0.55,0.22,0.73
		c0.15,0.17,0.32,0.26,0.51,0.26c0.13,0,0.26-0.04,0.4-0.11c0.14-0.08,0.28-0.19,0.41-0.34c0.13-0.15,0.23-0.34,0.32-0.57
		c0.08-0.23,0.12-0.46,0.12-0.7c0-0.31-0.08-0.55-0.23-0.72c-0.15-0.17-0.34-0.26-0.56-0.26c-0.15,0-0.28,0.04-0.41,0.11
		C38,2.51,37.88,2.63,37.76,2.79s-0.22,0.36-0.29,0.6C37.39,3.62,37.35,3.84,37.35,4.04z"/>
	<path class="st0" d="M42.5,5.82l0.6,0.09c0.02,0.18,0.09,0.32,0.21,0.4c0.15,0.11,0.36,0.17,0.63,0.17c0.28,0,0.5-0.06,0.66-0.17
		c0.16-0.11,0.26-0.27,0.31-0.48c0.03-0.12,0.05-0.39,0.04-0.79c-0.27,0.32-0.6,0.47-1,0.47c-0.5,0-0.89-0.18-1.16-0.54
		s-0.41-0.79-0.41-1.3c0-0.35,0.06-0.67,0.19-0.96s0.31-0.52,0.55-0.68c0.24-0.16,0.52-0.24,0.84-0.24c0.43,0,0.78,0.17,1.06,0.52
		V1.89h0.57v3.14c0,0.57-0.06,0.97-0.17,1.2c-0.12,0.24-0.3,0.42-0.55,0.56s-0.56,0.21-0.92,0.21c-0.43,0-0.78-0.1-1.05-0.29
		C42.62,6.51,42.49,6.21,42.5,5.82z M43.01,3.64c0,0.48,0.09,0.82,0.28,1.04C43.48,4.9,43.72,5.01,44,5.01
		c0.28,0,0.52-0.11,0.71-0.33S45,4.12,45,3.66c0-0.44-0.1-0.78-0.29-1s-0.44-0.34-0.71-0.34c-0.27,0-0.51,0.11-0.7,0.33
		C43.1,2.87,43.01,3.2,43.01,3.64z"/>
	<path class="st0" d="M48.87,5.07c-0.23,0.19-0.45,0.33-0.66,0.41C48,5.56,47.78,5.6,47.53,5.6c-0.4,0-0.71-0.1-0.92-0.29
		c-0.21-0.2-0.32-0.44-0.32-0.75c0-0.18,0.04-0.34,0.12-0.49c0.08-0.15,0.19-0.26,0.32-0.35c0.13-0.09,0.28-0.16,0.44-0.2
		c0.12-0.03,0.3-0.06,0.55-0.09c0.5-0.06,0.86-0.13,1.1-0.21c0-0.08,0-0.14,0-0.16c0-0.25-0.06-0.43-0.17-0.53
		c-0.16-0.14-0.39-0.21-0.7-0.21c-0.29,0-0.5,0.05-0.64,0.15S47.07,2.75,47,3.01l-0.6-0.08c0.05-0.26,0.14-0.47,0.27-0.62
		s0.31-0.28,0.54-0.37c0.24-0.08,0.51-0.13,0.82-0.13c0.31,0,0.56,0.04,0.76,0.11c0.19,0.07,0.34,0.17,0.43,0.28
		s0.16,0.25,0.19,0.42c0.02,0.1,0.03,0.29,0.03,0.57V4c0,0.57,0.01,0.93,0.04,1.09s0.08,0.3,0.16,0.44h-0.64
		C48.93,5.39,48.89,5.24,48.87,5.07z M48.82,3.7c-0.22,0.09-0.56,0.17-1.01,0.23c-0.25,0.04-0.43,0.08-0.54,0.12
		c-0.1,0.05-0.19,0.11-0.24,0.2c-0.06,0.09-0.08,0.19-0.08,0.29c0,0.16,0.06,0.3,0.19,0.41c0.12,0.11,0.31,0.16,0.54,0.16
		c0.24,0,0.45-0.05,0.63-0.16c0.18-0.1,0.32-0.25,0.41-0.42c0.07-0.14,0.1-0.34,0.1-0.62V3.7z"/>
	<path class="st0" d="M50.96,5.52h-0.57V0.51h0.62V2.3C51.27,1.97,51.6,1.81,52,1.81c0.22,0,0.43,0.04,0.63,0.13
		c0.2,0.09,0.36,0.22,0.49,0.38c0.13,0.16,0.23,0.36,0.3,0.59c0.07,0.23,0.11,0.48,0.11,0.74c0,0.62-0.15,1.1-0.46,1.44
		C52.77,5.43,52.4,5.6,51.97,5.6c-0.43,0-0.76-0.18-1.01-0.54V5.52z M50.96,3.68c0,0.43,0.06,0.75,0.18,0.94
		c0.19,0.32,0.46,0.47,0.79,0.47c0.27,0,0.5-0.12,0.7-0.35s0.29-0.58,0.29-1.04c0-0.47-0.09-0.82-0.28-1.05
		c-0.19-0.23-0.42-0.34-0.68-0.34c-0.27,0-0.5,0.12-0.7,0.35S50.96,3.24,50.96,3.68z"/>
	<path class="st0" d="M56.66,5.07C56.43,5.27,56.21,5.4,56,5.48c-0.21,0.08-0.44,0.12-0.68,0.12c-0.4,0-0.71-0.1-0.92-0.29
		c-0.21-0.2-0.32-0.44-0.32-0.75c0-0.18,0.04-0.34,0.12-0.49c0.08-0.15,0.19-0.26,0.32-0.35s0.28-0.16,0.44-0.2
		c0.12-0.03,0.3-0.06,0.55-0.09c0.5-0.06,0.86-0.13,1.1-0.21c0-0.08,0-0.14,0-0.16c0-0.25-0.06-0.43-0.17-0.53
		c-0.16-0.14-0.39-0.21-0.7-0.21c-0.29,0-0.5,0.05-0.64,0.15c-0.14,0.1-0.24,0.28-0.31,0.54l-0.6-0.08
		c0.05-0.26,0.14-0.47,0.27-0.62S54.76,2.02,55,1.94c0.24-0.08,0.51-0.13,0.82-0.13c0.31,0,0.56,0.04,0.75,0.11
		c0.19,0.07,0.34,0.17,0.43,0.28s0.15,0.25,0.19,0.42c0.02,0.1,0.03,0.29,0.03,0.57V4c0,0.57,0.01,0.93,0.04,1.09
		c0.03,0.15,0.08,0.3,0.16,0.44h-0.64C56.72,5.39,56.68,5.24,56.66,5.07z M56.6,3.7c-0.22,0.09-0.56,0.17-1,0.23
		c-0.25,0.04-0.43,0.08-0.54,0.12c-0.11,0.05-0.19,0.11-0.24,0.2c-0.06,0.09-0.09,0.19-0.09,0.29c0,0.16,0.06,0.3,0.19,0.41
		s0.31,0.16,0.54,0.16c0.24,0,0.45-0.05,0.63-0.16c0.19-0.1,0.32-0.25,0.41-0.42c0.07-0.14,0.1-0.34,0.1-0.62V3.7z"/>
	<path class="st0" d="M58.17,5.52V1.89h0.55v0.55c0.14-0.26,0.27-0.43,0.39-0.51c0.12-0.08,0.25-0.12,0.4-0.12
		c0.21,0,0.42,0.07,0.63,0.2l-0.21,0.57c-0.15-0.09-0.3-0.13-0.45-0.13c-0.13,0-0.26,0.04-0.36,0.12c-0.11,0.08-0.18,0.19-0.23,0.34
		c-0.07,0.22-0.1,0.46-0.1,0.72v1.9H58.17z"/>
	<path class="st0" d="M60.3,5.52v-0.7H61v0.7H60.3z"/>
	<path class="st0" d="M62.07,5.52V1.89h0.55V2.4c0.11-0.18,0.27-0.32,0.46-0.43s0.4-0.16,0.65-0.16c0.27,0,0.49,0.06,0.66,0.17
		c0.17,0.11,0.29,0.27,0.37,0.47c0.29-0.42,0.66-0.64,1.12-0.64c0.36,0,0.64,0.1,0.83,0.3s0.29,0.51,0.29,0.92v2.49h-0.61V3.23
		c0-0.25-0.02-0.42-0.06-0.53c-0.04-0.11-0.11-0.2-0.22-0.26c-0.11-0.07-0.23-0.1-0.37-0.1c-0.26,0-0.47,0.08-0.64,0.25
		c-0.17,0.17-0.25,0.44-0.25,0.81v2.11h-0.62V3.16c0-0.27-0.05-0.48-0.15-0.62c-0.1-0.14-0.26-0.21-0.49-0.21
		c-0.17,0-0.33,0.05-0.48,0.14s-0.25,0.22-0.32,0.4c-0.07,0.18-0.1,0.43-0.1,0.76v1.88H62.07z"/>
	<path class="st0" d="M67.49,5.52l1.33-1.89l-1.23-1.74h0.77l0.56,0.85c0.1,0.16,0.19,0.3,0.25,0.41c0.1-0.15,0.19-0.28,0.28-0.4
		l0.61-0.86h0.74L69.54,3.6l1.35,1.92h-0.75l-0.75-1.13l-0.2-0.3l-0.95,1.43H67.49z"/>
</g>
</svg>
