<?xml version="1.0" encoding="utf-8"?>
<!-- Generator: Adobe Illustrator 25.4.1, SVG Export Plug-In . SVG Version: 6.00 Build 0)  -->
<svg version="1.1" id="Capa_1" xmlns="http://www.w3.org/2000/svg" xmlns:xlink="http://www.w3.org/1999/xlink" x="0px" y="0px"
	 viewBox="0 0 91 12" style="enable-background:new 0 0 91 12;" xml:space="preserve">
<style type="text/css">
	.st0{fill:#3F3E3E;}
</style>
<g>
	<path class="st0" d="M5.2,7.97c0,0.25-0.05,0.47-0.14,0.66C4.97,8.83,4.84,8.99,4.67,9.12s-0.37,0.23-0.6,0.3s-0.49,0.1-0.77,0.1
		c-0.17,0-0.34-0.01-0.49-0.04c-0.16-0.03-0.29-0.06-0.42-0.1C2.27,9.34,2.16,9.3,2.08,9.25S1.93,9.17,1.89,9.13S1.82,9.05,1.8,8.98
		S1.78,8.83,1.78,8.72c0-0.07,0-0.13,0.01-0.17C1.79,8.5,1.8,8.46,1.81,8.43s0.03-0.05,0.05-0.06C1.88,8.36,1.9,8.35,1.93,8.35
		c0.04,0,0.1,0.02,0.17,0.07c0.08,0.05,0.17,0.1,0.29,0.16c0.11,0.06,0.25,0.11,0.4,0.16c0.15,0.05,0.33,0.07,0.53,0.07
		c0.15,0,0.29-0.02,0.41-0.05s0.23-0.08,0.32-0.14S4.2,8.48,4.25,8.38c0.05-0.1,0.07-0.21,0.07-0.34c0-0.14-0.03-0.25-0.1-0.34
		C4.15,7.6,4.06,7.52,3.94,7.45C3.83,7.38,3.7,7.32,3.55,7.26S3.26,7.15,3.11,7.09c-0.15-0.06-0.3-0.13-0.45-0.21
		C2.52,6.8,2.39,6.71,2.28,6.6S2.07,6.35,2,6.2c-0.07-0.15-0.1-0.34-0.1-0.55C1.89,5.46,1.93,5.27,2,5.1
		c0.07-0.17,0.18-0.33,0.33-0.46s0.33-0.24,0.55-0.31c0.22-0.08,0.48-0.12,0.77-0.12c0.13,0,0.26,0.01,0.39,0.03
		s0.25,0.05,0.35,0.08c0.1,0.03,0.19,0.07,0.27,0.11c0.07,0.04,0.13,0.07,0.17,0.1C4.86,4.56,4.89,4.58,4.9,4.6
		c0.01,0.02,0.02,0.05,0.03,0.07c0.01,0.03,0.01,0.06,0.02,0.1c0,0.04,0.01,0.09,0.01,0.15c0,0.06,0,0.11-0.01,0.16
		C4.94,5.12,4.93,5.16,4.92,5.19C4.9,5.22,4.89,5.24,4.87,5.25S4.83,5.27,4.81,5.27c-0.03,0-0.08-0.02-0.14-0.06
		S4.53,5.13,4.43,5.08S4.22,5,4.09,4.96C3.96,4.92,3.81,4.9,3.65,4.9c-0.15,0-0.28,0.02-0.4,0.05S3.04,5.03,2.97,5.1
		C2.89,5.16,2.84,5.23,2.8,5.32C2.76,5.4,2.74,5.5,2.74,5.6c0,0.14,0.04,0.26,0.11,0.35S3.01,6.13,3.13,6.2s0.25,0.14,0.39,0.19
		s0.3,0.12,0.45,0.18c0.15,0.06,0.3,0.13,0.45,0.2c0.15,0.08,0.28,0.17,0.4,0.27s0.21,0.24,0.28,0.39C5.16,7.58,5.2,7.76,5.2,7.97z"
		/>
	<path class="st0" d="M10.96,6.82c0,0.39-0.05,0.76-0.16,1.09s-0.26,0.62-0.46,0.86C10.13,9,9.88,9.19,9.57,9.32
		c-0.31,0.13-0.67,0.2-1.08,0.2c-0.4,0-0.74-0.06-1.04-0.18c-0.3-0.12-0.54-0.29-0.74-0.52s-0.34-0.5-0.44-0.82s-0.15-0.69-0.15-1.1
		c0-0.39,0.05-0.76,0.15-1.09c0.1-0.33,0.26-0.62,0.46-0.86C6.95,4.73,7.2,4.54,7.51,4.41c0.31-0.13,0.67-0.2,1.08-0.2
		c0.4,0,0.74,0.06,1.04,0.18c0.29,0.12,0.54,0.29,0.74,0.52c0.2,0.23,0.34,0.5,0.44,0.82C10.91,6.05,10.96,6.41,10.96,6.82z
		 M10.04,6.88c0-0.26-0.02-0.51-0.07-0.74S9.84,5.7,9.73,5.52S9.46,5.21,9.27,5.11C9.08,5,8.84,4.95,8.56,4.95
		C8.29,4.95,8.07,5,7.88,5.09C7.69,5.19,7.53,5.32,7.41,5.49c-0.12,0.17-0.21,0.37-0.27,0.6S7.04,6.58,7.04,6.85
		c0,0.26,0.02,0.51,0.07,0.75c0.05,0.23,0.13,0.44,0.24,0.61s0.27,0.31,0.46,0.41c0.19,0.1,0.43,0.15,0.72,0.15
		c0.26,0,0.49-0.05,0.68-0.14C9.4,8.54,9.56,8.41,9.68,8.25c0.12-0.17,0.21-0.37,0.27-0.6C10.01,7.41,10.04,7.16,10.04,6.88z"/>
	<path class="st0" d="M16.71,6.79c0,0.42-0.05,0.8-0.14,1.14c-0.09,0.34-0.23,0.62-0.4,0.86c-0.18,0.23-0.4,0.42-0.66,0.54
		s-0.56,0.19-0.9,0.19c-0.14,0-0.28-0.01-0.4-0.04c-0.12-0.03-0.24-0.07-0.36-0.13c-0.12-0.06-0.23-0.14-0.35-0.23
		c-0.11-0.09-0.24-0.2-0.37-0.33v2.42c0,0.03-0.01,0.05-0.02,0.08s-0.04,0.04-0.07,0.05s-0.08,0.03-0.13,0.03s-0.13,0.01-0.22,0.01
		c-0.09,0-0.16,0-0.21-0.01s-0.1-0.02-0.14-0.03c-0.03-0.01-0.06-0.03-0.07-0.05c-0.01-0.02-0.02-0.05-0.02-0.08V4.45
		c0-0.03,0.01-0.06,0.02-0.08s0.03-0.04,0.06-0.05c0.03-0.01,0.07-0.02,0.12-0.03c0.05,0,0.11-0.01,0.18-0.01
		c0.08,0,0.14,0,0.19,0.01c0.05,0.01,0.09,0.02,0.12,0.03c0.03,0.01,0.05,0.03,0.07,0.05c0.01,0.02,0.02,0.05,0.02,0.08V5.1
		c0.15-0.15,0.29-0.28,0.42-0.39c0.14-0.11,0.27-0.2,0.41-0.28c0.14-0.07,0.28-0.13,0.42-0.17c0.14-0.04,0.3-0.06,0.46-0.06
		c0.35,0,0.65,0.07,0.9,0.2s0.45,0.32,0.6,0.56c0.16,0.24,0.27,0.51,0.34,0.82S16.71,6.44,16.71,6.79z M15.79,6.9
		c0-0.25-0.02-0.49-0.06-0.72c-0.04-0.23-0.1-0.44-0.19-0.62s-0.21-0.32-0.37-0.43c-0.15-0.11-0.35-0.16-0.58-0.16
		c-0.12,0-0.23,0.02-0.34,0.05c-0.11,0.03-0.23,0.09-0.34,0.16c-0.12,0.07-0.24,0.17-0.36,0.29s-0.26,0.27-0.4,0.44v1.92
		c0.25,0.3,0.48,0.52,0.7,0.68c0.22,0.16,0.45,0.24,0.69,0.24c0.22,0,0.42-0.05,0.58-0.16s0.29-0.25,0.39-0.43
		c0.1-0.18,0.17-0.38,0.22-0.6C15.77,7.35,15.79,7.12,15.79,6.9z"/>
	<path class="st0" d="M22.54,6.82c0,0.39-0.05,0.76-0.16,1.09s-0.26,0.62-0.46,0.86C21.71,9,21.46,9.19,21.15,9.32
		c-0.31,0.13-0.67,0.2-1.08,0.2c-0.4,0-0.74-0.06-1.04-0.18c-0.3-0.12-0.54-0.29-0.74-0.52s-0.34-0.5-0.44-0.82s-0.15-0.69-0.15-1.1
		c0-0.39,0.05-0.76,0.15-1.09c0.1-0.33,0.26-0.62,0.46-0.86c0.21-0.24,0.46-0.43,0.77-0.56c0.31-0.13,0.67-0.2,1.08-0.2
		c0.4,0,0.74,0.06,1.04,0.18c0.29,0.12,0.54,0.29,0.74,0.52c0.2,0.23,0.34,0.5,0.44,0.82C22.49,6.05,22.54,6.41,22.54,6.82z
		 M21.62,6.88c0-0.26-0.02-0.51-0.07-0.74s-0.13-0.44-0.24-0.61s-0.26-0.31-0.46-0.42c-0.19-0.1-0.43-0.15-0.72-0.15
		c-0.26,0-0.49,0.05-0.68,0.14c-0.19,0.09-0.35,0.22-0.47,0.39c-0.12,0.17-0.21,0.37-0.27,0.6s-0.09,0.49-0.09,0.76
		c0,0.26,0.02,0.51,0.07,0.75c0.05,0.23,0.13,0.44,0.24,0.61s0.27,0.31,0.46,0.41c0.19,0.1,0.43,0.15,0.72,0.15
		c0.26,0,0.49-0.05,0.68-0.14c0.19-0.09,0.35-0.22,0.47-0.39c0.12-0.17,0.21-0.37,0.27-0.6C21.59,7.41,21.62,7.16,21.62,6.88z"/>
	<path class="st0" d="M26.67,4.77c0,0.08,0,0.15-0.01,0.2c0,0.05-0.01,0.1-0.02,0.13s-0.02,0.05-0.04,0.07
		c-0.02,0.02-0.04,0.02-0.07,0.02s-0.06-0.01-0.1-0.02c-0.04-0.02-0.09-0.03-0.14-0.05c-0.05-0.02-0.11-0.03-0.17-0.05
		s-0.13-0.02-0.21-0.02c-0.09,0-0.18,0.02-0.26,0.05s-0.18,0.09-0.27,0.18c-0.09,0.08-0.19,0.19-0.3,0.33s-0.22,0.3-0.34,0.5v3.18
		c0,0.03-0.01,0.05-0.02,0.07s-0.04,0.04-0.07,0.05s-0.08,0.03-0.13,0.03s-0.13,0.01-0.22,0.01c-0.09,0-0.16,0-0.21-0.01
		s-0.1-0.02-0.14-0.03c-0.03-0.01-0.06-0.03-0.07-0.05c-0.01-0.02-0.02-0.04-0.02-0.07V4.45c0-0.03,0.01-0.05,0.02-0.07
		s0.03-0.04,0.06-0.05C23.96,4.31,24,4.3,24.05,4.29c0.05,0,0.12-0.01,0.2-0.01c0.08,0,0.14,0,0.2,0.01
		c0.05,0.01,0.09,0.02,0.12,0.03c0.03,0.02,0.05,0.03,0.06,0.05c0.01,0.02,0.02,0.04,0.02,0.07v0.7c0.13-0.19,0.26-0.35,0.37-0.47
		c0.12-0.12,0.23-0.22,0.33-0.29c0.1-0.07,0.21-0.12,0.31-0.15c0.1-0.03,0.2-0.04,0.31-0.04c0.05,0,0.1,0,0.16,0.01
		c0.06,0.01,0.12,0.02,0.19,0.03c0.06,0.01,0.12,0.03,0.17,0.05c0.05,0.02,0.09,0.04,0.11,0.05s0.04,0.04,0.04,0.05
		c0.01,0.02,0.01,0.04,0.02,0.06c0,0.02,0.01,0.06,0.01,0.11C26.67,4.62,26.67,4.69,26.67,4.77z"/>
	<path class="st0" d="M30.19,8.93c0,0.1-0.01,0.19-0.02,0.25c-0.01,0.06-0.04,0.11-0.06,0.13s-0.07,0.06-0.13,0.08
		c-0.06,0.03-0.12,0.05-0.2,0.06c-0.07,0.02-0.15,0.03-0.23,0.04s-0.16,0.02-0.25,0.02c-0.25,0-0.47-0.03-0.64-0.1
		s-0.33-0.17-0.44-0.3c-0.11-0.13-0.2-0.3-0.25-0.51c-0.05-0.21-0.08-0.45-0.08-0.73V5.05h-0.68c-0.05,0-0.1-0.03-0.13-0.09
		s-0.05-0.15-0.05-0.28c0-0.07,0-0.12,0.01-0.17c0.01-0.05,0.02-0.08,0.04-0.12s0.03-0.05,0.06-0.06c0.02-0.01,0.05-0.02,0.08-0.02
		h0.67V3.16c0-0.02,0.01-0.05,0.02-0.07c0.01-0.02,0.04-0.04,0.07-0.06c0.03-0.02,0.08-0.03,0.14-0.03
		c0.06-0.01,0.13-0.01,0.21-0.01c0.09,0,0.16,0,0.22,0.01c0.06,0.01,0.1,0.02,0.13,0.03c0.03,0.02,0.06,0.04,0.07,0.06
		s0.02,0.04,0.02,0.07v1.15h1.24c0.03,0,0.05,0.01,0.08,0.02s0.04,0.03,0.06,0.06c0.02,0.03,0.03,0.07,0.03,0.12s0.01,0.1,0.01,0.17
		c0,0.13-0.02,0.22-0.05,0.28s-0.08,0.09-0.13,0.09h-1.24v2.7c0,0.33,0.05,0.58,0.15,0.75c0.1,0.17,0.27,0.25,0.53,0.25
		c0.08,0,0.16-0.01,0.22-0.02c0.06-0.02,0.12-0.03,0.17-0.05s0.09-0.04,0.13-0.05c0.04-0.02,0.07-0.02,0.1-0.02
		c0.02,0,0.04,0,0.05,0.01c0.02,0.01,0.03,0.03,0.04,0.05c0.01,0.03,0.02,0.06,0.02,0.1S30.19,8.87,30.19,8.93z"/>
	<path class="st0" d="M35.37,6.66c0,0.14-0.04,0.24-0.11,0.3c-0.07,0.06-0.15,0.09-0.24,0.09h-3.18c0,0.27,0.03,0.51,0.08,0.73
		c0.05,0.21,0.14,0.4,0.27,0.55s0.29,0.27,0.49,0.35c0.2,0.08,0.45,0.12,0.74,0.12c0.23,0,0.44-0.02,0.62-0.06
		c0.18-0.04,0.34-0.08,0.47-0.13c0.13-0.05,0.24-0.09,0.32-0.13c0.08-0.04,0.15-0.06,0.19-0.06c0.02,0,0.05,0.01,0.07,0.02
		c0.02,0.01,0.03,0.03,0.05,0.06c0.01,0.03,0.02,0.06,0.02,0.11s0.01,0.1,0.01,0.16c0,0.05,0,0.09-0.01,0.12S35.15,8.97,35.15,9
		c0,0.03-0.01,0.05-0.03,0.07c-0.01,0.02-0.03,0.04-0.05,0.06C35.05,9.15,35,9.18,34.9,9.23s-0.22,0.09-0.38,0.13
		s-0.33,0.08-0.53,0.12c-0.2,0.03-0.42,0.05-0.65,0.05c-0.4,0-0.75-0.05-1.04-0.17c-0.3-0.11-0.55-0.28-0.75-0.49
		s-0.36-0.49-0.46-0.82c-0.1-0.33-0.16-0.71-0.16-1.15c0-0.42,0.05-0.79,0.16-1.12s0.26-0.61,0.46-0.84C31.75,4.7,32,4.52,32.28,4.4
		c0.29-0.12,0.61-0.19,0.96-0.19c0.38,0,0.7,0.06,0.97,0.18c0.27,0.12,0.49,0.29,0.66,0.49s0.3,0.45,0.38,0.73
		c0.08,0.28,0.12,0.57,0.12,0.89V6.66z M34.48,6.4c0.01-0.47-0.09-0.83-0.31-1.1c-0.22-0.27-0.54-0.4-0.97-0.4
		c-0.22,0-0.41,0.04-0.58,0.12c-0.17,0.08-0.3,0.19-0.42,0.33c-0.11,0.14-0.2,0.29-0.26,0.48c-0.06,0.18-0.1,0.37-0.1,0.57H34.48z"
		/>
	<path class="st0" d="M44.79,5.29c0,0.24-0.02,0.49-0.05,0.75c-0.03,0.25-0.08,0.5-0.15,0.74s-0.16,0.47-0.27,0.68
		s-0.25,0.4-0.41,0.56c-0.16,0.16-0.35,0.29-0.56,0.38c-0.21,0.09-0.46,0.14-0.73,0.14c-0.15,0-0.28-0.02-0.41-0.05
		s-0.24-0.08-0.33-0.15s-0.18-0.15-0.24-0.25c-0.07-0.1-0.11-0.22-0.14-0.35C41.36,7.88,41.22,8,41.09,8.1
		c-0.13,0.1-0.27,0.19-0.4,0.25s-0.26,0.11-0.38,0.14c-0.12,0.03-0.24,0.04-0.36,0.04c-0.15,0-0.29-0.01-0.41-0.04
		s-0.22-0.08-0.31-0.13C39.14,8.3,39.06,8.22,39,8.14s-0.12-0.18-0.16-0.29s-0.07-0.22-0.09-0.35s-0.03-0.27-0.03-0.42
		c0-0.15,0.01-0.33,0.04-0.53c0.02-0.2,0.07-0.4,0.12-0.62s0.14-0.42,0.24-0.62s0.22-0.38,0.37-0.54c0.15-0.16,0.32-0.29,0.53-0.39
		s0.44-0.15,0.71-0.15c0.11,0,0.22,0.01,0.33,0.04c0.11,0.03,0.21,0.07,0.3,0.13c0.1,0.06,0.19,0.13,0.28,0.21s0.18,0.19,0.27,0.31
		l0.09-0.47c0.01-0.05,0.05-0.09,0.1-0.11c0.05-0.03,0.14-0.04,0.28-0.04c0.06,0,0.12,0,0.16,0.01c0.04,0.01,0.08,0.02,0.1,0.03
		s0.04,0.03,0.05,0.05c0.01,0.02,0.01,0.04,0,0.06l-0.48,2.47c-0.06,0.31-0.04,0.54,0.04,0.69s0.25,0.22,0.49,0.22
		c0.15,0,0.28-0.04,0.4-0.11s0.22-0.17,0.31-0.3s0.16-0.27,0.23-0.44c0.06-0.17,0.11-0.34,0.15-0.53s0.07-0.37,0.09-0.57
		s0.03-0.38,0.03-0.56c0-0.31-0.04-0.61-0.13-0.89c-0.08-0.28-0.23-0.53-0.43-0.74s-0.48-0.38-0.82-0.51C42.24,3.07,41.81,3,41.3,3
		c-0.42,0-0.8,0.05-1.13,0.14c-0.33,0.09-0.62,0.22-0.87,0.38s-0.47,0.34-0.64,0.55S38.32,4.5,38.2,4.74
		c-0.12,0.23-0.22,0.47-0.3,0.72s-0.13,0.48-0.17,0.71s-0.07,0.44-0.08,0.64c-0.01,0.2-0.02,0.37-0.02,0.51
		c0,0.4,0.05,0.76,0.14,1.09c0.09,0.33,0.25,0.61,0.48,0.85s0.53,0.43,0.91,0.56s0.86,0.2,1.43,0.2c0.26,0,0.5-0.01,0.71-0.04
		s0.4-0.06,0.55-0.1c0.16-0.03,0.28-0.07,0.38-0.1s0.16-0.05,0.2-0.05c0.02,0,0.04,0.01,0.06,0.02c0.02,0.01,0.03,0.03,0.04,0.06
		c0.01,0.03,0.02,0.06,0.02,0.1s0.01,0.09,0.01,0.15c0,0.05,0,0.09,0,0.12c0,0.03-0.01,0.06-0.01,0.09
		c-0.01,0.03-0.02,0.05-0.03,0.07c-0.01,0.02-0.03,0.04-0.05,0.06s-0.08,0.04-0.19,0.08c-0.1,0.04-0.24,0.07-0.41,0.11
		c-0.17,0.04-0.38,0.07-0.61,0.09s-0.49,0.04-0.77,0.04c-0.67,0-1.24-0.08-1.7-0.24c-0.46-0.16-0.84-0.38-1.13-0.68
		c-0.29-0.29-0.5-0.65-0.63-1.06s-0.19-0.87-0.19-1.38c0-0.19,0.01-0.4,0.03-0.64c0.02-0.24,0.06-0.5,0.11-0.77
		c0.06-0.27,0.13-0.55,0.23-0.84c0.1-0.28,0.23-0.56,0.39-0.83c0.16-0.27,0.35-0.53,0.58-0.77c0.23-0.24,0.5-0.45,0.81-0.63
		c0.31-0.18,0.66-0.32,1.06-0.43c0.4-0.1,0.85-0.16,1.36-0.16c0.59,0,1.09,0.07,1.52,0.21c0.43,0.14,0.78,0.34,1.06,0.6
		s0.49,0.57,0.62,0.94C44.73,4.42,44.79,4.84,44.79,5.29z M41.68,5.64c-0.14-0.23-0.28-0.4-0.42-0.53s-0.31-0.18-0.49-0.18
		c-0.15,0-0.29,0.04-0.41,0.11s-0.23,0.17-0.32,0.28s-0.17,0.25-0.23,0.39c-0.06,0.15-0.11,0.3-0.15,0.45
		c-0.04,0.15-0.07,0.3-0.08,0.45C39.56,6.77,39.56,6.89,39.56,7c0,0.26,0.05,0.47,0.14,0.61c0.1,0.14,0.26,0.21,0.48,0.21
		c0.09,0,0.17-0.02,0.26-0.05s0.18-0.08,0.28-0.14s0.21-0.14,0.32-0.25c0.11-0.1,0.24-0.22,0.37-0.36L41.68,5.64z"/>
	<path class="st0" d="M50.59,4.67c0,0.12-0.02,0.22-0.05,0.27C50.51,5,50.46,5.03,50.41,5.03h-0.69c0.13,0.13,0.21,0.27,0.26,0.43
		c0.05,0.16,0.08,0.32,0.08,0.49c0,0.28-0.04,0.53-0.13,0.74s-0.22,0.4-0.38,0.54c-0.17,0.15-0.36,0.26-0.59,0.34
		c-0.23,0.08-0.48,0.12-0.76,0.12c-0.2,0-0.38-0.03-0.56-0.08c-0.18-0.05-0.31-0.12-0.41-0.2c-0.06,0.06-0.12,0.14-0.16,0.22
		c-0.04,0.08-0.06,0.18-0.06,0.29c0,0.12,0.06,0.23,0.17,0.31c0.12,0.08,0.27,0.13,0.46,0.13l1.26,0.05
		c0.24,0.01,0.46,0.04,0.66,0.1c0.2,0.06,0.37,0.14,0.52,0.25s0.26,0.24,0.34,0.4s0.12,0.34,0.12,0.56c0,0.22-0.05,0.43-0.14,0.63
		c-0.09,0.2-0.24,0.38-0.43,0.53c-0.19,0.15-0.44,0.27-0.73,0.36s-0.65,0.13-1.05,0.13c-0.39,0-0.72-0.03-1-0.1
		c-0.27-0.07-0.5-0.16-0.67-0.27s-0.3-0.25-0.38-0.41s-0.12-0.33-0.12-0.52c0-0.12,0.01-0.23,0.04-0.34
		c0.03-0.11,0.07-0.22,0.13-0.32c0.06-0.1,0.13-0.2,0.22-0.29c0.09-0.09,0.19-0.18,0.3-0.27c-0.18-0.09-0.31-0.2-0.39-0.34
		c-0.08-0.14-0.13-0.28-0.13-0.44c0-0.22,0.04-0.41,0.13-0.58s0.2-0.33,0.33-0.46c-0.11-0.13-0.2-0.28-0.26-0.45
		c-0.06-0.17-0.1-0.37-0.1-0.6c0-0.28,0.05-0.52,0.14-0.74s0.22-0.4,0.39-0.55s0.36-0.27,0.59-0.35c0.23-0.08,0.48-0.12,0.75-0.12
		c0.15,0,0.28,0.01,0.41,0.02c0.13,0.02,0.25,0.04,0.36,0.07h1.46c0.06,0,0.11,0.03,0.14,0.09C50.58,4.46,50.59,4.55,50.59,4.67z
		 M49.65,9.78c0-0.21-0.08-0.37-0.25-0.48c-0.17-0.11-0.4-0.17-0.69-0.18l-1.25-0.04c-0.11,0.09-0.21,0.17-0.28,0.26
		C47.1,9.41,47.04,9.49,47,9.56s-0.07,0.15-0.09,0.22C46.9,9.85,46.89,9.92,46.89,10c0,0.23,0.12,0.41,0.35,0.53
		s0.57,0.18,0.99,0.18c0.27,0,0.49-0.03,0.67-0.08c0.18-0.05,0.33-0.12,0.44-0.21s0.19-0.18,0.24-0.3
		C49.63,10.01,49.65,9.9,49.65,9.78z M49.21,5.95c0-0.33-0.09-0.59-0.27-0.77C48.76,4.99,48.5,4.9,48.17,4.9
		c-0.17,0-0.32,0.03-0.45,0.09c-0.13,0.06-0.23,0.14-0.32,0.24c-0.08,0.1-0.15,0.22-0.19,0.35c-0.04,0.13-0.06,0.27-0.06,0.41
		c0,0.32,0.09,0.57,0.27,0.75C47.6,6.91,47.86,7,48.18,7c0.18,0,0.33-0.03,0.46-0.08s0.24-0.13,0.32-0.23
		c0.08-0.1,0.15-0.21,0.19-0.34C49.19,6.22,49.21,6.09,49.21,5.95z"/>
	<path class="st0" d="M55.17,9.29c0,0.04-0.01,0.08-0.04,0.1s-0.07,0.04-0.12,0.05c-0.05,0.01-0.12,0.02-0.22,0.02
		c-0.09,0-0.17,0-0.22-0.02c-0.06-0.01-0.1-0.03-0.12-0.05s-0.04-0.05-0.04-0.1V8.81c-0.21,0.23-0.45,0.4-0.71,0.53
		c-0.26,0.12-0.53,0.19-0.82,0.19c-0.25,0-0.48-0.03-0.69-0.1c-0.21-0.07-0.38-0.16-0.53-0.29c-0.14-0.12-0.26-0.28-0.34-0.46
		c-0.08-0.18-0.12-0.39-0.12-0.62c0-0.27,0.06-0.51,0.17-0.71c0.11-0.2,0.27-0.37,0.48-0.5s0.46-0.23,0.76-0.3s0.64-0.1,1.02-0.1
		h0.67V6.07c0-0.19-0.02-0.35-0.06-0.49s-0.1-0.26-0.19-0.36C53.95,5.12,53.84,5.05,53.7,5c-0.14-0.05-0.31-0.07-0.52-0.07
		c-0.22,0-0.41,0.03-0.59,0.08c-0.17,0.05-0.33,0.11-0.46,0.17c-0.13,0.06-0.24,0.12-0.33,0.17c-0.09,0.05-0.15,0.08-0.2,0.08
		c-0.03,0-0.05-0.01-0.08-0.02c-0.02-0.01-0.04-0.04-0.06-0.06c-0.02-0.03-0.03-0.07-0.04-0.11s-0.01-0.09-0.01-0.15
		c0-0.09,0.01-0.16,0.02-0.21c0.01-0.05,0.04-0.1,0.09-0.15c0.05-0.05,0.13-0.1,0.25-0.16s0.25-0.12,0.41-0.17s0.32-0.09,0.5-0.13
		s0.37-0.05,0.55-0.05c0.35,0,0.64,0.04,0.89,0.12s0.44,0.19,0.59,0.35S55,5.02,55.07,5.24s0.1,0.49,0.1,0.79V9.29z M54.29,7.09
		h-0.76c-0.24,0-0.45,0.02-0.63,0.06s-0.33,0.1-0.45,0.18c-0.12,0.08-0.21,0.18-0.26,0.29c-0.06,0.11-0.08,0.24-0.08,0.39
		c0,0.25,0.08,0.45,0.24,0.6c0.16,0.15,0.38,0.22,0.67,0.22c0.23,0,0.45-0.06,0.65-0.18c0.2-0.12,0.41-0.3,0.63-0.54V7.09z"/>
	<path class="st0" d="M61.24,6.81c0,0.42-0.05,0.79-0.14,1.13c-0.09,0.33-0.23,0.62-0.4,0.86c-0.18,0.24-0.4,0.42-0.65,0.54
		s-0.55,0.19-0.89,0.19c-0.15,0-0.3-0.01-0.43-0.04c-0.13-0.03-0.26-0.08-0.38-0.15c-0.13-0.07-0.25-0.15-0.38-0.26
		c-0.13-0.1-0.26-0.23-0.4-0.38v0.59c0,0.03-0.01,0.05-0.02,0.08s-0.04,0.04-0.07,0.05s-0.07,0.02-0.12,0.03
		c-0.05,0.01-0.11,0.01-0.19,0.01c-0.07,0-0.13,0-0.18-0.01s-0.09-0.02-0.12-0.03s-0.05-0.03-0.06-0.05S56.8,9.32,56.8,9.29V2.11
		c0-0.03,0.01-0.05,0.02-0.07c0.01-0.02,0.04-0.04,0.07-0.05c0.03-0.01,0.08-0.02,0.14-0.03c0.06-0.01,0.13-0.01,0.21-0.01
		c0.09,0,0.16,0,0.22,0.01c0.06,0.01,0.1,0.02,0.13,0.03c0.03,0.01,0.06,0.03,0.07,0.05s0.02,0.05,0.02,0.07v2.9
		c0.14-0.15,0.28-0.27,0.42-0.37c0.13-0.1,0.27-0.18,0.4-0.25s0.26-0.11,0.39-0.14s0.27-0.04,0.41-0.04c0.35,0,0.65,0.07,0.9,0.21
		c0.25,0.14,0.45,0.33,0.61,0.56c0.16,0.23,0.27,0.51,0.34,0.82C61.21,6.12,61.24,6.46,61.24,6.81z M60.33,6.91
		c0-0.25-0.02-0.49-0.06-0.72c-0.04-0.23-0.1-0.44-0.2-0.62c-0.09-0.18-0.22-0.32-0.37-0.43s-0.35-0.16-0.58-0.16
		c-0.12,0-0.23,0.02-0.34,0.05c-0.11,0.03-0.23,0.09-0.34,0.16c-0.12,0.08-0.23,0.17-0.36,0.29c-0.12,0.12-0.26,0.27-0.4,0.45v1.93
		c0.25,0.3,0.48,0.52,0.7,0.68c0.22,0.16,0.46,0.23,0.7,0.23c0.22,0,0.41-0.05,0.57-0.16c0.16-0.11,0.29-0.25,0.39-0.43
		c0.1-0.18,0.17-0.38,0.22-0.6C60.3,7.36,60.33,7.13,60.33,6.91z"/>
	<path class="st0" d="M66.22,9.29c0,0.04-0.01,0.08-0.04,0.1s-0.07,0.04-0.12,0.05c-0.05,0.01-0.12,0.02-0.22,0.02
		c-0.09,0-0.17,0-0.22-0.02c-0.06-0.01-0.1-0.03-0.12-0.05s-0.04-0.05-0.04-0.1V8.81c-0.21,0.23-0.45,0.4-0.71,0.53
		c-0.26,0.12-0.53,0.19-0.82,0.19c-0.25,0-0.48-0.03-0.69-0.1c-0.21-0.07-0.38-0.16-0.53-0.29c-0.14-0.12-0.26-0.28-0.34-0.46
		c-0.08-0.18-0.12-0.39-0.12-0.62c0-0.27,0.06-0.51,0.17-0.71c0.11-0.2,0.27-0.37,0.48-0.5s0.46-0.23,0.76-0.3s0.64-0.1,1.02-0.1
		h0.67V6.07c0-0.19-0.02-0.35-0.06-0.49s-0.1-0.26-0.19-0.36C65,5.12,64.89,5.05,64.75,5c-0.14-0.05-0.31-0.07-0.52-0.07
		c-0.22,0-0.41,0.03-0.59,0.08c-0.17,0.05-0.33,0.11-0.46,0.17c-0.13,0.06-0.24,0.12-0.33,0.17c-0.09,0.05-0.15,0.08-0.2,0.08
		c-0.03,0-0.05-0.01-0.08-0.02c-0.02-0.01-0.04-0.04-0.06-0.06c-0.02-0.03-0.03-0.07-0.04-0.11s-0.01-0.09-0.01-0.15
		c0-0.09,0.01-0.16,0.02-0.21c0.01-0.05,0.04-0.1,0.09-0.15c0.05-0.05,0.13-0.1,0.25-0.16s0.25-0.12,0.41-0.17s0.32-0.09,0.5-0.13
		s0.37-0.05,0.55-0.05c0.35,0,0.64,0.04,0.89,0.12s0.44,0.19,0.59,0.35s0.26,0.34,0.33,0.57s0.1,0.49,0.1,0.79V9.29z M65.34,7.09
		h-0.76c-0.24,0-0.45,0.02-0.63,0.06s-0.33,0.1-0.45,0.18c-0.12,0.08-0.21,0.18-0.26,0.29c-0.06,0.11-0.08,0.24-0.08,0.39
		c0,0.25,0.08,0.45,0.24,0.6c0.16,0.15,0.38,0.22,0.67,0.22c0.23,0,0.45-0.06,0.65-0.18c0.2-0.12,0.41-0.3,0.63-0.54V7.09z"/>
	<path class="st0" d="M70.67,4.77c0,0.08,0,0.15-0.01,0.2c0,0.05-0.01,0.1-0.02,0.13s-0.02,0.05-0.04,0.07
		c-0.02,0.02-0.04,0.02-0.07,0.02s-0.06-0.01-0.1-0.02c-0.04-0.02-0.09-0.03-0.14-0.05c-0.05-0.02-0.11-0.03-0.17-0.05
		s-0.13-0.02-0.21-0.02c-0.09,0-0.18,0.02-0.26,0.05s-0.18,0.09-0.27,0.18c-0.09,0.08-0.19,0.19-0.3,0.33s-0.22,0.3-0.34,0.5v3.18
		c0,0.03-0.01,0.05-0.02,0.07s-0.04,0.04-0.07,0.05s-0.08,0.03-0.13,0.03s-0.13,0.01-0.22,0.01c-0.09,0-0.16,0-0.21-0.01
		s-0.1-0.02-0.14-0.03c-0.03-0.01-0.06-0.03-0.07-0.05c-0.01-0.02-0.02-0.04-0.02-0.07V4.45c0-0.03,0.01-0.05,0.02-0.07
		s0.03-0.04,0.06-0.05C67.96,4.31,68,4.3,68.05,4.29c0.05,0,0.12-0.01,0.2-0.01c0.08,0,0.14,0,0.2,0.01
		c0.05,0.01,0.09,0.02,0.12,0.03c0.03,0.02,0.05,0.03,0.06,0.05c0.01,0.02,0.02,0.04,0.02,0.07v0.7c0.13-0.19,0.26-0.35,0.37-0.47
		c0.12-0.12,0.23-0.22,0.33-0.29c0.1-0.07,0.21-0.12,0.31-0.15c0.1-0.03,0.2-0.04,0.31-0.04c0.05,0,0.1,0,0.16,0.01
		c0.06,0.01,0.12,0.02,0.19,0.03c0.06,0.01,0.12,0.03,0.17,0.05c0.05,0.02,0.09,0.04,0.11,0.05s0.04,0.04,0.04,0.05
		c0.01,0.02,0.01,0.04,0.02,0.06c0,0.02,0.01,0.06,0.01,0.11C70.67,4.62,70.67,4.69,70.67,4.77z"/>
	<path class="st0" d="M71.72,8.84c0,0.25-0.04,0.42-0.13,0.51c-0.08,0.08-0.24,0.13-0.46,0.13c-0.21,0-0.36-0.04-0.45-0.12
		s-0.12-0.25-0.12-0.49c0-0.25,0.04-0.42,0.13-0.51c0.08-0.08,0.24-0.13,0.46-0.13c0.21,0,0.36,0.04,0.45,0.12
		C71.68,8.42,71.72,8.59,71.72,8.84z"/>
	<path class="st0" d="M80.52,9.29c0,0.03-0.01,0.05-0.02,0.07s-0.04,0.04-0.07,0.05s-0.08,0.03-0.13,0.03s-0.13,0.01-0.21,0.01
		c-0.09,0-0.16,0-0.22-0.01s-0.1-0.02-0.14-0.03c-0.03-0.01-0.06-0.03-0.07-0.05s-0.02-0.04-0.02-0.07V6.35
		c0-0.2-0.02-0.39-0.05-0.56s-0.09-0.31-0.17-0.44c-0.08-0.12-0.18-0.21-0.3-0.28s-0.27-0.1-0.43-0.1c-0.2,0-0.41,0.08-0.62,0.24
		c-0.21,0.16-0.43,0.39-0.68,0.69v3.38c0,0.03-0.01,0.05-0.02,0.07s-0.04,0.04-0.07,0.05c-0.03,0.01-0.08,0.03-0.14,0.03
		s-0.13,0.01-0.21,0.01c-0.08,0-0.15,0-0.21-0.01c-0.06-0.01-0.11-0.02-0.14-0.03c-0.03-0.01-0.06-0.03-0.07-0.05
		c-0.01-0.02-0.02-0.04-0.02-0.07V6.35c0-0.2-0.02-0.39-0.06-0.56s-0.1-0.31-0.18-0.44c-0.08-0.12-0.18-0.21-0.3-0.28
		c-0.12-0.06-0.26-0.1-0.43-0.1c-0.2,0-0.41,0.08-0.62,0.24c-0.21,0.16-0.43,0.39-0.68,0.69v3.38c0,0.03-0.01,0.05-0.02,0.07
		s-0.04,0.04-0.07,0.05s-0.08,0.03-0.13,0.03s-0.13,0.01-0.22,0.01c-0.09,0-0.16,0-0.21-0.01s-0.1-0.02-0.14-0.03
		c-0.03-0.01-0.06-0.03-0.07-0.05c-0.01-0.02-0.02-0.04-0.02-0.07V4.45c0-0.03,0.01-0.05,0.02-0.07s0.03-0.04,0.06-0.05
		c0.03-0.02,0.07-0.03,0.12-0.03c0.05,0,0.12-0.01,0.2-0.01c0.08,0,0.14,0,0.2,0.01C74,4.3,74.04,4.31,74.07,4.33
		c0.03,0.02,0.05,0.03,0.06,0.05c0.01,0.02,0.02,0.04,0.02,0.07v0.64c0.27-0.3,0.54-0.53,0.79-0.67c0.26-0.14,0.52-0.21,0.78-0.21
		c0.2,0,0.38,0.02,0.54,0.07c0.16,0.05,0.3,0.11,0.42,0.2s0.23,0.18,0.31,0.3s0.16,0.25,0.21,0.39c0.16-0.18,0.31-0.32,0.46-0.45
		c0.14-0.12,0.28-0.22,0.42-0.3c0.13-0.08,0.26-0.13,0.39-0.16c0.13-0.03,0.26-0.05,0.38-0.05c0.31,0,0.57,0.05,0.78,0.16
		s0.38,0.25,0.51,0.44c0.13,0.18,0.22,0.4,0.28,0.64c0.06,0.25,0.08,0.5,0.08,0.78V9.29z"/>
	<path class="st0" d="M85.7,9.19c0.03,0.05,0.04,0.09,0.04,0.13s-0.02,0.06-0.05,0.08c-0.03,0.02-0.09,0.04-0.16,0.05
		c-0.07,0.01-0.16,0.01-0.27,0.01c-0.11,0-0.19,0-0.25-0.01c-0.06-0.01-0.11-0.01-0.15-0.03c-0.04-0.01-0.07-0.03-0.09-0.05
		c-0.02-0.02-0.04-0.04-0.05-0.07l-1.16-1.92L82.41,9.3c-0.01,0.03-0.03,0.05-0.05,0.07c-0.02,0.02-0.05,0.04-0.09,0.05
		c-0.04,0.01-0.09,0.02-0.15,0.03c-0.06,0-0.14,0.01-0.24,0.01c-0.1,0-0.19,0-0.25-0.01c-0.07-0.01-0.11-0.02-0.15-0.05
		c-0.03-0.02-0.04-0.05-0.04-0.08c0-0.03,0.02-0.08,0.05-0.13l1.5-2.36l-1.42-2.27c-0.03-0.05-0.04-0.09-0.05-0.13
		c0-0.03,0.01-0.06,0.05-0.09c0.03-0.02,0.09-0.04,0.16-0.05C81.8,4.29,81.89,4.29,82,4.29c0.1,0,0.19,0,0.25,0.01
		c0.06,0.01,0.11,0.01,0.15,0.02s0.06,0.03,0.08,0.04s0.03,0.04,0.05,0.06l1.1,1.8l1.12-1.8c0.01-0.02,0.03-0.04,0.05-0.06
		c0.02-0.02,0.04-0.03,0.07-0.04C84.9,4.31,84.94,4.3,85,4.29c0.06,0,0.13-0.01,0.23-0.01c0.1,0,0.19,0,0.26,0.01
		c0.07,0.01,0.12,0.02,0.15,0.04s0.05,0.05,0.04,0.08c0,0.04-0.02,0.08-0.05,0.13L84.21,6.8L85.7,9.19z"/>
</g>
</svg>
