<?xml version="1.0" encoding="utf-8"?>
<!-- Generator: Adobe Illustrator 25.4.1, SVG Export Plug-In . SVG Version: 6.00 Build 0)  -->
<svg version="1.1" id="Capa_1" xmlns="http://www.w3.org/2000/svg" xmlns:xlink="http://www.w3.org/1999/xlink" x="0px" y="0px"
	 viewBox="0 0 184 7" style="enable-background:new 0 0 184 7;" xml:space="preserve">
<style type="text/css">
	.st0{fill:#3F3E3E;}
</style>
<g>
	<path class="st0" d="M0.37,5.82l0.6,0.09c0.02,0.18,0.09,0.32,0.21,0.4C1.33,6.43,1.54,6.48,1.8,6.48c0.28,0,0.5-0.06,0.66-0.17
		s0.26-0.27,0.31-0.48c0.03-0.12,0.05-0.39,0.04-0.79c-0.27,0.32-0.6,0.47-1,0.47c-0.5,0-0.89-0.18-1.16-0.54s-0.41-0.79-0.41-1.3
		c0-0.35,0.06-0.67,0.19-0.96s0.31-0.52,0.55-0.68C1.22,1.89,1.5,1.81,1.82,1.81c0.43,0,0.78,0.17,1.06,0.52V1.89h0.57v3.14
		c0,0.57-0.06,0.97-0.17,1.2c-0.11,0.24-0.3,0.42-0.55,0.56C2.48,6.92,2.17,6.99,1.81,6.99c-0.43,0-0.78-0.1-1.05-0.29
		C0.49,6.51,0.36,6.21,0.37,5.82z M0.88,3.64c0,0.48,0.09,0.82,0.28,1.04s0.43,0.33,0.71,0.33c0.28,0,0.52-0.11,0.71-0.33
		s0.29-0.56,0.29-1.02c0-0.44-0.1-0.78-0.3-1c-0.2-0.23-0.43-0.34-0.71-0.34c-0.27,0-0.51,0.11-0.7,0.33
		C0.97,2.87,0.88,3.2,0.88,3.64z"/>
	<path class="st0" d="M6.86,4.35L7.5,4.43C7.4,4.8,7.21,5.09,6.94,5.29S6.32,5.6,5.9,5.6c-0.53,0-0.95-0.16-1.26-0.49
		C4.33,4.78,4.17,4.33,4.17,3.74c0-0.61,0.16-1.08,0.47-1.42s0.72-0.51,1.22-0.51c0.49,0,0.88,0.17,1.19,0.5
		C7.36,2.63,7.52,3.1,7.52,3.7c0,0.04,0,0.09,0,0.16H4.81c0.02,0.4,0.14,0.71,0.34,0.92C5.35,4.99,5.6,5.1,5.9,5.1
		c0.23,0,0.42-0.06,0.58-0.18S6.77,4.61,6.86,4.35z M4.84,3.36h2.03c-0.03-0.3-0.1-0.53-0.23-0.69c-0.2-0.24-0.45-0.36-0.76-0.36
		c-0.28,0-0.52,0.09-0.71,0.28C4.97,2.79,4.86,3.04,4.84,3.36z"/>
	<path class="st0" d="M8.26,5.52V1.89h0.55v0.55c0.14-0.26,0.27-0.43,0.39-0.51c0.12-0.08,0.25-0.12,0.4-0.12
		c0.21,0,0.42,0.07,0.63,0.2l-0.21,0.57c-0.15-0.09-0.3-0.13-0.45-0.13c-0.13,0-0.26,0.04-0.36,0.12S9.02,2.76,8.98,2.9
		c-0.07,0.22-0.1,0.46-0.1,0.72v1.9H8.26z"/>
	<path class="st0" d="M13.08,4.35l0.64,0.08c-0.1,0.37-0.29,0.66-0.56,0.86S12.55,5.6,12.12,5.6c-0.53,0-0.95-0.16-1.26-0.49
		c-0.31-0.33-0.47-0.79-0.47-1.38c0-0.61,0.16-1.08,0.47-1.42s0.72-0.51,1.22-0.51c0.49,0,0.88,0.17,1.19,0.5
		c0.31,0.33,0.46,0.8,0.46,1.39c0,0.04,0,0.09,0,0.16h-2.71c0.02,0.4,0.14,0.71,0.34,0.92c0.2,0.21,0.46,0.32,0.76,0.32
		c0.23,0,0.42-0.06,0.58-0.18S12.99,4.61,13.08,4.35z M11.06,3.36h2.03c-0.03-0.3-0.1-0.53-0.23-0.69c-0.2-0.24-0.45-0.36-0.76-0.36
		c-0.28,0-0.52,0.09-0.71,0.28C11.19,2.79,11.08,3.04,11.06,3.36z"/>
	<path class="st0" d="M14.49,5.52V1.89h0.55v0.52c0.27-0.4,0.65-0.6,1.16-0.6c0.22,0,0.42,0.04,0.6,0.12
		c0.18,0.08,0.32,0.18,0.41,0.31c0.09,0.13,0.15,0.28,0.19,0.46c0.02,0.11,0.03,0.31,0.03,0.6v2.23h-0.62V3.31
		c0-0.25-0.02-0.44-0.07-0.56s-0.13-0.22-0.25-0.3c-0.12-0.07-0.27-0.11-0.43-0.11c-0.26,0-0.49,0.08-0.68,0.25
		c-0.19,0.17-0.29,0.48-0.29,0.95v1.98H14.49z"/>
	<path class="st0" d="M20.75,4.19l0.6,0.08c-0.07,0.42-0.24,0.74-0.51,0.98c-0.27,0.24-0.61,0.35-1,0.35c-0.5,0-0.9-0.16-1.2-0.49
		c-0.3-0.32-0.45-0.79-0.45-1.4c0-0.39,0.06-0.74,0.19-1.03s0.33-0.51,0.59-0.66c0.27-0.15,0.55-0.22,0.87-0.22
		c0.39,0,0.72,0.1,0.97,0.3s0.41,0.48,0.48,0.85l-0.6,0.09c-0.06-0.24-0.16-0.43-0.3-0.55c-0.15-0.12-0.32-0.18-0.52-0.18
		c-0.31,0-0.56,0.11-0.76,0.33c-0.19,0.22-0.29,0.57-0.29,1.05c0,0.49,0.09,0.84,0.28,1.06c0.19,0.22,0.43,0.33,0.73,0.33
		c0.24,0,0.44-0.07,0.6-0.22C20.61,4.73,20.71,4.5,20.75,4.19z"/>
	<path class="st0" d="M21.89,1.22V0.51h0.62v0.71H21.89z M21.89,5.52V1.89h0.62v3.63H21.89z"/>
	<path class="st0" d="M25.81,5.07c-0.23,0.19-0.45,0.33-0.66,0.41c-0.21,0.08-0.44,0.12-0.68,0.12c-0.4,0-0.71-0.1-0.92-0.29
		c-0.21-0.2-0.32-0.44-0.32-0.75c0-0.18,0.04-0.34,0.12-0.49c0.08-0.15,0.19-0.26,0.32-0.35c0.13-0.09,0.28-0.16,0.44-0.2
		c0.12-0.03,0.3-0.06,0.55-0.09c0.5-0.06,0.86-0.13,1.1-0.21c0-0.08,0-0.14,0-0.16c0-0.25-0.06-0.43-0.17-0.53
		c-0.16-0.14-0.39-0.21-0.7-0.21c-0.29,0-0.5,0.05-0.64,0.15c-0.14,0.1-0.24,0.28-0.31,0.54l-0.6-0.08
		c0.05-0.26,0.14-0.47,0.27-0.62s0.31-0.28,0.54-0.37c0.24-0.08,0.51-0.13,0.82-0.13c0.31,0,0.56,0.04,0.76,0.11
		s0.34,0.17,0.43,0.28s0.15,0.25,0.19,0.42c0.02,0.1,0.03,0.29,0.03,0.57V4c0,0.57,0.01,0.93,0.04,1.09
		c0.03,0.15,0.08,0.3,0.16,0.44h-0.64C25.87,5.39,25.83,5.24,25.81,5.07z M25.76,3.7c-0.22,0.09-0.56,0.17-1,0.23
		c-0.25,0.04-0.43,0.08-0.54,0.12c-0.1,0.05-0.19,0.11-0.24,0.2s-0.09,0.19-0.09,0.29c0,0.16,0.06,0.3,0.19,0.41
		c0.12,0.11,0.31,0.16,0.54,0.16c0.24,0,0.45-0.05,0.63-0.16s0.32-0.25,0.41-0.42c0.07-0.14,0.1-0.34,0.1-0.62V3.7z"/>
	<path class="st0" d="M27.51,5.52v-0.7h0.7v0.7H27.51z"/>
	<path class="st0" d="M29.05,3.71c0-0.67,0.19-1.17,0.56-1.49c0.31-0.27,0.69-0.4,1.14-0.4c0.5,0,0.91,0.16,1.22,0.49
		s0.48,0.78,0.48,1.36c0,0.47-0.07,0.83-0.21,1.1c-0.14,0.27-0.34,0.48-0.61,0.62c-0.27,0.15-0.56,0.22-0.88,0.22
		c-0.51,0-0.92-0.16-1.23-0.49C29.21,4.79,29.05,4.32,29.05,3.71z M29.68,3.71c0,0.46,0.1,0.81,0.3,1.04s0.46,0.35,0.77,0.35
		c0.31,0,0.56-0.12,0.76-0.35s0.3-0.59,0.3-1.06c0-0.45-0.1-0.79-0.31-1.02c-0.2-0.23-0.46-0.35-0.76-0.35
		c-0.31,0-0.56,0.12-0.77,0.35S29.68,3.24,29.68,3.71z"/>
	<path class="st0" d="M33.17,6.91V1.89h0.56v0.47c0.13-0.18,0.28-0.32,0.45-0.42c0.17-0.09,0.37-0.14,0.6-0.14
		c0.31,0,0.58,0.08,0.82,0.24s0.42,0.38,0.54,0.67c0.12,0.29,0.18,0.61,0.18,0.96c0,0.37-0.07,0.71-0.2,1
		c-0.13,0.3-0.33,0.53-0.58,0.68c-0.25,0.16-0.52,0.24-0.8,0.24c-0.21,0-0.39-0.04-0.55-0.13c-0.16-0.09-0.3-0.2-0.4-0.33v1.77
		H33.17z M33.73,3.72c0,0.47,0.09,0.81,0.28,1.04S34.43,5.1,34.7,5.1c0.27,0,0.51-0.12,0.7-0.35c0.2-0.23,0.29-0.59,0.29-1.08
		c0-0.46-0.1-0.81-0.29-1.04c-0.19-0.23-0.42-0.35-0.68-0.35c-0.26,0-0.49,0.12-0.7,0.37C33.83,2.9,33.73,3.26,33.73,3.72z"/>
	<path class="st0" d="M39.55,4.35l0.64,0.08c-0.1,0.37-0.29,0.66-0.56,0.86S39.01,5.6,38.59,5.6c-0.53,0-0.95-0.16-1.26-0.49
		c-0.31-0.33-0.47-0.79-0.47-1.38c0-0.61,0.16-1.08,0.47-1.42s0.72-0.51,1.22-0.51c0.49,0,0.88,0.17,1.19,0.5
		c0.31,0.33,0.46,0.8,0.46,1.39c0,0.04,0,0.09,0,0.16H37.5c0.02,0.4,0.14,0.71,0.34,0.92c0.2,0.21,0.46,0.32,0.76,0.32
		c0.23,0,0.42-0.06,0.58-0.18S39.46,4.61,39.55,4.35z M37.53,3.36h2.03c-0.03-0.3-0.1-0.53-0.23-0.69c-0.2-0.24-0.45-0.36-0.76-0.36
		c-0.28,0-0.52,0.09-0.71,0.28C37.66,2.79,37.55,3.04,37.53,3.36z"/>
	<path class="st0" d="M40.95,5.52V1.89h0.55v0.55c0.14-0.26,0.27-0.43,0.39-0.51c0.12-0.08,0.25-0.12,0.4-0.12
		c0.21,0,0.42,0.07,0.63,0.2l-0.21,0.57c-0.15-0.09-0.3-0.13-0.45-0.13c-0.13,0-0.26,0.04-0.36,0.12s-0.18,0.19-0.23,0.34
		c-0.07,0.22-0.1,0.46-0.1,0.72v1.9H40.95z"/>
	<path class="st0" d="M45.66,5.07C45.43,5.27,45.21,5.4,45,5.48c-0.21,0.08-0.44,0.12-0.68,0.12c-0.4,0-0.71-0.1-0.92-0.29
		c-0.21-0.2-0.32-0.44-0.32-0.75c0-0.18,0.04-0.34,0.12-0.49c0.08-0.15,0.19-0.26,0.32-0.35c0.13-0.09,0.28-0.16,0.44-0.2
		c0.12-0.03,0.3-0.06,0.55-0.09c0.5-0.06,0.86-0.13,1.1-0.21c0-0.08,0-0.14,0-0.16c0-0.25-0.06-0.43-0.17-0.53
		c-0.16-0.14-0.39-0.21-0.7-0.21c-0.29,0-0.5,0.05-0.64,0.15c-0.14,0.1-0.24,0.28-0.31,0.54l-0.6-0.08
		c0.05-0.26,0.14-0.47,0.27-0.62S43.76,2.02,44,1.94c0.24-0.08,0.51-0.13,0.82-0.13c0.31,0,0.56,0.04,0.76,0.11s0.34,0.17,0.43,0.28
		s0.15,0.25,0.19,0.42c0.02,0.1,0.03,0.29,0.03,0.57V4c0,0.57,0.01,0.93,0.04,1.09c0.03,0.15,0.08,0.3,0.16,0.44h-0.64
		C45.72,5.39,45.68,5.24,45.66,5.07z M45.61,3.7c-0.22,0.09-0.56,0.17-1,0.23c-0.25,0.04-0.43,0.08-0.54,0.12
		c-0.1,0.05-0.19,0.11-0.24,0.2s-0.09,0.19-0.09,0.29c0,0.16,0.06,0.3,0.19,0.41c0.12,0.11,0.31,0.16,0.54,0.16
		c0.24,0,0.45-0.05,0.63-0.16s0.32-0.25,0.41-0.42c0.07-0.14,0.1-0.34,0.1-0.62V3.7z"/>
	<path class="st0" d="M48.53,4.97l0.09,0.54c-0.17,0.04-0.33,0.05-0.46,0.05c-0.22,0-0.4-0.04-0.52-0.11
		c-0.12-0.07-0.21-0.16-0.26-0.28s-0.08-0.36-0.08-0.73V2.37h-0.45V1.89h0.45v-0.9l0.61-0.37v1.27h0.62v0.48h-0.62v2.12
		c0,0.18,0.01,0.29,0.03,0.34c0.02,0.05,0.06,0.09,0.11,0.12c0.05,0.03,0.12,0.04,0.21,0.04C48.32,4.99,48.41,4.99,48.53,4.97z"/>
	<path class="st0" d="M49.13,1.22V0.51h0.62v0.71H49.13z M49.13,5.52V1.89h0.62v3.63H49.13z"/>
	<path class="st0" d="M51.69,5.52l-1.38-3.63h0.65l0.78,2.17c0.08,0.23,0.16,0.48,0.23,0.73C52.03,4.6,52.1,4.37,52.2,4.1l0.81-2.21
		h0.63l-1.37,3.63H51.69z"/>
	<path class="st0" d="M56.55,5.07c-0.23,0.19-0.45,0.33-0.66,0.41c-0.21,0.08-0.44,0.12-0.68,0.12c-0.4,0-0.71-0.1-0.92-0.29
		c-0.21-0.2-0.32-0.44-0.32-0.75c0-0.18,0.04-0.34,0.12-0.49c0.08-0.15,0.19-0.26,0.32-0.35c0.13-0.09,0.28-0.16,0.44-0.2
		c0.12-0.03,0.3-0.06,0.55-0.09c0.5-0.06,0.86-0.13,1.1-0.21c0-0.08,0-0.14,0-0.16c0-0.25-0.06-0.43-0.17-0.53
		c-0.16-0.14-0.39-0.21-0.7-0.21c-0.29,0-0.5,0.05-0.64,0.15c-0.14,0.1-0.24,0.28-0.31,0.54l-0.6-0.08
		c0.05-0.26,0.14-0.47,0.27-0.62s0.31-0.28,0.54-0.37c0.24-0.08,0.51-0.13,0.82-0.13c0.31,0,0.56,0.04,0.76,0.11
		s0.34,0.17,0.43,0.28s0.15,0.25,0.19,0.42c0.02,0.1,0.03,0.29,0.03,0.57V4c0,0.57,0.01,0.93,0.04,1.09
		c0.03,0.15,0.08,0.3,0.16,0.44h-0.64C56.61,5.39,56.57,5.24,56.55,5.07z M56.5,3.7c-0.22,0.09-0.56,0.17-1,0.23
		c-0.25,0.04-0.43,0.08-0.54,0.12c-0.1,0.05-0.19,0.11-0.24,0.2s-0.09,0.19-0.09,0.29c0,0.16,0.06,0.3,0.19,0.41
		c0.12,0.11,0.31,0.16,0.54,0.16c0.24,0,0.45-0.05,0.63-0.16s0.32-0.25,0.41-0.42c0.07-0.14,0.1-0.34,0.1-0.62V3.7z"/>
	<path class="st0" d="M61.58,4.96c-0.15,0.17-0.31,0.31-0.5,0.41c-0.18,0.1-0.37,0.16-0.55,0.16c-0.2,0-0.4-0.06-0.59-0.18
		c-0.19-0.12-0.35-0.3-0.47-0.55C59.35,4.56,59.3,4.29,59.3,4c0-0.36,0.09-0.73,0.28-1.09c0.19-0.36,0.42-0.64,0.69-0.82
		s0.54-0.27,0.8-0.27c0.2,0,0.39,0.05,0.57,0.16s0.33,0.26,0.46,0.47l0.12-0.53h0.61l-0.49,2.29c-0.07,0.32-0.1,0.5-0.1,0.53
		c0,0.06,0.02,0.12,0.07,0.16c0.05,0.04,0.1,0.07,0.17,0.07c0.12,0,0.28-0.07,0.48-0.21c0.26-0.18,0.47-0.43,0.62-0.73
		c0.15-0.31,0.23-0.62,0.23-0.95c0-0.38-0.1-0.74-0.29-1.07c-0.2-0.33-0.49-0.59-0.87-0.79c-0.39-0.2-0.81-0.3-1.28-0.3
		c-0.53,0-1.02,0.12-1.46,0.37c-0.44,0.25-0.78,0.61-1.03,1.07c-0.24,0.47-0.36,0.96-0.36,1.5c0,0.56,0.12,1.04,0.36,1.44
		c0.24,0.4,0.59,0.7,1.05,0.89c0.46,0.19,0.97,0.29,1.53,0.29c0.6,0,1.1-0.1,1.5-0.3c0.4-0.2,0.71-0.44,0.91-0.73h0.62
		c-0.12,0.24-0.32,0.48-0.6,0.73c-0.28,0.25-0.62,0.45-1.01,0.59S62,6.99,61.45,6.99c-0.51,0-0.97-0.06-1.4-0.19
		c-0.43-0.13-0.79-0.33-1.09-0.59s-0.53-0.56-0.68-0.9c-0.19-0.43-0.29-0.89-0.29-1.39c0-0.56,0.11-1.08,0.34-1.59
		c0.28-0.62,0.67-1.09,1.18-1.42c0.51-0.33,1.13-0.49,1.86-0.49c0.56,0,1.07,0.12,1.52,0.35C63.35,1,63.71,1.34,63.97,1.8
		c0.22,0.39,0.33,0.82,0.33,1.29c0,0.66-0.23,1.25-0.7,1.76c-0.41,0.46-0.87,0.69-1.36,0.69c-0.16,0-0.28-0.02-0.38-0.07
		c-0.1-0.05-0.17-0.12-0.21-0.21C61.62,5.2,61.6,5.1,61.58,4.96z M59.93,4.04c0,0.31,0.07,0.55,0.22,0.73
		c0.15,0.17,0.32,0.26,0.51,0.26c0.13,0,0.26-0.04,0.4-0.11s0.28-0.19,0.4-0.34C61.6,4.42,61.7,4.23,61.78,4s0.12-0.46,0.12-0.7
		c0-0.31-0.08-0.55-0.23-0.72c-0.15-0.17-0.34-0.26-0.56-0.26c-0.15,0-0.28,0.04-0.41,0.11c-0.13,0.07-0.25,0.19-0.37,0.36
		s-0.22,0.36-0.29,0.6C59.96,3.62,59.93,3.84,59.93,4.04z"/>
	<path class="st0" d="M65.07,5.82l0.6,0.09c0.02,0.18,0.09,0.32,0.21,0.4c0.15,0.11,0.36,0.17,0.63,0.17c0.28,0,0.5-0.06,0.66-0.17
		s0.26-0.27,0.31-0.48c0.03-0.12,0.05-0.39,0.04-0.79c-0.27,0.32-0.6,0.47-1,0.47c-0.5,0-0.89-0.18-1.16-0.54s-0.41-0.79-0.41-1.3
		c0-0.35,0.06-0.67,0.19-0.96s0.31-0.52,0.55-0.68c0.24-0.16,0.52-0.24,0.84-0.24c0.43,0,0.78,0.17,1.06,0.52V1.89h0.57v3.14
		c0,0.57-0.06,0.97-0.17,1.2c-0.11,0.24-0.3,0.42-0.55,0.56c-0.25,0.14-0.56,0.21-0.92,0.21c-0.43,0-0.78-0.1-1.05-0.29
		C65.19,6.51,65.06,6.21,65.07,5.82z M65.58,3.64c0,0.48,0.09,0.82,0.28,1.04s0.43,0.33,0.71,0.33c0.28,0,0.52-0.11,0.71-0.33
		s0.29-0.56,0.29-1.02c0-0.44-0.1-0.78-0.3-1c-0.2-0.23-0.43-0.34-0.71-0.34c-0.27,0-0.51,0.11-0.7,0.33
		C65.67,2.87,65.58,3.2,65.58,3.64z"/>
	<path class="st0" d="M71.44,5.07C71.21,5.27,71,5.4,70.78,5.48c-0.21,0.08-0.44,0.12-0.68,0.12c-0.4,0-0.71-0.1-0.92-0.29
		c-0.21-0.2-0.32-0.44-0.32-0.75c0-0.18,0.04-0.34,0.12-0.49c0.08-0.15,0.19-0.26,0.32-0.35c0.13-0.09,0.28-0.16,0.44-0.2
		c0.12-0.03,0.3-0.06,0.55-0.09c0.5-0.06,0.86-0.13,1.1-0.21c0-0.08,0-0.14,0-0.16c0-0.25-0.06-0.43-0.17-0.53
		c-0.16-0.14-0.39-0.21-0.7-0.21c-0.29,0-0.5,0.05-0.64,0.15c-0.14,0.1-0.24,0.28-0.31,0.54l-0.6-0.08
		c0.05-0.26,0.14-0.47,0.27-0.62s0.31-0.28,0.54-0.37c0.24-0.08,0.51-0.13,0.82-0.13c0.31,0,0.56,0.04,0.76,0.11
		s0.34,0.17,0.43,0.28s0.15,0.25,0.19,0.42c0.02,0.1,0.03,0.29,0.03,0.57V4c0,0.57,0.01,0.93,0.04,1.09
		c0.03,0.15,0.08,0.3,0.16,0.44h-0.64C71.5,5.39,71.46,5.24,71.44,5.07z M71.39,3.7c-0.22,0.09-0.56,0.17-1,0.23
		c-0.25,0.04-0.43,0.08-0.54,0.12c-0.1,0.05-0.19,0.11-0.24,0.2s-0.09,0.19-0.09,0.29c0,0.16,0.06,0.3,0.19,0.41
		c0.12,0.11,0.31,0.16,0.54,0.16c0.24,0,0.45-0.05,0.63-0.16s0.32-0.25,0.41-0.42c0.07-0.14,0.1-0.34,0.1-0.62V3.7z"/>
	<path class="st0" d="M73.53,5.52h-0.57V0.51h0.62V2.3c0.26-0.33,0.59-0.49,0.99-0.49c0.22,0,0.43,0.04,0.63,0.13
		c0.2,0.09,0.36,0.22,0.49,0.38c0.13,0.16,0.23,0.36,0.3,0.59c0.07,0.23,0.11,0.48,0.11,0.74c0,0.62-0.15,1.1-0.46,1.44
		c-0.31,0.34-0.68,0.51-1.11,0.51c-0.43,0-0.76-0.18-1.01-0.54V5.52z M73.53,3.68c0,0.43,0.06,0.75,0.18,0.94
		c0.19,0.32,0.46,0.47,0.79,0.47c0.27,0,0.5-0.12,0.7-0.35s0.29-0.58,0.29-1.04c0-0.47-0.09-0.82-0.28-1.05
		c-0.19-0.23-0.42-0.34-0.68-0.34c-0.27,0-0.5,0.12-0.7,0.35S73.53,3.24,73.53,3.68z"/>
	<path class="st0" d="M79.23,5.07C79,5.27,78.78,5.4,78.57,5.48c-0.21,0.08-0.44,0.12-0.68,0.12c-0.4,0-0.71-0.1-0.92-0.29
		c-0.21-0.2-0.32-0.44-0.32-0.75c0-0.18,0.04-0.34,0.12-0.49c0.08-0.15,0.19-0.26,0.32-0.35c0.13-0.09,0.28-0.16,0.44-0.2
		c0.12-0.03,0.3-0.06,0.55-0.09c0.5-0.06,0.86-0.13,1.1-0.21c0-0.08,0-0.14,0-0.16c0-0.25-0.06-0.43-0.17-0.53
		c-0.16-0.14-0.39-0.21-0.7-0.21c-0.29,0-0.5,0.05-0.64,0.15c-0.14,0.1-0.24,0.28-0.31,0.54l-0.6-0.08
		c0.05-0.26,0.14-0.47,0.27-0.62s0.31-0.28,0.54-0.37c0.24-0.08,0.51-0.13,0.82-0.13c0.31,0,0.56,0.04,0.76,0.11
		s0.34,0.17,0.43,0.28s0.15,0.25,0.19,0.42c0.02,0.1,0.03,0.29,0.03,0.57V4c0,0.57,0.01,0.93,0.04,1.09
		c0.03,0.15,0.08,0.3,0.16,0.44h-0.64C79.29,5.39,79.25,5.24,79.23,5.07z M79.18,3.7c-0.22,0.09-0.56,0.17-1,0.23
		c-0.25,0.04-0.43,0.08-0.54,0.12c-0.1,0.05-0.19,0.11-0.24,0.2s-0.09,0.19-0.09,0.29c0,0.16,0.06,0.3,0.19,0.41
		c0.12,0.11,0.31,0.16,0.54,0.16c0.24,0,0.45-0.05,0.63-0.16s0.32-0.25,0.41-0.42c0.07-0.14,0.1-0.34,0.1-0.62V3.7z"/>
	<path class="st0" d="M80.75,5.52V1.89h0.55v0.55c0.14-0.26,0.27-0.43,0.39-0.51c0.12-0.08,0.25-0.12,0.4-0.12
		c0.21,0,0.42,0.07,0.63,0.2l-0.21,0.57c-0.15-0.09-0.3-0.13-0.45-0.13c-0.13,0-0.26,0.04-0.36,0.12s-0.18,0.19-0.23,0.34
		c-0.07,0.22-0.1,0.46-0.1,0.72v1.9H80.75z"/>
	<path class="st0" d="M82.87,5.52v-0.7h0.7v0.7H82.87z"/>
	<path class="st0" d="M84.64,5.52V1.89h0.55V2.4c0.11-0.18,0.27-0.32,0.45-0.43s0.4-0.16,0.65-0.16c0.27,0,0.49,0.06,0.66,0.17
		c0.17,0.11,0.29,0.27,0.36,0.47c0.29-0.42,0.66-0.64,1.12-0.64c0.36,0,0.64,0.1,0.83,0.3s0.29,0.51,0.29,0.92v2.49h-0.61V3.23
		c0-0.25-0.02-0.42-0.06-0.53c-0.04-0.11-0.11-0.2-0.22-0.26c-0.1-0.07-0.23-0.1-0.37-0.1c-0.26,0-0.47,0.08-0.64,0.25
		s-0.25,0.44-0.25,0.81v2.11H86.8V3.16c0-0.27-0.05-0.48-0.15-0.62s-0.26-0.21-0.49-0.21c-0.17,0-0.33,0.05-0.48,0.14
		c-0.15,0.09-0.25,0.22-0.32,0.4c-0.07,0.18-0.1,0.43-0.1,0.76v1.88H84.64z"/>
	<path class="st0" d="M90.06,5.52l1.33-1.89l-1.23-1.74h0.77l0.56,0.85c0.1,0.16,0.19,0.3,0.25,0.41c0.1-0.15,0.19-0.28,0.28-0.4
		l0.61-0.86h0.73L92.11,3.6l1.35,1.92h-0.76l-0.75-1.13l-0.2-0.3l-0.95,1.43H90.06z"/>
</g>
</svg>
