<?xml version="1.0" encoding="utf-8"?>
<!-- Generator: Adobe Illustrator 25.4.1, SVG Export Plug-In . SVG Version: 6.00 Build 0)  -->
<svg version="1.1" id="Capa_1" xmlns="http://www.w3.org/2000/svg" xmlns:xlink="http://www.w3.org/1999/xlink" x="0px" y="0px"
	 viewBox="0 0 184 7" style="enable-background:new 0 0 184 7;" xml:space="preserve">
<style type="text/css">
	.st0{fill:#3F3E3E;}
</style>
<g>
	<path class="st0" d="M0.47,5.52V0.51h0.62v5.01H0.47z"/>
	<path class="st0" d="M2.21,5.52v-0.7h0.7v0.7H2.21z"/>
	<path class="st0" d="M4.55,5.52H3.98V0.51h0.62V2.3c0.26-0.33,0.59-0.49,1-0.49c0.22,0,0.43,0.04,0.63,0.13
		c0.2,0.09,0.36,0.22,0.49,0.38s0.23,0.36,0.3,0.59c0.07,0.23,0.11,0.48,0.11,0.74c0,0.62-0.15,1.1-0.46,1.44
		C6.36,5.43,5.99,5.6,5.56,5.6c-0.43,0-0.77-0.18-1.01-0.54V5.52z M4.54,3.68c0,0.43,0.06,0.75,0.18,0.94
		C4.91,4.94,5.18,5.1,5.51,5.1c0.27,0,0.5-0.12,0.7-0.35S6.5,4.16,6.5,3.7c0-0.47-0.09-0.82-0.28-1.05C6.03,2.43,5.8,2.31,5.53,2.31
		c-0.27,0-0.5,0.12-0.7,0.35S4.54,3.24,4.54,3.68z"/>
	<path class="st0" d="M10.24,5.07C10.02,5.27,9.8,5.4,9.59,5.48C9.38,5.56,9.15,5.6,8.91,5.6c-0.4,0-0.71-0.1-0.92-0.29
		c-0.21-0.2-0.32-0.44-0.32-0.75c0-0.18,0.04-0.34,0.12-0.49c0.08-0.15,0.19-0.26,0.32-0.35c0.13-0.09,0.28-0.16,0.44-0.2
		c0.12-0.03,0.3-0.06,0.55-0.09c0.5-0.06,0.86-0.13,1.1-0.21c0-0.08,0-0.14,0-0.16c0-0.25-0.06-0.43-0.17-0.53
		c-0.16-0.14-0.39-0.21-0.7-0.21c-0.29,0-0.5,0.05-0.64,0.15S8.44,2.75,8.38,3.01l-0.6-0.08C7.83,2.67,7.92,2.46,8.04,2.3
		s0.31-0.28,0.54-0.37C8.82,1.85,9.1,1.81,9.41,1.81c0.31,0,0.56,0.04,0.76,0.11c0.19,0.07,0.34,0.17,0.43,0.28s0.16,0.25,0.19,0.42
		c0.02,0.1,0.03,0.29,0.03,0.57V4c0,0.57,0.01,0.93,0.04,1.09s0.08,0.3,0.16,0.44h-0.64C10.3,5.39,10.26,5.24,10.24,5.07z
		 M10.19,3.7C9.97,3.79,9.63,3.87,9.19,3.93C8.94,3.97,8.76,4.01,8.65,4.05c-0.1,0.05-0.19,0.11-0.24,0.2
		C8.35,4.34,8.32,4.44,8.32,4.54c0,0.16,0.06,0.3,0.19,0.41c0.12,0.11,0.31,0.16,0.54,0.16c0.24,0,0.45-0.05,0.63-0.16
		c0.18-0.1,0.32-0.25,0.41-0.42c0.07-0.14,0.1-0.34,0.1-0.62V3.7z"/>
	<path class="st0" d="M14.14,5.07c-0.23,0.19-0.45,0.33-0.66,0.41C13.27,5.56,13.04,5.6,12.8,5.6c-0.4,0-0.71-0.1-0.92-0.29
		c-0.21-0.2-0.32-0.44-0.32-0.75c0-0.18,0.04-0.34,0.12-0.49c0.08-0.15,0.19-0.26,0.32-0.35c0.13-0.09,0.28-0.16,0.44-0.2
		c0.12-0.03,0.3-0.06,0.55-0.09c0.5-0.06,0.86-0.13,1.1-0.21c0-0.08,0-0.14,0-0.16c0-0.25-0.06-0.43-0.17-0.53
		c-0.16-0.14-0.39-0.21-0.7-0.21c-0.29,0-0.5,0.05-0.64,0.15c-0.14,0.1-0.24,0.28-0.31,0.54l-0.6-0.08
		c0.05-0.26,0.14-0.47,0.27-0.62c0.13-0.16,0.31-0.28,0.54-0.37c0.24-0.08,0.51-0.13,0.82-0.13c0.31,0,0.56,0.04,0.76,0.11
		s0.34,0.17,0.43,0.28c0.09,0.11,0.15,0.25,0.19,0.42c0.02,0.1,0.03,0.29,0.03,0.57V4c0,0.57,0.01,0.93,0.04,1.09
		c0.03,0.15,0.08,0.3,0.15,0.44h-0.64C14.2,5.39,14.16,5.24,14.14,5.07z M14.09,3.7c-0.22,0.09-0.56,0.17-1,0.23
		c-0.25,0.04-0.43,0.08-0.54,0.12c-0.11,0.05-0.19,0.11-0.24,0.2s-0.08,0.19-0.08,0.29c0,0.16,0.06,0.3,0.19,0.41
		c0.12,0.11,0.31,0.16,0.54,0.16c0.24,0,0.45-0.05,0.63-0.16s0.32-0.25,0.41-0.42c0.07-0.14,0.1-0.34,0.1-0.62V3.7z"/>
	<path class="st0" d="M15.42,4.44l0.61-0.1c0.04,0.24,0.13,0.43,0.29,0.56c0.16,0.13,0.37,0.2,0.65,0.2c0.28,0,0.49-0.06,0.63-0.17
		s0.21-0.25,0.21-0.41c0-0.14-0.06-0.25-0.18-0.33c-0.08-0.05-0.29-0.12-0.63-0.21c-0.45-0.11-0.76-0.21-0.94-0.3
		c-0.17-0.08-0.31-0.2-0.4-0.34c-0.09-0.15-0.14-0.31-0.14-0.49c0-0.16,0.04-0.31,0.11-0.45s0.18-0.25,0.3-0.34
		c0.1-0.07,0.23-0.13,0.39-0.18s0.34-0.07,0.53-0.07c0.28,0,0.54,0.04,0.75,0.12c0.22,0.08,0.37,0.19,0.48,0.33
		c0.1,0.14,0.17,0.33,0.21,0.56l-0.6,0.08c-0.03-0.19-0.11-0.33-0.24-0.44c-0.13-0.1-0.32-0.16-0.56-0.16
		c-0.28,0-0.48,0.05-0.6,0.14c-0.12,0.09-0.18,0.2-0.18,0.33c0,0.08,0.02,0.15,0.07,0.22c0.05,0.07,0.13,0.12,0.24,0.16
		c0.06,0.02,0.24,0.08,0.54,0.16c0.44,0.12,0.74,0.21,0.91,0.29c0.17,0.07,0.31,0.18,0.41,0.32c0.1,0.14,0.15,0.32,0.15,0.53
		c0,0.21-0.06,0.4-0.18,0.58c-0.12,0.18-0.29,0.32-0.52,0.42c-0.22,0.1-0.48,0.15-0.77,0.15c-0.47,0-0.83-0.1-1.08-0.29
		C15.64,5.11,15.48,4.82,15.42,4.44z"/>
	<path class="st0" d="M22.67,4.96c-0.15,0.17-0.31,0.31-0.5,0.41c-0.18,0.1-0.37,0.16-0.55,0.16c-0.2,0-0.4-0.06-0.59-0.18
		c-0.19-0.12-0.35-0.3-0.47-0.55c-0.12-0.25-0.18-0.52-0.18-0.81c0-0.36,0.09-0.73,0.28-1.09s0.42-0.64,0.69-0.82
		s0.54-0.27,0.8-0.27c0.2,0,0.39,0.05,0.57,0.16c0.18,0.1,0.34,0.26,0.46,0.47l0.12-0.53h0.61l-0.49,2.29
		c-0.07,0.32-0.1,0.5-0.1,0.53c0,0.06,0.02,0.12,0.07,0.16c0.05,0.04,0.1,0.07,0.17,0.07c0.12,0,0.28-0.07,0.47-0.21
		c0.26-0.18,0.47-0.43,0.62-0.73c0.15-0.31,0.23-0.62,0.23-0.95c0-0.38-0.1-0.74-0.29-1.07c-0.2-0.33-0.49-0.59-0.87-0.79
		c-0.39-0.2-0.81-0.3-1.28-0.3c-0.53,0-1.02,0.12-1.46,0.37c-0.44,0.25-0.78,0.61-1.03,1.07c-0.24,0.47-0.36,0.96-0.36,1.5
		c0,0.56,0.12,1.04,0.36,1.44c0.24,0.4,0.59,0.7,1.05,0.89s0.97,0.29,1.53,0.29c0.6,0,1.1-0.1,1.5-0.3c0.4-0.2,0.71-0.44,0.91-0.73
		h0.62c-0.12,0.24-0.31,0.48-0.6,0.73c-0.28,0.25-0.62,0.45-1.01,0.59c-0.39,0.14-0.86,0.22-1.41,0.22c-0.51,0-0.97-0.06-1.4-0.19
		c-0.43-0.13-0.79-0.33-1.09-0.59s-0.53-0.56-0.68-0.9c-0.19-0.43-0.29-0.89-0.29-1.39c0-0.56,0.11-1.08,0.34-1.59
		c0.28-0.62,0.67-1.09,1.18-1.42s1.13-0.49,1.86-0.49c0.56,0,1.07,0.12,1.52,0.35s0.81,0.58,1.07,1.03
		c0.22,0.39,0.33,0.82,0.33,1.29c0,0.66-0.23,1.25-0.7,1.76c-0.42,0.46-0.87,0.69-1.36,0.69c-0.16,0-0.28-0.02-0.38-0.07
		c-0.1-0.05-0.17-0.12-0.21-0.21C22.7,5.2,22.68,5.1,22.67,4.96z M21.01,4.04c0,0.31,0.07,0.55,0.22,0.73
		c0.15,0.17,0.32,0.26,0.51,0.26c0.13,0,0.26-0.04,0.4-0.11c0.14-0.08,0.28-0.19,0.41-0.34c0.13-0.15,0.23-0.34,0.32-0.57
		c0.08-0.23,0.12-0.46,0.12-0.7c0-0.31-0.08-0.55-0.23-0.72c-0.15-0.17-0.34-0.26-0.56-0.26c-0.15,0-0.28,0.04-0.41,0.11
		c-0.13,0.07-0.25,0.19-0.37,0.36s-0.22,0.36-0.29,0.6C21.05,3.62,21.01,3.84,21.01,4.04z"/>
	<path class="st0" d="M26.15,5.82l0.6,0.09c0.02,0.18,0.09,0.32,0.21,0.4c0.15,0.11,0.36,0.17,0.63,0.17c0.28,0,0.5-0.06,0.66-0.17
		c0.16-0.11,0.26-0.27,0.31-0.48c0.03-0.12,0.05-0.39,0.04-0.79c-0.27,0.32-0.6,0.47-1,0.47c-0.5,0-0.89-0.18-1.16-0.54
		s-0.41-0.79-0.41-1.3c0-0.35,0.06-0.67,0.19-0.96s0.31-0.52,0.55-0.68C27,1.89,27.28,1.81,27.6,1.81c0.43,0,0.78,0.17,1.06,0.52
		V1.89h0.57v3.14c0,0.57-0.06,0.97-0.17,1.2c-0.12,0.24-0.3,0.42-0.55,0.56s-0.56,0.21-0.92,0.21c-0.43,0-0.78-0.1-1.05-0.29
		C26.27,6.51,26.15,6.21,26.15,5.82z M26.66,3.64c0,0.48,0.09,0.82,0.28,1.04c0.19,0.22,0.43,0.33,0.71,0.33
		c0.28,0,0.52-0.11,0.71-0.33s0.29-0.56,0.29-1.02c0-0.44-0.1-0.78-0.29-1s-0.44-0.34-0.71-0.34c-0.27,0-0.51,0.11-0.7,0.33
		C26.76,2.87,26.66,3.2,26.66,3.64z"/>
	<path class="st0" d="M32.53,5.07c-0.23,0.19-0.45,0.33-0.66,0.41c-0.21,0.08-0.44,0.12-0.68,0.12c-0.4,0-0.71-0.1-0.92-0.29
		c-0.21-0.2-0.32-0.44-0.32-0.75c0-0.18,0.04-0.34,0.12-0.49c0.08-0.15,0.19-0.26,0.32-0.35c0.13-0.09,0.28-0.16,0.44-0.2
		c0.12-0.03,0.3-0.06,0.55-0.09c0.5-0.06,0.86-0.13,1.1-0.21c0-0.08,0-0.14,0-0.16c0-0.25-0.06-0.43-0.17-0.53
		c-0.16-0.14-0.39-0.21-0.7-0.21c-0.29,0-0.5,0.05-0.64,0.15s-0.24,0.28-0.31,0.54l-0.6-0.08c0.05-0.26,0.14-0.47,0.27-0.62
		s0.31-0.28,0.54-0.37c0.24-0.08,0.51-0.13,0.82-0.13c0.31,0,0.56,0.04,0.76,0.11c0.19,0.07,0.34,0.17,0.43,0.28
		s0.16,0.25,0.19,0.42c0.02,0.1,0.03,0.29,0.03,0.57V4c0,0.57,0.01,0.93,0.04,1.09s0.08,0.3,0.16,0.44h-0.64
		C32.59,5.39,32.55,5.24,32.53,5.07z M32.48,3.7c-0.22,0.09-0.56,0.17-1.01,0.23c-0.25,0.04-0.43,0.08-0.54,0.12
		c-0.1,0.05-0.19,0.11-0.24,0.2c-0.06,0.09-0.08,0.19-0.08,0.29c0,0.16,0.06,0.3,0.19,0.41c0.12,0.11,0.31,0.16,0.54,0.16
		c0.24,0,0.45-0.05,0.63-0.16c0.18-0.1,0.32-0.25,0.41-0.42c0.07-0.14,0.1-0.34,0.1-0.62V3.7z"/>
	<path class="st0" d="M34.62,5.52h-0.57V0.51h0.62V2.3c0.26-0.33,0.59-0.49,0.99-0.49c0.22,0,0.43,0.04,0.63,0.13
		c0.2,0.09,0.36,0.22,0.49,0.38c0.13,0.16,0.23,0.36,0.3,0.59c0.07,0.23,0.11,0.48,0.11,0.74c0,0.62-0.15,1.1-0.46,1.44
		c-0.31,0.34-0.68,0.51-1.11,0.51c-0.43,0-0.76-0.18-1.01-0.54V5.52z M34.61,3.68c0,0.43,0.06,0.75,0.18,0.94
		c0.19,0.32,0.46,0.47,0.79,0.47c0.27,0,0.5-0.12,0.7-0.35s0.29-0.58,0.29-1.04c0-0.47-0.09-0.82-0.28-1.05
		c-0.19-0.23-0.42-0.34-0.68-0.34c-0.27,0-0.5,0.12-0.7,0.35S34.61,3.24,34.61,3.68z"/>
	<path class="st0" d="M40.32,5.07c-0.23,0.19-0.45,0.33-0.66,0.41c-0.21,0.08-0.44,0.12-0.68,0.12c-0.4,0-0.71-0.1-0.92-0.29
		c-0.21-0.2-0.32-0.44-0.32-0.75c0-0.18,0.04-0.34,0.12-0.49c0.08-0.15,0.19-0.26,0.32-0.35s0.28-0.16,0.44-0.2
		c0.12-0.03,0.3-0.06,0.55-0.09c0.5-0.06,0.86-0.13,1.1-0.21c0-0.08,0-0.14,0-0.16c0-0.25-0.06-0.43-0.17-0.53
		c-0.16-0.14-0.39-0.21-0.7-0.21c-0.29,0-0.5,0.05-0.64,0.15c-0.14,0.1-0.24,0.28-0.31,0.54l-0.6-0.08
		c0.05-0.26,0.14-0.47,0.27-0.62s0.31-0.28,0.54-0.37c0.24-0.08,0.51-0.13,0.82-0.13c0.31,0,0.56,0.04,0.75,0.11
		c0.19,0.07,0.34,0.17,0.43,0.28s0.15,0.25,0.19,0.42c0.02,0.1,0.03,0.29,0.03,0.57V4c0,0.57,0.01,0.93,0.04,1.09
		c0.03,0.15,0.08,0.3,0.16,0.44h-0.64C40.38,5.39,40.33,5.24,40.32,5.07z M40.26,3.7c-0.22,0.09-0.56,0.17-1,0.23
		c-0.25,0.04-0.43,0.08-0.54,0.12c-0.11,0.05-0.19,0.11-0.24,0.2c-0.06,0.09-0.09,0.19-0.09,0.29c0,0.16,0.06,0.3,0.19,0.41
		s0.31,0.16,0.54,0.16c0.24,0,0.45-0.05,0.63-0.16c0.19-0.1,0.32-0.25,0.41-0.42c0.07-0.14,0.1-0.34,0.1-0.62V3.7z"/>
	<path class="st0" d="M41.83,5.52V1.89h0.55v0.55c0.14-0.26,0.27-0.43,0.39-0.51c0.12-0.08,0.25-0.12,0.4-0.12
		c0.21,0,0.42,0.07,0.63,0.2l-0.21,0.57c-0.15-0.09-0.3-0.13-0.45-0.13c-0.13,0-0.26,0.04-0.36,0.12c-0.11,0.08-0.18,0.19-0.23,0.34
		c-0.07,0.22-0.1,0.46-0.1,0.72v1.9H41.83z"/>
	<path class="st0" d="M43.96,5.52v-0.7h0.7v0.7H43.96z"/>
	<path class="st0" d="M45.73,5.52V1.89h0.55V2.4c0.11-0.18,0.27-0.32,0.46-0.43c0.19-0.11,0.4-0.16,0.65-0.16
		c0.27,0,0.49,0.06,0.66,0.17c0.17,0.11,0.29,0.27,0.37,0.47c0.29-0.42,0.66-0.64,1.12-0.64c0.36,0,0.64,0.1,0.83,0.3
		s0.29,0.51,0.29,0.92v2.49h-0.61V3.23c0-0.25-0.02-0.42-0.06-0.53c-0.04-0.11-0.11-0.2-0.22-0.26c-0.11-0.07-0.23-0.1-0.37-0.1
		c-0.26,0-0.47,0.08-0.64,0.25c-0.17,0.17-0.25,0.44-0.25,0.81v2.11h-0.62V3.16c0-0.27-0.05-0.48-0.15-0.62
		c-0.1-0.14-0.26-0.21-0.49-0.21c-0.17,0-0.33,0.05-0.48,0.14s-0.25,0.22-0.32,0.4c-0.07,0.18-0.1,0.43-0.1,0.76v1.88H45.73z"/>
	<path class="st0" d="M51.15,5.52l1.33-1.89l-1.23-1.74h0.77l0.56,0.85c0.1,0.16,0.19,0.3,0.25,0.41c0.1-0.15,0.19-0.28,0.28-0.4
		l0.61-0.86h0.74L53.2,3.6l1.35,1.92h-0.75l-0.75-1.13l-0.2-0.3L51.9,5.52H51.15z"/>
</g>
</svg>
