<?xml version="1.0" encoding="utf-8"?>
<!-- Generator: Adobe Illustrator 25.4.1, SVG Export Plug-In . SVG Version: 6.00 Build 0)  -->
<svg version="1.1" id="Capa_1" xmlns="http://www.w3.org/2000/svg" xmlns:xlink="http://www.w3.org/1999/xlink" x="0px" y="0px"
	 viewBox="0 0 184 7" style="enable-background:new 0 0 184 7;" xml:space="preserve">
<style type="text/css">
	.st0{fill:#3F3E3E;}
</style>
<g>
	<path class="st0" d="M2.85,5.07C2.62,5.27,2.4,5.4,2.19,5.48C1.98,5.56,1.76,5.6,1.51,5.6c-0.4,0-0.71-0.1-0.92-0.29
		c-0.21-0.2-0.32-0.44-0.32-0.75c0-0.18,0.04-0.34,0.12-0.49c0.08-0.15,0.19-0.26,0.32-0.35s0.28-0.16,0.44-0.2
		c0.12-0.03,0.3-0.06,0.55-0.09C2.2,3.37,2.56,3.3,2.8,3.22c0-0.08,0-0.14,0-0.16c0-0.25-0.06-0.43-0.17-0.53
		c-0.16-0.14-0.39-0.21-0.7-0.21c-0.29,0-0.5,0.05-0.64,0.15c-0.14,0.1-0.24,0.28-0.31,0.54l-0.6-0.08C0.43,2.67,0.52,2.46,0.65,2.3
		c0.12-0.16,0.31-0.28,0.54-0.37c0.24-0.08,0.51-0.13,0.82-0.13c0.31,0,0.56,0.04,0.75,0.11S3.11,2.08,3.2,2.19
		C3.29,2.3,3.35,2.44,3.39,2.61c0.02,0.1,0.03,0.29,0.03,0.57V4c0,0.57,0.01,0.93,0.04,1.09c0.03,0.15,0.08,0.3,0.16,0.44H2.97
		C2.91,5.39,2.87,5.24,2.85,5.07z M2.8,3.7c-0.22,0.09-0.56,0.17-1,0.23C1.54,3.97,1.36,4.01,1.26,4.05
		c-0.1,0.05-0.19,0.11-0.24,0.2S0.93,4.44,0.93,4.54c0,0.16,0.06,0.3,0.19,0.41c0.12,0.11,0.3,0.16,0.54,0.16
		c0.24,0,0.45-0.05,0.63-0.16S2.61,4.72,2.7,4.54C2.77,4.4,2.8,4.19,2.8,3.92V3.7z"/>
	<path class="st0" d="M4.55,5.52v-0.7h0.7v0.7H4.55z"/>
	<path class="st0" d="M5.54,6.93L5.65,6.4c0.12,0.03,0.22,0.05,0.29,0.05c0.13,0,0.22-0.04,0.28-0.12S6.32,6.04,6.32,5.7V1.89h0.62
		v3.83c0,0.45-0.06,0.76-0.17,0.93C6.61,6.88,6.36,6.99,6.02,6.99C5.85,6.99,5.69,6.97,5.54,6.93z M6.32,1.22V0.51h0.62v0.71H6.32z"
		/>
	<path class="st0" d="M10.25,5.52V4.99C9.97,5.4,9.59,5.6,9.1,5.6c-0.21,0-0.41-0.04-0.6-0.12C8.32,5.4,8.18,5.29,8.09,5.17
		C8,5.04,7.94,4.89,7.9,4.71C7.88,4.59,7.86,4.4,7.86,4.14V1.89h0.62V3.9c0,0.32,0.01,0.54,0.04,0.65c0.04,0.16,0.12,0.29,0.25,0.38
		c0.13,0.09,0.28,0.14,0.46,0.14s0.36-0.05,0.52-0.14s0.28-0.22,0.34-0.39s0.1-0.4,0.1-0.71V1.89h0.62v3.63H10.25z"/>
	<path class="st0" d="M14.14,5.07c-0.23,0.19-0.45,0.33-0.66,0.41C13.27,5.56,13.04,5.6,12.8,5.6c-0.4,0-0.71-0.1-0.92-0.29
		c-0.21-0.2-0.32-0.44-0.32-0.75c0-0.18,0.04-0.34,0.12-0.49c0.08-0.15,0.19-0.26,0.32-0.35c0.13-0.09,0.28-0.16,0.44-0.2
		c0.12-0.03,0.3-0.06,0.55-0.09c0.5-0.06,0.86-0.13,1.1-0.21c0-0.08,0-0.14,0-0.16c0-0.25-0.06-0.43-0.17-0.53
		c-0.16-0.14-0.39-0.21-0.7-0.21c-0.29,0-0.5,0.05-0.64,0.15c-0.14,0.1-0.24,0.28-0.31,0.54l-0.6-0.08
		c0.05-0.26,0.14-0.47,0.27-0.62c0.13-0.16,0.31-0.28,0.54-0.37c0.24-0.08,0.51-0.13,0.82-0.13c0.31,0,0.56,0.04,0.76,0.11
		s0.34,0.17,0.43,0.28c0.09,0.11,0.15,0.25,0.19,0.42c0.02,0.1,0.03,0.29,0.03,0.57V4c0,0.57,0.01,0.93,0.04,1.09
		c0.03,0.15,0.08,0.3,0.15,0.44h-0.64C14.2,5.39,14.16,5.24,14.14,5.07z M14.09,3.7c-0.22,0.09-0.56,0.17-1,0.23
		c-0.25,0.04-0.43,0.08-0.54,0.12c-0.11,0.05-0.19,0.11-0.24,0.2s-0.08,0.19-0.08,0.29c0,0.16,0.06,0.3,0.19,0.41
		c0.12,0.11,0.31,0.16,0.54,0.16c0.24,0,0.45-0.05,0.63-0.16s0.32-0.25,0.41-0.42c0.07-0.14,0.1-0.34,0.1-0.62V3.7z"/>
	<path class="st0" d="M15.65,5.52V1.89h0.55v0.55c0.14-0.26,0.27-0.43,0.39-0.51c0.12-0.08,0.25-0.12,0.39-0.12
		c0.21,0,0.42,0.07,0.63,0.2l-0.21,0.57c-0.15-0.09-0.3-0.13-0.45-0.13c-0.13,0-0.25,0.04-0.36,0.12s-0.18,0.19-0.23,0.34
		c-0.07,0.22-0.1,0.46-0.1,0.72v1.9H15.65z"/>
	<path class="st0" d="M20.48,4.35l0.64,0.08c-0.1,0.37-0.29,0.66-0.56,0.86C20.29,5.5,19.94,5.6,19.52,5.6
		c-0.53,0-0.95-0.16-1.26-0.49c-0.31-0.33-0.47-0.79-0.47-1.38c0-0.61,0.16-1.08,0.47-1.42s0.72-0.51,1.22-0.51
		c0.49,0,0.88,0.17,1.19,0.5c0.31,0.33,0.46,0.8,0.46,1.39c0,0.04,0,0.09,0,0.16h-2.71c0.02,0.4,0.13,0.71,0.34,0.92
		c0.2,0.21,0.46,0.32,0.76,0.32c0.23,0,0.42-0.06,0.58-0.18C20.26,4.8,20.38,4.61,20.48,4.35z M18.46,3.36h2.03
		c-0.03-0.3-0.11-0.53-0.23-0.69c-0.2-0.24-0.45-0.36-0.76-0.36c-0.28,0-0.52,0.09-0.71,0.28C18.58,2.79,18.48,3.04,18.46,3.36z"/>
	<path class="st0" d="M21.56,5.52v-0.5l2.31-2.65c-0.26,0.01-0.49,0.02-0.69,0.02H21.7v-0.5h2.97V2.3L22.7,4.6l-0.38,0.42
		C22.6,5,22.85,4.99,23.1,4.99h1.68v0.53H21.56z"/>
	<path class="st0" d="M28.89,4.96c-0.15,0.17-0.31,0.31-0.5,0.41c-0.18,0.1-0.37,0.16-0.55,0.16c-0.2,0-0.4-0.06-0.59-0.18
		c-0.19-0.12-0.35-0.3-0.47-0.55s-0.18-0.52-0.18-0.81c0-0.36,0.09-0.73,0.28-1.09s0.42-0.64,0.69-0.82
		c0.28-0.18,0.54-0.27,0.8-0.27c0.2,0,0.39,0.05,0.57,0.16s0.33,0.26,0.46,0.47l0.12-0.53h0.61l-0.49,2.29
		c-0.07,0.32-0.1,0.5-0.1,0.53c0,0.06,0.02,0.12,0.07,0.16c0.05,0.04,0.1,0.07,0.17,0.07c0.12,0,0.28-0.07,0.47-0.21
		c0.26-0.18,0.46-0.43,0.62-0.73c0.15-0.31,0.23-0.62,0.23-0.95c0-0.38-0.1-0.74-0.29-1.07c-0.2-0.33-0.49-0.59-0.87-0.79
		c-0.38-0.2-0.81-0.3-1.28-0.3c-0.53,0-1.02,0.12-1.46,0.37c-0.44,0.25-0.78,0.61-1.03,1.07s-0.36,0.96-0.36,1.5
		c0,0.56,0.12,1.04,0.36,1.44c0.24,0.4,0.59,0.7,1.05,0.89s0.97,0.29,1.53,0.29c0.6,0,1.1-0.1,1.5-0.3c0.4-0.2,0.71-0.44,0.91-0.73
		h0.62c-0.12,0.24-0.32,0.48-0.6,0.73c-0.28,0.25-0.62,0.45-1.01,0.59s-0.86,0.22-1.41,0.22c-0.51,0-0.97-0.06-1.4-0.19
		s-0.79-0.33-1.09-0.59s-0.53-0.56-0.68-0.9C25.4,4.88,25.3,4.42,25.3,3.92c0-0.56,0.11-1.08,0.34-1.59
		c0.28-0.62,0.67-1.09,1.18-1.42s1.13-0.49,1.86-0.49c0.56,0,1.07,0.12,1.52,0.35c0.45,0.23,0.81,0.58,1.07,1.03
		c0.22,0.39,0.33,0.82,0.33,1.29c0,0.66-0.23,1.25-0.7,1.76c-0.41,0.46-0.87,0.69-1.36,0.69c-0.16,0-0.29-0.02-0.38-0.07
		c-0.1-0.05-0.17-0.12-0.21-0.21C28.93,5.2,28.91,5.1,28.89,4.96z M27.24,4.04c0,0.31,0.07,0.55,0.22,0.73
		c0.15,0.17,0.32,0.26,0.51,0.26c0.13,0,0.26-0.04,0.4-0.11s0.28-0.19,0.4-0.34c0.13-0.15,0.23-0.34,0.32-0.57
		c0.08-0.23,0.12-0.46,0.12-0.7c0-0.31-0.08-0.55-0.23-0.72s-0.34-0.26-0.56-0.26c-0.15,0-0.28,0.04-0.41,0.11
		c-0.13,0.07-0.25,0.19-0.37,0.36c-0.12,0.16-0.22,0.36-0.29,0.6C27.28,3.62,27.24,3.84,27.24,4.04z"/>
	<path class="st0" d="M32.38,5.82l0.6,0.09c0.03,0.18,0.1,0.32,0.21,0.4c0.15,0.11,0.36,0.17,0.62,0.17c0.29,0,0.51-0.06,0.66-0.17
		s0.26-0.27,0.31-0.48c0.03-0.12,0.05-0.39,0.04-0.79c-0.27,0.32-0.6,0.47-1.01,0.47c-0.5,0-0.88-0.18-1.16-0.54
		s-0.41-0.79-0.41-1.3c0-0.35,0.06-0.67,0.19-0.96c0.13-0.29,0.31-0.52,0.55-0.68c0.24-0.16,0.52-0.24,0.84-0.24
		c0.43,0,0.78,0.17,1.06,0.52V1.89h0.57v3.14c0,0.57-0.06,0.97-0.17,1.2c-0.11,0.24-0.3,0.42-0.55,0.56
		c-0.25,0.14-0.56,0.21-0.92,0.21c-0.43,0-0.78-0.1-1.05-0.29C32.5,6.51,32.37,6.21,32.38,5.82z M32.89,3.64
		c0,0.48,0.09,0.82,0.28,1.04s0.43,0.33,0.71,0.33c0.28,0,0.52-0.11,0.71-0.33s0.29-0.56,0.29-1.02c0-0.44-0.1-0.78-0.3-1
		c-0.2-0.23-0.43-0.34-0.71-0.34c-0.27,0-0.51,0.11-0.7,0.33C32.98,2.87,32.89,3.2,32.89,3.64z"/>
	<path class="st0" d="M38.75,5.07c-0.23,0.19-0.45,0.33-0.66,0.41c-0.21,0.08-0.44,0.12-0.68,0.12c-0.4,0-0.71-0.1-0.92-0.29
		c-0.21-0.2-0.32-0.44-0.32-0.75c0-0.18,0.04-0.34,0.12-0.49c0.08-0.15,0.19-0.26,0.32-0.35s0.28-0.16,0.44-0.2
		c0.12-0.03,0.3-0.06,0.55-0.09c0.5-0.06,0.86-0.13,1.1-0.21c0-0.08,0-0.14,0-0.16c0-0.25-0.06-0.43-0.17-0.53
		c-0.16-0.14-0.39-0.21-0.7-0.21c-0.29,0-0.5,0.05-0.64,0.15c-0.14,0.1-0.24,0.28-0.31,0.54l-0.6-0.08
		c0.05-0.26,0.14-0.47,0.27-0.62c0.12-0.16,0.31-0.28,0.54-0.37c0.24-0.08,0.51-0.13,0.82-0.13c0.31,0,0.56,0.04,0.75,0.11
		s0.34,0.17,0.43,0.28c0.09,0.11,0.16,0.25,0.19,0.42c0.02,0.1,0.03,0.29,0.03,0.57V4c0,0.57,0.01,0.93,0.04,1.09
		c0.03,0.15,0.08,0.3,0.16,0.44h-0.64C38.81,5.39,38.77,5.24,38.75,5.07z M38.7,3.7c-0.22,0.09-0.56,0.17-1,0.23
		c-0.25,0.04-0.43,0.08-0.54,0.12c-0.1,0.05-0.19,0.11-0.24,0.2s-0.09,0.19-0.09,0.29c0,0.16,0.06,0.3,0.19,0.41
		c0.12,0.11,0.3,0.16,0.54,0.16c0.24,0,0.45-0.05,0.63-0.16s0.32-0.25,0.41-0.42c0.07-0.14,0.1-0.34,0.1-0.62V3.7z"/>
	<path class="st0" d="M40.85,5.52h-0.57V0.51h0.62V2.3c0.26-0.33,0.59-0.49,1-0.49c0.22,0,0.43,0.04,0.63,0.13
		c0.2,0.09,0.36,0.22,0.49,0.38c0.13,0.16,0.23,0.36,0.3,0.59c0.07,0.23,0.11,0.48,0.11,0.74c0,0.62-0.15,1.1-0.46,1.44
		c-0.31,0.34-0.68,0.51-1.11,0.51c-0.43,0-0.76-0.18-1.01-0.54V5.52z M40.84,3.68c0,0.43,0.06,0.75,0.18,0.94
		c0.19,0.32,0.46,0.47,0.79,0.47c0.27,0,0.5-0.12,0.7-0.35c0.2-0.23,0.29-0.58,0.29-1.04c0-0.47-0.09-0.82-0.28-1.05
		c-0.19-0.23-0.42-0.34-0.68-0.34c-0.27,0-0.5,0.12-0.7,0.35C40.94,2.9,40.84,3.24,40.84,3.68z"/>
	<path class="st0" d="M46.54,5.07c-0.23,0.19-0.45,0.33-0.66,0.41C45.67,5.56,45.45,5.6,45.2,5.6c-0.4,0-0.71-0.1-0.92-0.29
		c-0.21-0.2-0.32-0.44-0.32-0.75c0-0.18,0.04-0.34,0.12-0.49c0.08-0.15,0.19-0.26,0.32-0.35c0.13-0.09,0.28-0.16,0.44-0.2
		c0.12-0.03,0.3-0.06,0.55-0.09c0.5-0.06,0.86-0.13,1.1-0.21c0-0.08,0-0.14,0-0.16c0-0.25-0.06-0.43-0.17-0.53
		c-0.16-0.14-0.39-0.21-0.7-0.21c-0.29,0-0.5,0.05-0.64,0.15c-0.14,0.1-0.24,0.28-0.31,0.54l-0.6-0.08
		c0.05-0.26,0.14-0.47,0.27-0.62c0.13-0.16,0.31-0.28,0.54-0.37c0.24-0.08,0.51-0.13,0.82-0.13c0.31,0,0.56,0.04,0.76,0.11
		s0.34,0.17,0.43,0.28c0.09,0.11,0.15,0.25,0.19,0.42c0.02,0.1,0.03,0.29,0.03,0.57V4c0,0.57,0.01,0.93,0.04,1.09
		c0.03,0.15,0.08,0.3,0.15,0.44h-0.64C46.6,5.39,46.56,5.24,46.54,5.07z M46.49,3.7c-0.22,0.09-0.56,0.17-1,0.23
		c-0.25,0.04-0.43,0.08-0.54,0.12c-0.11,0.05-0.19,0.11-0.24,0.2s-0.08,0.19-0.08,0.29c0,0.16,0.06,0.3,0.19,0.41
		c0.12,0.11,0.31,0.16,0.54,0.16c0.24,0,0.45-0.05,0.63-0.16s0.32-0.25,0.41-0.42c0.07-0.14,0.1-0.34,0.1-0.62V3.7z"/>
	<path class="st0" d="M48.06,5.52V1.89h0.55v0.55c0.14-0.26,0.27-0.43,0.39-0.51c0.12-0.08,0.25-0.12,0.39-0.12
		c0.21,0,0.42,0.07,0.63,0.2l-0.21,0.57c-0.15-0.09-0.3-0.13-0.45-0.13c-0.13,0-0.25,0.04-0.36,0.12s-0.18,0.19-0.23,0.34
		c-0.07,0.22-0.1,0.46-0.1,0.72v1.9H48.06z"/>
	<path class="st0" d="M50.18,5.52v-0.7h0.7v0.7H50.18z"/>
	<path class="st0" d="M51.95,5.52V1.89h0.55V2.4c0.11-0.18,0.27-0.32,0.46-0.43c0.19-0.11,0.4-0.16,0.65-0.16
		c0.27,0,0.49,0.06,0.66,0.17c0.17,0.11,0.29,0.27,0.36,0.47c0.29-0.42,0.66-0.64,1.12-0.64c0.36,0,0.64,0.1,0.83,0.3
		c0.19,0.2,0.29,0.51,0.29,0.92v2.49h-0.61V3.23c0-0.25-0.02-0.42-0.06-0.53s-0.11-0.2-0.22-0.26c-0.1-0.07-0.23-0.1-0.37-0.1
		c-0.25,0-0.47,0.08-0.64,0.25s-0.25,0.44-0.25,0.81v2.11h-0.62V3.16c0-0.27-0.05-0.48-0.15-0.62s-0.26-0.21-0.49-0.21
		c-0.17,0-0.33,0.05-0.48,0.14c-0.15,0.09-0.25,0.22-0.32,0.4c-0.07,0.18-0.1,0.43-0.1,0.76v1.88H51.95z"/>
	<path class="st0" d="M57.38,5.52l1.33-1.89l-1.23-1.74h0.77l0.56,0.85c0.1,0.16,0.19,0.3,0.25,0.41c0.1-0.15,0.19-0.28,0.28-0.4
		l0.61-0.86h0.73L59.42,3.6l1.35,1.92h-0.75l-0.75-1.13l-0.2-0.3l-0.95,1.43H57.38z"/>
</g>
</svg>
