<?xml version="1.0" encoding="utf-8"?>
<!-- Generator: Adobe Illustrator 25.4.1, SVG Export Plug-In . SVG Version: 6.00 Build 0)  -->
<svg version="1.1" id="Capa_1" xmlns="http://www.w3.org/2000/svg" xmlns:xlink="http://www.w3.org/1999/xlink" x="0px" y="0px"
	 viewBox="0 0 184 7" style="enable-background:new 0 0 184 7;" xml:space="preserve">
<style type="text/css">
	.st0{fill:#3F3E3E;}
</style>
<g>
	<path class="st0" d="M2.85,4.19l0.61,0.08C3.39,4.68,3.22,5.01,2.95,5.25c-0.27,0.24-0.61,0.35-1,0.35c-0.5,0-0.9-0.16-1.2-0.49
		c-0.3-0.32-0.45-0.79-0.45-1.4c0-0.39,0.07-0.73,0.2-1.03C0.62,2.4,0.82,2.18,1.08,2.03c0.26-0.15,0.55-0.22,0.87-0.22
		c0.39,0,0.72,0.1,0.97,0.3S3.33,2.59,3.4,2.96L2.8,3.05C2.74,2.8,2.64,2.62,2.5,2.5S2.18,2.31,1.97,2.31
		c-0.31,0-0.56,0.11-0.75,0.33C1.02,2.87,0.93,3.22,0.93,3.7c0,0.49,0.09,0.84,0.28,1.06C1.39,4.99,1.64,5.1,1.94,5.1
		c0.24,0,0.44-0.07,0.61-0.22C2.71,4.73,2.81,4.5,2.85,4.19z"/>
	<path class="st0" d="M4.16,5.52v-0.7h0.7v0.7H4.16z"/>
	<path class="st0" d="M8.31,5.52V4.99C8.02,5.4,7.64,5.6,7.15,5.6c-0.21,0-0.41-0.04-0.6-0.12C6.37,5.4,6.23,5.29,6.14,5.17
		C6.05,5.04,5.99,4.89,5.95,4.71C5.93,4.59,5.91,4.4,5.91,4.14V1.89h0.62V3.9c0,0.32,0.01,0.54,0.04,0.65
		C6.6,4.71,6.69,4.84,6.81,4.93s0.28,0.14,0.46,0.14S7.64,5.02,7.8,4.93c0.16-0.09,0.28-0.22,0.34-0.38c0.07-0.16,0.1-0.4,0.1-0.71
		V1.89h0.62v3.63H8.31z"/>
	<path class="st0" d="M9.82,1.22V0.51h0.62v0.71H9.82z M9.82,5.52V1.89h0.62v3.63H9.82z"/>
	<path class="st0" d="M13.74,4.19l0.6,0.08c-0.07,0.42-0.23,0.74-0.51,0.98s-0.61,0.35-1,0.35c-0.5,0-0.9-0.16-1.2-0.49
		s-0.45-0.79-0.45-1.4c0-0.39,0.07-0.73,0.19-1.03c0.13-0.29,0.33-0.51,0.59-0.66c0.27-0.15,0.55-0.22,0.87-0.22
		c0.39,0,0.72,0.1,0.97,0.3c0.25,0.2,0.41,0.48,0.48,0.85l-0.6,0.09c-0.06-0.24-0.16-0.43-0.3-0.55c-0.15-0.12-0.32-0.18-0.52-0.18
		c-0.31,0-0.56,0.11-0.76,0.33c-0.19,0.22-0.29,0.57-0.29,1.05c0,0.49,0.09,0.84,0.28,1.06c0.19,0.22,0.43,0.33,0.73,0.33
		c0.24,0,0.44-0.07,0.61-0.22C13.6,4.73,13.7,4.5,13.74,4.19z"/>
	<path class="st0" d="M17.24,5.07c-0.23,0.19-0.45,0.33-0.66,0.41c-0.21,0.08-0.44,0.12-0.68,0.12c-0.4,0-0.71-0.1-0.92-0.29
		c-0.21-0.2-0.32-0.45-0.32-0.75c0-0.18,0.04-0.34,0.12-0.49c0.08-0.15,0.19-0.27,0.32-0.35c0.13-0.09,0.28-0.16,0.44-0.2
		c0.12-0.03,0.3-0.06,0.55-0.09c0.5-0.06,0.86-0.13,1.1-0.21c0-0.08,0-0.14,0-0.16c0-0.25-0.06-0.43-0.17-0.53
		c-0.16-0.14-0.39-0.21-0.7-0.21c-0.29,0-0.5,0.05-0.64,0.15c-0.14,0.1-0.24,0.28-0.31,0.54l-0.6-0.08
		c0.05-0.26,0.14-0.46,0.27-0.62s0.31-0.28,0.54-0.37c0.24-0.08,0.51-0.13,0.82-0.13c0.31,0,0.56,0.04,0.75,0.11
		c0.19,0.07,0.34,0.16,0.43,0.28c0.09,0.11,0.15,0.25,0.19,0.42c0.02,0.11,0.03,0.29,0.03,0.57V4c0,0.57,0.01,0.94,0.04,1.09
		c0.03,0.15,0.08,0.3,0.16,0.44h-0.64C17.3,5.39,17.26,5.24,17.24,5.07z M17.19,3.7c-0.22,0.09-0.56,0.17-1,0.23
		c-0.25,0.04-0.43,0.08-0.54,0.12c-0.11,0.05-0.19,0.11-0.24,0.2c-0.06,0.09-0.09,0.19-0.09,0.29c0,0.16,0.06,0.3,0.19,0.41
		s0.31,0.16,0.54,0.16c0.24,0,0.45-0.05,0.63-0.15c0.19-0.1,0.32-0.25,0.41-0.43c0.07-0.14,0.1-0.34,0.1-0.62V3.7z"/>
	<path class="st0" d="M19.34,5.52h-0.57V0.51h0.62V2.3c0.26-0.33,0.59-0.49,1-0.49c0.22,0,0.43,0.04,0.63,0.13
		c0.2,0.09,0.36,0.22,0.49,0.38c0.13,0.16,0.23,0.36,0.3,0.59s0.11,0.48,0.11,0.74c0,0.62-0.15,1.1-0.46,1.44
		c-0.31,0.34-0.68,0.51-1.11,0.51c-0.43,0-0.77-0.18-1.01-0.54V5.52z M19.33,3.68c0,0.44,0.06,0.75,0.18,0.94
		c0.19,0.32,0.46,0.47,0.79,0.47c0.27,0,0.5-0.12,0.7-0.35c0.2-0.23,0.29-0.58,0.29-1.04c0-0.47-0.09-0.82-0.28-1.05
		c-0.19-0.23-0.42-0.34-0.68-0.34c-0.27,0-0.5,0.12-0.7,0.35C19.43,2.9,19.33,3.24,19.33,3.68z"/>
	<path class="st0" d="M26.17,4.96c-0.15,0.17-0.31,0.31-0.5,0.41s-0.37,0.15-0.55,0.15c-0.2,0-0.4-0.06-0.59-0.18
		c-0.19-0.12-0.35-0.3-0.47-0.55C23.94,4.56,23.88,4.29,23.88,4c0-0.36,0.09-0.73,0.28-1.09c0.19-0.36,0.42-0.63,0.69-0.82
		c0.28-0.18,0.54-0.27,0.8-0.27c0.2,0,0.39,0.05,0.57,0.16c0.18,0.1,0.33,0.26,0.46,0.47l0.12-0.53h0.61l-0.49,2.29
		c-0.07,0.32-0.1,0.5-0.1,0.53c0,0.06,0.02,0.12,0.07,0.16s0.1,0.07,0.17,0.07c0.12,0,0.28-0.07,0.48-0.21
		C27.8,4.57,28,4.33,28.15,4.02s0.23-0.62,0.23-0.95c0-0.38-0.1-0.74-0.29-1.07c-0.2-0.33-0.49-0.59-0.87-0.79
		c-0.39-0.2-0.81-0.3-1.28-0.3c-0.53,0-1.02,0.12-1.46,0.38c-0.44,0.25-0.78,0.61-1.03,1.07c-0.24,0.47-0.36,0.96-0.36,1.5
		c0,0.56,0.12,1.04,0.36,1.44c0.24,0.4,0.59,0.7,1.05,0.89c0.46,0.19,0.97,0.29,1.53,0.29c0.6,0,1.1-0.1,1.5-0.3
		c0.4-0.2,0.71-0.44,0.91-0.73h0.62c-0.12,0.24-0.32,0.48-0.6,0.73c-0.28,0.25-0.62,0.45-1.01,0.59c-0.39,0.14-0.86,0.22-1.41,0.22
		c-0.51,0-0.97-0.06-1.4-0.19c-0.43-0.13-0.79-0.33-1.09-0.59c-0.3-0.26-0.53-0.56-0.68-0.9c-0.19-0.43-0.29-0.89-0.29-1.39
		c0-0.55,0.11-1.08,0.34-1.59c0.28-0.62,0.67-1.09,1.18-1.42c0.51-0.33,1.13-0.49,1.86-0.49c0.57,0,1.07,0.12,1.52,0.35
		c0.45,0.23,0.8,0.58,1.06,1.03c0.22,0.39,0.33,0.82,0.33,1.29c0,0.66-0.23,1.25-0.7,1.76c-0.41,0.46-0.87,0.69-1.36,0.69
		c-0.16,0-0.28-0.02-0.38-0.07c-0.1-0.05-0.17-0.12-0.21-0.21C26.2,5.2,26.18,5.1,26.17,4.96z M24.51,4.04
		c0,0.31,0.07,0.55,0.22,0.73c0.15,0.17,0.32,0.26,0.51,0.26c0.13,0,0.26-0.04,0.4-0.11c0.14-0.08,0.28-0.19,0.4-0.34
		S26.29,4.23,26.37,4c0.08-0.23,0.12-0.46,0.12-0.7c0-0.31-0.08-0.55-0.23-0.72c-0.15-0.17-0.34-0.26-0.56-0.26
		c-0.15,0-0.28,0.04-0.41,0.11s-0.25,0.19-0.37,0.36s-0.22,0.36-0.29,0.6C24.55,3.62,24.51,3.84,24.51,4.04z"/>
	<path class="st0" d="M29.66,5.82l0.6,0.09c0.03,0.18,0.09,0.32,0.21,0.4c0.15,0.12,0.36,0.17,0.62,0.17c0.29,0,0.5-0.06,0.66-0.17
		c0.15-0.11,0.26-0.27,0.31-0.48c0.03-0.12,0.05-0.39,0.04-0.79c-0.27,0.32-0.6,0.47-1,0.47c-0.5,0-0.88-0.18-1.16-0.54
		c-0.27-0.36-0.41-0.79-0.41-1.3c0-0.35,0.06-0.66,0.19-0.96s0.31-0.52,0.54-0.68c0.24-0.16,0.52-0.24,0.84-0.24
		c0.43,0,0.78,0.17,1.06,0.52V1.89h0.57v3.14c0,0.57-0.06,0.97-0.17,1.2c-0.11,0.24-0.3,0.42-0.55,0.56
		c-0.25,0.14-0.56,0.21-0.92,0.21c-0.43,0-0.78-0.1-1.05-0.29S29.65,6.21,29.66,5.82z M30.16,3.64c0,0.48,0.09,0.82,0.28,1.04
		c0.19,0.22,0.43,0.33,0.71,0.33c0.28,0,0.52-0.11,0.71-0.33c0.19-0.22,0.29-0.56,0.29-1.02c0-0.44-0.1-0.78-0.3-1
		c-0.2-0.23-0.43-0.34-0.71-0.34c-0.27,0-0.51,0.11-0.7,0.33S30.16,3.2,30.16,3.64z"/>
	<path class="st0" d="M36.03,5.07c-0.23,0.19-0.45,0.33-0.66,0.41c-0.21,0.08-0.44,0.12-0.68,0.12c-0.4,0-0.71-0.1-0.92-0.29
		c-0.21-0.2-0.32-0.45-0.32-0.75c0-0.18,0.04-0.34,0.12-0.49c0.08-0.15,0.19-0.27,0.32-0.35c0.13-0.09,0.28-0.16,0.44-0.2
		c0.12-0.03,0.3-0.06,0.55-0.09c0.5-0.06,0.86-0.13,1.1-0.21c0-0.08,0-0.14,0-0.16c0-0.25-0.06-0.43-0.17-0.53
		c-0.16-0.14-0.39-0.21-0.7-0.21c-0.29,0-0.5,0.05-0.64,0.15c-0.14,0.1-0.24,0.28-0.31,0.54l-0.6-0.08
		c0.05-0.26,0.14-0.46,0.27-0.62s0.31-0.28,0.54-0.37c0.24-0.08,0.51-0.13,0.82-0.13c0.31,0,0.56,0.04,0.75,0.11
		c0.19,0.07,0.34,0.16,0.43,0.28c0.09,0.11,0.15,0.25,0.19,0.42c0.02,0.11,0.03,0.29,0.03,0.57V4c0,0.57,0.01,0.94,0.04,1.09
		c0.03,0.15,0.08,0.3,0.16,0.44h-0.64C36.09,5.39,36.05,5.24,36.03,5.07z M35.98,3.7c-0.22,0.09-0.56,0.17-1,0.23
		c-0.25,0.04-0.43,0.08-0.54,0.12c-0.11,0.05-0.19,0.11-0.24,0.2c-0.06,0.09-0.09,0.19-0.09,0.29c0,0.16,0.06,0.3,0.19,0.41
		s0.31,0.16,0.54,0.16c0.24,0,0.45-0.05,0.63-0.15c0.19-0.1,0.32-0.25,0.41-0.43c0.07-0.14,0.1-0.34,0.1-0.62V3.7z"/>
	<path class="st0" d="M38.12,5.52h-0.57V0.51h0.62V2.3c0.26-0.33,0.59-0.49,1-0.49c0.22,0,0.43,0.04,0.63,0.13
		c0.2,0.09,0.36,0.22,0.49,0.38c0.13,0.16,0.23,0.36,0.3,0.59s0.11,0.48,0.11,0.74c0,0.62-0.15,1.1-0.46,1.44
		c-0.31,0.34-0.68,0.51-1.11,0.51c-0.43,0-0.77-0.18-1.01-0.54V5.52z M38.11,3.68c0,0.44,0.06,0.75,0.18,0.94
		c0.19,0.32,0.46,0.47,0.79,0.47c0.27,0,0.5-0.12,0.7-0.35c0.2-0.23,0.29-0.58,0.29-1.04c0-0.47-0.09-0.82-0.28-1.05
		c-0.19-0.23-0.42-0.34-0.68-0.34c-0.27,0-0.5,0.12-0.7,0.35C38.21,2.9,38.11,3.24,38.11,3.68z"/>
	<path class="st0" d="M43.82,5.07c-0.23,0.19-0.45,0.33-0.66,0.41S42.72,5.6,42.48,5.6c-0.4,0-0.71-0.1-0.92-0.29
		c-0.21-0.2-0.32-0.45-0.32-0.75c0-0.18,0.04-0.34,0.12-0.49c0.08-0.15,0.19-0.27,0.32-0.35c0.13-0.09,0.28-0.16,0.44-0.2
		c0.12-0.03,0.3-0.06,0.55-0.09c0.5-0.06,0.86-0.13,1.1-0.21c0-0.08,0-0.14,0-0.16c0-0.25-0.06-0.43-0.17-0.53
		c-0.16-0.14-0.39-0.21-0.7-0.21c-0.29,0-0.5,0.05-0.64,0.15s-0.24,0.28-0.31,0.54l-0.6-0.08c0.05-0.26,0.14-0.46,0.27-0.62
		s0.31-0.28,0.54-0.37c0.24-0.08,0.51-0.13,0.82-0.13c0.31,0,0.56,0.04,0.76,0.11c0.19,0.07,0.34,0.16,0.43,0.28
		c0.09,0.11,0.16,0.25,0.19,0.42c0.02,0.11,0.03,0.29,0.03,0.57V4c0,0.57,0.01,0.94,0.04,1.09c0.03,0.15,0.08,0.3,0.16,0.44h-0.64
		C43.87,5.39,43.83,5.24,43.82,5.07z M43.76,3.7c-0.22,0.09-0.56,0.17-1.01,0.23c-0.25,0.04-0.43,0.08-0.54,0.12
		c-0.1,0.05-0.19,0.11-0.24,0.2c-0.06,0.09-0.08,0.19-0.08,0.29c0,0.16,0.06,0.3,0.19,0.41c0.12,0.11,0.31,0.16,0.54,0.16
		c0.24,0,0.45-0.05,0.63-0.15c0.18-0.1,0.32-0.25,0.41-0.43c0.07-0.14,0.1-0.34,0.1-0.62V3.7z"/>
	<path class="st0" d="M45.33,5.52V1.89h0.55v0.55c0.14-0.26,0.27-0.43,0.39-0.51c0.12-0.08,0.25-0.12,0.39-0.12
		c0.21,0,0.42,0.07,0.63,0.2l-0.21,0.57c-0.15-0.09-0.3-0.13-0.45-0.13c-0.13,0-0.25,0.04-0.36,0.12c-0.11,0.08-0.18,0.19-0.23,0.34
		c-0.07,0.22-0.1,0.46-0.1,0.72v1.9H45.33z"/>
	<path class="st0" d="M47.46,5.52v-0.7h0.7v0.7H47.46z"/>
	<path class="st0" d="M49.23,5.52V1.89h0.55V2.4c0.11-0.18,0.27-0.32,0.45-0.43c0.19-0.11,0.4-0.16,0.65-0.16
		c0.27,0,0.49,0.05,0.66,0.17c0.17,0.11,0.29,0.27,0.36,0.47c0.29-0.42,0.66-0.63,1.12-0.63c0.36,0,0.64,0.1,0.83,0.3
		s0.29,0.51,0.29,0.92v2.49h-0.61V3.23c0-0.25-0.02-0.42-0.06-0.53c-0.04-0.11-0.11-0.2-0.22-0.26c-0.1-0.06-0.23-0.1-0.37-0.1
		c-0.25,0-0.47,0.08-0.63,0.25C52.09,2.77,52,3.04,52,3.41v2.11h-0.62V3.16c0-0.27-0.05-0.48-0.15-0.62
		c-0.1-0.14-0.26-0.21-0.49-0.21c-0.17,0-0.33,0.04-0.48,0.14c-0.15,0.09-0.25,0.22-0.32,0.4c-0.07,0.18-0.1,0.43-0.1,0.76v1.88
		H49.23z"/>
	<path class="st0" d="M54.65,5.52l1.33-1.89l-1.23-1.74h0.77l0.56,0.85c0.11,0.16,0.19,0.3,0.25,0.41c0.1-0.15,0.19-0.29,0.28-0.4
		l0.61-0.86h0.73L56.7,3.6l1.35,1.92h-0.76l-0.74-1.13l-0.2-0.3L55.4,5.52H54.65z"/>
</g>
</svg>
