<?xml version="1.0" encoding="utf-8"?>
<!-- Generator: Adobe Illustrator 25.4.1, SVG Export Plug-In . SVG Version: 6.00 Build 0)  -->
<svg version="1.1" id="Capa_1" xmlns="http://www.w3.org/2000/svg" xmlns:xlink="http://www.w3.org/1999/xlink" x="0px" y="0px"
	 viewBox="0 0 184 7" style="enable-background:new 0 0 184 7;" xml:space="preserve">
<style type="text/css">
	.st0{fill:#3F3E3E;}
</style>
<g>
	<path class="st0" d="M0.46,6.92L0.39,6.34c0.13,0.04,0.25,0.05,0.35,0.05c0.14,0,0.25-0.02,0.33-0.07c0.08-0.04,0.15-0.11,0.2-0.19
		c0.04-0.06,0.1-0.21,0.19-0.46c0.01-0.04,0.03-0.08,0.05-0.15L0.13,1.89H0.8l0.75,2.1c0.1,0.27,0.19,0.55,0.26,0.84
		c0.07-0.28,0.15-0.56,0.25-0.83l0.78-2.12h0.62L2.08,5.58C1.93,5.98,1.82,6.25,1.73,6.4C1.62,6.61,1.5,6.76,1.36,6.85
		C1.22,6.94,1.05,6.99,0.85,6.99C0.73,6.99,0.6,6.97,0.46,6.92z"/>
	<path class="st0" d="M3.64,5.52v-0.7h0.7v0.7H3.64z"/>
	<path class="st0" d="M7.78,4.19l0.61,0.08C8.32,4.68,8.15,5.01,7.87,5.25C7.6,5.48,7.27,5.6,6.87,5.6c-0.5,0-0.9-0.16-1.2-0.49
		c-0.3-0.32-0.45-0.79-0.45-1.4c0-0.39,0.06-0.73,0.2-1.03C5.54,2.4,5.74,2.18,6.01,2.03c0.26-0.15,0.55-0.22,0.87-0.22
		c0.39,0,0.72,0.1,0.97,0.3c0.25,0.2,0.41,0.48,0.48,0.85l-0.6,0.09C7.67,2.8,7.57,2.62,7.42,2.5S7.1,2.31,6.9,2.31
		c-0.31,0-0.56,0.11-0.75,0.33C5.95,2.87,5.85,3.22,5.85,3.7c0,0.49,0.09,0.84,0.28,1.06C6.32,4.99,6.56,5.1,6.86,5.1
		c0.24,0,0.44-0.07,0.6-0.22C7.63,4.73,7.73,4.5,7.78,4.19z"/>
	<path class="st0" d="M11.28,5.07c-0.23,0.19-0.45,0.33-0.66,0.41S10.18,5.6,9.94,5.6c-0.4,0-0.71-0.1-0.92-0.29
		C8.81,5.11,8.7,4.86,8.7,4.56c0-0.18,0.04-0.34,0.12-0.49C8.9,3.93,9.01,3.81,9.14,3.72c0.13-0.09,0.28-0.16,0.44-0.2
		c0.12-0.03,0.3-0.06,0.55-0.09c0.5-0.06,0.86-0.13,1.1-0.21c0-0.08,0-0.14,0-0.16c0-0.25-0.06-0.43-0.17-0.53
		c-0.16-0.14-0.39-0.21-0.7-0.21c-0.29,0-0.5,0.05-0.64,0.15S9.47,2.75,9.41,3.01l-0.6-0.08C8.86,2.67,8.95,2.46,9.08,2.3
		s0.31-0.28,0.54-0.37c0.24-0.08,0.51-0.13,0.82-0.13c0.31,0,0.56,0.04,0.76,0.11c0.19,0.07,0.34,0.16,0.43,0.28
		c0.09,0.11,0.16,0.25,0.19,0.42c0.02,0.11,0.03,0.29,0.03,0.57V4c0,0.57,0.01,0.94,0.04,1.09c0.03,0.15,0.08,0.3,0.16,0.44H11.4
		C11.33,5.39,11.29,5.24,11.28,5.07z M11.23,3.7C11,3.79,10.67,3.87,10.22,3.93C9.97,3.97,9.79,4.01,9.68,4.05
		C9.58,4.1,9.5,4.17,9.44,4.25C9.38,4.34,9.36,4.44,9.36,4.54c0,0.16,0.06,0.3,0.19,0.41c0.12,0.11,0.31,0.16,0.54,0.16
		c0.24,0,0.45-0.05,0.63-0.15c0.18-0.1,0.32-0.25,0.41-0.43c0.07-0.14,0.1-0.34,0.1-0.62V3.7z"/>
	<path class="st0" d="M12.8,5.52V1.89h0.55V2.4c0.11-0.18,0.27-0.32,0.46-0.43c0.19-0.11,0.4-0.16,0.65-0.16
		c0.27,0,0.49,0.05,0.66,0.17c0.17,0.11,0.29,0.27,0.37,0.47c0.29-0.42,0.66-0.63,1.12-0.63c0.36,0,0.64,0.1,0.83,0.3
		s0.29,0.51,0.29,0.92v2.49h-0.61V3.23c0-0.25-0.02-0.42-0.06-0.53c-0.04-0.11-0.11-0.2-0.22-0.26c-0.11-0.06-0.23-0.1-0.37-0.1
		c-0.26,0-0.47,0.08-0.64,0.25c-0.17,0.17-0.25,0.44-0.25,0.81v2.11h-0.62V3.16c0-0.27-0.05-0.48-0.15-0.62
		c-0.1-0.14-0.26-0.21-0.49-0.21c-0.17,0-0.33,0.04-0.48,0.14c-0.15,0.09-0.25,0.22-0.32,0.4c-0.07,0.18-0.1,0.43-0.1,0.76v1.88
		H12.8z"/>
	<path class="st0" d="M18.63,6.91V1.89h0.56v0.47c0.13-0.18,0.28-0.32,0.45-0.41c0.17-0.09,0.37-0.14,0.61-0.14
		c0.31,0,0.58,0.08,0.82,0.24c0.24,0.16,0.42,0.38,0.54,0.68c0.12,0.29,0.18,0.61,0.18,0.96c0,0.37-0.07,0.71-0.2,1
		c-0.13,0.3-0.33,0.53-0.58,0.68c-0.25,0.16-0.52,0.24-0.8,0.24c-0.21,0-0.39-0.04-0.55-0.13c-0.16-0.09-0.3-0.2-0.4-0.33v1.77
		H18.63z M19.19,3.72c0,0.47,0.1,0.81,0.28,1.04c0.19,0.22,0.42,0.33,0.69,0.33c0.27,0,0.51-0.12,0.7-0.35
		c0.2-0.23,0.29-0.59,0.29-1.08c0-0.46-0.09-0.81-0.29-1.04c-0.19-0.23-0.42-0.35-0.68-0.35c-0.26,0-0.49,0.12-0.7,0.37
		C19.29,2.9,19.19,3.26,19.19,3.72z"/>
	<path class="st0" d="M22.3,3.7c0-0.67,0.19-1.17,0.56-1.49c0.31-0.27,0.69-0.4,1.14-0.4c0.5,0,0.91,0.16,1.22,0.49
		c0.32,0.33,0.47,0.78,0.47,1.36c0,0.47-0.07,0.83-0.21,1.1c-0.14,0.27-0.34,0.48-0.61,0.62C24.61,5.53,24.32,5.6,24,5.6
		c-0.51,0-0.92-0.16-1.23-0.49S22.3,4.32,22.3,3.7z M22.93,3.7c0,0.46,0.1,0.81,0.3,1.04C23.43,4.98,23.69,5.1,24,5.1
		c0.31,0,0.56-0.12,0.76-0.35c0.2-0.23,0.3-0.59,0.3-1.06c0-0.45-0.1-0.79-0.31-1.02C24.55,2.43,24.3,2.32,24,2.32
		c-0.31,0-0.56,0.12-0.77,0.35S22.93,3.24,22.93,3.7z"/>
	<path class="st0" d="M26.17,4.43l0.61-0.1c0.03,0.24,0.13,0.43,0.29,0.56c0.16,0.13,0.38,0.2,0.65,0.2c0.28,0,0.49-0.06,0.63-0.17
		s0.21-0.25,0.21-0.41c0-0.14-0.06-0.25-0.18-0.33c-0.08-0.05-0.29-0.12-0.63-0.21c-0.45-0.12-0.76-0.21-0.94-0.3
		c-0.17-0.08-0.31-0.2-0.4-0.34c-0.09-0.15-0.13-0.31-0.13-0.49c0-0.16,0.04-0.31,0.11-0.45c0.07-0.14,0.17-0.25,0.3-0.34
		c0.1-0.07,0.23-0.13,0.39-0.18c0.17-0.05,0.34-0.07,0.53-0.07c0.29,0,0.54,0.04,0.75,0.12c0.22,0.08,0.38,0.19,0.48,0.33
		c0.1,0.14,0.17,0.33,0.21,0.56l-0.6,0.08c-0.03-0.19-0.11-0.33-0.24-0.44c-0.13-0.1-0.32-0.16-0.55-0.16
		c-0.28,0-0.48,0.05-0.61,0.14c-0.12,0.09-0.18,0.2-0.18,0.33c0,0.08,0.02,0.15,0.08,0.22c0.05,0.07,0.13,0.12,0.24,0.16
		c0.06,0.02,0.24,0.07,0.54,0.16c0.44,0.12,0.74,0.21,0.91,0.29c0.17,0.07,0.31,0.18,0.41,0.32c0.1,0.14,0.15,0.32,0.15,0.53
		c0,0.21-0.06,0.4-0.18,0.58s-0.29,0.32-0.52,0.42S28.01,5.6,27.72,5.6c-0.47,0-0.83-0.1-1.08-0.29C26.4,5.11,26.24,4.82,26.17,4.43
		z"/>
	<path class="st0" d="M33.42,4.96c-0.15,0.17-0.31,0.31-0.5,0.41c-0.18,0.1-0.37,0.15-0.55,0.15c-0.2,0-0.4-0.06-0.59-0.18
		c-0.19-0.12-0.35-0.3-0.47-0.55S31.14,4.29,31.14,4c0-0.36,0.09-0.73,0.28-1.09s0.42-0.63,0.69-0.82c0.28-0.18,0.54-0.27,0.8-0.27
		c0.2,0,0.39,0.05,0.57,0.16c0.18,0.1,0.33,0.26,0.46,0.47l0.12-0.53h0.61l-0.49,2.29c-0.07,0.32-0.1,0.5-0.1,0.53
		c0,0.06,0.02,0.12,0.07,0.16s0.1,0.07,0.17,0.07c0.12,0,0.28-0.07,0.47-0.21c0.26-0.18,0.46-0.43,0.62-0.73
		c0.15-0.31,0.23-0.62,0.23-0.95c0-0.38-0.1-0.74-0.29-1.07c-0.2-0.33-0.49-0.59-0.87-0.79c-0.38-0.2-0.81-0.3-1.28-0.3
		c-0.53,0-1.02,0.12-1.46,0.38c-0.44,0.25-0.78,0.61-1.03,1.07c-0.24,0.47-0.36,0.96-0.36,1.5c0,0.56,0.12,1.04,0.36,1.44
		c0.24,0.4,0.59,0.7,1.05,0.89c0.46,0.19,0.97,0.29,1.53,0.29c0.6,0,1.1-0.1,1.5-0.3c0.4-0.2,0.71-0.44,0.91-0.73h0.62
		c-0.12,0.24-0.32,0.48-0.6,0.73c-0.28,0.25-0.62,0.45-1.01,0.59s-0.86,0.22-1.41,0.22c-0.51,0-0.97-0.06-1.4-0.19
		c-0.43-0.13-0.79-0.33-1.09-0.59c-0.3-0.26-0.53-0.56-0.68-0.9c-0.19-0.43-0.29-0.89-0.29-1.39c0-0.55,0.11-1.08,0.34-1.59
		c0.28-0.62,0.67-1.09,1.18-1.42s1.13-0.49,1.86-0.49c0.56,0,1.07,0.12,1.52,0.35C35.2,1,35.55,1.34,35.81,1.8
		c0.22,0.39,0.33,0.82,0.33,1.29c0,0.66-0.23,1.25-0.7,1.76c-0.41,0.46-0.87,0.69-1.36,0.69c-0.16,0-0.29-0.02-0.38-0.07
		c-0.1-0.05-0.17-0.12-0.21-0.21C33.46,5.2,33.44,5.1,33.42,4.96z M31.77,4.04c0,0.31,0.07,0.55,0.22,0.73
		c0.15,0.17,0.32,0.26,0.51,0.26c0.13,0,0.26-0.04,0.4-0.11s0.28-0.19,0.4-0.34c0.13-0.15,0.23-0.34,0.32-0.57
		c0.08-0.23,0.12-0.46,0.12-0.7c0-0.31-0.08-0.55-0.23-0.72c-0.15-0.17-0.34-0.26-0.56-0.26c-0.15,0-0.28,0.04-0.41,0.11
		c-0.13,0.07-0.25,0.19-0.37,0.36c-0.12,0.16-0.22,0.36-0.29,0.6S31.77,3.84,31.77,4.04z"/>
	<path class="st0" d="M36.91,5.82l0.6,0.09c0.03,0.18,0.1,0.32,0.21,0.4c0.15,0.12,0.36,0.17,0.62,0.17c0.29,0,0.51-0.06,0.66-0.17
		c0.15-0.11,0.26-0.27,0.31-0.48c0.03-0.12,0.05-0.39,0.04-0.79c-0.27,0.32-0.6,0.47-1.01,0.47c-0.5,0-0.88-0.18-1.16-0.54
		c-0.27-0.36-0.41-0.79-0.41-1.3c0-0.35,0.06-0.66,0.19-0.96c0.13-0.29,0.31-0.52,0.55-0.68c0.24-0.16,0.52-0.24,0.84-0.24
		c0.43,0,0.78,0.17,1.06,0.52V1.89h0.57v3.14c0,0.57-0.06,0.97-0.17,1.2c-0.11,0.24-0.3,0.42-0.55,0.56
		c-0.25,0.14-0.56,0.21-0.92,0.21c-0.43,0-0.78-0.1-1.05-0.29C37.03,6.51,36.9,6.21,36.91,5.82z M37.42,3.64
		c0,0.48,0.09,0.82,0.28,1.04s0.43,0.33,0.71,0.33c0.28,0,0.52-0.11,0.71-0.33c0.19-0.22,0.29-0.56,0.29-1.02c0-0.44-0.1-0.78-0.3-1
		c-0.2-0.23-0.43-0.34-0.71-0.34c-0.27,0-0.51,0.11-0.7,0.33S37.42,3.2,37.42,3.64z"/>
	<path class="st0" d="M43.29,5.07c-0.23,0.19-0.45,0.33-0.66,0.41S42.19,5.6,41.95,5.6c-0.4,0-0.71-0.1-0.92-0.29
		c-0.21-0.2-0.32-0.45-0.32-0.75c0-0.18,0.04-0.34,0.12-0.49c0.08-0.15,0.19-0.27,0.32-0.35c0.13-0.09,0.28-0.16,0.44-0.2
		c0.12-0.03,0.3-0.06,0.55-0.09c0.5-0.06,0.86-0.13,1.1-0.21c0-0.08,0-0.14,0-0.16c0-0.25-0.06-0.43-0.17-0.53
		c-0.16-0.14-0.39-0.21-0.7-0.21c-0.29,0-0.5,0.05-0.64,0.15c-0.14,0.1-0.24,0.28-0.31,0.54l-0.6-0.08
		c0.05-0.26,0.14-0.46,0.27-0.62c0.12-0.16,0.31-0.28,0.54-0.37c0.24-0.08,0.51-0.13,0.82-0.13c0.31,0,0.56,0.04,0.75,0.11
		c0.19,0.07,0.34,0.16,0.43,0.28c0.09,0.11,0.16,0.25,0.19,0.42c0.02,0.11,0.03,0.29,0.03,0.57V4c0,0.57,0.01,0.94,0.04,1.09
		c0.03,0.15,0.08,0.3,0.16,0.44h-0.64C43.34,5.39,43.3,5.24,43.29,5.07z M43.23,3.7c-0.22,0.09-0.56,0.17-1,0.23
		c-0.25,0.04-0.43,0.08-0.54,0.12c-0.1,0.05-0.19,0.11-0.24,0.2s-0.09,0.19-0.09,0.29c0,0.16,0.06,0.3,0.19,0.41
		c0.12,0.11,0.3,0.16,0.54,0.16c0.24,0,0.45-0.05,0.63-0.15s0.32-0.25,0.41-0.43c0.07-0.14,0.1-0.34,0.1-0.62V3.7z"/>
	<path class="st0" d="M45.38,5.52h-0.57V0.51h0.62V2.3c0.26-0.33,0.59-0.49,1-0.49c0.22,0,0.43,0.04,0.63,0.13
		c0.2,0.09,0.36,0.22,0.49,0.38c0.13,0.16,0.23,0.36,0.3,0.59c0.07,0.23,0.11,0.48,0.11,0.74c0,0.62-0.15,1.1-0.46,1.44
		c-0.31,0.34-0.68,0.51-1.11,0.51c-0.43,0-0.76-0.18-1.01-0.54V5.52z M45.37,3.68c0,0.44,0.06,0.75,0.18,0.94
		C45.74,4.94,46,5.1,46.33,5.1c0.27,0,0.5-0.12,0.7-0.35c0.2-0.23,0.29-0.58,0.29-1.04c0-0.47-0.09-0.82-0.28-1.05
		c-0.19-0.23-0.42-0.34-0.68-0.34c-0.27,0-0.5,0.12-0.7,0.35C45.47,2.9,45.37,3.24,45.37,3.68z"/>
	<path class="st0" d="M51.07,5.07c-0.23,0.19-0.45,0.33-0.66,0.41C50.2,5.56,49.98,5.6,49.74,5.6c-0.4,0-0.71-0.1-0.92-0.29
		c-0.21-0.2-0.32-0.45-0.32-0.75c0-0.18,0.04-0.34,0.12-0.49c0.08-0.15,0.19-0.27,0.32-0.35c0.13-0.09,0.28-0.16,0.44-0.2
		c0.12-0.03,0.3-0.06,0.55-0.09c0.5-0.06,0.86-0.13,1.1-0.21c0-0.08,0-0.14,0-0.16c0-0.25-0.06-0.43-0.17-0.53
		c-0.16-0.14-0.39-0.21-0.7-0.21c-0.29,0-0.5,0.05-0.64,0.15c-0.14,0.1-0.24,0.28-0.31,0.54l-0.6-0.08
		c0.05-0.26,0.14-0.46,0.27-0.62c0.13-0.16,0.31-0.28,0.54-0.37c0.24-0.08,0.51-0.13,0.82-0.13c0.31,0,0.56,0.04,0.76,0.11
		c0.19,0.07,0.34,0.16,0.43,0.28c0.09,0.11,0.15,0.25,0.19,0.42c0.02,0.11,0.03,0.29,0.03,0.57V4c0,0.57,0.01,0.94,0.04,1.09
		c0.03,0.15,0.08,0.3,0.15,0.44h-0.64C51.13,5.39,51.09,5.24,51.07,5.07z M51.02,3.7c-0.22,0.09-0.56,0.17-1,0.23
		c-0.25,0.04-0.43,0.08-0.54,0.12c-0.11,0.05-0.19,0.11-0.24,0.2s-0.08,0.19-0.08,0.29c0,0.16,0.06,0.3,0.19,0.41
		c0.12,0.11,0.31,0.16,0.54,0.16c0.24,0,0.45-0.05,0.63-0.15s0.32-0.25,0.41-0.43c0.07-0.14,0.1-0.34,0.1-0.62V3.7z"/>
	<path class="st0" d="M52.59,5.52V1.89h0.55v0.55c0.14-0.26,0.27-0.43,0.39-0.51c0.12-0.08,0.25-0.12,0.39-0.12
		c0.21,0,0.42,0.07,0.63,0.2l-0.21,0.57c-0.15-0.09-0.3-0.13-0.45-0.13c-0.13,0-0.25,0.04-0.36,0.12c-0.11,0.08-0.18,0.19-0.23,0.34
		c-0.07,0.22-0.1,0.46-0.1,0.72v1.9H52.59z"/>
	<path class="st0" d="M54.72,5.52v-0.7h0.7v0.7H54.72z"/>
	<path class="st0" d="M56.49,5.52V1.89h0.55V2.4c0.11-0.18,0.27-0.32,0.46-0.43c0.19-0.11,0.4-0.16,0.65-0.16
		c0.27,0,0.49,0.05,0.66,0.17c0.17,0.11,0.29,0.27,0.36,0.47c0.29-0.42,0.66-0.63,1.12-0.63c0.36,0,0.64,0.1,0.83,0.3
		c0.19,0.2,0.29,0.51,0.29,0.92v2.49h-0.61V3.23c0-0.25-0.02-0.42-0.06-0.53c-0.04-0.11-0.11-0.2-0.22-0.26
		c-0.1-0.06-0.23-0.1-0.37-0.1c-0.25,0-0.47,0.08-0.64,0.25s-0.25,0.44-0.25,0.81v2.11h-0.62V3.16c0-0.27-0.05-0.48-0.15-0.62
		S58.23,2.34,58,2.34c-0.17,0-0.33,0.04-0.48,0.14c-0.15,0.09-0.25,0.22-0.32,0.4c-0.07,0.18-0.1,0.43-0.1,0.76v1.88H56.49z"/>
	<path class="st0" d="M61.91,5.52l1.33-1.89l-1.23-1.74h0.77l0.56,0.85c0.1,0.16,0.19,0.3,0.25,0.41c0.1-0.15,0.19-0.29,0.28-0.4
		l0.61-0.86h0.73L63.95,3.6l1.35,1.92h-0.75L63.8,4.39l-0.2-0.3l-0.95,1.43H61.91z"/>
</g>
</svg>
