<?xml version="1.0" encoding="utf-8"?>
<!-- Generator: Adobe Illustrator 25.4.1, SVG Export Plug-In . SVG Version: 6.00 Build 0)  -->
<svg version="1.1" id="Capa_1" xmlns="http://www.w3.org/2000/svg" xmlns:xlink="http://www.w3.org/1999/xlink" x="0px" y="0px"
	 viewBox="0 0 252 77.61" style="enable-background:new 0 0 252 77.61;" xml:space="preserve">
<style type="text/css">
	.st0{fill:#3F3E3E;}
</style>
<g>
	<path d="M13.8,22.86h-2.67l-1.06-2.76H5.2l-1,2.76H1.59l4.74-12.17h2.6L13.8,22.86z M9.27,18.04L7.6,13.53l-1.64,4.52H9.27z"/>
	<path d="M23.17,22.86H21v-1.29c-0.36,0.5-0.78,0.88-1.27,1.12c-0.49,0.25-0.98,0.37-1.48,0.37c-1.01,0-1.88-0.41-2.6-1.22
		c-0.72-0.82-1.08-1.96-1.08-3.42c0-1.49,0.35-2.63,1.05-3.41c0.7-0.78,1.59-1.17,2.67-1.17c0.99,0,1.84,0.41,2.56,1.23v-4.38h2.33
		V22.86z M16.94,18.26c0,0.94,0.13,1.62,0.39,2.04c0.38,0.61,0.9,0.91,1.58,0.91c0.54,0,0.99-0.23,1.37-0.68
		c0.38-0.46,0.56-1.14,0.56-2.05c0-1.01-0.18-1.74-0.55-2.19c-0.37-0.45-0.83-0.67-1.4-0.67c-0.55,0-1.02,0.22-1.39,0.66
		C17.13,16.73,16.94,17.39,16.94,18.26z"/>
	<path d="M27.7,22.86h-2.33v-8.82h2.17v1.25c0.37-0.59,0.71-0.98,1-1.17c0.3-0.19,0.63-0.28,1.01-0.28c0.53,0,1.04,0.15,1.54,0.44
		l-0.72,2.03c-0.39-0.25-0.76-0.38-1.1-0.38c-0.33,0-0.6,0.09-0.83,0.27c-0.23,0.18-0.4,0.5-0.54,0.98c-0.13,0.47-0.2,1.46-0.2,2.96
		V22.86z"/>
	<path d="M32.08,12.85v-2.16h2.33v2.16H32.08z M32.08,22.86v-8.82h2.33v8.82H32.08z"/>
	<path d="M38.55,16.73l-2.12-0.38c0.24-0.85,0.65-1.48,1.23-1.89c0.58-0.41,1.45-0.61,2.59-0.61c1.04,0,1.82,0.12,2.32,0.37
		c0.51,0.25,0.87,0.56,1.08,0.94c0.21,0.38,0.31,1.07,0.31,2.09l-0.03,2.72c0,0.77,0.04,1.35,0.11,1.71
		c0.07,0.37,0.21,0.76,0.42,1.18h-2.31c-0.06-0.15-0.14-0.38-0.22-0.69c-0.04-0.14-0.07-0.23-0.08-0.27
		c-0.4,0.39-0.83,0.68-1.28,0.87c-0.45,0.19-0.94,0.29-1.45,0.29c-0.91,0-1.62-0.25-2.14-0.74c-0.52-0.49-0.79-1.12-0.79-1.87
		c0-0.5,0.12-0.94,0.36-1.33c0.24-0.39,0.57-0.69,1-0.9c0.43-0.21,1.05-0.39,1.86-0.54c1.09-0.21,1.85-0.4,2.27-0.57v-0.23
		c0-0.45-0.11-0.77-0.33-0.96c-0.22-0.19-0.64-0.29-1.25-0.29c-0.41,0-0.74,0.08-0.97,0.25C38.88,16.04,38.69,16.32,38.55,16.73z
		 M41.67,18.62c-0.3,0.1-0.77,0.22-1.42,0.36c-0.65,0.14-1.07,0.27-1.27,0.41c-0.3,0.22-0.46,0.49-0.46,0.82
		c0,0.33,0.12,0.61,0.37,0.85c0.24,0.24,0.55,0.36,0.93,0.36c0.42,0,0.82-0.14,1.2-0.42c0.28-0.21,0.47-0.47,0.56-0.77
		c0.06-0.2,0.09-0.58,0.09-1.14V18.62z M39.15,12.96l1.15-2.48h2.61l-2.28,2.48H39.15z"/>
	<path d="M54.28,22.86h-2.33v-4.5c0-0.95-0.05-1.57-0.15-1.85s-0.26-0.5-0.49-0.65c-0.22-0.15-0.49-0.23-0.81-0.23
		c-0.4,0-0.77,0.11-1.09,0.33c-0.32,0.22-0.54,0.52-0.66,0.88c-0.12,0.37-0.18,1.04-0.18,2.03v3.99h-2.33v-8.82h2.17v1.29
		c0.77-1,1.74-1.49,2.91-1.49c0.51,0,0.99,0.09,1.41,0.28s0.75,0.42,0.97,0.71c0.22,0.29,0.37,0.62,0.46,0.98
		c0.09,0.37,0.13,0.89,0.13,1.57V22.86z"/>
	<path d="M65.77,10.69h2.45v7.7c0,1.01-0.09,1.78-0.27,2.32c-0.24,0.71-0.67,1.28-1.29,1.71c-0.63,0.43-1.45,0.64-2.47,0.64
		c-1.2,0-2.12-0.34-2.77-1.01c-0.65-0.67-0.97-1.66-0.98-2.96l2.32-0.27c0.03,0.7,0.13,1.19,0.31,1.48
		c0.27,0.44,0.67,0.66,1.21,0.66c0.55,0,0.93-0.16,1.16-0.47c0.23-0.31,0.34-0.96,0.34-1.95V10.69z"/>
	<path d="M75.93,20.05l2.32,0.39c-0.3,0.85-0.77,1.5-1.42,1.95s-1.45,0.67-2.42,0.67c-1.53,0-2.67-0.5-3.4-1.5
		c-0.58-0.8-0.87-1.82-0.87-3.04c0-1.46,0.38-2.6,1.15-3.43c0.76-0.83,1.73-1.24,2.9-1.24c1.31,0,2.35,0.43,3.11,1.3
		c0.76,0.87,1.12,2.19,1.09,3.98h-5.84c0.02,0.69,0.2,1.23,0.56,1.61s0.81,0.58,1.34,0.58c0.37,0,0.67-0.1,0.92-0.3
		C75.61,20.82,75.8,20.49,75.93,20.05z M76.06,17.7c-0.02-0.67-0.19-1.19-0.52-1.54c-0.33-0.35-0.74-0.53-1.21-0.53
		c-0.51,0-0.93,0.19-1.26,0.56c-0.33,0.37-0.5,0.88-0.49,1.51H76.06z"/>
	<path d="M79.45,20.34l2.34-0.36c0.1,0.45,0.3,0.8,0.61,1.03c0.3,0.24,0.73,0.35,1.28,0.35c0.6,0,1.06-0.11,1.36-0.33
		c0.21-0.15,0.31-0.36,0.31-0.62c0-0.18-0.06-0.32-0.17-0.44c-0.12-0.11-0.38-0.21-0.78-0.31c-1.88-0.42-3.07-0.79-3.58-1.14
		c-0.7-0.48-1.04-1.14-1.04-1.98c0-0.76,0.3-1.41,0.9-1.93s1.54-0.78,2.81-0.78c1.21,0,2.1,0.2,2.69,0.59
		c0.59,0.39,0.99,0.97,1.21,1.74l-2.2,0.41c-0.09-0.34-0.27-0.61-0.54-0.79c-0.26-0.18-0.64-0.27-1.12-0.27
		c-0.62,0-1.05,0.09-1.32,0.26c-0.18,0.12-0.27,0.28-0.27,0.47c0,0.17,0.08,0.31,0.23,0.42c0.21,0.15,0.94,0.37,2.18,0.66
		c1.24,0.28,2.11,0.63,2.6,1.04c0.49,0.41,0.73,0.99,0.73,1.73c0,0.81-0.34,1.5-1.01,2.08c-0.67,0.58-1.67,0.87-3,0.87
		c-1.2,0-2.15-0.24-2.85-0.73S79.67,21.18,79.45,20.34z"/>
	<path d="M95.53,22.86v-1.32c-0.32,0.47-0.74,0.84-1.27,1.11c-0.52,0.27-1.07,0.41-1.66,0.41c-0.59,0-1.12-0.13-1.59-0.39
		c-0.47-0.26-0.81-0.62-1.02-1.1c-0.21-0.47-0.32-1.12-0.32-1.95v-5.58h2.33v4.05c0,1.24,0.04,2,0.13,2.28s0.24,0.5,0.47,0.66
		c0.23,0.16,0.52,0.25,0.86,0.25c0.4,0,0.76-0.11,1.07-0.33c0.32-0.22,0.53-0.49,0.65-0.81c0.12-0.32,0.17-1.12,0.17-2.38v-3.72
		h2.33v8.82H95.53z M92.51,12.96l1.15-2.48h2.61l-2.28,2.48H92.51z"/>
	<path d="M99.29,20.34l2.34-0.36c0.1,0.45,0.3,0.8,0.61,1.03c0.3,0.24,0.73,0.35,1.28,0.35c0.6,0,1.06-0.11,1.36-0.33
		c0.2-0.15,0.31-0.36,0.31-0.62c0-0.18-0.05-0.32-0.17-0.44c-0.12-0.11-0.38-0.21-0.78-0.31c-1.88-0.42-3.07-0.79-3.58-1.14
		c-0.7-0.48-1.05-1.14-1.05-1.98c0-0.76,0.3-1.41,0.91-1.93s1.54-0.78,2.81-0.78c1.21,0,2.1,0.2,2.69,0.59
		c0.59,0.39,0.99,0.97,1.21,1.74l-2.2,0.41c-0.09-0.34-0.27-0.61-0.54-0.79c-0.26-0.18-0.64-0.27-1.12-0.27
		c-0.61,0-1.05,0.09-1.32,0.26c-0.18,0.12-0.27,0.28-0.27,0.47c0,0.17,0.08,0.31,0.23,0.42c0.21,0.15,0.94,0.37,2.18,0.66
		s2.11,0.63,2.6,1.04c0.49,0.41,0.73,0.99,0.73,1.73c0,0.81-0.34,1.5-1.01,2.08c-0.68,0.58-1.67,0.87-3,0.87
		c-1.2,0-2.15-0.24-2.85-0.73C99.97,21.84,99.51,21.18,99.29,20.34z"/>
	<path d="M114.32,22.86V10.69h5.17c1.3,0,2.25,0.11,2.83,0.33c0.59,0.22,1.06,0.61,1.42,1.17c0.35,0.56,0.53,1.2,0.53,1.92
		c0,0.91-0.27,1.67-0.81,2.26c-0.54,0.59-1.34,0.97-2.41,1.12c0.53,0.31,0.97,0.65,1.32,1.02c0.35,0.37,0.81,1.03,1.4,1.98
		l1.49,2.37h-2.94l-1.78-2.65c-0.63-0.95-1.06-1.54-1.29-1.79c-0.23-0.25-0.48-0.42-0.74-0.51c-0.26-0.09-0.67-0.14-1.24-0.14h-0.5
		v5.08H114.32z M116.77,15.84h1.82c1.18,0,1.91-0.05,2.21-0.15c0.29-0.1,0.52-0.27,0.69-0.51s0.25-0.55,0.25-0.91
		c0-0.41-0.11-0.74-0.33-0.99c-0.22-0.25-0.53-0.41-0.92-0.48c-0.2-0.03-0.8-0.04-1.79-0.04h-1.92V15.84z"/>
	<path d="M126.03,18.33c0-0.77,0.19-1.52,0.57-2.25c0.38-0.73,0.92-1.28,1.62-1.66c0.7-0.38,1.48-0.57,2.34-0.57
		c1.33,0,2.43,0.43,3.28,1.3c0.85,0.87,1.28,1.96,1.28,3.28c0,1.33-0.43,2.44-1.29,3.32c-0.86,0.88-1.94,1.32-3.25,1.32
		c-0.81,0-1.58-0.18-2.31-0.55c-0.73-0.37-1.29-0.9-1.67-1.61C126.22,20.2,126.03,19.34,126.03,18.33z M128.42,18.45
		c0,0.88,0.21,1.54,0.62,2.01s0.93,0.7,1.54,0.7c0.61,0,1.12-0.23,1.53-0.7s0.62-1.14,0.62-2.03c0-0.86-0.21-1.53-0.62-1.99
		c-0.41-0.46-0.92-0.7-1.53-0.7c-0.61,0-1.12,0.23-1.54,0.7C128.63,16.91,128.42,17.58,128.42,18.45z"/>
	<path d="M136.85,22.86V10.69h2.33v4.38c0.72-0.82,1.57-1.23,2.56-1.23c1.07,0,1.96,0.39,2.66,1.17c0.7,0.78,1.05,1.89,1.05,3.35
		c0,1.5-0.36,2.67-1.08,3.48c-0.72,0.81-1.59,1.22-2.61,1.22c-0.5,0-1-0.13-1.49-0.38c-0.49-0.25-0.91-0.62-1.27-1.12v1.29H136.85z
		 M139.17,18.26c0,0.91,0.14,1.59,0.43,2.03c0.4,0.62,0.94,0.93,1.61,0.93c0.51,0,0.95-0.22,1.32-0.66
		c0.36-0.44,0.54-1.13,0.54-2.08c0-1.01-0.18-1.73-0.55-2.18c-0.37-0.45-0.83-0.67-1.4-0.67c-0.56,0-1.02,0.22-1.39,0.65
		C139.36,16.71,139.17,17.37,139.17,18.26z"/>
	<path d="M152.44,20.05l2.32,0.39c-0.3,0.85-0.77,1.5-1.41,1.95c-0.65,0.45-1.45,0.67-2.42,0.67c-1.53,0-2.67-0.5-3.4-1.5
		c-0.58-0.8-0.87-1.82-0.87-3.04c0-1.46,0.38-2.6,1.15-3.43c0.76-0.83,1.73-1.24,2.9-1.24c1.31,0,2.35,0.43,3.1,1.3
		c0.76,0.87,1.12,2.19,1.09,3.98h-5.84c0.02,0.69,0.21,1.23,0.56,1.61s0.81,0.58,1.34,0.58c0.37,0,0.67-0.1,0.92-0.3
		C152.13,20.82,152.32,20.49,152.44,20.05z M152.58,17.7c-0.02-0.67-0.19-1.19-0.52-1.54c-0.33-0.35-0.74-0.53-1.21-0.53
		c-0.51,0-0.93,0.19-1.26,0.56c-0.33,0.37-0.5,0.88-0.49,1.51H152.58z"/>
	<path d="M159.03,22.86h-2.33v-8.82h2.17v1.25c0.37-0.59,0.7-0.98,1-1.17s0.63-0.28,1.01-0.28c0.53,0,1.04,0.15,1.54,0.44
		l-0.72,2.03c-0.39-0.25-0.76-0.38-1.1-0.38c-0.33,0-0.6,0.09-0.83,0.27c-0.23,0.18-0.41,0.5-0.54,0.98s-0.2,1.46-0.2,2.96V22.86z"
		/>
	<path d="M167.45,14.04v1.86h-1.59v3.55c0,0.72,0.02,1.14,0.05,1.26c0.03,0.12,0.1,0.22,0.21,0.29c0.11,0.08,0.24,0.12,0.39,0.12
		c0.21,0,0.53-0.08,0.94-0.22l0.2,1.81c-0.54,0.23-1.16,0.35-1.84,0.35c-0.42,0-0.8-0.07-1.14-0.21c-0.34-0.14-0.58-0.32-0.74-0.55
		c-0.16-0.22-0.27-0.53-0.33-0.91c-0.05-0.27-0.07-0.82-0.07-1.64V15.9h-1.07v-1.86h1.07v-1.75l2.34-1.36v3.11H167.45z"/>
	<path d="M168.53,18.33c0-0.77,0.19-1.52,0.57-2.25c0.38-0.73,0.92-1.28,1.62-1.66c0.7-0.38,1.48-0.57,2.34-0.57
		c1.33,0,2.43,0.43,3.28,1.3c0.85,0.87,1.28,1.96,1.28,3.28c0,1.33-0.43,2.44-1.29,3.32c-0.86,0.88-1.94,1.32-3.25,1.32
		c-0.81,0-1.58-0.18-2.31-0.55c-0.73-0.37-1.29-0.9-1.67-1.61C168.72,20.2,168.53,19.34,168.53,18.33z M170.92,18.45
		c0,0.88,0.21,1.54,0.62,2.01s0.93,0.7,1.54,0.7c0.61,0,1.12-0.23,1.53-0.7s0.62-1.14,0.62-2.03c0-0.86-0.21-1.53-0.62-1.99
		c-0.41-0.46-0.92-0.7-1.53-0.7c-0.61,0-1.12,0.23-1.54,0.7C171.13,16.91,170.92,17.58,170.92,18.45z"/>
	<path d="M178.63,20.34l2.34-0.36c0.1,0.45,0.3,0.8,0.61,1.03c0.3,0.24,0.73,0.35,1.28,0.35c0.6,0,1.06-0.11,1.36-0.33
		c0.21-0.15,0.31-0.36,0.31-0.62c0-0.18-0.06-0.32-0.17-0.44c-0.12-0.11-0.38-0.21-0.78-0.31c-1.88-0.42-3.07-0.79-3.58-1.14
		c-0.7-0.48-1.04-1.14-1.04-1.98c0-0.76,0.3-1.41,0.9-1.93s1.54-0.78,2.81-0.78c1.21,0,2.1,0.2,2.69,0.59
		c0.59,0.39,0.99,0.97,1.21,1.74l-2.2,0.41c-0.09-0.34-0.27-0.61-0.54-0.79c-0.26-0.18-0.64-0.27-1.12-0.27
		c-0.62,0-1.05,0.09-1.32,0.26c-0.18,0.12-0.27,0.28-0.27,0.47c0,0.17,0.08,0.31,0.23,0.42c0.21,0.15,0.94,0.37,2.18,0.66
		c1.24,0.28,2.11,0.63,2.6,1.04c0.49,0.41,0.73,0.99,0.73,1.73c0,0.81-0.34,1.5-1.01,2.08c-0.67,0.58-1.67,0.87-3,0.87
		c-1.2,0-2.15-0.24-2.85-0.73S178.85,21.18,178.63,20.34z"/>
	<path d="M201.44,18.38l2.38,0.76c-0.37,1.33-0.97,2.31-1.82,2.96c-0.85,0.64-1.93,0.97-3.23,0.97c-1.62,0-2.94-0.55-3.98-1.66
		c-1.04-1.1-1.56-2.61-1.56-4.53c0-2.03,0.52-3.6,1.57-4.72c1.05-1.12,2.42-1.68,4.13-1.68c1.49,0,2.7,0.44,3.63,1.32
		c0.55,0.52,0.97,1.27,1.25,2.24l-2.43,0.58c-0.14-0.63-0.44-1.13-0.9-1.49c-0.46-0.37-1.01-0.55-1.66-0.55
		c-0.9,0-1.63,0.32-2.2,0.97c-0.56,0.65-0.84,1.7-0.84,3.15c0,1.54,0.28,2.63,0.83,3.29s1.27,0.98,2.16,0.98
		c0.65,0,1.21-0.21,1.68-0.62C200.89,19.93,201.23,19.28,201.44,18.38z"/>
	<path d="M207.65,16.73l-2.12-0.38c0.24-0.85,0.65-1.48,1.23-1.89c0.58-0.41,1.45-0.61,2.59-0.61c1.04,0,1.82,0.12,2.32,0.37
		c0.51,0.25,0.87,0.56,1.08,0.94c0.21,0.38,0.31,1.07,0.31,2.09l-0.03,2.72c0,0.77,0.04,1.35,0.11,1.71
		c0.07,0.37,0.21,0.76,0.42,1.18h-2.31c-0.06-0.15-0.14-0.38-0.22-0.69c-0.04-0.14-0.07-0.23-0.08-0.27
		c-0.4,0.39-0.83,0.68-1.28,0.87c-0.45,0.19-0.94,0.29-1.45,0.29c-0.91,0-1.62-0.25-2.14-0.74c-0.52-0.49-0.79-1.12-0.79-1.87
		c0-0.5,0.12-0.94,0.36-1.33c0.24-0.39,0.57-0.69,1-0.9c0.43-0.21,1.05-0.39,1.86-0.54c1.09-0.21,1.85-0.4,2.27-0.57v-0.23
		c0-0.45-0.11-0.77-0.33-0.96c-0.22-0.19-0.64-0.29-1.25-0.29c-0.41,0-0.74,0.08-0.97,0.25C207.98,16.04,207.8,16.32,207.65,16.73z
		 M210.77,18.62c-0.3,0.1-0.77,0.22-1.42,0.36c-0.65,0.14-1.07,0.27-1.27,0.41c-0.3,0.22-0.46,0.49-0.46,0.82
		c0,0.33,0.12,0.61,0.37,0.85c0.24,0.24,0.55,0.36,0.93,0.36c0.42,0,0.82-0.14,1.2-0.42c0.28-0.21,0.47-0.47,0.56-0.77
		c0.06-0.2,0.09-0.58,0.09-1.14V18.62z"/>
	<path d="M214.54,20.34l2.34-0.36c0.1,0.45,0.3,0.8,0.61,1.03c0.3,0.24,0.73,0.35,1.28,0.35c0.6,0,1.06-0.11,1.36-0.33
		c0.2-0.15,0.31-0.36,0.31-0.62c0-0.18-0.05-0.32-0.17-0.44c-0.12-0.11-0.38-0.21-0.78-0.31c-1.88-0.42-3.07-0.79-3.58-1.14
		c-0.7-0.48-1.05-1.14-1.05-1.98c0-0.76,0.3-1.41,0.91-1.93s1.54-0.78,2.81-0.78c1.21,0,2.1,0.2,2.69,0.59
		c0.59,0.39,0.99,0.97,1.21,1.74l-2.2,0.41c-0.09-0.34-0.27-0.61-0.54-0.79c-0.26-0.18-0.64-0.27-1.12-0.27
		c-0.61,0-1.05,0.09-1.32,0.26c-0.18,0.12-0.27,0.28-0.27,0.47c0,0.17,0.08,0.31,0.23,0.42c0.21,0.15,0.94,0.37,2.18,0.66
		s2.11,0.63,2.6,1.04c0.49,0.41,0.73,0.99,0.73,1.73c0,0.81-0.34,1.5-1.01,2.08c-0.68,0.58-1.67,0.87-3,0.87
		c-1.2,0-2.15-0.24-2.85-0.73C215.22,21.84,214.76,21.18,214.54,20.34z"/>
	<path d="M228.86,14.04v1.86h-1.59v3.55c0,0.72,0.01,1.14,0.04,1.26c0.03,0.12,0.1,0.22,0.21,0.29c0.11,0.08,0.24,0.12,0.39,0.12
		c0.22,0,0.53-0.08,0.94-0.22l0.2,1.81c-0.54,0.23-1.16,0.35-1.84,0.35c-0.42,0-0.8-0.07-1.14-0.21c-0.34-0.14-0.59-0.32-0.74-0.55
		c-0.16-0.22-0.27-0.53-0.33-0.91c-0.05-0.27-0.08-0.82-0.08-1.64V15.9h-1.07v-1.86h1.07v-1.75l2.34-1.36v3.11H228.86z"/>
	<path d="M232.71,22.86h-2.33v-8.82h2.17v1.25c0.37-0.59,0.7-0.98,1-1.17c0.3-0.19,0.63-0.28,1.01-0.28c0.53,0,1.04,0.15,1.54,0.44
		l-0.72,2.03c-0.39-0.25-0.76-0.38-1.1-0.38c-0.33,0-0.6,0.09-0.83,0.27c-0.23,0.18-0.41,0.5-0.54,0.98
		c-0.13,0.47-0.2,1.46-0.2,2.96V22.86z"/>
	<path d="M236.56,18.33c0-0.77,0.19-1.52,0.57-2.25c0.38-0.73,0.92-1.28,1.62-1.66c0.7-0.38,1.48-0.57,2.34-0.57
		c1.33,0,2.43,0.43,3.28,1.3c0.85,0.87,1.28,1.96,1.28,3.28c0,1.33-0.43,2.44-1.29,3.32c-0.86,0.88-1.94,1.32-3.25,1.32
		c-0.81,0-1.58-0.18-2.31-0.55c-0.73-0.37-1.29-0.9-1.67-1.61C236.75,20.2,236.56,19.34,236.56,18.33z M238.95,18.45
		c0,0.88,0.21,1.54,0.62,2.01c0.42,0.46,0.93,0.7,1.54,0.7s1.12-0.23,1.53-0.7c0.41-0.46,0.62-1.14,0.62-2.03
		c0-0.86-0.21-1.53-0.62-1.99c-0.41-0.46-0.92-0.7-1.53-0.7s-1.12,0.23-1.54,0.7C239.15,16.91,238.95,17.58,238.95,18.45z"/>
</g>
<g>
	<path d="M1.52,44.73l3.85-10.02H6.8l4.1,10.02H9.39L8.22,41.7H4.03l-1.1,3.04H1.52z M4.41,40.62h3.4l-1.05-2.78
		C6.45,37,6.21,36.31,6.05,35.77c-0.13,0.64-0.31,1.28-0.54,1.91L4.41,40.62z"/>
	<path d="M16.56,44.73v-1.07c-0.56,0.82-1.33,1.23-2.3,1.23c-0.43,0-0.83-0.08-1.2-0.25c-0.37-0.16-0.65-0.37-0.83-0.62
		c-0.18-0.25-0.31-0.55-0.38-0.91c-0.05-0.24-0.08-0.62-0.08-1.15v-4.5h1.23v4.03c0,0.64,0.03,1.08,0.08,1.3
		c0.08,0.32,0.24,0.58,0.49,0.76c0.25,0.19,0.56,0.28,0.93,0.28s0.72-0.09,1.04-0.28c0.32-0.19,0.55-0.45,0.69-0.77
		c0.13-0.33,0.2-0.8,0.2-1.42v-3.89h1.23v7.26H16.56z"/>
	<path d="M18.77,44.73l2.65-3.77l-2.45-3.49h1.54l1.11,1.7c0.21,0.32,0.38,0.59,0.51,0.81c0.2-0.3,0.39-0.57,0.55-0.8l1.22-1.72
		h1.47l-2.51,3.42l2.7,3.84h-1.51l-1.49-2.26l-0.4-0.61l-1.91,2.86H18.77z"/>
	<path d="M26.6,36.13v-1.42h1.23v1.42H26.6z M26.6,44.73v-7.26h1.23v7.26H26.6z"/>
	<path d="M29.67,44.73V34.71h1.23v10.02H29.67z"/>
	<path d="M32.82,36.13v-1.42h1.23v1.42H32.82z M32.82,44.73v-7.26h1.23v7.26H32.82z"/>
	<path d="M40.66,43.84c-0.46,0.39-0.89,0.66-1.32,0.82c-0.42,0.16-0.87,0.24-1.36,0.24c-0.8,0-1.41-0.19-1.84-0.58
		c-0.43-0.39-0.64-0.89-0.64-1.49c0-0.36,0.08-0.68,0.24-0.97c0.16-0.29,0.37-0.53,0.64-0.71c0.26-0.18,0.56-0.31,0.88-0.4
		c0.24-0.06,0.61-0.12,1.09-0.18c0.99-0.12,1.73-0.26,2.19-0.42c0-0.17,0.01-0.28,0.01-0.32c0-0.5-0.12-0.85-0.35-1.06
		c-0.31-0.28-0.78-0.42-1.4-0.42c-0.58,0-1.01,0.1-1.28,0.3c-0.28,0.2-0.48,0.56-0.61,1.08l-1.2-0.16c0.11-0.52,0.29-0.93,0.54-1.25
		c0.25-0.32,0.61-0.56,1.09-0.73c0.47-0.17,1.02-0.26,1.65-0.26c0.62,0,1.12,0.07,1.51,0.22c0.39,0.15,0.67,0.33,0.85,0.55
		c0.18,0.22,0.31,0.5,0.38,0.84c0.04,0.21,0.06,0.59,0.06,1.13v1.64c0,1.14,0.03,1.87,0.08,2.17c0.05,0.3,0.16,0.59,0.31,0.87H40.9
		C40.78,44.48,40.69,44.18,40.66,43.84z M40.55,41.09c-0.45,0.18-1.12,0.34-2.01,0.46c-0.51,0.07-0.86,0.15-1.07,0.25
		c-0.21,0.09-0.37,0.22-0.49,0.4c-0.11,0.17-0.17,0.37-0.17,0.58c0,0.33,0.12,0.6,0.37,0.82c0.25,0.22,0.61,0.33,1.09,0.33
		c0.47,0,0.9-0.1,1.26-0.31c0.37-0.21,0.64-0.49,0.81-0.85c0.13-0.28,0.2-0.69,0.2-1.23V41.09z"/>
	<path d="M43.69,44.73v-7.26h1.11v1.1c0.28-0.52,0.54-0.85,0.78-1.02s0.5-0.25,0.79-0.25c0.42,0,0.84,0.13,1.26,0.4l-0.42,1.14
		c-0.3-0.18-0.6-0.27-0.9-0.27c-0.27,0-0.51,0.08-0.72,0.24c-0.21,0.16-0.37,0.39-0.46,0.67c-0.14,0.44-0.21,0.92-0.21,1.44v3.8
		H43.69z"/>
	<path d="M56.97,44.73v-0.92c-0.46,0.72-1.14,1.08-2.03,1.08c-0.58,0-1.11-0.16-1.6-0.48s-0.86-0.76-1.13-1.34
		c-0.27-0.57-0.4-1.23-0.4-1.97c0-0.72,0.12-1.38,0.36-1.97c0.24-0.59,0.6-1.04,1.09-1.36c0.48-0.31,1.02-0.47,1.62-0.47
		c0.44,0,0.83,0.09,1.17,0.28c0.34,0.19,0.62,0.43,0.83,0.72v-3.6h1.22v10.02H56.97z M53.08,41.11c0,0.93,0.2,1.62,0.59,2.08
		c0.39,0.46,0.85,0.69,1.39,0.69c0.54,0,1-0.22,1.37-0.66c0.38-0.44,0.56-1.11,0.56-2.01c0-0.99-0.19-1.72-0.57-2.19
		s-0.85-0.7-1.42-0.7c-0.55,0-1,0.22-1.37,0.67C53.26,39.45,53.08,40.15,53.08,41.11z"/>
	<path d="M65.01,42.4l1.27,0.16c-0.2,0.74-0.57,1.32-1.11,1.73c-0.54,0.41-1.23,0.62-2.08,0.62c-1.06,0-1.9-0.33-2.53-0.98
		c-0.62-0.65-0.93-1.57-0.93-2.75c0-1.22,0.31-2.17,0.94-2.84s1.45-1.01,2.45-1.01c0.97,0,1.76,0.33,2.38,0.99s0.92,1.59,0.92,2.79
		c0,0.07,0,0.18-0.01,0.33H60.9c0.05,0.8,0.27,1.41,0.68,1.83c0.41,0.42,0.91,0.64,1.52,0.64c0.45,0,0.84-0.12,1.16-0.36
		C64.57,43.29,64.83,42.92,65.01,42.4z M60.97,40.41h4.05c-0.05-0.61-0.21-1.07-0.46-1.37c-0.39-0.47-0.9-0.71-1.52-0.71
		c-0.56,0-1.04,0.19-1.42,0.57C61.23,39.27,61.01,39.77,60.97,40.41z"/>
	<path d="M71.43,41.51l1.25-0.11c0.06,0.5,0.2,0.91,0.41,1.23c0.22,0.32,0.55,0.58,1.01,0.78c0.46,0.2,0.97,0.3,1.54,0.3
		c0.51,0,0.95-0.08,1.34-0.23c0.39-0.15,0.68-0.36,0.87-0.62c0.19-0.26,0.28-0.55,0.28-0.86c0-0.31-0.09-0.59-0.27-0.82
		c-0.18-0.24-0.48-0.43-0.9-0.59c-0.27-0.11-0.86-0.27-1.78-0.49c-0.92-0.22-1.57-0.43-1.93-0.63c-0.48-0.25-0.83-0.56-1.07-0.93
		c-0.24-0.37-0.35-0.79-0.35-1.25c0-0.51,0.14-0.98,0.43-1.42c0.29-0.44,0.71-0.77,1.26-1c0.55-0.23,1.17-0.34,1.84-0.34
		c0.74,0,1.4,0.12,1.97,0.36c0.57,0.24,1,0.59,1.31,1.06c0.31,0.46,0.47,0.99,0.49,1.58l-1.27,0.1c-0.07-0.63-0.3-1.11-0.69-1.44
		c-0.39-0.32-0.98-0.49-1.75-0.49c-0.8,0-1.39,0.15-1.75,0.44c-0.37,0.29-0.55,0.65-0.55,1.06c0,0.36,0.13,0.66,0.39,0.89
		c0.26,0.23,0.92,0.47,2,0.71c1.08,0.24,1.82,0.46,2.22,0.64c0.58,0.27,1.01,0.61,1.29,1.02c0.28,0.41,0.42,0.89,0.42,1.42
		c0,0.53-0.15,1.04-0.46,1.51c-0.3,0.47-0.74,0.84-1.32,1.1c-0.57,0.26-1.22,0.39-1.93,0.39c-0.91,0-1.67-0.13-2.28-0.4
		c-0.61-0.26-1.09-0.66-1.44-1.19C71.63,42.78,71.44,42.18,71.43,41.51z"/>
	<path d="M85.81,44.73v-1.07c-0.56,0.82-1.33,1.23-2.3,1.23c-0.43,0-0.83-0.08-1.2-0.25c-0.37-0.16-0.65-0.37-0.83-0.62
		c-0.18-0.25-0.31-0.55-0.38-0.91c-0.05-0.24-0.08-0.62-0.08-1.15v-4.5h1.23v4.03c0,0.64,0.03,1.08,0.08,1.3
		c0.08,0.32,0.24,0.58,0.49,0.76c0.25,0.19,0.56,0.28,0.93,0.28s0.72-0.09,1.04-0.28c0.32-0.19,0.55-0.45,0.69-0.77
		c0.13-0.33,0.2-0.8,0.2-1.42v-3.89h1.23v7.26H85.81z"/>
	<path d="M88.84,47.52V37.47h1.12v0.94c0.26-0.37,0.56-0.65,0.9-0.83c0.33-0.18,0.74-0.28,1.21-0.28c0.62,0,1.17,0.16,1.64,0.48
		c0.47,0.32,0.83,0.77,1.07,1.35c0.24,0.58,0.36,1.22,0.36,1.91c0,0.74-0.13,1.41-0.4,2.01c-0.27,0.6-0.65,1.05-1.16,1.37
		c-0.51,0.32-1.04,0.48-1.6,0.48c-0.41,0-0.78-0.09-1.1-0.26c-0.33-0.17-0.59-0.39-0.8-0.66v3.53H88.84z M89.96,41.15
		c0,0.93,0.19,1.62,0.57,2.07c0.38,0.45,0.84,0.67,1.37,0.67c0.55,0,1.02-0.23,1.41-0.69c0.39-0.46,0.58-1.18,0.58-2.15
		c0-0.92-0.19-1.62-0.57-2.08c-0.38-0.46-0.83-0.69-1.36-0.69c-0.52,0-0.99,0.25-1.39,0.73C90.16,39.5,89.96,40.21,89.96,41.15z"/>
	<path d="M101.6,42.4l1.27,0.16c-0.2,0.74-0.57,1.32-1.11,1.73c-0.54,0.41-1.23,0.62-2.08,0.62c-1.06,0-1.9-0.33-2.53-0.98
		c-0.62-0.65-0.93-1.57-0.93-2.75c0-1.22,0.31-2.17,0.94-2.84s1.45-1.01,2.45-1.01c0.97,0,1.76,0.33,2.38,0.99s0.92,1.59,0.92,2.79
		c0,0.07,0,0.18-0.01,0.33h-5.41c0.05,0.8,0.27,1.41,0.68,1.83c0.41,0.42,0.91,0.64,1.52,0.64c0.45,0,0.84-0.12,1.16-0.36
		C101.16,43.29,101.41,42.92,101.6,42.4z M97.56,40.41h4.05c-0.05-0.61-0.21-1.07-0.46-1.37c-0.39-0.47-0.9-0.71-1.52-0.71
		c-0.56,0-1.04,0.19-1.42,0.57C97.81,39.27,97.6,39.77,97.56,40.41z"/>
	<path d="M104.4,44.73v-7.26h1.11v1.1c0.28-0.52,0.54-0.85,0.78-1.02s0.5-0.25,0.79-0.25c0.42,0,0.84,0.13,1.26,0.4l-0.42,1.14
		c-0.3-0.18-0.6-0.27-0.9-0.27c-0.27,0-0.51,0.08-0.72,0.24c-0.21,0.16-0.37,0.39-0.46,0.67c-0.14,0.44-0.21,0.92-0.21,1.44v3.8
		H104.4z"/>
	<path d="M111.09,44.73l-2.76-7.26h1.3l1.56,4.35c0.17,0.47,0.32,0.96,0.46,1.46c0.11-0.38,0.26-0.84,0.46-1.38l1.61-4.43h1.26
		l-2.75,7.26H111.09z"/>
	<path d="M116.08,36.13v-1.42h1.23v1.42H116.08z M116.08,44.73v-7.26h1.23v7.26H116.08z"/>
	<path d="M118.7,42.57l1.22-0.19c0.07,0.49,0.26,0.86,0.57,1.12c0.31,0.26,0.75,0.39,1.31,0.39c0.57,0,0.98-0.12,1.26-0.34
		c0.27-0.23,0.41-0.5,0.41-0.81c0-0.28-0.12-0.5-0.36-0.66c-0.17-0.11-0.59-0.25-1.26-0.42c-0.9-0.23-1.53-0.42-1.88-0.59
		c-0.35-0.17-0.61-0.4-0.79-0.69c-0.18-0.29-0.27-0.62-0.27-0.97c0-0.32,0.07-0.62,0.22-0.9c0.15-0.28,0.35-0.5,0.6-0.69
		c0.19-0.14,0.45-0.26,0.78-0.36c0.33-0.1,0.68-0.15,1.06-0.15c0.57,0,1.07,0.08,1.5,0.25s0.75,0.39,0.95,0.67
		c0.21,0.28,0.35,0.65,0.42,1.12l-1.2,0.16c-0.05-0.37-0.21-0.67-0.47-0.88c-0.26-0.21-0.63-0.31-1.11-0.31
		c-0.56,0-0.97,0.09-1.21,0.28c-0.24,0.19-0.36,0.41-0.36,0.66c0,0.16,0.05,0.3,0.15,0.43c0.1,0.13,0.26,0.24,0.47,0.33
		c0.12,0.05,0.49,0.15,1.09,0.31c0.87,0.23,1.48,0.42,1.82,0.57c0.34,0.15,0.61,0.36,0.81,0.65c0.2,0.28,0.29,0.63,0.29,1.05
		c0,0.41-0.12,0.8-0.36,1.16c-0.24,0.36-0.58,0.64-1.04,0.84c-0.45,0.2-0.96,0.3-1.53,0.3c-0.94,0-1.66-0.2-2.16-0.59
		C119.15,43.92,118.83,43.34,118.7,42.57z"/>
	<path d="M126.19,36.13v-1.42h1.23v1.42H126.19z M126.19,44.73v-7.26h1.23v7.26H126.19z"/>
	<path d="M128.84,41.1c0-1.34,0.37-2.34,1.12-2.99c0.62-0.54,1.39-0.81,2.28-0.81c1,0,1.81,0.33,2.45,0.98
		c0.63,0.65,0.95,1.56,0.95,2.71c0,0.93-0.14,1.67-0.42,2.2c-0.28,0.54-0.69,0.95-1.22,1.25c-0.54,0.3-1.12,0.44-1.75,0.44
		c-1.02,0-1.84-0.33-2.46-0.98C129.15,43.27,128.84,42.33,128.84,41.1z M130.1,41.1c0,0.93,0.2,1.63,0.61,2.09
		c0.41,0.46,0.92,0.69,1.53,0.69c0.61,0,1.12-0.23,1.52-0.7c0.41-0.46,0.61-1.17,0.61-2.13c0-0.9-0.2-1.58-0.61-2.04
		c-0.41-0.46-0.92-0.69-1.52-0.69c-0.62,0-1.12,0.23-1.53,0.69C130.31,39.48,130.1,40.17,130.1,41.1z M131.56,36.57l0.91-1.91h1.61
		l-1.5,1.91H131.56z"/>
	<path d="M137.08,44.73v-7.26h1.11v1.03c0.53-0.8,1.3-1.2,2.31-1.2c0.44,0,0.84,0.08,1.21,0.24c0.37,0.16,0.64,0.36,0.82,0.62
		c0.18,0.26,0.31,0.56,0.38,0.91c0.05,0.23,0.07,0.63,0.07,1.2v4.46h-1.23v-4.42c0-0.5-0.05-0.88-0.14-1.12
		c-0.1-0.25-0.27-0.45-0.51-0.6c-0.24-0.15-0.53-0.22-0.86-0.22c-0.52,0-0.98,0.17-1.36,0.5c-0.38,0.33-0.57,0.96-0.57,1.89v3.96
		H137.08z"/>
</g>
<g>
	<path d="M2.1,61.63c0-1.66,0.45-2.97,1.34-3.91c0.89-0.94,2.05-1.41,3.46-1.41c0.93,0,1.76,0.22,2.5,0.66
		c0.74,0.44,1.31,1.06,1.7,1.85c0.39,0.79,0.58,1.69,0.58,2.69c0,1.02-0.21,1.92-0.62,2.73c-0.41,0.8-0.99,1.41-1.74,1.82
		c-0.75,0.41-1.56,0.62-2.43,0.62c-0.94,0-1.79-0.23-2.53-0.68c-0.74-0.46-1.31-1.08-1.69-1.87C2.29,63.34,2.1,62.51,2.1,61.63z
		 M3.46,61.65c0,1.21,0.32,2.16,0.97,2.85c0.65,0.7,1.46,1.04,2.44,1.04c1,0,1.82-0.35,2.46-1.05c0.64-0.7,0.97-1.7,0.97-2.99
		c0-0.82-0.14-1.53-0.41-2.14c-0.28-0.61-0.68-1.08-1.21-1.42c-0.53-0.33-1.13-0.5-1.79-0.5c-0.94,0-1.75,0.32-2.42,0.97
		C3.8,59.06,3.46,60.14,3.46,61.65z"/>
	<path d="M13.23,69.29V59.25h1.12v0.94c0.26-0.37,0.56-0.65,0.9-0.83s0.74-0.28,1.21-0.28c0.62,0,1.17,0.16,1.64,0.48
		c0.47,0.32,0.83,0.77,1.07,1.35s0.36,1.22,0.36,1.91c0,0.74-0.13,1.41-0.4,2.01c-0.27,0.59-0.65,1.05-1.16,1.37
		c-0.51,0.32-1.04,0.48-1.6,0.48c-0.41,0-0.78-0.09-1.1-0.26c-0.33-0.17-0.59-0.39-0.8-0.66v3.53H13.23z M14.35,62.92
		c0,0.93,0.19,1.62,0.57,2.07c0.38,0.45,0.84,0.67,1.37,0.67c0.55,0,1.02-0.23,1.4-0.69c0.39-0.46,0.58-1.18,0.58-2.15
		c0-0.93-0.19-1.62-0.57-2.08c-0.38-0.46-0.83-0.69-1.36-0.69c-0.52,0-0.99,0.25-1.39,0.73C14.55,61.27,14.35,61.98,14.35,62.92z"/>
	<path d="M25.99,64.17l1.27,0.16c-0.2,0.74-0.57,1.32-1.11,1.73s-1.23,0.62-2.08,0.62c-1.06,0-1.9-0.33-2.53-0.98
		c-0.62-0.65-0.93-1.57-0.93-2.75c0-1.22,0.31-2.17,0.94-2.84c0.63-0.67,1.45-1.01,2.45-1.01c0.97,0,1.76,0.33,2.38,0.99
		c0.62,0.66,0.92,1.59,0.92,2.79c0,0.07,0,0.18-0.01,0.33h-5.41c0.04,0.8,0.27,1.41,0.68,1.83s0.91,0.64,1.52,0.64
		c0.45,0,0.84-0.12,1.16-0.36C25.55,65.07,25.8,64.69,25.99,64.17z M21.95,62.18H26c-0.05-0.61-0.21-1.07-0.46-1.37
		c-0.39-0.47-0.9-0.71-1.52-0.71c-0.56,0-1.04,0.19-1.43,0.57C22.2,61.04,21.99,61.55,21.95,62.18z"/>
	<path d="M28.79,66.51v-7.26h1.11v1.1c0.28-0.52,0.54-0.85,0.78-1.02c0.24-0.16,0.5-0.25,0.79-0.25c0.42,0,0.84,0.13,1.26,0.4
		l-0.42,1.14c-0.3-0.18-0.6-0.27-0.9-0.27c-0.27,0-0.51,0.08-0.72,0.24c-0.21,0.16-0.37,0.39-0.46,0.67
		c-0.14,0.44-0.21,0.92-0.21,1.44v3.8H28.79z"/>
	<path d="M38.2,65.61c-0.46,0.39-0.89,0.66-1.32,0.82c-0.42,0.16-0.87,0.24-1.36,0.24c-0.8,0-1.41-0.2-1.84-0.58
		s-0.64-0.89-0.64-1.49c0-0.36,0.08-0.68,0.24-0.97c0.16-0.29,0.37-0.53,0.64-0.71c0.26-0.18,0.56-0.31,0.88-0.4
		c0.24-0.06,0.61-0.13,1.09-0.18c0.99-0.12,1.72-0.26,2.19-0.42c0-0.17,0.01-0.28,0.01-0.32c0-0.5-0.12-0.85-0.35-1.06
		c-0.31-0.28-0.78-0.42-1.4-0.42c-0.58,0-1.01,0.1-1.28,0.3c-0.28,0.2-0.48,0.56-0.61,1.08l-1.2-0.16c0.11-0.52,0.29-0.93,0.54-1.25
		c0.25-0.32,0.61-0.56,1.09-0.73s1.02-0.26,1.65-0.26c0.62,0,1.12,0.07,1.51,0.22c0.39,0.15,0.67,0.33,0.85,0.55
		c0.18,0.22,0.31,0.5,0.38,0.84c0.04,0.21,0.06,0.59,0.06,1.13v1.64c0,1.14,0.03,1.87,0.08,2.17c0.05,0.3,0.16,0.59,0.31,0.87h-1.29
		C38.32,66.25,38.24,65.95,38.2,65.61z M38.1,62.86c-0.45,0.18-1.12,0.34-2.01,0.46c-0.51,0.07-0.86,0.15-1.07,0.25
		c-0.21,0.09-0.37,0.22-0.49,0.4c-0.11,0.18-0.17,0.37-0.17,0.58c0,0.33,0.12,0.6,0.37,0.82c0.25,0.22,0.61,0.33,1.09,0.33
		c0.47,0,0.9-0.1,1.26-0.31c0.37-0.21,0.64-0.49,0.81-0.85c0.13-0.28,0.2-0.69,0.2-1.23V62.86z"/>
	<path d="M45.99,63.85l1.21,0.16c-0.13,0.83-0.47,1.49-1.02,1.96c-0.54,0.47-1.21,0.71-2.01,0.71c-0.99,0-1.79-0.33-2.4-0.97
		c-0.6-0.65-0.91-1.58-0.91-2.79c0-0.78,0.13-1.47,0.39-2.06s0.66-1.03,1.19-1.32c0.53-0.29,1.11-0.44,1.73-0.44
		c0.79,0,1.43,0.2,1.93,0.6c0.5,0.4,0.82,0.96,0.96,1.7l-1.2,0.18c-0.11-0.49-0.32-0.85-0.61-1.1c-0.29-0.25-0.64-0.37-1.05-0.37
		c-0.62,0-1.12,0.22-1.51,0.67s-0.58,1.15-0.58,2.11c0,0.97,0.19,1.68,0.56,2.13c0.37,0.44,0.86,0.66,1.46,0.66
		c0.48,0,0.89-0.15,1.21-0.44C45.7,64.92,45.9,64.46,45.99,63.85z"/>
	<path d="M48.26,57.9v-1.42h1.23v1.42H48.26z M48.26,66.51v-7.26h1.23v7.26H48.26z"/>
	<path d="M50.91,62.88c0-1.34,0.37-2.34,1.12-2.99c0.62-0.54,1.38-0.81,2.28-0.81c1,0,1.81,0.33,2.45,0.98
		c0.63,0.65,0.95,1.56,0.95,2.71c0,0.93-0.14,1.67-0.42,2.2c-0.28,0.54-0.69,0.95-1.22,1.25c-0.54,0.3-1.12,0.44-1.75,0.44
		c-1.02,0-1.84-0.33-2.46-0.98C51.22,65.04,50.91,64.1,50.91,62.88z M52.17,62.88c0,0.93,0.2,1.63,0.61,2.09
		c0.41,0.46,0.92,0.69,1.53,0.69c0.61,0,1.12-0.23,1.52-0.7s0.61-1.17,0.61-2.13c0-0.9-0.2-1.58-0.61-2.04
		c-0.41-0.46-0.92-0.69-1.52-0.69c-0.62,0-1.12,0.23-1.53,0.69C52.37,61.25,52.17,61.95,52.17,62.88z"/>
	<path d="M59.15,66.51v-7.26h1.11v1.03c0.53-0.8,1.3-1.2,2.31-1.2c0.44,0,0.84,0.08,1.21,0.24c0.37,0.16,0.64,0.36,0.82,0.62
		c0.18,0.25,0.31,0.56,0.38,0.91c0.05,0.23,0.07,0.63,0.07,1.2v4.46h-1.23v-4.42c0-0.5-0.05-0.88-0.14-1.12
		c-0.1-0.25-0.27-0.45-0.51-0.59c-0.24-0.15-0.53-0.22-0.86-0.22c-0.52,0-0.98,0.17-1.36,0.5c-0.38,0.33-0.57,0.96-0.57,1.89v3.96
		H59.15z"/>
	<path d="M71.91,64.17l1.27,0.16c-0.2,0.74-0.57,1.32-1.11,1.73s-1.24,0.62-2.08,0.62c-1.06,0-1.9-0.33-2.53-0.98
		c-0.62-0.65-0.93-1.57-0.93-2.75c0-1.22,0.31-2.17,0.94-2.84c0.63-0.67,1.44-1.01,2.45-1.01c0.97,0,1.76,0.33,2.38,0.99
		c0.62,0.66,0.92,1.59,0.92,2.79c0,0.07,0,0.18-0.01,0.33H67.8c0.05,0.8,0.27,1.41,0.68,1.83s0.91,0.64,1.52,0.64
		c0.45,0,0.84-0.12,1.16-0.36C71.47,65.07,71.72,64.69,71.91,64.17z M67.87,62.18h4.05c-0.05-0.61-0.21-1.07-0.46-1.37
		c-0.39-0.47-0.9-0.71-1.52-0.71c-0.57,0-1.04,0.19-1.42,0.57C68.12,61.04,67.91,61.55,67.87,62.18z"/>
	<path d="M74.23,64.34l1.22-0.19c0.07,0.49,0.26,0.86,0.57,1.12c0.31,0.26,0.75,0.39,1.31,0.39c0.57,0,0.98-0.12,1.26-0.35
		c0.27-0.23,0.41-0.5,0.41-0.81c0-0.28-0.12-0.5-0.36-0.66c-0.17-0.11-0.59-0.25-1.26-0.42c-0.9-0.23-1.53-0.42-1.88-0.59
		c-0.35-0.17-0.61-0.4-0.79-0.69c-0.18-0.29-0.27-0.62-0.27-0.97c0-0.32,0.07-0.62,0.22-0.9c0.15-0.28,0.35-0.5,0.6-0.69
		c0.19-0.14,0.45-0.26,0.78-0.36c0.33-0.1,0.69-0.15,1.06-0.15c0.57,0,1.07,0.08,1.5,0.25c0.43,0.16,0.75,0.39,0.95,0.67
		s0.35,0.66,0.42,1.12l-1.2,0.16c-0.05-0.37-0.21-0.67-0.47-0.88c-0.26-0.21-0.63-0.31-1.11-0.31c-0.56,0-0.97,0.09-1.21,0.28
		c-0.24,0.19-0.36,0.41-0.36,0.66c0,0.16,0.05,0.3,0.15,0.43c0.1,0.13,0.26,0.24,0.47,0.33c0.12,0.04,0.49,0.15,1.09,0.31
		c0.87,0.23,1.48,0.42,1.82,0.57c0.34,0.15,0.61,0.36,0.81,0.65c0.2,0.28,0.29,0.63,0.29,1.05c0,0.41-0.12,0.8-0.36,1.16
		c-0.24,0.36-0.58,0.64-1.04,0.84s-0.96,0.3-1.53,0.3c-0.94,0-1.66-0.2-2.16-0.59C74.68,65.69,74.37,65.11,74.23,64.34z"/>
	<path d="M85.97,69.45V56.32h1.07v13.14H85.97z"/>
	<path d="M97.98,62.58V61.4l4.25-0.01v3.72c-0.65,0.52-1.32,0.91-2.02,1.17c-0.69,0.26-1.4,0.39-2.13,0.39
		c-0.98,0-1.88-0.21-2.68-0.63c-0.8-0.42-1.41-1.03-1.82-1.83c-0.41-0.8-0.62-1.69-0.62-2.67c0-0.98,0.2-1.89,0.61-2.73
		c0.41-0.84,1-1.47,1.76-1.88s1.65-0.62,2.65-0.62c0.72,0,1.38,0.12,1.96,0.35c0.59,0.24,1.04,0.56,1.38,0.98
		c0.33,0.42,0.58,0.97,0.76,1.64l-1.2,0.33c-0.15-0.51-0.34-0.91-0.56-1.2c-0.22-0.29-0.54-0.53-0.96-0.7
		c-0.42-0.17-0.88-0.26-1.38-0.26c-0.61,0-1.13,0.09-1.57,0.28s-0.8,0.43-1.07,0.73c-0.27,0.3-0.48,0.63-0.63,0.99
		c-0.26,0.62-0.38,1.29-0.38,2.02c0,0.89,0.15,1.64,0.46,2.24c0.31,0.6,0.76,1.05,1.34,1.34c0.59,0.29,1.21,0.44,1.87,0.44
		c0.57,0,1.13-0.11,1.68-0.33c0.55-0.22,0.96-0.46,1.24-0.71v-1.87H97.98z"/>
	<path d="M103.08,66.51l3.85-10.02h1.43l4.1,10.02h-1.51l-1.17-3.04h-4.19l-1.1,3.04H103.08z M105.98,62.39h3.4l-1.05-2.78
		c-0.32-0.84-0.56-1.54-0.71-2.08c-0.13,0.64-0.31,1.28-0.54,1.91L105.98,62.39z"/>
	<path d="M113.47,66.51V56.49h3.76c0.77,0,1.38,0.1,1.84,0.3c0.46,0.2,0.83,0.52,1.09,0.94c0.26,0.42,0.39,0.86,0.39,1.32
		c0,0.43-0.12,0.83-0.35,1.21c-0.23,0.38-0.58,0.68-1.05,0.92c0.61,0.18,1.07,0.48,1.4,0.91c0.33,0.43,0.49,0.93,0.49,1.52
		c0,0.47-0.1,0.91-0.3,1.31c-0.2,0.4-0.44,0.71-0.73,0.93s-0.66,0.38-1.1,0.5c-0.44,0.11-0.98,0.17-1.62,0.17H113.47z M114.79,60.7
		h2.17c0.59,0,1.01-0.04,1.26-0.12c0.34-0.1,0.59-0.27,0.76-0.5c0.17-0.23,0.26-0.52,0.26-0.88c0-0.33-0.08-0.63-0.24-0.88
		s-0.39-0.43-0.68-0.52c-0.3-0.09-0.8-0.14-1.52-0.14h-2V60.7z M114.79,65.32h2.5c0.43,0,0.73-0.02,0.9-0.05
		c0.31-0.05,0.56-0.15,0.77-0.27c0.21-0.13,0.37-0.31,0.51-0.56c0.13-0.24,0.2-0.53,0.2-0.84c0-0.37-0.1-0.7-0.29-0.97
		c-0.19-0.28-0.46-0.47-0.8-0.58c-0.34-0.11-0.83-0.17-1.47-0.17h-2.32V65.32z"/>
	<path d="M121.76,66.51l3.85-10.02h1.43l4.1,10.02h-1.51l-1.17-3.04h-4.19l-1.1,3.04H121.76z M124.65,62.39h3.4L127,59.62
		c-0.32-0.84-0.56-1.54-0.71-2.08c-0.13,0.64-0.31,1.28-0.54,1.91L124.65,62.39z"/>
	<path d="M132.22,66.51V56.49h4.44c0.89,0,1.57,0.09,2.04,0.27c0.46,0.18,0.84,0.5,1.11,0.95c0.28,0.46,0.42,0.96,0.42,1.51
		c0,0.71-0.23,1.31-0.69,1.8c-0.46,0.49-1.17,0.8-2.13,0.93c0.35,0.17,0.62,0.33,0.8,0.5c0.39,0.36,0.75,0.8,1.1,1.33l1.74,2.73
		h-1.67l-1.33-2.08c-0.39-0.6-0.71-1.06-0.96-1.38c-0.25-0.32-0.48-0.54-0.67-0.67c-0.2-0.13-0.4-0.22-0.61-0.27
		c-0.15-0.03-0.4-0.05-0.74-0.05h-1.54v4.45H132.22z M133.55,60.91h2.85c0.61,0,1.08-0.06,1.42-0.19c0.34-0.12,0.6-0.33,0.78-0.6
		c0.18-0.28,0.27-0.58,0.27-0.9c0-0.47-0.17-0.86-0.52-1.17c-0.34-0.31-0.89-0.46-1.63-0.46h-3.17V60.91z"/>
</g>
</svg>
