<?xml version="1.0" encoding="utf-8"?>
<!-- Generator: Adobe Illustrator 25.4.1, SVG Export Plug-In . SVG Version: 6.00 Build 0)  -->
<svg version="1.1" id="Capa_1" xmlns="http://www.w3.org/2000/svg" xmlns:xlink="http://www.w3.org/1999/xlink" x="0px" y="0px"
	 viewBox="0 0 184 7" style="enable-background:new 0 0 184 7;" xml:space="preserve">
<style type="text/css">
	.st0{fill:#3F3E3E;}
</style>
<g>
	<path class="st0" d="M0.47,5.52V0.51h0.62v5.01H0.47z"/>
	<path class="st0" d="M2.21,5.52v-0.7h0.7v0.7H2.21z"/>
	<path class="st0" d="M3.98,5.52V1.89h0.55v0.55C4.67,2.18,4.8,2.01,4.92,1.93c0.12-0.08,0.25-0.12,0.4-0.12
		c0.21,0,0.42,0.07,0.63,0.2L5.74,2.58c-0.15-0.09-0.3-0.13-0.45-0.13c-0.13,0-0.26,0.04-0.36,0.12S4.74,2.76,4.69,2.9
		c-0.07,0.22-0.1,0.46-0.1,0.72v1.9H3.98z"/>
	<path class="st0" d="M6.08,3.71c0-0.67,0.19-1.17,0.56-1.49c0.31-0.27,0.69-0.4,1.14-0.4c0.5,0,0.91,0.16,1.22,0.49
		s0.48,0.78,0.48,1.36c0,0.47-0.07,0.83-0.21,1.1C9.14,5.02,8.93,5.23,8.66,5.38C8.4,5.53,8.1,5.6,7.79,5.6
		c-0.51,0-0.92-0.16-1.23-0.49C6.24,4.79,6.08,4.32,6.08,3.71z M6.72,3.71c0,0.46,0.1,0.81,0.3,1.04S7.48,5.1,7.79,5.1
		c0.3,0,0.56-0.12,0.76-0.35c0.2-0.23,0.3-0.59,0.3-1.06c0-0.45-0.1-0.79-0.31-1.02S8.09,2.32,7.79,2.32
		c-0.31,0-0.56,0.12-0.77,0.35S6.72,3.24,6.72,3.71z"/>
	<path class="st0" d="M9.96,4.44l0.61-0.1c0.03,0.24,0.13,0.43,0.29,0.56c0.16,0.13,0.37,0.2,0.65,0.2c0.28,0,0.49-0.06,0.63-0.17
		s0.21-0.25,0.21-0.41c0-0.14-0.06-0.25-0.18-0.33c-0.08-0.05-0.29-0.12-0.63-0.21c-0.45-0.11-0.76-0.21-0.94-0.3
		c-0.18-0.08-0.31-0.2-0.4-0.34c-0.09-0.15-0.14-0.31-0.14-0.49c0-0.16,0.04-0.31,0.11-0.45c0.07-0.14,0.18-0.25,0.3-0.34
		c0.1-0.07,0.23-0.13,0.39-0.18c0.16-0.05,0.34-0.07,0.53-0.07c0.28,0,0.54,0.04,0.75,0.12s0.37,0.19,0.48,0.33
		c0.1,0.14,0.17,0.33,0.21,0.56l-0.6,0.08C12.21,2.72,12.13,2.58,12,2.47s-0.32-0.16-0.56-0.16c-0.28,0-0.48,0.05-0.6,0.14
		c-0.12,0.09-0.18,0.2-0.18,0.33c0,0.08,0.03,0.15,0.08,0.22c0.05,0.07,0.13,0.12,0.24,0.16c0.06,0.02,0.24,0.08,0.54,0.16
		c0.43,0.12,0.74,0.21,0.91,0.29s0.31,0.18,0.4,0.32c0.1,0.14,0.15,0.32,0.15,0.53c0,0.21-0.06,0.4-0.18,0.58
		c-0.12,0.18-0.29,0.32-0.52,0.42c-0.23,0.1-0.48,0.15-0.77,0.15c-0.47,0-0.83-0.1-1.08-0.29C10.19,5.11,10.03,4.82,9.96,4.44z"/>
	<path class="st0" d="M16.08,5.07c-0.23,0.19-0.45,0.33-0.66,0.41c-0.21,0.08-0.44,0.12-0.68,0.12c-0.4,0-0.71-0.1-0.92-0.29
		c-0.21-0.2-0.32-0.44-0.32-0.75c0-0.18,0.04-0.34,0.12-0.49c0.08-0.15,0.19-0.26,0.32-0.35s0.28-0.16,0.44-0.2
		c0.12-0.03,0.3-0.06,0.55-0.09c0.5-0.06,0.86-0.13,1.1-0.21c0-0.08,0-0.14,0-0.16c0-0.25-0.06-0.43-0.17-0.53
		c-0.16-0.14-0.39-0.21-0.7-0.21c-0.29,0-0.5,0.05-0.64,0.15c-0.14,0.1-0.24,0.28-0.31,0.54l-0.6-0.08
		c0.05-0.26,0.14-0.47,0.27-0.62c0.12-0.16,0.31-0.28,0.54-0.37c0.24-0.08,0.51-0.13,0.82-0.13c0.31,0,0.56,0.04,0.75,0.11
		s0.34,0.17,0.43,0.28c0.09,0.11,0.16,0.25,0.19,0.42c0.02,0.1,0.03,0.29,0.03,0.57V4c0,0.57,0.01,0.93,0.04,1.09
		c0.03,0.15,0.08,0.3,0.16,0.44H16.2C16.13,5.39,16.09,5.24,16.08,5.07z M16.02,3.7c-0.22,0.09-0.56,0.17-1,0.23
		c-0.25,0.04-0.43,0.08-0.54,0.12c-0.1,0.05-0.19,0.11-0.24,0.2s-0.09,0.19-0.09,0.29c0,0.16,0.06,0.3,0.19,0.41
		c0.12,0.11,0.3,0.16,0.54,0.16c0.24,0,0.45-0.05,0.63-0.16s0.32-0.25,0.41-0.42c0.07-0.14,0.1-0.34,0.1-0.62V3.7z"/>
	<path class="st0" d="M17.59,5.52V1.89h0.55v0.55c0.14-0.26,0.27-0.43,0.39-0.51c0.12-0.08,0.25-0.12,0.4-0.12
		c0.21,0,0.42,0.07,0.63,0.2l-0.21,0.57c-0.15-0.09-0.3-0.13-0.45-0.13c-0.13,0-0.26,0.04-0.36,0.12s-0.18,0.19-0.23,0.34
		c-0.07,0.22-0.1,0.46-0.1,0.72v1.9H17.59z"/>
	<path class="st0" d="M19.93,1.22V0.51h0.62v0.71H19.93z M19.93,5.52V1.89h0.62v3.63H19.93z"/>
	<path class="st0" d="M21.26,3.71c0-0.67,0.19-1.17,0.56-1.49c0.31-0.27,0.69-0.4,1.14-0.4c0.5,0,0.91,0.16,1.22,0.49
		c0.32,0.33,0.47,0.78,0.47,1.36c0,0.47-0.07,0.83-0.21,1.1c-0.14,0.27-0.34,0.48-0.61,0.62c-0.27,0.15-0.56,0.22-0.88,0.22
		c-0.51,0-0.92-0.16-1.23-0.49C21.41,4.79,21.26,4.32,21.26,3.71z M21.89,3.71c0,0.46,0.1,0.81,0.3,1.04
		c0.2,0.23,0.46,0.35,0.77,0.35c0.31,0,0.56-0.12,0.76-0.35s0.3-0.59,0.3-1.06c0-0.45-0.1-0.79-0.3-1.02
		c-0.21-0.23-0.46-0.35-0.76-0.35c-0.31,0-0.56,0.12-0.77,0.35C21.99,2.89,21.89,3.24,21.89,3.71z"/>
	<path class="st0" d="M28.89,4.96c-0.15,0.17-0.31,0.31-0.5,0.41s-0.37,0.16-0.55,0.16c-0.2,0-0.4-0.06-0.59-0.18
		c-0.19-0.12-0.35-0.3-0.47-0.55C26.66,4.56,26.6,4.29,26.6,4c0-0.36,0.09-0.73,0.28-1.09c0.19-0.36,0.42-0.64,0.69-0.82
		s0.54-0.27,0.8-0.27c0.2,0,0.39,0.05,0.57,0.16c0.18,0.1,0.33,0.26,0.46,0.47l0.12-0.53h0.61l-0.49,2.29
		c-0.07,0.32-0.1,0.5-0.1,0.53c0,0.06,0.02,0.12,0.07,0.16c0.05,0.04,0.1,0.07,0.17,0.07c0.12,0,0.28-0.07,0.48-0.21
		c0.26-0.18,0.46-0.43,0.62-0.73S31.1,3.4,31.1,3.07c0-0.38-0.1-0.74-0.29-1.07c-0.2-0.33-0.49-0.59-0.87-0.79
		c-0.39-0.2-0.81-0.3-1.28-0.3c-0.53,0-1.02,0.12-1.46,0.37c-0.44,0.25-0.78,0.61-1.03,1.07c-0.24,0.47-0.36,0.96-0.36,1.5
		c0,0.56,0.12,1.04,0.36,1.44c0.24,0.4,0.59,0.7,1.05,0.89c0.46,0.19,0.97,0.29,1.53,0.29c0.6,0,1.1-0.1,1.5-0.3
		c0.4-0.2,0.71-0.44,0.91-0.73h0.62c-0.12,0.24-0.32,0.48-0.6,0.73c-0.28,0.25-0.62,0.45-1.01,0.59c-0.39,0.14-0.86,0.22-1.41,0.22
		c-0.51,0-0.97-0.06-1.4-0.19c-0.43-0.13-0.79-0.33-1.09-0.59s-0.53-0.56-0.68-0.9c-0.19-0.43-0.29-0.89-0.29-1.39
		c0-0.56,0.11-1.08,0.34-1.59c0.28-0.62,0.67-1.09,1.18-1.42c0.51-0.33,1.13-0.49,1.86-0.49c0.57,0,1.07,0.12,1.52,0.35
		c0.45,0.23,0.8,0.58,1.06,1.03c0.22,0.39,0.33,0.82,0.33,1.29c0,0.66-0.23,1.25-0.7,1.76c-0.41,0.46-0.87,0.69-1.36,0.69
		c-0.16,0-0.28-0.02-0.38-0.07c-0.1-0.05-0.17-0.12-0.21-0.21C28.92,5.2,28.9,5.1,28.89,4.96z M27.23,4.04
		c0,0.31,0.07,0.55,0.22,0.73c0.15,0.17,0.32,0.26,0.51,0.26c0.13,0,0.26-0.04,0.4-0.11c0.14-0.08,0.28-0.19,0.4-0.34
		S29.01,4.23,29.09,4s0.12-0.46,0.12-0.7c0-0.31-0.08-0.55-0.23-0.72c-0.15-0.17-0.34-0.26-0.56-0.26c-0.15,0-0.28,0.04-0.41,0.11
		s-0.25,0.19-0.37,0.36s-0.22,0.36-0.29,0.6C27.27,3.63,27.23,3.84,27.23,4.04z"/>
	<path class="st0" d="M32.37,5.82l0.6,0.09c0.03,0.18,0.09,0.32,0.21,0.4c0.15,0.11,0.36,0.17,0.62,0.17c0.29,0,0.5-0.06,0.66-0.17
		c0.15-0.11,0.26-0.27,0.31-0.48c0.03-0.12,0.05-0.39,0.04-0.79c-0.27,0.32-0.6,0.47-1,0.47c-0.5,0-0.88-0.18-1.16-0.54
		s-0.41-0.79-0.41-1.3c0-0.35,0.06-0.67,0.19-0.96s0.31-0.52,0.54-0.68s0.52-0.24,0.84-0.24c0.43,0,0.78,0.17,1.06,0.52V1.89h0.57
		v3.14c0,0.57-0.06,0.97-0.17,1.2c-0.11,0.24-0.3,0.42-0.55,0.56c-0.25,0.14-0.56,0.21-0.92,0.21c-0.43,0-0.78-0.1-1.05-0.29
		C32.49,6.51,32.36,6.21,32.37,5.82z M32.88,3.64c0,0.48,0.09,0.82,0.28,1.04c0.19,0.22,0.43,0.33,0.71,0.33
		c0.28,0,0.52-0.11,0.71-0.33s0.29-0.56,0.29-1.02c0-0.44-0.1-0.78-0.3-1c-0.2-0.23-0.43-0.34-0.71-0.34c-0.27,0-0.51,0.11-0.7,0.33
		C32.98,2.87,32.88,3.2,32.88,3.64z"/>
	<path class="st0" d="M38.75,5.07c-0.23,0.19-0.45,0.33-0.66,0.41c-0.21,0.08-0.44,0.12-0.68,0.12c-0.4,0-0.71-0.1-0.92-0.29
		c-0.21-0.2-0.32-0.44-0.32-0.75c0-0.18,0.04-0.34,0.12-0.49c0.08-0.15,0.19-0.26,0.32-0.35s0.28-0.16,0.44-0.2
		c0.12-0.03,0.3-0.06,0.55-0.09c0.5-0.06,0.86-0.13,1.1-0.21c0-0.08,0-0.14,0-0.16c0-0.25-0.06-0.43-0.17-0.53
		c-0.16-0.14-0.39-0.21-0.7-0.21c-0.29,0-0.5,0.05-0.64,0.15c-0.14,0.1-0.24,0.28-0.31,0.54l-0.6-0.08
		c0.05-0.26,0.14-0.47,0.27-0.62s0.31-0.28,0.54-0.37c0.24-0.08,0.51-0.13,0.82-0.13c0.31,0,0.56,0.04,0.75,0.11
		C38.86,1.99,39,2.08,39.1,2.19s0.15,0.25,0.19,0.42c0.02,0.1,0.03,0.29,0.03,0.57V4c0,0.57,0.01,0.93,0.04,1.09
		c0.03,0.15,0.08,0.3,0.16,0.44h-0.64C38.81,5.39,38.77,5.24,38.75,5.07z M38.69,3.7c-0.22,0.09-0.56,0.17-1,0.23
		c-0.25,0.04-0.43,0.08-0.54,0.12c-0.11,0.05-0.19,0.11-0.24,0.2c-0.06,0.09-0.09,0.19-0.09,0.29c0,0.16,0.06,0.3,0.19,0.41
		s0.31,0.16,0.54,0.16c0.24,0,0.45-0.05,0.63-0.16c0.19-0.1,0.32-0.25,0.41-0.42c0.07-0.14,0.1-0.34,0.1-0.62V3.7z"/>
	<path class="st0" d="M40.84,5.52h-0.57V0.51h0.62V2.3c0.26-0.33,0.59-0.49,1-0.49c0.22,0,0.43,0.04,0.63,0.13S42.87,2.16,43,2.32
		s0.23,0.36,0.3,0.59c0.07,0.23,0.11,0.48,0.11,0.74c0,0.62-0.15,1.1-0.46,1.44c-0.31,0.34-0.68,0.51-1.11,0.51
		c-0.43,0-0.77-0.18-1.01-0.54V5.52z M40.83,3.68c0,0.43,0.06,0.75,0.18,0.94C41.2,4.94,41.46,5.1,41.8,5.1
		c0.27,0,0.5-0.12,0.7-0.35s0.29-0.58,0.29-1.04c0-0.47-0.09-0.82-0.28-1.05c-0.19-0.23-0.42-0.34-0.68-0.34
		c-0.27,0-0.5,0.12-0.7,0.35S40.83,3.24,40.83,3.68z"/>
	<path class="st0" d="M46.53,5.07c-0.23,0.19-0.45,0.33-0.66,0.41C45.66,5.56,45.44,5.6,45.2,5.6c-0.4,0-0.71-0.1-0.92-0.29
		c-0.21-0.2-0.32-0.44-0.32-0.75c0-0.18,0.04-0.34,0.12-0.49c0.08-0.15,0.19-0.26,0.32-0.35c0.13-0.09,0.28-0.16,0.44-0.2
		c0.12-0.03,0.3-0.06,0.55-0.09c0.5-0.06,0.86-0.13,1.1-0.21c0-0.08,0-0.14,0-0.16c0-0.25-0.06-0.43-0.17-0.53
		c-0.16-0.14-0.39-0.21-0.7-0.21c-0.29,0-0.5,0.05-0.64,0.15s-0.24,0.28-0.31,0.54l-0.6-0.08c0.05-0.26,0.14-0.47,0.27-0.62
		s0.31-0.28,0.54-0.37c0.24-0.08,0.51-0.13,0.82-0.13c0.31,0,0.56,0.04,0.76,0.11c0.19,0.07,0.34,0.17,0.43,0.28
		s0.16,0.25,0.19,0.42c0.02,0.1,0.03,0.29,0.03,0.57V4c0,0.57,0.01,0.93,0.04,1.09s0.08,0.3,0.16,0.44h-0.64
		C46.59,5.39,46.55,5.24,46.53,5.07z M46.48,3.7c-0.22,0.09-0.56,0.17-1.01,0.23c-0.25,0.04-0.43,0.08-0.54,0.12
		c-0.1,0.05-0.19,0.11-0.24,0.2c-0.06,0.09-0.08,0.19-0.08,0.29c0,0.16,0.06,0.3,0.19,0.41c0.12,0.11,0.31,0.16,0.54,0.16
		c0.24,0,0.45-0.05,0.63-0.16c0.18-0.1,0.32-0.25,0.41-0.42c0.07-0.14,0.1-0.34,0.1-0.62V3.7z"/>
	<path class="st0" d="M48.05,5.52V1.89h0.55v0.55c0.14-0.26,0.27-0.43,0.39-0.51s0.25-0.12,0.39-0.12c0.21,0,0.42,0.07,0.63,0.2
		l-0.21,0.57c-0.15-0.09-0.3-0.13-0.45-0.13c-0.13,0-0.25,0.04-0.36,0.12c-0.11,0.08-0.18,0.19-0.23,0.34
		c-0.07,0.22-0.1,0.46-0.1,0.72v1.9H48.05z"/>
	<path class="st0" d="M50.18,5.52v-0.7h0.7v0.7H50.18z"/>
	<path class="st0" d="M51.95,5.52V1.89h0.55V2.4c0.11-0.18,0.27-0.32,0.45-0.43s0.4-0.16,0.65-0.16c0.27,0,0.49,0.06,0.66,0.17
		c0.17,0.11,0.29,0.27,0.36,0.47c0.29-0.42,0.66-0.64,1.12-0.64c0.36,0,0.64,0.1,0.83,0.3s0.29,0.51,0.29,0.92v2.49h-0.61V3.23
		c0-0.25-0.02-0.42-0.06-0.53c-0.04-0.11-0.11-0.2-0.22-0.26c-0.1-0.07-0.23-0.1-0.37-0.1c-0.25,0-0.47,0.08-0.63,0.25
		c-0.17,0.17-0.25,0.44-0.25,0.81v2.11H54.1V3.16c0-0.27-0.05-0.48-0.15-0.62c-0.1-0.14-0.26-0.21-0.49-0.21
		c-0.17,0-0.33,0.05-0.48,0.14c-0.15,0.09-0.25,0.22-0.32,0.4c-0.07,0.18-0.1,0.43-0.1,0.76v1.88H51.95z"/>
	<path class="st0" d="M57.37,5.52l1.33-1.89l-1.23-1.74h0.77l0.56,0.85c0.11,0.16,0.19,0.3,0.25,0.41c0.1-0.15,0.19-0.28,0.28-0.4
		l0.61-0.86h0.73L59.42,3.6l1.35,1.92h-0.76l-0.74-1.13l-0.2-0.3l-0.95,1.43H57.37z"/>
</g>
</svg>
