<?xml version="1.0" encoding="utf-8"?>
<!-- Generator: Adobe Illustrator 25.4.1, SVG Export Plug-In . SVG Version: 6.00 Build 0)  -->
<svg version="1.1" id="Capa_1" xmlns="http://www.w3.org/2000/svg" xmlns:xlink="http://www.w3.org/1999/xlink" x="0px" y="0px"
	 viewBox="0 0 184 7" style="enable-background:new 0 0 184 7;" xml:space="preserve">
<style type="text/css">
	.st0{fill:#3F3E3E;}
</style>
<g>
	<path class="st0" d="M1.83,4.97l0.09,0.54C1.74,5.55,1.59,5.57,1.45,5.57c-0.22,0-0.4-0.04-0.52-0.11C0.81,5.39,0.72,5.3,0.67,5.18
		C0.62,5.07,0.59,4.83,0.59,4.46V2.37H0.14V1.89h0.45v-0.9l0.61-0.37v1.27h0.62v0.48H1.21v2.12c0,0.18,0.01,0.29,0.03,0.34
		C1.26,4.88,1.3,4.92,1.34,4.95c0.05,0.03,0.12,0.04,0.21,0.04C1.62,4.99,1.71,4.99,1.83,4.97z"/>
	<path class="st0" d="M2.6,5.52v-0.7h0.7v0.7H2.6z"/>
	<path class="st0" d="M4.37,6.91V1.89h0.56v0.47c0.13-0.18,0.28-0.32,0.45-0.41c0.17-0.09,0.37-0.14,0.61-0.14
		c0.31,0,0.58,0.08,0.82,0.24c0.24,0.16,0.42,0.38,0.54,0.68c0.12,0.29,0.18,0.61,0.18,0.96c0,0.37-0.07,0.71-0.2,1
		C7.19,4.98,7,5.21,6.74,5.36C6.49,5.52,6.22,5.6,5.94,5.6c-0.21,0-0.39-0.04-0.55-0.13c-0.16-0.09-0.3-0.2-0.4-0.33v1.77H4.37z
		 M4.93,3.72c0,0.47,0.1,0.81,0.28,1.04C5.4,4.98,5.63,5.1,5.9,5.1c0.27,0,0.51-0.12,0.7-0.35c0.2-0.23,0.29-0.59,0.29-1.08
		c0-0.46-0.09-0.81-0.29-1.04C6.42,2.4,6.19,2.29,5.93,2.29c-0.26,0-0.49,0.12-0.7,0.37C5.03,2.9,4.93,3.26,4.93,3.72z"/>
	<path class="st0" d="M10.75,4.35l0.64,0.08c-0.1,0.37-0.29,0.66-0.56,0.87C10.56,5.5,10.21,5.6,9.79,5.6
		c-0.53,0-0.95-0.16-1.26-0.49C8.22,4.78,8.06,4.33,8.06,3.74c0-0.61,0.16-1.09,0.47-1.42c0.31-0.34,0.72-0.51,1.22-0.51
		c0.49,0,0.88,0.16,1.19,0.49c0.31,0.33,0.46,0.8,0.46,1.39c0,0.04,0,0.09,0,0.16H8.7c0.02,0.4,0.13,0.71,0.34,0.92
		C9.24,4.99,9.49,5.1,9.79,5.1c0.23,0,0.42-0.06,0.58-0.18C10.53,4.8,10.66,4.61,10.75,4.35z M8.73,3.35h2.03
		c-0.03-0.3-0.11-0.53-0.23-0.69c-0.2-0.24-0.45-0.36-0.76-0.36c-0.28,0-0.52,0.09-0.71,0.28C8.86,2.79,8.75,3.04,8.73,3.35z"/>
	<path class="st0" d="M12.15,5.52V1.89h0.55v0.55c0.14-0.26,0.27-0.43,0.39-0.51c0.12-0.08,0.25-0.12,0.39-0.12
		c0.21,0,0.42,0.07,0.63,0.2l-0.21,0.57c-0.15-0.09-0.3-0.13-0.45-0.13c-0.13,0-0.25,0.04-0.36,0.12c-0.11,0.08-0.18,0.19-0.23,0.34
		c-0.07,0.22-0.1,0.46-0.1,0.72v1.9H12.15z"/>
	<path class="st0" d="M16.97,4.35l0.64,0.08c-0.1,0.37-0.29,0.66-0.56,0.87S16.43,5.6,16.01,5.6c-0.53,0-0.95-0.16-1.26-0.49
		c-0.31-0.33-0.47-0.79-0.47-1.37c0-0.61,0.16-1.09,0.47-1.42c0.31-0.34,0.72-0.51,1.22-0.51c0.49,0,0.88,0.16,1.19,0.49
		c0.31,0.33,0.46,0.8,0.46,1.39c0,0.04,0,0.09,0,0.16h-2.71c0.02,0.4,0.14,0.71,0.34,0.92c0.2,0.21,0.46,0.32,0.76,0.32
		c0.23,0,0.42-0.06,0.58-0.18C16.75,4.8,16.88,4.61,16.97,4.35z M14.95,3.35h2.03c-0.03-0.3-0.11-0.53-0.23-0.69
		c-0.2-0.24-0.45-0.36-0.76-0.36c-0.28,0-0.52,0.09-0.71,0.28C15.08,2.79,14.97,3.04,14.95,3.35z"/>
	<path class="st0" d="M18.06,5.52v-0.5l2.31-2.65c-0.26,0.01-0.49,0.02-0.69,0.02h-1.48v-0.5h2.97V2.3L19.2,4.6l-0.38,0.42
		c0.28-0.02,0.53-0.03,0.78-0.03h1.68v0.53H18.06z"/>
	<path class="st0" d="M25.39,4.96c-0.15,0.17-0.31,0.31-0.5,0.41s-0.37,0.15-0.55,0.15c-0.2,0-0.4-0.06-0.59-0.18
		c-0.19-0.12-0.35-0.3-0.47-0.55C23.16,4.56,23.1,4.29,23.1,4c0-0.36,0.09-0.73,0.28-1.09c0.19-0.36,0.42-0.63,0.69-0.82
		c0.28-0.18,0.54-0.27,0.8-0.27c0.2,0,0.39,0.05,0.57,0.16c0.18,0.1,0.33,0.26,0.46,0.47l0.12-0.53h0.61l-0.49,2.29
		c-0.07,0.32-0.1,0.5-0.1,0.53c0,0.06,0.02,0.12,0.07,0.16s0.1,0.07,0.17,0.07c0.12,0,0.28-0.07,0.48-0.21
		c0.26-0.18,0.46-0.43,0.62-0.73S27.6,3.4,27.6,3.07c0-0.38-0.1-0.74-0.29-1.07c-0.2-0.33-0.49-0.59-0.87-0.79
		c-0.39-0.2-0.81-0.3-1.28-0.3c-0.53,0-1.02,0.12-1.46,0.38c-0.44,0.25-0.78,0.61-1.03,1.07c-0.24,0.47-0.36,0.96-0.36,1.5
		c0,0.56,0.12,1.04,0.36,1.44c0.24,0.4,0.59,0.7,1.05,0.89c0.46,0.19,0.97,0.29,1.53,0.29c0.6,0,1.1-0.1,1.5-0.3
		c0.4-0.2,0.71-0.44,0.91-0.73h0.62c-0.12,0.24-0.32,0.48-0.6,0.73c-0.28,0.25-0.62,0.45-1.01,0.59c-0.39,0.14-0.86,0.22-1.41,0.22
		c-0.51,0-0.97-0.06-1.4-0.19c-0.43-0.13-0.79-0.33-1.09-0.59c-0.3-0.26-0.53-0.56-0.68-0.9C21.9,4.88,21.8,4.42,21.8,3.92
		c0-0.55,0.11-1.08,0.34-1.59c0.28-0.62,0.67-1.09,1.18-1.42c0.51-0.33,1.13-0.49,1.86-0.49c0.57,0,1.07,0.12,1.52,0.35
		c0.45,0.23,0.8,0.58,1.06,1.03c0.22,0.39,0.33,0.82,0.33,1.29c0,0.66-0.23,1.25-0.7,1.76C27,5.3,26.54,5.53,26.05,5.53
		c-0.16,0-0.28-0.02-0.38-0.07c-0.1-0.05-0.17-0.12-0.21-0.21C25.42,5.2,25.4,5.1,25.39,4.96z M23.74,4.04
		c0,0.31,0.07,0.55,0.22,0.73c0.15,0.17,0.32,0.26,0.51,0.26c0.13,0,0.26-0.04,0.4-0.11c0.14-0.08,0.28-0.19,0.4-0.34
		S25.51,4.23,25.59,4c0.08-0.23,0.12-0.46,0.12-0.7c0-0.31-0.08-0.55-0.23-0.72c-0.15-0.17-0.34-0.26-0.56-0.26
		c-0.15,0-0.28,0.04-0.41,0.11s-0.25,0.19-0.37,0.36s-0.22,0.36-0.29,0.6C23.77,3.62,23.74,3.84,23.74,4.04z"/>
	<path class="st0" d="M28.88,5.82l0.6,0.09c0.03,0.18,0.09,0.32,0.21,0.4c0.15,0.12,0.36,0.17,0.62,0.17c0.29,0,0.5-0.06,0.66-0.17
		c0.15-0.11,0.26-0.27,0.31-0.48c0.03-0.12,0.05-0.39,0.04-0.79c-0.27,0.32-0.6,0.47-1,0.47c-0.5,0-0.88-0.18-1.16-0.54
		c-0.27-0.36-0.41-0.79-0.41-1.3c0-0.35,0.06-0.66,0.19-0.96s0.31-0.52,0.54-0.68c0.24-0.16,0.52-0.24,0.84-0.24
		c0.43,0,0.78,0.17,1.06,0.52V1.89h0.57v3.14c0,0.57-0.06,0.97-0.17,1.2c-0.11,0.24-0.3,0.42-0.55,0.56
		c-0.25,0.14-0.56,0.21-0.92,0.21c-0.43,0-0.78-0.1-1.05-0.29S28.87,6.21,28.88,5.82z M29.38,3.64c0,0.48,0.09,0.82,0.28,1.04
		c0.19,0.22,0.43,0.33,0.71,0.33c0.28,0,0.52-0.11,0.71-0.33c0.19-0.22,0.29-0.56,0.29-1.02c0-0.44-0.1-0.78-0.3-1
		c-0.2-0.23-0.43-0.34-0.71-0.34c-0.27,0-0.51,0.11-0.7,0.33S29.38,3.2,29.38,3.64z"/>
	<path class="st0" d="M35.25,5.07c-0.23,0.19-0.45,0.33-0.66,0.41c-0.21,0.08-0.44,0.12-0.68,0.12c-0.4,0-0.71-0.1-0.92-0.29
		c-0.21-0.2-0.32-0.45-0.32-0.75c0-0.18,0.04-0.34,0.12-0.49c0.08-0.15,0.19-0.27,0.32-0.35c0.13-0.09,0.28-0.16,0.44-0.2
		c0.12-0.03,0.3-0.06,0.55-0.09c0.5-0.06,0.86-0.13,1.1-0.21c0-0.08,0-0.14,0-0.16c0-0.25-0.06-0.43-0.17-0.53
		c-0.16-0.14-0.39-0.21-0.7-0.21c-0.29,0-0.5,0.05-0.64,0.15c-0.14,0.1-0.24,0.28-0.31,0.54l-0.6-0.08
		c0.05-0.26,0.14-0.46,0.27-0.62s0.31-0.28,0.54-0.37c0.24-0.08,0.51-0.13,0.82-0.13c0.31,0,0.56,0.04,0.75,0.11
		c0.19,0.07,0.34,0.16,0.43,0.28c0.09,0.11,0.15,0.25,0.19,0.42c0.02,0.11,0.03,0.29,0.03,0.57V4c0,0.57,0.01,0.94,0.04,1.09
		c0.03,0.15,0.08,0.3,0.16,0.44h-0.64C35.31,5.39,35.27,5.24,35.25,5.07z M35.2,3.7c-0.22,0.09-0.56,0.17-1,0.23
		c-0.25,0.04-0.43,0.08-0.54,0.12c-0.11,0.05-0.19,0.11-0.24,0.2c-0.06,0.09-0.09,0.19-0.09,0.29c0,0.16,0.06,0.3,0.19,0.41
		s0.31,0.16,0.54,0.16c0.24,0,0.45-0.05,0.63-0.15c0.19-0.1,0.32-0.25,0.41-0.43c0.07-0.14,0.1-0.34,0.1-0.62V3.7z"/>
	<path class="st0" d="M37.34,5.52h-0.57V0.51h0.62V2.3c0.26-0.33,0.59-0.49,1-0.49c0.22,0,0.43,0.04,0.63,0.13
		c0.2,0.09,0.36,0.22,0.49,0.38c0.13,0.16,0.23,0.36,0.3,0.59s0.11,0.48,0.11,0.74c0,0.62-0.15,1.1-0.46,1.44
		c-0.31,0.34-0.68,0.51-1.11,0.51c-0.43,0-0.77-0.18-1.01-0.54V5.52z M37.33,3.68c0,0.44,0.06,0.75,0.18,0.94
		c0.19,0.32,0.46,0.47,0.79,0.47c0.27,0,0.5-0.12,0.7-0.35c0.2-0.23,0.29-0.58,0.29-1.04c0-0.47-0.09-0.82-0.28-1.05
		c-0.19-0.23-0.42-0.34-0.68-0.34c-0.27,0-0.5,0.12-0.7,0.35C37.43,2.9,37.33,3.24,37.33,3.68z"/>
	<path class="st0" d="M43.04,5.07c-0.23,0.19-0.45,0.33-0.66,0.41S41.94,5.6,41.7,5.6c-0.4,0-0.71-0.1-0.92-0.29
		c-0.21-0.2-0.32-0.45-0.32-0.75c0-0.18,0.04-0.34,0.12-0.49c0.08-0.15,0.19-0.27,0.32-0.35c0.13-0.09,0.28-0.16,0.44-0.2
		c0.12-0.03,0.3-0.06,0.55-0.09c0.5-0.06,0.86-0.13,1.1-0.21c0-0.08,0-0.14,0-0.16c0-0.25-0.06-0.43-0.17-0.53
		c-0.16-0.14-0.39-0.21-0.7-0.21c-0.29,0-0.5,0.05-0.64,0.15s-0.24,0.28-0.31,0.54l-0.6-0.08c0.05-0.26,0.14-0.46,0.27-0.62
		s0.31-0.28,0.54-0.37c0.24-0.08,0.51-0.13,0.82-0.13c0.31,0,0.56,0.04,0.76,0.11c0.19,0.07,0.34,0.16,0.43,0.28
		c0.09,0.11,0.16,0.25,0.19,0.42c0.02,0.11,0.03,0.29,0.03,0.57V4c0,0.57,0.01,0.94,0.04,1.09c0.03,0.15,0.08,0.3,0.16,0.44h-0.64
		C43.09,5.39,43.05,5.24,43.04,5.07z M42.99,3.7c-0.22,0.09-0.56,0.17-1.01,0.23c-0.25,0.04-0.43,0.08-0.54,0.12
		c-0.1,0.05-0.19,0.11-0.24,0.2c-0.06,0.09-0.08,0.19-0.08,0.29c0,0.16,0.06,0.3,0.19,0.41c0.12,0.11,0.31,0.16,0.54,0.16
		c0.24,0,0.45-0.05,0.63-0.15c0.18-0.1,0.32-0.25,0.41-0.43c0.07-0.14,0.1-0.34,0.1-0.62V3.7z"/>
	<path class="st0" d="M44.55,5.52V1.89h0.55v0.55c0.14-0.26,0.27-0.43,0.39-0.51c0.12-0.08,0.25-0.12,0.39-0.12
		c0.21,0,0.42,0.07,0.63,0.2l-0.21,0.57c-0.15-0.09-0.3-0.13-0.45-0.13c-0.13,0-0.25,0.04-0.36,0.12c-0.11,0.08-0.18,0.19-0.23,0.34
		c-0.07,0.22-0.1,0.46-0.1,0.72v1.9H44.55z"/>
	<path class="st0" d="M46.68,5.52v-0.7h0.7v0.7H46.68z"/>
	<path class="st0" d="M48.45,5.52V1.89H49V2.4c0.11-0.18,0.27-0.32,0.45-0.43c0.19-0.11,0.4-0.16,0.65-0.16
		c0.27,0,0.49,0.05,0.66,0.17c0.17,0.11,0.29,0.27,0.36,0.47c0.29-0.42,0.66-0.63,1.12-0.63c0.36,0,0.64,0.1,0.83,0.3
		s0.29,0.51,0.29,0.92v2.49h-0.61V3.23c0-0.25-0.02-0.42-0.06-0.53c-0.04-0.11-0.11-0.2-0.22-0.26c-0.1-0.06-0.23-0.1-0.37-0.1
		c-0.25,0-0.47,0.08-0.63,0.25c-0.17,0.17-0.25,0.44-0.25,0.81v2.11h-0.62V3.16c0-0.27-0.05-0.48-0.15-0.62
		c-0.1-0.14-0.26-0.21-0.49-0.21c-0.17,0-0.33,0.04-0.48,0.14c-0.15,0.09-0.25,0.22-0.32,0.4c-0.07,0.18-0.1,0.43-0.1,0.76v1.88
		H48.45z"/>
	<path class="st0" d="M53.87,5.52l1.33-1.89l-1.23-1.74h0.77l0.56,0.85c0.11,0.16,0.19,0.3,0.25,0.41c0.1-0.15,0.19-0.29,0.28-0.4
		l0.61-0.86h0.73L55.92,3.6l1.35,1.92h-0.76l-0.74-1.13l-0.2-0.3l-0.95,1.43H53.87z"/>
</g>
</svg>
