<?xml version="1.0" encoding="utf-8"?>
<!-- Generator: Adobe Illustrator 25.4.1, SVG Export Plug-In . SVG Version: 6.00 Build 0)  -->
<svg version="1.1" id="Capa_1" xmlns="http://www.w3.org/2000/svg" xmlns:xlink="http://www.w3.org/1999/xlink" x="0px" y="0px"
	 viewBox="0 0 184 7" style="enable-background:new 0 0 184 7;" xml:space="preserve">
<style type="text/css">
	.st0{fill:#3F3E3E;}
</style>
<g>
	<path class="st0" d="M2.84,5.52V5.06C2.61,5.42,2.27,5.6,1.82,5.6c-0.29,0-0.56-0.08-0.8-0.24C0.78,5.2,0.59,4.98,0.46,4.69
		c-0.13-0.29-0.2-0.62-0.2-0.99c0-0.36,0.06-0.69,0.18-0.99s0.3-0.52,0.54-0.68C1.23,1.89,1.5,1.81,1.79,1.81
		c0.22,0,0.41,0.04,0.58,0.14C2.55,2.04,2.69,2.16,2.8,2.31v-1.8h0.61v5.01H2.84z M0.89,3.71c0,0.46,0.1,0.81,0.29,1.04
		C1.38,4.98,1.61,5.1,1.88,5.1c0.27,0,0.5-0.11,0.69-0.33c0.19-0.22,0.28-0.55,0.28-1.01c0-0.5-0.1-0.86-0.29-1.09
		S2.13,2.32,1.85,2.32c-0.27,0-0.5,0.11-0.69,0.34C0.98,2.87,0.89,3.23,0.89,3.71z"/>
	<path class="st0" d="M4.55,5.52v-0.7h0.7v0.7H4.55z"/>
	<path class="st0" d="M6.31,5.52V0.51h0.62v5.01H6.31z"/>
	<path class="st0" d="M10.36,4.35L11,4.43c-0.1,0.37-0.29,0.66-0.56,0.87C10.17,5.5,9.82,5.6,9.4,5.6c-0.53,0-0.95-0.16-1.26-0.49
		C7.83,4.78,7.67,4.33,7.67,3.74c0-0.61,0.16-1.09,0.47-1.42c0.31-0.34,0.72-0.51,1.22-0.51c0.48,0,0.88,0.16,1.19,0.49
		c0.31,0.33,0.46,0.8,0.46,1.39c0,0.04,0,0.09,0,0.16H8.31c0.02,0.4,0.14,0.71,0.34,0.92C8.85,4.99,9.1,5.1,9.4,5.1
		c0.23,0,0.42-0.06,0.58-0.18C10.14,4.8,10.27,4.61,10.36,4.35z M8.34,3.35h2.03c-0.03-0.3-0.1-0.53-0.23-0.69
		c-0.2-0.24-0.45-0.36-0.76-0.36c-0.28,0-0.52,0.09-0.71,0.28S8.36,3.04,8.34,3.35z"/>
	<path class="st0" d="M11.74,6.92l-0.07-0.58c0.13,0.04,0.25,0.05,0.35,0.05c0.14,0,0.25-0.02,0.33-0.07
		c0.08-0.04,0.15-0.11,0.2-0.19c0.04-0.06,0.1-0.21,0.19-0.46c0.01-0.04,0.03-0.08,0.05-0.15l-1.38-3.64h0.66l0.76,2.1
		c0.1,0.27,0.19,0.55,0.26,0.84c0.07-0.28,0.16-0.56,0.25-0.83l0.78-2.12h0.62l-1.38,3.69c-0.15,0.4-0.26,0.67-0.34,0.82
		c-0.11,0.2-0.24,0.35-0.38,0.45c-0.14,0.09-0.31,0.14-0.51,0.14C12.02,6.99,11.89,6.97,11.74,6.92z"/>
	<path class="st0" d="M18.78,4.96c-0.15,0.17-0.31,0.31-0.5,0.41s-0.37,0.15-0.55,0.15c-0.2,0-0.4-0.06-0.59-0.18
		c-0.19-0.12-0.35-0.3-0.47-0.55C16.55,4.56,16.49,4.29,16.49,4c0-0.36,0.09-0.73,0.28-1.09c0.19-0.36,0.42-0.63,0.69-0.82
		c0.28-0.18,0.54-0.27,0.8-0.27c0.2,0,0.39,0.05,0.57,0.16c0.18,0.1,0.33,0.26,0.46,0.47l0.12-0.53h0.61l-0.49,2.29
		c-0.07,0.32-0.1,0.5-0.1,0.53c0,0.06,0.02,0.12,0.07,0.16c0.05,0.04,0.1,0.07,0.17,0.07c0.12,0,0.28-0.07,0.48-0.21
		c0.26-0.18,0.47-0.43,0.62-0.73c0.15-0.31,0.23-0.62,0.23-0.95c0-0.38-0.1-0.74-0.29-1.07s-0.48-0.59-0.87-0.79
		c-0.39-0.2-0.81-0.3-1.28-0.3c-0.53,0-1.02,0.12-1.46,0.38c-0.44,0.25-0.78,0.61-1.03,1.07c-0.24,0.47-0.36,0.96-0.36,1.5
		c0,0.56,0.12,1.04,0.36,1.44c0.24,0.4,0.59,0.7,1.05,0.89c0.46,0.19,0.97,0.29,1.53,0.29c0.6,0,1.1-0.1,1.5-0.3
		c0.4-0.2,0.71-0.44,0.91-0.73h0.62c-0.12,0.24-0.32,0.48-0.6,0.73c-0.28,0.25-0.62,0.45-1.01,0.59s-0.86,0.22-1.41,0.22
		c-0.51,0-0.97-0.06-1.4-0.19c-0.43-0.13-0.79-0.33-1.09-0.59c-0.3-0.26-0.53-0.56-0.68-0.9c-0.19-0.43-0.29-0.89-0.29-1.39
		c0-0.55,0.11-1.08,0.34-1.59c0.28-0.62,0.67-1.09,1.18-1.42c0.51-0.33,1.13-0.49,1.86-0.49c0.57,0,1.07,0.12,1.52,0.35
		C20.55,1,20.9,1.34,21.16,1.8c0.22,0.39,0.33,0.82,0.33,1.29c0,0.66-0.23,1.25-0.7,1.76c-0.42,0.46-0.87,0.69-1.36,0.69
		c-0.16,0-0.28-0.02-0.38-0.07c-0.1-0.05-0.17-0.12-0.21-0.21C18.81,5.2,18.79,5.1,18.78,4.96z M17.12,4.04
		c0,0.31,0.07,0.55,0.22,0.73c0.15,0.17,0.32,0.26,0.51,0.26c0.13,0,0.26-0.04,0.4-0.11s0.28-0.19,0.41-0.34S18.9,4.23,18.98,4
		c0.08-0.23,0.12-0.46,0.12-0.7c0-0.31-0.08-0.55-0.23-0.72c-0.15-0.17-0.34-0.26-0.56-0.26c-0.15,0-0.28,0.04-0.41,0.11
		s-0.25,0.19-0.38,0.36c-0.12,0.16-0.22,0.36-0.29,0.6S17.12,3.84,17.12,4.04z"/>
	<path class="st0" d="M22.26,5.82l0.6,0.09c0.02,0.18,0.09,0.32,0.21,0.4c0.15,0.12,0.36,0.17,0.63,0.17c0.28,0,0.5-0.06,0.66-0.17
		c0.16-0.11,0.26-0.27,0.31-0.48c0.03-0.12,0.05-0.39,0.04-0.79c-0.27,0.32-0.6,0.47-1,0.47c-0.5,0-0.89-0.18-1.16-0.54
		c-0.27-0.36-0.41-0.79-0.41-1.3c0-0.35,0.06-0.66,0.19-0.96c0.12-0.29,0.31-0.52,0.54-0.68c0.24-0.16,0.52-0.24,0.84-0.24
		c0.43,0,0.78,0.17,1.06,0.52V1.89h0.57v3.14c0,0.57-0.06,0.97-0.17,1.2c-0.12,0.24-0.3,0.42-0.55,0.56
		c-0.25,0.14-0.56,0.21-0.92,0.21c-0.43,0-0.78-0.1-1.05-0.29C22.38,6.51,22.25,6.21,22.26,5.82z M22.77,3.64
		c0,0.48,0.1,0.82,0.28,1.04s0.43,0.33,0.71,0.33c0.28,0,0.52-0.11,0.71-0.33c0.19-0.22,0.29-0.56,0.29-1.02c0-0.44-0.1-0.78-0.3-1
		c-0.2-0.23-0.43-0.34-0.71-0.34c-0.27,0-0.51,0.11-0.7,0.33S22.77,3.2,22.77,3.64z"/>
	<path class="st0" d="M28.64,5.07c-0.23,0.19-0.45,0.33-0.66,0.41C27.77,5.56,27.54,5.6,27.3,5.6c-0.4,0-0.71-0.1-0.92-0.29
		c-0.21-0.2-0.32-0.45-0.32-0.75c0-0.18,0.04-0.34,0.12-0.49c0.08-0.15,0.19-0.27,0.32-0.35c0.13-0.09,0.28-0.16,0.44-0.2
		c0.12-0.03,0.3-0.06,0.55-0.09c0.5-0.06,0.86-0.13,1.1-0.21c0-0.08,0-0.14,0-0.16c0-0.25-0.06-0.43-0.17-0.53
		c-0.16-0.14-0.39-0.21-0.7-0.21c-0.29,0-0.5,0.05-0.64,0.15c-0.14,0.1-0.24,0.28-0.31,0.54l-0.6-0.08
		c0.05-0.26,0.14-0.46,0.27-0.62c0.13-0.16,0.31-0.28,0.54-0.37c0.24-0.08,0.51-0.13,0.82-0.13c0.31,0,0.56,0.04,0.76,0.11
		c0.19,0.07,0.34,0.16,0.43,0.28c0.09,0.11,0.15,0.25,0.19,0.42c0.02,0.11,0.03,0.29,0.03,0.57V4c0,0.57,0.01,0.94,0.04,1.09
		c0.03,0.15,0.08,0.3,0.15,0.44h-0.64C28.7,5.39,28.65,5.24,28.64,5.07z M28.58,3.7c-0.22,0.09-0.56,0.17-1,0.23
		c-0.25,0.04-0.43,0.08-0.54,0.12c-0.11,0.05-0.19,0.11-0.24,0.2s-0.08,0.19-0.08,0.29c0,0.16,0.06,0.3,0.19,0.41
		c0.12,0.11,0.31,0.16,0.54,0.16c0.24,0,0.45-0.05,0.63-0.15s0.32-0.25,0.41-0.43c0.07-0.14,0.1-0.34,0.1-0.62V3.7z"/>
	<path class="st0" d="M30.73,5.52h-0.57V0.51h0.62V2.3c0.26-0.33,0.59-0.49,0.99-0.49c0.22,0,0.44,0.04,0.63,0.13
		c0.2,0.09,0.36,0.22,0.49,0.38c0.13,0.16,0.23,0.36,0.3,0.59c0.07,0.23,0.11,0.48,0.11,0.74c0,0.62-0.15,1.1-0.46,1.44
		c-0.31,0.34-0.68,0.51-1.11,0.51c-0.43,0-0.76-0.18-1.01-0.54V5.52z M30.72,3.68c0,0.44,0.06,0.75,0.18,0.94
		c0.19,0.32,0.46,0.47,0.79,0.47c0.27,0,0.5-0.12,0.7-0.35c0.2-0.23,0.29-0.58,0.29-1.04c0-0.47-0.09-0.82-0.28-1.05
		c-0.19-0.23-0.42-0.34-0.68-0.34c-0.27,0-0.5,0.12-0.7,0.35C30.82,2.9,30.72,3.24,30.72,3.68z"/>
	<path class="st0" d="M36.42,5.07c-0.23,0.19-0.45,0.33-0.66,0.41S35.33,5.6,35.09,5.6c-0.4,0-0.71-0.1-0.92-0.29
		c-0.21-0.2-0.32-0.45-0.32-0.75c0-0.18,0.04-0.34,0.12-0.49c0.08-0.15,0.19-0.27,0.32-0.35c0.13-0.09,0.28-0.16,0.44-0.2
		c0.12-0.03,0.3-0.06,0.55-0.09c0.5-0.06,0.86-0.13,1.1-0.21c0-0.08,0-0.14,0-0.16c0-0.25-0.06-0.43-0.17-0.53
		c-0.16-0.14-0.39-0.21-0.7-0.21c-0.29,0-0.5,0.05-0.64,0.15c-0.14,0.1-0.24,0.28-0.31,0.54l-0.6-0.08
		c0.05-0.26,0.14-0.46,0.27-0.62c0.12-0.16,0.31-0.28,0.54-0.37c0.24-0.08,0.51-0.13,0.82-0.13c0.31,0,0.56,0.04,0.75,0.11
		c0.19,0.07,0.34,0.16,0.43,0.28c0.09,0.11,0.16,0.25,0.19,0.42c0.02,0.11,0.03,0.29,0.03,0.57V4c0,0.57,0.01,0.94,0.04,1.09
		c0.03,0.15,0.08,0.3,0.16,0.44h-0.64C36.48,5.39,36.44,5.24,36.42,5.07z M36.37,3.7c-0.22,0.09-0.56,0.17-1,0.23
		c-0.25,0.04-0.43,0.08-0.54,0.12c-0.1,0.05-0.19,0.11-0.24,0.2S34.5,4.44,34.5,4.54c0,0.16,0.06,0.3,0.19,0.41
		c0.12,0.11,0.3,0.16,0.54,0.16c0.24,0,0.45-0.05,0.63-0.15s0.32-0.25,0.41-0.43c0.07-0.14,0.1-0.34,0.1-0.62V3.7z"/>
	<path class="st0" d="M37.94,5.52V1.89h0.55v0.55c0.14-0.26,0.27-0.43,0.39-0.51c0.12-0.08,0.25-0.12,0.4-0.12
		c0.21,0,0.42,0.07,0.63,0.2L39.7,2.58c-0.15-0.09-0.3-0.13-0.45-0.13c-0.13,0-0.26,0.04-0.36,0.12c-0.11,0.08-0.18,0.19-0.23,0.34
		c-0.07,0.22-0.1,0.46-0.1,0.72v1.9H37.94z"/>
	<path class="st0" d="M40.07,5.52v-0.7h0.7v0.7H40.07z"/>
	<path class="st0" d="M41.84,5.52V1.89h0.55V2.4c0.11-0.18,0.27-0.32,0.45-0.43c0.19-0.11,0.4-0.16,0.65-0.16
		c0.27,0,0.49,0.05,0.66,0.17c0.17,0.11,0.29,0.27,0.36,0.47c0.29-0.42,0.66-0.63,1.12-0.63c0.36,0,0.64,0.1,0.83,0.3
		c0.19,0.2,0.29,0.51,0.29,0.92v2.49h-0.61V3.23c0-0.25-0.02-0.42-0.06-0.53c-0.04-0.11-0.11-0.2-0.22-0.26
		c-0.11-0.06-0.23-0.1-0.37-0.1c-0.26,0-0.47,0.08-0.64,0.25s-0.25,0.44-0.25,0.81v2.11h-0.62V3.16c0-0.27-0.05-0.48-0.15-0.62
		s-0.26-0.21-0.49-0.21c-0.17,0-0.33,0.04-0.48,0.14c-0.15,0.09-0.25,0.22-0.32,0.4c-0.07,0.18-0.1,0.43-0.1,0.76v1.88H41.84z"/>
	<path class="st0" d="M47.26,5.52l1.33-1.89l-1.23-1.74h0.77l0.56,0.85c0.11,0.16,0.19,0.3,0.25,0.41c0.1-0.15,0.19-0.29,0.28-0.4
		l0.61-0.86h0.74L49.3,3.6l1.35,1.92H49.9l-0.75-1.13l-0.2-0.3L48,5.52H47.26z"/>
</g>
</svg>
