<?xml version="1.0" encoding="utf-8"?>
<!-- Generator: Adobe Illustrator 25.4.1, SVG Export Plug-In . SVG Version: 6.00 Build 0)  -->
<svg version="1.1" id="Capa_1" xmlns="http://www.w3.org/2000/svg" xmlns:xlink="http://www.w3.org/1999/xlink" x="0px" y="0px"
	 viewBox="0 0 277 77.61" style="enable-background:new 0 0 277 77.61;" xml:space="preserve">
<style type="text/css">
	.st0{fill:#3F3E3E;}
</style>
<g>
	<path d="M2.75,22.86V10.69H5.2v12.17H2.75z"/>
	<path d="M15.55,22.86h-2.33v-4.5c0-0.95-0.05-1.57-0.15-1.85c-0.1-0.28-0.26-0.5-0.49-0.65c-0.22-0.15-0.49-0.23-0.81-0.23
		c-0.4,0-0.77,0.11-1.09,0.33c-0.32,0.22-0.54,0.51-0.66,0.88s-0.18,1.04-0.18,2.03v3.99H7.51v-8.82h2.17v1.29
		c0.77-1,1.74-1.49,2.9-1.49c0.52,0,0.99,0.09,1.41,0.28c0.43,0.18,0.75,0.42,0.97,0.71s0.37,0.61,0.46,0.98
		c0.08,0.37,0.13,0.89,0.13,1.57V22.86z"/>
	<path d="M17.7,23.44l2.67,0.32c0.04,0.31,0.15,0.52,0.31,0.64c0.22,0.17,0.57,0.25,1.04,0.25c0.61,0,1.07-0.09,1.37-0.27
		c0.2-0.12,0.36-0.32,0.46-0.59c0.07-0.19,0.11-0.55,0.11-1.07v-1.29c-0.7,0.95-1.58,1.43-2.64,1.43c-1.18,0-2.12-0.5-2.81-1.5
		c-0.54-0.79-0.81-1.78-0.81-2.96c0-1.48,0.36-2.61,1.07-3.39s1.6-1.17,2.65-1.17c1.09,0,1.99,0.48,2.7,1.44v-1.24h2.18v7.91
		c0,1.04-0.09,1.82-0.26,2.33c-0.17,0.51-0.41,0.92-0.72,1.21c-0.31,0.29-0.72,0.52-1.24,0.69s-1.17,0.25-1.96,0.25
		c-1.49,0-2.55-0.26-3.18-0.77c-0.62-0.51-0.94-1.16-0.94-1.95C17.69,23.64,17.69,23.55,17.7,23.44z M19.78,18.27
		c0,0.93,0.18,1.62,0.54,2.05c0.36,0.44,0.81,0.65,1.34,0.65c0.57,0,1.05-0.22,1.44-0.67c0.39-0.45,0.59-1.11,0.59-1.98
		c0-0.91-0.19-1.59-0.56-2.03c-0.38-0.44-0.85-0.66-1.43-0.66c-0.56,0-1.02,0.22-1.38,0.65C19.96,16.71,19.78,17.38,19.78,18.27z"/>
	<path d="M28.3,22.86v-2.33h2.33v2.33H28.3z"/>
	<path d="M37.83,22.86V10.79h2.46v10.02h6.11v2.05H37.83z"/>
	<path d="M53.23,20.05l2.32,0.39c-0.3,0.85-0.77,1.5-1.42,1.95c-0.64,0.45-1.45,0.67-2.42,0.67c-1.53,0-2.67-0.5-3.4-1.5
		c-0.58-0.8-0.87-1.82-0.87-3.04c0-1.46,0.38-2.61,1.15-3.43c0.76-0.83,1.73-1.24,2.9-1.24c1.31,0,2.35,0.43,3.1,1.3
		c0.76,0.87,1.12,2.19,1.09,3.98h-5.84c0.02,0.69,0.21,1.23,0.56,1.62c0.36,0.38,0.81,0.58,1.35,0.58c0.37,0,0.67-0.1,0.92-0.3
		S53.1,20.5,53.23,20.05z M53.37,17.69c-0.02-0.67-0.19-1.19-0.52-1.54c-0.33-0.35-0.74-0.53-1.21-0.53c-0.51,0-0.93,0.19-1.26,0.56
		c-0.33,0.37-0.49,0.87-0.49,1.51H53.37z"/>
	<path d="M57.04,18.33c0-0.77,0.19-1.52,0.57-2.25c0.38-0.73,0.92-1.28,1.62-1.66c0.7-0.38,1.48-0.57,2.35-0.57
		c1.33,0,2.43,0.43,3.28,1.3c0.85,0.87,1.28,1.96,1.28,3.28c0,1.33-0.43,2.44-1.29,3.32c-0.86,0.88-1.94,1.32-3.25,1.32
		c-0.81,0-1.58-0.18-2.31-0.55c-0.73-0.37-1.29-0.9-1.67-1.61S57.04,19.34,57.04,18.33z M59.43,18.45c0,0.88,0.21,1.54,0.62,2.01
		s0.93,0.7,1.54,0.7c0.61,0,1.12-0.23,1.53-0.7c0.41-0.46,0.62-1.14,0.62-2.03c0-0.86-0.21-1.53-0.62-1.99
		c-0.41-0.46-0.92-0.7-1.53-0.7c-0.61,0-1.12,0.23-1.54,0.7C59.64,16.91,59.43,17.58,59.43,18.45z"/>
	<path d="M75.99,22.86h-2.33v-4.5c0-0.95-0.05-1.57-0.15-1.85c-0.1-0.28-0.26-0.5-0.49-0.65c-0.22-0.15-0.49-0.23-0.81-0.23
		c-0.4,0-0.77,0.11-1.09,0.33c-0.32,0.22-0.54,0.51-0.66,0.88c-0.12,0.37-0.18,1.04-0.18,2.03v3.99h-2.33v-8.82h2.17v1.29
		c0.77-1,1.74-1.49,2.91-1.49c0.51,0,0.99,0.09,1.41,0.28c0.43,0.18,0.75,0.42,0.97,0.71s0.37,0.61,0.46,0.98
		c0.09,0.37,0.13,0.89,0.13,1.57V22.86z"/>
	<path d="M80.09,16.73l-2.12-0.38c0.24-0.85,0.65-1.48,1.23-1.89c0.58-0.41,1.44-0.62,2.59-0.62c1.04,0,1.81,0.12,2.32,0.37
		c0.51,0.25,0.87,0.56,1.07,0.94c0.21,0.38,0.31,1.07,0.31,2.09l-0.02,2.72c0,0.77,0.04,1.35,0.11,1.71
		c0.07,0.37,0.21,0.76,0.42,1.18H83.7c-0.06-0.16-0.13-0.38-0.22-0.69c-0.04-0.14-0.07-0.23-0.08-0.27
		c-0.4,0.39-0.82,0.68-1.28,0.87s-0.94,0.29-1.45,0.29c-0.91,0-1.62-0.25-2.15-0.74s-0.78-1.12-0.78-1.87c0-0.5,0.12-0.94,0.36-1.33
		c0.24-0.39,0.57-0.69,1-0.9c0.43-0.21,1.05-0.39,1.86-0.54c1.09-0.21,1.85-0.4,2.27-0.57v-0.23c0-0.45-0.11-0.77-0.33-0.96
		c-0.22-0.19-0.64-0.29-1.25-0.29c-0.42,0-0.74,0.08-0.97,0.24C80.43,16.04,80.24,16.32,80.09,16.73z M83.21,18.62
		c-0.3,0.1-0.77,0.22-1.42,0.36c-0.65,0.14-1.07,0.27-1.27,0.41c-0.3,0.22-0.46,0.49-0.46,0.82c0,0.33,0.12,0.61,0.37,0.85
		c0.24,0.24,0.55,0.36,0.93,0.36c0.42,0,0.82-0.14,1.2-0.41c0.28-0.21,0.47-0.47,0.56-0.77c0.06-0.2,0.09-0.58,0.09-1.14V18.62z"/>
	<path d="M90.04,22.86h-2.33v-8.82h2.17v1.25c0.37-0.59,0.7-0.98,1-1.17c0.3-0.19,0.63-0.28,1.01-0.28c0.53,0,1.04,0.15,1.54,0.44
		l-0.72,2.03c-0.39-0.25-0.76-0.38-1.1-0.38c-0.33,0-0.6,0.09-0.83,0.27c-0.23,0.18-0.41,0.51-0.54,0.98
		c-0.13,0.47-0.2,1.46-0.2,2.96V22.86z"/>
	<path d="M102.51,22.86h-2.17v-1.29c-0.36,0.5-0.78,0.88-1.27,1.12c-0.49,0.25-0.98,0.37-1.48,0.37c-1.01,0-1.88-0.41-2.6-1.22
		s-1.08-1.96-1.08-3.42c0-1.49,0.35-2.63,1.05-3.41c0.7-0.78,1.59-1.17,2.66-1.17c0.99,0,1.84,0.41,2.56,1.23v-4.38h2.33V22.86z
		 M96.28,18.26c0,0.94,0.13,1.62,0.39,2.04c0.38,0.61,0.9,0.91,1.58,0.91c0.54,0,0.99-0.23,1.37-0.68c0.38-0.46,0.56-1.14,0.56-2.05
		c0-1.01-0.18-1.74-0.55-2.19c-0.37-0.45-0.83-0.67-1.4-0.67c-0.55,0-1.02,0.22-1.39,0.66C96.47,16.73,96.28,17.39,96.28,18.26z"/>
	<path d="M104.27,18.33c0-0.77,0.19-1.52,0.57-2.25c0.38-0.73,0.92-1.28,1.62-1.66s1.48-0.57,2.34-0.57c1.33,0,2.43,0.43,3.28,1.3
		c0.85,0.87,1.28,1.96,1.28,3.28c0,1.33-0.43,2.44-1.29,3.32s-1.94,1.32-3.25,1.32c-0.81,0-1.58-0.18-2.31-0.55
		c-0.73-0.37-1.29-0.9-1.67-1.61C104.46,20.2,104.27,19.34,104.27,18.33z M106.66,18.45c0,0.88,0.21,1.54,0.62,2.01
		c0.42,0.46,0.93,0.7,1.54,0.7s1.12-0.23,1.53-0.7c0.41-0.46,0.62-1.14,0.62-2.03c0-0.86-0.21-1.53-0.62-1.99
		c-0.41-0.46-0.92-0.7-1.53-0.7s-1.12,0.23-1.54,0.7C106.86,16.91,106.66,17.58,106.66,18.45z"/>
	<path d="M119.92,10.69h4.49c1.01,0,1.79,0.08,2.32,0.23c0.71,0.21,1.33,0.58,1.83,1.12c0.51,0.54,0.9,1.19,1.16,1.97
		c0.27,0.78,0.4,1.74,0.4,2.88c0,1-0.12,1.87-0.37,2.59c-0.3,0.88-0.74,1.6-1.3,2.15c-0.43,0.41-1,0.74-1.73,0.97
		c-0.54,0.17-1.27,0.26-2.18,0.26h-4.62V10.69z M122.38,12.75v8.06h1.83c0.69,0,1.18-0.04,1.49-0.12c0.4-0.1,0.73-0.27,0.99-0.51
		c0.26-0.24,0.48-0.63,0.64-1.17s0.25-1.29,0.25-2.23c0-0.94-0.08-1.66-0.25-2.17s-0.4-0.9-0.7-1.18s-0.68-0.47-1.14-0.57
		c-0.34-0.08-1.02-0.12-2.02-0.12H122.38z"/>
	<path d="M132.19,22.86v-2.33h2.33v2.33H132.19z"/>
	<path d="M141.66,22.86V10.69h5.17c1.3,0,2.25,0.11,2.83,0.33s1.06,0.61,1.42,1.17c0.35,0.56,0.53,1.2,0.53,1.92
		c0,0.91-0.27,1.67-0.81,2.26c-0.54,0.6-1.34,0.97-2.41,1.12c0.53,0.31,0.97,0.65,1.31,1.02c0.35,0.37,0.81,1.03,1.4,1.97l1.49,2.38
		h-2.94l-1.78-2.65c-0.63-0.95-1.06-1.54-1.29-1.79s-0.48-0.41-0.74-0.51s-0.67-0.14-1.24-0.14h-0.5v5.08H141.66z M144.12,15.84
		h1.82c1.18,0,1.92-0.05,2.21-0.15s0.52-0.27,0.69-0.52c0.17-0.24,0.25-0.55,0.25-0.91c0-0.41-0.11-0.74-0.33-0.99
		c-0.22-0.25-0.53-0.41-0.92-0.48c-0.2-0.03-0.8-0.04-1.79-0.04h-1.92V15.84z"/>
	<path d="M153.37,18.33c0-0.77,0.19-1.52,0.57-2.25c0.38-0.73,0.92-1.28,1.62-1.66s1.48-0.57,2.34-0.57c1.33,0,2.43,0.43,3.28,1.3
		c0.85,0.87,1.28,1.96,1.28,3.28c0,1.33-0.43,2.44-1.29,3.32s-1.94,1.32-3.25,1.32c-0.81,0-1.58-0.18-2.31-0.55
		c-0.73-0.37-1.29-0.9-1.67-1.61C153.56,20.2,153.37,19.34,153.37,18.33z M155.76,18.45c0,0.88,0.21,1.54,0.62,2.01
		c0.42,0.46,0.93,0.7,1.54,0.7s1.12-0.23,1.53-0.7c0.41-0.46,0.62-1.14,0.62-2.03c0-0.86-0.21-1.53-0.62-1.99
		c-0.41-0.46-0.92-0.7-1.53-0.7s-1.12,0.23-1.54,0.7C155.97,16.91,155.76,17.58,155.76,18.45z"/>
	<path d="M163.48,20.34l2.34-0.36c0.1,0.45,0.3,0.8,0.61,1.03c0.3,0.24,0.73,0.35,1.28,0.35c0.6,0,1.06-0.11,1.36-0.33
		c0.21-0.15,0.31-0.36,0.31-0.62c0-0.18-0.05-0.32-0.17-0.44c-0.12-0.11-0.38-0.21-0.78-0.31c-1.88-0.42-3.07-0.79-3.58-1.14
		c-0.7-0.48-1.05-1.14-1.05-1.98c0-0.76,0.3-1.41,0.91-1.93c0.6-0.52,1.54-0.78,2.8-0.78c1.21,0,2.1,0.2,2.69,0.59
		c0.59,0.39,0.99,0.97,1.21,1.74l-2.2,0.41c-0.09-0.34-0.27-0.61-0.54-0.79c-0.26-0.18-0.64-0.27-1.12-0.27
		c-0.61,0-1.05,0.09-1.32,0.26c-0.18,0.12-0.27,0.28-0.27,0.47c0,0.17,0.08,0.31,0.23,0.42c0.21,0.16,0.94,0.37,2.18,0.66
		c1.24,0.28,2.11,0.63,2.6,1.04c0.49,0.42,0.73,0.99,0.73,1.74c0,0.81-0.34,1.5-1.01,2.08c-0.67,0.58-1.67,0.87-3,0.87
		c-1.2,0-2.15-0.24-2.85-0.73C164.15,21.84,163.69,21.18,163.48,20.34z"/>
	<path d="M175.5,16.73l-2.12-0.38c0.24-0.85,0.65-1.48,1.23-1.89c0.58-0.41,1.44-0.62,2.59-0.62c1.04,0,1.81,0.12,2.32,0.37
		c0.51,0.25,0.87,0.56,1.08,0.94c0.21,0.38,0.31,1.07,0.31,2.09l-0.03,2.72c0,0.77,0.04,1.35,0.11,1.71
		c0.07,0.37,0.21,0.76,0.42,1.18h-2.31c-0.06-0.16-0.14-0.38-0.22-0.69c-0.04-0.14-0.07-0.23-0.08-0.27
		c-0.4,0.39-0.82,0.68-1.28,0.87c-0.45,0.19-0.94,0.29-1.45,0.29c-0.91,0-1.62-0.25-2.15-0.74c-0.52-0.49-0.78-1.12-0.78-1.87
		c0-0.5,0.12-0.94,0.36-1.33s0.57-0.69,1-0.9s1.05-0.39,1.86-0.54c1.09-0.21,1.85-0.4,2.27-0.57v-0.23c0-0.45-0.11-0.77-0.33-0.96
		c-0.22-0.19-0.64-0.29-1.25-0.29c-0.42,0-0.74,0.08-0.97,0.24C175.83,16.04,175.64,16.32,175.5,16.73z M178.62,18.62
		c-0.3,0.1-0.77,0.22-1.42,0.36s-1.07,0.27-1.27,0.41c-0.3,0.22-0.46,0.49-0.46,0.82c0,0.33,0.12,0.61,0.37,0.85
		s0.55,0.36,0.93,0.36c0.42,0,0.82-0.14,1.2-0.41c0.28-0.21,0.47-0.47,0.56-0.77c0.06-0.2,0.09-0.58,0.09-1.14V18.62z"/>
	<path d="M185.44,22.86h-2.33v-8.82h2.17v1.25c0.37-0.59,0.71-0.98,1-1.17c0.3-0.19,0.63-0.28,1.01-0.28c0.53,0,1.04,0.15,1.54,0.44
		l-0.72,2.03c-0.39-0.25-0.76-0.38-1.1-0.38c-0.33,0-0.6,0.09-0.83,0.27c-0.23,0.18-0.4,0.51-0.54,0.98
		c-0.13,0.47-0.2,1.46-0.2,2.96V22.86z"/>
	<path d="M189.82,12.85v-2.16h2.33v2.16H189.82z M189.82,22.86v-8.82h2.33v8.82H189.82z"/>
	<path d="M194,18.33c0-0.77,0.19-1.52,0.57-2.25c0.38-0.73,0.92-1.28,1.62-1.66c0.7-0.38,1.48-0.57,2.35-0.57
		c1.33,0,2.43,0.43,3.28,1.3c0.85,0.87,1.28,1.96,1.28,3.28c0,1.33-0.43,2.44-1.29,3.32c-0.86,0.88-1.94,1.32-3.25,1.32
		c-0.81,0-1.58-0.18-2.31-0.55c-0.73-0.37-1.29-0.9-1.67-1.61S194,19.34,194,18.33z M196.4,18.45c0,0.88,0.21,1.54,0.62,2.01
		s0.93,0.7,1.54,0.7c0.61,0,1.12-0.23,1.53-0.7c0.41-0.46,0.62-1.14,0.62-2.03c0-0.86-0.21-1.53-0.62-1.99
		c-0.41-0.46-0.92-0.7-1.53-0.7c-0.61,0-1.12,0.23-1.54,0.7C196.6,16.91,196.4,17.58,196.4,18.45z"/>
	<path d="M217.46,18.38l2.38,0.76c-0.37,1.33-0.97,2.31-1.82,2.96c-0.85,0.64-1.93,0.97-3.23,0.97c-1.62,0-2.94-0.55-3.98-1.66
		s-1.56-2.61-1.56-4.53c0-2.03,0.52-3.6,1.57-4.72c1.05-1.12,2.42-1.68,4.13-1.68c1.49,0,2.7,0.44,3.63,1.32
		c0.55,0.52,0.97,1.27,1.24,2.24l-2.43,0.58c-0.14-0.63-0.44-1.13-0.9-1.49s-1.01-0.55-1.66-0.55c-0.9,0-1.63,0.32-2.2,0.97
		c-0.56,0.65-0.84,1.7-0.84,3.15c0,1.54,0.28,2.63,0.83,3.29c0.55,0.65,1.27,0.98,2.16,0.98c0.65,0,1.21-0.21,1.69-0.62
		S217.25,19.27,217.46,18.38z"/>
	<path d="M223.67,16.73l-2.12-0.38c0.24-0.85,0.65-1.48,1.23-1.89c0.58-0.41,1.44-0.62,2.59-0.62c1.04,0,1.81,0.12,2.32,0.37
		c0.51,0.25,0.87,0.56,1.08,0.94c0.21,0.38,0.31,1.07,0.31,2.09l-0.03,2.72c0,0.77,0.04,1.35,0.11,1.71
		c0.07,0.37,0.21,0.76,0.42,1.18h-2.31c-0.06-0.16-0.14-0.38-0.22-0.69c-0.04-0.14-0.07-0.23-0.08-0.27
		c-0.4,0.39-0.82,0.68-1.28,0.87c-0.45,0.19-0.94,0.29-1.45,0.29c-0.91,0-1.62-0.25-2.15-0.74c-0.52-0.49-0.78-1.12-0.78-1.87
		c0-0.5,0.12-0.94,0.36-1.33s0.57-0.69,1-0.9s1.05-0.39,1.86-0.54c1.09-0.21,1.85-0.4,2.27-0.57v-0.23c0-0.45-0.11-0.77-0.33-0.96
		c-0.22-0.19-0.64-0.29-1.25-0.29c-0.42,0-0.74,0.08-0.97,0.24C224,16.04,223.82,16.32,223.67,16.73z M226.79,18.62
		c-0.3,0.1-0.77,0.22-1.42,0.36s-1.07,0.27-1.27,0.41c-0.3,0.22-0.46,0.49-0.46,0.82c0,0.33,0.12,0.61,0.37,0.85
		s0.55,0.36,0.93,0.36c0.42,0,0.82-0.14,1.2-0.41c0.28-0.21,0.47-0.47,0.56-0.77c0.06-0.2,0.09-0.58,0.09-1.14V18.62z"/>
	<path d="M239.4,22.86h-2.33v-4.5c0-0.95-0.05-1.57-0.15-1.85c-0.1-0.28-0.26-0.5-0.49-0.65c-0.22-0.15-0.49-0.23-0.81-0.23
		c-0.4,0-0.77,0.11-1.09,0.33c-0.32,0.22-0.54,0.51-0.66,0.88s-0.18,1.04-0.18,2.03v3.99h-2.33v-8.82h2.17v1.29
		c0.77-1,1.74-1.49,2.9-1.49c0.52,0,0.99,0.09,1.41,0.28c0.43,0.18,0.75,0.42,0.97,0.71s0.37,0.61,0.46,0.98
		c0.08,0.37,0.13,0.89,0.13,1.57V22.86z"/>
	<path d="M249.45,16.65l-2.3,0.41c-0.08-0.46-0.25-0.8-0.53-1.04c-0.27-0.23-0.63-0.35-1.07-0.35c-0.58,0-1.04,0.2-1.39,0.6
		c-0.35,0.4-0.52,1.07-0.52,2.01c0,1.05,0.18,1.79,0.53,2.22c0.35,0.43,0.82,0.65,1.42,0.65c0.44,0,0.8-0.13,1.09-0.38
		c0.28-0.25,0.48-0.68,0.6-1.3l2.29,0.39c-0.24,1.05-0.7,1.85-1.37,2.38s-1.58,0.81-2.71,0.81c-1.29,0-2.32-0.41-3.08-1.22
		c-0.77-0.81-1.15-1.94-1.15-3.38c0-1.46,0.38-2.59,1.15-3.4s1.81-1.22,3.12-1.22c1.07,0,1.93,0.23,2.56,0.69
		C248.72,15,249.18,15.7,249.45,16.65z"/>
	<path d="M253.55,10.69v4.47c0.75-0.88,1.65-1.32,2.7-1.32c0.54,0,1.02,0.1,1.45,0.3s0.76,0.45,0.98,0.76
		c0.22,0.31,0.37,0.65,0.45,1.03c0.08,0.38,0.12,0.96,0.12,1.75v5.17h-2.33V18.2c0-0.92-0.04-1.51-0.13-1.76
		c-0.09-0.25-0.25-0.45-0.47-0.59c-0.22-0.15-0.51-0.22-0.84-0.22c-0.39,0-0.73,0.09-1.04,0.28c-0.3,0.19-0.53,0.47-0.67,0.85
		s-0.21,0.94-0.21,1.68v4.42h-2.33V10.69H253.55z"/>
	<path d="M266.71,20.05l2.32,0.39c-0.3,0.85-0.77,1.5-1.42,1.95c-0.65,0.45-1.45,0.67-2.42,0.67c-1.53,0-2.67-0.5-3.4-1.5
		c-0.58-0.8-0.87-1.82-0.87-3.04c0-1.46,0.38-2.61,1.14-3.43c0.76-0.83,1.73-1.24,2.9-1.24c1.31,0,2.35,0.43,3.1,1.3
		c0.76,0.87,1.12,2.19,1.09,3.98h-5.84c0.02,0.69,0.2,1.23,0.56,1.62c0.36,0.38,0.81,0.58,1.34,0.58c0.37,0,0.67-0.1,0.92-0.3
		S266.58,20.5,266.71,20.05z M266.84,17.69c-0.02-0.67-0.19-1.19-0.52-1.54c-0.33-0.35-0.74-0.53-1.21-0.53
		c-0.51,0-0.93,0.19-1.26,0.56c-0.33,0.37-0.5,0.87-0.49,1.51H266.84z M263.86,12.96l1.15-2.48h2.61l-2.28,2.48H263.86z"/>
</g>
<g>
	<path d="M2.17,41.51l1.25-0.11c0.06,0.5,0.2,0.91,0.41,1.23c0.22,0.32,0.55,0.58,1.01,0.78c0.46,0.2,0.97,0.3,1.54,0.3
		c0.51,0,0.95-0.08,1.34-0.23c0.39-0.15,0.68-0.36,0.86-0.62c0.19-0.26,0.28-0.55,0.28-0.86c0-0.31-0.09-0.59-0.27-0.82
		c-0.18-0.24-0.48-0.43-0.9-0.59c-0.27-0.1-0.86-0.27-1.78-0.49c-0.92-0.22-1.57-0.43-1.93-0.63c-0.48-0.25-0.83-0.56-1.07-0.93
		c-0.23-0.37-0.35-0.79-0.35-1.25c0-0.51,0.14-0.98,0.43-1.42c0.29-0.44,0.71-0.77,1.26-1c0.55-0.23,1.16-0.34,1.84-0.34
		c0.74,0,1.4,0.12,1.96,0.36s1,0.59,1.31,1.06c0.3,0.46,0.47,0.99,0.49,1.58l-1.27,0.1C8.51,37,8.28,36.52,7.88,36.2
		c-0.39-0.32-0.98-0.49-1.75-0.49c-0.8,0-1.39,0.15-1.75,0.44c-0.37,0.29-0.55,0.65-0.55,1.06c0,0.36,0.13,0.66,0.39,0.89
		c0.25,0.23,0.92,0.47,2,0.71c1.08,0.24,1.82,0.46,2.22,0.64c0.58,0.27,1.01,0.61,1.29,1.02c0.28,0.41,0.42,0.89,0.42,1.42
		c0,0.53-0.15,1.04-0.46,1.51c-0.31,0.47-0.74,0.84-1.32,1.1C7.8,44.77,7.16,44.9,6.44,44.9c-0.91,0-1.67-0.13-2.28-0.4
		c-0.61-0.26-1.09-0.66-1.44-1.19C2.37,42.78,2.19,42.18,2.17,41.51z"/>
	<path d="M16.56,44.73v-1.07c-0.57,0.82-1.33,1.23-2.3,1.23c-0.43,0-0.83-0.08-1.2-0.25c-0.37-0.16-0.65-0.37-0.83-0.62
		c-0.18-0.25-0.31-0.55-0.38-0.91c-0.05-0.24-0.08-0.62-0.08-1.15v-4.5h1.23v4.03c0,0.64,0.02,1.08,0.08,1.3
		c0.08,0.32,0.24,0.58,0.49,0.76c0.25,0.18,0.56,0.28,0.93,0.28s0.71-0.09,1.04-0.28c0.32-0.19,0.55-0.45,0.69-0.77
		c0.13-0.33,0.2-0.8,0.2-1.42v-3.89h1.23v7.26H16.56z"/>
	<path d="M19.59,47.52V37.47h1.12v0.94c0.26-0.37,0.56-0.65,0.9-0.83c0.33-0.18,0.74-0.28,1.21-0.28c0.62,0,1.17,0.16,1.64,0.48
		c0.47,0.32,0.83,0.77,1.07,1.35c0.24,0.58,0.36,1.22,0.36,1.91c0,0.74-0.13,1.41-0.4,2.01s-0.65,1.05-1.16,1.37
		c-0.51,0.32-1.04,0.47-1.6,0.47c-0.41,0-0.78-0.09-1.1-0.26c-0.33-0.17-0.59-0.39-0.8-0.66v3.53H19.59z M20.7,41.14
		c0,0.93,0.19,1.62,0.57,2.07c0.38,0.45,0.84,0.67,1.37,0.67c0.55,0,1.01-0.23,1.4-0.69c0.39-0.46,0.58-1.18,0.58-2.15
		c0-0.92-0.19-1.62-0.57-2.08c-0.38-0.46-0.83-0.69-1.36-0.69c-0.52,0-0.99,0.25-1.39,0.74C20.9,39.5,20.7,40.21,20.7,41.14z"/>
	<path d="M32.34,42.4l1.27,0.16c-0.2,0.74-0.57,1.32-1.11,1.73c-0.54,0.41-1.24,0.62-2.08,0.62c-1.06,0-1.9-0.33-2.53-0.98
		c-0.62-0.65-0.93-1.57-0.93-2.75c0-1.22,0.31-2.17,0.94-2.84c0.63-0.67,1.44-1.01,2.45-1.01c0.97,0,1.76,0.33,2.38,0.99
		c0.62,0.66,0.92,1.59,0.92,2.79c0,0.07,0,0.18-0.01,0.33h-5.41c0.04,0.8,0.27,1.41,0.68,1.83c0.41,0.42,0.91,0.64,1.52,0.64
		c0.45,0,0.84-0.12,1.16-0.36C31.9,43.29,32.16,42.92,32.34,42.4z M28.3,40.41h4.05c-0.05-0.61-0.21-1.07-0.46-1.37
		c-0.39-0.47-0.9-0.71-1.52-0.71c-0.57,0-1.04,0.19-1.43,0.57C28.56,39.27,28.35,39.77,28.3,40.41z"/>
	<path d="M35.15,44.73v-7.26h1.11v1.1c0.28-0.51,0.54-0.85,0.78-1.02s0.5-0.25,0.79-0.25c0.41,0,0.84,0.13,1.26,0.4l-0.42,1.14
		c-0.3-0.18-0.6-0.27-0.9-0.27c-0.27,0-0.51,0.08-0.72,0.24c-0.21,0.16-0.37,0.39-0.46,0.67c-0.14,0.44-0.21,0.92-0.21,1.44v3.8
		H35.15z"/>
	<path d="M41.84,44.73l-2.76-7.26h1.3l1.56,4.35c0.17,0.47,0.32,0.96,0.46,1.46c0.11-0.38,0.26-0.84,0.46-1.38l1.61-4.43h1.26
		l-2.75,7.26H41.84z"/>
	<path d="M46.83,36.13v-1.42h1.23v1.42H46.83z M46.83,44.73v-7.26h1.23v7.26H46.83z"/>
	<path d="M49.44,42.57l1.22-0.19c0.07,0.49,0.26,0.86,0.57,1.12c0.31,0.26,0.75,0.39,1.31,0.39c0.56,0,0.98-0.12,1.26-0.34
		c0.27-0.23,0.41-0.5,0.41-0.81c0-0.28-0.12-0.5-0.36-0.66c-0.17-0.11-0.59-0.25-1.26-0.42c-0.9-0.23-1.53-0.42-1.88-0.59
		c-0.35-0.17-0.61-0.4-0.79-0.69c-0.18-0.29-0.27-0.62-0.27-0.97c0-0.32,0.07-0.62,0.22-0.9c0.15-0.28,0.35-0.5,0.61-0.69
		c0.19-0.14,0.45-0.26,0.78-0.36c0.33-0.1,0.68-0.15,1.06-0.15c0.57,0,1.07,0.08,1.5,0.25s0.75,0.39,0.95,0.67s0.35,0.66,0.42,1.12
		l-1.2,0.16c-0.05-0.37-0.21-0.67-0.48-0.88c-0.26-0.21-0.63-0.31-1.11-0.31c-0.57,0-0.97,0.09-1.21,0.28
		c-0.24,0.19-0.36,0.41-0.36,0.66c0,0.16,0.05,0.3,0.15,0.43c0.1,0.13,0.26,0.24,0.47,0.33c0.12,0.05,0.49,0.15,1.09,0.31
		c0.87,0.23,1.48,0.42,1.82,0.57c0.34,0.15,0.61,0.36,0.81,0.65c0.2,0.28,0.29,0.63,0.29,1.05c0,0.41-0.12,0.8-0.36,1.16
		s-0.58,0.64-1.04,0.84s-0.96,0.3-1.53,0.3c-0.94,0-1.66-0.2-2.16-0.59C49.89,43.92,49.58,43.34,49.44,42.57z"/>
	<path d="M56.48,41.1c0-1.34,0.37-2.34,1.12-2.99c0.62-0.54,1.38-0.81,2.28-0.81c1,0,1.81,0.33,2.45,0.98
		c0.63,0.65,0.95,1.56,0.95,2.71c0,0.93-0.14,1.67-0.42,2.21c-0.28,0.54-0.69,0.95-1.22,1.25c-0.54,0.3-1.12,0.44-1.75,0.44
		c-1.02,0-1.84-0.33-2.46-0.98C56.79,43.27,56.48,42.33,56.48,41.1z M57.74,41.1c0,0.93,0.2,1.63,0.61,2.09
		c0.41,0.46,0.92,0.69,1.53,0.69c0.61,0,1.12-0.23,1.52-0.7c0.41-0.46,0.61-1.17,0.61-2.13c0-0.9-0.2-1.58-0.61-2.04
		c-0.41-0.46-0.92-0.69-1.52-0.69c-0.62,0-1.13,0.23-1.53,0.69C57.94,39.48,57.74,40.17,57.74,41.1z"/>
	<path d="M64.71,44.73v-7.26h1.11v1.1c0.28-0.51,0.54-0.85,0.78-1.02s0.5-0.25,0.79-0.25c0.41,0,0.84,0.13,1.26,0.4l-0.42,1.14
		c-0.3-0.18-0.6-0.27-0.9-0.27c-0.27,0-0.51,0.08-0.72,0.24c-0.21,0.16-0.37,0.39-0.46,0.67c-0.14,0.44-0.21,0.92-0.21,1.44v3.8
		H64.71z"/>
	<path d="M77.98,44.73v-0.92c-0.46,0.72-1.14,1.08-2.03,1.08c-0.58,0-1.11-0.16-1.6-0.48c-0.49-0.32-0.86-0.76-1.13-1.34
		c-0.27-0.57-0.4-1.23-0.4-1.97c0-0.72,0.12-1.38,0.36-1.97c0.24-0.59,0.6-1.04,1.09-1.36c0.48-0.31,1.02-0.47,1.62-0.47
		c0.44,0,0.83,0.09,1.17,0.28s0.62,0.42,0.83,0.72v-3.6h1.22v10.02H77.98z M74.09,41.11c0,0.93,0.2,1.62,0.59,2.08
		c0.39,0.46,0.85,0.69,1.39,0.69c0.54,0,0.99-0.22,1.37-0.66c0.38-0.44,0.56-1.11,0.56-2.01c0-0.99-0.19-1.72-0.57-2.19
		s-0.85-0.7-1.42-0.7c-0.55,0-1,0.22-1.37,0.67C74.28,39.45,74.09,40.15,74.09,41.11z"/>
	<path d="M86.03,42.4l1.27,0.16c-0.2,0.74-0.57,1.32-1.11,1.73c-0.54,0.41-1.24,0.62-2.08,0.62c-1.06,0-1.9-0.33-2.53-0.98
		c-0.62-0.65-0.93-1.57-0.93-2.75c0-1.22,0.31-2.17,0.94-2.84c0.63-0.67,1.44-1.01,2.45-1.01c0.97,0,1.76,0.33,2.38,0.99
		c0.62,0.66,0.92,1.59,0.92,2.79c0,0.07,0,0.18-0.01,0.33h-5.41c0.04,0.8,0.27,1.41,0.68,1.83c0.41,0.42,0.91,0.64,1.52,0.64
		c0.45,0,0.84-0.12,1.16-0.36C85.59,43.29,85.84,42.92,86.03,42.4z M81.99,40.41h4.05c-0.05-0.61-0.21-1.07-0.46-1.37
		c-0.39-0.47-0.9-0.71-1.52-0.71c-0.57,0-1.04,0.19-1.43,0.57C82.24,39.27,82.03,39.77,81.99,40.41z"/>
	<path d="M92.49,39.85c0-1.66,0.45-2.97,1.34-3.91c0.89-0.94,2.05-1.41,3.46-1.41c0.92,0,1.76,0.22,2.5,0.66
		c0.74,0.44,1.31,1.06,1.7,1.85c0.39,0.79,0.58,1.69,0.58,2.69c0,1.02-0.21,1.93-0.62,2.73c-0.41,0.8-0.99,1.41-1.74,1.82
		c-0.75,0.41-1.56,0.62-2.43,0.62c-0.94,0-1.79-0.23-2.53-0.68c-0.74-0.46-1.31-1.08-1.69-1.87C92.68,41.57,92.49,40.73,92.49,39.85
		z M93.85,39.87c0,1.21,0.32,2.16,0.97,2.85c0.65,0.69,1.46,1.04,2.44,1.04c1,0,1.82-0.35,2.46-1.05c0.65-0.7,0.97-1.7,0.97-2.99
		c0-0.82-0.14-1.53-0.41-2.14c-0.28-0.61-0.68-1.08-1.21-1.42c-0.53-0.33-1.13-0.5-1.79-0.5c-0.94,0-1.75,0.32-2.42,0.97
		C94.19,37.29,93.85,38.37,93.85,39.87z"/>
	<path d="M104.76,44.73h-1.14V34.71h1.23v3.58c0.52-0.65,1.18-0.98,1.99-0.98c0.45,0,0.87,0.09,1.27,0.27
		c0.4,0.18,0.73,0.43,0.98,0.76c0.26,0.33,0.46,0.72,0.61,1.18c0.15,0.46,0.22,0.95,0.22,1.48c0,1.24-0.31,2.21-0.92,2.88
		c-0.62,0.68-1.35,1.02-2.21,1.02c-0.86,0-1.53-0.36-2.02-1.07V44.73z M104.74,41.05c0,0.87,0.12,1.5,0.36,1.89
		c0.39,0.63,0.91,0.95,1.57,0.95c0.54,0,1-0.23,1.39-0.7c0.39-0.47,0.59-1.16,0.59-2.09c0-0.95-0.19-1.65-0.56-2.1
		s-0.83-0.68-1.36-0.68c-0.54,0-1,0.23-1.39,0.7C104.94,39.49,104.74,40.17,104.74,41.05z"/>
	<path d="M111.4,44.73v-7.26h1.11v1.1c0.28-0.51,0.54-0.85,0.78-1.02s0.5-0.25,0.79-0.25c0.41,0,0.84,0.13,1.26,0.4l-0.42,1.14
		c-0.3-0.18-0.6-0.27-0.9-0.27c-0.27,0-0.51,0.08-0.72,0.24c-0.21,0.16-0.37,0.39-0.46,0.67c-0.14,0.44-0.21,0.92-0.21,1.44v3.8
		H111.4z"/>
	<path d="M120.81,43.84c-0.46,0.39-0.89,0.66-1.32,0.82c-0.42,0.16-0.87,0.24-1.36,0.24c-0.8,0-1.41-0.19-1.84-0.58
		c-0.43-0.39-0.64-0.89-0.64-1.49c0-0.36,0.08-0.68,0.24-0.97c0.16-0.29,0.37-0.53,0.64-0.71c0.26-0.18,0.56-0.31,0.89-0.4
		c0.24-0.06,0.61-0.12,1.09-0.18c0.99-0.12,1.72-0.26,2.19-0.42c0-0.17,0.01-0.28,0.01-0.32c0-0.5-0.12-0.85-0.35-1.06
		c-0.31-0.28-0.78-0.42-1.4-0.42c-0.58,0-1.01,0.1-1.28,0.3c-0.28,0.2-0.48,0.56-0.61,1.08l-1.2-0.16c0.11-0.51,0.29-0.93,0.54-1.25
		c0.25-0.32,0.61-0.56,1.09-0.73c0.47-0.17,1.02-0.26,1.65-0.26c0.62,0,1.12,0.07,1.51,0.22c0.39,0.15,0.67,0.33,0.85,0.55
		c0.18,0.22,0.31,0.5,0.38,0.84c0.04,0.21,0.06,0.59,0.06,1.13v1.64c0,1.14,0.03,1.87,0.08,2.17c0.05,0.3,0.16,0.59,0.31,0.87h-1.29
		C120.93,44.48,120.84,44.18,120.81,43.84z M120.71,41.09c-0.45,0.18-1.12,0.34-2.01,0.46c-0.51,0.07-0.86,0.16-1.07,0.25
		c-0.21,0.09-0.37,0.22-0.49,0.4c-0.11,0.17-0.17,0.37-0.17,0.58c0,0.33,0.12,0.6,0.37,0.82c0.25,0.22,0.61,0.33,1.09,0.33
		c0.47,0,0.9-0.1,1.26-0.31c0.37-0.21,0.64-0.49,0.81-0.85c0.13-0.28,0.2-0.69,0.2-1.23V41.09z"/>
</g>
<g>
	<path d="M2.1,61.63c0-1.66,0.45-2.97,1.34-3.91c0.89-0.94,2.05-1.41,3.46-1.41c0.93,0,1.76,0.22,2.5,0.66
		c0.74,0.44,1.31,1.06,1.7,1.85c0.39,0.79,0.58,1.69,0.58,2.69c0,1.02-0.21,1.93-0.62,2.73c-0.41,0.8-0.99,1.41-1.74,1.82
		c-0.75,0.41-1.56,0.62-2.43,0.62c-0.94,0-1.79-0.23-2.53-0.68c-0.74-0.46-1.31-1.08-1.69-1.87C2.29,63.34,2.1,62.51,2.1,61.63z
		 M3.46,61.65c0,1.21,0.33,2.16,0.97,2.85c0.65,0.69,1.46,1.04,2.44,1.04c1,0,1.82-0.35,2.46-1.05c0.64-0.7,0.97-1.7,0.97-2.99
		c0-0.82-0.14-1.53-0.41-2.14s-0.68-1.08-1.21-1.42s-1.13-0.5-1.79-0.5c-0.94,0-1.75,0.32-2.42,0.97
		C3.8,59.06,3.46,60.14,3.46,61.65z"/>
	<path d="M13.23,69.29V59.25h1.12v0.94c0.26-0.37,0.56-0.65,0.89-0.83c0.33-0.18,0.74-0.28,1.21-0.28c0.62,0,1.17,0.16,1.64,0.48
		c0.47,0.32,0.83,0.77,1.07,1.35c0.24,0.58,0.36,1.22,0.36,1.91c0,0.74-0.13,1.41-0.4,2.01s-0.65,1.05-1.16,1.37
		c-0.51,0.32-1.04,0.47-1.6,0.47c-0.41,0-0.78-0.09-1.1-0.26c-0.33-0.17-0.59-0.39-0.8-0.66v3.53H13.23z M14.35,62.92
		c0,0.93,0.19,1.62,0.57,2.07c0.38,0.45,0.84,0.67,1.37,0.67c0.55,0,1.02-0.23,1.41-0.69c0.39-0.46,0.58-1.18,0.58-2.15
		c0-0.92-0.19-1.62-0.57-2.08c-0.38-0.46-0.83-0.69-1.36-0.69c-0.52,0-0.99,0.25-1.39,0.74C14.55,61.27,14.35,61.98,14.35,62.92z"/>
	<path d="M25.99,64.17l1.27,0.16c-0.2,0.74-0.57,1.32-1.12,1.73c-0.54,0.41-1.23,0.62-2.08,0.62c-1.06,0-1.9-0.33-2.53-0.98
		c-0.62-0.65-0.93-1.57-0.93-2.75c0-1.22,0.31-2.17,0.94-2.84c0.63-0.67,1.45-1.01,2.45-1.01c0.97,0,1.76,0.33,2.38,0.99
		c0.62,0.66,0.92,1.59,0.92,2.79c0,0.07,0,0.18-0.01,0.33h-5.41c0.05,0.8,0.27,1.41,0.68,1.83c0.41,0.42,0.91,0.64,1.52,0.64
		c0.45,0,0.84-0.12,1.15-0.36C25.55,65.07,25.8,64.69,25.99,64.17z M21.95,62.18H26c-0.05-0.61-0.21-1.07-0.46-1.37
		c-0.39-0.47-0.9-0.71-1.53-0.71c-0.56,0-1.04,0.19-1.42,0.57C22.2,61.04,21.99,61.55,21.95,62.18z"/>
	<path d="M28.79,66.51v-7.26h1.11v1.1c0.28-0.51,0.54-0.85,0.78-1.02s0.5-0.25,0.79-0.25c0.41,0,0.84,0.13,1.26,0.4l-0.42,1.14
		c-0.3-0.18-0.6-0.27-0.9-0.27c-0.27,0-0.51,0.08-0.72,0.24c-0.21,0.16-0.37,0.39-0.46,0.67c-0.14,0.44-0.21,0.92-0.21,1.44v3.8
		H28.79z"/>
	<path d="M38.2,65.61c-0.46,0.39-0.89,0.66-1.32,0.82c-0.42,0.16-0.87,0.24-1.36,0.24c-0.8,0-1.41-0.19-1.84-0.58
		c-0.43-0.39-0.64-0.89-0.64-1.49c0-0.36,0.08-0.68,0.24-0.97s0.37-0.53,0.64-0.71s0.56-0.31,0.88-0.4
		c0.24-0.06,0.61-0.12,1.09-0.18c0.99-0.12,1.73-0.26,2.2-0.42c0-0.17,0.01-0.28,0.01-0.32c0-0.5-0.12-0.85-0.35-1.06
		c-0.31-0.28-0.78-0.42-1.4-0.42c-0.58,0-1.01,0.1-1.28,0.3c-0.28,0.2-0.48,0.56-0.61,1.08l-1.2-0.16c0.11-0.51,0.29-0.93,0.54-1.25
		c0.25-0.32,0.61-0.56,1.09-0.73c0.47-0.17,1.02-0.26,1.65-0.26c0.62,0,1.12,0.07,1.51,0.22c0.39,0.15,0.67,0.33,0.85,0.55
		c0.18,0.22,0.31,0.5,0.38,0.84c0.04,0.21,0.06,0.59,0.06,1.13v1.64c0,1.14,0.03,1.87,0.08,2.17c0.05,0.3,0.16,0.59,0.31,0.87h-1.29
		C38.32,66.25,38.24,65.95,38.2,65.61z M38.1,62.86c-0.45,0.18-1.12,0.34-2.01,0.46c-0.51,0.07-0.86,0.16-1.07,0.25
		c-0.21,0.09-0.37,0.22-0.48,0.4c-0.11,0.17-0.17,0.37-0.17,0.58c0,0.33,0.12,0.6,0.37,0.82s0.61,0.33,1.09,0.33
		c0.47,0,0.9-0.1,1.27-0.31c0.37-0.21,0.64-0.49,0.81-0.85c0.13-0.28,0.2-0.69,0.2-1.23V62.86z"/>
	<path d="M45.99,63.85l1.21,0.16c-0.13,0.83-0.47,1.49-1.01,1.96s-1.21,0.71-2.01,0.71c-0.99,0-1.79-0.32-2.4-0.97
		s-0.91-1.58-0.91-2.79c0-0.78,0.13-1.47,0.39-2.06s0.66-1.03,1.19-1.32s1.11-0.44,1.73-0.44c0.79,0,1.43,0.2,1.93,0.6
		c0.5,0.4,0.82,0.96,0.96,1.7l-1.2,0.18c-0.11-0.49-0.31-0.85-0.6-1.1s-0.64-0.37-1.05-0.37c-0.62,0-1.12,0.22-1.51,0.67
		c-0.39,0.44-0.58,1.15-0.58,2.11c0,0.98,0.19,1.68,0.56,2.13c0.37,0.44,0.86,0.66,1.46,0.66c0.48,0,0.89-0.15,1.21-0.44
		C45.7,64.92,45.9,64.46,45.99,63.85z"/>
	<path d="M48.26,57.9v-1.42h1.23v1.42H48.26z M48.26,66.51v-7.26h1.23v7.26H48.26z"/>
	<path d="M50.91,62.88c0-1.34,0.37-2.34,1.12-2.99c0.62-0.54,1.39-0.81,2.28-0.81c1,0,1.81,0.33,2.45,0.98
		c0.63,0.65,0.95,1.56,0.95,2.71c0,0.93-0.14,1.67-0.42,2.21c-0.28,0.54-0.69,0.95-1.22,1.25c-0.54,0.3-1.12,0.44-1.75,0.44
		c-1.02,0-1.84-0.33-2.46-0.98C51.22,65.04,50.91,64.1,50.91,62.88z M52.17,62.88c0,0.93,0.2,1.63,0.61,2.09
		c0.41,0.46,0.92,0.69,1.53,0.69c0.61,0,1.12-0.23,1.53-0.7c0.41-0.46,0.61-1.17,0.61-2.13c0-0.9-0.2-1.58-0.61-2.04
		c-0.41-0.46-0.92-0.69-1.52-0.69c-0.62,0-1.12,0.23-1.53,0.69C52.37,61.25,52.17,61.95,52.17,62.88z"/>
	<path d="M59.15,66.51v-7.26h1.11v1.03c0.53-0.8,1.3-1.2,2.31-1.2c0.44,0,0.84,0.08,1.21,0.24s0.64,0.36,0.82,0.62
		c0.18,0.26,0.31,0.56,0.38,0.91c0.04,0.23,0.07,0.63,0.07,1.2v4.46h-1.23v-4.42c0-0.5-0.05-0.88-0.14-1.12
		c-0.1-0.25-0.27-0.45-0.51-0.59c-0.24-0.15-0.53-0.22-0.86-0.22c-0.52,0-0.98,0.17-1.36,0.5c-0.38,0.33-0.57,0.96-0.57,1.89v3.96
		H59.15z"/>
	<path d="M71.91,64.17l1.27,0.16c-0.2,0.74-0.57,1.32-1.11,1.73c-0.54,0.41-1.24,0.62-2.08,0.62c-1.06,0-1.9-0.33-2.53-0.98
		c-0.62-0.65-0.93-1.57-0.93-2.75c0-1.22,0.31-2.17,0.94-2.84c0.63-0.67,1.44-1.01,2.45-1.01c0.97,0,1.76,0.33,2.38,0.99
		c0.62,0.66,0.92,1.59,0.92,2.79c0,0.07,0,0.18-0.01,0.33H67.8c0.04,0.8,0.27,1.41,0.68,1.83c0.41,0.42,0.91,0.64,1.52,0.64
		c0.45,0,0.84-0.12,1.16-0.36C71.47,65.07,71.72,64.69,71.91,64.17z M67.87,62.18h4.05c-0.05-0.61-0.21-1.07-0.46-1.37
		c-0.39-0.47-0.9-0.71-1.52-0.71c-0.57,0-1.04,0.19-1.43,0.57C68.12,61.04,67.91,61.55,67.87,62.18z"/>
	<path d="M74.23,64.34l1.22-0.19c0.07,0.49,0.26,0.86,0.57,1.12s0.75,0.39,1.31,0.39c0.56,0,0.98-0.12,1.26-0.34
		c0.27-0.23,0.41-0.5,0.41-0.81c0-0.28-0.12-0.5-0.36-0.66c-0.17-0.11-0.59-0.25-1.26-0.42c-0.9-0.23-1.53-0.42-1.88-0.59
		c-0.35-0.17-0.61-0.4-0.79-0.69s-0.27-0.62-0.27-0.97c0-0.32,0.07-0.62,0.22-0.9c0.15-0.28,0.35-0.5,0.61-0.69
		c0.19-0.14,0.45-0.26,0.78-0.36c0.33-0.1,0.68-0.15,1.06-0.15c0.57,0,1.07,0.08,1.5,0.25s0.75,0.39,0.95,0.67s0.35,0.66,0.42,1.12
		l-1.2,0.16c-0.05-0.37-0.21-0.67-0.47-0.88c-0.26-0.21-0.63-0.31-1.11-0.31c-0.56,0-0.97,0.09-1.21,0.28
		c-0.24,0.19-0.36,0.41-0.36,0.66c0,0.16,0.05,0.3,0.15,0.43c0.1,0.13,0.26,0.24,0.47,0.33c0.12,0.05,0.48,0.15,1.09,0.31
		c0.87,0.23,1.48,0.42,1.82,0.57c0.34,0.15,0.61,0.36,0.81,0.65c0.2,0.28,0.29,0.63,0.29,1.05c0,0.41-0.12,0.8-0.36,1.16
		s-0.58,0.64-1.04,0.84s-0.96,0.3-1.53,0.3c-0.94,0-1.66-0.2-2.16-0.59C74.68,65.69,74.37,65.11,74.23,64.34z"/>
	<path d="M85.97,69.45V56.31h1.07v13.14H85.97z"/>
	<path d="M97.99,62.58V61.4l4.24-0.01v3.72c-0.65,0.52-1.32,0.91-2.02,1.17c-0.69,0.26-1.4,0.39-2.13,0.39
		c-0.98,0-1.88-0.21-2.68-0.63c-0.8-0.42-1.41-1.03-1.82-1.83c-0.41-0.8-0.62-1.69-0.62-2.67c0-0.97,0.21-1.89,0.61-2.73
		c0.41-0.85,1-1.47,1.76-1.88s1.65-0.62,2.64-0.62c0.72,0,1.38,0.12,1.97,0.35c0.58,0.23,1.04,0.56,1.38,0.98
		c0.33,0.42,0.58,0.97,0.76,1.64l-1.2,0.33c-0.15-0.51-0.34-0.91-0.56-1.2c-0.22-0.29-0.54-0.53-0.96-0.7
		c-0.42-0.18-0.88-0.26-1.38-0.26c-0.61,0-1.13,0.09-1.57,0.28c-0.44,0.18-0.8,0.43-1.07,0.73s-0.48,0.63-0.63,0.99
		c-0.25,0.62-0.38,1.29-0.38,2.02c0,0.89,0.15,1.64,0.46,2.24s0.75,1.05,1.34,1.34c0.59,0.29,1.21,0.44,1.87,0.44
		c0.57,0,1.13-0.11,1.68-0.33c0.55-0.22,0.96-0.46,1.24-0.71v-1.87H97.99z"/>
	<path d="M103.08,66.51l3.85-10.02h1.43l4.1,10.02h-1.51l-1.17-3.04h-4.19l-1.1,3.04H103.08z M105.98,62.39h3.4l-1.05-2.78
		c-0.32-0.84-0.56-1.54-0.71-2.08c-0.13,0.64-0.31,1.28-0.54,1.91L105.98,62.39z"/>
	<path d="M113.47,66.51V56.49h3.76c0.77,0,1.38,0.1,1.84,0.3c0.46,0.2,0.83,0.51,1.09,0.94c0.26,0.42,0.39,0.86,0.39,1.32
		c0,0.43-0.12,0.83-0.35,1.21c-0.23,0.38-0.58,0.68-1.05,0.92c0.61,0.18,1.07,0.48,1.4,0.91c0.33,0.43,0.49,0.93,0.49,1.52
		c0,0.47-0.1,0.91-0.3,1.31s-0.44,0.71-0.74,0.93c-0.29,0.22-0.66,0.38-1.1,0.5c-0.44,0.11-0.98,0.17-1.62,0.17H113.47z
		 M114.79,60.7h2.17c0.59,0,1.01-0.04,1.26-0.12c0.34-0.1,0.59-0.27,0.76-0.5s0.26-0.52,0.26-0.88c0-0.33-0.08-0.62-0.24-0.88
		c-0.16-0.25-0.39-0.43-0.68-0.52c-0.3-0.09-0.8-0.14-1.52-0.14h-2V60.7z M114.79,65.32h2.5c0.43,0,0.73-0.02,0.9-0.05
		c0.3-0.05,0.56-0.15,0.77-0.27c0.21-0.13,0.37-0.31,0.51-0.56c0.13-0.24,0.2-0.53,0.2-0.84c0-0.37-0.1-0.7-0.29-0.97
		c-0.19-0.28-0.46-0.47-0.8-0.58c-0.34-0.11-0.83-0.17-1.47-0.17h-2.32V65.32z"/>
	<path d="M121.76,66.51l3.85-10.02h1.43l4.1,10.02h-1.51l-1.17-3.04h-4.19l-1.1,3.04H121.76z M124.65,62.39h3.4L127,59.62
		c-0.32-0.84-0.56-1.54-0.71-2.08c-0.13,0.64-0.31,1.28-0.54,1.91L124.65,62.39z"/>
	<path d="M132.22,66.51V56.49h4.44c0.89,0,1.57,0.09,2.04,0.27c0.46,0.18,0.84,0.5,1.11,0.95c0.28,0.46,0.42,0.96,0.42,1.51
		c0,0.71-0.23,1.31-0.69,1.8c-0.46,0.49-1.17,0.8-2.13,0.93c0.35,0.17,0.62,0.33,0.8,0.5c0.39,0.36,0.75,0.8,1.1,1.33l1.74,2.73
		h-1.67l-1.33-2.08c-0.39-0.6-0.71-1.06-0.96-1.38c-0.25-0.32-0.48-0.54-0.67-0.67c-0.2-0.13-0.4-0.22-0.61-0.27
		c-0.15-0.03-0.4-0.05-0.74-0.05h-1.54v4.45H132.22z M133.55,60.91h2.85c0.61,0,1.08-0.06,1.42-0.19c0.34-0.13,0.6-0.33,0.78-0.6
		c0.18-0.28,0.27-0.58,0.27-0.9c0-0.47-0.17-0.86-0.52-1.17c-0.34-0.3-0.89-0.46-1.63-0.46h-3.17V60.91z"/>
</g>
</svg>
