<?xml version="1.0" encoding="utf-8"?>
<!-- Generator: Adobe Illustrator 25.4.1, SVG Export Plug-In . SVG Version: 6.00 Build 0)  -->
<svg version="1.1" id="Capa_1" xmlns="http://www.w3.org/2000/svg" xmlns:xlink="http://www.w3.org/1999/xlink" x="0px" y="0px"
	 viewBox="0 0 184 7" style="enable-background:new 0 0 184 7;" xml:space="preserve">
<style type="text/css">
	.st0{fill:#3F3E3E;}
</style>
<g>
	<path class="st0" d="M0.7,6.93L0.82,6.4c0.12,0.03,0.22,0.05,0.29,0.05c0.12,0,0.22-0.04,0.28-0.12C1.45,6.24,1.48,6.04,1.48,5.7
		V1.89h0.62v3.83c0,0.45-0.06,0.76-0.17,0.93C1.77,6.88,1.53,6.99,1.18,6.99C1.02,6.99,0.85,6.97,0.7,6.93z M1.48,1.22V0.51h0.62
		v0.71H1.48z"/>
	<path class="st0" d="M3.21,5.52v-0.7h0.7v0.7H3.21z"/>
	<path class="st0" d="M4.98,5.52V1.89h0.55v0.55C5.67,2.18,5.8,2.01,5.92,1.93c0.12-0.08,0.25-0.12,0.4-0.12
		c0.21,0,0.42,0.07,0.63,0.2L6.74,2.58c-0.15-0.09-0.3-0.13-0.45-0.13c-0.13,0-0.26,0.04-0.36,0.12S5.74,2.76,5.69,2.9
		c-0.07,0.22-0.1,0.46-0.1,0.72v1.9H4.98z"/>
	<path class="st0" d="M7.08,3.7c0-0.67,0.19-1.17,0.56-1.49c0.31-0.27,0.69-0.4,1.14-0.4c0.5,0,0.91,0.16,1.22,0.49
		s0.48,0.78,0.48,1.36c0,0.47-0.07,0.83-0.21,1.1c-0.14,0.27-0.34,0.48-0.61,0.62C9.4,5.53,9.1,5.6,8.79,5.6
		c-0.51,0-0.92-0.16-1.23-0.49C7.24,4.79,7.08,4.32,7.08,3.7z M7.72,3.7c0,0.46,0.1,0.81,0.3,1.04S8.48,5.1,8.79,5.1
		c0.3,0,0.56-0.12,0.76-0.35c0.2-0.23,0.3-0.59,0.3-1.06c0-0.45-0.1-0.79-0.31-1.02S9.09,2.32,8.79,2.32
		c-0.31,0-0.56,0.12-0.77,0.35S7.72,3.24,7.72,3.7z"/>
	<path class="st0" d="M11.21,5.52V1.89h0.55V2.4c0.11-0.18,0.27-0.32,0.45-0.43s0.4-0.16,0.65-0.16c0.27,0,0.49,0.06,0.66,0.17
		c0.17,0.11,0.29,0.27,0.36,0.47c0.29-0.42,0.66-0.64,1.12-0.64c0.36,0,0.64,0.1,0.83,0.3s0.29,0.51,0.29,0.92v2.49h-0.61V3.23
		c0-0.25-0.02-0.42-0.06-0.53c-0.04-0.11-0.11-0.2-0.22-0.26c-0.1-0.07-0.23-0.1-0.37-0.1c-0.25,0-0.47,0.08-0.63,0.25
		c-0.17,0.17-0.25,0.44-0.25,0.81v2.11h-0.62V3.16c0-0.27-0.05-0.48-0.15-0.62c-0.1-0.14-0.26-0.21-0.49-0.21
		c-0.17,0-0.33,0.05-0.48,0.14c-0.15,0.09-0.25,0.22-0.32,0.4c-0.07,0.18-0.1,0.43-0.1,0.76v1.88H11.21z"/>
	<path class="st0" d="M19.52,4.35l0.63,0.08c-0.1,0.37-0.29,0.66-0.56,0.86S18.98,5.6,18.56,5.6c-0.53,0-0.95-0.16-1.26-0.49
		c-0.31-0.33-0.47-0.79-0.47-1.38c0-0.61,0.16-1.08,0.47-1.42s0.72-0.51,1.22-0.51c0.49,0,0.88,0.17,1.19,0.5
		c0.31,0.33,0.46,0.8,0.46,1.39c0,0.04,0,0.09,0,0.16h-2.71c0.02,0.4,0.14,0.71,0.34,0.92c0.2,0.21,0.46,0.32,0.76,0.32
		c0.22,0,0.42-0.06,0.58-0.18S19.43,4.61,19.52,4.35z M17.5,3.35h2.03c-0.03-0.3-0.1-0.53-0.23-0.69c-0.2-0.24-0.45-0.36-0.76-0.36
		c-0.28,0-0.52,0.09-0.71,0.28C17.63,2.79,17.52,3.04,17.5,3.35z"/>
	<path class="st0" d="M20.92,5.52V1.89h0.55v0.55c0.14-0.26,0.27-0.43,0.39-0.51c0.12-0.08,0.25-0.12,0.39-0.12
		c0.21,0,0.42,0.07,0.63,0.2l-0.21,0.57c-0.15-0.09-0.3-0.13-0.45-0.13c-0.13,0-0.25,0.04-0.36,0.12s-0.18,0.19-0.23,0.34
		c-0.07,0.22-0.1,0.46-0.1,0.72v1.9H20.92z"/>
	<path class="st0" d="M23.03,3.7c0-0.67,0.19-1.17,0.56-1.49c0.31-0.27,0.69-0.4,1.14-0.4c0.5,0,0.91,0.16,1.22,0.49
		s0.47,0.78,0.47,1.36c0,0.47-0.07,0.83-0.21,1.1c-0.14,0.27-0.34,0.48-0.61,0.62c-0.27,0.15-0.56,0.22-0.88,0.22
		c-0.51,0-0.92-0.16-1.23-0.49C23.19,4.79,23.03,4.32,23.03,3.7z M23.67,3.7c0,0.46,0.1,0.81,0.3,1.04s0.46,0.35,0.77,0.35
		c0.31,0,0.56-0.12,0.76-0.35c0.2-0.23,0.3-0.59,0.3-1.06c0-0.45-0.1-0.79-0.31-1.02c-0.2-0.23-0.46-0.35-0.76-0.35
		c-0.31,0-0.56,0.12-0.77,0.35S23.67,3.24,23.67,3.7z"/>
	<path class="st0" d="M30.66,4.96c-0.15,0.17-0.31,0.31-0.5,0.41c-0.18,0.1-0.37,0.16-0.55,0.16c-0.2,0-0.4-0.06-0.59-0.18
		c-0.19-0.12-0.35-0.3-0.47-0.55s-0.18-0.52-0.18-0.81c0-0.36,0.09-0.73,0.28-1.09s0.42-0.64,0.69-0.82
		c0.28-0.18,0.54-0.27,0.8-0.27c0.2,0,0.39,0.05,0.57,0.16s0.33,0.26,0.46,0.47l0.12-0.53h0.61l-0.49,2.29
		c-0.07,0.32-0.1,0.5-0.1,0.53c0,0.06,0.02,0.12,0.07,0.16c0.05,0.04,0.1,0.07,0.17,0.07c0.12,0,0.28-0.07,0.47-0.21
		c0.26-0.18,0.46-0.43,0.62-0.73c0.15-0.31,0.23-0.62,0.23-0.95c0-0.38-0.1-0.74-0.29-1.07c-0.2-0.33-0.49-0.59-0.87-0.79
		c-0.38-0.2-0.81-0.3-1.28-0.3c-0.53,0-1.02,0.12-1.46,0.37c-0.44,0.25-0.78,0.61-1.03,1.07s-0.36,0.96-0.36,1.5
		c0,0.56,0.12,1.04,0.36,1.44c0.24,0.4,0.59,0.7,1.05,0.89s0.97,0.29,1.53,0.29c0.6,0,1.1-0.1,1.5-0.3c0.4-0.2,0.71-0.44,0.91-0.73
		h0.62c-0.12,0.24-0.32,0.48-0.6,0.73c-0.28,0.25-0.62,0.45-1.01,0.59s-0.86,0.22-1.41,0.22c-0.51,0-0.97-0.06-1.4-0.19
		s-0.79-0.33-1.09-0.59s-0.53-0.56-0.68-0.9c-0.19-0.43-0.29-0.89-0.29-1.39c0-0.56,0.11-1.08,0.34-1.59
		c0.28-0.62,0.67-1.09,1.18-1.42s1.13-0.49,1.86-0.49c0.56,0,1.07,0.12,1.52,0.35c0.45,0.23,0.81,0.58,1.07,1.03
		c0.22,0.39,0.33,0.82,0.33,1.29c0,0.66-0.23,1.25-0.7,1.76c-0.41,0.46-0.87,0.69-1.36,0.69c-0.16,0-0.29-0.02-0.38-0.07
		c-0.1-0.05-0.17-0.12-0.21-0.21C30.7,5.2,30.68,5.1,30.66,4.96z M29.01,4.04c0,0.31,0.07,0.55,0.22,0.73
		c0.15,0.17,0.32,0.26,0.51,0.26c0.13,0,0.26-0.04,0.4-0.11s0.28-0.19,0.4-0.34c0.13-0.15,0.23-0.34,0.32-0.57s0.12-0.46,0.12-0.7
		c0-0.31-0.08-0.55-0.23-0.72s-0.34-0.26-0.56-0.26c-0.15,0-0.28,0.04-0.41,0.11c-0.13,0.07-0.25,0.19-0.37,0.36
		c-0.12,0.16-0.22,0.36-0.29,0.6C29.04,3.62,29.01,3.84,29.01,4.04z"/>
	<path class="st0" d="M34.15,5.82l0.6,0.09c0.03,0.18,0.1,0.32,0.21,0.4c0.15,0.11,0.36,0.17,0.62,0.17c0.29,0,0.51-0.06,0.66-0.17
		s0.26-0.27,0.31-0.48c0.03-0.12,0.05-0.39,0.04-0.79c-0.27,0.32-0.6,0.47-1.01,0.47c-0.5,0-0.88-0.18-1.16-0.54
		s-0.41-0.79-0.41-1.3c0-0.35,0.06-0.67,0.19-0.96c0.13-0.29,0.31-0.52,0.55-0.68C35,1.89,35.28,1.81,35.6,1.81
		c0.43,0,0.78,0.17,1.06,0.52V1.89h0.57v3.14c0,0.57-0.06,0.97-0.17,1.2c-0.11,0.24-0.3,0.42-0.55,0.56
		c-0.25,0.14-0.56,0.21-0.92,0.21c-0.43,0-0.78-0.1-1.05-0.29C34.27,6.51,34.14,6.21,34.15,5.82z M34.66,3.64
		c0,0.48,0.09,0.82,0.28,1.04s0.43,0.33,0.71,0.33c0.28,0,0.52-0.11,0.71-0.33s0.29-0.56,0.29-1.02c0-0.44-0.1-0.78-0.3-1
		c-0.2-0.23-0.43-0.34-0.71-0.34c-0.27,0-0.51,0.11-0.7,0.33C34.75,2.87,34.66,3.2,34.66,3.64z"/>
	<path class="st0" d="M40.52,5.07c-0.23,0.19-0.45,0.33-0.66,0.41c-0.21,0.08-0.44,0.12-0.68,0.12c-0.4,0-0.71-0.1-0.92-0.29
		c-0.21-0.2-0.32-0.44-0.32-0.75c0-0.18,0.04-0.34,0.12-0.49c0.08-0.15,0.19-0.26,0.32-0.35s0.28-0.16,0.44-0.2
		c0.12-0.03,0.3-0.06,0.55-0.09c0.5-0.06,0.86-0.13,1.1-0.21c0-0.08,0-0.14,0-0.16c0-0.25-0.06-0.43-0.17-0.53
		c-0.16-0.14-0.39-0.21-0.7-0.21c-0.29,0-0.5,0.05-0.64,0.15c-0.14,0.1-0.24,0.28-0.31,0.54l-0.6-0.08
		c0.05-0.26,0.14-0.47,0.27-0.62c0.12-0.16,0.31-0.28,0.54-0.37c0.24-0.08,0.51-0.13,0.82-0.13c0.31,0,0.56,0.04,0.75,0.11
		s0.34,0.17,0.43,0.28c0.09,0.11,0.16,0.25,0.19,0.42c0.02,0.1,0.03,0.29,0.03,0.57V4c0,0.57,0.01,0.93,0.04,1.09
		c0.03,0.15,0.08,0.3,0.16,0.44h-0.64C40.58,5.39,40.54,5.24,40.52,5.07z M40.47,3.7c-0.22,0.09-0.56,0.17-1,0.23
		c-0.25,0.04-0.43,0.08-0.54,0.12c-0.1,0.05-0.19,0.11-0.24,0.2S38.6,4.44,38.6,4.54c0,0.16,0.06,0.3,0.19,0.41
		c0.12,0.11,0.3,0.16,0.54,0.16c0.24,0,0.45-0.05,0.63-0.16s0.32-0.25,0.41-0.42c0.07-0.14,0.1-0.34,0.1-0.62V3.7z"/>
	<path class="st0" d="M42.61,5.52h-0.57V0.51h0.62V2.3c0.26-0.33,0.59-0.49,1-0.49c0.22,0,0.43,0.04,0.63,0.13
		c0.2,0.09,0.36,0.22,0.49,0.38c0.13,0.16,0.23,0.36,0.3,0.59c0.07,0.23,0.11,0.48,0.11,0.74c0,0.62-0.15,1.1-0.46,1.44
		c-0.31,0.34-0.68,0.51-1.11,0.51c-0.43,0-0.76-0.18-1.01-0.54V5.52z M42.61,3.68c0,0.43,0.06,0.75,0.18,0.94
		c0.19,0.32,0.46,0.47,0.79,0.47c0.27,0,0.5-0.12,0.7-0.35c0.2-0.23,0.29-0.58,0.29-1.04c0-0.47-0.09-0.82-0.28-1.05
		c-0.19-0.23-0.42-0.34-0.68-0.34c-0.27,0-0.5,0.12-0.7,0.35C42.71,2.9,42.61,3.23,42.61,3.68z"/>
	<path class="st0" d="M48.31,5.07c-0.23,0.19-0.45,0.33-0.66,0.41c-0.21,0.08-0.44,0.12-0.68,0.12c-0.4,0-0.71-0.1-0.92-0.29
		c-0.21-0.2-0.32-0.44-0.32-0.75c0-0.18,0.04-0.34,0.12-0.49c0.08-0.15,0.19-0.26,0.32-0.35c0.13-0.09,0.28-0.16,0.44-0.2
		c0.12-0.03,0.3-0.06,0.55-0.09c0.5-0.06,0.86-0.13,1.1-0.21c0-0.08,0-0.14,0-0.16c0-0.25-0.06-0.43-0.17-0.53
		c-0.16-0.14-0.39-0.21-0.7-0.21c-0.29,0-0.5,0.05-0.64,0.15c-0.14,0.1-0.24,0.28-0.31,0.54l-0.6-0.08
		c0.05-0.26,0.14-0.47,0.27-0.62c0.13-0.16,0.31-0.28,0.54-0.37c0.24-0.08,0.51-0.13,0.82-0.13c0.31,0,0.56,0.04,0.76,0.11
		s0.34,0.17,0.43,0.28c0.09,0.11,0.15,0.25,0.19,0.42c0.02,0.1,0.03,0.29,0.03,0.57V4c0,0.57,0.01,0.93,0.04,1.09
		c0.03,0.15,0.08,0.3,0.15,0.44h-0.64C48.37,5.39,48.33,5.24,48.31,5.07z M48.26,3.7c-0.22,0.09-0.56,0.17-1,0.23
		C47,3.97,46.82,4.01,46.72,4.05c-0.11,0.05-0.19,0.11-0.24,0.2s-0.08,0.19-0.08,0.29c0,0.16,0.06,0.3,0.19,0.41
		c0.12,0.11,0.31,0.16,0.54,0.16c0.24,0,0.45-0.05,0.63-0.16s0.32-0.25,0.41-0.42c0.07-0.14,0.1-0.34,0.1-0.62V3.7z"/>
	<path class="st0" d="M49.83,5.52V1.89h0.55v0.55c0.14-0.26,0.27-0.43,0.39-0.51c0.12-0.08,0.25-0.12,0.39-0.12
		c0.21,0,0.42,0.07,0.63,0.2l-0.21,0.57c-0.15-0.09-0.3-0.13-0.45-0.13c-0.13,0-0.25,0.04-0.36,0.12s-0.18,0.19-0.23,0.34
		c-0.07,0.22-0.1,0.46-0.1,0.72v1.9H49.83z"/>
	<path class="st0" d="M51.95,5.52v-0.7h0.7v0.7H51.95z"/>
	<path class="st0" d="M53.72,5.52V1.89h0.55V2.4c0.11-0.18,0.27-0.32,0.46-0.43c0.19-0.11,0.4-0.16,0.65-0.16
		c0.27,0,0.49,0.06,0.66,0.17c0.17,0.11,0.29,0.27,0.36,0.47c0.29-0.42,0.66-0.64,1.12-0.64c0.36,0,0.64,0.1,0.83,0.3
		c0.19,0.2,0.29,0.51,0.29,0.92v2.49h-0.61V3.23c0-0.25-0.02-0.42-0.06-0.53s-0.11-0.2-0.22-0.26c-0.1-0.07-0.23-0.1-0.37-0.1
		c-0.25,0-0.47,0.08-0.64,0.25s-0.25,0.44-0.25,0.81v2.11h-0.62V3.16c0-0.27-0.05-0.48-0.15-0.62s-0.26-0.21-0.49-0.21
		c-0.17,0-0.33,0.05-0.48,0.14c-0.15,0.09-0.25,0.22-0.32,0.4c-0.07,0.18-0.1,0.43-0.1,0.76v1.88H53.72z"/>
	<path class="st0" d="M59.14,5.52l1.33-1.89l-1.23-1.74h0.77l0.56,0.85c0.1,0.16,0.19,0.3,0.25,0.41c0.1-0.15,0.19-0.28,0.28-0.4
		l0.61-0.86h0.73L61.19,3.6l1.35,1.92h-0.75l-0.75-1.13l-0.2-0.3l-0.95,1.43H59.14z"/>
</g>
</svg>
