<?xml version="1.0" encoding="utf-8"?>
<!-- Generator: Adobe Illustrator 25.4.1, SVG Export Plug-In . SVG Version: 6.00 Build 0)  -->
<svg version="1.1" id="Capa_1" xmlns="http://www.w3.org/2000/svg" xmlns:xlink="http://www.w3.org/1999/xlink" x="0px" y="0px"
	 viewBox="0 0 221 85.61" style="enable-background:new 0 0 221 85.61;" xml:space="preserve">
<g>
	<path d="M2.51,25.62V14.87h2.17v10.75H2.51z"/>
	<path d="M13.81,25.62h-2.06v-3.97c0-0.84-0.04-1.38-0.13-1.63c-0.09-0.25-0.23-0.44-0.43-0.58c-0.2-0.14-0.44-0.21-0.71-0.21
		c-0.36,0-0.68,0.1-0.96,0.29s-0.48,0.45-0.58,0.78c-0.11,0.32-0.16,0.92-0.16,1.79v3.53H6.72v-7.79h1.91v1.14
		c0.68-0.88,1.53-1.32,2.57-1.32c0.45,0,0.87,0.08,1.25,0.25c0.38,0.16,0.66,0.37,0.85,0.63c0.19,0.25,0.33,0.54,0.4,0.86
		c0.08,0.32,0.11,0.78,0.11,1.39V25.62z"/>
	<path d="M15.71,26.13l2.35,0.29c0.04,0.27,0.13,0.46,0.27,0.56c0.2,0.15,0.5,0.22,0.92,0.22c0.54,0,0.94-0.08,1.21-0.24
		c0.18-0.11,0.32-0.28,0.41-0.52c0.06-0.17,0.09-0.49,0.09-0.95v-1.14c-0.62,0.84-1.39,1.26-2.33,1.26c-1.05,0-1.87-0.44-2.49-1.33
		c-0.48-0.7-0.72-1.57-0.72-2.61c0-1.31,0.31-2.3,0.94-2.99c0.63-0.69,1.41-1.03,2.34-1.03c0.96,0,1.76,0.42,2.38,1.27v-1.09h1.93
		v6.99c0,0.92-0.08,1.61-0.23,2.06c-0.15,0.46-0.36,0.81-0.64,1.07c-0.27,0.26-0.64,0.46-1.1,0.61c-0.46,0.15-1.03,0.22-1.73,0.22
		c-1.32,0-2.26-0.23-2.81-0.68c-0.55-0.45-0.83-1.02-0.83-1.72C15.7,26.31,15.71,26.23,15.71,26.13z M17.55,21.56
		c0,0.83,0.16,1.43,0.48,1.81c0.32,0.38,0.71,0.58,1.18,0.58c0.5,0,0.93-0.2,1.28-0.59c0.35-0.39,0.52-0.98,0.52-1.75
		c0-0.81-0.17-1.4-0.5-1.8c-0.33-0.39-0.75-0.59-1.26-0.59c-0.49,0-0.9,0.19-1.22,0.58C17.71,20.19,17.55,20.78,17.55,21.56z"/>
	<path d="M25.07,25.62v-2.06h2.06v2.06H25.07z"/>
	<path d="M33.42,14.87h3.97c0.89,0,1.58,0.07,2.05,0.21c0.63,0.19,1.17,0.52,1.62,0.99c0.45,0.47,0.79,1.05,1.03,1.74
		s0.35,1.53,0.35,2.54c0,0.88-0.11,1.65-0.33,2.29c-0.27,0.78-0.65,1.42-1.15,1.9c-0.38,0.37-0.88,0.65-1.52,0.86
		c-0.48,0.15-1.12,0.23-1.92,0.23h-4.08V14.87z M35.59,16.69v7.12h1.62c0.61,0,1.04-0.03,1.31-0.1c0.35-0.09,0.64-0.24,0.88-0.45
		c0.23-0.21,0.42-0.56,0.57-1.04c0.15-0.48,0.22-1.14,0.22-1.97c0-0.83-0.07-1.47-0.22-1.91c-0.15-0.44-0.35-0.79-0.62-1.04
		c-0.26-0.25-0.6-0.42-1-0.51c-0.3-0.07-0.9-0.1-1.78-0.1H35.59z"/>
	<path d="M45.8,20.21l-1.87-0.34c0.21-0.75,0.57-1.31,1.09-1.67c0.51-0.36,1.28-0.54,2.29-0.54c0.92,0,1.6,0.11,2.05,0.33
		c0.45,0.22,0.77,0.49,0.95,0.83c0.18,0.33,0.27,0.95,0.27,1.84l-0.02,2.4c0,0.68,0.03,1.19,0.1,1.51c0.07,0.33,0.19,0.67,0.37,1.04
		h-2.04c-0.05-0.14-0.12-0.34-0.2-0.61c-0.03-0.12-0.06-0.2-0.07-0.24c-0.35,0.34-0.73,0.6-1.13,0.77c-0.4,0.17-0.83,0.26-1.28,0.26
		c-0.8,0-1.43-0.22-1.9-0.65c-0.46-0.44-0.69-0.99-0.69-1.65c0-0.44,0.1-0.83,0.32-1.18c0.21-0.34,0.5-0.61,0.88-0.79
		c0.38-0.18,0.92-0.34,1.64-0.48c0.96-0.18,1.63-0.35,2-0.51v-0.21c0-0.4-0.1-0.68-0.29-0.85c-0.2-0.17-0.56-0.25-1.11-0.25
		c-0.37,0-0.65,0.07-0.86,0.22S45.93,19.85,45.8,20.21z M48.56,21.88c-0.26,0.09-0.68,0.19-1.25,0.32
		c-0.57,0.12-0.95,0.24-1.12,0.36c-0.27,0.19-0.4,0.43-0.4,0.73c0,0.29,0.11,0.54,0.32,0.75c0.22,0.21,0.49,0.32,0.82,0.32
		c0.37,0,0.73-0.12,1.06-0.37c0.25-0.19,0.41-0.41,0.49-0.68c0.05-0.18,0.08-0.51,0.08-1V21.88z"/>
	<path d="M59.69,25.62h-2.06v-3.97c0-0.84-0.04-1.38-0.13-1.63c-0.09-0.25-0.23-0.44-0.43-0.58c-0.2-0.14-0.44-0.21-0.71-0.21
		c-0.36,0-0.68,0.1-0.96,0.29s-0.48,0.45-0.58,0.78c-0.11,0.32-0.16,0.92-0.16,1.79v3.53H52.6v-7.79h1.91v1.14
		c0.68-0.88,1.53-1.32,2.57-1.32c0.45,0,0.87,0.08,1.25,0.25c0.38,0.16,0.66,0.37,0.85,0.63c0.19,0.25,0.33,0.54,0.4,0.86
		c0.08,0.32,0.11,0.78,0.11,1.39V25.62z"/>
	<path d="M61.78,16.78v-1.91h2.06v1.91H61.78z M61.78,25.62v-7.79h2.06v7.79H61.78z"/>
	<path d="M70.46,23.14l2.05,0.34c-0.26,0.75-0.68,1.33-1.25,1.72c-0.57,0.39-1.28,0.59-2.14,0.59c-1.35,0-2.36-0.44-3.01-1.33
		c-0.51-0.71-0.77-1.6-0.77-2.68c0-1.29,0.34-2.3,1.01-3.03c0.67-0.73,1.53-1.1,2.56-1.1c1.16,0,2.07,0.38,2.74,1.15
		c0.67,0.76,0.99,1.94,0.96,3.52h-5.16c0.01,0.61,0.18,1.09,0.5,1.43c0.32,0.34,0.71,0.51,1.19,0.51c0.32,0,0.59-0.09,0.81-0.26
		C70.18,23.81,70.35,23.53,70.46,23.14z M70.58,21.06c-0.01-0.6-0.17-1.05-0.46-1.36c-0.29-0.31-0.65-0.47-1.07-0.47
		c-0.45,0-0.82,0.16-1.11,0.49c-0.29,0.33-0.44,0.77-0.43,1.33H70.58z"/>
	<path d="M74.3,25.62V14.87h2.06v10.75H74.3z"/>
	<path d="M86.54,14.87h2.16v6.8c0,0.89-0.08,1.57-0.23,2.05c-0.21,0.63-0.59,1.13-1.14,1.51c-0.55,0.38-1.28,0.57-2.18,0.57
		c-1.06,0-1.88-0.3-2.45-0.89c-0.57-0.59-0.86-1.46-0.87-2.61l2.05-0.23c0.02,0.62,0.11,1.05,0.27,1.31
		c0.23,0.39,0.59,0.58,1.07,0.58c0.48,0,0.83-0.14,1.03-0.41c0.2-0.28,0.3-0.85,0.3-1.72V14.87z"/>
	<path d="M95.51,23.14l2.05,0.34c-0.26,0.75-0.68,1.33-1.25,1.72c-0.57,0.39-1.28,0.59-2.14,0.59c-1.35,0-2.36-0.44-3.01-1.33
		c-0.51-0.71-0.77-1.6-0.77-2.68c0-1.29,0.34-2.3,1.01-3.03s1.53-1.1,2.56-1.1c1.16,0,2.07,0.38,2.74,1.15
		c0.67,0.76,0.99,1.94,0.96,3.52h-5.16c0.01,0.61,0.18,1.09,0.5,1.43c0.32,0.34,0.71,0.51,1.19,0.51c0.32,0,0.59-0.09,0.81-0.26
		C95.23,23.81,95.39,23.53,95.51,23.14z M95.62,21.06c-0.01-0.6-0.17-1.05-0.46-1.36c-0.29-0.31-0.65-0.47-1.07-0.47
		c-0.45,0-0.82,0.16-1.11,0.49c-0.29,0.33-0.44,0.77-0.43,1.33H95.62z"/>
	<path d="M98.62,23.4l2.07-0.32c0.09,0.4,0.27,0.71,0.53,0.91c0.27,0.21,0.65,0.31,1.13,0.31c0.53,0,0.93-0.1,1.2-0.29
		c0.18-0.14,0.27-0.32,0.27-0.55c0-0.16-0.05-0.29-0.15-0.39c-0.1-0.1-0.33-0.19-0.69-0.27c-1.66-0.37-2.72-0.7-3.16-1
		c-0.62-0.42-0.92-1.01-0.92-1.75c0-0.67,0.27-1.24,0.8-1.7c0.53-0.46,1.36-0.69,2.48-0.69c1.07,0,1.86,0.17,2.38,0.52
		c0.52,0.35,0.87,0.86,1.07,1.54l-1.94,0.36c-0.08-0.3-0.24-0.54-0.47-0.7c-0.23-0.16-0.56-0.24-0.99-0.24
		c-0.54,0-0.93,0.08-1.17,0.23c-0.16,0.11-0.23,0.25-0.23,0.42c0,0.15,0.07,0.27,0.21,0.37c0.19,0.14,0.83,0.33,1.92,0.58
		c1.1,0.25,1.86,0.56,2.3,0.92c0.43,0.37,0.65,0.88,0.65,1.53c0,0.71-0.3,1.33-0.89,1.84c-0.6,0.51-1.48,0.77-2.65,0.77
		c-1.06,0-1.9-0.21-2.52-0.65S98.81,24.13,98.62,23.4z"/>
	<path d="M112.82,25.62v-1.17c-0.28,0.42-0.66,0.74-1.12,0.98c-0.46,0.24-0.95,0.36-1.46,0.36c-0.52,0-0.99-0.12-1.41-0.34
		c-0.42-0.23-0.72-0.55-0.9-0.97c-0.19-0.42-0.28-0.99-0.28-1.72v-4.93h2.06v3.58c0,1.09,0.04,1.77,0.11,2.01
		c0.08,0.25,0.21,0.44,0.41,0.59c0.2,0.14,0.45,0.22,0.76,0.22c0.35,0,0.67-0.1,0.95-0.29c0.28-0.19,0.47-0.43,0.57-0.72
		c0.1-0.29,0.15-0.99,0.15-2.1v-3.28h2.06v7.79H112.82z M110.16,16.88l1.01-2.19h2.31l-2.02,2.19H110.16z"/>
	<path d="M116.14,23.4l2.07-0.32c0.09,0.4,0.27,0.71,0.53,0.91c0.27,0.21,0.65,0.31,1.13,0.31c0.53,0,0.93-0.1,1.2-0.29
		c0.18-0.14,0.27-0.32,0.27-0.55c0-0.16-0.05-0.29-0.15-0.39c-0.1-0.1-0.33-0.19-0.69-0.27c-1.66-0.37-2.72-0.7-3.16-1
		c-0.62-0.42-0.92-1.01-0.92-1.75c0-0.67,0.27-1.24,0.8-1.7c0.53-0.46,1.36-0.69,2.48-0.69c1.07,0,1.86,0.17,2.38,0.52
		c0.52,0.35,0.87,0.86,1.07,1.54l-1.94,0.36c-0.08-0.3-0.24-0.54-0.47-0.7c-0.23-0.16-0.56-0.24-0.99-0.24
		c-0.54,0-0.93,0.08-1.17,0.23c-0.16,0.11-0.23,0.25-0.23,0.42c0,0.15,0.07,0.27,0.21,0.37c0.19,0.14,0.83,0.33,1.92,0.58
		c1.1,0.25,1.86,0.56,2.3,0.92c0.43,0.37,0.65,0.88,0.65,1.53c0,0.71-0.3,1.33-0.89,1.84c-0.6,0.51-1.48,0.77-2.65,0.77
		c-1.06,0-1.9-0.21-2.52-0.65C116.74,24.72,116.34,24.13,116.14,23.4z"/>
	<path d="M131.83,25.62v-8.93h-3.19v-1.82h8.54v1.82H134v8.93H131.83z"/>
	<path d="M136.97,21.61c0-0.68,0.17-1.35,0.51-1.99c0.34-0.64,0.82-1.13,1.43-1.47c0.62-0.34,1.31-0.51,2.07-0.51
		c1.18,0,2.14,0.38,2.9,1.15c0.75,0.76,1.13,1.73,1.13,2.9c0,1.18-0.38,2.15-1.14,2.93s-1.72,1.16-2.87,1.16
		c-0.71,0-1.39-0.16-2.04-0.48c-0.65-0.32-1.14-0.8-1.48-1.42C137.14,23.27,136.97,22.51,136.97,21.61z M139.08,21.72
		c0,0.77,0.18,1.36,0.55,1.77c0.37,0.41,0.82,0.62,1.36,0.62c0.54,0,0.99-0.2,1.35-0.62c0.36-0.41,0.55-1.01,0.55-1.79
		c0-0.76-0.18-1.35-0.55-1.76c-0.36-0.41-0.82-0.62-1.35-0.62c-0.54,0-0.99,0.21-1.36,0.62C139.27,20.36,139.08,20.95,139.08,21.72z
		"/>
	<path d="M148.59,25.62h-2.06v-7.79h1.91v1.11c0.33-0.52,0.62-0.87,0.88-1.03c0.26-0.17,0.56-0.25,0.89-0.25
		c0.47,0,0.92,0.13,1.36,0.39l-0.64,1.8c-0.35-0.22-0.67-0.34-0.97-0.34c-0.29,0-0.53,0.08-0.73,0.24s-0.36,0.45-0.47,0.86
		c-0.12,0.42-0.17,1.29-0.17,2.61V25.62z"/>
	<path d="M154.44,25.62h-2.06v-7.79h1.91v1.11c0.33-0.52,0.62-0.87,0.88-1.03c0.26-0.17,0.56-0.25,0.89-0.25
		c0.47,0,0.92,0.13,1.36,0.39l-0.64,1.8c-0.35-0.22-0.67-0.34-0.97-0.34c-0.29,0-0.53,0.08-0.73,0.24s-0.36,0.45-0.47,0.86
		c-0.12,0.42-0.17,1.29-0.17,2.61V25.62z"/>
	<path d="M162.82,23.14l2.05,0.34c-0.26,0.75-0.68,1.33-1.25,1.72c-0.57,0.39-1.28,0.59-2.14,0.59c-1.35,0-2.36-0.44-3.01-1.33
		c-0.51-0.71-0.77-1.6-0.77-2.68c0-1.29,0.34-2.3,1.01-3.03s1.53-1.1,2.56-1.1c1.16,0,2.07,0.38,2.74,1.15
		c0.67,0.76,0.99,1.94,0.96,3.52h-5.16c0.01,0.61,0.18,1.09,0.5,1.43c0.32,0.34,0.71,0.51,1.19,0.51c0.32,0,0.59-0.09,0.81-0.26
		C162.54,23.81,162.7,23.53,162.82,23.14z M162.93,21.06c-0.01-0.6-0.17-1.05-0.46-1.36c-0.29-0.31-0.65-0.47-1.07-0.47
		c-0.45,0-0.82,0.16-1.11,0.49c-0.29,0.33-0.44,0.77-0.43,1.33H162.93z"/>
	<path d="M165.93,23.4l2.07-0.32c0.09,0.4,0.27,0.71,0.53,0.91c0.27,0.21,0.65,0.31,1.13,0.31c0.53,0,0.93-0.1,1.2-0.29
		c0.18-0.14,0.27-0.32,0.27-0.55c0-0.16-0.05-0.29-0.15-0.39c-0.1-0.1-0.33-0.19-0.69-0.27c-1.66-0.37-2.72-0.7-3.16-1
		c-0.62-0.42-0.92-1.01-0.92-1.75c0-0.67,0.27-1.24,0.8-1.7c0.53-0.46,1.36-0.69,2.48-0.69c1.07,0,1.86,0.17,2.38,0.52
		c0.52,0.35,0.87,0.86,1.07,1.54L171,20.07c-0.08-0.3-0.24-0.54-0.47-0.7c-0.23-0.16-0.56-0.24-0.99-0.24
		c-0.54,0-0.93,0.08-1.17,0.23c-0.16,0.11-0.23,0.25-0.23,0.42c0,0.15,0.07,0.27,0.21,0.37c0.19,0.14,0.83,0.33,1.92,0.58
		c1.1,0.25,1.86,0.56,2.3,0.92c0.43,0.37,0.65,0.88,0.65,1.53c0,0.71-0.3,1.33-0.89,1.84c-0.6,0.51-1.48,0.77-2.65,0.77
		c-1.06,0-1.9-0.21-2.52-0.65S166.12,24.13,165.93,23.4z"/>
	<path d="M188.33,25.62h-2.36l-0.94-2.44h-4.3l-0.89,2.44h-2.3l4.19-10.75h2.29L188.33,25.62z M184.33,21.37l-1.48-3.99l-1.45,3.99
		H184.33z"/>
	<path d="M191.05,25.62l-3.14-7.79h2.16l1.47,3.97l0.42,1.33c0.11-0.34,0.18-0.56,0.21-0.67c0.07-0.22,0.14-0.44,0.22-0.66
		l1.48-3.97H196l-3.09,7.79H191.05z"/>
	<path d="M197.26,16.78v-1.91h2.06v1.91H197.26z M197.26,25.62v-7.79h2.06v7.79H197.26z"/>
	<path d="M201.43,25.62V14.87h2.06v10.75H201.43z"/>
	<path d="M210.11,23.14l2.05,0.34c-0.26,0.75-0.68,1.33-1.25,1.72c-0.57,0.39-1.28,0.59-2.14,0.59c-1.35,0-2.36-0.44-3.01-1.33
		c-0.51-0.71-0.77-1.6-0.77-2.68c0-1.29,0.34-2.3,1.01-3.03s1.53-1.1,2.56-1.1c1.16,0,2.07,0.38,2.74,1.15s0.99,1.94,0.96,3.52
		h-5.16c0.01,0.61,0.18,1.09,0.5,1.43c0.32,0.34,0.71,0.51,1.19,0.51c0.32,0,0.59-0.09,0.81-0.26
		C209.83,23.81,210,23.53,210.11,23.14z M210.23,21.06c-0.01-0.6-0.17-1.05-0.46-1.36c-0.29-0.31-0.65-0.47-1.07-0.47
		c-0.45,0-0.82,0.16-1.11,0.49c-0.29,0.33-0.44,0.77-0.43,1.33H210.23z M207.6,16.88l1.01-2.19h2.31l-2.02,2.19H207.6z"/>
	<path d="M213.23,23.4l2.07-0.32c0.09,0.4,0.27,0.71,0.53,0.91c0.27,0.21,0.65,0.31,1.13,0.31c0.53,0,0.93-0.1,1.2-0.29
		c0.18-0.14,0.27-0.32,0.27-0.55c0-0.16-0.05-0.29-0.15-0.39c-0.1-0.1-0.33-0.19-0.69-0.27c-1.66-0.37-2.71-0.7-3.16-1
		c-0.62-0.42-0.92-1.01-0.92-1.75c0-0.67,0.27-1.24,0.8-1.7c0.53-0.46,1.36-0.69,2.48-0.69c1.07,0,1.86,0.17,2.38,0.52
		c0.52,0.35,0.87,0.86,1.07,1.54l-1.94,0.36c-0.08-0.3-0.24-0.54-0.47-0.7c-0.23-0.16-0.56-0.24-0.99-0.24
		c-0.54,0-0.93,0.08-1.17,0.23c-0.16,0.11-0.23,0.25-0.23,0.42c0,0.15,0.07,0.27,0.2,0.37c0.19,0.14,0.83,0.33,1.92,0.58
		c1.1,0.25,1.86,0.56,2.3,0.92c0.43,0.37,0.65,0.88,0.65,1.53c0,0.71-0.3,1.33-0.89,1.84c-0.6,0.51-1.48,0.77-2.65,0.77
		c-1.06,0-1.9-0.21-2.52-0.65C213.82,24.72,213.42,24.13,213.23,23.4z"/>
</g>
<g>
	<path d="M7.17,44.28v-1.16l4.18-0.01v3.66c-0.64,0.51-1.3,0.9-1.98,1.15c-0.68,0.26-1.38,0.39-2.1,0.39
		c-0.97,0-1.85-0.21-2.64-0.62c-0.79-0.42-1.39-1.01-1.79-1.8s-0.61-1.66-0.61-2.63c0-0.96,0.2-1.86,0.6-2.69s0.98-1.45,1.73-1.85
		c0.75-0.4,1.62-0.61,2.6-0.61c0.71,0,1.36,0.12,1.93,0.35c0.58,0.23,1.03,0.55,1.36,0.97c0.33,0.41,0.58,0.95,0.75,1.61l-1.18,0.32
		c-0.15-0.5-0.33-0.9-0.55-1.18s-0.53-0.52-0.94-0.69s-0.86-0.26-1.36-0.26c-0.6,0-1.11,0.09-1.55,0.27s-0.79,0.42-1.05,0.72
		c-0.27,0.3-0.47,0.62-0.62,0.98c-0.25,0.61-0.38,1.27-0.38,1.98c0,0.88,0.15,1.62,0.45,2.21s0.74,1.03,1.32,1.32
		s1.19,0.43,1.84,0.43c0.56,0,1.12-0.11,1.66-0.33c0.54-0.22,0.95-0.45,1.22-0.7v-1.84H7.17z"/>
	<path d="M18.01,45.85L19.26,46c-0.2,0.73-0.56,1.3-1.1,1.7c-0.53,0.4-1.22,0.61-2.05,0.61c-1.04,0-1.87-0.32-2.49-0.96
		s-0.92-1.55-0.92-2.71c0-1.2,0.31-2.13,0.93-2.8s1.42-1,2.41-1c0.96,0,1.74,0.33,2.34,0.98s0.91,1.57,0.91,2.75
		c0,0.07,0,0.18-0.01,0.32h-5.33c0.04,0.79,0.27,1.39,0.67,1.8c0.4,0.42,0.9,0.63,1.49,0.63c0.44,0,0.82-0.12,1.14-0.35
		C17.58,46.73,17.83,46.36,18.01,45.85z M14.04,43.89h3.99c-0.05-0.6-0.21-1.05-0.46-1.35c-0.39-0.47-0.89-0.7-1.5-0.7
		c-0.56,0-1.02,0.19-1.4,0.56C14.29,42.77,14.08,43.27,14.04,43.89z"/>
	<path d="M20.77,48.15V41h1.09v1.08c0.28-0.51,0.54-0.84,0.77-1c0.24-0.16,0.49-0.24,0.78-0.24c0.41,0,0.82,0.13,1.25,0.39
		l-0.42,1.12c-0.3-0.17-0.59-0.26-0.89-0.26c-0.26,0-0.5,0.08-0.71,0.24s-0.36,0.38-0.45,0.66c-0.13,0.43-0.2,0.9-0.2,1.41v3.74
		H20.77z"/>
	<path d="M30.27,45.85L31.52,46c-0.2,0.73-0.56,1.3-1.1,1.7c-0.53,0.4-1.22,0.61-2.05,0.61c-1.04,0-1.87-0.32-2.49-0.96
		s-0.92-1.55-0.92-2.71c0-1.2,0.31-2.13,0.93-2.8s1.42-1,2.41-1c0.96,0,1.74,0.33,2.34,0.98s0.91,1.57,0.91,2.75
		c0,0.07,0,0.18-0.01,0.32h-5.33c0.04,0.79,0.27,1.39,0.67,1.8c0.4,0.42,0.9,0.63,1.49,0.63c0.44,0,0.82-0.12,1.14-0.35
		C29.83,46.73,30.08,46.36,30.27,45.85z M26.29,43.89h3.99c-0.05-0.6-0.21-1.05-0.46-1.35c-0.39-0.47-0.89-0.7-1.5-0.7
		c-0.56,0-1.02,0.19-1.4,0.56C26.54,42.77,26.33,43.27,26.29,43.89z"/>
	<path d="M33.04,48.15V41h1.09v1.02c0.52-0.79,1.28-1.18,2.27-1.18c0.43,0,0.83,0.08,1.19,0.23c0.36,0.16,0.63,0.36,0.81,0.61
		c0.18,0.25,0.31,0.55,0.38,0.89c0.04,0.22,0.07,0.62,0.07,1.18v4.39h-1.21V43.8c0-0.49-0.05-0.86-0.14-1.11
		c-0.09-0.25-0.26-0.44-0.5-0.59c-0.24-0.15-0.52-0.22-0.84-0.22c-0.52,0-0.96,0.16-1.34,0.49c-0.37,0.33-0.56,0.95-0.56,1.86v3.9
		H33.04z"/>
	<path d="M43.35,47.07l0.17,1.07c-0.34,0.07-0.65,0.11-0.92,0.11c-0.44,0-0.78-0.07-1.02-0.21c-0.24-0.14-0.41-0.32-0.51-0.55
		s-0.15-0.7-0.15-1.43v-4.11h-0.89V41h0.89v-1.77l1.2-0.73V41h1.22v0.94h-1.22v4.18c0,0.35,0.02,0.57,0.06,0.67
		c0.04,0.1,0.11,0.18,0.21,0.24c0.1,0.06,0.23,0.09,0.41,0.09C42.95,47.11,43.13,47.1,43.35,47.07z"/>
	<path d="M49.42,45.85L50.67,46c-0.2,0.73-0.56,1.3-1.1,1.7c-0.53,0.4-1.22,0.61-2.05,0.61c-1.04,0-1.87-0.32-2.49-0.96
		s-0.92-1.55-0.92-2.71c0-1.2,0.31-2.13,0.93-2.8s1.42-1,2.41-1c0.96,0,1.74,0.33,2.34,0.98s0.91,1.57,0.91,2.75
		c0,0.07,0,0.18-0.01,0.32h-5.33c0.04,0.79,0.27,1.39,0.67,1.8c0.4,0.42,0.9,0.63,1.49,0.63c0.44,0,0.82-0.12,1.14-0.35
		C48.99,46.73,49.24,46.36,49.42,45.85z M45.44,43.89h3.99c-0.05-0.6-0.21-1.05-0.46-1.35c-0.39-0.47-0.89-0.7-1.5-0.7
		c-0.56,0-1.02,0.19-1.4,0.56C45.69,42.77,45.48,43.27,45.44,43.89z"/>
	<path d="M60.66,48.15v-0.9c-0.45,0.71-1.12,1.06-2,1.06c-0.57,0-1.09-0.16-1.57-0.47c-0.48-0.31-0.85-0.75-1.11-1.32
		c-0.26-0.56-0.39-1.21-0.39-1.94c0-0.71,0.12-1.36,0.36-1.94c0.24-0.58,0.59-1.03,1.07-1.34s1.01-0.46,1.59-0.46
		c0.43,0,0.81,0.09,1.15,0.27c0.34,0.18,0.61,0.42,0.82,0.71v-3.54h1.2v9.86H60.66z M56.83,44.58c0,0.92,0.19,1.6,0.58,2.05
		s0.84,0.68,1.37,0.68c0.53,0,0.98-0.22,1.35-0.65s0.56-1.09,0.56-1.98c0-0.98-0.19-1.7-0.56-2.15c-0.38-0.46-0.84-0.69-1.39-0.69
		c-0.54,0-0.99,0.22-1.35,0.66C57.01,42.94,56.83,43.64,56.83,44.58z"/>
	<path d="M68.58,45.85L69.83,46c-0.2,0.73-0.56,1.3-1.1,1.7c-0.53,0.4-1.22,0.61-2.05,0.61c-1.04,0-1.87-0.32-2.49-0.96
		s-0.92-1.55-0.92-2.71c0-1.2,0.31-2.13,0.93-2.8s1.42-1,2.41-1c0.96,0,1.74,0.33,2.34,0.98s0.91,1.57,0.91,2.75
		c0,0.07,0,0.18-0.01,0.32h-5.33c0.04,0.79,0.27,1.39,0.67,1.8c0.4,0.42,0.9,0.63,1.49,0.63c0.44,0,0.82-0.12,1.14-0.35
		C68.14,46.73,68.39,46.36,68.58,45.85z M64.6,43.89h3.99c-0.05-0.6-0.21-1.05-0.46-1.35c-0.39-0.47-0.89-0.7-1.5-0.7
		c-0.56,0-1.02,0.19-1.4,0.56C64.85,42.77,64.64,43.27,64.6,43.89z"/>
	<path d="M74.94,43.35c0-1.64,0.44-2.92,1.32-3.85c0.88-0.93,2.01-1.39,3.4-1.39c0.91,0,1.73,0.22,2.46,0.65
		c0.73,0.44,1.29,1.04,1.67,1.82c0.38,0.78,0.58,1.66,0.58,2.65c0,1-0.2,1.9-0.61,2.69c-0.4,0.79-0.98,1.39-1.72,1.79
		c-0.74,0.41-1.54,0.61-2.4,0.61c-0.93,0-1.76-0.22-2.49-0.67c-0.73-0.45-1.29-1.06-1.66-1.84C75.12,45.03,74.94,44.21,74.94,43.35z
		 M76.28,43.36c0,1.19,0.32,2.12,0.96,2.81c0.64,0.68,1.44,1.03,2.41,1.03c0.98,0,1.79-0.35,2.43-1.04
		c0.63-0.69,0.95-1.67,0.95-2.94c0-0.8-0.14-1.5-0.41-2.1c-0.27-0.6-0.67-1.06-1.19-1.39c-0.52-0.33-1.11-0.49-1.76-0.49
		c-0.92,0-1.72,0.32-2.39,0.95C76.61,40.82,76.28,41.88,76.28,43.36z"/>
	<path d="M85.9,50.89V41H87v0.93c0.26-0.36,0.55-0.64,0.88-0.82c0.33-0.18,0.72-0.27,1.19-0.27c0.61,0,1.15,0.16,1.62,0.47
		c0.47,0.31,0.82,0.76,1.06,1.33c0.24,0.57,0.36,1.2,0.36,1.88c0,0.73-0.13,1.39-0.39,1.98c-0.26,0.58-0.64,1.03-1.14,1.35
		c-0.5,0.31-1.03,0.47-1.58,0.47c-0.4,0-0.77-0.08-1.09-0.25c-0.32-0.17-0.58-0.39-0.79-0.65v3.48H85.9z M86.99,44.62
		c0,0.92,0.19,1.6,0.56,2.04c0.37,0.44,0.82,0.66,1.35,0.66c0.54,0,1-0.23,1.38-0.68c0.38-0.46,0.58-1.16,0.58-2.12
		c0-0.91-0.19-1.59-0.56-2.04s-0.82-0.68-1.34-0.68c-0.52,0-0.97,0.24-1.37,0.72C87.19,43,86.99,43.7,86.99,44.62z"/>
	<path d="M98.45,45.85L99.7,46c-0.2,0.73-0.56,1.3-1.1,1.7c-0.53,0.4-1.22,0.61-2.05,0.61c-1.04,0-1.87-0.32-2.49-0.96
		s-0.92-1.55-0.92-2.71c0-1.2,0.31-2.13,0.93-2.8s1.42-1,2.41-1c0.96,0,1.74,0.33,2.34,0.98s0.91,1.57,0.91,2.75
		c0,0.07,0,0.18-0.01,0.32h-5.33c0.04,0.79,0.27,1.39,0.67,1.8c0.4,0.42,0.9,0.63,1.49,0.63c0.44,0,0.82-0.12,1.14-0.35
		C98.02,46.73,98.27,46.36,98.45,45.85z M94.48,43.89h3.99c-0.05-0.6-0.21-1.05-0.46-1.35c-0.39-0.47-0.89-0.7-1.5-0.7
		c-0.56,0-1.02,0.19-1.4,0.56C94.73,42.77,94.52,43.27,94.48,43.89z"/>
	<path d="M101.21,48.15V41h1.09v1.08c0.28-0.51,0.54-0.84,0.77-1c0.24-0.16,0.49-0.24,0.78-0.24c0.41,0,0.82,0.13,1.25,0.39
		l-0.42,1.12c-0.3-0.17-0.59-0.26-0.89-0.26c-0.26,0-0.5,0.08-0.71,0.24s-0.36,0.38-0.45,0.66c-0.13,0.43-0.2,0.9-0.2,1.41v3.74
		H101.21z"/>
	<path d="M110.48,47.27c-0.45,0.38-0.88,0.65-1.3,0.81s-0.86,0.24-1.34,0.24c-0.79,0-1.39-0.19-1.81-0.58
		c-0.42-0.38-0.63-0.87-0.63-1.47c0-0.35,0.08-0.67,0.24-0.96s0.37-0.52,0.63-0.7c0.26-0.17,0.55-0.31,0.87-0.4
		c0.24-0.06,0.6-0.12,1.08-0.18c0.98-0.12,1.7-0.25,2.16-0.42c0-0.17,0.01-0.27,0.01-0.32c0-0.49-0.11-0.84-0.34-1.04
		c-0.31-0.27-0.77-0.41-1.38-0.41c-0.57,0-0.99,0.1-1.26,0.3c-0.27,0.2-0.47,0.55-0.6,1.06l-1.18-0.16
		c0.11-0.51,0.28-0.92,0.53-1.23c0.25-0.31,0.6-0.55,1.07-0.72c0.47-0.17,1.01-0.25,1.62-0.25c0.61,0,1.11,0.07,1.49,0.22
		s0.66,0.32,0.84,0.54c0.18,0.22,0.31,0.49,0.38,0.82c0.04,0.21,0.06,0.58,0.06,1.12v1.62c0,1.13,0.03,1.84,0.08,2.14
		c0.05,0.3,0.15,0.58,0.31,0.86h-1.27C110.59,47.9,110.51,47.6,110.48,47.27z M110.38,44.56c-0.44,0.18-1.1,0.33-1.98,0.46
		c-0.5,0.07-0.85,0.15-1.06,0.24c-0.21,0.09-0.37,0.22-0.48,0.39s-0.17,0.36-0.17,0.58c0,0.32,0.12,0.59,0.37,0.81
		c0.24,0.22,0.6,0.32,1.07,0.32c0.47,0,0.88-0.1,1.25-0.31s0.63-0.48,0.8-0.84c0.13-0.27,0.19-0.68,0.19-1.21V44.56z"/>
	<path d="M118.14,45.53l1.19,0.15c-0.13,0.82-0.46,1.46-1,1.93c-0.54,0.46-1.19,0.7-1.98,0.7c-0.98,0-1.76-0.32-2.36-0.96
		c-0.59-0.64-0.89-1.56-0.89-2.75c0-0.77,0.13-1.45,0.38-2.03c0.26-0.58,0.64-1.01,1.17-1.3c0.52-0.29,1.09-0.43,1.71-0.43
		c0.78,0,1.41,0.2,1.9,0.59c0.49,0.39,0.81,0.95,0.95,1.67l-1.18,0.18c-0.11-0.48-0.31-0.84-0.6-1.08
		c-0.29-0.24-0.63-0.36-1.03-0.36c-0.61,0-1.11,0.22-1.49,0.66s-0.57,1.13-0.57,2.08c0,0.96,0.18,1.66,0.55,2.09
		c0.37,0.44,0.85,0.65,1.44,0.65c0.48,0,0.87-0.15,1.19-0.44C117.85,46.59,118.05,46.14,118.14,45.53z"/>
	<path d="M120.37,39.68v-1.39h1.21v1.39H120.37z M120.37,48.15V41h1.21v7.15H120.37z"/>
	<path d="M122.98,44.58c0-1.32,0.37-2.3,1.1-2.94c0.61-0.53,1.36-0.79,2.25-0.79c0.98,0,1.79,0.32,2.41,0.97s0.94,1.53,0.94,2.67
		c0,0.92-0.14,1.64-0.41,2.17s-0.68,0.94-1.2,1.23c-0.53,0.29-1.1,0.44-1.73,0.44c-1,0-1.81-0.32-2.43-0.96
		S122.98,45.78,122.98,44.58z M124.22,44.58c0,0.92,0.2,1.6,0.6,2.06c0.4,0.46,0.9,0.68,1.51,0.68c0.6,0,1.1-0.23,1.5-0.69
		c0.4-0.46,0.6-1.16,0.6-2.09c0-0.88-0.2-1.55-0.6-2.01c-0.4-0.46-0.9-0.68-1.5-0.68c-0.61,0-1.11,0.23-1.51,0.68
		C124.42,42.98,124.22,43.66,124.22,44.58z"/>
	<path d="M131.09,48.15V41h1.09v1.02c0.52-0.79,1.28-1.18,2.27-1.18c0.43,0,0.83,0.08,1.19,0.23c0.36,0.16,0.63,0.36,0.81,0.61
		c0.18,0.25,0.31,0.55,0.38,0.89c0.04,0.22,0.07,0.62,0.07,1.18v4.39h-1.21V43.8c0-0.49-0.05-0.86-0.14-1.11
		c-0.09-0.25-0.26-0.44-0.5-0.59c-0.24-0.15-0.52-0.22-0.84-0.22c-0.52,0-0.96,0.16-1.34,0.49c-0.37,0.33-0.56,0.95-0.56,1.86v3.9
		H131.09z"/>
	<path d="M143.65,45.85L144.9,46c-0.2,0.73-0.56,1.3-1.1,1.7c-0.53,0.4-1.22,0.61-2.05,0.61c-1.04,0-1.87-0.32-2.49-0.96
		s-0.92-1.55-0.92-2.71c0-1.2,0.31-2.13,0.93-2.8s1.42-1,2.41-1c0.96,0,1.74,0.33,2.34,0.98s0.91,1.57,0.91,2.75
		c0,0.07,0,0.18-0.01,0.32h-5.33c0.04,0.79,0.27,1.39,0.67,1.8c0.4,0.42,0.9,0.63,1.49,0.63c0.44,0,0.82-0.12,1.14-0.35
		C143.21,46.73,143.46,46.36,143.65,45.85z M139.67,43.89h3.99c-0.05-0.6-0.21-1.05-0.46-1.35c-0.39-0.47-0.89-0.7-1.5-0.7
		c-0.56,0-1.02,0.19-1.4,0.56C139.92,42.77,139.71,43.27,139.67,43.89z"/>
	<path d="M145.94,46.02l1.2-0.19c0.07,0.48,0.25,0.85,0.56,1.1c0.31,0.26,0.74,0.38,1.29,0.38c0.56,0,0.97-0.11,1.24-0.34
		s0.4-0.49,0.4-0.8c0-0.27-0.12-0.49-0.36-0.65c-0.17-0.11-0.58-0.25-1.24-0.41c-0.89-0.22-1.5-0.42-1.85-0.58
		c-0.34-0.16-0.6-0.39-0.78-0.68c-0.18-0.29-0.27-0.61-0.27-0.96c0-0.32,0.07-0.61,0.22-0.88c0.15-0.27,0.34-0.5,0.6-0.68
		c0.19-0.14,0.45-0.26,0.77-0.35c0.33-0.1,0.67-0.15,1.05-0.15c0.56,0,1.05,0.08,1.48,0.24c0.42,0.16,0.74,0.38,0.94,0.66
		c0.2,0.28,0.34,0.65,0.42,1.11l-1.18,0.16c-0.05-0.37-0.21-0.66-0.47-0.86s-0.62-0.31-1.09-0.31c-0.56,0-0.95,0.09-1.19,0.28
		c-0.24,0.18-0.36,0.4-0.36,0.65c0,0.16,0.05,0.3,0.15,0.42c0.1,0.13,0.25,0.24,0.46,0.32c0.12,0.04,0.48,0.15,1.07,0.31
		c0.86,0.23,1.45,0.42,1.79,0.56c0.34,0.15,0.6,0.36,0.8,0.64c0.19,0.28,0.29,0.62,0.29,1.04c0,0.4-0.12,0.78-0.35,1.14
		c-0.24,0.36-0.58,0.63-1.02,0.83c-0.44,0.19-0.95,0.29-1.51,0.29c-0.93,0-1.64-0.19-2.12-0.58
		C146.38,47.35,146.07,46.77,145.94,46.02z"/>
</g>
<g>
	<path d="M2.31,67.33c0-1.64,0.44-2.92,1.32-3.85c0.88-0.93,2.01-1.39,3.4-1.39c0.91,0,1.73,0.22,2.46,0.65
		c0.73,0.44,1.29,1.04,1.67,1.82c0.38,0.78,0.58,1.66,0.58,2.65c0,1-0.2,1.9-0.61,2.69c-0.4,0.79-0.98,1.39-1.72,1.79
		c-0.74,0.41-1.54,0.61-2.4,0.61c-0.93,0-1.76-0.22-2.49-0.67c-0.73-0.45-1.29-1.06-1.66-1.84C2.5,69.01,2.31,68.19,2.31,67.33z
		 M3.66,67.35c0,1.19,0.32,2.12,0.96,2.81c0.64,0.68,1.44,1.03,2.41,1.03c0.98,0,1.79-0.35,2.43-1.04c0.63-0.69,0.95-1.67,0.95-2.94
		c0-0.8-0.14-1.5-0.41-2.1c-0.27-0.6-0.67-1.06-1.19-1.39c-0.52-0.33-1.11-0.49-1.76-0.49c-0.92,0-1.72,0.32-2.39,0.95
		C3.99,64.8,3.66,65.86,3.66,67.35z"/>
	<path d="M13.27,74.87v-9.88h1.1v0.93c0.26-0.36,0.55-0.64,0.88-0.82c0.33-0.18,0.72-0.27,1.19-0.27c0.61,0,1.15,0.16,1.62,0.47
		c0.47,0.31,0.82,0.76,1.06,1.33c0.24,0.57,0.36,1.2,0.36,1.88c0,0.73-0.13,1.39-0.39,1.98c-0.26,0.58-0.64,1.03-1.14,1.35
		c-0.5,0.31-1.03,0.47-1.58,0.47c-0.4,0-0.77-0.08-1.09-0.25c-0.32-0.17-0.58-0.39-0.79-0.65v3.48H13.27z M14.37,68.6
		c0,0.92,0.19,1.6,0.56,2.04c0.37,0.44,0.82,0.66,1.35,0.66c0.54,0,1-0.23,1.38-0.68c0.38-0.46,0.58-1.16,0.58-2.12
		c0-0.91-0.19-1.59-0.56-2.04s-0.82-0.68-1.34-0.68c-0.52,0-0.97,0.24-1.37,0.72C14.57,66.98,14.37,67.68,14.37,68.6z"/>
	<path d="M25.83,69.83l1.25,0.15c-0.2,0.73-0.56,1.3-1.1,1.7c-0.53,0.4-1.22,0.61-2.05,0.61c-1.04,0-1.87-0.32-2.49-0.96
		s-0.92-1.55-0.92-2.71c0-1.2,0.31-2.13,0.93-2.8s1.42-1,2.41-1c0.96,0,1.74,0.33,2.34,0.98s0.91,1.57,0.91,2.75
		c0,0.07,0,0.18-0.01,0.32h-5.33c0.04,0.79,0.27,1.39,0.67,1.8c0.4,0.42,0.9,0.63,1.49,0.63c0.44,0,0.82-0.12,1.14-0.35
		C25.39,70.72,25.64,70.34,25.83,69.83z M21.85,67.87h3.99c-0.05-0.6-0.21-1.05-0.46-1.35c-0.39-0.47-0.89-0.7-1.5-0.7
		c-0.56,0-1.02,0.19-1.4,0.56C22.1,66.75,21.89,67.25,21.85,67.87z"/>
	<path d="M28.58,72.13v-7.15h1.09v1.08c0.28-0.51,0.54-0.84,0.77-1c0.24-0.16,0.49-0.24,0.78-0.24c0.41,0,0.82,0.13,1.25,0.39
		l-0.42,1.12c-0.3-0.17-0.59-0.26-0.89-0.26c-0.26,0-0.5,0.08-0.71,0.24S30.09,66.7,30,66.98c-0.13,0.43-0.2,0.9-0.2,1.41v3.74
		H28.58z"/>
	<path d="M37.85,71.25c-0.45,0.38-0.88,0.65-1.3,0.81s-0.86,0.24-1.34,0.24c-0.79,0-1.39-0.19-1.81-0.58
		c-0.42-0.38-0.63-0.87-0.63-1.47c0-0.35,0.08-0.67,0.24-0.96s0.37-0.52,0.63-0.7c0.26-0.17,0.55-0.31,0.87-0.4
		c0.24-0.06,0.6-0.12,1.08-0.18c0.98-0.12,1.7-0.25,2.16-0.42c0-0.17,0.01-0.27,0.01-0.32c0-0.49-0.11-0.84-0.34-1.04
		c-0.31-0.27-0.77-0.41-1.38-0.41c-0.57,0-0.99,0.1-1.26,0.3c-0.27,0.2-0.47,0.55-0.6,1.06l-1.18-0.16
		c0.11-0.51,0.28-0.92,0.53-1.23c0.25-0.31,0.6-0.55,1.07-0.72c0.47-0.17,1.01-0.25,1.62-0.25c0.61,0,1.11,0.07,1.49,0.22
		s0.66,0.32,0.84,0.54c0.18,0.22,0.31,0.49,0.38,0.82c0.04,0.21,0.06,0.58,0.06,1.12v1.62c0,1.13,0.03,1.84,0.08,2.14
		c0.05,0.3,0.15,0.58,0.31,0.86h-1.27C37.97,71.88,37.89,71.59,37.85,71.25z M37.75,68.55c-0.44,0.18-1.1,0.33-1.98,0.46
		c-0.5,0.07-0.85,0.15-1.06,0.24c-0.21,0.09-0.37,0.22-0.48,0.39s-0.17,0.36-0.17,0.58c0,0.32,0.12,0.59,0.37,0.81
		c0.24,0.22,0.6,0.32,1.07,0.32c0.47,0,0.88-0.1,1.25-0.31s0.63-0.48,0.8-0.84c0.13-0.27,0.19-0.68,0.19-1.21V68.55z"/>
	<path d="M45.51,69.51l1.19,0.15c-0.13,0.82-0.46,1.46-1,1.93c-0.54,0.46-1.19,0.7-1.98,0.7c-0.98,0-1.76-0.32-2.36-0.96
		c-0.59-0.64-0.89-1.56-0.89-2.75c0-0.77,0.13-1.45,0.38-2.03c0.26-0.58,0.64-1.01,1.17-1.3c0.52-0.29,1.09-0.43,1.71-0.43
		c0.78,0,1.41,0.2,1.9,0.59c0.49,0.39,0.81,0.95,0.95,1.67l-1.18,0.18c-0.11-0.48-0.31-0.84-0.6-1.08
		c-0.29-0.24-0.63-0.36-1.03-0.36c-0.61,0-1.11,0.22-1.49,0.66s-0.57,1.13-0.57,2.08c0,0.96,0.18,1.66,0.55,2.09
		c0.37,0.44,0.85,0.65,1.44,0.65c0.48,0,0.87-0.15,1.19-0.44C45.23,70.57,45.43,70.12,45.51,69.51z"/>
	<path d="M47.75,63.66v-1.39h1.21v1.39H47.75z M47.75,72.13v-7.15h1.21v7.15H47.75z"/>
	<path d="M50.35,68.56c0-1.32,0.37-2.3,1.1-2.94c0.61-0.53,1.36-0.79,2.25-0.79c0.98,0,1.79,0.32,2.41,0.97s0.94,1.53,0.94,2.67
		c0,0.92-0.14,1.64-0.41,2.17s-0.68,0.94-1.2,1.23c-0.53,0.29-1.1,0.44-1.73,0.44c-1,0-1.81-0.32-2.43-0.96S50.35,69.77,50.35,68.56
		z M51.6,68.56c0,0.92,0.2,1.6,0.6,2.06c0.4,0.46,0.9,0.68,1.51,0.68c0.6,0,1.1-0.23,1.5-0.69c0.4-0.46,0.6-1.16,0.6-2.09
		c0-0.88-0.2-1.55-0.6-2.01c-0.4-0.46-0.9-0.68-1.5-0.68c-0.61,0-1.11,0.23-1.51,0.68C51.8,66.96,51.6,67.64,51.6,68.56z"/>
	<path d="M58.47,72.13v-7.15h1.09V66c0.52-0.79,1.28-1.18,2.27-1.18c0.43,0,0.83,0.08,1.19,0.23c0.36,0.16,0.63,0.36,0.81,0.61
		c0.18,0.25,0.31,0.55,0.38,0.89c0.04,0.22,0.07,0.62,0.07,1.18v4.39h-1.21v-4.35c0-0.49-0.05-0.86-0.14-1.11
		c-0.09-0.25-0.26-0.44-0.5-0.59c-0.24-0.15-0.52-0.22-0.84-0.22c-0.52,0-0.96,0.16-1.34,0.49c-0.37,0.33-0.56,0.95-0.56,1.86v3.9
		H58.47z"/>
	<path d="M71.02,69.83l1.25,0.15c-0.2,0.73-0.56,1.3-1.1,1.7c-0.53,0.4-1.22,0.61-2.05,0.61c-1.04,0-1.87-0.32-2.49-0.96
		s-0.92-1.55-0.92-2.71c0-1.2,0.31-2.13,0.93-2.8s1.42-1,2.41-1c0.96,0,1.74,0.33,2.34,0.98s0.91,1.57,0.91,2.75
		c0,0.07,0,0.18-0.01,0.32h-5.33c0.04,0.79,0.27,1.39,0.67,1.8c0.4,0.42,0.9,0.63,1.49,0.63c0.44,0,0.82-0.12,1.14-0.35
		C70.59,70.72,70.84,70.34,71.02,69.83z M67.04,67.87h3.99c-0.05-0.6-0.21-1.05-0.46-1.35c-0.39-0.47-0.89-0.7-1.5-0.7
		c-0.56,0-1.02,0.19-1.4,0.56C67.29,66.75,67.08,67.25,67.04,67.87z"/>
	<path d="M73.31,70l1.2-0.19c0.07,0.48,0.25,0.85,0.56,1.1c0.31,0.26,0.74,0.38,1.29,0.38c0.56,0,0.97-0.11,1.24-0.34
		s0.4-0.49,0.4-0.8c0-0.27-0.12-0.49-0.36-0.65c-0.17-0.11-0.58-0.25-1.24-0.41c-0.89-0.22-1.5-0.42-1.85-0.58
		c-0.34-0.16-0.6-0.39-0.78-0.68c-0.18-0.29-0.27-0.61-0.27-0.96c0-0.32,0.07-0.61,0.22-0.88c0.15-0.27,0.34-0.5,0.6-0.68
		c0.19-0.14,0.45-0.26,0.77-0.35c0.33-0.1,0.67-0.15,1.05-0.15c0.56,0,1.05,0.08,1.48,0.24c0.42,0.16,0.74,0.38,0.94,0.66
		c0.2,0.28,0.34,0.65,0.42,1.11l-1.18,0.16c-0.05-0.37-0.21-0.66-0.47-0.86s-0.62-0.31-1.09-0.31c-0.56,0-0.95,0.09-1.19,0.28
		c-0.24,0.18-0.36,0.4-0.36,0.65c0,0.16,0.05,0.3,0.15,0.42c0.1,0.13,0.25,0.24,0.46,0.32c0.12,0.04,0.48,0.15,1.07,0.31
		c0.86,0.23,1.45,0.42,1.79,0.56c0.34,0.15,0.6,0.36,0.8,0.64c0.19,0.28,0.29,0.62,0.29,1.04c0,0.4-0.12,0.78-0.35,1.14
		c-0.24,0.36-0.58,0.63-1.02,0.83c-0.44,0.19-0.95,0.29-1.51,0.29c-0.93,0-1.64-0.19-2.12-0.58C73.75,71.33,73.44,70.76,73.31,70z"
		/>
	<path d="M84.87,75.03V62.1h1.06v12.93H84.87z"/>
	<path d="M96.69,68.26v-1.16l4.18-0.01v3.66c-0.64,0.51-1.3,0.9-1.98,1.15c-0.68,0.26-1.38,0.39-2.1,0.39
		c-0.97,0-1.85-0.21-2.64-0.62c-0.79-0.42-1.39-1.01-1.79-1.8s-0.61-1.66-0.61-2.63c0-0.96,0.2-1.86,0.6-2.69s0.98-1.45,1.73-1.85
		c0.75-0.4,1.62-0.61,2.6-0.61c0.71,0,1.36,0.12,1.93,0.35c0.58,0.23,1.03,0.55,1.36,0.97c0.33,0.41,0.58,0.95,0.75,1.61l-1.18,0.32
		c-0.15-0.5-0.33-0.9-0.55-1.18s-0.53-0.52-0.94-0.69s-0.86-0.26-1.36-0.26c-0.6,0-1.11,0.09-1.55,0.27s-0.79,0.42-1.05,0.72
		c-0.27,0.3-0.47,0.62-0.62,0.98c-0.25,0.61-0.38,1.27-0.38,1.98c0,0.88,0.15,1.62,0.45,2.21s0.74,1.03,1.32,1.32
		s1.19,0.43,1.84,0.43c0.56,0,1.12-0.11,1.66-0.33c0.54-0.22,0.95-0.45,1.22-0.7v-1.84H96.69z"/>
	<path d="M101.71,72.13l3.79-9.86h1.41l4.04,9.86h-1.49l-1.15-2.99h-4.12l-1.08,2.99H101.71z M104.56,68.08h3.34l-1.03-2.73
		c-0.31-0.83-0.55-1.51-0.7-2.05c-0.13,0.63-0.3,1.26-0.53,1.88L104.56,68.08z"/>
	<path d="M111.93,72.13v-9.86h3.7c0.75,0,1.36,0.1,1.81,0.3c0.46,0.2,0.81,0.51,1.07,0.92c0.26,0.42,0.39,0.85,0.39,1.3
		c0,0.42-0.11,0.82-0.34,1.19c-0.23,0.37-0.57,0.67-1.04,0.9c0.6,0.17,1.06,0.47,1.38,0.89s0.48,0.92,0.48,1.49
		c0,0.46-0.1,0.89-0.29,1.29c-0.2,0.4-0.44,0.7-0.72,0.92c-0.29,0.21-0.65,0.38-1.08,0.49c-0.43,0.11-0.96,0.17-1.59,0.17H111.93z
		 M113.24,66.41h2.13c0.58,0,0.99-0.04,1.24-0.12c0.33-0.1,0.58-0.26,0.75-0.49c0.17-0.23,0.25-0.52,0.25-0.86
		c0-0.33-0.08-0.62-0.24-0.86c-0.16-0.25-0.38-0.42-0.67-0.51c-0.29-0.09-0.79-0.14-1.5-0.14h-1.97V66.41z M113.24,70.97h2.46
		c0.42,0,0.72-0.02,0.89-0.05c0.3-0.05,0.55-0.14,0.75-0.27c0.2-0.12,0.37-0.31,0.5-0.55c0.13-0.24,0.2-0.52,0.2-0.83
		c0-0.37-0.09-0.69-0.28-0.96s-0.45-0.46-0.78-0.57c-0.33-0.11-0.82-0.17-1.44-0.17h-2.28V70.97z"/>
	<path d="M120.09,72.13l3.79-9.86h1.41l4.04,9.86h-1.49l-1.15-2.99h-4.12l-1.08,2.99H120.09z M122.94,68.08h3.34l-1.03-2.73
		c-0.31-0.83-0.55-1.51-0.7-2.05c-0.13,0.63-0.3,1.26-0.53,1.88L122.94,68.08z"/>
	<path d="M130.39,72.13v-9.86h4.37c0.88,0,1.55,0.09,2,0.27c0.46,0.18,0.82,0.49,1.1,0.94c0.27,0.45,0.41,0.94,0.41,1.49
		c0,0.7-0.23,1.29-0.68,1.77c-0.45,0.48-1.15,0.79-2.1,0.92c0.35,0.17,0.61,0.33,0.79,0.49c0.38,0.35,0.74,0.79,1.08,1.31l1.72,2.68
		h-1.64l-1.31-2.05c-0.38-0.59-0.7-1.05-0.94-1.36c-0.25-0.31-0.47-0.53-0.66-0.66c-0.19-0.13-0.39-0.21-0.6-0.26
		c-0.15-0.03-0.39-0.05-0.73-0.05h-1.51v4.38H130.39z M131.69,66.62h2.81c0.6,0,1.06-0.06,1.4-0.18c0.34-0.12,0.59-0.32,0.77-0.59
		c0.18-0.27,0.26-0.57,0.26-0.88c0-0.47-0.17-0.85-0.51-1.15c-0.34-0.3-0.87-0.45-1.6-0.45h-3.12V66.62z"/>
</g>
</svg>
