<?xml version="1.0" encoding="utf-8"?>
<!-- Generator: Adobe Illustrator 25.4.1, SVG Export Plug-In . SVG Version: 6.00 Build 0)  -->
<svg version="1.1" id="Capa_1" xmlns="http://www.w3.org/2000/svg" xmlns:xlink="http://www.w3.org/1999/xlink" x="0px" y="0px"
	 viewBox="0 0 221 85.61" style="enable-background:new 0 0 221 85.61;" xml:space="preserve">
<g>
	<path d="M2.51,25.67V15.11h2.13v10.56H2.51z"/>
	<path d="M13.61,25.67h-2.02v-3.9c0-0.83-0.04-1.36-0.13-1.6c-0.09-0.24-0.23-0.43-0.42-0.57c-0.19-0.13-0.43-0.2-0.7-0.2
		c-0.35,0-0.67,0.1-0.94,0.29s-0.47,0.45-0.57,0.76c-0.1,0.32-0.15,0.9-0.15,1.76v3.46H6.64v-7.65h1.88v1.12
		c0.67-0.86,1.51-1.3,2.52-1.3c0.45,0,0.85,0.08,1.22,0.24c0.37,0.16,0.65,0.37,0.84,0.62c0.19,0.25,0.32,0.53,0.4,0.85
		s0.11,0.77,0.11,1.36V25.67z"/>
	<path d="M15.48,26.18l2.31,0.28c0.04,0.27,0.13,0.45,0.27,0.55c0.19,0.14,0.49,0.22,0.91,0.22c0.53,0,0.92-0.08,1.19-0.24
		c0.18-0.11,0.31-0.28,0.4-0.51c0.06-0.17,0.09-0.48,0.09-0.93v-1.12c-0.6,0.83-1.37,1.24-2.29,1.24c-1.03,0-1.84-0.43-2.44-1.3
		c-0.47-0.69-0.71-1.54-0.71-2.56c0-1.28,0.31-2.26,0.93-2.94c0.62-0.68,1.38-1.02,2.3-1.02c0.95,0,1.73,0.42,2.34,1.25v-1.07h1.89
		v6.86c0,0.9-0.07,1.58-0.22,2.02c-0.15,0.45-0.36,0.8-0.63,1.05c-0.27,0.25-0.63,0.45-1.08,0.6c-0.45,0.14-1.02,0.22-1.7,0.22
		c-1.3,0-2.22-0.22-2.76-0.67c-0.54-0.44-0.81-1.01-0.81-1.69C15.47,26.35,15.47,26.27,15.48,26.18z M17.29,21.69
		c0,0.81,0.16,1.41,0.47,1.78s0.7,0.57,1.16,0.57c0.49,0,0.91-0.19,1.25-0.58c0.34-0.39,0.51-0.96,0.51-1.72
		c0-0.79-0.16-1.38-0.49-1.76s-0.74-0.58-1.24-0.58c-0.48,0-0.88,0.19-1.2,0.57S17.29,20.92,17.29,21.69z"/>
	<path d="M24.68,25.67v-2.02h2.02v2.02H24.68z"/>
	<path d="M32.88,15.11h3.9c0.88,0,1.55,0.07,2.01,0.2c0.62,0.18,1.15,0.51,1.59,0.97c0.44,0.47,0.78,1.04,1.01,1.71
		s0.35,1.51,0.35,2.5c0,0.87-0.11,1.62-0.32,2.25c-0.26,0.77-0.64,1.39-1.13,1.87c-0.37,0.36-0.87,0.64-1.5,0.84
		c-0.47,0.15-1.1,0.22-1.89,0.22h-4.01V15.11z M35.01,16.9v6.99h1.59c0.6,0,1.02-0.03,1.29-0.1c0.35-0.09,0.63-0.23,0.86-0.44
		c0.23-0.21,0.41-0.55,0.56-1.02c0.14-0.47,0.22-1.12,0.22-1.93c0-0.82-0.07-1.44-0.22-1.88c-0.14-0.44-0.35-0.78-0.6-1.02
		c-0.26-0.25-0.59-0.41-0.99-0.5c-0.3-0.07-0.88-0.1-1.75-0.1H35.01z"/>
	<path d="M45.04,20.36l-1.84-0.33c0.21-0.74,0.56-1.29,1.07-1.64c0.5-0.36,1.25-0.53,2.25-0.53c0.9,0,1.57,0.11,2.02,0.32
		c0.44,0.21,0.75,0.48,0.93,0.81c0.18,0.33,0.27,0.93,0.27,1.81l-0.02,2.36c0,0.67,0.03,1.17,0.1,1.49
		c0.06,0.32,0.19,0.66,0.36,1.03h-2c-0.05-0.13-0.12-0.33-0.19-0.6c-0.03-0.12-0.06-0.2-0.07-0.24c-0.35,0.34-0.72,0.59-1.11,0.76
		c-0.39,0.17-0.81,0.25-1.26,0.25c-0.79,0-1.41-0.21-1.86-0.64c-0.45-0.43-0.68-0.97-0.68-1.62c0-0.43,0.1-0.82,0.31-1.16
		c0.21-0.34,0.5-0.6,0.87-0.78s0.91-0.34,1.61-0.47c0.95-0.18,1.6-0.34,1.97-0.5v-0.2c0-0.39-0.1-0.67-0.29-0.83
		c-0.19-0.17-0.55-0.25-1.09-0.25c-0.36,0-0.64,0.07-0.84,0.21S45.16,20,45.04,20.36z M47.75,22c-0.26,0.09-0.67,0.19-1.23,0.31
		c-0.56,0.12-0.93,0.24-1.1,0.35c-0.26,0.19-0.4,0.42-0.4,0.71c0,0.28,0.11,0.53,0.32,0.74c0.21,0.21,0.48,0.31,0.81,0.31
		c0.37,0,0.71-0.12,1.04-0.36c0.25-0.18,0.41-0.41,0.48-0.67c0.05-0.17,0.08-0.5,0.08-0.99V22z"/>
	<path d="M58.69,25.67h-2.02v-3.9c0-0.83-0.04-1.36-0.13-1.6c-0.09-0.24-0.23-0.43-0.42-0.57c-0.19-0.13-0.43-0.2-0.7-0.2
		c-0.35,0-0.67,0.1-0.94,0.29s-0.47,0.45-0.57,0.76c-0.1,0.32-0.15,0.9-0.15,1.76v3.46h-2.02v-7.65h1.88v1.12
		c0.67-0.86,1.51-1.3,2.52-1.3c0.45,0,0.85,0.08,1.22,0.24c0.37,0.16,0.65,0.37,0.84,0.62c0.19,0.25,0.32,0.53,0.4,0.85
		s0.11,0.77,0.11,1.36V25.67z"/>
	<path d="M60.74,16.99v-1.87h2.02v1.87H60.74z M60.74,25.67v-7.65h2.02v7.65H60.74z"/>
	<path d="M69.27,23.24l2.02,0.34c-0.26,0.74-0.67,1.3-1.23,1.69c-0.56,0.39-1.26,0.58-2.1,0.58c-1.33,0-2.31-0.43-2.95-1.3
		c-0.5-0.7-0.76-1.57-0.76-2.64c0-1.27,0.33-2.26,0.99-2.98s1.5-1.08,2.51-1.08c1.14,0,2.04,0.38,2.69,1.13
		c0.66,0.75,0.97,1.9,0.94,3.45h-5.07c0.01,0.6,0.18,1.07,0.49,1.4c0.31,0.33,0.7,0.5,1.17,0.5c0.32,0,0.58-0.09,0.8-0.26
		C68.99,23.9,69.15,23.62,69.27,23.24z M69.38,21.19c-0.01-0.59-0.17-1.03-0.45-1.34c-0.29-0.3-0.64-0.46-1.05-0.46
		c-0.44,0-0.81,0.16-1.09,0.48s-0.43,0.76-0.43,1.31H69.38z"/>
	<path d="M73.04,25.67V15.11h2.02v10.56H73.04z"/>
	<path d="M85.06,15.11h2.12v6.68c0,0.87-0.08,1.55-0.23,2.02c-0.21,0.62-0.58,1.11-1.12,1.48c-0.54,0.37-1.26,0.56-2.15,0.56
		c-1.04,0-1.84-0.29-2.41-0.88c-0.56-0.58-0.85-1.44-0.85-2.57l2.01-0.23c0.02,0.61,0.11,1.03,0.27,1.28
		c0.23,0.38,0.58,0.57,1.05,0.57c0.48,0,0.81-0.13,1.01-0.41c0.2-0.27,0.29-0.83,0.29-1.69V15.11z"/>
	<path d="M93.87,23.24l2.02,0.34c-0.26,0.74-0.67,1.3-1.23,1.69c-0.56,0.39-1.26,0.58-2.1,0.58c-1.33,0-2.31-0.43-2.95-1.3
		c-0.5-0.7-0.76-1.57-0.76-2.64c0-1.27,0.33-2.26,0.99-2.98s1.5-1.08,2.51-1.08c1.14,0,2.04,0.38,2.69,1.13
		c0.66,0.75,0.97,1.9,0.94,3.45h-5.07c0.01,0.6,0.18,1.07,0.49,1.4c0.31,0.33,0.7,0.5,1.17,0.5c0.32,0,0.58-0.09,0.8-0.26
		C93.59,23.9,93.76,23.62,93.87,23.24z M93.98,21.19c-0.01-0.59-0.17-1.03-0.45-1.34c-0.29-0.3-0.64-0.46-1.05-0.46
		c-0.44,0-0.81,0.16-1.09,0.48s-0.43,0.76-0.43,1.31H93.98z"/>
	<path d="M96.93,23.49l2.03-0.31c0.09,0.39,0.26,0.69,0.53,0.9c0.26,0.2,0.63,0.31,1.11,0.31c0.52,0,0.92-0.1,1.18-0.29
		c0.18-0.13,0.27-0.31,0.27-0.54c0-0.15-0.05-0.28-0.14-0.38c-0.1-0.1-0.33-0.18-0.68-0.27c-1.63-0.36-2.67-0.69-3.1-0.99
		c-0.6-0.41-0.91-0.99-0.91-1.72c0-0.66,0.26-1.22,0.79-1.67s1.33-0.68,2.43-0.68c1.05,0,1.82,0.17,2.33,0.51
		c0.51,0.34,0.86,0.85,1.05,1.51l-1.91,0.35c-0.08-0.3-0.24-0.53-0.46-0.68c-0.23-0.16-0.55-0.24-0.98-0.24
		c-0.53,0-0.91,0.07-1.15,0.22c-0.15,0.11-0.23,0.24-0.23,0.41c0,0.14,0.07,0.27,0.2,0.37c0.18,0.13,0.81,0.32,1.89,0.57
		c1.08,0.25,1.83,0.55,2.26,0.9c0.42,0.36,0.63,0.86,0.63,1.51c0,0.7-0.29,1.3-0.88,1.81c-0.59,0.5-1.45,0.76-2.6,0.76
		c-1.04,0-1.87-0.21-2.47-0.63S97.12,24.22,96.93,23.49z"/>
	<path d="M110.88,25.67v-1.15c-0.28,0.41-0.64,0.73-1.1,0.97c-0.45,0.23-0.93,0.35-1.44,0.35c-0.51,0-0.97-0.11-1.38-0.34
		c-0.41-0.23-0.7-0.54-0.89-0.95s-0.27-0.97-0.27-1.69v-4.84h2.02v3.51c0,1.08,0.04,1.73,0.11,1.98c0.07,0.24,0.21,0.43,0.41,0.58
		c0.2,0.14,0.45,0.21,0.75,0.21c0.35,0,0.66-0.09,0.93-0.29c0.27-0.19,0.46-0.42,0.56-0.71c0.1-0.28,0.15-0.97,0.15-2.06v-3.23h2.02
		v7.65H110.88z M108.26,17.09l0.99-2.15h2.27l-1.98,2.15H108.26z"/>
	<path d="M114.14,23.49l2.03-0.31c0.09,0.39,0.26,0.69,0.53,0.9c0.26,0.2,0.63,0.31,1.11,0.31c0.52,0,0.92-0.1,1.18-0.29
		c0.18-0.13,0.27-0.31,0.27-0.54c0-0.15-0.05-0.28-0.14-0.38c-0.1-0.1-0.33-0.18-0.68-0.27c-1.63-0.36-2.67-0.69-3.1-0.99
		c-0.6-0.41-0.91-0.99-0.91-1.72c0-0.66,0.26-1.22,0.79-1.67s1.33-0.68,2.43-0.68c1.05,0,1.82,0.17,2.33,0.51
		c0.51,0.34,0.86,0.85,1.05,1.51l-1.91,0.35c-0.08-0.3-0.24-0.53-0.46-0.68c-0.23-0.16-0.55-0.24-0.98-0.24
		c-0.53,0-0.91,0.07-1.15,0.22c-0.15,0.11-0.23,0.24-0.23,0.41c0,0.14,0.07,0.27,0.2,0.37c0.18,0.13,0.81,0.32,1.89,0.57
		c1.08,0.25,1.83,0.55,2.26,0.9c0.42,0.36,0.63,0.86,0.63,1.51c0,0.7-0.29,1.3-0.88,1.81c-0.59,0.5-1.45,0.76-2.6,0.76
		c-1.04,0-1.87-0.21-2.47-0.63S114.33,24.22,114.14,23.49z"/>
	<path d="M129.55,25.67V16.9h-3.13v-1.79h8.39v1.79h-3.13v8.77H129.55z"/>
	<path d="M134.6,21.74c0-0.67,0.17-1.32,0.5-1.95c0.33-0.63,0.8-1.11,1.41-1.44c0.61-0.33,1.29-0.5,2.03-0.5
		c1.16,0,2.11,0.38,2.84,1.13s1.11,1.7,1.11,2.85c0,1.16-0.37,2.12-1.12,2.88s-1.69,1.14-2.82,1.14c-0.7,0-1.37-0.16-2.01-0.48
		c-0.64-0.32-1.12-0.78-1.45-1.39C134.77,23.36,134.6,22.62,134.6,21.74z M136.68,21.85c0,0.76,0.18,1.34,0.54,1.74
		c0.36,0.4,0.8,0.6,1.33,0.6c0.53,0,0.97-0.2,1.33-0.6c0.36-0.4,0.54-0.99,0.54-1.76c0-0.75-0.18-1.33-0.54-1.73
		c-0.36-0.4-0.8-0.6-1.33-0.6c-0.53,0-0.97,0.2-1.33,0.6C136.86,20.51,136.68,21.09,136.68,21.85z"/>
	<path d="M146.02,25.67h-2.02v-7.65h1.88v1.09c0.32-0.51,0.61-0.85,0.87-1.02s0.55-0.24,0.88-0.24c0.46,0,0.91,0.13,1.33,0.38
		L148.32,20c-0.34-0.22-0.66-0.33-0.95-0.33c-0.28,0-0.52,0.08-0.72,0.23s-0.35,0.44-0.46,0.85c-0.11,0.41-0.17,1.26-0.17,2.56
		V25.67z"/>
	<path d="M151.76,25.67h-2.02v-7.65h1.88v1.09c0.32-0.51,0.61-0.85,0.87-1.02s0.55-0.24,0.88-0.24c0.46,0,0.91,0.13,1.33,0.38
		L154.06,20c-0.34-0.22-0.66-0.33-0.95-0.33c-0.28,0-0.52,0.08-0.72,0.23s-0.35,0.44-0.46,0.85c-0.11,0.41-0.17,1.26-0.17,2.56
		V25.67z"/>
	<path d="M159.99,23.24l2.02,0.34c-0.26,0.74-0.67,1.3-1.23,1.69c-0.56,0.39-1.26,0.58-2.1,0.58c-1.33,0-2.31-0.43-2.95-1.3
		c-0.5-0.7-0.76-1.57-0.76-2.64c0-1.27,0.33-2.26,0.99-2.98s1.5-1.08,2.51-1.08c1.14,0,2.04,0.38,2.69,1.13
		c0.66,0.75,0.97,1.9,0.94,3.45h-5.07c0.01,0.6,0.18,1.07,0.49,1.4c0.31,0.33,0.7,0.5,1.17,0.5c0.32,0,0.58-0.09,0.8-0.26
		C159.72,23.9,159.88,23.62,159.99,23.24z M160.11,21.19c-0.01-0.59-0.17-1.03-0.45-1.34c-0.29-0.3-0.64-0.46-1.05-0.46
		c-0.44,0-0.81,0.16-1.09,0.48s-0.43,0.76-0.43,1.31H160.11z"/>
	<path d="M163.05,23.49l2.03-0.31c0.09,0.39,0.26,0.69,0.53,0.9c0.26,0.2,0.63,0.31,1.11,0.31c0.52,0,0.92-0.1,1.18-0.29
		c0.18-0.13,0.27-0.31,0.27-0.54c0-0.15-0.05-0.28-0.14-0.38c-0.1-0.1-0.33-0.18-0.68-0.27c-1.63-0.36-2.67-0.69-3.1-0.99
		c-0.6-0.41-0.91-0.99-0.91-1.72c0-0.66,0.26-1.22,0.79-1.67s1.33-0.68,2.43-0.68c1.05,0,1.82,0.17,2.33,0.51
		c0.51,0.34,0.86,0.85,1.05,1.51l-1.91,0.35c-0.08-0.3-0.24-0.53-0.46-0.68c-0.23-0.16-0.55-0.24-0.98-0.24
		c-0.53,0-0.91,0.07-1.15,0.22c-0.15,0.11-0.23,0.24-0.23,0.41c0,0.14,0.07,0.27,0.2,0.37c0.18,0.13,0.81,0.32,1.89,0.57
		c1.08,0.25,1.83,0.55,2.26,0.9c0.42,0.36,0.63,0.86,0.63,1.51c0,0.7-0.29,1.3-0.88,1.81c-0.59,0.5-1.45,0.76-2.6,0.76
		c-1.04,0-1.87-0.21-2.47-0.63S163.24,24.22,163.05,23.49z"/>
	<path d="M185.05,25.67h-2.32l-0.92-2.4h-4.22l-0.87,2.4h-2.26l4.11-10.56h2.25L185.05,25.67z M181.13,21.5l-1.45-3.92l-1.43,3.92
		H181.13z"/>
	<path d="M187.73,25.67l-3.08-7.65h2.12l1.44,3.9l0.42,1.3c0.11-0.33,0.18-0.55,0.21-0.66c0.07-0.22,0.14-0.43,0.22-0.65l1.46-3.9
		h2.08l-3.04,7.65H187.73z"/>
	<path d="M193.83,16.99v-1.87h2.02v1.87H193.83z M193.83,25.67v-7.65h2.02v7.65H193.83z"/>
	<path d="M197.92,25.67V15.11h2.02v10.56H197.92z"/>
	<path d="M206.45,23.24l2.02,0.34c-0.26,0.74-0.67,1.3-1.23,1.69c-0.56,0.39-1.26,0.58-2.1,0.58c-1.33,0-2.31-0.43-2.95-1.3
		c-0.5-0.7-0.76-1.57-0.76-2.64c0-1.27,0.33-2.26,0.99-2.98s1.5-1.08,2.51-1.08c1.14,0,2.04,0.38,2.69,1.13s0.97,1.9,0.94,3.45
		h-5.07c0.01,0.6,0.18,1.07,0.49,1.4c0.31,0.33,0.7,0.5,1.17,0.5c0.32,0,0.58-0.09,0.8-0.26C206.18,23.9,206.34,23.62,206.45,23.24z
		 M206.57,21.19c-0.01-0.59-0.17-1.03-0.45-1.34c-0.29-0.3-0.64-0.46-1.05-0.46c-0.44,0-0.81,0.16-1.09,0.48s-0.43,0.76-0.43,1.31
		H206.57z M203.98,17.09l0.99-2.15h2.27l-1.98,2.15H203.98z"/>
	<path d="M209.51,23.49l2.03-0.31c0.09,0.39,0.26,0.69,0.53,0.9c0.26,0.2,0.63,0.31,1.11,0.31c0.52,0,0.92-0.1,1.18-0.29
		c0.18-0.13,0.27-0.31,0.27-0.54c0-0.15-0.05-0.28-0.14-0.38c-0.1-0.1-0.33-0.18-0.68-0.27c-1.63-0.36-2.67-0.69-3.1-0.99
		c-0.61-0.41-0.91-0.99-0.91-1.72c0-0.66,0.26-1.22,0.79-1.67s1.34-0.68,2.43-0.68c1.05,0,1.83,0.17,2.33,0.51s0.86,0.85,1.05,1.51
		l-1.91,0.35c-0.08-0.3-0.24-0.53-0.46-0.68c-0.23-0.16-0.55-0.24-0.98-0.24c-0.53,0-0.91,0.07-1.14,0.22
		c-0.15,0.11-0.23,0.24-0.23,0.41c0,0.14,0.07,0.27,0.2,0.37c0.18,0.13,0.81,0.32,1.89,0.57c1.08,0.25,1.83,0.55,2.26,0.9
		c0.42,0.36,0.63,0.86,0.63,1.51c0,0.7-0.29,1.3-0.88,1.81c-0.58,0.5-1.45,0.76-2.6,0.76c-1.04,0-1.87-0.21-2.47-0.63
		S209.7,24.22,209.51,23.49z"/>
</g>
<g>
	<path d="M7.17,44.28v-1.16l4.18-0.01v3.66c-0.64,0.51-1.3,0.9-1.98,1.15c-0.68,0.26-1.38,0.39-2.1,0.39
		c-0.97,0-1.85-0.21-2.64-0.62c-0.79-0.42-1.39-1.01-1.79-1.8s-0.61-1.66-0.61-2.63c0-0.96,0.2-1.86,0.6-2.69s0.98-1.45,1.73-1.85
		c0.75-0.4,1.62-0.61,2.6-0.61c0.71,0,1.36,0.12,1.93,0.35c0.58,0.23,1.03,0.55,1.36,0.97c0.33,0.41,0.58,0.95,0.75,1.61l-1.18,0.32
		c-0.15-0.5-0.33-0.9-0.55-1.18s-0.53-0.52-0.94-0.69s-0.86-0.26-1.36-0.26c-0.6,0-1.11,0.09-1.55,0.27s-0.79,0.42-1.05,0.72
		c-0.27,0.3-0.47,0.62-0.62,0.98c-0.25,0.61-0.38,1.27-0.38,1.98c0,0.88,0.15,1.62,0.45,2.21s0.74,1.03,1.32,1.32
		s1.19,0.43,1.84,0.43c0.56,0,1.12-0.11,1.66-0.33c0.54-0.22,0.95-0.45,1.22-0.7v-1.84H7.17z"/>
	<path d="M18.01,45.85L19.26,46c-0.2,0.73-0.56,1.3-1.1,1.7c-0.53,0.4-1.22,0.61-2.05,0.61c-1.04,0-1.87-0.32-2.49-0.96
		s-0.92-1.55-0.92-2.71c0-1.2,0.31-2.13,0.93-2.8s1.42-1,2.41-1c0.96,0,1.74,0.33,2.34,0.98s0.91,1.57,0.91,2.75
		c0,0.07,0,0.18-0.01,0.32h-5.33c0.04,0.79,0.27,1.39,0.67,1.8c0.4,0.42,0.9,0.63,1.49,0.63c0.44,0,0.82-0.12,1.14-0.35
		C17.58,46.73,17.83,46.36,18.01,45.85z M14.04,43.89h3.99c-0.05-0.6-0.21-1.05-0.46-1.35c-0.39-0.47-0.89-0.7-1.5-0.7
		c-0.56,0-1.02,0.19-1.4,0.56C14.29,42.77,14.08,43.27,14.04,43.89z"/>
	<path d="M20.77,48.15V41h1.09v1.08c0.28-0.51,0.54-0.84,0.77-1c0.24-0.16,0.49-0.24,0.78-0.24c0.41,0,0.82,0.13,1.25,0.39
		l-0.42,1.12c-0.3-0.17-0.59-0.26-0.89-0.26c-0.26,0-0.5,0.08-0.71,0.24s-0.36,0.38-0.45,0.66c-0.13,0.43-0.2,0.9-0.2,1.41v3.74
		H20.77z"/>
	<path d="M30.27,45.85L31.52,46c-0.2,0.73-0.56,1.3-1.1,1.7c-0.53,0.4-1.22,0.61-2.05,0.61c-1.04,0-1.87-0.32-2.49-0.96
		s-0.92-1.55-0.92-2.71c0-1.2,0.31-2.13,0.93-2.8s1.42-1,2.41-1c0.96,0,1.74,0.33,2.34,0.98s0.91,1.57,0.91,2.75
		c0,0.07,0,0.18-0.01,0.32h-5.33c0.04,0.79,0.27,1.39,0.67,1.8c0.4,0.42,0.9,0.63,1.49,0.63c0.44,0,0.82-0.12,1.14-0.35
		C29.83,46.73,30.08,46.36,30.27,45.85z M26.29,43.89h3.99c-0.05-0.6-0.21-1.05-0.46-1.35c-0.39-0.47-0.89-0.7-1.5-0.7
		c-0.56,0-1.02,0.19-1.4,0.56C26.54,42.77,26.33,43.27,26.29,43.89z"/>
	<path d="M33.04,48.15V41h1.09v1.02c0.52-0.79,1.28-1.18,2.27-1.18c0.43,0,0.83,0.08,1.19,0.23c0.36,0.16,0.63,0.36,0.81,0.61
		c0.18,0.25,0.31,0.55,0.38,0.89c0.04,0.22,0.07,0.62,0.07,1.18v4.39h-1.21V43.8c0-0.49-0.05-0.86-0.14-1.11
		c-0.09-0.25-0.26-0.44-0.5-0.59c-0.24-0.15-0.52-0.22-0.84-0.22c-0.52,0-0.96,0.16-1.34,0.49c-0.37,0.33-0.56,0.95-0.56,1.86v3.9
		H33.04z"/>
	<path d="M43.35,47.07l0.17,1.07c-0.34,0.07-0.65,0.11-0.92,0.11c-0.44,0-0.78-0.07-1.02-0.21c-0.24-0.14-0.41-0.32-0.51-0.55
		s-0.15-0.7-0.15-1.43v-4.11h-0.89V41h0.89v-1.77l1.2-0.73V41h1.22v0.94h-1.22v4.18c0,0.35,0.02,0.57,0.06,0.67
		c0.04,0.1,0.11,0.18,0.21,0.24c0.1,0.06,0.23,0.09,0.41,0.09C42.95,47.11,43.13,47.1,43.35,47.07z"/>
	<path d="M49.42,45.85L50.67,46c-0.2,0.73-0.56,1.3-1.1,1.7c-0.53,0.4-1.22,0.61-2.05,0.61c-1.04,0-1.87-0.32-2.49-0.96
		s-0.92-1.55-0.92-2.71c0-1.2,0.31-2.13,0.93-2.8s1.42-1,2.41-1c0.96,0,1.74,0.33,2.34,0.98s0.91,1.57,0.91,2.75
		c0,0.07,0,0.18-0.01,0.32h-5.33c0.04,0.79,0.27,1.39,0.67,1.8c0.4,0.42,0.9,0.63,1.49,0.63c0.44,0,0.82-0.12,1.14-0.35
		C48.99,46.73,49.24,46.36,49.42,45.85z M45.44,43.89h3.99c-0.05-0.6-0.21-1.05-0.46-1.35c-0.39-0.47-0.89-0.7-1.5-0.7
		c-0.56,0-1.02,0.19-1.4,0.56C45.69,42.77,45.48,43.27,45.44,43.89z"/>
	<path d="M60.66,48.15v-0.9c-0.45,0.71-1.12,1.06-2,1.06c-0.57,0-1.09-0.16-1.57-0.47c-0.48-0.31-0.85-0.75-1.11-1.32
		c-0.26-0.56-0.39-1.21-0.39-1.94c0-0.71,0.12-1.36,0.36-1.94c0.24-0.58,0.59-1.03,1.07-1.34s1.01-0.46,1.59-0.46
		c0.43,0,0.81,0.09,1.15,0.27c0.34,0.18,0.61,0.42,0.82,0.71v-3.54h1.2v9.86H60.66z M56.83,44.58c0,0.92,0.19,1.6,0.58,2.05
		s0.84,0.68,1.37,0.68c0.53,0,0.98-0.22,1.35-0.65s0.56-1.09,0.56-1.98c0-0.98-0.19-1.7-0.56-2.15c-0.38-0.46-0.84-0.69-1.39-0.69
		c-0.54,0-0.99,0.22-1.35,0.66C57.01,42.94,56.83,43.64,56.83,44.58z"/>
	<path d="M68.58,45.85L69.83,46c-0.2,0.73-0.56,1.3-1.1,1.7c-0.53,0.4-1.22,0.61-2.05,0.61c-1.04,0-1.87-0.32-2.49-0.96
		s-0.92-1.55-0.92-2.71c0-1.2,0.31-2.13,0.93-2.8s1.42-1,2.41-1c0.96,0,1.74,0.33,2.34,0.98s0.91,1.57,0.91,2.75
		c0,0.07,0,0.18-0.01,0.32h-5.33c0.04,0.79,0.27,1.39,0.67,1.8c0.4,0.42,0.9,0.63,1.49,0.63c0.44,0,0.82-0.12,1.14-0.35
		C68.14,46.73,68.39,46.36,68.58,45.85z M64.6,43.89h3.99c-0.05-0.6-0.21-1.05-0.46-1.35c-0.39-0.47-0.89-0.7-1.5-0.7
		c-0.56,0-1.02,0.19-1.4,0.56C64.85,42.77,64.64,43.27,64.6,43.89z"/>
	<path d="M74.94,43.35c0-1.64,0.44-2.92,1.32-3.85c0.88-0.93,2.01-1.39,3.4-1.39c0.91,0,1.73,0.22,2.46,0.65
		c0.73,0.44,1.29,1.04,1.67,1.82c0.38,0.78,0.58,1.66,0.58,2.65c0,1-0.2,1.9-0.61,2.69c-0.4,0.79-0.98,1.39-1.72,1.79
		c-0.74,0.41-1.54,0.61-2.4,0.61c-0.93,0-1.76-0.22-2.49-0.67c-0.73-0.45-1.29-1.06-1.66-1.84C75.12,45.03,74.94,44.21,74.94,43.35z
		 M76.28,43.36c0,1.19,0.32,2.12,0.96,2.81c0.64,0.68,1.44,1.03,2.41,1.03c0.98,0,1.79-0.35,2.43-1.04
		c0.63-0.69,0.95-1.67,0.95-2.94c0-0.8-0.14-1.5-0.41-2.1c-0.27-0.6-0.67-1.06-1.19-1.39c-0.52-0.33-1.11-0.49-1.76-0.49
		c-0.92,0-1.72,0.32-2.39,0.95C76.61,40.82,76.28,41.88,76.28,43.36z"/>
	<path d="M85.9,50.89V41H87v0.93c0.26-0.36,0.55-0.64,0.88-0.82c0.33-0.18,0.72-0.27,1.19-0.27c0.61,0,1.15,0.16,1.62,0.47
		c0.47,0.31,0.82,0.76,1.06,1.33c0.24,0.57,0.36,1.2,0.36,1.88c0,0.73-0.13,1.39-0.39,1.98c-0.26,0.58-0.64,1.03-1.14,1.35
		c-0.5,0.31-1.03,0.47-1.58,0.47c-0.4,0-0.77-0.08-1.09-0.25c-0.32-0.17-0.58-0.39-0.79-0.65v3.48H85.9z M86.99,44.62
		c0,0.92,0.19,1.6,0.56,2.04c0.37,0.44,0.82,0.66,1.35,0.66c0.54,0,1-0.23,1.38-0.68c0.38-0.46,0.58-1.16,0.58-2.12
		c0-0.91-0.19-1.59-0.56-2.04s-0.82-0.68-1.34-0.68c-0.52,0-0.97,0.24-1.37,0.72C87.19,43,86.99,43.7,86.99,44.62z"/>
	<path d="M98.45,45.85L99.7,46c-0.2,0.73-0.56,1.3-1.1,1.7c-0.53,0.4-1.22,0.61-2.05,0.61c-1.04,0-1.87-0.32-2.49-0.96
		s-0.92-1.55-0.92-2.71c0-1.2,0.31-2.13,0.93-2.8s1.42-1,2.41-1c0.96,0,1.74,0.33,2.34,0.98s0.91,1.57,0.91,2.75
		c0,0.07,0,0.18-0.01,0.32h-5.33c0.04,0.79,0.27,1.39,0.67,1.8c0.4,0.42,0.9,0.63,1.49,0.63c0.44,0,0.82-0.12,1.14-0.35
		C98.02,46.73,98.27,46.36,98.45,45.85z M94.48,43.89h3.99c-0.05-0.6-0.21-1.05-0.46-1.35c-0.39-0.47-0.89-0.7-1.5-0.7
		c-0.56,0-1.02,0.19-1.4,0.56C94.73,42.77,94.52,43.27,94.48,43.89z"/>
	<path d="M101.21,48.15V41h1.09v1.08c0.28-0.51,0.54-0.84,0.77-1c0.24-0.16,0.49-0.24,0.78-0.24c0.41,0,0.82,0.13,1.25,0.39
		l-0.42,1.12c-0.3-0.17-0.59-0.26-0.89-0.26c-0.26,0-0.5,0.08-0.71,0.24s-0.36,0.38-0.45,0.66c-0.13,0.43-0.2,0.9-0.2,1.41v3.74
		H101.21z"/>
	<path d="M110.48,47.27c-0.45,0.38-0.88,0.65-1.3,0.81s-0.86,0.24-1.34,0.24c-0.79,0-1.39-0.19-1.81-0.58
		c-0.42-0.38-0.63-0.87-0.63-1.47c0-0.35,0.08-0.67,0.24-0.96s0.37-0.52,0.63-0.7c0.26-0.17,0.55-0.31,0.87-0.4
		c0.24-0.06,0.6-0.12,1.08-0.18c0.98-0.12,1.7-0.25,2.16-0.42c0-0.17,0.01-0.27,0.01-0.32c0-0.49-0.11-0.84-0.34-1.04
		c-0.31-0.27-0.77-0.41-1.38-0.41c-0.57,0-0.99,0.1-1.26,0.3c-0.27,0.2-0.47,0.55-0.6,1.06l-1.18-0.16
		c0.11-0.51,0.28-0.92,0.53-1.23c0.25-0.31,0.6-0.55,1.07-0.72c0.47-0.17,1.01-0.25,1.62-0.25c0.61,0,1.11,0.07,1.49,0.22
		s0.66,0.32,0.84,0.54c0.18,0.22,0.31,0.49,0.38,0.82c0.04,0.21,0.06,0.58,0.06,1.12v1.62c0,1.13,0.03,1.84,0.08,2.14
		c0.05,0.3,0.15,0.58,0.31,0.86h-1.27C110.59,47.9,110.51,47.6,110.48,47.27z M110.38,44.56c-0.44,0.18-1.1,0.33-1.98,0.46
		c-0.5,0.07-0.85,0.15-1.06,0.24c-0.21,0.09-0.37,0.22-0.48,0.39s-0.17,0.36-0.17,0.58c0,0.32,0.12,0.59,0.37,0.81
		c0.24,0.22,0.6,0.32,1.07,0.32c0.47,0,0.88-0.1,1.25-0.31s0.63-0.48,0.8-0.84c0.13-0.27,0.19-0.68,0.19-1.21V44.56z"/>
	<path d="M118.14,45.53l1.19,0.15c-0.13,0.82-0.46,1.46-1,1.93c-0.54,0.46-1.19,0.7-1.98,0.7c-0.98,0-1.76-0.32-2.36-0.96
		c-0.59-0.64-0.89-1.56-0.89-2.75c0-0.77,0.13-1.45,0.38-2.03c0.26-0.58,0.64-1.01,1.17-1.3c0.52-0.29,1.09-0.43,1.71-0.43
		c0.78,0,1.41,0.2,1.9,0.59c0.49,0.39,0.81,0.95,0.95,1.67l-1.18,0.18c-0.11-0.48-0.31-0.84-0.6-1.08
		c-0.29-0.24-0.63-0.36-1.03-0.36c-0.61,0-1.11,0.22-1.49,0.66s-0.57,1.13-0.57,2.08c0,0.96,0.18,1.66,0.55,2.09
		c0.37,0.44,0.85,0.65,1.44,0.65c0.48,0,0.87-0.15,1.19-0.44C117.85,46.59,118.05,46.14,118.14,45.53z"/>
	<path d="M120.37,39.68v-1.39h1.21v1.39H120.37z M120.37,48.15V41h1.21v7.15H120.37z"/>
	<path d="M122.98,44.58c0-1.32,0.37-2.3,1.1-2.94c0.61-0.53,1.36-0.79,2.25-0.79c0.98,0,1.79,0.32,2.41,0.97s0.94,1.53,0.94,2.67
		c0,0.92-0.14,1.64-0.41,2.17s-0.68,0.94-1.2,1.23c-0.53,0.29-1.1,0.44-1.73,0.44c-1,0-1.81-0.32-2.43-0.96
		S122.98,45.78,122.98,44.58z M124.22,44.58c0,0.92,0.2,1.6,0.6,2.06c0.4,0.46,0.9,0.68,1.51,0.68c0.6,0,1.1-0.23,1.5-0.69
		c0.4-0.46,0.6-1.16,0.6-2.09c0-0.88-0.2-1.55-0.6-2.01c-0.4-0.46-0.9-0.68-1.5-0.68c-0.61,0-1.11,0.23-1.51,0.68
		C124.42,42.98,124.22,43.66,124.22,44.58z"/>
	<path d="M131.09,48.15V41h1.09v1.02c0.52-0.79,1.28-1.18,2.27-1.18c0.43,0,0.83,0.08,1.19,0.23c0.36,0.16,0.63,0.36,0.81,0.61
		c0.18,0.25,0.31,0.55,0.38,0.89c0.04,0.22,0.07,0.62,0.07,1.18v4.39h-1.21V43.8c0-0.49-0.05-0.86-0.14-1.11
		c-0.09-0.25-0.26-0.44-0.5-0.59c-0.24-0.15-0.52-0.22-0.84-0.22c-0.52,0-0.96,0.16-1.34,0.49c-0.37,0.33-0.56,0.95-0.56,1.86v3.9
		H131.09z"/>
	<path d="M143.65,45.85L144.9,46c-0.2,0.73-0.56,1.3-1.1,1.7c-0.53,0.4-1.22,0.61-2.05,0.61c-1.04,0-1.87-0.32-2.49-0.96
		s-0.92-1.55-0.92-2.71c0-1.2,0.31-2.13,0.93-2.8s1.42-1,2.41-1c0.96,0,1.74,0.33,2.34,0.98s0.91,1.57,0.91,2.75
		c0,0.07,0,0.18-0.01,0.32h-5.33c0.04,0.79,0.27,1.39,0.67,1.8c0.4,0.42,0.9,0.63,1.49,0.63c0.44,0,0.82-0.12,1.14-0.35
		C143.21,46.73,143.46,46.36,143.65,45.85z M139.67,43.89h3.99c-0.05-0.6-0.21-1.05-0.46-1.35c-0.39-0.47-0.89-0.7-1.5-0.7
		c-0.56,0-1.02,0.19-1.4,0.56C139.92,42.77,139.71,43.27,139.67,43.89z"/>
	<path d="M145.94,46.02l1.2-0.19c0.07,0.48,0.25,0.85,0.56,1.1c0.31,0.26,0.74,0.38,1.29,0.38c0.56,0,0.97-0.11,1.24-0.34
		s0.4-0.49,0.4-0.8c0-0.27-0.12-0.49-0.36-0.65c-0.17-0.11-0.58-0.25-1.24-0.41c-0.89-0.22-1.5-0.42-1.85-0.58
		c-0.34-0.16-0.6-0.39-0.78-0.68c-0.18-0.29-0.27-0.61-0.27-0.96c0-0.32,0.07-0.61,0.22-0.88c0.15-0.27,0.34-0.5,0.6-0.68
		c0.19-0.14,0.45-0.26,0.77-0.35c0.33-0.1,0.67-0.15,1.05-0.15c0.56,0,1.05,0.08,1.48,0.24c0.42,0.16,0.74,0.38,0.94,0.66
		c0.2,0.28,0.34,0.65,0.42,1.11l-1.18,0.16c-0.05-0.37-0.21-0.66-0.47-0.86s-0.62-0.31-1.09-0.31c-0.56,0-0.95,0.09-1.19,0.28
		c-0.24,0.18-0.36,0.4-0.36,0.65c0,0.16,0.05,0.3,0.15,0.42c0.1,0.13,0.25,0.24,0.46,0.32c0.12,0.04,0.48,0.15,1.07,0.31
		c0.86,0.23,1.45,0.42,1.79,0.56c0.34,0.15,0.6,0.36,0.8,0.64c0.19,0.28,0.29,0.62,0.29,1.04c0,0.4-0.12,0.78-0.35,1.14
		c-0.24,0.36-0.58,0.63-1.02,0.83c-0.44,0.19-0.95,0.29-1.51,0.29c-0.93,0-1.64-0.19-2.12-0.58
		C146.38,47.35,146.07,46.77,145.94,46.02z"/>
</g>
<g>
	<path d="M2.31,67.33c0-1.64,0.44-2.92,1.32-3.85c0.88-0.93,2.01-1.39,3.4-1.39c0.91,0,1.73,0.22,2.46,0.65
		c0.73,0.44,1.29,1.04,1.67,1.82c0.38,0.78,0.58,1.66,0.58,2.65c0,1-0.2,1.9-0.61,2.69c-0.4,0.79-0.98,1.39-1.72,1.79
		c-0.74,0.41-1.54,0.61-2.4,0.61c-0.93,0-1.76-0.22-2.49-0.67c-0.73-0.45-1.29-1.06-1.66-1.84C2.5,69.01,2.31,68.19,2.31,67.33z
		 M3.66,67.35c0,1.19,0.32,2.12,0.96,2.81c0.64,0.68,1.44,1.03,2.41,1.03c0.98,0,1.79-0.35,2.43-1.04c0.63-0.69,0.95-1.67,0.95-2.94
		c0-0.8-0.14-1.5-0.41-2.1c-0.27-0.6-0.67-1.06-1.19-1.39c-0.52-0.33-1.11-0.49-1.76-0.49c-0.92,0-1.72,0.32-2.39,0.95
		C3.99,64.8,3.66,65.86,3.66,67.35z"/>
	<path d="M13.27,74.87v-9.88h1.1v0.93c0.26-0.36,0.55-0.64,0.88-0.82c0.33-0.18,0.72-0.27,1.19-0.27c0.61,0,1.15,0.16,1.62,0.47
		c0.47,0.31,0.82,0.76,1.06,1.33c0.24,0.57,0.36,1.2,0.36,1.88c0,0.73-0.13,1.39-0.39,1.98c-0.26,0.58-0.64,1.03-1.14,1.35
		c-0.5,0.31-1.03,0.47-1.58,0.47c-0.4,0-0.77-0.08-1.09-0.25c-0.32-0.17-0.58-0.39-0.79-0.65v3.48H13.27z M14.37,68.6
		c0,0.92,0.19,1.6,0.56,2.04c0.37,0.44,0.82,0.66,1.35,0.66c0.54,0,1-0.23,1.38-0.68c0.38-0.46,0.58-1.16,0.58-2.12
		c0-0.91-0.19-1.59-0.56-2.04s-0.82-0.68-1.34-0.68c-0.52,0-0.97,0.24-1.37,0.72C14.57,66.98,14.37,67.68,14.37,68.6z"/>
	<path d="M25.83,69.83l1.25,0.15c-0.2,0.73-0.56,1.3-1.1,1.7c-0.53,0.4-1.22,0.61-2.05,0.61c-1.04,0-1.87-0.32-2.49-0.96
		s-0.92-1.55-0.92-2.71c0-1.2,0.31-2.13,0.93-2.8s1.42-1,2.41-1c0.96,0,1.74,0.33,2.34,0.98s0.91,1.57,0.91,2.75
		c0,0.07,0,0.18-0.01,0.32h-5.33c0.04,0.79,0.27,1.39,0.67,1.8c0.4,0.42,0.9,0.63,1.49,0.63c0.44,0,0.82-0.12,1.14-0.35
		C25.39,70.72,25.64,70.34,25.83,69.83z M21.85,67.87h3.99c-0.05-0.6-0.21-1.05-0.46-1.35c-0.39-0.47-0.89-0.7-1.5-0.7
		c-0.56,0-1.02,0.19-1.4,0.56C22.1,66.75,21.89,67.25,21.85,67.87z"/>
	<path d="M28.58,72.13v-7.15h1.09v1.08c0.28-0.51,0.54-0.84,0.77-1c0.24-0.16,0.49-0.24,0.78-0.24c0.41,0,0.82,0.13,1.25,0.39
		l-0.42,1.12c-0.3-0.17-0.59-0.26-0.89-0.26c-0.26,0-0.5,0.08-0.71,0.24S30.09,66.7,30,66.98c-0.13,0.43-0.2,0.9-0.2,1.41v3.74
		H28.58z"/>
	<path d="M37.85,71.25c-0.45,0.38-0.88,0.65-1.3,0.81s-0.86,0.24-1.34,0.24c-0.79,0-1.39-0.19-1.81-0.58
		c-0.42-0.38-0.63-0.87-0.63-1.47c0-0.35,0.08-0.67,0.24-0.96s0.37-0.52,0.63-0.7c0.26-0.17,0.55-0.31,0.87-0.4
		c0.24-0.06,0.6-0.12,1.08-0.18c0.98-0.12,1.7-0.25,2.16-0.42c0-0.17,0.01-0.27,0.01-0.32c0-0.49-0.11-0.84-0.34-1.04
		c-0.31-0.27-0.77-0.41-1.38-0.41c-0.57,0-0.99,0.1-1.26,0.3c-0.27,0.2-0.47,0.55-0.6,1.06l-1.18-0.16
		c0.11-0.51,0.28-0.92,0.53-1.23c0.25-0.31,0.6-0.55,1.07-0.72c0.47-0.17,1.01-0.25,1.62-0.25c0.61,0,1.11,0.07,1.49,0.22
		s0.66,0.32,0.84,0.54c0.18,0.22,0.31,0.49,0.38,0.82c0.04,0.21,0.06,0.58,0.06,1.12v1.62c0,1.13,0.03,1.84,0.08,2.14
		c0.05,0.3,0.15,0.58,0.31,0.86h-1.27C37.97,71.88,37.89,71.59,37.85,71.25z M37.75,68.55c-0.44,0.18-1.1,0.33-1.98,0.46
		c-0.5,0.07-0.85,0.15-1.06,0.24c-0.21,0.09-0.37,0.22-0.48,0.39s-0.17,0.36-0.17,0.58c0,0.32,0.12,0.59,0.37,0.81
		c0.24,0.22,0.6,0.32,1.07,0.32c0.47,0,0.88-0.1,1.25-0.31s0.63-0.48,0.8-0.84c0.13-0.27,0.19-0.68,0.19-1.21V68.55z"/>
	<path d="M45.51,69.51l1.19,0.15c-0.13,0.82-0.46,1.46-1,1.93c-0.54,0.46-1.19,0.7-1.98,0.7c-0.98,0-1.76-0.32-2.36-0.96
		c-0.59-0.64-0.89-1.56-0.89-2.75c0-0.77,0.13-1.45,0.38-2.03c0.26-0.58,0.64-1.01,1.17-1.3c0.52-0.29,1.09-0.43,1.71-0.43
		c0.78,0,1.41,0.2,1.9,0.59c0.49,0.39,0.81,0.95,0.95,1.67l-1.18,0.18c-0.11-0.48-0.31-0.84-0.6-1.08
		c-0.29-0.24-0.63-0.36-1.03-0.36c-0.61,0-1.11,0.22-1.49,0.66s-0.57,1.13-0.57,2.08c0,0.96,0.18,1.66,0.55,2.09
		c0.37,0.44,0.85,0.65,1.44,0.65c0.48,0,0.87-0.15,1.19-0.44C45.23,70.57,45.43,70.12,45.51,69.51z"/>
	<path d="M47.75,63.66v-1.39h1.21v1.39H47.75z M47.75,72.13v-7.15h1.21v7.15H47.75z"/>
	<path d="M50.35,68.56c0-1.32,0.37-2.3,1.1-2.94c0.61-0.53,1.36-0.79,2.25-0.79c0.98,0,1.79,0.32,2.41,0.97s0.94,1.53,0.94,2.67
		c0,0.92-0.14,1.64-0.41,2.17s-0.68,0.94-1.2,1.23c-0.53,0.29-1.1,0.44-1.73,0.44c-1,0-1.81-0.32-2.43-0.96S50.35,69.77,50.35,68.56
		z M51.6,68.56c0,0.92,0.2,1.6,0.6,2.06c0.4,0.46,0.9,0.68,1.51,0.68c0.6,0,1.1-0.23,1.5-0.69c0.4-0.46,0.6-1.16,0.6-2.09
		c0-0.88-0.2-1.55-0.6-2.01c-0.4-0.46-0.9-0.68-1.5-0.68c-0.61,0-1.11,0.23-1.51,0.68C51.8,66.96,51.6,67.64,51.6,68.56z"/>
	<path d="M58.47,72.13v-7.15h1.09V66c0.52-0.79,1.28-1.18,2.27-1.18c0.43,0,0.83,0.08,1.19,0.23c0.36,0.16,0.63,0.36,0.81,0.61
		c0.18,0.25,0.31,0.55,0.38,0.89c0.04,0.22,0.07,0.62,0.07,1.18v4.39h-1.21v-4.35c0-0.49-0.05-0.86-0.14-1.11
		c-0.09-0.25-0.26-0.44-0.5-0.59c-0.24-0.15-0.52-0.22-0.84-0.22c-0.52,0-0.96,0.16-1.34,0.49c-0.37,0.33-0.56,0.95-0.56,1.86v3.9
		H58.47z"/>
	<path d="M71.02,69.83l1.25,0.15c-0.2,0.73-0.56,1.3-1.1,1.7c-0.53,0.4-1.22,0.61-2.05,0.61c-1.04,0-1.87-0.32-2.49-0.96
		s-0.92-1.55-0.92-2.71c0-1.2,0.31-2.13,0.93-2.8s1.42-1,2.41-1c0.96,0,1.74,0.33,2.34,0.98s0.91,1.57,0.91,2.75
		c0,0.07,0,0.18-0.01,0.32h-5.33c0.04,0.79,0.27,1.39,0.67,1.8c0.4,0.42,0.9,0.63,1.49,0.63c0.44,0,0.82-0.12,1.14-0.35
		C70.59,70.72,70.84,70.34,71.02,69.83z M67.04,67.87h3.99c-0.05-0.6-0.21-1.05-0.46-1.35c-0.39-0.47-0.89-0.7-1.5-0.7
		c-0.56,0-1.02,0.19-1.4,0.56C67.29,66.75,67.08,67.25,67.04,67.87z"/>
	<path d="M73.31,70l1.2-0.19c0.07,0.48,0.25,0.85,0.56,1.1c0.31,0.26,0.74,0.38,1.29,0.38c0.56,0,0.97-0.11,1.24-0.34
		s0.4-0.49,0.4-0.8c0-0.27-0.12-0.49-0.36-0.65c-0.17-0.11-0.58-0.25-1.24-0.41c-0.89-0.22-1.5-0.42-1.85-0.58
		c-0.34-0.16-0.6-0.39-0.78-0.68c-0.18-0.29-0.27-0.61-0.27-0.96c0-0.32,0.07-0.61,0.22-0.88c0.15-0.27,0.34-0.5,0.6-0.68
		c0.19-0.14,0.45-0.26,0.77-0.35c0.33-0.1,0.67-0.15,1.05-0.15c0.56,0,1.05,0.08,1.48,0.24c0.42,0.16,0.74,0.38,0.94,0.66
		c0.2,0.28,0.34,0.65,0.42,1.11l-1.18,0.16c-0.05-0.37-0.21-0.66-0.47-0.86s-0.62-0.31-1.09-0.31c-0.56,0-0.95,0.09-1.19,0.28
		c-0.24,0.18-0.36,0.4-0.36,0.65c0,0.16,0.05,0.3,0.15,0.42c0.1,0.13,0.25,0.24,0.46,0.32c0.12,0.04,0.48,0.15,1.07,0.31
		c0.86,0.23,1.45,0.42,1.79,0.56c0.34,0.15,0.6,0.36,0.8,0.64c0.19,0.28,0.29,0.62,0.29,1.04c0,0.4-0.12,0.78-0.35,1.14
		c-0.24,0.36-0.58,0.63-1.02,0.83c-0.44,0.19-0.95,0.29-1.51,0.29c-0.93,0-1.64-0.19-2.12-0.58C73.75,71.33,73.44,70.76,73.31,70z"
		/>
	<path d="M84.87,75.03V62.1h1.06v12.93H84.87z"/>
	<path d="M96.69,68.26v-1.16l4.18-0.01v3.66c-0.64,0.51-1.3,0.9-1.98,1.15c-0.68,0.26-1.38,0.39-2.1,0.39
		c-0.97,0-1.85-0.21-2.64-0.62c-0.79-0.42-1.39-1.01-1.79-1.8s-0.61-1.66-0.61-2.63c0-0.96,0.2-1.86,0.6-2.69s0.98-1.45,1.73-1.85
		c0.75-0.4,1.62-0.61,2.6-0.61c0.71,0,1.36,0.12,1.93,0.35c0.58,0.23,1.03,0.55,1.36,0.97c0.33,0.41,0.58,0.95,0.75,1.61l-1.18,0.32
		c-0.15-0.5-0.33-0.9-0.55-1.18s-0.53-0.52-0.94-0.69s-0.86-0.26-1.36-0.26c-0.6,0-1.11,0.09-1.55,0.27s-0.79,0.42-1.05,0.72
		c-0.27,0.3-0.47,0.62-0.62,0.98c-0.25,0.61-0.38,1.27-0.38,1.98c0,0.88,0.15,1.62,0.45,2.21s0.74,1.03,1.32,1.32
		s1.19,0.43,1.84,0.43c0.56,0,1.12-0.11,1.66-0.33c0.54-0.22,0.95-0.45,1.22-0.7v-1.84H96.69z"/>
	<path d="M101.71,72.13l3.79-9.86h1.41l4.04,9.86h-1.49l-1.15-2.99h-4.12l-1.08,2.99H101.71z M104.56,68.08h3.34l-1.03-2.73
		c-0.31-0.83-0.55-1.51-0.7-2.05c-0.13,0.63-0.3,1.26-0.53,1.88L104.56,68.08z"/>
	<path d="M111.93,72.13v-9.86h3.7c0.75,0,1.36,0.1,1.81,0.3c0.46,0.2,0.81,0.51,1.07,0.92c0.26,0.42,0.39,0.85,0.39,1.3
		c0,0.42-0.11,0.82-0.34,1.19c-0.23,0.37-0.57,0.67-1.04,0.9c0.6,0.17,1.06,0.47,1.38,0.89s0.48,0.92,0.48,1.49
		c0,0.46-0.1,0.89-0.29,1.29c-0.2,0.4-0.44,0.7-0.72,0.92c-0.29,0.21-0.65,0.38-1.08,0.49c-0.43,0.11-0.96,0.17-1.59,0.17H111.93z
		 M113.24,66.41h2.13c0.58,0,0.99-0.04,1.24-0.12c0.33-0.1,0.58-0.26,0.75-0.49c0.17-0.23,0.25-0.52,0.25-0.86
		c0-0.33-0.08-0.62-0.24-0.86c-0.16-0.25-0.38-0.42-0.67-0.51c-0.29-0.09-0.79-0.14-1.5-0.14h-1.97V66.41z M113.24,70.97h2.46
		c0.42,0,0.72-0.02,0.89-0.05c0.3-0.05,0.55-0.14,0.75-0.27c0.2-0.12,0.37-0.31,0.5-0.55c0.13-0.24,0.2-0.52,0.2-0.83
		c0-0.37-0.09-0.69-0.28-0.96s-0.45-0.46-0.78-0.57c-0.33-0.11-0.82-0.17-1.44-0.17h-2.28V70.97z"/>
	<path d="M120.09,72.13l3.79-9.86h1.41l4.04,9.86h-1.49l-1.15-2.99h-4.12l-1.08,2.99H120.09z M122.94,68.08h3.34l-1.03-2.73
		c-0.31-0.83-0.55-1.51-0.7-2.05c-0.13,0.63-0.3,1.26-0.53,1.88L122.94,68.08z"/>
	<path d="M130.39,72.13v-9.86h4.37c0.88,0,1.55,0.09,2,0.27c0.46,0.18,0.82,0.49,1.1,0.94c0.27,0.45,0.41,0.94,0.41,1.49
		c0,0.7-0.23,1.29-0.68,1.77c-0.45,0.48-1.15,0.79-2.1,0.92c0.35,0.17,0.61,0.33,0.79,0.49c0.38,0.35,0.74,0.79,1.08,1.31l1.72,2.68
		h-1.64l-1.31-2.05c-0.38-0.59-0.7-1.05-0.94-1.36c-0.25-0.31-0.47-0.53-0.66-0.66c-0.19-0.13-0.39-0.21-0.6-0.26
		c-0.15-0.03-0.39-0.05-0.73-0.05h-1.51v4.38H130.39z M131.69,66.62h2.81c0.6,0,1.06-0.06,1.4-0.18c0.34-0.12,0.59-0.32,0.77-0.59
		c0.18-0.27,0.26-0.57,0.26-0.88c0-0.47-0.17-0.85-0.51-1.15c-0.34-0.3-0.87-0.45-1.6-0.45h-3.12V66.62z"/>
</g>
</svg>
