<?xml version="1.0" encoding="utf-8"?>
<!-- Generator: Adobe Illustrator 25.4.1, SVG Export Plug-In . SVG Version: 6.00 Build 0)  -->
<svg version="1.1" id="Capa_1" xmlns="http://www.w3.org/2000/svg" xmlns:xlink="http://www.w3.org/1999/xlink" x="0px" y="0px"
	 viewBox="0 0 252 77.61" style="enable-background:new 0 0 252 77.61;" xml:space="preserve">
<g>
	<path d="M7.17,40.28v-1.16l4.18-0.01v3.66c-0.64,0.51-1.3,0.9-1.98,1.15c-0.68,0.26-1.38,0.39-2.1,0.39
		c-0.97,0-1.85-0.21-2.64-0.62c-0.79-0.42-1.39-1.01-1.79-1.8s-0.61-1.66-0.61-2.63c0-0.96,0.2-1.86,0.6-2.69s0.98-1.45,1.73-1.85
		c0.75-0.4,1.62-0.61,2.6-0.61c0.71,0,1.36,0.12,1.93,0.35c0.58,0.23,1.03,0.55,1.36,0.97c0.33,0.41,0.58,0.95,0.75,1.61l-1.18,0.32
		c-0.15-0.5-0.33-0.9-0.55-1.18s-0.53-0.52-0.94-0.69s-0.86-0.26-1.36-0.26c-0.6,0-1.11,0.09-1.55,0.27s-0.79,0.42-1.05,0.72
		c-0.27,0.3-0.47,0.62-0.62,0.98c-0.25,0.61-0.38,1.27-0.38,1.98c0,0.88,0.15,1.62,0.45,2.21s0.74,1.03,1.32,1.32
		s1.19,0.43,1.84,0.43c0.56,0,1.12-0.11,1.66-0.33c0.54-0.22,0.95-0.45,1.22-0.7v-1.84H7.17z"/>
	<path d="M18.01,41.85L19.26,42c-0.2,0.73-0.56,1.3-1.1,1.7c-0.53,0.4-1.22,0.61-2.05,0.61c-1.04,0-1.87-0.32-2.49-0.96
		s-0.92-1.55-0.92-2.71c0-1.2,0.31-2.13,0.93-2.8s1.42-1,2.41-1c0.96,0,1.74,0.33,2.34,0.98s0.91,1.57,0.91,2.75
		c0,0.07,0,0.18-0.01,0.32h-5.33c0.04,0.79,0.27,1.39,0.67,1.8c0.4,0.42,0.9,0.63,1.49,0.63c0.44,0,0.82-0.12,1.14-0.35
		C17.58,42.73,17.83,42.36,18.01,41.85z M14.04,39.89h3.99c-0.05-0.6-0.21-1.05-0.46-1.35c-0.39-0.47-0.89-0.7-1.5-0.7
		c-0.56,0-1.02,0.19-1.4,0.56C14.29,38.77,14.08,39.27,14.04,39.89z"/>
	<path d="M20.77,44.15V37h1.09v1.08c0.28-0.51,0.54-0.84,0.77-1c0.24-0.16,0.49-0.24,0.78-0.24c0.41,0,0.82,0.13,1.25,0.39
		l-0.42,1.12c-0.3-0.17-0.59-0.26-0.89-0.26c-0.26,0-0.5,0.08-0.71,0.24s-0.36,0.38-0.45,0.66c-0.13,0.43-0.2,0.9-0.2,1.41v3.74
		H20.77z"/>
	<path d="M30.27,41.85L31.52,42c-0.2,0.73-0.56,1.3-1.1,1.7c-0.53,0.4-1.22,0.61-2.05,0.61c-1.04,0-1.87-0.32-2.49-0.96
		s-0.92-1.55-0.92-2.71c0-1.2,0.31-2.13,0.93-2.8s1.42-1,2.41-1c0.96,0,1.74,0.33,2.34,0.98s0.91,1.57,0.91,2.75
		c0,0.07,0,0.18-0.01,0.32h-5.33c0.04,0.79,0.27,1.39,0.67,1.8c0.4,0.42,0.9,0.63,1.49,0.63c0.44,0,0.82-0.12,1.14-0.35
		C29.83,42.73,30.08,42.36,30.27,41.85z M26.29,39.89h3.99c-0.05-0.6-0.21-1.05-0.46-1.35c-0.39-0.47-0.89-0.7-1.5-0.7
		c-0.56,0-1.02,0.19-1.4,0.56C26.54,38.77,26.33,39.27,26.29,39.89z"/>
	<path d="M33.04,44.15V37h1.09v1.02c0.52-0.79,1.28-1.18,2.27-1.18c0.43,0,0.83,0.08,1.19,0.23c0.36,0.16,0.63,0.36,0.81,0.61
		c0.18,0.25,0.31,0.55,0.38,0.89c0.04,0.22,0.07,0.62,0.07,1.18v4.39h-1.21V39.8c0-0.49-0.05-0.86-0.14-1.11
		c-0.09-0.25-0.26-0.44-0.5-0.59c-0.24-0.15-0.52-0.22-0.84-0.22c-0.52,0-0.96,0.16-1.34,0.49c-0.37,0.33-0.56,0.95-0.56,1.86v3.9
		H33.04z"/>
	<path d="M43.35,43.07l0.17,1.07c-0.34,0.07-0.65,0.11-0.92,0.11c-0.44,0-0.78-0.07-1.02-0.21c-0.24-0.14-0.41-0.32-0.51-0.55
		s-0.15-0.7-0.15-1.43v-4.11h-0.89V37h0.89v-1.77l1.2-0.73V37h1.22v0.94h-1.22v4.18c0,0.35,0.02,0.57,0.06,0.67
		c0.04,0.1,0.11,0.18,0.21,0.24c0.1,0.06,0.23,0.09,0.41,0.09C42.95,43.11,43.13,43.1,43.35,43.07z"/>
	<path d="M49.42,41.85L50.67,42c-0.2,0.73-0.56,1.3-1.1,1.7c-0.53,0.4-1.22,0.61-2.05,0.61c-1.04,0-1.87-0.32-2.49-0.96
		s-0.92-1.55-0.92-2.71c0-1.2,0.31-2.13,0.93-2.8s1.42-1,2.41-1c0.96,0,1.74,0.33,2.34,0.98s0.91,1.57,0.91,2.75
		c0,0.07,0,0.18-0.01,0.32h-5.33c0.04,0.79,0.27,1.39,0.67,1.8c0.4,0.42,0.9,0.63,1.49,0.63c0.44,0,0.82-0.12,1.14-0.35
		C48.99,42.73,49.24,42.36,49.42,41.85z M45.44,39.89h3.99c-0.05-0.6-0.21-1.05-0.46-1.35c-0.39-0.47-0.89-0.7-1.5-0.7
		c-0.56,0-1.02,0.19-1.4,0.56C45.69,38.77,45.48,39.27,45.44,39.89z"/>
	<path d="M60.66,44.15v-0.9c-0.45,0.71-1.12,1.06-2,1.06c-0.57,0-1.09-0.16-1.57-0.47c-0.48-0.31-0.85-0.75-1.11-1.32
		c-0.26-0.56-0.39-1.21-0.39-1.94c0-0.71,0.12-1.36,0.36-1.94c0.24-0.58,0.59-1.03,1.07-1.34s1.01-0.46,1.59-0.46
		c0.43,0,0.81,0.09,1.15,0.27c0.34,0.18,0.61,0.42,0.82,0.71v-3.54h1.2v9.86H60.66z M56.83,40.58c0,0.92,0.19,1.6,0.58,2.05
		s0.84,0.68,1.37,0.68c0.53,0,0.98-0.22,1.35-0.65s0.56-1.09,0.56-1.98c0-0.98-0.19-1.7-0.56-2.15c-0.38-0.46-0.84-0.69-1.39-0.69
		c-0.54,0-0.99,0.22-1.35,0.66C57.01,38.94,56.83,39.64,56.83,40.58z"/>
	<path d="M68.58,41.85L69.83,42c-0.2,0.73-0.56,1.3-1.1,1.7c-0.53,0.4-1.22,0.61-2.05,0.61c-1.04,0-1.87-0.32-2.49-0.96
		s-0.92-1.55-0.92-2.71c0-1.2,0.31-2.13,0.93-2.8s1.42-1,2.41-1c0.96,0,1.74,0.33,2.34,0.98s0.91,1.57,0.91,2.75
		c0,0.07,0,0.18-0.01,0.32h-5.33c0.04,0.79,0.27,1.39,0.67,1.8c0.4,0.42,0.9,0.63,1.49,0.63c0.44,0,0.82-0.12,1.14-0.35
		C68.14,42.73,68.39,42.36,68.58,41.85z M64.6,39.89h3.99c-0.05-0.6-0.21-1.05-0.46-1.35c-0.39-0.47-0.89-0.7-1.5-0.7
		c-0.56,0-1.02,0.19-1.4,0.56C64.85,38.77,64.64,39.27,64.6,39.89z"/>
	<path d="M74.94,39.35c0-1.64,0.44-2.92,1.32-3.85c0.88-0.93,2.01-1.39,3.4-1.39c0.91,0,1.73,0.22,2.46,0.65
		c0.73,0.44,1.29,1.04,1.67,1.82c0.38,0.78,0.58,1.66,0.58,2.65c0,1-0.2,1.9-0.61,2.69c-0.4,0.79-0.98,1.39-1.72,1.79
		c-0.74,0.41-1.54,0.61-2.4,0.61c-0.93,0-1.76-0.22-2.49-0.67c-0.73-0.45-1.29-1.06-1.66-1.84C75.12,41.03,74.94,40.21,74.94,39.35z
		 M76.28,39.36c0,1.19,0.32,2.12,0.96,2.81c0.64,0.68,1.44,1.03,2.41,1.03c0.98,0,1.79-0.35,2.43-1.04
		c0.63-0.69,0.95-1.67,0.95-2.94c0-0.8-0.14-1.5-0.41-2.1c-0.27-0.6-0.67-1.06-1.19-1.39c-0.52-0.33-1.11-0.49-1.76-0.49
		c-0.92,0-1.72,0.32-2.39,0.95C76.61,36.82,76.28,37.88,76.28,39.36z"/>
	<path d="M85.9,46.89V37H87v0.93c0.26-0.36,0.55-0.64,0.88-0.82c0.33-0.18,0.72-0.27,1.19-0.27c0.61,0,1.15,0.16,1.62,0.47
		c0.47,0.31,0.82,0.76,1.06,1.33c0.24,0.57,0.36,1.2,0.36,1.88c0,0.73-0.13,1.39-0.39,1.98c-0.26,0.58-0.64,1.03-1.14,1.35
		c-0.5,0.31-1.03,0.47-1.58,0.47c-0.4,0-0.77-0.08-1.09-0.25c-0.32-0.17-0.58-0.39-0.79-0.65v3.48H85.9z M86.99,40.62
		c0,0.92,0.19,1.6,0.56,2.04c0.37,0.44,0.82,0.66,1.35,0.66c0.54,0,1-0.23,1.38-0.68c0.38-0.46,0.58-1.16,0.58-2.12
		c0-0.91-0.19-1.59-0.56-2.04s-0.82-0.68-1.34-0.68c-0.52,0-0.97,0.24-1.37,0.72C87.19,39,86.99,39.7,86.99,40.62z"/>
	<path d="M98.45,41.85L99.7,42c-0.2,0.73-0.56,1.3-1.1,1.7c-0.53,0.4-1.22,0.61-2.05,0.61c-1.04,0-1.87-0.32-2.49-0.96
		s-0.92-1.55-0.92-2.71c0-1.2,0.31-2.13,0.93-2.8s1.42-1,2.41-1c0.96,0,1.74,0.33,2.34,0.98s0.91,1.57,0.91,2.75
		c0,0.07,0,0.18-0.01,0.32h-5.33c0.04,0.79,0.27,1.39,0.67,1.8c0.4,0.42,0.9,0.63,1.49,0.63c0.44,0,0.82-0.12,1.14-0.35
		C98.02,42.73,98.27,42.36,98.45,41.85z M94.48,39.89h3.99c-0.05-0.6-0.21-1.05-0.46-1.35c-0.39-0.47-0.89-0.7-1.5-0.7
		c-0.56,0-1.02,0.19-1.4,0.56C94.73,38.77,94.52,39.27,94.48,39.89z"/>
	<path d="M101.21,44.15V37h1.09v1.08c0.28-0.51,0.54-0.84,0.77-1c0.24-0.16,0.49-0.24,0.78-0.24c0.41,0,0.82,0.13,1.25,0.39
		l-0.42,1.12c-0.3-0.17-0.59-0.26-0.89-0.26c-0.26,0-0.5,0.08-0.71,0.24s-0.36,0.38-0.45,0.66c-0.13,0.43-0.2,0.9-0.2,1.41v3.74
		H101.21z"/>
	<path d="M110.48,43.27c-0.45,0.38-0.88,0.65-1.3,0.81s-0.86,0.24-1.34,0.24c-0.79,0-1.39-0.19-1.81-0.58
		c-0.42-0.38-0.63-0.87-0.63-1.47c0-0.35,0.08-0.67,0.24-0.96s0.37-0.52,0.63-0.7c0.26-0.17,0.55-0.31,0.87-0.4
		c0.24-0.06,0.6-0.12,1.08-0.18c0.98-0.12,1.7-0.25,2.16-0.42c0-0.17,0.01-0.27,0.01-0.32c0-0.49-0.11-0.84-0.34-1.04
		c-0.31-0.27-0.77-0.41-1.38-0.41c-0.57,0-0.99,0.1-1.26,0.3c-0.27,0.2-0.47,0.55-0.6,1.06l-1.18-0.16
		c0.11-0.51,0.28-0.92,0.53-1.23c0.25-0.31,0.6-0.55,1.07-0.72c0.47-0.17,1.01-0.25,1.62-0.25c0.61,0,1.11,0.07,1.49,0.22
		s0.66,0.32,0.84,0.54c0.18,0.22,0.31,0.49,0.38,0.82c0.04,0.21,0.06,0.58,0.06,1.12v1.62c0,1.13,0.03,1.84,0.08,2.14
		c0.05,0.3,0.15,0.58,0.31,0.86h-1.27C110.59,43.9,110.51,43.6,110.48,43.27z M110.38,40.56c-0.44,0.18-1.1,0.33-1.98,0.46
		c-0.5,0.07-0.85,0.15-1.06,0.24c-0.21,0.09-0.37,0.22-0.48,0.39s-0.17,0.36-0.17,0.58c0,0.32,0.12,0.59,0.37,0.81
		c0.24,0.22,0.6,0.32,1.07,0.32c0.47,0,0.88-0.1,1.25-0.31s0.63-0.48,0.8-0.84c0.13-0.27,0.19-0.68,0.19-1.21V40.56z"/>
	<path d="M118.14,41.53l1.19,0.15c-0.13,0.82-0.46,1.46-1,1.93c-0.54,0.46-1.19,0.7-1.98,0.7c-0.98,0-1.76-0.32-2.36-0.96
		c-0.59-0.64-0.89-1.56-0.89-2.75c0-0.77,0.13-1.45,0.38-2.03c0.26-0.58,0.64-1.01,1.17-1.3c0.52-0.29,1.09-0.43,1.71-0.43
		c0.78,0,1.41,0.2,1.9,0.59c0.49,0.39,0.81,0.95,0.95,1.67l-1.18,0.18c-0.11-0.48-0.31-0.84-0.6-1.08
		c-0.29-0.24-0.63-0.36-1.03-0.36c-0.61,0-1.11,0.22-1.49,0.66s-0.57,1.13-0.57,2.08c0,0.96,0.18,1.66,0.55,2.09
		c0.37,0.44,0.85,0.65,1.44,0.65c0.48,0,0.87-0.15,1.19-0.44C117.85,42.59,118.05,42.14,118.14,41.53z"/>
	<path d="M120.37,35.68v-1.39h1.21v1.39H120.37z M120.37,44.15V37h1.21v7.15H120.37z"/>
	<path d="M122.98,40.58c0-1.32,0.37-2.3,1.1-2.94c0.61-0.53,1.36-0.79,2.25-0.79c0.98,0,1.79,0.32,2.41,0.97s0.94,1.53,0.94,2.67
		c0,0.92-0.14,1.64-0.41,2.17s-0.68,0.94-1.2,1.23c-0.53,0.29-1.1,0.44-1.73,0.44c-1,0-1.81-0.32-2.43-0.96
		S122.98,41.78,122.98,40.58z M124.22,40.58c0,0.92,0.2,1.6,0.6,2.06c0.4,0.46,0.9,0.68,1.51,0.68c0.6,0,1.1-0.23,1.5-0.69
		c0.4-0.46,0.6-1.16,0.6-2.09c0-0.88-0.2-1.55-0.6-2.01c-0.4-0.46-0.9-0.68-1.5-0.68c-0.61,0-1.11,0.23-1.51,0.68
		C124.42,38.98,124.22,39.66,124.22,40.58z"/>
	<path d="M131.09,44.15V37h1.09v1.02c0.52-0.79,1.28-1.18,2.27-1.18c0.43,0,0.83,0.08,1.19,0.23c0.36,0.16,0.63,0.36,0.81,0.61
		c0.18,0.25,0.31,0.55,0.38,0.89c0.04,0.22,0.07,0.62,0.07,1.18v4.39h-1.21V39.8c0-0.49-0.05-0.86-0.14-1.11
		c-0.09-0.25-0.26-0.44-0.5-0.59c-0.24-0.15-0.52-0.22-0.84-0.22c-0.52,0-0.96,0.16-1.34,0.49c-0.37,0.33-0.56,0.95-0.56,1.86v3.9
		H131.09z"/>
	<path d="M143.65,41.85L144.9,42c-0.2,0.73-0.56,1.3-1.1,1.7c-0.53,0.4-1.22,0.61-2.05,0.61c-1.04,0-1.87-0.32-2.49-0.96
		s-0.92-1.55-0.92-2.71c0-1.2,0.31-2.13,0.93-2.8s1.42-1,2.41-1c0.96,0,1.74,0.33,2.34,0.98s0.91,1.57,0.91,2.75
		c0,0.07,0,0.18-0.01,0.32h-5.33c0.04,0.79,0.27,1.39,0.67,1.8c0.4,0.42,0.9,0.63,1.49,0.63c0.44,0,0.82-0.12,1.14-0.35
		C143.21,42.73,143.46,42.36,143.65,41.85z M139.67,39.89h3.99c-0.05-0.6-0.21-1.05-0.46-1.35c-0.39-0.47-0.89-0.7-1.5-0.7
		c-0.56,0-1.02,0.19-1.4,0.56C139.92,38.77,139.71,39.27,139.67,39.89z"/>
	<path d="M145.94,42.02l1.2-0.19c0.07,0.48,0.25,0.85,0.56,1.1c0.31,0.26,0.74,0.38,1.29,0.38c0.56,0,0.97-0.11,1.24-0.34
		s0.4-0.49,0.4-0.8c0-0.27-0.12-0.49-0.36-0.65c-0.17-0.11-0.58-0.25-1.24-0.41c-0.89-0.22-1.5-0.42-1.85-0.58
		c-0.34-0.16-0.6-0.39-0.78-0.68c-0.18-0.29-0.27-0.61-0.27-0.96c0-0.32,0.07-0.61,0.22-0.88c0.15-0.27,0.34-0.5,0.6-0.68
		c0.19-0.14,0.45-0.26,0.77-0.35c0.33-0.1,0.67-0.15,1.05-0.15c0.56,0,1.05,0.08,1.48,0.24c0.42,0.16,0.74,0.38,0.94,0.66
		c0.2,0.28,0.34,0.65,0.42,1.11l-1.18,0.16c-0.05-0.37-0.21-0.66-0.47-0.86s-0.62-0.31-1.09-0.31c-0.56,0-0.95,0.09-1.19,0.28
		c-0.24,0.18-0.36,0.4-0.36,0.65c0,0.16,0.05,0.3,0.15,0.42c0.1,0.13,0.25,0.24,0.46,0.32c0.12,0.04,0.48,0.15,1.07,0.31
		c0.86,0.23,1.45,0.42,1.79,0.56c0.34,0.15,0.6,0.36,0.8,0.64c0.19,0.28,0.29,0.62,0.29,1.04c0,0.4-0.12,0.78-0.35,1.14
		c-0.24,0.36-0.58,0.63-1.02,0.83c-0.44,0.19-0.95,0.29-1.51,0.29c-0.93,0-1.64-0.19-2.12-0.58
		C146.38,43.35,146.07,42.77,145.94,42.02z"/>
</g>
<g>
	<path d="M2.31,61.33c0-1.64,0.44-2.92,1.32-3.85c0.88-0.93,2.01-1.39,3.4-1.39c0.91,0,1.73,0.22,2.46,0.65
		c0.73,0.44,1.29,1.04,1.67,1.82c0.38,0.78,0.58,1.66,0.58,2.65c0,1-0.2,1.9-0.61,2.69c-0.4,0.79-0.98,1.39-1.72,1.79
		c-0.74,0.41-1.54,0.61-2.4,0.61c-0.93,0-1.76-0.22-2.49-0.67c-0.73-0.45-1.29-1.06-1.66-1.84C2.5,63.01,2.31,62.19,2.31,61.33z
		 M3.66,61.35c0,1.19,0.32,2.12,0.96,2.81c0.64,0.68,1.44,1.03,2.41,1.03c0.98,0,1.79-0.35,2.43-1.04c0.63-0.69,0.95-1.67,0.95-2.94
		c0-0.8-0.14-1.5-0.41-2.1c-0.27-0.6-0.67-1.06-1.19-1.39c-0.52-0.33-1.11-0.49-1.76-0.49c-0.92,0-1.72,0.32-2.39,0.95
		C3.99,58.8,3.66,59.86,3.66,61.35z"/>
	<path d="M13.27,68.87v-9.88h1.1v0.93c0.26-0.36,0.55-0.64,0.88-0.82c0.33-0.18,0.72-0.27,1.19-0.27c0.61,0,1.15,0.16,1.62,0.47
		c0.47,0.31,0.82,0.76,1.06,1.33c0.24,0.57,0.36,1.2,0.36,1.88c0,0.73-0.13,1.39-0.39,1.98c-0.26,0.58-0.64,1.03-1.14,1.35
		c-0.5,0.31-1.03,0.47-1.58,0.47c-0.4,0-0.77-0.08-1.09-0.25c-0.32-0.17-0.58-0.39-0.79-0.65v3.48H13.27z M14.37,62.6
		c0,0.92,0.19,1.6,0.56,2.04c0.37,0.44,0.82,0.66,1.35,0.66c0.54,0,1-0.23,1.38-0.68c0.38-0.46,0.58-1.16,0.58-2.12
		c0-0.91-0.19-1.59-0.56-2.04s-0.82-0.68-1.34-0.68c-0.52,0-0.97,0.24-1.37,0.72C14.57,60.98,14.37,61.68,14.37,62.6z"/>
	<path d="M25.83,63.83l1.25,0.15c-0.2,0.73-0.56,1.3-1.1,1.7c-0.53,0.4-1.22,0.61-2.05,0.61c-1.04,0-1.87-0.32-2.49-0.96
		s-0.92-1.55-0.92-2.71c0-1.2,0.31-2.13,0.93-2.8s1.42-1,2.41-1c0.96,0,1.74,0.33,2.34,0.98s0.91,1.57,0.91,2.75
		c0,0.07,0,0.18-0.01,0.32h-5.33c0.04,0.79,0.27,1.39,0.67,1.8c0.4,0.42,0.9,0.63,1.49,0.63c0.44,0,0.82-0.12,1.14-0.35
		C25.39,64.72,25.64,64.34,25.83,63.83z M21.85,61.87h3.99c-0.05-0.6-0.21-1.05-0.46-1.35c-0.39-0.47-0.89-0.7-1.5-0.7
		c-0.56,0-1.02,0.19-1.4,0.56C22.1,60.75,21.89,61.25,21.85,61.87z"/>
	<path d="M28.58,66.13v-7.15h1.09v1.08c0.28-0.51,0.54-0.84,0.77-1c0.24-0.16,0.49-0.24,0.78-0.24c0.41,0,0.82,0.13,1.25,0.39
		l-0.42,1.12c-0.3-0.17-0.59-0.26-0.89-0.26c-0.26,0-0.5,0.08-0.71,0.24S30.09,60.7,30,60.98c-0.13,0.43-0.2,0.9-0.2,1.41v3.74
		H28.58z"/>
	<path d="M37.85,65.25c-0.45,0.38-0.88,0.65-1.3,0.81s-0.86,0.24-1.34,0.24c-0.79,0-1.39-0.19-1.81-0.58
		c-0.42-0.38-0.63-0.87-0.63-1.47c0-0.35,0.08-0.67,0.24-0.96s0.37-0.52,0.63-0.7c0.26-0.17,0.55-0.31,0.87-0.4
		c0.24-0.06,0.6-0.12,1.08-0.18c0.98-0.12,1.7-0.25,2.16-0.42c0-0.17,0.01-0.27,0.01-0.32c0-0.49-0.11-0.84-0.34-1.04
		c-0.31-0.27-0.77-0.41-1.38-0.41c-0.57,0-0.99,0.1-1.26,0.3c-0.27,0.2-0.47,0.55-0.6,1.06l-1.18-0.16
		c0.11-0.51,0.28-0.92,0.53-1.23c0.25-0.31,0.6-0.55,1.07-0.72c0.47-0.17,1.01-0.25,1.62-0.25c0.61,0,1.11,0.07,1.49,0.22
		s0.66,0.32,0.84,0.54c0.18,0.22,0.31,0.49,0.38,0.82c0.04,0.21,0.06,0.58,0.06,1.12v1.62c0,1.13,0.03,1.84,0.08,2.14
		c0.05,0.3,0.15,0.58,0.31,0.86h-1.27C37.97,65.88,37.89,65.59,37.85,65.25z M37.75,62.55c-0.44,0.18-1.1,0.33-1.98,0.46
		c-0.5,0.07-0.85,0.15-1.06,0.24c-0.21,0.09-0.37,0.22-0.48,0.39s-0.17,0.36-0.17,0.58c0,0.32,0.12,0.59,0.37,0.81
		c0.24,0.22,0.6,0.32,1.07,0.32c0.47,0,0.88-0.1,1.25-0.31s0.63-0.48,0.8-0.84c0.13-0.27,0.19-0.68,0.19-1.21V62.55z"/>
	<path d="M45.51,63.51l1.19,0.15c-0.13,0.82-0.46,1.46-1,1.93c-0.54,0.46-1.19,0.7-1.98,0.7c-0.98,0-1.76-0.32-2.36-0.96
		c-0.59-0.64-0.89-1.56-0.89-2.75c0-0.77,0.13-1.45,0.38-2.03c0.26-0.58,0.64-1.01,1.17-1.3c0.52-0.29,1.09-0.43,1.71-0.43
		c0.78,0,1.41,0.2,1.9,0.59c0.49,0.39,0.81,0.95,0.95,1.67l-1.18,0.18c-0.11-0.48-0.31-0.84-0.6-1.08
		c-0.29-0.24-0.63-0.36-1.03-0.36c-0.61,0-1.11,0.22-1.49,0.66s-0.57,1.13-0.57,2.08c0,0.96,0.18,1.66,0.55,2.09
		c0.37,0.44,0.85,0.65,1.44,0.65c0.48,0,0.87-0.15,1.19-0.44C45.23,64.57,45.43,64.12,45.51,63.51z"/>
	<path d="M47.75,57.66v-1.39h1.21v1.39H47.75z M47.75,66.13v-7.15h1.21v7.15H47.75z"/>
	<path d="M50.35,62.56c0-1.32,0.37-2.3,1.1-2.94c0.61-0.53,1.36-0.79,2.25-0.79c0.98,0,1.79,0.32,2.41,0.97s0.94,1.53,0.94,2.67
		c0,0.92-0.14,1.64-0.41,2.17s-0.68,0.94-1.2,1.23c-0.53,0.29-1.1,0.44-1.73,0.44c-1,0-1.81-0.32-2.43-0.96S50.35,63.77,50.35,62.56
		z M51.6,62.56c0,0.92,0.2,1.6,0.6,2.06c0.4,0.46,0.9,0.68,1.51,0.68c0.6,0,1.1-0.23,1.5-0.69c0.4-0.46,0.6-1.16,0.6-2.09
		c0-0.88-0.2-1.55-0.6-2.01c-0.4-0.46-0.9-0.68-1.5-0.68c-0.61,0-1.11,0.23-1.51,0.68C51.8,60.96,51.6,61.64,51.6,62.56z"/>
	<path d="M58.47,66.13v-7.15h1.09V60c0.52-0.79,1.28-1.18,2.27-1.18c0.43,0,0.83,0.08,1.19,0.23c0.36,0.16,0.63,0.36,0.81,0.61
		c0.18,0.25,0.31,0.55,0.38,0.89c0.04,0.22,0.07,0.62,0.07,1.18v4.39h-1.21v-4.35c0-0.49-0.05-0.86-0.14-1.11
		c-0.09-0.25-0.26-0.44-0.5-0.59c-0.24-0.15-0.52-0.22-0.84-0.22c-0.52,0-0.96,0.16-1.34,0.49c-0.37,0.33-0.56,0.95-0.56,1.86v3.9
		H58.47z"/>
	<path d="M71.02,63.83l1.25,0.15c-0.2,0.73-0.56,1.3-1.1,1.7c-0.53,0.4-1.22,0.61-2.05,0.61c-1.04,0-1.87-0.32-2.49-0.96
		s-0.92-1.55-0.92-2.71c0-1.2,0.31-2.13,0.93-2.8s1.42-1,2.41-1c0.96,0,1.74,0.33,2.34,0.98s0.91,1.57,0.91,2.75
		c0,0.07,0,0.18-0.01,0.32h-5.33c0.04,0.79,0.27,1.39,0.67,1.8c0.4,0.42,0.9,0.63,1.49,0.63c0.44,0,0.82-0.12,1.14-0.35
		C70.59,64.72,70.84,64.34,71.02,63.83z M67.04,61.87h3.99c-0.05-0.6-0.21-1.05-0.46-1.35c-0.39-0.47-0.89-0.7-1.5-0.7
		c-0.56,0-1.02,0.19-1.4,0.56C67.29,60.75,67.08,61.25,67.04,61.87z"/>
	<path d="M73.31,64l1.2-0.19c0.07,0.48,0.25,0.85,0.56,1.1c0.31,0.26,0.74,0.38,1.29,0.38c0.56,0,0.97-0.11,1.24-0.34
		s0.4-0.49,0.4-0.8c0-0.27-0.12-0.49-0.36-0.65c-0.17-0.11-0.58-0.25-1.24-0.41c-0.89-0.22-1.5-0.42-1.85-0.58
		c-0.34-0.16-0.6-0.39-0.78-0.68c-0.18-0.29-0.27-0.61-0.27-0.96c0-0.32,0.07-0.61,0.22-0.88c0.15-0.27,0.34-0.5,0.6-0.68
		c0.19-0.14,0.45-0.26,0.77-0.35c0.33-0.1,0.67-0.15,1.05-0.15c0.56,0,1.05,0.08,1.48,0.24c0.42,0.16,0.74,0.38,0.94,0.66
		c0.2,0.28,0.34,0.65,0.42,1.11l-1.18,0.16c-0.05-0.37-0.21-0.66-0.47-0.86s-0.62-0.31-1.09-0.31c-0.56,0-0.95,0.09-1.19,0.28
		c-0.24,0.18-0.36,0.4-0.36,0.65c0,0.16,0.05,0.3,0.15,0.42c0.1,0.13,0.25,0.24,0.46,0.32c0.12,0.04,0.48,0.15,1.07,0.31
		c0.86,0.23,1.45,0.42,1.79,0.56c0.34,0.15,0.6,0.36,0.8,0.64c0.19,0.28,0.29,0.62,0.29,1.04c0,0.4-0.12,0.78-0.35,1.14
		c-0.24,0.36-0.58,0.63-1.02,0.83c-0.44,0.19-0.95,0.29-1.51,0.29c-0.93,0-1.64-0.19-2.12-0.58C73.75,65.33,73.44,64.76,73.31,64z"
		/>
	<path d="M84.87,69.03V56.1h1.06v12.93H84.87z"/>
	<path d="M96.69,62.26v-1.16l4.18-0.01v3.66c-0.64,0.51-1.3,0.9-1.98,1.15c-0.68,0.26-1.38,0.39-2.1,0.39
		c-0.97,0-1.85-0.21-2.64-0.62c-0.79-0.42-1.39-1.01-1.79-1.8s-0.61-1.66-0.61-2.63c0-0.96,0.2-1.86,0.6-2.69s0.98-1.45,1.73-1.85
		c0.75-0.4,1.62-0.61,2.6-0.61c0.71,0,1.36,0.12,1.93,0.35c0.58,0.23,1.03,0.55,1.36,0.97c0.33,0.41,0.58,0.95,0.75,1.61l-1.18,0.32
		c-0.15-0.5-0.33-0.9-0.55-1.18s-0.53-0.52-0.94-0.69s-0.86-0.26-1.36-0.26c-0.6,0-1.11,0.09-1.55,0.27s-0.79,0.42-1.05,0.72
		c-0.27,0.3-0.47,0.62-0.62,0.98c-0.25,0.61-0.38,1.27-0.38,1.98c0,0.88,0.15,1.62,0.45,2.21s0.74,1.03,1.32,1.32
		s1.19,0.43,1.84,0.43c0.56,0,1.12-0.11,1.66-0.33c0.54-0.22,0.95-0.45,1.22-0.7v-1.84H96.69z"/>
	<path d="M101.71,66.13l3.79-9.86h1.41l4.04,9.86h-1.49l-1.15-2.99h-4.12l-1.08,2.99H101.71z M104.56,62.08h3.34l-1.03-2.73
		c-0.31-0.83-0.55-1.51-0.7-2.05c-0.13,0.63-0.3,1.26-0.53,1.88L104.56,62.08z"/>
	<path d="M111.93,66.13v-9.86h3.7c0.75,0,1.36,0.1,1.81,0.3c0.46,0.2,0.81,0.51,1.07,0.92c0.26,0.42,0.39,0.85,0.39,1.3
		c0,0.42-0.11,0.82-0.34,1.19c-0.23,0.37-0.57,0.67-1.04,0.9c0.6,0.17,1.06,0.47,1.38,0.89s0.48,0.92,0.48,1.49
		c0,0.46-0.1,0.89-0.29,1.29c-0.2,0.4-0.44,0.7-0.72,0.92c-0.29,0.21-0.65,0.38-1.08,0.49c-0.43,0.11-0.96,0.17-1.59,0.17H111.93z
		 M113.24,60.41h2.13c0.58,0,0.99-0.04,1.24-0.12c0.33-0.1,0.58-0.26,0.75-0.49c0.17-0.23,0.25-0.52,0.25-0.86
		c0-0.33-0.08-0.62-0.24-0.86c-0.16-0.25-0.38-0.42-0.67-0.51c-0.29-0.09-0.79-0.14-1.5-0.14h-1.97V60.41z M113.24,64.97h2.46
		c0.42,0,0.72-0.02,0.89-0.05c0.3-0.05,0.55-0.14,0.75-0.27c0.2-0.12,0.37-0.31,0.5-0.55c0.13-0.24,0.2-0.52,0.2-0.83
		c0-0.37-0.09-0.69-0.28-0.96s-0.45-0.46-0.78-0.57c-0.33-0.11-0.82-0.17-1.44-0.17h-2.28V64.97z"/>
	<path d="M120.09,66.13l3.79-9.86h1.41l4.04,9.86h-1.49l-1.15-2.99h-4.12l-1.08,2.99H120.09z M122.94,62.08h3.34l-1.03-2.73
		c-0.31-0.83-0.55-1.51-0.7-2.05c-0.13,0.63-0.3,1.26-0.53,1.88L122.94,62.08z"/>
	<path d="M130.39,66.13v-9.86h4.37c0.88,0,1.55,0.09,2,0.27c0.46,0.18,0.82,0.49,1.1,0.94c0.27,0.45,0.41,0.94,0.41,1.49
		c0,0.7-0.23,1.29-0.68,1.77c-0.45,0.48-1.15,0.79-2.1,0.92c0.35,0.17,0.61,0.33,0.79,0.49c0.38,0.35,0.74,0.79,1.08,1.31l1.72,2.68
		h-1.64l-1.31-2.05c-0.38-0.59-0.7-1.05-0.94-1.36c-0.25-0.31-0.47-0.53-0.66-0.66c-0.19-0.13-0.39-0.21-0.6-0.26
		c-0.15-0.03-0.39-0.05-0.73-0.05h-1.51v4.38H130.39z M131.69,60.62h2.81c0.6,0,1.06-0.06,1.4-0.18c0.34-0.12,0.59-0.32,0.77-0.59
		c0.18-0.27,0.26-0.57,0.26-0.88c0-0.47-0.17-0.85-0.51-1.15c-0.34-0.3-0.87-0.45-1.6-0.45h-3.12V60.62z"/>
</g>
<g>
	<path d="M1.85,22.46V10.3h2.46v12.17H1.85z"/>
	<path d="M14.65,22.46h-2.33v-4.5c0-0.95-0.05-1.57-0.15-1.85c-0.1-0.28-0.26-0.5-0.49-0.65c-0.22-0.15-0.49-0.23-0.81-0.23
		c-0.4,0-0.77,0.11-1.09,0.33s-0.54,0.51-0.66,0.88c-0.12,0.37-0.18,1.04-0.18,2.03v3.99H6.62v-8.82h2.17v1.29
		c0.77-1,1.74-1.49,2.91-1.49c0.51,0,0.98,0.09,1.41,0.28c0.43,0.19,0.75,0.42,0.97,0.71c0.22,0.29,0.37,0.61,0.46,0.98
		c0.09,0.37,0.13,0.89,0.13,1.57V22.46z"/>
	<path d="M16.8,23.05l2.66,0.32c0.04,0.31,0.15,0.52,0.31,0.64c0.22,0.17,0.57,0.25,1.05,0.25c0.61,0,1.07-0.09,1.37-0.27
		c0.2-0.12,0.36-0.32,0.46-0.59c0.07-0.19,0.11-0.55,0.11-1.07v-1.29c-0.7,0.95-1.58,1.43-2.64,1.43c-1.18,0-2.12-0.5-2.81-1.5
		c-0.54-0.79-0.81-1.78-0.81-2.96c0-1.48,0.36-2.61,1.07-3.39c0.71-0.78,1.6-1.17,2.65-1.17c1.09,0,1.99,0.48,2.7,1.44v-1.24h2.18
		v7.91c0,1.04-0.09,1.82-0.26,2.33s-0.41,0.92-0.72,1.21s-0.72,0.52-1.24,0.69c-0.52,0.17-1.17,0.25-1.96,0.25
		c-1.49,0-2.55-0.26-3.18-0.77c-0.63-0.51-0.94-1.16-0.94-1.95C16.79,23.25,16.8,23.16,16.8,23.05z M18.89,17.87
		c0,0.94,0.18,1.62,0.54,2.05c0.36,0.43,0.81,0.65,1.34,0.65c0.57,0,1.05-0.22,1.44-0.67c0.39-0.45,0.59-1.1,0.59-1.98
		c0-0.91-0.19-1.59-0.56-2.03s-0.85-0.66-1.43-0.66c-0.56,0-1.02,0.22-1.38,0.65C19.07,16.32,18.89,16.98,18.89,17.87z"/>
	<path d="M27.4,22.46v-2.33h2.33v2.33H27.4z"/>
	<path d="M36.86,10.3h4.49c1.01,0,1.78,0.08,2.32,0.23c0.71,0.21,1.33,0.58,1.83,1.12s0.9,1.19,1.16,1.97
		c0.27,0.78,0.4,1.74,0.4,2.88c0,1-0.12,1.86-0.37,2.59c-0.3,0.89-0.74,1.6-1.3,2.15c-0.43,0.42-1,0.74-1.73,0.97
		c-0.54,0.17-1.27,0.26-2.17,0.26h-4.62V10.3z M39.31,12.35v8.06h1.83c0.69,0,1.18-0.04,1.49-0.12c0.4-0.1,0.73-0.27,0.99-0.51
		c0.26-0.24,0.48-0.63,0.64-1.17c0.17-0.54,0.25-1.29,0.25-2.23s-0.08-1.66-0.25-2.17s-0.4-0.9-0.7-1.18s-0.68-0.47-1.14-0.57
		c-0.34-0.08-1.02-0.12-2.02-0.12H39.31z"/>
	<path d="M50.87,16.34l-2.12-0.38c0.24-0.85,0.65-1.48,1.23-1.89s1.44-0.61,2.59-0.61c1.04,0,1.81,0.12,2.32,0.37
		c0.51,0.25,0.87,0.56,1.08,0.94c0.21,0.38,0.31,1.07,0.31,2.09l-0.02,2.72c0,0.77,0.04,1.35,0.11,1.71
		c0.07,0.37,0.21,0.76,0.42,1.18h-2.31c-0.06-0.15-0.14-0.38-0.22-0.69c-0.04-0.14-0.07-0.23-0.08-0.27
		c-0.4,0.39-0.82,0.68-1.28,0.87s-0.94,0.29-1.45,0.29c-0.91,0-1.62-0.25-2.15-0.74c-0.52-0.49-0.78-1.12-0.78-1.87
		c0-0.5,0.12-0.94,0.36-1.33c0.24-0.39,0.57-0.69,1-0.9c0.43-0.21,1.05-0.39,1.86-0.54c1.09-0.2,1.85-0.4,2.27-0.57v-0.23
		c0-0.45-0.11-0.77-0.33-0.96c-0.22-0.19-0.64-0.29-1.25-0.29c-0.42,0-0.74,0.08-0.97,0.24C51.2,15.64,51.01,15.93,50.87,16.34z
		 M53.99,18.23c-0.3,0.1-0.77,0.22-1.42,0.36s-1.07,0.27-1.27,0.41c-0.3,0.22-0.46,0.49-0.46,0.82c0,0.33,0.12,0.61,0.37,0.85
		s0.55,0.36,0.93,0.36c0.42,0,0.82-0.14,1.2-0.42c0.28-0.21,0.47-0.47,0.56-0.77c0.06-0.2,0.09-0.58,0.09-1.14V18.23z"/>
	<path d="M66.6,22.46h-2.33v-4.5c0-0.95-0.05-1.57-0.15-1.85c-0.1-0.28-0.26-0.5-0.49-0.65c-0.22-0.15-0.49-0.23-0.81-0.23
		c-0.4,0-0.77,0.11-1.09,0.33s-0.54,0.51-0.66,0.88c-0.12,0.37-0.18,1.04-0.18,2.03v3.99h-2.33v-8.82h2.17v1.29
		c0.77-1,1.74-1.49,2.91-1.49c0.51,0,0.98,0.09,1.41,0.28c0.43,0.19,0.75,0.42,0.97,0.71c0.22,0.29,0.37,0.61,0.46,0.98
		c0.09,0.37,0.13,0.89,0.13,1.57V22.46z"/>
	<path d="M68.97,12.45V10.3h2.33v2.16H68.97z M68.97,22.46v-8.82h2.33v8.82H68.97z"/>
	<path d="M78.79,19.66l2.32,0.39c-0.3,0.85-0.77,1.5-1.42,1.95c-0.65,0.45-1.45,0.67-2.42,0.67c-1.53,0-2.67-0.5-3.4-1.5
		c-0.58-0.8-0.87-1.81-0.87-3.04c0-1.46,0.38-2.6,1.15-3.43c0.76-0.83,1.73-1.24,2.9-1.24c1.31,0,2.35,0.43,3.1,1.3
		c0.76,0.87,1.12,2.19,1.09,3.98H75.4c0.02,0.69,0.2,1.23,0.56,1.61c0.36,0.38,0.81,0.58,1.34,0.58c0.37,0,0.67-0.1,0.92-0.3
		S78.67,20.1,78.79,19.66z M78.93,17.3c-0.02-0.68-0.19-1.19-0.52-1.54c-0.33-0.35-0.74-0.53-1.21-0.53c-0.51,0-0.93,0.19-1.26,0.56
		s-0.5,0.87-0.49,1.51H78.93z"/>
	<path d="M83.14,22.46V10.3h2.33v12.17H83.14z"/>
	<path d="M97,10.3h2.45V18c0,1.01-0.09,1.78-0.27,2.32c-0.24,0.71-0.67,1.28-1.29,1.71c-0.63,0.43-1.45,0.64-2.47,0.64
		c-1.2,0-2.12-0.34-2.77-1.01c-0.65-0.67-0.97-1.66-0.98-2.96l2.32-0.27c0.03,0.7,0.13,1.19,0.31,1.48
		c0.27,0.44,0.67,0.66,1.21,0.66c0.55,0,0.94-0.16,1.16-0.47c0.23-0.31,0.34-0.96,0.34-1.95V10.3z"/>
	<path d="M107.15,19.66l2.32,0.39c-0.3,0.85-0.77,1.5-1.42,1.95c-0.65,0.45-1.45,0.67-2.42,0.67c-1.53,0-2.67-0.5-3.4-1.5
		c-0.58-0.8-0.87-1.81-0.87-3.04c0-1.46,0.38-2.6,1.15-3.43c0.76-0.83,1.73-1.24,2.9-1.24c1.31,0,2.35,0.43,3.1,1.3
		c0.76,0.87,1.12,2.19,1.09,3.98h-5.84c0.02,0.69,0.2,1.23,0.56,1.61c0.36,0.38,0.81,0.58,1.34,0.58c0.37,0,0.67-0.1,0.92-0.3
		S107.02,20.1,107.15,19.66z M107.28,17.3c-0.02-0.68-0.19-1.19-0.52-1.54c-0.33-0.35-0.74-0.53-1.21-0.53
		c-0.51,0-0.93,0.19-1.26,0.56s-0.5,0.87-0.49,1.51H107.28z"/>
	<path d="M110.68,19.95l2.34-0.36c0.1,0.45,0.3,0.8,0.61,1.03c0.3,0.24,0.73,0.35,1.28,0.35c0.6,0,1.06-0.11,1.36-0.33
		c0.2-0.15,0.31-0.36,0.31-0.62c0-0.18-0.06-0.32-0.17-0.44c-0.12-0.11-0.38-0.21-0.78-0.31c-1.88-0.42-3.07-0.79-3.58-1.14
		c-0.7-0.48-1.05-1.14-1.05-1.98c0-0.76,0.3-1.41,0.9-1.93s1.54-0.78,2.81-0.78c1.21,0,2.1,0.2,2.69,0.59s0.99,0.97,1.21,1.74
		l-2.2,0.41c-0.09-0.34-0.27-0.61-0.54-0.79c-0.26-0.18-0.64-0.27-1.12-0.27c-0.61,0-1.05,0.09-1.32,0.26
		c-0.18,0.12-0.27,0.28-0.27,0.47c0,0.17,0.08,0.31,0.23,0.42c0.21,0.15,0.94,0.37,2.18,0.66c1.24,0.28,2.11,0.63,2.6,1.04
		c0.49,0.42,0.73,0.99,0.73,1.73c0,0.81-0.34,1.5-1.01,2.08s-1.67,0.87-3,0.87c-1.2,0-2.15-0.24-2.85-0.73
		C111.35,21.45,110.89,20.78,110.68,19.95z"/>
	<path d="M126.76,22.46v-1.32c-0.32,0.47-0.74,0.84-1.27,1.11c-0.52,0.27-1.08,0.41-1.66,0.41c-0.59,0-1.12-0.13-1.59-0.39
		s-0.81-0.63-1.02-1.1s-0.32-1.12-0.32-1.95v-5.58h2.33v4.05c0,1.24,0.04,2,0.13,2.28c0.09,0.28,0.24,0.5,0.47,0.66
		c0.23,0.16,0.51,0.25,0.86,0.25c0.4,0,0.76-0.11,1.07-0.33c0.32-0.22,0.53-0.49,0.65-0.81c0.12-0.32,0.17-1.12,0.17-2.38v-3.72
		h2.33v8.82H126.76z M123.73,12.57l1.15-2.48h2.61l-2.28,2.48H123.73z"/>
	<path d="M130.52,19.95l2.34-0.36c0.1,0.45,0.3,0.8,0.61,1.03c0.3,0.24,0.73,0.35,1.28,0.35c0.6,0,1.06-0.11,1.36-0.33
		c0.2-0.15,0.31-0.36,0.31-0.62c0-0.18-0.06-0.32-0.17-0.44c-0.12-0.11-0.38-0.21-0.78-0.31c-1.88-0.42-3.07-0.79-3.58-1.14
		c-0.7-0.48-1.05-1.14-1.05-1.98c0-0.76,0.3-1.41,0.9-1.93s1.54-0.78,2.81-0.78c1.21,0,2.1,0.2,2.69,0.59s0.99,0.97,1.21,1.74
		l-2.2,0.41c-0.09-0.34-0.27-0.61-0.54-0.79c-0.26-0.18-0.64-0.27-1.12-0.27c-0.61,0-1.05,0.09-1.32,0.26
		c-0.18,0.12-0.27,0.28-0.27,0.47c0,0.17,0.08,0.31,0.23,0.42c0.21,0.15,0.94,0.37,2.18,0.66c1.24,0.28,2.11,0.63,2.6,1.04
		c0.49,0.42,0.73,0.99,0.73,1.73c0,0.81-0.34,1.5-1.01,2.08s-1.67,0.87-3,0.87c-1.2,0-2.15-0.24-2.85-0.73
		C131.19,21.45,130.73,20.78,130.52,19.95z"/>
	<path d="M148.27,22.46V12.35h-3.61V10.3h9.67v2.06h-3.6v10.11H148.27z"/>
	<path d="M154.1,17.93c0-0.77,0.19-1.52,0.57-2.25s0.92-1.28,1.62-1.66c0.7-0.38,1.48-0.57,2.35-0.57c1.33,0,2.43,0.43,3.28,1.3
		c0.85,0.87,1.28,1.96,1.28,3.28c0,1.33-0.43,2.44-1.29,3.32c-0.86,0.88-1.94,1.32-3.25,1.32c-0.81,0-1.58-0.18-2.31-0.55
		c-0.73-0.37-1.29-0.9-1.67-1.61C154.29,19.8,154.1,18.95,154.1,17.93z M156.49,18.06c0,0.87,0.21,1.54,0.62,2.01s0.93,0.7,1.54,0.7
		s1.12-0.23,1.53-0.7c0.41-0.46,0.62-1.14,0.62-2.03c0-0.86-0.21-1.53-0.62-1.99c-0.41-0.46-0.92-0.7-1.53-0.7s-1.12,0.23-1.54,0.7
		S156.49,17.18,156.49,18.06z"/>
	<path d="M167.25,22.46h-2.33v-8.82h2.17v1.25c0.37-0.59,0.7-0.98,1-1.17c0.3-0.19,0.63-0.28,1.01-0.28c0.53,0,1.04,0.15,1.54,0.44
		l-0.72,2.03c-0.39-0.25-0.76-0.38-1.1-0.38c-0.33,0-0.6,0.09-0.83,0.27c-0.23,0.18-0.41,0.51-0.54,0.98
		c-0.13,0.47-0.2,1.46-0.2,2.96V22.46z"/>
	<path d="M173.87,22.46h-2.33v-8.82h2.17v1.25c0.37-0.59,0.7-0.98,1-1.17c0.3-0.19,0.63-0.28,1.01-0.28c0.53,0,1.04,0.15,1.54,0.44
		l-0.72,2.03c-0.39-0.25-0.76-0.38-1.1-0.38c-0.33,0-0.6,0.09-0.83,0.27c-0.23,0.18-0.41,0.51-0.54,0.98
		c-0.13,0.47-0.2,1.46-0.2,2.96V22.46z"/>
	<path d="M183.36,19.66l2.32,0.39c-0.3,0.85-0.77,1.5-1.42,1.95c-0.65,0.45-1.45,0.67-2.42,0.67c-1.53,0-2.67-0.5-3.4-1.5
		c-0.58-0.8-0.87-1.81-0.87-3.04c0-1.46,0.38-2.6,1.15-3.43c0.76-0.83,1.73-1.24,2.9-1.24c1.31,0,2.35,0.43,3.1,1.3
		c0.76,0.87,1.12,2.19,1.09,3.98h-5.84c0.02,0.69,0.2,1.23,0.56,1.61c0.36,0.38,0.81,0.58,1.34,0.58c0.37,0,0.67-0.1,0.92-0.3
		S183.23,20.1,183.36,19.66z M183.49,17.3c-0.02-0.68-0.19-1.19-0.52-1.54c-0.33-0.35-0.74-0.53-1.21-0.53
		c-0.51,0-0.93,0.19-1.26,0.56S180,16.67,180,17.3H183.49z"/>
	<path d="M186.89,19.95l2.34-0.36c0.1,0.45,0.3,0.8,0.61,1.03c0.3,0.24,0.73,0.35,1.28,0.35c0.6,0,1.06-0.11,1.36-0.33
		c0.21-0.15,0.31-0.36,0.31-0.62c0-0.18-0.05-0.32-0.17-0.44c-0.12-0.11-0.38-0.21-0.78-0.31c-1.88-0.42-3.07-0.79-3.58-1.14
		c-0.7-0.48-1.05-1.14-1.05-1.98c0-0.76,0.3-1.41,0.9-1.93s1.54-0.78,2.81-0.78c1.21,0,2.1,0.2,2.69,0.59
		c0.59,0.39,0.99,0.97,1.21,1.74l-2.2,0.41c-0.1-0.34-0.27-0.61-0.54-0.79c-0.26-0.18-0.64-0.27-1.12-0.27
		c-0.61,0-1.05,0.09-1.32,0.26c-0.18,0.12-0.27,0.28-0.27,0.47c0,0.17,0.08,0.31,0.23,0.42c0.21,0.15,0.94,0.37,2.18,0.66
		c1.24,0.28,2.11,0.63,2.6,1.04c0.49,0.42,0.73,0.99,0.73,1.73c0,0.81-0.34,1.5-1.01,2.08c-0.67,0.58-1.67,0.87-3,0.87
		c-1.2,0-2.15-0.24-2.85-0.73C187.56,21.45,187.1,20.78,186.89,19.95z"/>
	<path d="M212.25,22.46h-2.67l-1.06-2.76h-4.86l-1,2.76h-2.61l4.74-12.17h2.6L212.25,22.46z M207.72,17.65l-1.68-4.52l-1.64,4.52
		H207.72z"/>
	<path d="M215.33,22.46l-3.55-8.82h2.45l1.66,4.5l0.48,1.5c0.13-0.38,0.21-0.63,0.24-0.76c0.08-0.25,0.16-0.5,0.25-0.75l1.68-4.5
		h2.4l-3.5,8.82H215.33z"/>
	<path d="M222.36,12.45V10.3h2.33v2.16H222.36z M222.36,22.46v-8.82h2.33v8.82H222.36z"/>
	<path d="M227.08,22.46V10.3h2.33v12.17H227.08z"/>
	<path d="M236.91,19.66l2.32,0.39c-0.3,0.85-0.77,1.5-1.42,1.95c-0.64,0.45-1.45,0.67-2.42,0.67c-1.53,0-2.67-0.5-3.4-1.5
		c-0.58-0.8-0.87-1.81-0.87-3.04c0-1.46,0.38-2.6,1.15-3.43c0.76-0.83,1.73-1.24,2.9-1.24c1.31,0,2.35,0.43,3.1,1.3
		c0.76,0.87,1.12,2.19,1.09,3.98h-5.84c0.02,0.69,0.21,1.23,0.56,1.61c0.36,0.38,0.81,0.58,1.35,0.58c0.37,0,0.67-0.1,0.92-0.3
		S236.78,20.1,236.91,19.66z M237.04,17.3c-0.02-0.68-0.19-1.19-0.52-1.54c-0.33-0.35-0.74-0.53-1.21-0.53
		c-0.51,0-0.93,0.19-1.26,0.56s-0.5,0.87-0.49,1.51H237.04z M234.06,12.57l1.14-2.48h2.62l-2.28,2.48H234.06z"/>
	<path d="M240.43,19.95l2.34-0.36c0.1,0.45,0.3,0.8,0.61,1.03c0.3,0.24,0.73,0.35,1.28,0.35c0.6,0,1.06-0.11,1.36-0.33
		c0.21-0.15,0.31-0.36,0.31-0.62c0-0.18-0.06-0.32-0.17-0.44c-0.12-0.11-0.38-0.21-0.78-0.31c-1.88-0.42-3.07-0.79-3.58-1.14
		c-0.7-0.48-1.04-1.14-1.04-1.98c0-0.76,0.3-1.41,0.9-1.93s1.54-0.78,2.81-0.78c1.21,0,2.1,0.2,2.69,0.59s0.99,0.97,1.21,1.74
		l-2.2,0.41c-0.09-0.34-0.27-0.61-0.54-0.79s-0.64-0.27-1.12-0.27c-0.62,0-1.05,0.09-1.32,0.26c-0.18,0.12-0.27,0.28-0.27,0.47
		c0,0.17,0.08,0.31,0.23,0.42c0.21,0.15,0.94,0.37,2.18,0.66s2.11,0.63,2.6,1.04c0.49,0.42,0.73,0.99,0.73,1.73
		c0,0.81-0.34,1.5-1.01,2.08s-1.67,0.87-3,0.87c-1.2,0-2.15-0.24-2.85-0.73S240.65,20.78,240.43,19.95z"/>
</g>
</svg>
