<?xml version="1.0" encoding="utf-8"?>
<!-- Generator: Adobe Illustrator 25.4.1, SVG Export Plug-In . SVG Version: 6.00 Build 0)  -->
<svg version="1.1" id="Capa_1" xmlns="http://www.w3.org/2000/svg" xmlns:xlink="http://www.w3.org/1999/xlink" x="0px" y="0px"
	 viewBox="0 0 252 77.61" style="enable-background:new 0 0 252 77.61;" xml:space="preserve">
<style type="text/css">
	.st0{fill:#3F3E3E;}
</style>
<g>
	<path d="M2.75,22.86V10.69H5.2v12.17H2.75z"/>
	<path d="M15.55,22.86h-2.33v-4.5c0-0.95-0.05-1.57-0.15-1.85s-0.26-0.5-0.49-0.65c-0.22-0.16-0.49-0.23-0.81-0.23
		c-0.4,0-0.77,0.11-1.09,0.33c-0.32,0.22-0.54,0.51-0.66,0.88s-0.18,1.04-0.18,2.03v3.99H7.51v-8.82h2.17v1.29
		c0.77-1,1.74-1.49,2.9-1.49c0.52,0,0.99,0.09,1.41,0.28c0.43,0.19,0.75,0.42,0.97,0.71c0.22,0.29,0.37,0.61,0.46,0.98
		c0.08,0.37,0.13,0.89,0.13,1.57V22.86z"/>
	<path d="M17.7,23.44l2.67,0.32c0.04,0.31,0.15,0.52,0.31,0.64c0.22,0.17,0.57,0.25,1.04,0.25c0.61,0,1.07-0.09,1.37-0.27
		c0.2-0.12,0.36-0.32,0.46-0.59c0.07-0.19,0.11-0.55,0.11-1.07v-1.29c-0.7,0.95-1.58,1.43-2.64,1.43c-1.18,0-2.12-0.5-2.81-1.5
		c-0.54-0.79-0.81-1.78-0.81-2.96c0-1.48,0.36-2.61,1.07-3.39s1.6-1.17,2.65-1.17c1.09,0,1.99,0.48,2.7,1.44v-1.24h2.18v7.91
		c0,1.04-0.09,1.82-0.26,2.33c-0.17,0.51-0.41,0.92-0.72,1.21c-0.31,0.29-0.72,0.52-1.24,0.69s-1.17,0.25-1.96,0.25
		c-1.49,0-2.55-0.26-3.18-0.77c-0.62-0.51-0.94-1.16-0.94-1.95C17.69,23.64,17.69,23.55,17.7,23.44z M19.78,18.27
		c0,0.93,0.18,1.62,0.54,2.05c0.36,0.43,0.81,0.65,1.34,0.65c0.57,0,1.05-0.22,1.44-0.67c0.39-0.45,0.59-1.1,0.59-1.98
		c0-0.91-0.19-1.59-0.56-2.03c-0.38-0.44-0.85-0.66-1.43-0.66c-0.56,0-1.02,0.22-1.38,0.65C19.96,16.71,19.78,17.38,19.78,18.27z"/>
	<path d="M28.3,22.86v-2.33h2.33v2.33H28.3z"/>
	<path d="M37.77,10.69h4.86c0.96,0,1.68,0.04,2.15,0.12c0.47,0.08,0.9,0.25,1.27,0.5c0.38,0.25,0.69,0.59,0.93,1.02
		c0.25,0.42,0.37,0.9,0.37,1.42c0,0.57-0.15,1.09-0.46,1.57c-0.31,0.48-0.72,0.83-1.25,1.07c0.74,0.22,1.31,0.58,1.71,1.1
		c0.4,0.52,0.6,1.13,0.6,1.83c0,0.55-0.13,1.09-0.39,1.61c-0.26,0.52-0.61,0.94-1.05,1.25c-0.45,0.31-0.99,0.51-1.65,0.58
		c-0.41,0.04-1.4,0.07-2.96,0.08h-4.14V10.69z M40.23,12.71v2.81h1.61c0.96,0,1.55-0.01,1.79-0.04c0.42-0.05,0.75-0.2,0.99-0.44
		c0.24-0.24,0.36-0.56,0.36-0.95c0-0.38-0.1-0.68-0.31-0.92c-0.21-0.23-0.52-0.38-0.92-0.43c-0.24-0.03-0.94-0.04-2.1-0.04H40.23z
		 M40.23,17.55v3.25h2.27c0.89,0,1.45-0.03,1.69-0.08c0.37-0.07,0.66-0.23,0.89-0.49c0.23-0.26,0.34-0.6,0.34-1.03
		c0-0.37-0.09-0.68-0.27-0.93c-0.18-0.25-0.43-0.44-0.77-0.56c-0.33-0.12-1.06-0.17-2.18-0.17H40.23z"/>
	<path d="M52.25,22.86h-2.33v-8.82h2.17v1.25c0.37-0.59,0.7-0.98,1-1.17c0.3-0.19,0.63-0.28,1.01-0.28c0.53,0,1.04,0.15,1.54,0.44
		l-0.72,2.03c-0.39-0.25-0.76-0.38-1.1-0.38c-0.33,0-0.6,0.09-0.83,0.27c-0.23,0.18-0.41,0.51-0.54,0.98
		c-0.13,0.47-0.2,1.46-0.2,2.96V22.86z"/>
	<path d="M61.74,20.05l2.32,0.39c-0.3,0.85-0.77,1.5-1.42,1.95s-1.45,0.67-2.42,0.67c-1.53,0-2.67-0.5-3.4-1.5
		c-0.58-0.8-0.87-1.82-0.87-3.04c0-1.46,0.38-2.61,1.15-3.43s1.73-1.24,2.9-1.24c1.31,0,2.35,0.43,3.11,1.3
		c0.76,0.87,1.12,2.19,1.09,3.98h-5.84c0.02,0.69,0.2,1.23,0.56,1.61c0.36,0.38,0.81,0.58,1.34,0.58c0.37,0,0.67-0.1,0.92-0.3
		C61.42,20.82,61.61,20.5,61.74,20.05z M61.87,17.69c-0.02-0.67-0.19-1.19-0.52-1.54c-0.33-0.35-0.74-0.53-1.21-0.53
		c-0.51,0-0.93,0.19-1.26,0.56c-0.33,0.37-0.5,0.88-0.49,1.51H61.87z"/>
	<path d="M74.11,22.86h-2.33v-4.5c0-0.95-0.05-1.57-0.15-1.85s-0.26-0.5-0.49-0.65c-0.22-0.16-0.49-0.23-0.81-0.23
		c-0.4,0-0.77,0.11-1.09,0.33c-0.32,0.22-0.54,0.51-0.66,0.88s-0.18,1.04-0.18,2.03v3.99h-2.33v-8.82h2.17v1.29
		c0.77-1,1.74-1.49,2.91-1.49c0.51,0,0.98,0.09,1.41,0.28s0.75,0.42,0.97,0.71c0.22,0.29,0.37,0.61,0.46,0.98
		c0.08,0.37,0.13,0.89,0.13,1.57V22.86z"/>
	<path d="M84.56,22.86h-2.17v-1.29c-0.36,0.5-0.79,0.88-1.28,1.12c-0.49,0.25-0.98,0.37-1.48,0.37c-1.01,0-1.88-0.41-2.6-1.22
		c-0.72-0.82-1.08-1.95-1.08-3.42c0-1.49,0.35-2.63,1.05-3.41c0.7-0.78,1.59-1.17,2.67-1.17c0.98,0,1.84,0.41,2.56,1.23v-4.38h2.33
		V22.86z M78.33,18.26c0,0.94,0.13,1.62,0.39,2.04c0.38,0.61,0.9,0.91,1.58,0.91c0.54,0,0.99-0.23,1.37-0.68
		c0.38-0.46,0.56-1.14,0.56-2.05c0-1.01-0.18-1.74-0.55-2.19c-0.37-0.45-0.83-0.67-1.4-0.67c-0.55,0-1.02,0.22-1.39,0.66
		C78.52,16.73,78.33,17.39,78.33,18.26z"/>
	<path d="M88.6,16.73l-2.12-0.38c0.24-0.85,0.65-1.48,1.23-1.89c0.58-0.41,1.44-0.61,2.59-0.61c1.04,0,1.81,0.12,2.32,0.37
		c0.51,0.25,0.87,0.56,1.08,0.94c0.21,0.38,0.31,1.08,0.31,2.09l-0.03,2.72c0,0.77,0.04,1.35,0.11,1.71
		c0.07,0.37,0.21,0.76,0.42,1.18h-2.31c-0.06-0.15-0.14-0.38-0.22-0.69c-0.04-0.14-0.07-0.23-0.08-0.27
		c-0.4,0.39-0.82,0.68-1.28,0.87c-0.45,0.19-0.94,0.29-1.45,0.29c-0.91,0-1.62-0.25-2.15-0.74c-0.52-0.49-0.78-1.12-0.78-1.87
		c0-0.5,0.12-0.94,0.36-1.33c0.24-0.39,0.57-0.69,1-0.9c0.43-0.21,1.05-0.39,1.86-0.54c1.09-0.2,1.85-0.4,2.27-0.57v-0.23
		c0-0.45-0.11-0.77-0.33-0.96c-0.22-0.19-0.64-0.29-1.25-0.29c-0.42,0-0.74,0.08-0.97,0.24C88.93,16.04,88.75,16.32,88.6,16.73z
		 M91.72,18.62c-0.3,0.1-0.77,0.22-1.42,0.36c-0.65,0.14-1.07,0.27-1.27,0.41c-0.3,0.22-0.46,0.49-0.46,0.82
		c0,0.33,0.12,0.61,0.37,0.85c0.24,0.24,0.55,0.36,0.93,0.36c0.42,0,0.82-0.14,1.2-0.42c0.28-0.21,0.47-0.47,0.56-0.77
		c0.06-0.2,0.09-0.58,0.09-1.14V18.62z"/>
	<path d="M101.02,22.86V10.69h3.68l2.21,8.3l2.18-8.3h3.69v12.17h-2.28v-9.58l-2.42,9.58h-2.37l-2.41-9.58v9.58H101.02z"/>
	<path d="M115.2,22.86v-2.33h2.33v2.33H115.2z"/>
	<path d="M124.66,22.86V10.69h3.94c1.49,0,2.47,0.06,2.92,0.18c0.7,0.18,1.28,0.58,1.75,1.19c0.47,0.61,0.71,1.4,0.71,2.37
		c0,0.75-0.14,1.38-0.41,1.88c-0.27,0.51-0.62,0.91-1.03,1.2c-0.42,0.29-0.84,0.48-1.27,0.58c-0.59,0.12-1.44,0.17-2.55,0.17h-1.6
		v4.59H124.66z M127.12,12.75v3.45h1.34c0.97,0,1.62-0.06,1.94-0.19c0.33-0.13,0.58-0.33,0.77-0.6c0.19-0.27,0.28-0.59,0.28-0.95
		c0-0.44-0.13-0.81-0.39-1.1c-0.26-0.29-0.59-0.47-0.99-0.54c-0.29-0.05-0.88-0.08-1.77-0.08H127.12z"/>
	<path d="M135.98,12.85v-2.16h2.33v2.16H135.98z M135.98,22.86v-8.82h2.33v8.82H135.98z"/>
	<path d="M148.72,22.86h-2.33v-4.5c0-0.95-0.05-1.57-0.15-1.85s-0.26-0.5-0.49-0.65c-0.22-0.16-0.49-0.23-0.81-0.23
		c-0.4,0-0.77,0.11-1.09,0.33c-0.32,0.22-0.54,0.51-0.66,0.88s-0.18,1.04-0.18,2.03v3.99h-2.33v-8.82h2.17v1.29
		c0.77-1,1.74-1.49,2.9-1.49c0.52,0,0.99,0.09,1.41,0.28c0.43,0.19,0.75,0.42,0.97,0.71c0.22,0.29,0.37,0.61,0.46,0.98
		c0.08,0.37,0.13,0.89,0.13,1.57V22.86z M142.91,12.86h-1.06c0-0.13-0.01-0.23-0.01-0.3c0-0.58,0.14-1.03,0.42-1.34
		c0.28-0.31,0.64-0.47,1.09-0.47c0.19,0,0.37,0.02,0.54,0.06c0.17,0.04,0.47,0.16,0.91,0.36s0.79,0.29,1.03,0.29
		c0.18,0,0.33-0.06,0.45-0.17c0.12-0.11,0.19-0.3,0.23-0.56h1.08c-0.01,0.75-0.14,1.28-0.42,1.6c-0.27,0.32-0.63,0.48-1.06,0.48
		c-0.19,0-0.37-0.02-0.56-0.06c-0.13-0.03-0.45-0.15-0.96-0.34c-0.51-0.19-0.88-0.29-1.11-0.29c-0.18,0-0.32,0.05-0.42,0.16
		C142.96,12.4,142.91,12.59,142.91,12.86z"/>
	<path d="M152.83,16.73l-2.12-0.38c0.24-0.85,0.65-1.48,1.23-1.89c0.58-0.41,1.44-0.61,2.59-0.61c1.04,0,1.82,0.12,2.32,0.37
		c0.51,0.25,0.87,0.56,1.08,0.94c0.21,0.38,0.31,1.08,0.31,2.09l-0.02,2.72c0,0.77,0.04,1.35,0.11,1.71
		c0.07,0.37,0.21,0.76,0.42,1.18h-2.31c-0.06-0.15-0.14-0.38-0.22-0.69c-0.04-0.14-0.07-0.23-0.08-0.27
		c-0.4,0.39-0.83,0.68-1.28,0.87c-0.45,0.19-0.94,0.29-1.45,0.29c-0.91,0-1.62-0.25-2.15-0.74c-0.52-0.49-0.79-1.12-0.79-1.87
		c0-0.5,0.12-0.94,0.36-1.33c0.24-0.39,0.57-0.69,1-0.9c0.43-0.21,1.05-0.39,1.86-0.54c1.09-0.2,1.85-0.4,2.27-0.57v-0.23
		c0-0.45-0.11-0.77-0.33-0.96c-0.22-0.19-0.64-0.29-1.25-0.29c-0.42,0-0.74,0.08-0.97,0.24C153.17,16.04,152.98,16.32,152.83,16.73z
		 M155.95,18.62c-0.3,0.1-0.77,0.22-1.42,0.36c-0.65,0.14-1.07,0.27-1.27,0.41c-0.3,0.22-0.46,0.49-0.46,0.82
		c0,0.33,0.12,0.61,0.37,0.85c0.24,0.24,0.55,0.36,0.93,0.36c0.42,0,0.82-0.14,1.2-0.42c0.28-0.21,0.47-0.47,0.56-0.77
		c0.06-0.2,0.09-0.58,0.09-1.14V18.62z"/>
	<path d="M165.28,22.86V10.69h9.02v2.06h-6.57v2.7h6.11v2.05h-6.11v3.31h6.8v2.05H165.28z"/>
	<path d="M175.79,20.34l2.34-0.36c0.1,0.45,0.3,0.8,0.61,1.03c0.3,0.24,0.73,0.35,1.28,0.35c0.6,0,1.06-0.11,1.36-0.33
		c0.2-0.16,0.31-0.36,0.31-0.62c0-0.18-0.05-0.32-0.17-0.44c-0.12-0.11-0.38-0.21-0.78-0.31c-1.88-0.42-3.07-0.79-3.58-1.14
		c-0.7-0.48-1.05-1.14-1.05-1.98c0-0.76,0.3-1.41,0.91-1.93c0.6-0.52,1.54-0.78,2.81-0.78c1.21,0,2.1,0.2,2.69,0.59
		c0.59,0.39,0.99,0.97,1.21,1.74l-2.2,0.41c-0.09-0.34-0.27-0.61-0.54-0.79c-0.26-0.18-0.64-0.27-1.12-0.27
		c-0.61,0-1.05,0.09-1.32,0.26c-0.18,0.12-0.27,0.28-0.27,0.47c0,0.17,0.08,0.31,0.23,0.42c0.21,0.15,0.94,0.37,2.18,0.66
		s2.11,0.63,2.6,1.04c0.49,0.42,0.73,0.99,0.73,1.73c0,0.81-0.34,1.5-1.01,2.08s-1.67,0.87-3,0.87c-1.2,0-2.15-0.24-2.85-0.73
		C176.46,21.84,176,21.18,175.79,20.34z"/>
	<path d="M190.1,14.04v1.86h-1.59v3.55c0,0.72,0.01,1.14,0.04,1.26c0.03,0.12,0.1,0.22,0.21,0.29c0.11,0.08,0.24,0.12,0.39,0.12
		c0.22,0,0.53-0.08,0.94-0.22l0.2,1.81c-0.54,0.23-1.16,0.35-1.84,0.35c-0.42,0-0.8-0.07-1.14-0.21c-0.34-0.14-0.59-0.32-0.74-0.55
		c-0.16-0.22-0.27-0.53-0.33-0.91c-0.05-0.27-0.08-0.82-0.08-1.64V15.9h-1.07v-1.86h1.07v-1.75l2.34-1.36v3.11H190.1z"/>
	<path d="M193.96,22.86h-2.33v-8.82h2.17v1.25c0.37-0.59,0.7-0.98,1-1.17c0.3-0.19,0.63-0.28,1.01-0.28c0.53,0,1.04,0.15,1.54,0.44
		l-0.72,2.03c-0.39-0.25-0.76-0.38-1.1-0.38c-0.33,0-0.6,0.09-0.83,0.27c-0.23,0.18-0.41,0.51-0.54,0.98
		c-0.13,0.47-0.2,1.46-0.2,2.96V22.86z"/>
	<path d="M203.44,20.05l2.32,0.39c-0.3,0.85-0.77,1.5-1.42,1.95s-1.45,0.67-2.42,0.67c-1.53,0-2.67-0.5-3.4-1.5
		c-0.58-0.8-0.87-1.82-0.87-3.04c0-1.46,0.38-2.61,1.15-3.43s1.73-1.24,2.9-1.24c1.31,0,2.35,0.43,3.1,1.3
		c0.76,0.87,1.12,2.19,1.09,3.98h-5.84c0.02,0.69,0.21,1.23,0.56,1.61c0.36,0.38,0.81,0.58,1.35,0.58c0.37,0,0.67-0.1,0.92-0.3
		S203.32,20.5,203.44,20.05z M203.58,17.69c-0.02-0.67-0.19-1.19-0.52-1.54c-0.33-0.35-0.74-0.53-1.21-0.53
		c-0.51,0-0.93,0.19-1.26,0.56c-0.33,0.37-0.49,0.88-0.49,1.51H203.58z"/>
	<path d="M207.79,22.86V10.69h2.33v12.17H207.79z"/>
	<path d="M212.52,22.86V10.69h2.33v12.17H212.52z"/>
	<path d="M218.98,16.73l-2.12-0.38c0.24-0.85,0.65-1.48,1.23-1.89c0.58-0.41,1.44-0.61,2.59-0.61c1.04,0,1.81,0.12,2.32,0.37
		c0.51,0.25,0.87,0.56,1.07,0.94s0.31,1.08,0.31,2.09l-0.02,2.72c0,0.77,0.04,1.35,0.11,1.71s0.21,0.76,0.42,1.18h-2.31
		c-0.06-0.15-0.13-0.38-0.22-0.69c-0.04-0.14-0.07-0.23-0.08-0.27c-0.4,0.39-0.82,0.68-1.28,0.87c-0.45,0.19-0.94,0.29-1.45,0.29
		c-0.91,0-1.62-0.25-2.15-0.74c-0.52-0.49-0.78-1.12-0.78-1.87c0-0.5,0.12-0.94,0.36-1.33c0.24-0.39,0.57-0.69,1-0.9
		c0.43-0.21,1.05-0.39,1.86-0.54c1.09-0.2,1.85-0.4,2.27-0.57v-0.23c0-0.45-0.11-0.77-0.33-0.96c-0.22-0.19-0.64-0.29-1.25-0.29
		c-0.42,0-0.74,0.08-0.97,0.24C219.31,16.04,219.13,16.32,218.98,16.73z M222.1,18.62c-0.3,0.1-0.77,0.22-1.42,0.36
		c-0.65,0.14-1.07,0.27-1.27,0.41c-0.3,0.22-0.46,0.49-0.46,0.82c0,0.33,0.12,0.61,0.37,0.85c0.24,0.24,0.55,0.36,0.93,0.36
		c0.42,0,0.82-0.14,1.2-0.42c0.28-0.21,0.47-0.47,0.56-0.77c0.06-0.2,0.09-0.58,0.09-1.14V18.62z"/>
	<path d="M225.87,20.34l2.34-0.36c0.1,0.45,0.3,0.8,0.61,1.03c0.3,0.24,0.73,0.35,1.28,0.35c0.6,0,1.06-0.11,1.36-0.33
		c0.21-0.16,0.31-0.36,0.31-0.62c0-0.18-0.06-0.32-0.17-0.44c-0.12-0.11-0.38-0.21-0.78-0.31c-1.88-0.42-3.07-0.79-3.58-1.14
		c-0.7-0.48-1.04-1.14-1.04-1.98c0-0.76,0.3-1.41,0.9-1.93c0.6-0.52,1.54-0.78,2.81-0.78c1.21,0,2.1,0.2,2.69,0.59
		c0.59,0.39,0.99,0.97,1.21,1.74l-2.2,0.41c-0.09-0.34-0.27-0.61-0.54-0.79s-0.64-0.27-1.12-0.27c-0.62,0-1.05,0.09-1.32,0.26
		c-0.18,0.12-0.27,0.28-0.27,0.47c0,0.17,0.08,0.31,0.23,0.42c0.21,0.15,0.94,0.37,2.18,0.66c1.24,0.28,2.11,0.63,2.6,1.04
		c0.49,0.42,0.73,0.99,0.73,1.73c0,0.81-0.34,1.5-1.01,2.08s-1.67,0.87-3,0.87c-1.2,0-2.15-0.24-2.85-0.73
		C226.55,21.84,226.09,21.18,225.87,20.34z"/>
</g>
<g>
	<path d="M2.17,41.51l1.25-0.11c0.06,0.5,0.2,0.91,0.41,1.23c0.22,0.32,0.55,0.58,1.01,0.78c0.46,0.2,0.97,0.3,1.54,0.3
		c0.51,0,0.95-0.08,1.34-0.23c0.39-0.15,0.68-0.36,0.86-0.62c0.19-0.26,0.28-0.55,0.28-0.86c0-0.31-0.09-0.59-0.27-0.82
		c-0.18-0.24-0.48-0.43-0.9-0.59c-0.27-0.1-0.86-0.27-1.78-0.49c-0.92-0.22-1.57-0.43-1.93-0.63c-0.48-0.25-0.83-0.56-1.07-0.93
		c-0.23-0.37-0.35-0.79-0.35-1.25c0-0.51,0.14-0.98,0.43-1.42c0.29-0.44,0.71-0.77,1.26-1c0.55-0.23,1.16-0.34,1.84-0.34
		c0.74,0,1.4,0.12,1.96,0.36s1,0.59,1.31,1.06c0.3,0.46,0.47,0.99,0.49,1.58l-1.27,0.1C8.51,37,8.28,36.52,7.88,36.2
		c-0.39-0.32-0.98-0.49-1.75-0.49c-0.8,0-1.39,0.15-1.75,0.44c-0.37,0.29-0.55,0.65-0.55,1.06c0,0.36,0.13,0.66,0.39,0.89
		c0.25,0.23,0.92,0.47,2,0.71c1.08,0.24,1.82,0.46,2.22,0.64c0.58,0.27,1.01,0.61,1.29,1.02c0.28,0.41,0.42,0.89,0.42,1.42
		c0,0.53-0.15,1.04-0.46,1.51c-0.31,0.47-0.74,0.84-1.32,1.1C7.8,44.77,7.16,44.9,6.44,44.9c-0.91,0-1.67-0.13-2.28-0.4
		c-0.61-0.26-1.09-0.66-1.44-1.19C2.37,42.78,2.19,42.18,2.17,41.51z"/>
	<path d="M16.56,44.73v-1.07c-0.57,0.82-1.33,1.23-2.3,1.23c-0.43,0-0.83-0.08-1.2-0.25c-0.37-0.16-0.65-0.37-0.83-0.62
		c-0.18-0.25-0.31-0.55-0.38-0.91c-0.05-0.24-0.08-0.62-0.08-1.15v-4.5h1.23v4.03c0,0.64,0.02,1.08,0.08,1.3
		c0.08,0.32,0.24,0.58,0.49,0.76c0.25,0.18,0.56,0.28,0.93,0.28s0.71-0.09,1.04-0.28c0.32-0.19,0.55-0.45,0.69-0.77
		c0.13-0.33,0.2-0.8,0.2-1.42v-3.89h1.23v7.26H16.56z"/>
	<path d="M19.59,47.52V37.47h1.12v0.94c0.26-0.37,0.56-0.65,0.9-0.83c0.33-0.18,0.74-0.28,1.21-0.28c0.62,0,1.17,0.16,1.64,0.48
		c0.47,0.32,0.83,0.77,1.07,1.35c0.24,0.58,0.36,1.22,0.36,1.91c0,0.74-0.13,1.41-0.4,2.01s-0.65,1.05-1.16,1.37
		c-0.51,0.32-1.04,0.47-1.6,0.47c-0.41,0-0.78-0.09-1.1-0.26c-0.33-0.17-0.59-0.39-0.8-0.66v3.53H19.59z M20.7,41.14
		c0,0.93,0.19,1.62,0.57,2.07c0.38,0.45,0.84,0.67,1.37,0.67c0.55,0,1.01-0.23,1.4-0.69c0.39-0.46,0.58-1.18,0.58-2.15
		c0-0.92-0.19-1.62-0.57-2.08c-0.38-0.46-0.83-0.69-1.36-0.69c-0.52,0-0.99,0.25-1.39,0.74C20.9,39.5,20.7,40.21,20.7,41.14z"/>
	<path d="M32.34,42.4l1.27,0.16c-0.2,0.74-0.57,1.32-1.11,1.73c-0.54,0.41-1.24,0.62-2.08,0.62c-1.06,0-1.9-0.33-2.53-0.98
		c-0.62-0.65-0.93-1.57-0.93-2.75c0-1.22,0.31-2.17,0.94-2.84c0.63-0.67,1.44-1.01,2.45-1.01c0.97,0,1.76,0.33,2.38,0.99
		c0.62,0.66,0.92,1.59,0.92,2.79c0,0.07,0,0.18-0.01,0.33h-5.41c0.04,0.8,0.27,1.41,0.68,1.83c0.41,0.42,0.91,0.64,1.52,0.64
		c0.45,0,0.84-0.12,1.16-0.36C31.9,43.29,32.16,42.92,32.34,42.4z M28.3,40.41h4.05c-0.05-0.61-0.21-1.07-0.46-1.37
		c-0.39-0.47-0.9-0.71-1.52-0.71c-0.57,0-1.04,0.19-1.43,0.57C28.56,39.27,28.35,39.77,28.3,40.41z"/>
	<path d="M35.15,44.73v-7.26h1.11v1.1c0.28-0.51,0.54-0.85,0.78-1.02s0.5-0.25,0.79-0.25c0.41,0,0.84,0.13,1.26,0.4l-0.42,1.14
		c-0.3-0.18-0.6-0.27-0.9-0.27c-0.27,0-0.51,0.08-0.72,0.24c-0.21,0.16-0.37,0.39-0.46,0.67c-0.14,0.44-0.21,0.92-0.21,1.44v3.8
		H35.15z"/>
	<path d="M41.84,44.73l-2.76-7.26h1.3l1.56,4.35c0.17,0.47,0.32,0.96,0.46,1.46c0.11-0.38,0.26-0.84,0.46-1.38l1.61-4.43h1.26
		l-2.75,7.26H41.84z"/>
	<path d="M46.83,36.13v-1.42h1.23v1.42H46.83z M46.83,44.73v-7.26h1.23v7.26H46.83z"/>
	<path d="M49.44,42.57l1.22-0.19c0.07,0.49,0.26,0.86,0.57,1.12c0.31,0.26,0.75,0.39,1.31,0.39c0.56,0,0.98-0.12,1.26-0.34
		c0.27-0.23,0.41-0.5,0.41-0.81c0-0.28-0.12-0.5-0.36-0.66c-0.17-0.11-0.59-0.25-1.26-0.42c-0.9-0.23-1.53-0.42-1.88-0.59
		c-0.35-0.17-0.61-0.4-0.79-0.69c-0.18-0.29-0.27-0.62-0.27-0.97c0-0.32,0.07-0.62,0.22-0.9c0.15-0.28,0.35-0.5,0.61-0.69
		c0.19-0.14,0.45-0.26,0.78-0.36c0.33-0.1,0.68-0.15,1.06-0.15c0.57,0,1.07,0.08,1.5,0.25s0.75,0.39,0.95,0.67s0.35,0.66,0.42,1.12
		l-1.2,0.16c-0.05-0.37-0.21-0.67-0.48-0.88c-0.26-0.21-0.63-0.31-1.11-0.31c-0.57,0-0.97,0.09-1.21,0.28
		c-0.24,0.19-0.36,0.41-0.36,0.66c0,0.16,0.05,0.3,0.15,0.43c0.1,0.13,0.26,0.24,0.47,0.33c0.12,0.05,0.49,0.15,1.09,0.31
		c0.87,0.23,1.48,0.42,1.82,0.57c0.34,0.15,0.61,0.36,0.81,0.65c0.2,0.28,0.29,0.63,0.29,1.05c0,0.41-0.12,0.8-0.36,1.16
		s-0.58,0.64-1.04,0.84s-0.96,0.3-1.53,0.3c-0.94,0-1.66-0.2-2.16-0.59C49.89,43.92,49.58,43.34,49.44,42.57z"/>
	<path d="M56.48,41.1c0-1.34,0.37-2.34,1.12-2.99c0.62-0.54,1.38-0.81,2.28-0.81c1,0,1.81,0.33,2.45,0.98
		c0.63,0.65,0.95,1.56,0.95,2.71c0,0.93-0.14,1.67-0.42,2.21c-0.28,0.54-0.69,0.95-1.22,1.25c-0.54,0.3-1.12,0.44-1.75,0.44
		c-1.02,0-1.84-0.33-2.46-0.98C56.79,43.27,56.48,42.33,56.48,41.1z M57.74,41.1c0,0.93,0.2,1.63,0.61,2.09
		c0.41,0.46,0.92,0.69,1.53,0.69c0.61,0,1.12-0.23,1.52-0.7c0.41-0.46,0.61-1.17,0.61-2.13c0-0.9-0.2-1.58-0.61-2.04
		c-0.41-0.46-0.92-0.69-1.52-0.69c-0.62,0-1.13,0.23-1.53,0.69C57.94,39.48,57.74,40.17,57.74,41.1z"/>
	<path d="M64.71,44.73v-7.26h1.11v1.1c0.28-0.51,0.54-0.85,0.78-1.02s0.5-0.25,0.79-0.25c0.41,0,0.84,0.13,1.26,0.4l-0.42,1.14
		c-0.3-0.18-0.6-0.27-0.9-0.27c-0.27,0-0.51,0.08-0.72,0.24c-0.21,0.16-0.37,0.39-0.46,0.67c-0.14,0.44-0.21,0.92-0.21,1.44v3.8
		H64.71z"/>
	<path d="M77.98,44.73v-0.92c-0.46,0.72-1.14,1.08-2.03,1.08c-0.58,0-1.11-0.16-1.6-0.48c-0.49-0.32-0.86-0.76-1.13-1.34
		c-0.27-0.57-0.4-1.23-0.4-1.97c0-0.72,0.12-1.38,0.36-1.97c0.24-0.59,0.6-1.04,1.09-1.36c0.48-0.31,1.02-0.47,1.62-0.47
		c0.44,0,0.83,0.09,1.17,0.28s0.62,0.42,0.83,0.72v-3.6h1.22v10.02H77.98z M74.09,41.11c0,0.93,0.2,1.62,0.59,2.08
		c0.39,0.46,0.85,0.69,1.39,0.69c0.54,0,0.99-0.22,1.37-0.66c0.38-0.44,0.56-1.11,0.56-2.01c0-0.99-0.19-1.72-0.57-2.19
		s-0.85-0.7-1.42-0.7c-0.55,0-1,0.22-1.37,0.67C74.28,39.45,74.09,40.15,74.09,41.11z"/>
	<path d="M86.03,42.4l1.27,0.16c-0.2,0.74-0.57,1.32-1.11,1.73c-0.54,0.41-1.24,0.62-2.08,0.62c-1.06,0-1.9-0.33-2.53-0.98
		c-0.62-0.65-0.93-1.57-0.93-2.75c0-1.22,0.31-2.17,0.94-2.84c0.63-0.67,1.44-1.01,2.45-1.01c0.97,0,1.76,0.33,2.38,0.99
		c0.62,0.66,0.92,1.59,0.92,2.79c0,0.07,0,0.18-0.01,0.33h-5.41c0.04,0.8,0.27,1.41,0.68,1.83c0.41,0.42,0.91,0.64,1.52,0.64
		c0.45,0,0.84-0.12,1.16-0.36C85.59,43.29,85.84,42.92,86.03,42.4z M81.99,40.41h4.05c-0.05-0.61-0.21-1.07-0.46-1.37
		c-0.39-0.47-0.9-0.71-1.52-0.71c-0.57,0-1.04,0.19-1.43,0.57C82.24,39.27,82.03,39.77,81.99,40.41z"/>
	<path d="M92.44,41.51l1.25-0.11c0.06,0.5,0.2,0.91,0.41,1.23c0.22,0.32,0.55,0.58,1.01,0.78c0.46,0.2,0.97,0.3,1.54,0.3
		c0.51,0,0.95-0.08,1.34-0.23c0.39-0.15,0.68-0.36,0.86-0.62c0.19-0.26,0.28-0.55,0.28-0.86c0-0.31-0.09-0.59-0.27-0.82
		c-0.18-0.24-0.48-0.43-0.9-0.59c-0.27-0.1-0.86-0.27-1.78-0.49c-0.92-0.22-1.57-0.43-1.93-0.63c-0.48-0.25-0.83-0.56-1.07-0.93
		c-0.23-0.37-0.35-0.79-0.35-1.25c0-0.51,0.14-0.98,0.43-1.42c0.29-0.44,0.71-0.77,1.26-1c0.55-0.23,1.16-0.34,1.84-0.34
		c0.74,0,1.4,0.12,1.96,0.36s1,0.59,1.31,1.06c0.3,0.46,0.47,0.99,0.49,1.58l-1.27,0.1c-0.07-0.63-0.3-1.11-0.69-1.44
		c-0.39-0.32-0.98-0.49-1.75-0.49c-0.8,0-1.39,0.15-1.75,0.44c-0.37,0.29-0.55,0.65-0.55,1.06c0,0.36,0.13,0.66,0.39,0.89
		c0.25,0.23,0.92,0.47,2,0.71c1.08,0.24,1.82,0.46,2.22,0.64c0.58,0.27,1.01,0.61,1.29,1.02c0.28,0.41,0.42,0.89,0.42,1.42
		c0,0.53-0.15,1.04-0.46,1.51c-0.31,0.47-0.74,0.84-1.32,1.1c-0.57,0.26-1.22,0.39-1.93,0.39c-0.91,0-1.67-0.13-2.28-0.4
		c-0.61-0.26-1.09-0.66-1.44-1.19C92.64,42.78,92.46,42.18,92.44,41.51z"/>
	<path d="M107.04,42.4l1.27,0.16c-0.2,0.74-0.57,1.32-1.11,1.73c-0.54,0.41-1.24,0.62-2.08,0.62c-1.06,0-1.9-0.33-2.53-0.98
		c-0.62-0.65-0.93-1.57-0.93-2.75c0-1.22,0.31-2.17,0.94-2.84c0.63-0.67,1.44-1.01,2.45-1.01c0.97,0,1.76,0.33,2.38,0.99
		c0.62,0.66,0.92,1.59,0.92,2.79c0,0.07,0,0.18-0.01,0.33h-5.41c0.04,0.8,0.27,1.41,0.68,1.83c0.41,0.42,0.91,0.64,1.52,0.64
		c0.45,0,0.84-0.12,1.16-0.36C106.6,43.29,106.85,42.92,107.04,42.4z M103,40.41h4.05c-0.05-0.61-0.21-1.07-0.46-1.37
		c-0.39-0.47-0.9-0.71-1.52-0.71c-0.57,0-1.04,0.19-1.43,0.57C103.25,39.27,103.04,39.77,103,40.41z"/>
	<path d="M109.63,45.34l1.2,0.18c0.05,0.37,0.19,0.64,0.42,0.81c0.3,0.23,0.72,0.34,1.25,0.34c0.57,0,1.01-0.11,1.32-0.34
		c0.31-0.23,0.52-0.55,0.63-0.96c0.06-0.25,0.09-0.78,0.09-1.58c-0.54,0.63-1.21,0.95-2.01,0.95c-1,0-1.77-0.36-2.32-1.08
		c-0.55-0.72-0.82-1.58-0.82-2.59c0-0.69,0.12-1.33,0.38-1.92c0.25-0.59,0.61-1.04,1.09-1.36c0.48-0.32,1.04-0.48,1.68-0.48
		c0.86,0,1.56,0.35,2.12,1.04v-0.88h1.13v6.28c0,1.13-0.12,1.93-0.35,2.4c-0.23,0.47-0.59,0.84-1.09,1.12s-1.11,0.41-1.84,0.41
		c-0.87,0-1.57-0.19-2.1-0.58S109.61,46.12,109.63,45.34z M110.65,40.97c0,0.95,0.19,1.65,0.57,2.08c0.38,0.44,0.85,0.66,1.42,0.66
		c0.56,0,1.04-0.22,1.42-0.65c0.38-0.44,0.57-1.12,0.57-2.05c0-0.89-0.2-1.56-0.59-2.01c-0.39-0.45-0.87-0.68-1.42-0.68
		c-0.55,0-1.01,0.22-1.39,0.67S110.65,40.1,110.65,40.97z"/>
	<path d="M122.4,44.73v-1.07c-0.57,0.82-1.33,1.23-2.3,1.23c-0.43,0-0.83-0.08-1.2-0.25c-0.37-0.16-0.65-0.37-0.83-0.62
		c-0.18-0.25-0.31-0.55-0.38-0.91c-0.05-0.24-0.08-0.62-0.08-1.15v-4.5h1.23v4.03c0,0.64,0.02,1.08,0.08,1.3
		c0.08,0.32,0.24,0.58,0.49,0.76c0.25,0.18,0.56,0.28,0.93,0.28s0.71-0.09,1.04-0.28c0.32-0.19,0.55-0.45,0.69-0.77
		c0.13-0.33,0.2-0.8,0.2-1.42v-3.89h1.23v7.26H122.4z"/>
	<path d="M125.42,44.73v-7.26h1.11v1.1c0.28-0.51,0.54-0.85,0.78-1.02s0.5-0.25,0.79-0.25c0.41,0,0.84,0.13,1.26,0.4l-0.42,1.14
		c-0.3-0.18-0.6-0.27-0.9-0.27c-0.27,0-0.51,0.08-0.72,0.24c-0.21,0.16-0.37,0.39-0.46,0.67c-0.14,0.44-0.21,0.92-0.21,1.44v3.8
		H125.42z"/>
	<path d="M130.1,36.13v-1.42h1.23v1.42H130.1z M130.1,44.73v-7.26h1.23v7.26H130.1z"/>
	<path d="M137.91,44.73v-0.92c-0.46,0.72-1.14,1.08-2.03,1.08c-0.58,0-1.11-0.16-1.6-0.48c-0.49-0.32-0.86-0.76-1.13-1.34
		c-0.27-0.57-0.4-1.23-0.4-1.97c0-0.72,0.12-1.38,0.36-1.97c0.24-0.59,0.6-1.04,1.09-1.36c0.48-0.31,1.02-0.47,1.62-0.47
		c0.44,0,0.83,0.09,1.17,0.28s0.62,0.42,0.83,0.72v-3.6h1.22v10.02H137.91z M134.02,41.11c0,0.93,0.2,1.62,0.59,2.08
		c0.39,0.46,0.85,0.69,1.39,0.69c0.54,0,0.99-0.22,1.37-0.66c0.38-0.44,0.56-1.11,0.56-2.01c0-0.99-0.19-1.72-0.57-2.19
		s-0.85-0.7-1.42-0.7c-0.55,0-1,0.22-1.37,0.67C134.21,39.45,134.02,40.15,134.02,41.11z"/>
	<path d="M145.73,43.84c-0.46,0.39-0.89,0.66-1.32,0.82c-0.42,0.16-0.87,0.24-1.36,0.24c-0.8,0-1.41-0.19-1.84-0.58
		c-0.43-0.39-0.64-0.89-0.64-1.49c0-0.36,0.08-0.68,0.24-0.97c0.16-0.29,0.37-0.53,0.64-0.71c0.26-0.18,0.56-0.31,0.89-0.4
		c0.24-0.06,0.61-0.12,1.09-0.18c0.99-0.12,1.72-0.26,2.19-0.42c0-0.17,0.01-0.28,0.01-0.32c0-0.5-0.12-0.85-0.35-1.06
		c-0.31-0.28-0.78-0.42-1.4-0.42c-0.58,0-1.01,0.1-1.28,0.3c-0.28,0.2-0.48,0.56-0.61,1.08l-1.2-0.16c0.11-0.51,0.29-0.93,0.54-1.25
		c0.25-0.32,0.61-0.56,1.09-0.73c0.47-0.17,1.02-0.26,1.65-0.26c0.62,0,1.12,0.07,1.51,0.22c0.39,0.15,0.67,0.33,0.85,0.55
		c0.18,0.22,0.31,0.5,0.38,0.84c0.04,0.21,0.06,0.59,0.06,1.13v1.64c0,1.14,0.03,1.87,0.08,2.17c0.05,0.3,0.16,0.59,0.31,0.87h-1.29
		C145.84,44.48,145.76,44.18,145.73,43.84z M145.62,41.09c-0.45,0.18-1.12,0.34-2.01,0.46c-0.51,0.07-0.86,0.16-1.07,0.25
		c-0.21,0.09-0.37,0.22-0.49,0.4c-0.11,0.17-0.17,0.37-0.17,0.58c0,0.33,0.12,0.6,0.37,0.82c0.25,0.22,0.61,0.33,1.09,0.33
		c0.47,0,0.9-0.1,1.26-0.31c0.37-0.21,0.64-0.49,0.81-0.85c0.13-0.28,0.2-0.69,0.2-1.23V41.09z"/>
	<path d="M153.48,44.73v-0.92c-0.46,0.72-1.14,1.08-2.03,1.08c-0.58,0-1.11-0.16-1.6-0.48c-0.49-0.32-0.86-0.76-1.13-1.34
		c-0.27-0.57-0.4-1.23-0.4-1.97c0-0.72,0.12-1.38,0.36-1.97c0.24-0.59,0.6-1.04,1.09-1.36c0.48-0.31,1.02-0.47,1.62-0.47
		c0.44,0,0.83,0.09,1.17,0.28s0.62,0.42,0.83,0.72v-3.6h1.22v10.02H153.48z M149.59,41.11c0,0.93,0.2,1.62,0.59,2.08
		c0.39,0.46,0.85,0.69,1.39,0.69c0.54,0,0.99-0.22,1.37-0.66c0.38-0.44,0.56-1.11,0.56-2.01c0-0.99-0.19-1.72-0.57-2.19
		s-0.85-0.7-1.42-0.7c-0.55,0-1,0.22-1.37,0.67C149.78,39.45,149.59,40.15,149.59,41.11z"/>
</g>
<g>
	<path d="M2.05,63.29l1.25-0.11c0.06,0.5,0.2,0.91,0.41,1.23c0.22,0.32,0.55,0.58,1.01,0.78c0.46,0.2,0.97,0.3,1.54,0.3
		c0.51,0,0.95-0.08,1.34-0.23c0.39-0.15,0.68-0.36,0.86-0.62c0.19-0.26,0.28-0.55,0.28-0.86c0-0.31-0.09-0.59-0.27-0.82
		c-0.18-0.23-0.48-0.43-0.9-0.59c-0.27-0.1-0.86-0.27-1.79-0.49c-0.92-0.22-1.56-0.43-1.93-0.62c-0.48-0.25-0.84-0.56-1.07-0.93
		c-0.23-0.37-0.35-0.79-0.35-1.25c0-0.51,0.14-0.98,0.43-1.42c0.29-0.44,0.71-0.77,1.26-1c0.55-0.23,1.17-0.34,1.84-0.34
		c0.74,0,1.4,0.12,1.96,0.36c0.57,0.24,1,0.59,1.31,1.06c0.31,0.46,0.47,0.99,0.49,1.58l-1.27,0.1c-0.07-0.63-0.3-1.11-0.69-1.44
		s-0.98-0.49-1.75-0.49c-0.8,0-1.39,0.15-1.75,0.44c-0.37,0.29-0.55,0.65-0.55,1.06c0,0.36,0.13,0.66,0.39,0.89
		c0.25,0.23,0.92,0.47,2,0.71c1.08,0.24,1.82,0.46,2.22,0.64c0.58,0.27,1.01,0.61,1.29,1.02c0.28,0.41,0.42,0.89,0.42,1.43
		c0,0.53-0.15,1.04-0.46,1.51c-0.31,0.47-0.74,0.84-1.32,1.1c-0.57,0.26-1.22,0.39-1.93,0.39c-0.91,0-1.67-0.13-2.28-0.4
		s-1.09-0.66-1.44-1.19C2.25,64.56,2.07,63.96,2.05,63.29z"/>
	<path d="M16.65,64.17l1.27,0.16c-0.2,0.74-0.57,1.32-1.12,1.73c-0.54,0.41-1.23,0.62-2.08,0.62c-1.06,0-1.9-0.33-2.53-0.98
		c-0.62-0.65-0.93-1.57-0.93-2.75c0-1.22,0.31-2.17,0.94-2.84s1.45-1.01,2.45-1.01c0.97,0,1.76,0.33,2.38,0.99s0.92,1.59,0.92,2.79
		c0,0.07,0,0.18-0.01,0.33h-5.41c0.05,0.8,0.27,1.41,0.68,1.83c0.41,0.42,0.91,0.64,1.52,0.64c0.45,0,0.84-0.12,1.15-0.36
		C16.21,65.07,16.46,64.69,16.65,64.17z M12.61,62.18h4.05c-0.05-0.61-0.21-1.07-0.46-1.37c-0.39-0.47-0.9-0.71-1.53-0.71
		c-0.56,0-1.04,0.19-1.42,0.57S12.65,61.55,12.61,62.18z"/>
	<path d="M19.24,67.11l1.2,0.18c0.05,0.37,0.19,0.64,0.42,0.81c0.31,0.23,0.72,0.34,1.25,0.34c0.57,0,1.01-0.11,1.32-0.34
		c0.31-0.23,0.52-0.55,0.63-0.96c0.06-0.25,0.09-0.78,0.09-1.58c-0.54,0.63-1.21,0.95-2.01,0.95c-1,0-1.77-0.36-2.32-1.08
		S19,63.84,19,62.84c0-0.69,0.13-1.33,0.38-1.92c0.25-0.59,0.61-1.04,1.09-1.36s1.04-0.48,1.68-0.48c0.86,0,1.56,0.35,2.12,1.04
		v-0.88h1.13v6.28c0,1.13-0.12,1.93-0.34,2.4c-0.23,0.47-0.59,0.84-1.09,1.12s-1.11,0.41-1.84,0.41c-0.87,0-1.56-0.19-2.1-0.58
		C19.48,68.48,19.22,67.89,19.24,67.11z M20.26,62.75c0,0.95,0.19,1.65,0.57,2.08c0.38,0.44,0.85,0.66,1.42,0.66
		c0.57,0,1.04-0.22,1.42-0.65c0.38-0.43,0.57-1.12,0.57-2.05c0-0.89-0.2-1.56-0.59-2.01s-0.87-0.68-1.42-0.68
		c-0.55,0-1.01,0.22-1.39,0.67C20.45,61.21,20.26,61.87,20.26,62.75z"/>
	<path d="M32.01,66.51v-1.07c-0.56,0.82-1.33,1.23-2.3,1.23c-0.43,0-0.83-0.08-1.2-0.25s-0.65-0.37-0.83-0.62
		c-0.18-0.25-0.31-0.55-0.38-0.91c-0.05-0.24-0.08-0.62-0.08-1.15v-4.5h1.23v4.03c0,0.64,0.03,1.08,0.08,1.3
		c0.08,0.32,0.24,0.58,0.49,0.76c0.25,0.18,0.56,0.28,0.93,0.28s0.71-0.09,1.04-0.28c0.32-0.19,0.55-0.45,0.69-0.77
		c0.13-0.33,0.2-0.8,0.2-1.42v-3.89h1.23v7.26H32.01z"/>
	<path d="M35.03,66.51v-7.26h1.11v1.1c0.28-0.51,0.54-0.85,0.78-1.02s0.5-0.25,0.79-0.25c0.41,0,0.84,0.13,1.26,0.4l-0.42,1.14
		c-0.3-0.18-0.6-0.27-0.9-0.27c-0.27,0-0.51,0.08-0.72,0.24c-0.21,0.16-0.37,0.39-0.46,0.67c-0.14,0.44-0.21,0.92-0.21,1.44v3.8
		H35.03z"/>
	<path d="M39.71,57.9v-1.42h1.23v1.42H39.71z M39.71,66.51v-7.26h1.23v7.26H39.71z"/>
	<path d="M47.52,66.51v-0.92c-0.46,0.72-1.14,1.08-2.03,1.08c-0.58,0-1.11-0.16-1.6-0.48s-0.86-0.76-1.13-1.34
		c-0.27-0.57-0.4-1.23-0.4-1.97c0-0.72,0.12-1.38,0.36-1.97c0.24-0.59,0.6-1.04,1.09-1.36c0.48-0.31,1.02-0.47,1.62-0.47
		c0.44,0,0.83,0.09,1.17,0.28c0.34,0.18,0.62,0.42,0.83,0.72v-3.6h1.22v10.02H47.52z M43.63,62.88c0,0.93,0.2,1.62,0.59,2.08
		c0.39,0.46,0.86,0.69,1.39,0.69c0.54,0,0.99-0.22,1.37-0.66c0.38-0.44,0.56-1.11,0.56-2.01c0-0.99-0.19-1.72-0.57-2.19
		s-0.85-0.7-1.41-0.7c-0.55,0-1,0.22-1.37,0.67S43.63,61.92,43.63,62.88z"/>
	<path d="M55.33,65.61c-0.46,0.39-0.89,0.66-1.32,0.82s-0.87,0.24-1.36,0.24c-0.8,0-1.41-0.2-1.84-0.58
		c-0.43-0.39-0.64-0.89-0.64-1.49c0-0.36,0.08-0.68,0.24-0.97c0.16-0.29,0.37-0.53,0.64-0.71s0.56-0.31,0.88-0.4
		c0.24-0.06,0.61-0.13,1.09-0.18c0.99-0.12,1.73-0.26,2.2-0.42c0-0.17,0.01-0.28,0.01-0.32c0-0.5-0.12-0.85-0.35-1.06
		c-0.31-0.28-0.78-0.42-1.4-0.42c-0.58,0-1.01,0.1-1.28,0.3c-0.28,0.2-0.48,0.56-0.61,1.08l-1.2-0.16c0.11-0.51,0.29-0.93,0.54-1.25
		c0.25-0.32,0.61-0.56,1.09-0.73c0.47-0.17,1.02-0.26,1.65-0.26c0.62,0,1.12,0.07,1.51,0.22c0.39,0.15,0.67,0.33,0.85,0.55
		c0.18,0.22,0.31,0.5,0.38,0.84c0.04,0.21,0.06,0.59,0.06,1.13v1.64c0,1.14,0.03,1.87,0.08,2.17c0.05,0.3,0.16,0.59,0.31,0.87h-1.29
		C55.45,66.25,55.37,65.95,55.33,65.61z M55.23,62.86c-0.45,0.18-1.12,0.34-2.01,0.46c-0.51,0.07-0.86,0.16-1.07,0.25
		c-0.21,0.09-0.37,0.22-0.48,0.4c-0.11,0.18-0.17,0.37-0.17,0.58c0,0.33,0.12,0.6,0.37,0.82s0.61,0.33,1.09,0.33
		c0.47,0,0.9-0.1,1.27-0.31c0.37-0.21,0.64-0.49,0.81-0.85c0.13-0.28,0.2-0.69,0.2-1.23V62.86z"/>
	<path d="M63.09,66.51v-0.92c-0.46,0.72-1.14,1.08-2.03,1.08c-0.58,0-1.11-0.16-1.6-0.48s-0.86-0.76-1.13-1.34
		c-0.27-0.57-0.4-1.23-0.4-1.97c0-0.72,0.12-1.38,0.36-1.97c0.24-0.59,0.6-1.04,1.09-1.36c0.48-0.31,1.02-0.47,1.62-0.47
		c0.44,0,0.83,0.09,1.17,0.28c0.34,0.18,0.62,0.42,0.83,0.72v-3.6h1.22v10.02H63.09z M59.2,62.88c0,0.93,0.2,1.62,0.59,2.08
		c0.39,0.46,0.86,0.69,1.39,0.69c0.54,0,0.99-0.22,1.37-0.66c0.38-0.44,0.56-1.11,0.56-2.01c0-0.99-0.19-1.72-0.57-2.19
		s-0.85-0.7-1.41-0.7c-0.55,0-1,0.22-1.37,0.67S59.2,61.92,59.2,62.88z"/>
	<path d="M70.42,69.45V56.31h1.07v13.14H70.42z"/>
	<path d="M82.43,62.58V61.4l4.25-0.01v3.72c-0.65,0.52-1.32,0.91-2.02,1.17c-0.69,0.26-1.4,0.39-2.13,0.39
		c-0.98,0-1.88-0.21-2.68-0.63c-0.8-0.42-1.41-1.03-1.82-1.83c-0.41-0.8-0.62-1.69-0.62-2.67c0-0.97,0.2-1.89,0.61-2.73
		c0.41-0.85,0.99-1.47,1.76-1.88s1.65-0.62,2.65-0.62c0.72,0,1.38,0.12,1.96,0.35c0.59,0.23,1.04,0.56,1.38,0.98
		c0.33,0.42,0.59,0.97,0.76,1.64l-1.2,0.33c-0.15-0.51-0.34-0.91-0.56-1.2c-0.22-0.29-0.54-0.53-0.96-0.7
		c-0.41-0.17-0.88-0.26-1.38-0.26c-0.61,0-1.13,0.09-1.57,0.28c-0.44,0.19-0.8,0.43-1.07,0.73s-0.48,0.63-0.63,0.99
		c-0.26,0.62-0.38,1.29-0.38,2.02c0,0.89,0.15,1.64,0.46,2.24c0.31,0.6,0.76,1.05,1.34,1.34s1.21,0.44,1.87,0.44
		c0.57,0,1.13-0.11,1.68-0.33c0.55-0.22,0.96-0.46,1.24-0.71v-1.87H82.43z"/>
	<path d="M87.53,66.51l3.85-10.02h1.43l4.1,10.02H95.4l-1.17-3.04h-4.19l-1.1,3.04H87.53z M90.42,62.39h3.4l-1.04-2.78
		c-0.32-0.84-0.56-1.54-0.71-2.08c-0.13,0.64-0.31,1.28-0.54,1.91L90.42,62.39z"/>
	<path d="M97.92,66.51V56.49h3.76c0.77,0,1.38,0.1,1.84,0.3c0.46,0.2,0.82,0.51,1.09,0.94c0.26,0.42,0.39,0.86,0.39,1.32
		c0,0.43-0.12,0.83-0.35,1.21s-0.58,0.68-1.05,0.92c0.61,0.18,1.07,0.48,1.4,0.91s0.49,0.93,0.49,1.52c0,0.47-0.1,0.91-0.3,1.31
		c-0.2,0.4-0.44,0.71-0.73,0.93c-0.29,0.22-0.66,0.38-1.1,0.5c-0.44,0.11-0.98,0.17-1.62,0.17H97.92z M99.24,60.7h2.17
		c0.59,0,1.01-0.04,1.27-0.12c0.34-0.1,0.59-0.27,0.76-0.5s0.26-0.52,0.26-0.88c0-0.33-0.08-0.62-0.24-0.88
		c-0.16-0.25-0.39-0.43-0.68-0.52c-0.3-0.09-0.8-0.14-1.53-0.14h-2V60.7z M99.24,65.32h2.49c0.43,0,0.73-0.02,0.9-0.05
		c0.31-0.05,0.56-0.15,0.77-0.27s0.37-0.31,0.51-0.56c0.13-0.24,0.2-0.53,0.2-0.84c0-0.37-0.1-0.7-0.29-0.97
		c-0.19-0.28-0.46-0.47-0.8-0.58c-0.34-0.11-0.83-0.17-1.47-0.17h-2.32V65.32z"/>
	<path d="M106.21,66.51l3.85-10.02h1.43l4.1,10.02h-1.51l-1.17-3.04h-4.19l-1.1,3.04H106.21z M109.1,62.39h3.4l-1.04-2.78
		c-0.32-0.84-0.56-1.54-0.71-2.08c-0.13,0.64-0.31,1.28-0.54,1.91L109.1,62.39z"/>
	<path d="M116.67,66.51V56.49h4.44c0.89,0,1.57,0.09,2.04,0.27c0.46,0.18,0.84,0.5,1.12,0.95c0.28,0.46,0.42,0.96,0.42,1.51
		c0,0.71-0.23,1.31-0.69,1.8c-0.46,0.49-1.17,0.8-2.13,0.93c0.35,0.17,0.62,0.33,0.8,0.5c0.39,0.36,0.75,0.8,1.1,1.33l1.74,2.73
		h-1.67l-1.33-2.08c-0.39-0.6-0.71-1.06-0.96-1.38c-0.25-0.32-0.47-0.54-0.67-0.67s-0.4-0.22-0.6-0.27
		c-0.15-0.03-0.4-0.05-0.74-0.05h-1.54v4.45H116.67z M117.99,60.91h2.85c0.61,0,1.08-0.06,1.42-0.19c0.34-0.12,0.6-0.33,0.78-0.6
		c0.18-0.28,0.27-0.57,0.27-0.9c0-0.47-0.17-0.86-0.52-1.17s-0.89-0.46-1.63-0.46h-3.17V60.91z"/>
</g>
</svg>
