<?xml version="1.0" encoding="utf-8"?>
<!-- Generator: Adobe Illustrator 25.4.1, SVG Export Plug-In . SVG Version: 6.00 Build 0)  -->
<svg version="1.1" id="Capa_1" xmlns="http://www.w3.org/2000/svg" xmlns:xlink="http://www.w3.org/1999/xlink" x="0px" y="0px"
	 viewBox="0 0 289 77.61" style="enable-background:new 0 0 289 77.61;" xml:space="preserve">
<style type="text/css">
	.st0{fill:#3F3E3E;}
</style>
<g>
	<path d="M2.75,22.86V10.69H5.2v12.17H2.75z"/>
	<path d="M15.55,22.86h-2.33v-4.5c0-0.95-0.05-1.57-0.15-1.85c-0.1-0.28-0.26-0.5-0.49-0.65c-0.22-0.15-0.49-0.23-0.81-0.23
		c-0.4,0-0.77,0.11-1.09,0.33c-0.32,0.22-0.54,0.51-0.66,0.88s-0.18,1.04-0.18,2.03v3.99H7.51v-8.82h2.17v1.29
		c0.77-1,1.74-1.49,2.91-1.49c0.51,0,0.98,0.09,1.41,0.28c0.43,0.18,0.75,0.42,0.97,0.71c0.22,0.29,0.37,0.61,0.46,0.98
		c0.08,0.37,0.13,0.89,0.13,1.57V22.86z"/>
	<path d="M17.7,23.44l2.66,0.32c0.04,0.31,0.15,0.52,0.31,0.64c0.22,0.17,0.57,0.25,1.05,0.25c0.61,0,1.07-0.09,1.37-0.27
		c0.21-0.12,0.36-0.32,0.46-0.59c0.07-0.19,0.11-0.55,0.11-1.07v-1.29c-0.7,0.95-1.58,1.43-2.64,1.43c-1.18,0-2.12-0.5-2.81-1.5
		c-0.54-0.79-0.81-1.78-0.81-2.96c0-1.48,0.36-2.61,1.07-3.39s1.59-1.17,2.65-1.17c1.09,0,1.99,0.48,2.7,1.44v-1.24h2.18v7.91
		c0,1.04-0.09,1.82-0.26,2.33s-0.41,0.92-0.72,1.21c-0.31,0.29-0.72,0.52-1.24,0.69s-1.17,0.25-1.96,0.25
		c-1.49,0-2.55-0.26-3.18-0.77s-0.94-1.16-0.94-1.95C17.69,23.64,17.69,23.55,17.7,23.44z M19.78,18.27c0,0.94,0.18,1.62,0.54,2.05
		c0.36,0.43,0.81,0.65,1.34,0.65c0.57,0,1.05-0.22,1.44-0.67s0.59-1.11,0.59-1.98c0-0.91-0.19-1.59-0.56-2.03
		c-0.38-0.44-0.85-0.66-1.43-0.66c-0.56,0-1.02,0.22-1.38,0.65C19.96,16.71,19.78,17.38,19.78,18.27z"/>
	<path d="M28.3,22.86v-2.33h2.33v2.33H28.3z"/>
	<path d="M42.15,10.69h2.45v7.7c0,1.01-0.09,1.78-0.27,2.32c-0.24,0.71-0.67,1.28-1.29,1.71c-0.62,0.43-1.45,0.64-2.47,0.64
		c-1.2,0-2.12-0.34-2.77-1.01c-0.65-0.67-0.97-1.66-0.98-2.96l2.32-0.27c0.03,0.7,0.13,1.19,0.31,1.48
		c0.27,0.44,0.67,0.66,1.21,0.66c0.55,0,0.94-0.16,1.16-0.47c0.23-0.31,0.34-0.96,0.34-1.95V10.69z"/>
	<path d="M46.66,18.33c0-0.78,0.19-1.52,0.57-2.25c0.38-0.72,0.92-1.28,1.62-1.66c0.7-0.38,1.48-0.57,2.35-0.57
		c1.33,0,2.43,0.43,3.28,1.3c0.85,0.87,1.28,1.96,1.28,3.28c0,1.33-0.43,2.44-1.29,3.32c-0.86,0.88-1.94,1.32-3.25,1.32
		c-0.81,0-1.58-0.18-2.31-0.55c-0.73-0.37-1.29-0.9-1.67-1.61C46.85,20.2,46.66,19.34,46.66,18.33z M49.05,18.45
		c0,0.88,0.21,1.54,0.62,2.01s0.93,0.7,1.54,0.7c0.61,0,1.12-0.23,1.53-0.7c0.41-0.46,0.62-1.14,0.62-2.03
		c0-0.86-0.21-1.53-0.62-1.99c-0.41-0.46-0.92-0.7-1.53-0.7c-0.61,0-1.12,0.23-1.54,0.7C49.26,16.91,49.05,17.58,49.05,18.45z"/>
	<path d="M56.76,20.34l2.34-0.36c0.1,0.45,0.3,0.8,0.61,1.03c0.3,0.24,0.73,0.35,1.28,0.35c0.6,0,1.06-0.11,1.36-0.33
		c0.2-0.15,0.31-0.36,0.31-0.62c0-0.18-0.05-0.32-0.17-0.44c-0.12-0.11-0.38-0.21-0.78-0.31c-1.88-0.42-3.07-0.79-3.58-1.14
		c-0.7-0.48-1.05-1.14-1.05-1.98c0-0.76,0.3-1.41,0.91-1.93c0.6-0.52,1.54-0.78,2.81-0.78c1.21,0,2.1,0.2,2.69,0.59
		c0.59,0.39,0.99,0.97,1.21,1.74l-2.2,0.41c-0.09-0.34-0.27-0.61-0.54-0.79c-0.26-0.18-0.64-0.27-1.12-0.27
		c-0.61,0-1.05,0.09-1.32,0.26c-0.18,0.12-0.27,0.28-0.27,0.47c0,0.17,0.08,0.31,0.23,0.42c0.21,0.16,0.94,0.37,2.18,0.66
		s2.11,0.63,2.6,1.04c0.49,0.42,0.73,0.99,0.73,1.74c0,0.81-0.34,1.5-1.01,2.08s-1.67,0.87-3,0.87c-1.2,0-2.15-0.24-2.85-0.73
		C57.43,21.84,56.98,21.18,56.76,20.34z"/>
	<path d="M72.14,20.05l2.32,0.39c-0.3,0.85-0.77,1.5-1.42,1.95c-0.64,0.45-1.45,0.67-2.42,0.67c-1.53,0-2.67-0.5-3.4-1.5
		c-0.58-0.8-0.87-1.81-0.87-3.04c0-1.46,0.38-2.6,1.15-3.43c0.76-0.83,1.73-1.24,2.9-1.24c1.31,0,2.35,0.43,3.11,1.3
		c0.76,0.87,1.12,2.19,1.09,3.98h-5.84c0.02,0.69,0.2,1.23,0.56,1.61s0.81,0.58,1.34,0.58c0.37,0,0.67-0.1,0.92-0.3
		C71.83,20.82,72.01,20.5,72.14,20.05z M72.27,17.7c-0.02-0.68-0.19-1.19-0.52-1.54c-0.33-0.35-0.74-0.53-1.21-0.53
		c-0.51,0-0.93,0.19-1.26,0.56c-0.33,0.37-0.5,0.87-0.49,1.51H72.27z M69.29,12.96l1.15-2.48h2.61l-2.28,2.48H69.29z"/>
	<path d="M89.02,18.38l2.38,0.76c-0.37,1.33-0.97,2.31-1.82,2.96s-1.93,0.97-3.23,0.97c-1.62,0-2.94-0.55-3.98-1.66
		c-1.04-1.1-1.56-2.61-1.56-4.53c0-2.03,0.52-3.6,1.57-4.72c1.04-1.12,2.42-1.68,4.12-1.68c1.49,0,2.7,0.44,3.63,1.32
		c0.55,0.52,0.97,1.27,1.25,2.24l-2.43,0.58c-0.14-0.63-0.44-1.13-0.9-1.49c-0.46-0.37-1.01-0.55-1.66-0.55
		c-0.9,0-1.63,0.32-2.2,0.97c-0.56,0.65-0.84,1.7-0.84,3.15c0,1.54,0.28,2.63,0.83,3.29c0.55,0.65,1.27,0.98,2.16,0.98
		c0.65,0,1.21-0.21,1.68-0.62S88.81,19.28,89.02,18.38z"/>
	<path d="M95.23,16.73l-2.12-0.38c0.24-0.85,0.65-1.48,1.23-1.89c0.58-0.41,1.44-0.61,2.59-0.61c1.04,0,1.82,0.12,2.32,0.37
		s0.87,0.56,1.08,0.94c0.21,0.38,0.31,1.07,0.31,2.09l-0.02,2.72c0,0.78,0.04,1.35,0.11,1.71c0.07,0.37,0.21,0.76,0.42,1.18h-2.31
		c-0.06-0.16-0.14-0.38-0.22-0.69c-0.04-0.14-0.07-0.23-0.08-0.27c-0.4,0.39-0.83,0.68-1.28,0.87c-0.45,0.19-0.94,0.29-1.45,0.29
		c-0.91,0-1.62-0.25-2.15-0.74c-0.52-0.49-0.79-1.12-0.79-1.87c0-0.5,0.12-0.94,0.36-1.33c0.24-0.39,0.57-0.69,1-0.9
		c0.43-0.21,1.05-0.39,1.86-0.54c1.09-0.21,1.85-0.4,2.27-0.57v-0.23c0-0.45-0.11-0.77-0.33-0.96c-0.22-0.19-0.64-0.29-1.25-0.29
		c-0.42,0-0.74,0.08-0.97,0.25C95.57,16.04,95.38,16.32,95.23,16.73z M98.35,18.63c-0.3,0.1-0.77,0.22-1.42,0.36
		c-0.65,0.14-1.07,0.27-1.27,0.41c-0.3,0.22-0.46,0.49-0.46,0.82c0,0.33,0.12,0.61,0.37,0.85c0.24,0.24,0.55,0.36,0.93,0.36
		c0.42,0,0.82-0.14,1.2-0.42c0.28-0.21,0.47-0.47,0.56-0.77c0.06-0.2,0.09-0.58,0.09-1.14V18.63z"/>
	<path d="M105.18,22.86h-2.33v-8.82h2.17v1.25c0.37-0.59,0.7-0.98,1-1.17c0.3-0.19,0.63-0.28,1.01-0.28c0.53,0,1.04,0.15,1.54,0.44
		l-0.72,2.03c-0.39-0.25-0.76-0.38-1.1-0.38c-0.33,0-0.6,0.09-0.83,0.27c-0.23,0.18-0.41,0.5-0.54,0.98
		c-0.13,0.47-0.2,1.46-0.2,2.96V22.86z"/>
	<path d="M109.56,22.86V10.69h2.33v12.17H109.56z"/>
	<path d="M113.75,18.33c0-0.78,0.19-1.52,0.57-2.25c0.38-0.72,0.92-1.28,1.62-1.66c0.7-0.38,1.48-0.57,2.34-0.57
		c1.33,0,2.43,0.43,3.28,1.3c0.85,0.87,1.28,1.96,1.28,3.28c0,1.33-0.43,2.44-1.29,3.32c-0.86,0.88-1.94,1.32-3.25,1.32
		c-0.81,0-1.58-0.18-2.31-0.55c-0.73-0.37-1.29-0.9-1.67-1.61C113.94,20.2,113.75,19.34,113.75,18.33z M116.14,18.45
		c0,0.88,0.21,1.54,0.62,2.01s0.93,0.7,1.54,0.7c0.61,0,1.12-0.23,1.53-0.7s0.62-1.14,0.62-2.03c0-0.86-0.21-1.53-0.62-1.99
		c-0.41-0.46-0.92-0.7-1.53-0.7c-0.61,0-1.12,0.23-1.54,0.7C116.34,16.91,116.14,17.58,116.14,18.45z"/>
	<path d="M123.85,20.34l2.34-0.36c0.1,0.45,0.3,0.8,0.61,1.03c0.3,0.24,0.73,0.35,1.28,0.35c0.6,0,1.06-0.11,1.36-0.33
		c0.21-0.15,0.31-0.36,0.31-0.62c0-0.18-0.06-0.32-0.17-0.44c-0.12-0.11-0.38-0.21-0.78-0.31c-1.88-0.42-3.07-0.79-3.58-1.14
		c-0.7-0.48-1.04-1.14-1.04-1.98c0-0.76,0.3-1.41,0.9-1.93c0.6-0.52,1.54-0.78,2.81-0.78c1.21,0,2.1,0.2,2.69,0.59
		c0.59,0.39,0.99,0.97,1.21,1.74l-2.2,0.41c-0.09-0.34-0.27-0.61-0.54-0.79s-0.64-0.27-1.12-0.27c-0.62,0-1.05,0.09-1.32,0.26
		c-0.18,0.12-0.27,0.28-0.27,0.47c0,0.17,0.08,0.31,0.23,0.42c0.21,0.16,0.94,0.37,2.18,0.66c1.24,0.28,2.11,0.63,2.6,1.04
		c0.49,0.42,0.73,0.99,0.73,1.74c0,0.81-0.34,1.5-1.01,2.08s-1.67,0.87-3,0.87c-1.2,0-2.15-0.24-2.85-0.73
		C124.52,21.84,124.06,21.18,123.85,20.34z"/>
	<path d="M146.65,18.38l2.38,0.76c-0.37,1.33-0.97,2.31-1.82,2.96c-0.85,0.64-1.93,0.97-3.23,0.97c-1.62,0-2.94-0.55-3.98-1.66
		c-1.04-1.1-1.56-2.61-1.56-4.53c0-2.03,0.52-3.6,1.57-4.72c1.05-1.12,2.42-1.68,4.13-1.68c1.49,0,2.7,0.44,3.63,1.32
		c0.55,0.52,0.97,1.27,1.25,2.24l-2.43,0.58c-0.14-0.63-0.44-1.13-0.9-1.49c-0.46-0.37-1.01-0.55-1.66-0.55
		c-0.9,0-1.63,0.32-2.2,0.97c-0.56,0.65-0.84,1.7-0.84,3.15c0,1.54,0.28,2.63,0.83,3.29c0.55,0.65,1.27,0.98,2.16,0.98
		c0.65,0,1.21-0.21,1.68-0.62C146.11,19.93,146.44,19.28,146.65,18.38z"/>
	<path d="M156.93,22.86v-1.32c-0.32,0.47-0.74,0.84-1.27,1.11c-0.52,0.27-1.07,0.41-1.66,0.41c-0.59,0-1.12-0.13-1.59-0.39
		c-0.47-0.26-0.81-0.62-1.02-1.1c-0.21-0.47-0.32-1.12-0.32-1.95v-5.58h2.33v4.05c0,1.24,0.04,2,0.13,2.28s0.24,0.5,0.47,0.66
		c0.23,0.16,0.52,0.25,0.86,0.25c0.4,0,0.76-0.11,1.07-0.33s0.53-0.49,0.65-0.81c0.12-0.32,0.17-1.12,0.17-2.38v-3.72h2.33v8.82
		H156.93z"/>
	<path d="M166.61,20.05l2.32,0.39c-0.3,0.85-0.77,1.5-1.42,1.95c-0.65,0.45-1.45,0.67-2.42,0.67c-1.53,0-2.67-0.5-3.4-1.5
		c-0.58-0.8-0.87-1.81-0.87-3.04c0-1.46,0.38-2.6,1.14-3.43c0.76-0.83,1.73-1.24,2.9-1.24c1.31,0,2.35,0.43,3.1,1.3
		c0.76,0.87,1.12,2.19,1.09,3.98h-5.84c0.02,0.69,0.2,1.23,0.56,1.61c0.36,0.38,0.81,0.58,1.34,0.58c0.37,0,0.67-0.1,0.92-0.3
		S166.49,20.5,166.61,20.05z M166.75,17.7c-0.02-0.68-0.19-1.19-0.52-1.54c-0.33-0.35-0.74-0.53-1.21-0.53
		c-0.51,0-0.93,0.19-1.26,0.56c-0.33,0.37-0.5,0.87-0.49,1.51H166.75z"/>
	<path d="M173.39,22.86l-3.55-8.82h2.45l1.66,4.5l0.48,1.5c0.13-0.38,0.21-0.63,0.24-0.75c0.08-0.25,0.16-0.5,0.25-0.75l1.68-4.5
		h2.4l-3.5,8.82H173.39z"/>
	<path d="M182.16,16.73l-2.12-0.38c0.24-0.85,0.65-1.48,1.23-1.89c0.58-0.41,1.44-0.61,2.59-0.61c1.04,0,1.82,0.12,2.32,0.37
		s0.87,0.56,1.08,0.94c0.21,0.38,0.31,1.07,0.31,2.09l-0.02,2.72c0,0.78,0.04,1.35,0.11,1.71c0.07,0.37,0.21,0.76,0.42,1.18h-2.31
		c-0.06-0.16-0.14-0.38-0.22-0.69c-0.04-0.14-0.07-0.23-0.08-0.27c-0.4,0.39-0.83,0.68-1.28,0.87c-0.45,0.19-0.94,0.29-1.45,0.29
		c-0.91,0-1.62-0.25-2.15-0.74c-0.52-0.49-0.79-1.12-0.79-1.87c0-0.5,0.12-0.94,0.36-1.33c0.24-0.39,0.57-0.69,1-0.9
		c0.43-0.21,1.05-0.39,1.86-0.54c1.09-0.21,1.85-0.4,2.27-0.57v-0.23c0-0.45-0.11-0.77-0.33-0.96c-0.22-0.19-0.64-0.29-1.25-0.29
		c-0.42,0-0.74,0.08-0.97,0.25C182.49,16.04,182.3,16.32,182.16,16.73z M185.28,18.63c-0.3,0.1-0.77,0.22-1.42,0.36
		c-0.65,0.14-1.07,0.27-1.27,0.41c-0.3,0.22-0.46,0.49-0.46,0.82c0,0.33,0.12,0.61,0.37,0.85c0.24,0.24,0.55,0.36,0.93,0.36
		c0.42,0,0.82-0.14,1.2-0.42c0.28-0.21,0.47-0.47,0.56-0.77c0.06-0.2,0.09-0.58,0.09-1.14V18.63z"/>
	<path d="M189.05,20.34l2.34-0.36c0.1,0.45,0.3,0.8,0.61,1.03s0.73,0.35,1.28,0.35c0.6,0,1.06-0.11,1.36-0.33
		c0.21-0.15,0.31-0.36,0.31-0.62c0-0.18-0.05-0.32-0.17-0.44c-0.12-0.11-0.38-0.21-0.78-0.31c-1.88-0.42-3.07-0.79-3.58-1.14
		c-0.7-0.48-1.05-1.14-1.05-1.98c0-0.76,0.3-1.41,0.91-1.93c0.6-0.52,1.54-0.78,2.8-0.78c1.21,0,2.1,0.2,2.69,0.59
		c0.59,0.39,0.99,0.97,1.21,1.74l-2.2,0.41c-0.09-0.34-0.27-0.61-0.54-0.79c-0.26-0.18-0.64-0.27-1.12-0.27
		c-0.61,0-1.05,0.09-1.32,0.26c-0.18,0.12-0.27,0.28-0.27,0.47c0,0.17,0.08,0.31,0.23,0.42c0.21,0.16,0.94,0.37,2.18,0.66
		c1.24,0.28,2.11,0.63,2.6,1.04c0.49,0.42,0.73,0.99,0.73,1.74c0,0.81-0.34,1.5-1.01,2.08c-0.67,0.58-1.67,0.87-3,0.87
		c-1.2,0-2.15-0.24-2.85-0.73C189.72,21.84,189.27,21.18,189.05,20.34z"/>
	<path d="M211.85,18.38l2.38,0.76c-0.37,1.33-0.97,2.31-1.82,2.96c-0.85,0.64-1.93,0.97-3.23,0.97c-1.62,0-2.94-0.55-3.98-1.66
		c-1.04-1.1-1.56-2.61-1.56-4.53c0-2.03,0.52-3.6,1.57-4.72c1.05-1.12,2.42-1.68,4.13-1.68c1.49,0,2.7,0.44,3.63,1.32
		c0.55,0.52,0.97,1.27,1.24,2.24l-2.43,0.58c-0.14-0.63-0.44-1.13-0.9-1.49s-1.01-0.55-1.66-0.55c-0.9,0-1.63,0.32-2.2,0.97
		c-0.56,0.65-0.84,1.7-0.84,3.15c0,1.54,0.28,2.63,0.83,3.29c0.55,0.65,1.27,0.98,2.16,0.98c0.65,0,1.21-0.21,1.69-0.62
		S211.65,19.28,211.85,18.38z"/>
	<path d="M218.07,16.73l-2.12-0.38c0.24-0.85,0.65-1.48,1.23-1.89c0.58-0.41,1.44-0.61,2.59-0.61c1.04,0,1.81,0.12,2.32,0.37
		s0.87,0.56,1.08,0.94c0.21,0.38,0.31,1.07,0.31,2.09l-0.03,2.72c0,0.78,0.04,1.35,0.11,1.71c0.07,0.37,0.21,0.76,0.42,1.18h-2.31
		c-0.06-0.16-0.14-0.38-0.22-0.69c-0.04-0.14-0.07-0.23-0.08-0.27c-0.4,0.39-0.82,0.68-1.28,0.87c-0.45,0.19-0.94,0.29-1.45,0.29
		c-0.91,0-1.62-0.25-2.15-0.74c-0.52-0.49-0.78-1.12-0.78-1.87c0-0.5,0.12-0.94,0.36-1.33c0.24-0.39,0.57-0.69,1-0.9
		c0.43-0.21,1.05-0.39,1.86-0.54c1.09-0.21,1.85-0.4,2.27-0.57v-0.23c0-0.45-0.11-0.77-0.33-0.96c-0.22-0.19-0.64-0.29-1.25-0.29
		c-0.42,0-0.74,0.08-0.97,0.25C218.4,16.04,218.21,16.32,218.07,16.73z M221.19,18.63c-0.3,0.1-0.77,0.22-1.42,0.36
		c-0.65,0.14-1.07,0.27-1.27,0.41c-0.3,0.22-0.46,0.49-0.46,0.82c0,0.33,0.12,0.61,0.37,0.85c0.24,0.24,0.55,0.36,0.93,0.36
		c0.42,0,0.82-0.14,1.2-0.42c0.28-0.21,0.47-0.47,0.56-0.77c0.06-0.2,0.09-0.58,0.09-1.14V18.63z"/>
	<path d="M224.96,20.34l2.34-0.36c0.1,0.45,0.3,0.8,0.61,1.03s0.73,0.35,1.28,0.35c0.6,0,1.06-0.11,1.36-0.33
		c0.2-0.15,0.31-0.36,0.31-0.62c0-0.18-0.06-0.32-0.17-0.44c-0.12-0.11-0.38-0.21-0.78-0.31c-1.88-0.42-3.07-0.79-3.58-1.14
		c-0.7-0.48-1.05-1.14-1.05-1.98c0-0.76,0.3-1.41,0.9-1.93c0.6-0.52,1.54-0.78,2.81-0.78c1.21,0,2.1,0.2,2.69,0.59
		c0.59,0.39,0.99,0.97,1.21,1.74l-2.2,0.41c-0.09-0.34-0.27-0.61-0.54-0.79c-0.26-0.18-0.64-0.27-1.12-0.27
		c-0.61,0-1.05,0.09-1.32,0.26c-0.18,0.12-0.27,0.28-0.27,0.47c0,0.17,0.08,0.31,0.23,0.42c0.21,0.16,0.94,0.37,2.18,0.66
		s2.11,0.63,2.6,1.04c0.49,0.42,0.73,0.99,0.73,1.74c0,0.81-0.34,1.5-1.01,2.08c-0.68,0.58-1.67,0.87-3,0.87
		c-1.2,0-2.15-0.24-2.85-0.73C225.63,21.84,225.18,21.18,224.96,20.34z"/>
	<path d="M236.98,16.73l-2.12-0.38c0.24-0.85,0.65-1.48,1.23-1.89c0.58-0.41,1.44-0.61,2.59-0.61c1.04,0,1.82,0.12,2.32,0.37
		s0.87,0.56,1.08,0.94c0.21,0.38,0.31,1.07,0.31,2.09l-0.02,2.72c0,0.78,0.04,1.35,0.11,1.71c0.07,0.37,0.21,0.76,0.42,1.18h-2.31
		c-0.06-0.16-0.14-0.38-0.22-0.69c-0.04-0.14-0.07-0.23-0.08-0.27c-0.4,0.39-0.83,0.68-1.28,0.87c-0.45,0.19-0.94,0.29-1.45,0.29
		c-0.91,0-1.62-0.25-2.15-0.74c-0.52-0.49-0.79-1.12-0.79-1.87c0-0.5,0.12-0.94,0.36-1.33c0.24-0.39,0.57-0.69,1-0.9
		c0.43-0.21,1.05-0.39,1.86-0.54c1.09-0.21,1.85-0.4,2.27-0.57v-0.23c0-0.45-0.11-0.77-0.33-0.96c-0.22-0.19-0.64-0.29-1.25-0.29
		c-0.42,0-0.74,0.08-0.97,0.25C237.31,16.04,237.12,16.32,236.98,16.73z M240.1,18.63c-0.3,0.1-0.77,0.22-1.42,0.36
		c-0.65,0.14-1.07,0.27-1.27,0.41c-0.3,0.22-0.46,0.49-0.46,0.82c0,0.33,0.12,0.61,0.37,0.85c0.24,0.24,0.55,0.36,0.93,0.36
		c0.42,0,0.82-0.14,1.2-0.42c0.28-0.21,0.47-0.47,0.56-0.77c0.06-0.2,0.09-0.58,0.09-1.14V18.63z"/>
	<path d="M252.71,22.86h-2.33v-4.5c0-0.95-0.05-1.57-0.15-1.85c-0.1-0.28-0.26-0.5-0.48-0.65c-0.22-0.15-0.49-0.23-0.81-0.23
		c-0.4,0-0.77,0.11-1.09,0.33c-0.32,0.22-0.54,0.51-0.66,0.88c-0.12,0.37-0.18,1.04-0.18,2.03v3.99h-2.33v-8.82h2.17v1.29
		c0.77-1,1.74-1.49,2.91-1.49c0.51,0,0.98,0.09,1.41,0.28c0.43,0.18,0.75,0.42,0.97,0.71c0.22,0.29,0.37,0.61,0.46,0.98
		c0.09,0.37,0.13,0.89,0.13,1.57V22.86z"/>
	<path d="M254.53,18.33c0-0.78,0.19-1.52,0.57-2.25c0.38-0.72,0.92-1.28,1.62-1.66c0.7-0.38,1.48-0.57,2.35-0.57
		c1.33,0,2.43,0.43,3.28,1.3c0.85,0.87,1.28,1.96,1.28,3.28c0,1.33-0.43,2.44-1.29,3.32c-0.86,0.88-1.94,1.32-3.25,1.32
		c-0.81,0-1.58-0.18-2.31-0.55s-1.29-0.9-1.67-1.61C254.73,20.2,254.53,19.34,254.53,18.33z M256.93,18.45
		c0,0.88,0.21,1.54,0.62,2.01c0.41,0.46,0.93,0.7,1.54,0.7s1.12-0.23,1.53-0.7s0.62-1.14,0.62-2.03c0-0.86-0.21-1.53-0.62-1.99
		c-0.41-0.46-0.92-0.7-1.53-0.7s-1.12,0.23-1.54,0.7C257.13,16.91,256.93,17.58,256.93,18.45z"/>
	<path d="M267.88,22.86l-3.55-8.82h2.45l1.66,4.5l0.48,1.5c0.13-0.38,0.21-0.63,0.24-0.75c0.08-0.25,0.16-0.5,0.25-0.75l1.68-4.5
		h2.4l-3.5,8.82H267.88z"/>
	<path d="M276.66,16.73l-2.12-0.38c0.24-0.85,0.65-1.48,1.23-1.89c0.58-0.41,1.44-0.61,2.59-0.61c1.04,0,1.82,0.12,2.32,0.37
		s0.87,0.56,1.08,0.94c0.21,0.38,0.31,1.07,0.31,2.09l-0.02,2.72c0,0.78,0.04,1.35,0.11,1.71c0.07,0.37,0.21,0.76,0.42,1.18h-2.31
		c-0.06-0.16-0.14-0.38-0.22-0.69c-0.04-0.14-0.07-0.23-0.08-0.27c-0.4,0.39-0.83,0.68-1.28,0.87c-0.45,0.19-0.94,0.29-1.45,0.29
		c-0.91,0-1.62-0.25-2.15-0.74c-0.52-0.49-0.79-1.12-0.79-1.87c0-0.5,0.12-0.94,0.36-1.33c0.24-0.39,0.57-0.69,1-0.9
		c0.43-0.21,1.05-0.39,1.86-0.54c1.09-0.21,1.85-0.4,2.27-0.57v-0.23c0-0.45-0.11-0.77-0.33-0.96c-0.22-0.19-0.64-0.29-1.25-0.29
		c-0.42,0-0.74,0.08-0.97,0.25C276.99,16.04,276.8,16.32,276.66,16.73z M279.78,18.63c-0.3,0.1-0.77,0.22-1.42,0.36
		c-0.65,0.14-1.07,0.27-1.27,0.41c-0.3,0.22-0.46,0.49-0.46,0.82c0,0.33,0.12,0.61,0.37,0.85c0.24,0.24,0.55,0.36,0.93,0.36
		c0.42,0,0.82-0.14,1.2-0.42c0.28-0.21,0.47-0.47,0.56-0.77c0.06-0.2,0.09-0.58,0.09-1.14V18.63z"/>
</g>
<g>
	<path d="M1.94,41.89l1.2-0.16c0.03,0.77,0.18,1.29,0.43,1.57c0.26,0.28,0.61,0.42,1.06,0.42c0.33,0,0.62-0.08,0.86-0.23
		c0.24-0.15,0.41-0.36,0.5-0.62c0.09-0.26,0.14-0.68,0.14-1.25v-6.9h1.33v6.83c0,0.84-0.1,1.49-0.3,1.95
		c-0.2,0.46-0.52,0.81-0.96,1.05c-0.44,0.24-0.96,0.36-1.55,0.36c-0.88,0-1.55-0.25-2.02-0.76C2.15,43.64,1.93,42.89,1.94,41.89z"/>
	<path d="M14.43,42.4l1.27,0.16c-0.2,0.74-0.57,1.32-1.11,1.73c-0.54,0.41-1.23,0.62-2.08,0.62c-1.06,0-1.9-0.33-2.53-0.98
		c-0.62-0.65-0.93-1.57-0.93-2.75c0-1.22,0.31-2.17,0.94-2.84c0.63-0.67,1.45-1.01,2.45-1.01c0.97,0,1.76,0.33,2.38,0.99
		c0.62,0.66,0.92,1.59,0.92,2.79c0,0.07,0,0.18-0.01,0.33h-5.41c0.05,0.8,0.27,1.41,0.68,1.83c0.41,0.42,0.91,0.64,1.52,0.64
		c0.45,0,0.84-0.12,1.16-0.36C13.99,43.29,14.25,42.92,14.43,42.4z M10.39,40.41h4.05c-0.05-0.61-0.21-1.07-0.46-1.37
		c-0.39-0.47-0.9-0.71-1.52-0.71c-0.56,0-1.04,0.19-1.42,0.57C10.65,39.27,10.44,39.77,10.39,40.41z"/>
	<path d="M17.54,44.73v-6.3h-1.09v-0.96h1.09V36.7c0-0.49,0.04-0.85,0.13-1.09c0.12-0.32,0.33-0.58,0.63-0.78
		c0.3-0.2,0.72-0.3,1.25-0.3c0.35,0,0.73,0.04,1.15,0.12l-0.18,1.07c-0.25-0.05-0.5-0.07-0.72-0.07c-0.37,0-0.64,0.08-0.79,0.24
		c-0.15,0.16-0.23,0.46-0.23,0.9v0.67h1.42v0.96h-1.42v6.3H17.54z"/>
	<path d="M26.11,42.4l1.27,0.16c-0.2,0.74-0.57,1.32-1.11,1.73c-0.54,0.41-1.23,0.62-2.08,0.62c-1.06,0-1.9-0.33-2.53-0.98
		c-0.62-0.65-0.93-1.57-0.93-2.75c0-1.22,0.31-2.17,0.94-2.84c0.63-0.67,1.45-1.01,2.45-1.01c0.97,0,1.76,0.33,2.38,0.99
		c0.62,0.66,0.92,1.59,0.92,2.79c0,0.07,0,0.18-0.01,0.33H22c0.05,0.8,0.27,1.41,0.68,1.83c0.41,0.42,0.91,0.64,1.52,0.64
		c0.45,0,0.84-0.12,1.16-0.36C25.67,43.29,25.92,42.92,26.11,42.4z M22.07,40.41h4.05c-0.05-0.61-0.21-1.07-0.46-1.37
		c-0.39-0.47-0.9-0.71-1.52-0.71c-0.56,0-1.04,0.19-1.42,0.57C22.32,39.27,22.11,39.77,22.07,40.41z"/>
	<path d="M37.53,44.73v-0.92c-0.46,0.72-1.14,1.08-2.03,1.08c-0.58,0-1.11-0.16-1.6-0.48c-0.49-0.32-0.86-0.76-1.13-1.34
		c-0.27-0.57-0.4-1.23-0.4-1.97c0-0.72,0.12-1.38,0.36-1.97c0.24-0.59,0.6-1.04,1.09-1.36c0.48-0.31,1.02-0.47,1.62-0.47
		c0.44,0,0.83,0.09,1.17,0.28s0.62,0.42,0.83,0.72v-3.6h1.22v10.02H37.53z M33.64,41.11c0,0.93,0.2,1.62,0.59,2.08
		c0.39,0.46,0.85,0.69,1.39,0.69c0.54,0,1-0.22,1.37-0.66c0.38-0.44,0.56-1.11,0.56-2.01c0-0.99-0.19-1.72-0.57-2.19
		s-0.85-0.7-1.42-0.7c-0.55,0-1,0.22-1.37,0.67C33.82,39.45,33.64,40.15,33.64,41.11z"/>
	<path d="M45.57,42.4l1.27,0.16c-0.2,0.74-0.57,1.32-1.11,1.73c-0.54,0.41-1.23,0.62-2.08,0.62c-1.06,0-1.9-0.33-2.53-0.98
		c-0.62-0.65-0.93-1.57-0.93-2.75c0-1.22,0.31-2.17,0.94-2.84c0.63-0.67,1.45-1.01,2.45-1.01c0.97,0,1.76,0.33,2.38,0.99
		c0.62,0.66,0.92,1.59,0.92,2.79c0,0.07,0,0.18-0.01,0.33h-5.41c0.05,0.8,0.27,1.41,0.68,1.83c0.41,0.42,0.91,0.64,1.52,0.64
		c0.45,0,0.84-0.12,1.16-0.36C45.13,43.29,45.39,42.92,45.57,42.4z M41.53,40.41h4.05c-0.05-0.61-0.21-1.07-0.46-1.37
		c-0.39-0.47-0.9-0.71-1.52-0.71c-0.56,0-1.04,0.19-1.42,0.57C41.79,39.27,41.57,39.77,41.53,40.41z"/>
	<path d="M51.98,41.51l1.25-0.11c0.06,0.5,0.2,0.91,0.41,1.23c0.22,0.32,0.55,0.58,1.01,0.78c0.46,0.2,0.97,0.3,1.54,0.3
		c0.51,0,0.95-0.08,1.34-0.23c0.39-0.15,0.68-0.36,0.87-0.62c0.19-0.26,0.28-0.55,0.28-0.86c0-0.31-0.09-0.59-0.27-0.82
		c-0.18-0.23-0.48-0.43-0.9-0.59c-0.27-0.11-0.86-0.27-1.78-0.49c-0.92-0.22-1.57-0.43-1.93-0.62c-0.48-0.25-0.83-0.56-1.07-0.93
		c-0.24-0.37-0.35-0.79-0.35-1.25c0-0.51,0.14-0.98,0.43-1.42c0.29-0.44,0.71-0.77,1.26-1c0.55-0.23,1.17-0.34,1.84-0.34
		c0.74,0,1.4,0.12,1.97,0.36s1,0.59,1.31,1.06c0.31,0.46,0.47,0.99,0.49,1.58l-1.27,0.1c-0.07-0.63-0.3-1.11-0.69-1.44
		c-0.39-0.32-0.98-0.49-1.75-0.49c-0.8,0-1.39,0.15-1.75,0.44c-0.37,0.29-0.55,0.65-0.55,1.06c0,0.36,0.13,0.66,0.39,0.89
		c0.26,0.23,0.92,0.47,2,0.71c1.08,0.24,1.82,0.46,2.22,0.64c0.58,0.27,1.01,0.61,1.29,1.02c0.28,0.41,0.42,0.89,0.42,1.43
		c0,0.53-0.15,1.04-0.46,1.51c-0.3,0.47-0.74,0.84-1.32,1.1c-0.57,0.26-1.22,0.39-1.93,0.39c-0.91,0-1.67-0.13-2.28-0.4
		c-0.61-0.26-1.09-0.66-1.44-1.19C52.19,42.79,52,42.18,51.98,41.51z"/>
	<path d="M61.32,41.51l1.25-0.11c0.06,0.5,0.2,0.91,0.41,1.23c0.22,0.32,0.55,0.58,1.01,0.78c0.46,0.2,0.97,0.3,1.54,0.3
		c0.51,0,0.95-0.08,1.34-0.23c0.39-0.15,0.68-0.36,0.87-0.62c0.19-0.26,0.28-0.55,0.28-0.86c0-0.31-0.09-0.59-0.27-0.82
		c-0.18-0.23-0.48-0.43-0.9-0.59c-0.27-0.11-0.86-0.27-1.78-0.49c-0.92-0.22-1.57-0.43-1.93-0.62c-0.48-0.25-0.83-0.56-1.07-0.93
		c-0.24-0.37-0.35-0.79-0.35-1.25c0-0.51,0.14-0.98,0.43-1.42c0.29-0.44,0.71-0.77,1.26-1c0.55-0.23,1.17-0.34,1.84-0.34
		c0.74,0,1.4,0.12,1.97,0.36s1,0.59,1.31,1.06c0.31,0.46,0.47,0.99,0.49,1.58l-1.27,0.1c-0.07-0.63-0.3-1.11-0.69-1.44
		c-0.39-0.32-0.98-0.49-1.75-0.49c-0.8,0-1.39,0.15-1.75,0.44c-0.37,0.29-0.55,0.65-0.55,1.06c0,0.36,0.13,0.66,0.39,0.89
		c0.26,0.23,0.92,0.47,2,0.71c1.08,0.24,1.82,0.46,2.22,0.64c0.58,0.27,1.01,0.61,1.29,1.02c0.28,0.41,0.42,0.89,0.42,1.43
		c0,0.53-0.15,1.04-0.46,1.51c-0.3,0.47-0.74,0.84-1.32,1.1c-0.57,0.26-1.22,0.39-1.93,0.39c-0.91,0-1.67-0.13-2.28-0.4
		c-0.61-0.26-1.09-0.66-1.44-1.19C61.52,42.79,61.34,42.18,61.32,41.51z"/>
	<path d="M71.11,44.73V34.71h3.78c0.67,0,1.17,0.03,1.52,0.1c0.49,0.08,0.91,0.24,1.24,0.47c0.33,0.23,0.6,0.55,0.8,0.97
		c0.2,0.41,0.3,0.87,0.3,1.37c0,0.85-0.27,1.57-0.81,2.16c-0.54,0.59-1.52,0.89-2.94,0.89h-2.57v4.07H71.11z M72.44,39.48h2.59
		c0.86,0,1.47-0.16,1.83-0.48c0.36-0.32,0.54-0.77,0.54-1.35c0-0.42-0.11-0.78-0.32-1.08c-0.21-0.3-0.49-0.5-0.84-0.59
		C76.02,35.92,75.6,35.9,75,35.9h-2.56V39.48z"/>
	<path d="M78.31,44.73l3.85-10.02h1.43l4.1,10.02h-1.51l-1.17-3.04h-4.19l-1.1,3.04H78.31z M81.2,40.62h3.4l-1.05-2.78
		C83.23,37,83,36.31,82.84,35.77c-0.13,0.64-0.31,1.28-0.54,1.91L81.2,40.62z"/>
</g>
<g>
	<path d="M2.05,63.29l1.25-0.11c0.06,0.5,0.2,0.91,0.41,1.23c0.22,0.32,0.55,0.58,1.01,0.78s0.97,0.3,1.54,0.3
		c0.51,0,0.95-0.08,1.34-0.23s0.68-0.36,0.86-0.62c0.19-0.26,0.28-0.55,0.28-0.86c0-0.31-0.09-0.59-0.27-0.82s-0.48-0.43-0.9-0.59
		c-0.27-0.11-0.86-0.27-1.78-0.49s-1.57-0.43-1.93-0.63c-0.48-0.25-0.83-0.56-1.07-0.93c-0.24-0.37-0.35-0.79-0.35-1.25
		c0-0.51,0.14-0.98,0.43-1.42s0.71-0.77,1.26-1c0.55-0.23,1.16-0.34,1.84-0.34c0.74,0,1.4,0.12,1.97,0.36
		c0.57,0.24,1,0.59,1.31,1.06s0.47,0.99,0.49,1.58l-1.27,0.1c-0.07-0.63-0.3-1.11-0.69-1.44c-0.39-0.32-0.98-0.49-1.75-0.49
		c-0.8,0-1.39,0.15-1.75,0.44c-0.37,0.29-0.55,0.65-0.55,1.06c0,0.36,0.13,0.66,0.39,0.89c0.25,0.23,0.92,0.47,2,0.71
		c1.08,0.24,1.82,0.46,2.22,0.64c0.58,0.27,1.01,0.61,1.29,1.02s0.42,0.89,0.42,1.42c0,0.53-0.15,1.04-0.46,1.51
		s-0.74,0.84-1.32,1.1c-0.57,0.26-1.22,0.39-1.93,0.39c-0.91,0-1.67-0.13-2.28-0.4c-0.61-0.26-1.09-0.66-1.44-1.19
		C2.25,64.56,2.07,63.96,2.05,63.29z"/>
	<path d="M16.65,64.17l1.27,0.16c-0.2,0.74-0.57,1.32-1.11,1.73s-1.23,0.62-2.08,0.62c-1.06,0-1.9-0.33-2.53-0.98
		c-0.62-0.65-0.93-1.57-0.93-2.75c0-1.22,0.31-2.17,0.94-2.84c0.63-0.67,1.45-1.01,2.45-1.01c0.97,0,1.76,0.33,2.38,0.99
		c0.62,0.66,0.92,1.59,0.92,2.79c0,0.07,0,0.18-0.01,0.33h-5.41c0.04,0.8,0.27,1.41,0.68,1.83s0.91,0.63,1.52,0.63
		c0.45,0,0.84-0.12,1.16-0.36C16.21,65.07,16.46,64.69,16.65,64.17z M12.61,62.18h4.05c-0.05-0.61-0.21-1.07-0.46-1.38
		c-0.39-0.47-0.9-0.71-1.52-0.71c-0.56,0-1.04,0.19-1.43,0.57C12.86,61.04,12.65,61.55,12.61,62.18z"/>
	<path d="M19.24,67.11l1.2,0.18c0.05,0.37,0.19,0.64,0.42,0.81c0.3,0.23,0.72,0.34,1.25,0.34c0.57,0,1.01-0.11,1.32-0.34
		c0.31-0.23,0.52-0.55,0.63-0.96c0.06-0.25,0.09-0.78,0.09-1.58c-0.54,0.63-1.21,0.95-2.01,0.95c-1,0-1.77-0.36-2.32-1.08
		C19.27,64.71,19,63.84,19,62.84c0-0.69,0.12-1.33,0.38-1.92s0.61-1.04,1.09-1.36c0.48-0.32,1.04-0.48,1.68-0.48
		c0.86,0,1.56,0.35,2.12,1.04v-0.88h1.13v6.28c0,1.13-0.12,1.93-0.35,2.4c-0.23,0.47-0.59,0.84-1.09,1.12
		c-0.5,0.27-1.11,0.41-1.84,0.41c-0.87,0-1.57-0.2-2.1-0.58S19.22,67.89,19.24,67.11z M20.26,62.75c0,0.95,0.19,1.65,0.57,2.09
		s0.85,0.66,1.42,0.66c0.56,0,1.04-0.22,1.42-0.65s0.57-1.12,0.57-2.05c0-0.89-0.2-1.56-0.59-2.01c-0.39-0.45-0.87-0.68-1.42-0.68
		c-0.55,0-1.01,0.22-1.39,0.67S20.26,61.87,20.26,62.75z"/>
	<path d="M32.01,66.51v-1.07c-0.56,0.82-1.33,1.23-2.3,1.23c-0.43,0-0.83-0.08-1.2-0.25c-0.37-0.16-0.65-0.37-0.83-0.62
		c-0.18-0.25-0.31-0.55-0.38-0.91c-0.05-0.24-0.08-0.62-0.08-1.15v-4.5h1.23v4.03c0,0.64,0.03,1.08,0.08,1.3
		c0.08,0.32,0.24,0.58,0.49,0.76s0.56,0.28,0.93,0.28s0.72-0.1,1.04-0.28s0.55-0.45,0.69-0.77c0.13-0.33,0.2-0.8,0.2-1.42v-3.89
		h1.23v7.26H32.01z"/>
	<path d="M35.03,66.51v-7.26h1.11v1.1c0.28-0.52,0.54-0.86,0.78-1.02c0.24-0.16,0.5-0.25,0.79-0.25c0.42,0,0.84,0.13,1.26,0.4
		l-0.42,1.14c-0.3-0.18-0.6-0.27-0.9-0.27c-0.27,0-0.51,0.08-0.72,0.24s-0.37,0.39-0.46,0.67c-0.14,0.44-0.21,0.92-0.21,1.44v3.8
		H35.03z"/>
	<path d="M39.71,57.9v-1.42h1.23v1.42H39.71z M39.71,66.51v-7.26h1.23v7.26H39.71z"/>
	<path d="M47.52,66.51v-0.92c-0.46,0.72-1.14,1.08-2.03,1.08c-0.58,0-1.11-0.16-1.6-0.48c-0.49-0.32-0.86-0.76-1.13-1.34
		c-0.27-0.57-0.4-1.23-0.4-1.97c0-0.72,0.12-1.38,0.36-1.97s0.6-1.04,1.09-1.36s1.02-0.47,1.62-0.47c0.44,0,0.83,0.09,1.17,0.28
		s0.62,0.42,0.83,0.72v-3.6h1.22v10.02H47.52z M43.63,62.88c0,0.93,0.2,1.62,0.59,2.09c0.39,0.46,0.85,0.69,1.39,0.69
		c0.54,0,1-0.22,1.37-0.66c0.38-0.44,0.56-1.11,0.56-2.01c0-0.99-0.19-1.72-0.57-2.19s-0.85-0.7-1.42-0.7c-0.55,0-1,0.22-1.37,0.67
		C43.82,61.22,43.63,61.92,43.63,62.88z"/>
	<path d="M55.34,65.61c-0.46,0.39-0.89,0.66-1.32,0.82c-0.42,0.16-0.87,0.24-1.36,0.24c-0.8,0-1.41-0.19-1.84-0.58
		s-0.64-0.89-0.64-1.49c0-0.36,0.08-0.68,0.24-0.97c0.16-0.29,0.37-0.53,0.64-0.71c0.26-0.18,0.56-0.31,0.88-0.4
		c0.24-0.06,0.61-0.13,1.09-0.19c0.99-0.12,1.72-0.26,2.19-0.42c0-0.17,0.01-0.28,0.01-0.32c0-0.5-0.12-0.86-0.35-1.06
		c-0.31-0.28-0.78-0.42-1.4-0.42c-0.58,0-1.01,0.1-1.28,0.3c-0.28,0.2-0.48,0.56-0.61,1.08l-1.2-0.16c0.11-0.52,0.29-0.93,0.54-1.25
		s0.61-0.56,1.09-0.73s1.02-0.26,1.65-0.26c0.62,0,1.12,0.07,1.51,0.22c0.39,0.15,0.67,0.33,0.85,0.55s0.31,0.5,0.38,0.84
		c0.04,0.21,0.06,0.59,0.06,1.13v1.64c0,1.14,0.03,1.87,0.08,2.17c0.05,0.3,0.16,0.59,0.31,0.87h-1.29
		C55.45,66.25,55.37,65.95,55.34,65.61z M55.23,62.86c-0.45,0.18-1.12,0.34-2.01,0.46c-0.51,0.07-0.86,0.15-1.07,0.25
		c-0.21,0.09-0.37,0.22-0.49,0.4c-0.11,0.17-0.17,0.37-0.17,0.58c0,0.33,0.12,0.6,0.37,0.82c0.25,0.22,0.61,0.33,1.09,0.33
		c0.47,0,0.9-0.1,1.26-0.31s0.64-0.49,0.81-0.85c0.13-0.28,0.2-0.69,0.2-1.23V62.86z"/>
	<path d="M63.09,66.51v-0.92c-0.46,0.72-1.14,1.08-2.03,1.08c-0.58,0-1.11-0.16-1.6-0.48c-0.49-0.32-0.86-0.76-1.13-1.34
		c-0.27-0.57-0.4-1.23-0.4-1.97c0-0.72,0.12-1.38,0.36-1.97s0.6-1.04,1.09-1.36s1.02-0.47,1.62-0.47c0.44,0,0.83,0.09,1.17,0.28
		s0.62,0.42,0.83,0.72v-3.6h1.22v10.02H63.09z M59.2,62.88c0,0.93,0.2,1.62,0.59,2.09c0.39,0.46,0.85,0.69,1.39,0.69
		c0.54,0,1-0.22,1.37-0.66c0.38-0.44,0.56-1.11,0.56-2.01c0-0.99-0.19-1.72-0.57-2.19s-0.85-0.7-1.42-0.7c-0.55,0-1,0.22-1.37,0.67
		C59.39,61.22,59.2,61.92,59.2,62.88z"/>
	<path d="M70.42,69.45V56.32h1.07v13.14H70.42z"/>
	<path d="M82.43,62.58V61.4l4.25-0.01v3.72c-0.65,0.52-1.32,0.91-2.02,1.17s-1.4,0.39-2.13,0.39c-0.98,0-1.88-0.21-2.68-0.63
		c-0.8-0.42-1.41-1.03-1.82-1.83c-0.41-0.8-0.62-1.69-0.62-2.67c0-0.97,0.2-1.88,0.61-2.73c0.41-0.85,0.99-1.47,1.76-1.88
		s1.65-0.62,2.65-0.62c0.72,0,1.38,0.12,1.97,0.35c0.58,0.23,1.04,0.56,1.38,0.98c0.33,0.42,0.59,0.97,0.76,1.64l-1.2,0.33
		c-0.15-0.51-0.34-0.91-0.56-1.2c-0.22-0.29-0.54-0.53-0.96-0.7s-0.88-0.26-1.38-0.26c-0.61,0-1.13,0.09-1.57,0.28
		s-0.8,0.43-1.07,0.73c-0.27,0.3-0.48,0.63-0.63,0.99c-0.25,0.62-0.38,1.29-0.38,2.02c0,0.89,0.15,1.64,0.46,2.24
		c0.31,0.6,0.75,1.05,1.34,1.34c0.59,0.29,1.21,0.44,1.87,0.44c0.57,0,1.13-0.11,1.68-0.33s0.96-0.46,1.24-0.71v-1.87H82.43z"/>
	<path d="M87.53,66.51l3.85-10.02h1.43l4.1,10.02H95.4l-1.17-3.04h-4.19l-1.1,3.04H87.53z M90.42,62.39h3.4l-1.05-2.78
		c-0.32-0.84-0.56-1.54-0.71-2.08c-0.13,0.64-0.31,1.28-0.54,1.91L90.42,62.39z"/>
	<path d="M97.92,66.51V56.49h3.76c0.77,0,1.38,0.1,1.84,0.3c0.46,0.2,0.82,0.52,1.09,0.94c0.26,0.42,0.39,0.86,0.39,1.32
		c0,0.43-0.12,0.83-0.35,1.21c-0.23,0.38-0.58,0.68-1.05,0.92c0.61,0.18,1.07,0.48,1.4,0.91c0.33,0.43,0.49,0.93,0.49,1.52
		c0,0.47-0.1,0.91-0.3,1.31c-0.2,0.4-0.44,0.71-0.74,0.93s-0.66,0.38-1.1,0.5c-0.44,0.11-0.98,0.17-1.62,0.17H97.92z M99.24,60.7
		h2.17c0.59,0,1.01-0.04,1.26-0.12c0.34-0.1,0.59-0.27,0.76-0.5c0.17-0.23,0.26-0.52,0.26-0.88c0-0.33-0.08-0.62-0.24-0.88
		s-0.39-0.43-0.68-0.52s-0.8-0.14-1.52-0.14h-2V60.7z M99.24,65.33h2.5c0.43,0,0.73-0.02,0.9-0.05c0.3-0.05,0.56-0.15,0.77-0.27
		c0.21-0.13,0.37-0.31,0.51-0.56s0.2-0.53,0.2-0.84c0-0.37-0.1-0.7-0.29-0.97s-0.46-0.47-0.8-0.58c-0.34-0.11-0.83-0.17-1.47-0.17
		h-2.32V65.33z"/>
	<path d="M106.21,66.51l3.85-10.02h1.43l4.1,10.02h-1.51l-1.17-3.04h-4.19l-1.1,3.04H106.21z M109.1,62.39h3.4l-1.05-2.78
		c-0.32-0.84-0.56-1.54-0.71-2.08c-0.13,0.64-0.31,1.28-0.54,1.91L109.1,62.39z"/>
	<path d="M116.67,66.51V56.49h4.44c0.89,0,1.57,0.09,2.04,0.27s0.84,0.5,1.11,0.95c0.28,0.46,0.42,0.96,0.42,1.51
		c0,0.71-0.23,1.31-0.69,1.8c-0.46,0.49-1.17,0.8-2.13,0.93c0.35,0.17,0.62,0.33,0.8,0.5c0.39,0.36,0.75,0.8,1.1,1.33l1.74,2.73
		h-1.67l-1.33-2.08c-0.39-0.6-0.71-1.06-0.96-1.38c-0.25-0.32-0.47-0.54-0.67-0.67c-0.2-0.13-0.4-0.22-0.6-0.27
		c-0.15-0.03-0.4-0.05-0.74-0.05h-1.54v4.45H116.67z M117.99,60.91h2.85c0.61,0,1.08-0.06,1.42-0.19s0.6-0.33,0.78-0.6
		s0.27-0.58,0.27-0.9c0-0.47-0.17-0.86-0.52-1.17c-0.34-0.31-0.89-0.46-1.63-0.46h-3.17V60.91z"/>
</g>
</svg>
