<?xml version="1.0" encoding="utf-8"?>
<!-- Generator: Adobe Illustrator 25.4.1, SVG Export Plug-In . SVG Version: 6.00 Build 0)  -->
<svg version="1.1" id="Capa_1" xmlns="http://www.w3.org/2000/svg" xmlns:xlink="http://www.w3.org/1999/xlink" x="0px" y="0px"
	 viewBox="0 0 252 77.61" style="enable-background:new 0 0 252 77.61;" xml:space="preserve">
<style type="text/css">
	.st0{fill:#3F3E3E;}
</style>
<g>
	<path d="M2.89,22.86V10.79h2.46v10.02h6.11v2.05H2.89z"/>
	<path d="M13.19,22.86v-2.33h2.33v2.33H13.19z"/>
	<path d="M28.9,22.86h-2.67l-1.06-2.76H20.3l-1,2.76h-2.61l4.74-12.17h2.6L28.9,22.86z M24.38,18.04l-1.68-4.52l-1.64,4.52H24.38z"
		/>
	<path d="M30.19,22.86v-2.33h2.33v2.33H30.19z"/>
	<path d="M37.67,22.86V12.75h-3.61v-2.06h9.67v2.06h-3.6v10.11H37.67z"/>
	<path d="M43.41,22.86v-2.33h2.33v2.33H43.41z"/>
	<path d="M48.08,22.86V10.69h2.46v12.17H48.08z"/>
	<path d="M52.86,22.86v-2.33h2.33v2.33H52.86z"/>
	<path d="M61.7,18.9l2.39-0.23c0.14,0.8,0.44,1.39,0.88,1.77S66,21,66.75,21c0.79,0,1.39-0.17,1.79-0.5c0.4-0.33,0.6-0.73,0.6-1.17
		c0-0.29-0.08-0.53-0.25-0.73c-0.17-0.2-0.46-0.38-0.88-0.53c-0.29-0.1-0.94-0.28-1.97-0.53c-1.32-0.33-2.24-0.73-2.77-1.2
		c-0.75-0.67-1.12-1.49-1.12-2.45c0-0.62,0.18-1.2,0.53-1.74c0.35-0.54,0.86-0.95,1.52-1.23c0.66-0.28,1.46-0.42,2.39-0.42
		c1.53,0,2.68,0.34,3.45,1c0.77,0.67,1.18,1.56,1.21,2.68l-2.46,0.11c-0.1-0.63-0.33-1.08-0.68-1.35c-0.35-0.27-0.87-0.41-1.56-0.41
		c-0.71,0-1.27,0.15-1.68,0.44c-0.26,0.19-0.39,0.44-0.39,0.75c0,0.29,0.12,0.53,0.37,0.74c0.31,0.26,1.06,0.53,2.26,0.81
		c1.2,0.28,2.08,0.57,2.65,0.88c0.57,0.3,1.02,0.71,1.34,1.24c0.32,0.52,0.49,1.17,0.49,1.94c0,0.7-0.19,1.35-0.58,1.96
		c-0.39,0.61-0.93,1.06-1.64,1.36c-0.71,0.3-1.59,0.44-2.65,0.44c-1.54,0-2.72-0.36-3.54-1.07C62.35,21.3,61.86,20.26,61.7,18.9z"/>
	<path d="M78.75,20.05l2.32,0.39c-0.3,0.85-0.77,1.5-1.41,1.95c-0.65,0.45-1.45,0.67-2.42,0.67c-1.53,0-2.67-0.5-3.4-1.5
		c-0.58-0.8-0.87-1.82-0.87-3.04c0-1.46,0.38-2.6,1.15-3.43c0.76-0.83,1.73-1.24,2.9-1.24c1.31,0,2.35,0.43,3.1,1.3
		c0.76,0.87,1.12,2.19,1.09,3.98h-5.84c0.02,0.69,0.21,1.23,0.56,1.61s0.81,0.58,1.34,0.58c0.37,0,0.67-0.1,0.92-0.3
		C78.43,20.82,78.62,20.49,78.75,20.05z M78.88,17.7c-0.02-0.67-0.19-1.19-0.52-1.54c-0.33-0.35-0.74-0.53-1.21-0.53
		c-0.51,0-0.93,0.19-1.26,0.56c-0.33,0.37-0.5,0.88-0.49,1.51H78.88z"/>
	<path d="M83.1,22.86V10.69h2.33v12.17H83.1z"/>
	<path d="M92.93,20.05l2.32,0.39c-0.3,0.85-0.77,1.5-1.41,1.95c-0.65,0.45-1.45,0.67-2.42,0.67c-1.53,0-2.67-0.5-3.4-1.5
		c-0.58-0.8-0.87-1.82-0.87-3.04c0-1.46,0.38-2.6,1.15-3.43c0.76-0.83,1.73-1.24,2.9-1.24c1.31,0,2.35,0.43,3.1,1.3
		c0.76,0.87,1.12,2.19,1.09,3.98h-5.84c0.02,0.69,0.21,1.23,0.56,1.61s0.81,0.58,1.34,0.58c0.37,0,0.67-0.1,0.92-0.3
		C92.61,20.82,92.8,20.49,92.93,20.05z M93.06,17.7c-0.02-0.67-0.19-1.19-0.52-1.54c-0.33-0.35-0.74-0.53-1.21-0.53
		c-0.51,0-0.93,0.19-1.26,0.56c-0.33,0.37-0.5,0.88-0.49,1.51H93.06z"/>
	<path d="M105.3,22.86h-2.33v-4.5c0-0.95-0.05-1.57-0.15-1.85s-0.26-0.5-0.49-0.65c-0.22-0.15-0.49-0.23-0.81-0.23
		c-0.4,0-0.77,0.11-1.09,0.33c-0.32,0.22-0.54,0.52-0.66,0.88c-0.12,0.37-0.18,1.04-0.18,2.03v3.99h-2.33v-8.82h2.17v1.29
		c0.77-1,1.74-1.49,2.91-1.49c0.51,0,0.99,0.09,1.41,0.28s0.75,0.42,0.97,0.71c0.22,0.29,0.37,0.62,0.46,0.98
		c0.09,0.37,0.13,0.89,0.13,1.57V22.86z"/>
	<path d="M112.77,20.05l2.32,0.39c-0.3,0.85-0.77,1.5-1.42,1.95s-1.45,0.67-2.42,0.67c-1.53,0-2.67-0.5-3.4-1.5
		c-0.58-0.8-0.87-1.82-0.87-3.04c0-1.46,0.38-2.6,1.15-3.43c0.76-0.83,1.73-1.24,2.9-1.24c1.31,0,2.35,0.43,3.11,1.3
		c0.76,0.87,1.12,2.19,1.09,3.98h-5.84c0.02,0.69,0.2,1.23,0.56,1.61s0.81,0.58,1.34,0.58c0.37,0,0.67-0.1,0.92-0.3
		C112.45,20.82,112.64,20.49,112.77,20.05z M112.9,17.7c-0.02-0.67-0.19-1.19-0.52-1.54c-0.33-0.35-0.74-0.53-1.21-0.53
		c-0.51,0-0.93,0.19-1.26,0.56c-0.33,0.37-0.5,0.88-0.49,1.51H112.9z"/>
	<path d="M121.78,22.86V10.69h2.46v12.17H121.78z"/>
	<path d="M134.58,22.86h-2.33v-4.5c0-0.95-0.05-1.57-0.15-1.85s-0.26-0.5-0.49-0.65c-0.22-0.15-0.49-0.23-0.81-0.23
		c-0.4,0-0.77,0.11-1.09,0.33c-0.32,0.22-0.54,0.52-0.66,0.88c-0.12,0.37-0.18,1.04-0.18,2.03v3.99h-2.33v-8.82h2.17v1.29
		c0.77-1,1.74-1.49,2.91-1.49c0.51,0,0.99,0.09,1.41,0.28s0.75,0.42,0.97,0.71c0.22,0.29,0.37,0.62,0.46,0.98
		c0.09,0.37,0.13,0.89,0.13,1.57V22.86z"/>
	<path d="M140.99,14.04v1.86h-1.59v3.55c0,0.72,0.01,1.14,0.04,1.26c0.03,0.12,0.1,0.22,0.21,0.29c0.11,0.08,0.24,0.12,0.39,0.12
		c0.22,0,0.53-0.08,0.94-0.22l0.2,1.81c-0.54,0.23-1.16,0.35-1.84,0.35c-0.42,0-0.8-0.07-1.14-0.21c-0.34-0.14-0.59-0.32-0.74-0.55
		c-0.16-0.22-0.27-0.53-0.33-0.91c-0.05-0.27-0.08-0.82-0.08-1.64V15.9h-1.07v-1.86h1.07v-1.75l2.34-1.36v3.11H140.99z"/>
	<path d="M147.71,20.05l2.32,0.39c-0.3,0.85-0.77,1.5-1.41,1.95c-0.65,0.45-1.45,0.67-2.42,0.67c-1.53,0-2.67-0.5-3.4-1.5
		c-0.58-0.8-0.87-1.82-0.87-3.04c0-1.46,0.38-2.6,1.15-3.43c0.76-0.83,1.73-1.24,2.9-1.24c1.31,0,2.35,0.43,3.1,1.3
		c0.76,0.87,1.12,2.19,1.09,3.98h-5.84c0.02,0.69,0.21,1.23,0.56,1.61s0.81,0.58,1.34,0.58c0.37,0,0.67-0.1,0.92-0.3
		C147.4,20.82,147.58,20.49,147.71,20.05z M147.84,17.7c-0.02-0.67-0.19-1.19-0.52-1.54c-0.33-0.35-0.74-0.53-1.21-0.53
		c-0.51,0-0.93,0.19-1.26,0.56c-0.33,0.37-0.5,0.88-0.49,1.51H147.84z"/>
	<path d="M154.29,22.86h-2.33v-8.82h2.17v1.25c0.37-0.59,0.7-0.98,1-1.17s0.63-0.28,1.01-0.28c0.53,0,1.04,0.15,1.54,0.44
		l-0.72,2.03c-0.39-0.25-0.76-0.38-1.1-0.38c-0.33,0-0.6,0.09-0.83,0.27c-0.23,0.18-0.41,0.5-0.54,0.98s-0.2,1.46-0.2,2.96V22.86z"
		/>
	<path d="M158.68,12.85v-2.16h2.33v2.16H158.68z M158.68,22.86v-8.82h2.33v8.82H158.68z"/>
	<path d="M165.14,16.73l-2.12-0.38c0.24-0.85,0.65-1.48,1.23-1.89s1.44-0.61,2.59-0.61c1.04,0,1.82,0.12,2.32,0.37
		c0.51,0.25,0.87,0.56,1.08,0.94c0.21,0.38,0.31,1.07,0.31,2.09l-0.02,2.72c0,0.77,0.04,1.35,0.11,1.71
		c0.07,0.37,0.21,0.76,0.42,1.18h-2.31c-0.06-0.15-0.14-0.38-0.22-0.69c-0.04-0.14-0.07-0.23-0.08-0.27
		c-0.4,0.39-0.83,0.68-1.28,0.87c-0.45,0.19-0.94,0.29-1.45,0.29c-0.91,0-1.62-0.25-2.15-0.74c-0.52-0.49-0.79-1.12-0.79-1.87
		c0-0.5,0.12-0.94,0.36-1.33c0.24-0.39,0.57-0.69,1-0.9c0.43-0.21,1.05-0.39,1.86-0.54c1.09-0.21,1.85-0.4,2.27-0.57v-0.23
		c0-0.45-0.11-0.77-0.33-0.96c-0.22-0.19-0.64-0.29-1.25-0.29c-0.42,0-0.74,0.08-0.97,0.25C165.48,16.04,165.29,16.32,165.14,16.73z
		 M168.26,18.62c-0.3,0.1-0.77,0.22-1.42,0.36c-0.65,0.14-1.07,0.27-1.27,0.41c-0.3,0.22-0.46,0.49-0.46,0.82
		c0,0.33,0.12,0.61,0.37,0.85c0.24,0.24,0.55,0.36,0.93,0.36c0.42,0,0.82-0.14,1.2-0.42c0.28-0.21,0.47-0.47,0.56-0.77
		c0.06-0.2,0.09-0.58,0.09-1.14V18.62z"/>
	<path d="M180.87,22.86h-2.33v-4.5c0-0.95-0.05-1.57-0.15-1.85s-0.26-0.5-0.48-0.65c-0.22-0.15-0.49-0.23-0.81-0.23
		c-0.4,0-0.77,0.11-1.09,0.33c-0.32,0.22-0.54,0.52-0.66,0.88c-0.12,0.37-0.18,1.04-0.18,2.03v3.99h-2.33v-8.82H175v1.29
		c0.77-1,1.74-1.49,2.91-1.49c0.51,0,0.98,0.09,1.41,0.28c0.43,0.19,0.75,0.42,0.97,0.71c0.22,0.29,0.37,0.62,0.46,0.98
		c0.09,0.37,0.13,0.89,0.13,1.57V22.86z"/>
	<path d="M186.74,22.86l4.16-6.35l-3.77-5.82H190l2.44,3.91l2.39-3.91h2.85l-3.79,5.91l4.16,6.26h-2.96l-2.7-4.21l-2.71,4.21H186.74
		z"/>
	<path d="M198.76,18.33c0-0.77,0.19-1.52,0.57-2.25c0.38-0.73,0.92-1.28,1.62-1.66c0.7-0.38,1.48-0.57,2.34-0.57
		c1.33,0,2.43,0.43,3.28,1.3c0.85,0.87,1.28,1.96,1.28,3.28c0,1.33-0.43,2.44-1.29,3.32c-0.86,0.88-1.94,1.32-3.25,1.32
		c-0.81,0-1.58-0.18-2.31-0.55c-0.73-0.37-1.29-0.9-1.67-1.61C198.95,20.2,198.76,19.34,198.76,18.33z M201.15,18.45
		c0,0.88,0.21,1.54,0.62,2.01s0.93,0.7,1.54,0.7c0.61,0,1.12-0.23,1.53-0.7s0.62-1.14,0.62-2.03c0-0.86-0.21-1.53-0.62-1.99
		c-0.41-0.46-0.92-0.7-1.53-0.7c-0.61,0-1.12,0.23-1.54,0.7C201.36,16.91,201.15,17.58,201.15,18.45z"/>
	<path d="M209.15,18.33c0-0.77,0.19-1.52,0.57-2.25c0.38-0.73,0.92-1.28,1.62-1.66c0.7-0.38,1.48-0.57,2.34-0.57
		c1.33,0,2.43,0.43,3.28,1.3c0.85,0.87,1.28,1.96,1.28,3.28c0,1.33-0.43,2.44-1.29,3.32c-0.86,0.88-1.94,1.32-3.25,1.32
		c-0.81,0-1.58-0.18-2.31-0.55c-0.73-0.37-1.29-0.9-1.67-1.61C209.34,20.2,209.15,19.34,209.15,18.33z M211.54,18.45
		c0,0.88,0.21,1.54,0.62,2.01c0.42,0.46,0.93,0.7,1.54,0.7s1.12-0.23,1.53-0.7c0.41-0.46,0.62-1.14,0.62-2.03
		c0-0.86-0.21-1.53-0.62-1.99c-0.41-0.46-0.92-0.7-1.53-0.7s-1.12,0.23-1.54,0.7C211.74,16.91,211.54,17.58,211.54,18.45z"/>
	<path d="M220.07,22.86V10.69h2.33v12.17H220.07z"/>
</g>
<g>
	<path d="M9.77,41.22l1.33,0.33c-0.28,1.09-0.78,1.92-1.5,2.49c-0.72,0.57-1.61,0.86-2.65,0.86c-1.08,0-1.96-0.22-2.63-0.66
		c-0.68-0.44-1.19-1.08-1.54-1.91c-0.35-0.83-0.53-1.73-0.53-2.69c0-1.04,0.2-1.95,0.6-2.73c0.4-0.78,0.97-1.37,1.7-1.77
		c0.74-0.4,1.55-0.61,2.43-0.61c1,0,1.85,0.26,2.53,0.77s1.16,1.23,1.43,2.15l-1.31,0.31c-0.23-0.73-0.57-1.26-1.01-1.59
		c-0.44-0.33-1-0.5-1.67-0.5c-0.77,0-1.41,0.18-1.93,0.55c-0.52,0.37-0.88,0.86-1.09,1.49c-0.21,0.62-0.31,1.26-0.31,1.92
		c0,0.85,0.12,1.6,0.37,2.23c0.25,0.63,0.63,1.11,1.16,1.42c0.52,0.31,1.09,0.47,1.7,0.47c0.74,0,1.37-0.21,1.89-0.64
		C9.24,42.7,9.59,42.06,9.77,41.22z"/>
	<path d="M12.12,41.1c0-1.34,0.37-2.34,1.12-2.99c0.62-0.54,1.39-0.81,2.28-0.81c1,0,1.81,0.33,2.45,0.98
		c0.63,0.65,0.95,1.56,0.95,2.71c0,0.93-0.14,1.67-0.42,2.2c-0.28,0.54-0.69,0.95-1.22,1.25c-0.54,0.3-1.12,0.44-1.75,0.44
		c-1.02,0-1.84-0.33-2.46-0.98C12.43,43.27,12.12,42.33,12.12,41.1z M13.38,41.1c0,0.93,0.2,1.63,0.61,2.09
		c0.41,0.46,0.92,0.69,1.53,0.69c0.61,0,1.12-0.23,1.52-0.7c0.41-0.46,0.61-1.17,0.61-2.13c0-0.9-0.2-1.58-0.61-2.04
		c-0.41-0.46-0.92-0.69-1.52-0.69c-0.62,0-1.12,0.23-1.53,0.69C13.58,39.48,13.38,40.17,13.38,41.1z"/>
	<path d="M19.9,41.1c0-1.34,0.37-2.34,1.12-2.99c0.62-0.54,1.39-0.81,2.28-0.81c1,0,1.81,0.33,2.45,0.98
		c0.63,0.65,0.95,1.56,0.95,2.71c0,0.93-0.14,1.67-0.42,2.2c-0.28,0.54-0.69,0.95-1.22,1.25c-0.54,0.3-1.12,0.44-1.75,0.44
		c-1.02,0-1.84-0.33-2.46-0.98C20.22,43.27,19.9,42.33,19.9,41.1z M21.17,41.1c0,0.93,0.2,1.63,0.61,2.09
		c0.41,0.46,0.92,0.69,1.53,0.69c0.61,0,1.12-0.23,1.52-0.7c0.41-0.46,0.61-1.17,0.61-2.13c0-0.9-0.2-1.58-0.61-2.04
		c-0.41-0.46-0.92-0.69-1.52-0.69c-0.62,0-1.12,0.23-1.53,0.69C21.37,39.48,21.17,40.17,21.17,41.1z"/>
	<path d="M28.13,44.73v-7.26h1.11v1.1c0.28-0.52,0.54-0.85,0.78-1.02s0.5-0.25,0.79-0.25c0.42,0,0.84,0.13,1.26,0.4l-0.42,1.14
		c-0.3-0.18-0.6-0.27-0.9-0.27c-0.27,0-0.51,0.08-0.72,0.24c-0.21,0.16-0.37,0.39-0.46,0.67c-0.14,0.44-0.21,0.92-0.21,1.44v3.8
		H28.13z"/>
	<path d="M37.52,44.73v-0.92c-0.46,0.72-1.14,1.08-2.03,1.08c-0.58,0-1.11-0.16-1.6-0.48s-0.86-0.76-1.13-1.34
		c-0.27-0.57-0.4-1.23-0.4-1.97c0-0.72,0.12-1.38,0.36-1.97c0.24-0.59,0.6-1.04,1.09-1.36c0.48-0.31,1.02-0.47,1.62-0.47
		c0.44,0,0.83,0.09,1.17,0.28c0.34,0.19,0.62,0.43,0.83,0.72v-3.6h1.22v10.02H37.52z M33.63,41.11c0,0.93,0.2,1.62,0.59,2.08
		c0.39,0.46,0.85,0.69,1.39,0.69c0.54,0,1-0.22,1.37-0.66c0.38-0.44,0.56-1.11,0.56-2.01c0-0.99-0.19-1.72-0.57-2.19
		s-0.85-0.7-1.42-0.7c-0.55,0-1,0.22-1.37,0.67C33.81,39.45,33.63,40.15,33.63,41.11z"/>
	<path d="M40.6,36.13v-1.42h1.23v1.42H40.6z M40.6,44.73v-7.26h1.23v7.26H40.6z"/>
	<path d="M43.71,44.73v-7.26h1.11v1.03c0.53-0.8,1.3-1.2,2.31-1.2c0.44,0,0.84,0.08,1.21,0.24c0.37,0.16,0.64,0.36,0.82,0.62
		c0.18,0.26,0.31,0.56,0.38,0.91c0.05,0.23,0.07,0.63,0.07,1.2v4.46h-1.23v-4.42c0-0.5-0.05-0.88-0.14-1.12
		c-0.1-0.25-0.27-0.45-0.51-0.6c-0.24-0.15-0.53-0.22-0.86-0.22c-0.52,0-0.98,0.17-1.36,0.5c-0.38,0.33-0.57,0.96-0.57,1.89v3.96
		H43.71z"/>
	<path d="M56.23,43.84c-0.46,0.39-0.89,0.66-1.32,0.82c-0.42,0.16-0.87,0.24-1.36,0.24c-0.8,0-1.41-0.19-1.84-0.58
		c-0.43-0.39-0.64-0.89-0.64-1.49c0-0.36,0.08-0.68,0.24-0.97c0.16-0.29,0.37-0.53,0.64-0.71c0.26-0.18,0.56-0.31,0.88-0.4
		c0.24-0.06,0.61-0.12,1.09-0.18c0.99-0.12,1.73-0.26,2.19-0.42c0-0.17,0.01-0.28,0.01-0.32c0-0.5-0.12-0.85-0.35-1.06
		c-0.31-0.28-0.78-0.42-1.4-0.42c-0.58,0-1.01,0.1-1.28,0.3c-0.28,0.2-0.48,0.56-0.61,1.08l-1.2-0.16c0.11-0.52,0.29-0.93,0.54-1.25
		c0.25-0.32,0.61-0.56,1.09-0.73c0.47-0.17,1.02-0.26,1.65-0.26c0.62,0,1.12,0.07,1.51,0.22c0.39,0.15,0.67,0.33,0.85,0.55
		c0.18,0.22,0.31,0.5,0.38,0.84c0.04,0.21,0.06,0.59,0.06,1.13v1.64c0,1.14,0.03,1.87,0.08,2.17c0.05,0.3,0.16,0.59,0.31,0.87h-1.29
		C56.35,44.48,56.27,44.18,56.23,43.84z M56.13,41.09c-0.45,0.18-1.12,0.34-2.01,0.46c-0.51,0.07-0.86,0.15-1.07,0.25
		c-0.21,0.09-0.37,0.22-0.49,0.4c-0.11,0.17-0.17,0.37-0.17,0.58c0,0.33,0.12,0.6,0.37,0.82c0.25,0.22,0.61,0.33,1.09,0.33
		c0.47,0,0.9-0.1,1.26-0.31c0.37-0.21,0.64-0.49,0.81-0.85c0.13-0.28,0.2-0.69,0.2-1.23V41.09z"/>
	<path d="M63.99,44.73v-0.92c-0.46,0.72-1.14,1.08-2.03,1.08c-0.58,0-1.11-0.16-1.6-0.48s-0.86-0.76-1.13-1.34
		c-0.27-0.57-0.4-1.23-0.4-1.97c0-0.72,0.12-1.38,0.36-1.97c0.24-0.59,0.6-1.04,1.09-1.36c0.48-0.31,1.02-0.47,1.62-0.47
		c0.44,0,0.83,0.09,1.17,0.28c0.34,0.19,0.62,0.43,0.83,0.72v-3.6h1.22v10.02H63.99z M60.1,41.11c0,0.93,0.2,1.62,0.59,2.08
		c0.39,0.46,0.85,0.69,1.39,0.69c0.54,0,1-0.22,1.37-0.66c0.38-0.44,0.56-1.11,0.56-2.01c0-0.99-0.19-1.72-0.57-2.19
		s-0.85-0.7-1.42-0.7c-0.55,0-1,0.22-1.37,0.67C60.28,39.45,60.1,40.15,60.1,41.11z"/>
	<path d="M66.61,41.1c0-1.34,0.37-2.34,1.12-2.99c0.62-0.54,1.39-0.81,2.28-0.81c1,0,1.81,0.33,2.45,0.98
		c0.63,0.65,0.95,1.56,0.95,2.71c0,0.93-0.14,1.67-0.42,2.2c-0.28,0.54-0.69,0.95-1.22,1.25c-0.54,0.3-1.12,0.44-1.75,0.44
		c-1.02,0-1.84-0.33-2.46-0.98C66.92,43.27,66.61,42.33,66.61,41.1z M67.87,41.1c0,0.93,0.2,1.63,0.61,2.09
		c0.41,0.46,0.92,0.69,1.53,0.69c0.61,0,1.12-0.23,1.52-0.7c0.41-0.46,0.61-1.17,0.61-2.13c0-0.9-0.2-1.58-0.61-2.04
		c-0.41-0.46-0.92-0.69-1.52-0.69c-0.62,0-1.12,0.23-1.53,0.69C68.07,39.48,67.87,40.17,67.87,41.1z"/>
	<path d="M74.84,44.73v-7.26h1.11v1.1c0.28-0.52,0.54-0.85,0.78-1.02s0.5-0.25,0.79-0.25c0.42,0,0.84,0.13,1.26,0.4l-0.42,1.14
		c-0.3-0.18-0.6-0.27-0.9-0.27c-0.27,0-0.51,0.08-0.72,0.24c-0.21,0.16-0.37,0.39-0.46,0.67c-0.14,0.44-0.21,0.92-0.21,1.44v3.8
		H74.84z"/>
	<path d="M88.11,44.73v-0.92c-0.46,0.72-1.14,1.08-2.03,1.08c-0.58,0-1.11-0.16-1.6-0.48s-0.86-0.76-1.13-1.34
		c-0.27-0.57-0.4-1.23-0.4-1.97c0-0.72,0.12-1.38,0.36-1.97c0.24-0.59,0.6-1.04,1.09-1.36c0.48-0.31,1.02-0.47,1.62-0.47
		c0.44,0,0.83,0.09,1.17,0.28c0.34,0.19,0.62,0.43,0.83,0.72v-3.6h1.22v10.02H88.11z M84.22,41.11c0,0.93,0.2,1.62,0.59,2.08
		c0.39,0.46,0.85,0.69,1.39,0.69c0.54,0,1-0.22,1.37-0.66c0.38-0.44,0.56-1.11,0.56-2.01c0-0.99-0.19-1.72-0.57-2.19
		s-0.85-0.7-1.42-0.7c-0.55,0-1,0.22-1.37,0.67C84.41,39.45,84.22,40.15,84.22,41.11z"/>
	<path d="M96.16,42.4l1.27,0.16c-0.2,0.74-0.57,1.32-1.11,1.73c-0.54,0.41-1.23,0.62-2.08,0.62c-1.06,0-1.9-0.33-2.53-0.98
		c-0.62-0.65-0.93-1.57-0.93-2.75c0-1.22,0.31-2.17,0.94-2.84s1.45-1.01,2.45-1.01c0.97,0,1.76,0.33,2.38,0.99s0.92,1.59,0.92,2.79
		c0,0.07,0,0.18-0.01,0.33h-5.41c0.05,0.8,0.27,1.41,0.68,1.83c0.41,0.42,0.91,0.64,1.52,0.64c0.45,0,0.84-0.12,1.16-0.36
		C95.72,43.29,95.97,42.92,96.16,42.4z M92.12,40.41h4.05c-0.05-0.61-0.21-1.07-0.46-1.37c-0.39-0.47-0.9-0.71-1.52-0.71
		c-0.56,0-1.04,0.19-1.42,0.57C92.37,39.27,92.16,39.77,92.12,40.41z"/>
	<path d="M105.32,44.73V35.9h-3.3v-1.18h7.94v1.18h-3.32v8.84H105.32z"/>
	<path d="M111.55,44.73V34.71h1.33v10.02H111.55z"/>
</g>
<g>
	<path d="M5.05,66.51v-8.84h-3.3v-1.18h7.94v1.18H6.38v8.84H5.05z"/>
	<path d="M14.31,64.17l1.27,0.16c-0.2,0.74-0.57,1.32-1.11,1.73s-1.24,0.62-2.08,0.62c-1.06,0-1.9-0.33-2.53-0.98
		c-0.62-0.65-0.93-1.57-0.93-2.75c0-1.22,0.31-2.17,0.94-2.84c0.63-0.67,1.44-1.01,2.45-1.01c0.97,0,1.76,0.33,2.38,0.99
		c0.62,0.66,0.92,1.59,0.92,2.79c0,0.07,0,0.18-0.01,0.33H10.2c0.05,0.8,0.27,1.41,0.68,1.83s0.91,0.64,1.52,0.64
		c0.45,0,0.84-0.12,1.16-0.36C13.87,65.07,14.13,64.69,14.31,64.17z M10.27,62.18h4.05c-0.05-0.61-0.21-1.07-0.46-1.37
		c-0.39-0.47-0.9-0.71-1.52-0.71c-0.57,0-1.04,0.19-1.42,0.57C10.53,61.04,10.31,61.55,10.27,62.18z"/>
	<path d="M21.87,63.85l1.21,0.16c-0.13,0.83-0.47,1.49-1.02,1.96c-0.54,0.47-1.21,0.71-2.01,0.71c-0.99,0-1.79-0.33-2.4-0.97
		c-0.6-0.65-0.91-1.58-0.91-2.79c0-0.78,0.13-1.47,0.39-2.06s0.66-1.03,1.19-1.32c0.53-0.29,1.11-0.44,1.73-0.44
		c0.79,0,1.43,0.2,1.93,0.6c0.5,0.4,0.82,0.96,0.96,1.7l-1.2,0.18c-0.11-0.49-0.32-0.85-0.61-1.1c-0.29-0.25-0.64-0.37-1.05-0.37
		c-0.62,0-1.12,0.22-1.51,0.67s-0.58,1.15-0.58,2.11c0,0.97,0.19,1.68,0.56,2.13c0.37,0.44,0.86,0.66,1.46,0.66
		c0.48,0,0.89-0.15,1.21-0.44C21.57,64.92,21.78,64.46,21.87,63.85z"/>
	<path d="M24.13,66.51v-7.26h1.11v1.03c0.53-0.8,1.3-1.2,2.31-1.2c0.44,0,0.84,0.08,1.21,0.24c0.37,0.16,0.64,0.36,0.82,0.62
		c0.18,0.25,0.31,0.56,0.38,0.91c0.05,0.23,0.07,0.63,0.07,1.2v4.46H28.8v-4.42c0-0.5-0.05-0.88-0.14-1.12
		c-0.1-0.25-0.27-0.45-0.51-0.59c-0.24-0.15-0.53-0.22-0.86-0.22c-0.52,0-0.98,0.17-1.36,0.5c-0.38,0.33-0.57,0.96-0.57,1.89v3.96
		H24.13z"/>
	<path d="M31.46,62.88c0-1.34,0.37-2.34,1.12-2.99c0.62-0.54,1.38-0.81,2.28-0.81c1,0,1.81,0.33,2.45,0.98
		c0.63,0.65,0.95,1.56,0.95,2.71c0,0.93-0.14,1.67-0.42,2.2c-0.28,0.54-0.69,0.95-1.22,1.25c-0.54,0.3-1.12,0.44-1.75,0.44
		c-1.02,0-1.84-0.33-2.46-0.98C31.77,65.04,31.46,64.1,31.46,62.88z M32.72,62.88c0,0.93,0.2,1.63,0.61,2.09
		c0.41,0.46,0.92,0.69,1.53,0.69c0.61,0,1.12-0.23,1.52-0.7s0.61-1.17,0.61-2.13c0-0.9-0.2-1.58-0.61-2.04
		c-0.41-0.46-0.92-0.69-1.52-0.69c-0.62,0-1.12,0.23-1.53,0.69C32.92,61.25,32.72,61.95,32.72,62.88z"/>
	<path d="M39.67,66.51V56.49h1.23v10.02H39.67z"/>
	<path d="M42.35,62.88c0-1.34,0.37-2.34,1.12-2.99c0.62-0.54,1.38-0.81,2.28-0.81c1,0,1.81,0.33,2.45,0.98
		c0.63,0.65,0.95,1.56,0.95,2.71c0,0.93-0.14,1.67-0.42,2.2c-0.28,0.54-0.69,0.95-1.22,1.25c-0.54,0.3-1.12,0.44-1.75,0.44
		c-1.02,0-1.84-0.33-2.46-0.98C42.67,65.04,42.35,64.1,42.35,62.88z M43.62,62.88c0,0.93,0.2,1.63,0.61,2.09
		c0.41,0.46,0.92,0.69,1.53,0.69c0.61,0,1.12-0.23,1.52-0.7s0.61-1.17,0.61-2.13c0-0.9-0.2-1.58-0.61-2.04
		c-0.41-0.46-0.92-0.69-1.52-0.69c-0.62,0-1.12,0.23-1.53,0.69C43.82,61.25,43.62,61.95,43.62,62.88z"/>
	<path d="M50.37,67.11l1.2,0.18c0.05,0.37,0.19,0.64,0.42,0.81c0.31,0.23,0.72,0.34,1.25,0.34c0.57,0,1.01-0.11,1.32-0.34
		c0.31-0.23,0.52-0.55,0.63-0.96c0.06-0.25,0.09-0.78,0.09-1.58c-0.54,0.63-1.21,0.95-2.01,0.95c-1,0-1.77-0.36-2.32-1.08
		c-0.55-0.72-0.82-1.58-0.82-2.59c0-0.69,0.13-1.33,0.38-1.92c0.25-0.58,0.61-1.04,1.09-1.36c0.48-0.32,1.04-0.48,1.68-0.48
		c0.86,0,1.56,0.35,2.12,1.04v-0.88h1.13v6.28c0,1.13-0.12,1.93-0.34,2.4c-0.23,0.47-0.6,0.84-1.09,1.12
		c-0.5,0.27-1.11,0.41-1.84,0.41c-0.87,0-1.57-0.2-2.1-0.58S50.35,67.89,50.37,67.11z M51.39,62.75c0,0.95,0.19,1.65,0.57,2.08
		s0.85,0.66,1.42,0.66c0.57,0,1.04-0.22,1.42-0.65c0.38-0.43,0.57-1.12,0.57-2.05c0-0.89-0.2-1.56-0.59-2.01
		c-0.39-0.45-0.87-0.68-1.43-0.68c-0.55,0-1.01,0.22-1.39,0.67S51.39,61.87,51.39,62.75z"/>
	<path d="M58.75,58.35l0.91-1.91h1.61l-1.5,1.91H58.75z M58.81,66.51v-7.26h1.23v7.26H58.81z"/>
	<path d="M67.01,65.61c-0.46,0.39-0.89,0.66-1.32,0.82c-0.42,0.16-0.88,0.24-1.36,0.24c-0.8,0-1.41-0.2-1.84-0.58
		s-0.64-0.89-0.64-1.49c0-0.36,0.08-0.68,0.24-0.97c0.16-0.29,0.37-0.53,0.63-0.71c0.26-0.18,0.56-0.31,0.89-0.4
		c0.24-0.06,0.61-0.13,1.09-0.18c0.99-0.12,1.73-0.26,2.19-0.42c0-0.17,0.01-0.28,0.01-0.32c0-0.5-0.12-0.85-0.35-1.06
		c-0.31-0.28-0.78-0.42-1.4-0.42c-0.58,0-1.01,0.1-1.28,0.3c-0.28,0.2-0.48,0.56-0.61,1.08l-1.2-0.16c0.11-0.52,0.29-0.93,0.54-1.25
		c0.25-0.32,0.61-0.56,1.09-0.73s1.02-0.26,1.65-0.26c0.62,0,1.12,0.07,1.51,0.22c0.39,0.15,0.67,0.33,0.85,0.55
		c0.18,0.22,0.31,0.5,0.38,0.84c0.04,0.21,0.06,0.59,0.06,1.13v1.64c0,1.14,0.03,1.87,0.08,2.17c0.05,0.3,0.16,0.59,0.31,0.87h-1.29
		C67.13,66.25,67.05,65.95,67.01,65.61z M66.91,62.86c-0.45,0.18-1.12,0.34-2.01,0.46c-0.51,0.07-0.86,0.15-1.07,0.25
		c-0.21,0.09-0.37,0.22-0.49,0.4c-0.11,0.18-0.17,0.37-0.17,0.58c0,0.33,0.12,0.6,0.37,0.82c0.25,0.22,0.61,0.33,1.09,0.33
		c0.47,0,0.9-0.1,1.26-0.31c0.37-0.21,0.64-0.49,0.81-0.85c0.13-0.28,0.2-0.69,0.2-1.23V62.86z"/>
	<path d="M74.31,69.45V56.32h1.07v13.14H74.31z"/>
	<path d="M86.32,62.58V61.4l4.25-0.01v3.72c-0.65,0.52-1.32,0.91-2.02,1.17c-0.69,0.26-1.4,0.39-2.13,0.39
		c-0.98,0-1.88-0.21-2.68-0.63c-0.8-0.42-1.41-1.03-1.82-1.83c-0.41-0.8-0.62-1.69-0.62-2.67c0-0.98,0.2-1.89,0.61-2.73
		c0.41-0.84,0.99-1.47,1.76-1.88s1.65-0.62,2.65-0.62c0.72,0,1.38,0.12,1.97,0.35c0.58,0.24,1.04,0.56,1.38,0.98
		c0.33,0.42,0.59,0.97,0.76,1.64l-1.2,0.33c-0.15-0.51-0.34-0.91-0.56-1.2c-0.22-0.29-0.54-0.53-0.96-0.7
		c-0.41-0.17-0.88-0.26-1.38-0.26c-0.61,0-1.13,0.09-1.57,0.28s-0.8,0.43-1.07,0.73c-0.27,0.3-0.48,0.63-0.63,0.99
		c-0.25,0.62-0.38,1.29-0.38,2.02c0,0.89,0.15,1.64,0.46,2.24c0.31,0.6,0.75,1.05,1.34,1.34c0.59,0.29,1.21,0.44,1.87,0.44
		c0.57,0,1.13-0.11,1.68-0.33c0.55-0.22,0.96-0.46,1.24-0.71v-1.87H86.32z"/>
	<path d="M91.42,66.51l3.85-10.02h1.43l4.1,10.02h-1.51l-1.17-3.04h-4.19l-1.1,3.04H91.42z M94.31,62.39h3.4l-1.05-2.78
		c-0.32-0.84-0.56-1.54-0.71-2.08c-0.13,0.64-0.31,1.28-0.54,1.91L94.31,62.39z"/>
	<path d="M101.81,66.51V56.49h3.76c0.77,0,1.38,0.1,1.84,0.3c0.46,0.2,0.82,0.52,1.09,0.94c0.26,0.42,0.39,0.86,0.39,1.32
		c0,0.43-0.12,0.83-0.35,1.21c-0.23,0.38-0.58,0.68-1.05,0.92c0.61,0.18,1.07,0.48,1.4,0.91c0.33,0.43,0.49,0.93,0.49,1.52
		c0,0.47-0.1,0.91-0.3,1.31c-0.2,0.4-0.44,0.71-0.74,0.93s-0.66,0.38-1.1,0.5c-0.44,0.11-0.98,0.17-1.62,0.17H101.81z M103.13,60.7
		h2.17c0.59,0,1.01-0.04,1.26-0.12c0.34-0.1,0.59-0.27,0.76-0.5c0.17-0.23,0.26-0.52,0.26-0.88c0-0.33-0.08-0.63-0.24-0.88
		s-0.39-0.43-0.68-0.52c-0.3-0.09-0.8-0.14-1.52-0.14h-2V60.7z M103.13,65.32h2.5c0.43,0,0.73-0.02,0.9-0.05
		c0.3-0.05,0.56-0.15,0.77-0.27c0.21-0.13,0.37-0.31,0.51-0.56c0.13-0.24,0.2-0.53,0.2-0.84c0-0.37-0.1-0.7-0.29-0.97
		c-0.19-0.28-0.46-0.47-0.8-0.58c-0.34-0.11-0.83-0.17-1.47-0.17h-2.32V65.32z"/>
	<path d="M110.1,66.51l3.85-10.02h1.43l4.1,10.02h-1.51l-1.17-3.04h-4.19l-1.1,3.04H110.1z M112.99,62.39h3.4l-1.05-2.78
		c-0.32-0.84-0.56-1.54-0.71-2.08c-0.13,0.64-0.31,1.28-0.54,1.91L112.99,62.39z"/>
	<path d="M120.56,66.51V56.49H125c0.89,0,1.57,0.09,2.04,0.27c0.46,0.18,0.84,0.5,1.11,0.95c0.28,0.46,0.42,0.96,0.42,1.51
		c0,0.71-0.23,1.31-0.69,1.8c-0.46,0.49-1.17,0.8-2.13,0.93c0.35,0.17,0.62,0.33,0.8,0.5c0.39,0.36,0.75,0.8,1.1,1.33l1.74,2.73
		h-1.67l-1.33-2.08c-0.39-0.6-0.71-1.06-0.96-1.38c-0.25-0.32-0.47-0.54-0.67-0.67c-0.2-0.13-0.4-0.22-0.6-0.27
		c-0.15-0.03-0.4-0.05-0.74-0.05h-1.54v4.45H120.56z M121.88,60.91h2.85c0.61,0,1.08-0.06,1.42-0.19c0.34-0.12,0.6-0.33,0.78-0.6
		c0.18-0.28,0.27-0.58,0.27-0.9c0-0.47-0.17-0.86-0.52-1.17c-0.34-0.31-0.89-0.46-1.63-0.46h-3.17V60.91z"/>
</g>
</svg>
