<?xml version="1.0" encoding="utf-8"?>
<!-- Generator: Adobe Illustrator 25.4.1, SVG Export Plug-In . SVG Version: 6.00 Build 0)  -->
<svg version="1.1" id="Capa_1" xmlns="http://www.w3.org/2000/svg" xmlns:xlink="http://www.w3.org/1999/xlink" x="0px" y="0px"
	 viewBox="0 0 72 9" style="enable-background:new 0 0 72 9;" xml:space="preserve">
<style type="text/css">
	.st0{fill:#3F3E3E;}
</style>
<g>
	<path class="st0" d="M3.2-0.07C2.86,0.65,2.61,1.38,2.44,2.14C2.27,2.9,2.19,3.66,2.19,4.43c0,0.77,0.08,1.53,0.26,2.29
		c0.17,0.76,0.42,1.5,0.74,2.22c0.02,0.04,0.03,0.08,0.03,0.11c0,0.03-0.01,0.06-0.04,0.08S3.12,9.16,3.07,9.17
		C3.02,9.18,2.94,9.18,2.85,9.18c-0.06,0-0.12,0-0.17-0.01S2.6,9.16,2.57,9.15C2.53,9.14,2.51,9.13,2.48,9.12
		C2.46,9.1,2.45,9.08,2.44,9.07C2.24,8.7,2.07,8.33,1.93,7.96S1.66,7.2,1.56,6.82S1.38,6.04,1.33,5.64s-0.08-0.8-0.08-1.2
		c0-0.4,0.03-0.8,0.08-1.2c0.06-0.39,0.13-0.79,0.24-1.17C1.68,1.68,1.8,1.3,1.95,0.92s0.31-0.75,0.49-1.12
		c0-0.01,0.01-0.03,0.03-0.04c0.02-0.01,0.04-0.02,0.07-0.03c0.03-0.01,0.07-0.02,0.12-0.02c0.05-0.01,0.11-0.01,0.19-0.01
		c0.08,0,0.15,0,0.2,0.02s0.09,0.03,0.12,0.04s0.04,0.04,0.05,0.07C3.22-0.14,3.21-0.11,3.2-0.07z"/>
	<path class="st0" d="M8.89,3.58c0,0.3-0.02,0.61-0.05,0.91s-0.1,0.6-0.18,0.89c-0.09,0.29-0.2,0.55-0.35,0.8
		C8.16,6.43,7.98,6.65,7.76,6.83C7.54,7.02,7.28,7.17,6.98,7.27c-0.3,0.11-0.65,0.16-1.06,0.16c-0.15,0-0.3-0.01-0.45-0.03
		C5.33,7.38,5.2,7.36,5.08,7.33C4.96,7.3,4.87,7.27,4.79,7.24C4.71,7.2,4.65,7.17,4.62,7.14C4.58,7.11,4.56,7.06,4.54,7.01
		C4.52,6.95,4.51,6.88,4.51,6.78c0-0.08,0-0.14,0.01-0.19c0-0.05,0.01-0.08,0.02-0.11s0.03-0.04,0.05-0.05
		c0.02-0.01,0.04-0.01,0.07-0.01c0.04,0,0.09,0.01,0.17,0.04C4.9,6.49,4.99,6.52,5.1,6.55c0.11,0.03,0.24,0.06,0.38,0.09
		C5.63,6.67,5.8,6.68,5.98,6.68c0.35,0,0.65-0.07,0.89-0.2c0.25-0.13,0.45-0.31,0.61-0.54s0.28-0.49,0.35-0.78s0.12-0.61,0.13-0.94
		C7.78,4.33,7.55,4.43,7.29,4.51S6.72,4.64,6.37,4.64c-0.39,0-0.71-0.05-0.98-0.16C5.14,4.38,4.92,4.23,4.76,4.05
		C4.6,3.87,4.49,3.65,4.42,3.4c-0.07-0.25-0.1-0.53-0.1-0.82c0-0.31,0.04-0.6,0.13-0.88s0.23-0.52,0.42-0.73s0.43-0.38,0.73-0.5
		s0.64-0.19,1.05-0.19c0.29,0,0.55,0.04,0.77,0.11C7.64,0.46,7.84,0.56,8,0.7s0.3,0.3,0.42,0.5S8.63,1.62,8.7,1.86
		c0.07,0.25,0.12,0.52,0.15,0.8C8.88,2.96,8.89,3.26,8.89,3.58z M7.95,3.48c0-0.46-0.03-0.84-0.09-1.16S7.71,1.75,7.59,1.56
		S7.33,1.23,7.16,1.14s-0.37-0.13-0.6-0.13c-0.23,0-0.43,0.04-0.6,0.13s-0.3,0.2-0.41,0.34c-0.11,0.14-0.18,0.3-0.23,0.48
		S5.25,2.32,5.25,2.51c0,0.21,0.02,0.41,0.07,0.58c0.04,0.18,0.12,0.32,0.22,0.45s0.23,0.22,0.39,0.28s0.36,0.1,0.6,0.1
		c0.27,0,0.53-0.04,0.78-0.12C7.55,3.71,7.77,3.61,7.95,3.48z"/>
	<path class="st0" d="M14.47,3.58c0,0.3-0.02,0.61-0.05,0.91s-0.1,0.6-0.18,0.89c-0.09,0.29-0.2,0.55-0.35,0.8
		c-0.14,0.25-0.33,0.47-0.55,0.65c-0.22,0.19-0.48,0.33-0.78,0.44c-0.3,0.11-0.65,0.16-1.06,0.16c-0.15,0-0.3-0.01-0.45-0.03
		c-0.14-0.02-0.28-0.04-0.39-0.07c-0.12-0.03-0.21-0.06-0.29-0.09c-0.08-0.03-0.14-0.06-0.17-0.1c-0.04-0.03-0.06-0.08-0.08-0.13
		c-0.02-0.06-0.02-0.13-0.02-0.22c0-0.08,0-0.14,0.01-0.19c0-0.05,0.01-0.08,0.02-0.11s0.03-0.04,0.05-0.05
		c0.02-0.01,0.04-0.01,0.07-0.01c0.04,0,0.09,0.01,0.17,0.04c0.07,0.03,0.16,0.06,0.27,0.09c0.11,0.03,0.24,0.06,0.38,0.09
		c0.15,0.03,0.31,0.04,0.49,0.04c0.35,0,0.65-0.07,0.89-0.2c0.25-0.13,0.45-0.31,0.61-0.54s0.28-0.49,0.35-0.78s0.12-0.61,0.13-0.94
		c-0.19,0.11-0.42,0.21-0.68,0.29s-0.57,0.13-0.91,0.13c-0.39,0-0.71-0.05-0.98-0.16c-0.26-0.11-0.47-0.25-0.63-0.43
		C10.18,3.87,10.07,3.65,10,3.4c-0.07-0.25-0.1-0.53-0.1-0.82c0-0.31,0.04-0.6,0.13-0.88s0.23-0.52,0.42-0.73s0.43-0.38,0.73-0.5
		s0.64-0.19,1.05-0.19c0.29,0,0.55,0.04,0.77,0.11c0.22,0.07,0.42,0.18,0.58,0.32s0.3,0.3,0.42,0.5s0.21,0.42,0.28,0.66
		c0.07,0.25,0.12,0.52,0.15,0.8C14.45,2.96,14.47,3.26,14.47,3.58z M13.53,3.48c0-0.46-0.03-0.84-0.09-1.16s-0.15-0.57-0.27-0.76
		s-0.26-0.33-0.44-0.42s-0.37-0.13-0.6-0.13c-0.23,0-0.43,0.04-0.6,0.13s-0.3,0.2-0.41,0.34c-0.11,0.14-0.18,0.3-0.23,0.48
		s-0.08,0.36-0.08,0.55c0,0.21,0.02,0.41,0.07,0.58c0.04,0.18,0.12,0.32,0.22,0.45s0.23,0.22,0.39,0.28s0.36,0.1,0.6,0.1
		c0.27,0,0.53-0.04,0.78-0.12C13.13,3.71,13.34,3.61,13.53,3.48z"/>
	<path class="st0" d="M20.04,3.58c0,0.3-0.02,0.61-0.05,0.91s-0.1,0.6-0.18,0.89c-0.09,0.29-0.2,0.55-0.35,0.8
		c-0.14,0.25-0.33,0.47-0.55,0.65c-0.22,0.19-0.48,0.33-0.78,0.44c-0.3,0.11-0.65,0.16-1.06,0.16c-0.15,0-0.3-0.01-0.45-0.03
		c-0.14-0.02-0.28-0.04-0.39-0.07c-0.12-0.03-0.21-0.06-0.29-0.09c-0.08-0.03-0.14-0.06-0.17-0.1c-0.04-0.03-0.06-0.08-0.08-0.13
		c-0.02-0.06-0.02-0.13-0.02-0.22c0-0.08,0-0.14,0.01-0.19c0-0.05,0.01-0.08,0.02-0.11s0.03-0.04,0.05-0.05
		c0.02-0.01,0.04-0.01,0.07-0.01c0.04,0,0.09,0.01,0.17,0.04c0.07,0.03,0.16,0.06,0.27,0.09c0.11,0.03,0.24,0.06,0.38,0.09
		c0.15,0.03,0.31,0.04,0.49,0.04c0.35,0,0.65-0.07,0.89-0.2c0.25-0.13,0.45-0.31,0.61-0.54s0.28-0.49,0.35-0.78s0.12-0.61,0.13-0.94
		c-0.19,0.11-0.42,0.21-0.68,0.29s-0.57,0.13-0.91,0.13c-0.39,0-0.71-0.05-0.98-0.16c-0.26-0.11-0.47-0.25-0.63-0.43
		c-0.16-0.18-0.27-0.4-0.34-0.65c-0.07-0.25-0.1-0.53-0.1-0.82c0-0.31,0.04-0.6,0.13-0.88s0.23-0.52,0.42-0.73s0.43-0.38,0.73-0.5
		s0.64-0.19,1.05-0.19c0.29,0,0.55,0.04,0.77,0.11c0.22,0.07,0.42,0.18,0.58,0.32s0.3,0.3,0.42,0.5s0.21,0.42,0.28,0.66
		c0.07,0.25,0.12,0.52,0.15,0.8C20.03,2.96,20.04,3.26,20.04,3.58z M19.1,3.48c0-0.46-0.03-0.84-0.09-1.16s-0.15-0.57-0.27-0.76
		s-0.26-0.33-0.44-0.42s-0.37-0.13-0.6-0.13c-0.23,0-0.43,0.04-0.6,0.13s-0.3,0.2-0.41,0.34c-0.11,0.14-0.18,0.3-0.23,0.48
		S16.4,2.32,16.4,2.51c0,0.21,0.02,0.41,0.07,0.58c0.04,0.18,0.12,0.32,0.22,0.45s0.23,0.22,0.39,0.28s0.36,0.1,0.6,0.1
		c0.27,0,0.53-0.04,0.78-0.12C18.7,3.71,18.92,3.61,19.1,3.48z"/>
	<path class="st0" d="M23.22,4.44c0,0.41-0.02,0.81-0.08,1.2s-0.13,0.79-0.23,1.17s-0.22,0.77-0.37,1.14
		c-0.15,0.37-0.31,0.74-0.51,1.11c-0.01,0.02-0.03,0.03-0.05,0.05c-0.02,0.01-0.05,0.03-0.08,0.04c-0.03,0.01-0.07,0.02-0.12,0.02
		s-0.1,0.01-0.17,0.01c-0.09,0-0.17,0-0.22-0.01c-0.05-0.01-0.09-0.02-0.11-0.04c-0.02-0.02-0.03-0.04-0.03-0.08
		c0-0.03,0.01-0.07,0.03-0.11c0.33-0.72,0.58-1.46,0.75-2.22c0.17-0.76,0.25-1.52,0.25-2.29c0-0.77-0.08-1.53-0.25-2.29
		c-0.17-0.76-0.42-1.5-0.76-2.22c-0.01-0.03-0.02-0.06-0.02-0.09c0-0.03,0.02-0.05,0.05-0.07s0.07-0.03,0.12-0.04
		s0.12-0.02,0.2-0.02c0.08,0,0.14,0,0.19,0.01c0.05,0,0.09,0.01,0.12,0.02c0.03,0.01,0.05,0.02,0.07,0.03
		c0.01,0.01,0.02,0.02,0.03,0.04c0.37,0.73,0.66,1.49,0.87,2.26C23.11,2.85,23.22,3.64,23.22,4.44z"/>
	<path class="st0" d="M31.44,3.58c0,0.3-0.02,0.61-0.05,0.91s-0.1,0.6-0.18,0.89c-0.09,0.29-0.2,0.55-0.35,0.8
		c-0.14,0.25-0.33,0.47-0.55,0.65c-0.22,0.19-0.48,0.33-0.78,0.44c-0.3,0.11-0.65,0.16-1.06,0.16c-0.15,0-0.3-0.01-0.45-0.03
		c-0.14-0.02-0.28-0.04-0.39-0.07c-0.12-0.03-0.21-0.06-0.29-0.09c-0.08-0.03-0.14-0.06-0.17-0.1c-0.04-0.03-0.06-0.08-0.08-0.13
		c-0.02-0.06-0.02-0.13-0.02-0.22c0-0.08,0-0.14,0.01-0.19c0-0.05,0.01-0.08,0.02-0.11s0.03-0.04,0.05-0.05
		c0.02-0.01,0.04-0.01,0.07-0.01c0.04,0,0.09,0.01,0.17,0.04c0.07,0.03,0.16,0.06,0.27,0.09c0.11,0.03,0.24,0.06,0.38,0.09
		c0.15,0.03,0.31,0.04,0.49,0.04c0.35,0,0.65-0.07,0.89-0.2c0.25-0.13,0.45-0.31,0.61-0.54s0.28-0.49,0.35-0.78s0.12-0.61,0.13-0.94
		c-0.19,0.11-0.42,0.21-0.68,0.29s-0.57,0.13-0.91,0.13c-0.39,0-0.71-0.05-0.98-0.16c-0.26-0.11-0.47-0.25-0.63-0.43
		c-0.16-0.18-0.27-0.4-0.34-0.65c-0.07-0.25-0.1-0.53-0.1-0.82c0-0.31,0.04-0.6,0.13-0.88s0.23-0.52,0.42-0.73s0.43-0.38,0.73-0.5
		s0.64-0.19,1.05-0.19c0.29,0,0.55,0.04,0.77,0.11c0.22,0.07,0.42,0.18,0.58,0.32s0.3,0.3,0.42,0.5s0.21,0.42,0.28,0.66
		c0.07,0.25,0.12,0.52,0.15,0.8C31.42,2.96,31.44,3.26,31.44,3.58z M30.5,3.48c0-0.46-0.03-0.84-0.09-1.16s-0.15-0.57-0.27-0.76
		s-0.26-0.33-0.44-0.42s-0.37-0.13-0.6-0.13c-0.23,0-0.43,0.04-0.6,0.13s-0.3,0.2-0.41,0.34c-0.11,0.14-0.18,0.3-0.23,0.48
		S27.8,2.32,27.8,2.51c0,0.21,0.02,0.41,0.07,0.58c0.04,0.18,0.12,0.32,0.22,0.45s0.23,0.22,0.39,0.28s0.36,0.1,0.6,0.1
		c0.27,0,0.53-0.04,0.78-0.12C30.1,3.71,30.32,3.61,30.5,3.48z"/>
	<path class="st0" d="M36.93,5.09c0,0.37-0.06,0.7-0.19,0.99c-0.13,0.29-0.3,0.53-0.53,0.73c-0.23,0.2-0.5,0.35-0.82,0.45
		c-0.32,0.1-0.67,0.16-1.06,0.16c-0.21,0-0.42-0.01-0.61-0.04s-0.37-0.07-0.52-0.11s-0.27-0.09-0.37-0.13s-0.16-0.08-0.19-0.1
		c-0.03-0.03-0.05-0.05-0.06-0.07s-0.02-0.05-0.03-0.08c-0.01-0.03-0.02-0.07-0.02-0.12c0-0.05-0.01-0.1-0.01-0.17
		c0-0.06,0-0.12,0.01-0.16c0-0.05,0.02-0.09,0.03-0.12s0.03-0.05,0.05-0.07c0.02-0.01,0.04-0.02,0.07-0.02
		c0.04,0,0.09,0.02,0.17,0.07s0.18,0.09,0.3,0.15c0.13,0.05,0.29,0.1,0.47,0.15c0.19,0.05,0.41,0.07,0.67,0.07
		c0.24,0,0.46-0.03,0.66-0.09c0.2-0.06,0.37-0.15,0.52-0.27c0.15-0.12,0.26-0.27,0.34-0.46s0.12-0.41,0.12-0.67
		c0-0.22-0.04-0.42-0.1-0.59c-0.07-0.17-0.18-0.31-0.32-0.42c-0.15-0.11-0.33-0.2-0.55-0.25s-0.49-0.08-0.79-0.08
		c-0.22,0-0.41,0.01-0.56,0.03s-0.3,0.03-0.44,0.03c-0.1,0-0.17-0.02-0.21-0.07S32.9,3.69,32.9,3.56V0.73
		c0-0.12,0.03-0.21,0.08-0.26c0.06-0.06,0.13-0.09,0.24-0.09h3.08c0.03,0,0.06,0.01,0.08,0.02c0.03,0.02,0.05,0.04,0.07,0.07
		s0.03,0.07,0.04,0.12c0.01,0.05,0.01,0.11,0.01,0.18c0,0.13-0.02,0.23-0.05,0.3c-0.03,0.07-0.08,0.11-0.14,0.11h-2.48v1.95
		c0.12-0.02,0.24-0.03,0.37-0.03c0.13,0,0.27-0.01,0.44-0.01c0.38,0,0.72,0.05,1,0.14s0.53,0.23,0.72,0.4s0.34,0.38,0.43,0.63
		C36.88,4.52,36.93,4.79,36.93,5.09z"/>
	<path class="st0" d="M42.48,5.34c0,0.32-0.06,0.61-0.17,0.86s-0.27,0.47-0.48,0.66c-0.21,0.18-0.46,0.32-0.77,0.42
		s-0.65,0.15-1.03,0.15c-0.23,0-0.45-0.02-0.65-0.06c-0.2-0.04-0.38-0.08-0.54-0.13s-0.29-0.11-0.39-0.16s-0.17-0.1-0.2-0.12
		c-0.03-0.02-0.05-0.05-0.06-0.07c-0.01-0.03-0.03-0.06-0.04-0.09s-0.02-0.08-0.02-0.13c-0.01-0.05-0.01-0.12-0.01-0.19
		c0-0.13,0.01-0.22,0.04-0.27c0.03-0.05,0.06-0.08,0.11-0.08c0.03,0,0.1,0.03,0.2,0.09c0.1,0.06,0.22,0.12,0.38,0.19
		c0.15,0.07,0.33,0.13,0.53,0.19c0.2,0.06,0.43,0.09,0.68,0.09c0.24,0,0.46-0.03,0.64-0.09s0.34-0.15,0.46-0.26
		c0.12-0.11,0.22-0.24,0.28-0.39s0.09-0.32,0.09-0.5c0-0.2-0.04-0.37-0.12-0.53c-0.08-0.16-0.2-0.29-0.35-0.41
		c-0.15-0.11-0.34-0.2-0.57-0.26c-0.22-0.06-0.48-0.09-0.76-0.09h-0.68c-0.03,0-0.06-0.01-0.09-0.02c-0.03-0.01-0.05-0.03-0.07-0.06
		s-0.04-0.07-0.05-0.11c-0.01-0.05-0.02-0.11-0.02-0.18c0-0.07,0.01-0.12,0.02-0.17s0.03-0.08,0.05-0.11
		c0.02-0.03,0.04-0.05,0.07-0.06s0.05-0.02,0.09-0.02h0.61c0.24,0,0.45-0.03,0.64-0.09c0.19-0.06,0.35-0.15,0.48-0.26
		c0.13-0.11,0.23-0.25,0.3-0.41c0.07-0.16,0.1-0.34,0.1-0.54c0-0.14-0.02-0.28-0.07-0.41s-0.12-0.24-0.21-0.34
		c-0.09-0.1-0.21-0.17-0.36-0.23c-0.14-0.06-0.31-0.08-0.5-0.08c-0.21,0-0.4,0.03-0.57,0.09c-0.17,0.06-0.33,0.13-0.46,0.2
		s-0.25,0.14-0.34,0.2s-0.15,0.09-0.19,0.09c-0.02,0-0.05,0-0.07-0.01c-0.02-0.01-0.04-0.03-0.05-0.05
		c-0.01-0.03-0.02-0.06-0.03-0.11c-0.01-0.05-0.01-0.11-0.01-0.19c0-0.05,0-0.1,0.01-0.14s0.01-0.08,0.02-0.11s0.02-0.06,0.04-0.08
		s0.04-0.05,0.07-0.09c0.03-0.03,0.1-0.08,0.21-0.15s0.23-0.13,0.38-0.19c0.15-0.06,0.33-0.12,0.53-0.16
		c0.2-0.04,0.41-0.06,0.64-0.06c0.32,0,0.6,0.04,0.85,0.12s0.45,0.2,0.61,0.35c0.16,0.15,0.29,0.33,0.37,0.54
		c0.08,0.21,0.12,0.44,0.12,0.7c0,0.22-0.03,0.42-0.09,0.61c-0.06,0.19-0.14,0.35-0.25,0.5c-0.11,0.15-0.25,0.27-0.41,0.37
		c-0.16,0.1-0.35,0.17-0.56,0.21v0.01c0.24,0.03,0.46,0.08,0.66,0.18c0.2,0.09,0.37,0.21,0.51,0.36s0.26,0.31,0.34,0.5
		C42.44,4.92,42.48,5.12,42.48,5.34z"/>
	<path class="st0" d="M50.7,0.77c0,0.06,0,0.12-0.01,0.17c0,0.05-0.01,0.1-0.02,0.15c-0.01,0.05-0.02,0.09-0.04,0.14
		c-0.02,0.04-0.04,0.09-0.06,0.14l-2.5,5.77c-0.02,0.04-0.04,0.08-0.07,0.11c-0.03,0.03-0.06,0.05-0.1,0.06
		c-0.04,0.02-0.09,0.03-0.16,0.03c-0.06,0-0.14,0.01-0.24,0.01c-0.12,0-0.22,0-0.28-0.02c-0.07-0.01-0.12-0.03-0.15-0.05
		c-0.03-0.02-0.04-0.05-0.04-0.09s0.02-0.07,0.04-0.12l2.63-5.9h-3.34c-0.07,0-0.12-0.04-0.15-0.11c-0.03-0.07-0.05-0.17-0.05-0.3
		c0-0.07,0-0.13,0.01-0.18c0.01-0.05,0.02-0.09,0.04-0.13s0.04-0.06,0.06-0.08c0.02-0.02,0.05-0.02,0.09-0.02h4.05
		c0.05,0,0.09,0,0.13,0.02c0.04,0.01,0.07,0.03,0.09,0.06c0.02,0.03,0.04,0.07,0.05,0.12S50.7,0.7,50.7,0.77z"/>
	<path class="st0" d="M56.19,6.96c0,0.07-0.01,0.12-0.02,0.17s-0.02,0.08-0.04,0.11c-0.02,0.03-0.04,0.05-0.06,0.06
		C56.05,7.32,56.02,7.33,56,7.33h-3.63c-0.02,0-0.05-0.01-0.07-0.02s-0.04-0.03-0.06-0.06c-0.02-0.03-0.04-0.07-0.05-0.11
		s-0.02-0.1-0.02-0.17c0-0.06,0.01-0.12,0.02-0.17c0.01-0.05,0.02-0.09,0.04-0.12c0.02-0.03,0.04-0.05,0.06-0.07
		c0.02-0.02,0.05-0.02,0.08-0.02h1.45V1.3l-1.34,0.8c-0.07,0.04-0.12,0.06-0.16,0.06c-0.04,0.01-0.07,0-0.1-0.02
		s-0.04-0.06-0.05-0.12c-0.01-0.05-0.01-0.12-0.01-0.21c0-0.06,0-0.11,0.01-0.16c0.01-0.04,0.01-0.08,0.02-0.11s0.03-0.05,0.05-0.08
		c0.02-0.02,0.05-0.04,0.08-0.06l1.6-1.03c0.01-0.01,0.03-0.02,0.05-0.03S54,0.35,54.04,0.34s0.07-0.01,0.11-0.01s0.1,0,0.16,0
		c0.09,0,0.16,0,0.21,0.01c0.06,0.01,0.1,0.02,0.13,0.03s0.05,0.03,0.06,0.05s0.02,0.04,0.02,0.06v6.11H56
		c0.03,0,0.06,0.01,0.08,0.02c0.02,0.02,0.05,0.04,0.06,0.07c0.02,0.03,0.03,0.07,0.04,0.12C56.19,6.84,56.19,6.9,56.19,6.96z"/>
	<path class="st0" d="M64.41,5.08c0,0.3-0.05,0.6-0.14,0.88c-0.09,0.29-0.24,0.54-0.43,0.75s-0.44,0.39-0.74,0.52
		s-0.65,0.2-1.05,0.2c-0.29,0-0.55-0.04-0.77-0.11c-0.22-0.07-0.42-0.17-0.58-0.31s-0.3-0.3-0.41-0.49
		c-0.11-0.19-0.2-0.41-0.26-0.66c-0.07-0.25-0.11-0.52-0.14-0.81c-0.03-0.29-0.04-0.61-0.04-0.95c0-0.3,0.02-0.6,0.05-0.9
		c0.03-0.3,0.09-0.6,0.17-0.88c0.08-0.28,0.19-0.55,0.34-0.8c0.14-0.25,0.32-0.47,0.53-0.65c0.21-0.18,0.47-0.33,0.77-0.44
		s0.64-0.16,1.04-0.16c0.13,0,0.27,0.01,0.4,0.02c0.14,0.02,0.26,0.04,0.38,0.06c0.11,0.03,0.21,0.06,0.29,0.09
		c0.08,0.03,0.13,0.06,0.16,0.08s0.04,0.04,0.06,0.06c0.01,0.02,0.02,0.05,0.03,0.08c0.01,0.03,0.01,0.06,0.02,0.09
		s0.01,0.08,0.01,0.13c0,0.06,0,0.12,0,0.17c0,0.05-0.01,0.08-0.02,0.11C64.03,1.2,64.02,1.22,64,1.24
		c-0.02,0.01-0.05,0.02-0.08,0.02c-0.04,0-0.09-0.01-0.16-0.04c-0.07-0.02-0.15-0.05-0.25-0.08s-0.21-0.06-0.35-0.08
		c-0.14-0.03-0.3-0.04-0.48-0.04c-0.33,0-0.62,0.07-0.86,0.2c-0.24,0.14-0.44,0.32-0.59,0.55c-0.15,0.23-0.27,0.49-0.34,0.8
		c-0.07,0.3-0.12,0.62-0.13,0.95c0.09-0.05,0.2-0.11,0.31-0.16c0.12-0.05,0.24-0.1,0.38-0.14c0.14-0.04,0.28-0.08,0.44-0.11
		c0.15-0.03,0.32-0.04,0.49-0.04c0.38,0,0.69,0.05,0.95,0.15c0.26,0.1,0.47,0.24,0.63,0.42c0.16,0.18,0.27,0.39,0.34,0.64
		S64.41,4.79,64.41,5.08z M63.48,5.16c0-0.21-0.02-0.4-0.06-0.57c-0.04-0.17-0.11-0.31-0.21-0.43c-0.1-0.12-0.23-0.21-0.39-0.27
		s-0.36-0.1-0.6-0.1c-0.13,0-0.27,0.01-0.4,0.04s-0.26,0.06-0.38,0.1c-0.12,0.04-0.24,0.09-0.35,0.14
		c-0.11,0.06-0.22,0.12-0.31,0.18c0,0.46,0.03,0.85,0.09,1.16c0.06,0.31,0.15,0.56,0.26,0.75c0.11,0.19,0.25,0.32,0.42,0.4
		c0.17,0.08,0.37,0.12,0.59,0.12c0.23,0,0.43-0.04,0.6-0.13s0.31-0.2,0.42-0.35c0.11-0.14,0.19-0.31,0.24-0.49
		C63.45,5.54,63.48,5.35,63.48,5.16z"/>
	<path class="st0" d="M69.83,6.96c0,0.07-0.01,0.12-0.02,0.17s-0.02,0.08-0.04,0.11c-0.02,0.03-0.04,0.05-0.06,0.06
		c-0.02,0.01-0.05,0.02-0.07,0.02H66c-0.02,0-0.05-0.01-0.07-0.02s-0.04-0.03-0.06-0.06c-0.02-0.03-0.04-0.07-0.05-0.11
		s-0.02-0.1-0.02-0.17c0-0.06,0.01-0.12,0.02-0.17c0.01-0.05,0.02-0.09,0.04-0.12c0.02-0.03,0.04-0.05,0.06-0.07
		c0.02-0.02,0.05-0.02,0.08-0.02h1.45V1.3l-1.34,0.8c-0.07,0.04-0.12,0.06-0.16,0.06c-0.04,0.01-0.07,0-0.1-0.02
		s-0.04-0.06-0.05-0.12c-0.01-0.05-0.01-0.12-0.01-0.21c0-0.06,0-0.11,0.01-0.16c0.01-0.04,0.01-0.08,0.02-0.11s0.03-0.05,0.05-0.08
		c0.02-0.02,0.05-0.04,0.08-0.06l1.6-1.03c0.01-0.01,0.03-0.02,0.05-0.03s0.05-0.01,0.08-0.02s0.07-0.01,0.11-0.01s0.1,0,0.16,0
		c0.09,0,0.16,0,0.21,0.01c0.06,0.01,0.1,0.02,0.13,0.03s0.05,0.03,0.06,0.05s0.02,0.04,0.02,0.06v6.11h1.26
		c0.03,0,0.06,0.01,0.08,0.02c0.02,0.02,0.05,0.04,0.06,0.07c0.02,0.03,0.03,0.07,0.04,0.12C69.82,6.84,69.83,6.9,69.83,6.96z"/>
</g>
</svg>
