<?xml version="1.0" encoding="utf-8"?>
<!-- Generator: Adobe Illustrator 25.4.1, SVG Export Plug-In . SVG Version: 6.00 Build 0)  -->
<svg version="1.1" id="Capa_1" xmlns="http://www.w3.org/2000/svg" xmlns:xlink="http://www.w3.org/1999/xlink" x="0px" y="0px"
	 viewBox="0 0 72 12" style="enable-background:new 0 0 72 12;" xml:space="preserve">
<style type="text/css">
	.st0{fill:#3F3E3E;}
</style>
<g>
	<path class="st0" d="M3.2,1.93C2.86,2.65,2.61,3.38,2.44,4.14C2.27,4.9,2.19,5.66,2.19,6.43c0,0.77,0.08,1.53,0.26,2.29
		c0.17,0.76,0.42,1.5,0.74,2.22c0.02,0.04,0.03,0.08,0.03,0.11c0,0.03-0.01,0.06-0.04,0.08s-0.06,0.03-0.12,0.04
		c-0.05,0.01-0.12,0.01-0.21,0.01c-0.06,0-0.12,0-0.17-0.01s-0.09-0.01-0.12-0.02c-0.03-0.01-0.06-0.02-0.08-0.04
		c-0.02-0.01-0.04-0.03-0.05-0.05c-0.19-0.37-0.36-0.74-0.51-1.11S1.66,9.2,1.56,8.82S1.38,8.04,1.33,7.64s-0.08-0.8-0.08-1.2
		c0-0.4,0.03-0.8,0.08-1.2c0.06-0.39,0.13-0.79,0.24-1.17C1.68,3.68,1.8,3.3,1.95,2.92s0.31-0.75,0.49-1.12
		c0-0.01,0.01-0.03,0.03-0.04c0.02-0.01,0.04-0.02,0.07-0.03c0.03-0.01,0.07-0.02,0.12-0.02c0.05-0.01,0.11-0.01,0.19-0.01
		c0.08,0,0.15,0,0.2,0.02s0.09,0.03,0.12,0.04s0.04,0.04,0.05,0.07C3.22,1.86,3.21,1.89,3.2,1.93z"/>
	<path class="st0" d="M8.89,5.58c0,0.3-0.02,0.61-0.05,0.91s-0.1,0.6-0.18,0.89c-0.09,0.29-0.2,0.55-0.35,0.8
		C8.16,8.43,7.98,8.65,7.76,8.83C7.54,9.02,7.28,9.17,6.98,9.27c-0.3,0.11-0.65,0.16-1.06,0.16c-0.15,0-0.3-0.01-0.45-0.03
		C5.33,9.38,5.2,9.36,5.08,9.33C4.96,9.3,4.87,9.27,4.79,9.24C4.71,9.2,4.65,9.17,4.62,9.14C4.58,9.11,4.56,9.06,4.54,9.01
		C4.52,8.95,4.51,8.88,4.51,8.78c0-0.08,0-0.14,0.01-0.19c0-0.05,0.01-0.08,0.02-0.11s0.03-0.04,0.05-0.05
		c0.02-0.01,0.04-0.01,0.07-0.01c0.04,0,0.09,0.01,0.17,0.04C4.9,8.49,4.99,8.52,5.1,8.55c0.11,0.03,0.24,0.06,0.38,0.09
		C5.63,8.67,5.8,8.68,5.98,8.68c0.35,0,0.65-0.07,0.89-0.2c0.25-0.13,0.45-0.31,0.61-0.54s0.28-0.49,0.35-0.78s0.12-0.61,0.13-0.94
		C7.78,6.33,7.55,6.43,7.29,6.51S6.72,6.64,6.37,6.64c-0.39,0-0.71-0.05-0.98-0.16C5.14,6.38,4.92,6.23,4.76,6.05
		C4.6,5.87,4.49,5.65,4.42,5.4c-0.07-0.25-0.1-0.53-0.1-0.82c0-0.31,0.04-0.6,0.13-0.88s0.23-0.52,0.42-0.73s0.43-0.38,0.73-0.5
		s0.64-0.19,1.05-0.19c0.29,0,0.55,0.04,0.77,0.11C7.64,2.46,7.84,2.56,8,2.7s0.3,0.3,0.42,0.5S8.63,3.62,8.7,3.86
		c0.07,0.25,0.12,0.52,0.15,0.8C8.88,4.96,8.89,5.26,8.89,5.58z M7.95,5.48c0-0.46-0.03-0.84-0.09-1.16S7.71,3.75,7.59,3.56
		S7.33,3.23,7.16,3.14s-0.37-0.13-0.6-0.13c-0.23,0-0.43,0.04-0.6,0.13s-0.3,0.2-0.41,0.34c-0.11,0.14-0.18,0.3-0.23,0.48
		S5.25,4.32,5.25,4.51c0,0.21,0.02,0.41,0.07,0.58c0.04,0.18,0.12,0.32,0.22,0.45s0.23,0.22,0.39,0.28s0.36,0.1,0.6,0.1
		c0.27,0,0.53-0.04,0.78-0.12C7.55,5.71,7.77,5.61,7.95,5.48z"/>
	<path class="st0" d="M14.47,5.58c0,0.3-0.02,0.61-0.05,0.91s-0.1,0.6-0.18,0.89c-0.09,0.29-0.2,0.55-0.35,0.8
		c-0.14,0.25-0.33,0.47-0.55,0.65c-0.22,0.19-0.48,0.33-0.78,0.44c-0.3,0.11-0.65,0.16-1.06,0.16c-0.15,0-0.3-0.01-0.45-0.03
		c-0.14-0.02-0.28-0.04-0.39-0.07c-0.12-0.03-0.21-0.06-0.29-0.09c-0.08-0.03-0.14-0.06-0.17-0.1c-0.04-0.03-0.06-0.08-0.08-0.13
		c-0.02-0.06-0.02-0.13-0.02-0.22c0-0.08,0-0.14,0.01-0.19c0-0.05,0.01-0.08,0.02-0.11s0.03-0.04,0.05-0.05
		c0.02-0.01,0.04-0.01,0.07-0.01c0.04,0,0.09,0.01,0.17,0.04c0.07,0.03,0.16,0.06,0.27,0.09c0.11,0.03,0.24,0.06,0.38,0.09
		c0.15,0.03,0.31,0.04,0.49,0.04c0.35,0,0.65-0.07,0.89-0.2c0.25-0.13,0.45-0.31,0.61-0.54s0.28-0.49,0.35-0.78s0.12-0.61,0.13-0.94
		c-0.19,0.11-0.42,0.21-0.68,0.29s-0.57,0.13-0.91,0.13c-0.39,0-0.71-0.05-0.98-0.16c-0.26-0.11-0.47-0.25-0.63-0.43
		C10.18,5.87,10.07,5.65,10,5.4c-0.07-0.25-0.1-0.53-0.1-0.82c0-0.31,0.04-0.6,0.13-0.88s0.23-0.52,0.42-0.73s0.43-0.38,0.73-0.5
		s0.64-0.19,1.05-0.19c0.29,0,0.55,0.04,0.77,0.11c0.22,0.07,0.42,0.18,0.58,0.32s0.3,0.3,0.42,0.5s0.21,0.42,0.28,0.66
		c0.07,0.25,0.12,0.52,0.15,0.8C14.45,4.96,14.47,5.26,14.47,5.58z M13.53,5.48c0-0.46-0.03-0.84-0.09-1.16s-0.15-0.57-0.27-0.76
		s-0.26-0.33-0.44-0.42s-0.37-0.13-0.6-0.13c-0.23,0-0.43,0.04-0.6,0.13s-0.3,0.2-0.41,0.34c-0.11,0.14-0.18,0.3-0.23,0.48
		s-0.08,0.36-0.08,0.55c0,0.21,0.02,0.41,0.07,0.58c0.04,0.18,0.12,0.32,0.22,0.45s0.23,0.22,0.39,0.28s0.36,0.1,0.6,0.1
		c0.27,0,0.53-0.04,0.78-0.12C13.13,5.71,13.34,5.61,13.53,5.48z"/>
	<path class="st0" d="M20.04,5.58c0,0.3-0.02,0.61-0.05,0.91s-0.1,0.6-0.18,0.89c-0.09,0.29-0.2,0.55-0.35,0.8
		c-0.14,0.25-0.33,0.47-0.55,0.65c-0.22,0.19-0.48,0.33-0.78,0.44c-0.3,0.11-0.65,0.16-1.06,0.16c-0.15,0-0.3-0.01-0.45-0.03
		c-0.14-0.02-0.28-0.04-0.39-0.07c-0.12-0.03-0.21-0.06-0.29-0.09c-0.08-0.03-0.14-0.06-0.17-0.1c-0.04-0.03-0.06-0.08-0.08-0.13
		c-0.02-0.06-0.02-0.13-0.02-0.22c0-0.08,0-0.14,0.01-0.19c0-0.05,0.01-0.08,0.02-0.11s0.03-0.04,0.05-0.05
		c0.02-0.01,0.04-0.01,0.07-0.01c0.04,0,0.09,0.01,0.17,0.04c0.07,0.03,0.16,0.06,0.27,0.09c0.11,0.03,0.24,0.06,0.38,0.09
		c0.15,0.03,0.31,0.04,0.49,0.04c0.35,0,0.65-0.07,0.89-0.2c0.25-0.13,0.45-0.31,0.61-0.54s0.28-0.49,0.35-0.78s0.12-0.61,0.13-0.94
		c-0.19,0.11-0.42,0.21-0.68,0.29s-0.57,0.13-0.91,0.13c-0.39,0-0.71-0.05-0.98-0.16c-0.26-0.11-0.47-0.25-0.63-0.43
		c-0.16-0.18-0.27-0.4-0.34-0.65c-0.07-0.25-0.1-0.53-0.1-0.82c0-0.31,0.04-0.6,0.13-0.88s0.23-0.52,0.42-0.73s0.43-0.38,0.73-0.5
		s0.64-0.19,1.05-0.19c0.29,0,0.55,0.04,0.77,0.11c0.22,0.07,0.42,0.18,0.58,0.32s0.3,0.3,0.42,0.5s0.21,0.42,0.28,0.66
		c0.07,0.25,0.12,0.52,0.15,0.8C20.03,4.96,20.04,5.26,20.04,5.58z M19.1,5.48c0-0.46-0.03-0.84-0.09-1.16s-0.15-0.57-0.27-0.76
		s-0.26-0.33-0.44-0.42s-0.37-0.13-0.6-0.13c-0.23,0-0.43,0.04-0.6,0.13s-0.3,0.2-0.41,0.34c-0.11,0.14-0.18,0.3-0.23,0.48
		S16.4,4.32,16.4,4.51c0,0.21,0.02,0.41,0.07,0.58c0.04,0.18,0.12,0.32,0.22,0.45s0.23,0.22,0.39,0.28s0.36,0.1,0.6,0.1
		c0.27,0,0.53-0.04,0.78-0.12C18.7,5.71,18.92,5.61,19.1,5.48z"/>
	<path class="st0" d="M23.22,6.44c0,0.41-0.02,0.81-0.08,1.2s-0.13,0.79-0.23,1.17s-0.22,0.77-0.37,1.14
		c-0.15,0.37-0.31,0.74-0.51,1.11c-0.01,0.02-0.03,0.03-0.05,0.05c-0.02,0.01-0.05,0.03-0.08,0.04c-0.03,0.01-0.07,0.02-0.12,0.02
		s-0.1,0.01-0.17,0.01c-0.09,0-0.17,0-0.22-0.01c-0.05-0.01-0.09-0.02-0.11-0.04c-0.02-0.02-0.03-0.04-0.03-0.08
		c0-0.03,0.01-0.07,0.03-0.11c0.33-0.72,0.58-1.46,0.75-2.22c0.17-0.76,0.25-1.52,0.25-2.29c0-0.77-0.08-1.53-0.25-2.29
		c-0.17-0.76-0.42-1.5-0.76-2.22c-0.01-0.03-0.02-0.06-0.02-0.09c0-0.03,0.02-0.05,0.05-0.07s0.07-0.03,0.12-0.04
		s0.12-0.02,0.2-0.02c0.08,0,0.14,0,0.19,0.01c0.05,0,0.09,0.01,0.12,0.02c0.03,0.01,0.05,0.02,0.07,0.03
		c0.01,0.01,0.02,0.02,0.03,0.04c0.37,0.73,0.66,1.49,0.87,2.26C23.11,4.85,23.22,5.64,23.22,6.44z"/>
	<path class="st0" d="M31.44,5.58c0,0.3-0.02,0.61-0.05,0.91s-0.1,0.6-0.18,0.89c-0.09,0.29-0.2,0.55-0.35,0.8
		c-0.14,0.25-0.33,0.47-0.55,0.65c-0.22,0.19-0.48,0.33-0.78,0.44c-0.3,0.11-0.65,0.16-1.06,0.16c-0.15,0-0.3-0.01-0.45-0.03
		c-0.14-0.02-0.28-0.04-0.39-0.07c-0.12-0.03-0.21-0.06-0.29-0.09c-0.08-0.03-0.14-0.06-0.17-0.1c-0.04-0.03-0.06-0.08-0.08-0.13
		c-0.02-0.06-0.02-0.13-0.02-0.22c0-0.08,0-0.14,0.01-0.19c0-0.05,0.01-0.08,0.02-0.11s0.03-0.04,0.05-0.05
		c0.02-0.01,0.04-0.01,0.07-0.01c0.04,0,0.09,0.01,0.17,0.04c0.07,0.03,0.16,0.06,0.27,0.09c0.11,0.03,0.24,0.06,0.38,0.09
		c0.15,0.03,0.31,0.04,0.49,0.04c0.35,0,0.65-0.07,0.89-0.2c0.25-0.13,0.45-0.31,0.61-0.54s0.28-0.49,0.35-0.78s0.12-0.61,0.13-0.94
		c-0.19,0.11-0.42,0.21-0.68,0.29s-0.57,0.13-0.91,0.13c-0.39,0-0.71-0.05-0.98-0.16c-0.26-0.11-0.47-0.25-0.63-0.43
		c-0.16-0.18-0.27-0.4-0.34-0.65c-0.07-0.25-0.1-0.53-0.1-0.82c0-0.31,0.04-0.6,0.13-0.88s0.23-0.52,0.42-0.73s0.43-0.38,0.73-0.5
		s0.64-0.19,1.05-0.19c0.29,0,0.55,0.04,0.77,0.11c0.22,0.07,0.42,0.18,0.58,0.32s0.3,0.3,0.42,0.5s0.21,0.42,0.28,0.66
		c0.07,0.25,0.12,0.52,0.15,0.8C31.42,4.96,31.44,5.26,31.44,5.58z M30.5,5.48c0-0.46-0.03-0.84-0.09-1.16s-0.15-0.57-0.27-0.76
		s-0.26-0.33-0.44-0.42s-0.37-0.13-0.6-0.13c-0.23,0-0.43,0.04-0.6,0.13s-0.3,0.2-0.41,0.34c-0.11,0.14-0.18,0.3-0.23,0.48
		S27.8,4.32,27.8,4.51c0,0.21,0.02,0.41,0.07,0.58c0.04,0.18,0.12,0.32,0.22,0.45s0.23,0.22,0.39,0.28s0.36,0.1,0.6,0.1
		c0.27,0,0.53-0.04,0.78-0.12C30.1,5.71,30.32,5.61,30.5,5.48z"/>
	<path class="st0" d="M36.93,7.09c0,0.37-0.06,0.7-0.19,0.99c-0.13,0.29-0.3,0.53-0.53,0.73c-0.23,0.2-0.5,0.35-0.82,0.45
		c-0.32,0.1-0.67,0.16-1.06,0.16c-0.21,0-0.42-0.01-0.61-0.04s-0.37-0.07-0.52-0.11s-0.27-0.09-0.37-0.13s-0.16-0.08-0.19-0.1
		c-0.03-0.03-0.05-0.05-0.06-0.07s-0.02-0.05-0.03-0.08c-0.01-0.03-0.02-0.07-0.02-0.12c0-0.05-0.01-0.1-0.01-0.17
		c0-0.06,0-0.12,0.01-0.16c0-0.05,0.02-0.09,0.03-0.12s0.03-0.05,0.05-0.07c0.02-0.01,0.04-0.02,0.07-0.02
		c0.04,0,0.09,0.02,0.17,0.07s0.18,0.09,0.3,0.15c0.13,0.05,0.29,0.1,0.47,0.15c0.19,0.05,0.41,0.07,0.67,0.07
		c0.24,0,0.46-0.03,0.66-0.09c0.2-0.06,0.37-0.15,0.52-0.27c0.15-0.12,0.26-0.27,0.34-0.46s0.12-0.41,0.12-0.67
		c0-0.22-0.04-0.42-0.1-0.59c-0.07-0.17-0.18-0.31-0.32-0.42c-0.15-0.11-0.33-0.2-0.55-0.25s-0.49-0.08-0.79-0.08
		c-0.22,0-0.41,0.01-0.56,0.03s-0.3,0.03-0.44,0.03c-0.1,0-0.17-0.02-0.21-0.07S32.9,5.69,32.9,5.56V2.73
		c0-0.12,0.03-0.21,0.08-0.26c0.06-0.06,0.13-0.09,0.24-0.09h3.08c0.03,0,0.06,0.01,0.08,0.02c0.03,0.02,0.05,0.04,0.07,0.07
		s0.03,0.07,0.04,0.12c0.01,0.05,0.01,0.11,0.01,0.18c0,0.13-0.02,0.23-0.05,0.3c-0.03,0.07-0.08,0.11-0.14,0.11h-2.48v1.95
		c0.12-0.02,0.24-0.03,0.37-0.03c0.13,0,0.27-0.01,0.44-0.01c0.38,0,0.72,0.05,1,0.14s0.53,0.23,0.72,0.4s0.34,0.38,0.43,0.63
		C36.88,6.52,36.93,6.79,36.93,7.09z"/>
	<path class="st0" d="M42.48,7.34c0,0.32-0.06,0.61-0.17,0.86s-0.27,0.47-0.48,0.66c-0.21,0.18-0.46,0.32-0.77,0.42
		s-0.65,0.15-1.03,0.15c-0.23,0-0.45-0.02-0.65-0.06c-0.2-0.04-0.38-0.08-0.54-0.13s-0.29-0.11-0.39-0.16s-0.17-0.1-0.2-0.12
		c-0.03-0.02-0.05-0.05-0.06-0.07c-0.01-0.03-0.03-0.06-0.04-0.09s-0.02-0.08-0.02-0.13c-0.01-0.05-0.01-0.12-0.01-0.19
		c0-0.13,0.01-0.22,0.04-0.27c0.03-0.05,0.06-0.08,0.11-0.08c0.03,0,0.1,0.03,0.2,0.09c0.1,0.06,0.22,0.12,0.38,0.19
		c0.15,0.07,0.33,0.13,0.53,0.19c0.2,0.06,0.43,0.09,0.68,0.09c0.24,0,0.46-0.03,0.64-0.09s0.34-0.15,0.46-0.26
		c0.12-0.11,0.22-0.24,0.28-0.39s0.09-0.32,0.09-0.5c0-0.2-0.04-0.37-0.12-0.53c-0.08-0.16-0.2-0.29-0.35-0.41
		c-0.15-0.11-0.34-0.2-0.57-0.26c-0.22-0.06-0.48-0.09-0.76-0.09h-0.68c-0.03,0-0.06-0.01-0.09-0.02c-0.03-0.01-0.05-0.03-0.07-0.06
		s-0.04-0.07-0.05-0.11c-0.01-0.05-0.02-0.11-0.02-0.18c0-0.07,0.01-0.12,0.02-0.17s0.03-0.08,0.05-0.11
		c0.02-0.03,0.04-0.05,0.07-0.06s0.05-0.02,0.09-0.02h0.61c0.24,0,0.45-0.03,0.64-0.09c0.19-0.06,0.35-0.15,0.48-0.26
		c0.13-0.11,0.23-0.25,0.3-0.41c0.07-0.16,0.1-0.34,0.1-0.54c0-0.14-0.02-0.28-0.07-0.41s-0.12-0.24-0.21-0.34
		c-0.09-0.1-0.21-0.17-0.36-0.23c-0.14-0.06-0.31-0.08-0.5-0.08c-0.21,0-0.4,0.03-0.57,0.09c-0.17,0.06-0.33,0.13-0.46,0.2
		s-0.25,0.14-0.34,0.2s-0.15,0.09-0.19,0.09c-0.02,0-0.05,0-0.07-0.01c-0.02-0.01-0.04-0.03-0.05-0.05
		c-0.01-0.03-0.02-0.06-0.03-0.11c-0.01-0.05-0.01-0.11-0.01-0.19c0-0.05,0-0.1,0.01-0.14s0.01-0.08,0.02-0.11s0.02-0.06,0.04-0.08
		s0.04-0.05,0.07-0.09c0.03-0.03,0.1-0.08,0.21-0.15s0.23-0.13,0.38-0.19c0.15-0.06,0.33-0.12,0.53-0.16
		c0.2-0.04,0.41-0.06,0.64-0.06c0.32,0,0.6,0.04,0.85,0.12s0.45,0.2,0.61,0.35c0.16,0.15,0.29,0.33,0.37,0.54
		c0.08,0.21,0.12,0.44,0.12,0.7c0,0.22-0.03,0.42-0.09,0.61c-0.06,0.19-0.14,0.35-0.25,0.5c-0.11,0.15-0.25,0.27-0.41,0.37
		c-0.16,0.1-0.35,0.17-0.56,0.21v0.01c0.24,0.03,0.46,0.08,0.66,0.18c0.2,0.09,0.37,0.21,0.51,0.36s0.26,0.31,0.34,0.5
		C42.44,6.92,42.48,7.12,42.48,7.34z"/>
	<path class="st0" d="M50.7,2.77c0,0.06,0,0.12-0.01,0.17c0,0.05-0.01,0.1-0.02,0.15c-0.01,0.05-0.02,0.09-0.04,0.14
		c-0.02,0.04-0.04,0.09-0.06,0.14l-2.5,5.77c-0.02,0.04-0.04,0.08-0.07,0.11c-0.03,0.03-0.06,0.05-0.1,0.06
		c-0.04,0.02-0.09,0.03-0.16,0.03c-0.06,0-0.14,0.01-0.24,0.01c-0.12,0-0.22,0-0.28-0.02c-0.07-0.01-0.12-0.03-0.15-0.05
		c-0.03-0.02-0.04-0.05-0.04-0.09s0.02-0.07,0.04-0.12l2.63-5.9h-3.34c-0.07,0-0.12-0.04-0.15-0.11c-0.03-0.07-0.05-0.17-0.05-0.3
		c0-0.07,0-0.13,0.01-0.18c0.01-0.05,0.02-0.09,0.04-0.13s0.04-0.06,0.06-0.08c0.02-0.02,0.05-0.02,0.09-0.02h4.05
		c0.05,0,0.09,0,0.13,0.02c0.04,0.01,0.07,0.03,0.09,0.06c0.02,0.03,0.04,0.07,0.05,0.12S50.7,2.7,50.7,2.77z"/>
	<path class="st0" d="M56.19,8.96c0,0.07-0.01,0.12-0.02,0.17s-0.02,0.08-0.04,0.11c-0.02,0.03-0.04,0.05-0.06,0.06
		C56.05,9.32,56.02,9.33,56,9.33h-3.63c-0.02,0-0.05-0.01-0.07-0.02s-0.04-0.03-0.06-0.06c-0.02-0.03-0.04-0.07-0.05-0.11
		s-0.02-0.1-0.02-0.17c0-0.06,0.01-0.12,0.02-0.17c0.01-0.05,0.02-0.09,0.04-0.12c0.02-0.03,0.04-0.05,0.06-0.07
		c0.02-0.02,0.05-0.02,0.08-0.02h1.45V3.3l-1.34,0.8c-0.07,0.04-0.12,0.06-0.16,0.06c-0.04,0.01-0.07,0-0.1-0.02
		s-0.04-0.06-0.05-0.12c-0.01-0.05-0.01-0.12-0.01-0.21c0-0.06,0-0.11,0.01-0.16c0.01-0.04,0.01-0.08,0.02-0.11s0.03-0.05,0.05-0.08
		c0.02-0.02,0.05-0.04,0.08-0.06l1.6-1.03c0.01-0.01,0.03-0.02,0.05-0.03S54,2.35,54.04,2.34s0.07-0.01,0.11-0.01s0.1,0,0.16,0
		c0.09,0,0.16,0,0.21,0.01c0.06,0.01,0.1,0.02,0.13,0.03s0.05,0.03,0.06,0.05s0.02,0.04,0.02,0.06v6.11H56
		c0.03,0,0.06,0.01,0.08,0.02c0.02,0.02,0.05,0.04,0.06,0.07c0.02,0.03,0.03,0.07,0.04,0.12C56.19,8.84,56.19,8.9,56.19,8.96z"/>
	<path class="st0" d="M64.41,7.08c0,0.3-0.05,0.6-0.14,0.88c-0.09,0.29-0.24,0.54-0.43,0.75s-0.44,0.39-0.74,0.52
		s-0.65,0.2-1.05,0.2c-0.29,0-0.55-0.04-0.77-0.11c-0.22-0.07-0.42-0.17-0.58-0.31s-0.3-0.3-0.41-0.49
		c-0.11-0.19-0.2-0.41-0.26-0.66c-0.07-0.25-0.11-0.52-0.14-0.81c-0.03-0.29-0.04-0.61-0.04-0.95c0-0.3,0.02-0.6,0.05-0.9
		c0.03-0.3,0.09-0.6,0.17-0.88c0.08-0.28,0.19-0.55,0.34-0.8c0.14-0.25,0.32-0.47,0.53-0.65c0.21-0.18,0.47-0.33,0.77-0.44
		s0.64-0.16,1.04-0.16c0.13,0,0.27,0.01,0.4,0.02c0.14,0.02,0.26,0.04,0.38,0.06c0.11,0.03,0.21,0.06,0.29,0.09
		c0.08,0.03,0.13,0.06,0.16,0.08s0.04,0.04,0.06,0.06c0.01,0.02,0.02,0.05,0.03,0.08c0.01,0.03,0.01,0.06,0.02,0.09
		s0.01,0.08,0.01,0.13c0,0.06,0,0.12,0,0.17c0,0.05-0.01,0.08-0.02,0.11C64.03,3.2,64.02,3.22,64,3.24
		c-0.02,0.01-0.05,0.02-0.08,0.02c-0.04,0-0.09-0.01-0.16-0.04c-0.07-0.02-0.15-0.05-0.25-0.08s-0.21-0.06-0.35-0.08
		c-0.14-0.03-0.3-0.04-0.48-0.04c-0.33,0-0.62,0.07-0.86,0.2c-0.24,0.14-0.44,0.32-0.59,0.55c-0.15,0.23-0.27,0.49-0.34,0.8
		c-0.07,0.3-0.12,0.62-0.13,0.95c0.09-0.05,0.2-0.11,0.31-0.16c0.12-0.05,0.24-0.1,0.38-0.14c0.14-0.04,0.28-0.08,0.44-0.11
		c0.15-0.03,0.32-0.04,0.49-0.04c0.38,0,0.69,0.05,0.95,0.15c0.26,0.1,0.47,0.24,0.63,0.42c0.16,0.18,0.27,0.39,0.34,0.64
		S64.41,6.79,64.41,7.08z M63.48,7.16c0-0.21-0.02-0.4-0.06-0.57c-0.04-0.17-0.11-0.31-0.21-0.43c-0.1-0.12-0.23-0.21-0.39-0.27
		s-0.36-0.1-0.6-0.1c-0.13,0-0.27,0.01-0.4,0.04s-0.26,0.06-0.38,0.1c-0.12,0.04-0.24,0.09-0.35,0.14
		c-0.11,0.06-0.22,0.12-0.31,0.18c0,0.46,0.03,0.85,0.09,1.16c0.06,0.31,0.15,0.56,0.26,0.75c0.11,0.19,0.25,0.32,0.42,0.4
		c0.17,0.08,0.37,0.12,0.59,0.12c0.23,0,0.43-0.04,0.6-0.13s0.31-0.2,0.42-0.35c0.11-0.14,0.19-0.31,0.24-0.49
		C63.45,7.54,63.48,7.35,63.48,7.16z"/>
	<path class="st0" d="M69.83,8.96c0,0.07-0.01,0.12-0.02,0.17s-0.02,0.08-0.04,0.11c-0.02,0.03-0.04,0.05-0.06,0.06
		c-0.02,0.01-0.05,0.02-0.07,0.02H66c-0.02,0-0.05-0.01-0.07-0.02s-0.04-0.03-0.06-0.06c-0.02-0.03-0.04-0.07-0.05-0.11
		s-0.02-0.1-0.02-0.17c0-0.06,0.01-0.12,0.02-0.17c0.01-0.05,0.02-0.09,0.04-0.12c0.02-0.03,0.04-0.05,0.06-0.07
		c0.02-0.02,0.05-0.02,0.08-0.02h1.45V3.3l-1.34,0.8c-0.07,0.04-0.12,0.06-0.16,0.06c-0.04,0.01-0.07,0-0.1-0.02
		s-0.04-0.06-0.05-0.12c-0.01-0.05-0.01-0.12-0.01-0.21c0-0.06,0-0.11,0.01-0.16c0.01-0.04,0.01-0.08,0.02-0.11s0.03-0.05,0.05-0.08
		c0.02-0.02,0.05-0.04,0.08-0.06l1.6-1.03c0.01-0.01,0.03-0.02,0.05-0.03s0.05-0.01,0.08-0.02s0.07-0.01,0.11-0.01s0.1,0,0.16,0
		c0.09,0,0.16,0,0.21,0.01c0.06,0.01,0.1,0.02,0.13,0.03s0.05,0.03,0.06,0.05s0.02,0.04,0.02,0.06v6.11h1.26
		c0.03,0,0.06,0.01,0.08,0.02c0.02,0.02,0.05,0.04,0.06,0.07c0.02,0.03,0.03,0.07,0.04,0.12C69.82,8.84,69.83,8.9,69.83,8.96z"/>
</g>
</svg>
