<?xml version="1.0" encoding="utf-8"?>
<!-- Generator: Adobe Illustrator 25.4.1, SVG Export Plug-In . SVG Version: 6.00 Build 0)  -->
<svg version="1.1" id="Capa_1" xmlns="http://www.w3.org/2000/svg" xmlns:xlink="http://www.w3.org/1999/xlink" x="0px" y="0px"
	 viewBox="0 0 50 7" style="enable-background:new 0 0 50 7;" xml:space="preserve">
<style type="text/css">
	.st0{fill:#3F3E3E;}
</style>
<g>
	<path class="st0" d="M1.66,6.99C1.32,6.56,1.03,6.06,0.8,5.49S0.44,4.32,0.44,3.71c0-0.54,0.09-1.06,0.26-1.56
		C0.91,1.57,1.23,1,1.66,0.42H2.1C1.82,0.9,1.64,1.24,1.55,1.44C1.41,1.75,1.3,2.08,1.22,2.42c-0.1,0.43-0.15,0.85-0.15,1.29
		c0,1.1,0.34,2.19,1.02,3.28H1.66z"/>
	<path class="st0" d="M2.73,4.36l0.59-0.05c0.05,0.28,0.15,0.48,0.29,0.6S3.94,5.1,4.16,5.1c0.19,0,0.35-0.04,0.5-0.13
		C4.8,4.88,4.91,4.77,5,4.62s0.17-0.34,0.23-0.59s0.09-0.5,0.09-0.75c0-0.03,0-0.07,0-0.12c-0.12,0.2-0.29,0.35-0.5,0.48
		C4.6,3.76,4.37,3.82,4.13,3.82c-0.41,0-0.77-0.15-1.05-0.45s-0.43-0.7-0.43-1.19c0-0.51,0.15-0.92,0.45-1.23
		c0.3-0.31,0.67-0.46,1.13-0.46c0.33,0,0.62,0.09,0.89,0.26C5.38,0.93,5.59,1.18,5.73,1.5C5.87,1.83,5.94,2.3,5.94,2.91
		c0,0.64-0.07,1.15-0.21,1.53C5.59,4.82,5.38,5.11,5.11,5.31c-0.27,0.2-0.6,0.3-0.97,0.3c-0.39,0-0.71-0.11-0.96-0.33
		S2.79,4.75,2.73,4.36z M5.25,2.15c0-0.35-0.09-0.63-0.28-0.84C4.78,1.1,4.56,1,4.29,1C4.02,1,3.78,1.11,3.58,1.33
		c-0.2,0.22-0.3,0.51-0.3,0.87c0,0.32,0.1,0.58,0.29,0.78c0.19,0.2,0.43,0.3,0.71,0.3c0.28,0,0.52-0.1,0.7-0.3
		C5.16,2.78,5.25,2.5,5.25,2.15z"/>
	<path class="st0" d="M6.63,4.36l0.59-0.05c0.05,0.28,0.15,0.48,0.29,0.6S7.83,5.1,8.05,5.1c0.19,0,0.35-0.04,0.5-0.13
		c0.14-0.09,0.26-0.2,0.35-0.35s0.17-0.34,0.23-0.59s0.09-0.5,0.09-0.75c0-0.03,0-0.07,0-0.12c-0.12,0.2-0.29,0.35-0.5,0.48
		C8.5,3.76,8.27,3.82,8.02,3.82c-0.41,0-0.77-0.15-1.05-0.45s-0.43-0.7-0.43-1.19c0-0.51,0.15-0.92,0.45-1.23
		c0.3-0.31,0.67-0.46,1.13-0.46c0.33,0,0.62,0.09,0.89,0.26C9.28,0.93,9.48,1.18,9.62,1.5C9.76,1.83,9.83,2.3,9.83,2.91
		c0,0.64-0.07,1.15-0.21,1.53C9.48,4.82,9.28,5.11,9,5.31c-0.27,0.2-0.6,0.3-0.97,0.3c-0.39,0-0.71-0.11-0.96-0.33
		S6.68,4.75,6.63,4.36z M9.15,2.15c0-0.35-0.09-0.63-0.28-0.84C8.68,1.1,8.45,1,8.19,1C7.91,1,7.67,1.11,7.47,1.33
		c-0.2,0.22-0.3,0.51-0.3,0.87c0,0.32,0.1,0.58,0.29,0.78c0.19,0.2,0.43,0.3,0.71,0.3c0.28,0,0.52-0.1,0.7-0.3
		C9.06,2.78,9.15,2.5,9.15,2.15z"/>
	<path class="st0" d="M10.52,4.36l0.59-0.05c0.05,0.28,0.15,0.48,0.29,0.6s0.32,0.19,0.54,0.19c0.19,0,0.35-0.04,0.5-0.13
		c0.14-0.09,0.26-0.2,0.35-0.35s0.17-0.34,0.23-0.59s0.09-0.5,0.09-0.75c0-0.03,0-0.07,0-0.12c-0.12,0.2-0.29,0.35-0.5,0.48
		c-0.21,0.12-0.44,0.18-0.69,0.18c-0.41,0-0.77-0.15-1.05-0.45s-0.43-0.7-0.43-1.19c0-0.51,0.15-0.92,0.45-1.23
		c0.3-0.31,0.67-0.46,1.13-0.46c0.33,0,0.62,0.09,0.89,0.26c0.27,0.17,0.48,0.42,0.62,0.75c0.14,0.32,0.21,0.79,0.21,1.41
		c0,0.64-0.07,1.15-0.21,1.53c-0.14,0.38-0.35,0.67-0.62,0.87c-0.27,0.2-0.6,0.3-0.97,0.3c-0.39,0-0.71-0.11-0.96-0.33
		S10.57,4.75,10.52,4.36z M13.04,2.15c0-0.35-0.09-0.63-0.28-0.84C12.57,1.1,12.34,1,12.08,1c-0.27,0-0.51,0.11-0.71,0.33
		c-0.2,0.22-0.3,0.51-0.3,0.87c0,0.32,0.1,0.58,0.29,0.78c0.19,0.2,0.43,0.3,0.71,0.3c0.28,0,0.52-0.1,0.7-0.3
		C12.95,2.78,13.04,2.5,13.04,2.15z"/>
	<path class="st0" d="M14.9,6.99h-0.44c0.68-1.09,1.02-2.19,1.02-3.28c0-0.43-0.05-0.85-0.15-1.27c-0.08-0.34-0.19-0.67-0.32-0.98
		c-0.09-0.21-0.27-0.55-0.55-1.03h0.44c0.43,0.57,0.75,1.15,0.95,1.72c0.18,0.5,0.26,1.02,0.26,1.56c0,0.62-0.12,1.21-0.35,1.78
		C15.52,6.06,15.23,6.56,14.9,6.99z"/>
	<path class="st0" d="M18.6,4.2l0.62-0.08c0.07,0.35,0.19,0.6,0.36,0.75c0.17,0.15,0.38,0.23,0.62,0.23c0.29,0,0.53-0.1,0.73-0.3
		c0.2-0.2,0.3-0.45,0.3-0.75c0-0.28-0.09-0.51-0.28-0.7s-0.42-0.28-0.7-0.28c-0.12,0-0.26,0.02-0.43,0.07l0.07-0.54
		c0.04,0,0.07,0.01,0.1,0.01c0.26,0,0.5-0.07,0.71-0.21S21,2.06,21,1.78c0-0.23-0.08-0.41-0.23-0.56c-0.15-0.15-0.35-0.22-0.59-0.22
		c-0.24,0-0.44,0.08-0.6,0.23S19.32,1.6,19.28,1.9l-0.62-0.11c0.08-0.41,0.25-0.73,0.51-0.96s0.6-0.34,0.99-0.34
		c0.27,0,0.53,0.06,0.76,0.18s0.41,0.28,0.53,0.48c0.12,0.2,0.18,0.42,0.18,0.65c0,0.22-0.06,0.41-0.17,0.59s-0.29,0.32-0.52,0.42
		c0.3,0.07,0.53,0.21,0.69,0.43c0.16,0.21,0.25,0.48,0.25,0.81c0,0.44-0.16,0.81-0.48,1.11c-0.32,0.3-0.72,0.46-1.21,0.46
		c-0.44,0-0.8-0.13-1.1-0.39C18.81,4.95,18.64,4.61,18.6,4.2z"/>
	<path class="st0" d="M22.53,1.17V0.57h3.24v0.48c-0.32,0.34-0.64,0.79-0.95,1.35c-0.31,0.56-0.56,1.14-0.73,1.74
		c-0.12,0.42-0.2,0.88-0.24,1.38h-0.63c0.01-0.39,0.08-0.87,0.23-1.43s0.36-1.1,0.64-1.62c0.28-0.52,0.57-0.96,0.88-1.31H22.53z"/>
	<path class="st0" d="M28.7,5.52h-0.62V1.6c-0.15,0.14-0.34,0.28-0.58,0.42c-0.24,0.14-0.46,0.25-0.65,0.32V1.75
		c0.34-0.16,0.65-0.36,0.9-0.59s0.44-0.45,0.55-0.67h0.4V5.52z"/>
	<path class="st0" d="M32.22,4.21l0.65-0.05c0.05,0.31,0.16,0.55,0.33,0.71c0.17,0.16,0.38,0.24,0.63,0.24
		c0.3,0,0.55-0.11,0.75-0.34c0.21-0.22,0.31-0.52,0.31-0.89c0-0.35-0.1-0.63-0.3-0.83c-0.2-0.2-0.46-0.3-0.77-0.3
		c-0.2,0-0.38,0.05-0.54,0.14S33,3.08,32.91,3.23l-0.58-0.08l0.49-2.57h2.49v0.59h-2l-0.27,1.35c0.3-0.21,0.62-0.31,0.95-0.31
		c0.44,0,0.81,0.15,1.11,0.46c0.3,0.3,0.45,0.69,0.45,1.17c0,0.45-0.13,0.85-0.4,1.18c-0.32,0.41-0.76,0.61-1.32,0.61
		c-0.46,0-0.83-0.13-1.12-0.38C32.43,4.97,32.26,4.63,32.22,4.21z"/>
	<path class="st0" d="M36.12,4.2l0.62-0.08c0.07,0.35,0.19,0.6,0.36,0.75c0.17,0.15,0.38,0.23,0.62,0.23c0.29,0,0.53-0.1,0.73-0.3
		c0.2-0.2,0.3-0.45,0.3-0.75c0-0.28-0.09-0.51-0.28-0.7s-0.42-0.28-0.7-0.28c-0.12,0-0.26,0.02-0.43,0.07l0.07-0.54
		c0.04,0,0.07,0.01,0.1,0.01c0.26,0,0.5-0.07,0.71-0.21s0.31-0.35,0.31-0.63c0-0.23-0.08-0.41-0.23-0.56
		c-0.15-0.15-0.35-0.22-0.59-0.22c-0.24,0-0.44,0.08-0.6,0.23S36.84,1.6,36.79,1.9l-0.62-0.11c0.08-0.41,0.25-0.73,0.51-0.96
		s0.6-0.34,0.99-0.34c0.27,0,0.53,0.06,0.76,0.18s0.41,0.28,0.53,0.48c0.12,0.2,0.18,0.42,0.18,0.65c0,0.22-0.06,0.41-0.17,0.59
		s-0.29,0.32-0.52,0.42c0.3,0.07,0.53,0.21,0.69,0.43c0.16,0.21,0.25,0.48,0.25,0.81c0,0.44-0.16,0.81-0.48,1.11
		c-0.32,0.3-0.72,0.46-1.21,0.46c-0.44,0-0.8-0.13-1.1-0.39C36.33,4.95,36.16,4.61,36.12,4.2z"/>
	<path class="st0" d="M41.95,4.21l0.65-0.05c0.05,0.31,0.16,0.55,0.33,0.71c0.17,0.16,0.38,0.24,0.63,0.24
		c0.3,0,0.55-0.11,0.75-0.34c0.21-0.22,0.31-0.52,0.31-0.89c0-0.35-0.1-0.63-0.3-0.83c-0.2-0.2-0.46-0.3-0.77-0.3
		c-0.2,0-0.38,0.05-0.54,0.14s-0.28,0.21-0.38,0.35l-0.58-0.08l0.49-2.57h2.49v0.59h-2l-0.27,1.35c0.3-0.21,0.62-0.31,0.95-0.31
		c0.44,0,0.81,0.15,1.11,0.46c0.3,0.3,0.45,0.69,0.45,1.17c0,0.45-0.13,0.85-0.4,1.18c-0.32,0.41-0.76,0.61-1.32,0.61
		c-0.46,0-0.83-0.13-1.12-0.38C42.16,4.97,41.99,4.63,41.95,4.21z"/>
	<path class="st0" d="M49.04,1.74l-0.61,0.05c-0.05-0.24-0.13-0.42-0.23-0.53c-0.17-0.18-0.37-0.26-0.62-0.26
		c-0.2,0-0.37,0.05-0.52,0.16c-0.19,0.14-0.35,0.35-0.46,0.62c-0.11,0.27-0.17,0.66-0.17,1.16c0.15-0.23,0.33-0.39,0.54-0.5
		s0.44-0.16,0.67-0.16c0.41,0,0.76,0.15,1.05,0.45c0.29,0.3,0.43,0.69,0.43,1.17c0,0.31-0.07,0.61-0.2,0.88
		c-0.14,0.27-0.32,0.48-0.56,0.62s-0.51,0.22-0.81,0.22c-0.51,0-0.93-0.19-1.25-0.57s-0.49-1-0.49-1.86c0-0.97,0.18-1.67,0.54-2.11
		c0.31-0.38,0.73-0.57,1.26-0.57c0.39,0,0.72,0.11,0.97,0.33C48.84,1.04,48.99,1.35,49.04,1.74z M46.53,3.9
		c0,0.21,0.04,0.41,0.13,0.61c0.09,0.19,0.22,0.34,0.38,0.44s0.33,0.15,0.51,0.15c0.26,0,0.48-0.11,0.67-0.31
		c0.19-0.21,0.28-0.5,0.28-0.86c0-0.35-0.09-0.62-0.28-0.82s-0.42-0.3-0.7-0.3c-0.28,0-0.51,0.1-0.71,0.3S46.53,3.57,46.53,3.9z"/>
</g>
</svg>
