<?xml version="1.0" encoding="utf-8"?>
<!-- Generator: Adobe Illustrator 25.4.1, SVG Export Plug-In . SVG Version: 6.00 Build 0)  -->
<svg version="1.1" id="Capa_1" xmlns="http://www.w3.org/2000/svg" xmlns:xlink="http://www.w3.org/1999/xlink" x="0px" y="0px"
	 viewBox="0 0 47 7" style="enable-background:new 0 0 47 7;" xml:space="preserve">
<style type="text/css">
	.st0{fill:#3F3E3E;}
</style>
<g>
	<path class="st0" d="M1.47,5.17L0.36,1.54H1l0.58,2.09l0.22,0.78C1.8,4.38,1.86,4.12,1.98,3.67l0.58-2.13h0.63l0.54,2.11l0.18,0.69
		l0.21-0.7l0.62-2.1h0.6L4.21,5.17H3.57L2.99,3L2.85,2.38L2.12,5.17H1.47z"/>
	<path class="st0" d="M6.53,5.17L5.42,1.54h0.64l0.58,2.09l0.22,0.78c0.01-0.04,0.07-0.29,0.19-0.75l0.58-2.13h0.63l0.54,2.11
		l0.18,0.69l0.21-0.7l0.62-2.1h0.6L9.26,5.17H8.62L8.05,3L7.91,2.38L7.17,5.17H6.53z"/>
	<path class="st0" d="M11.58,5.17l-1.11-3.63h0.64l0.58,2.09l0.22,0.78c0.01-0.04,0.07-0.29,0.19-0.75l0.58-2.13h0.63l0.54,2.11
		l0.18,0.69l0.21-0.7l0.62-2.1h0.6l-1.13,3.63h-0.64L13.1,3l-0.14-0.62l-0.73,2.79H11.58z"/>
	<path class="st0" d="M15.76,5.17v-0.7h0.7v0.7H15.76z"/>
	<path class="st0" d="M17.41,5.47l0.6,0.09c0.02,0.18,0.09,0.32,0.21,0.4c0.15,0.11,0.36,0.17,0.63,0.17c0.28,0,0.5-0.06,0.66-0.17
		s0.26-0.27,0.31-0.48c0.03-0.12,0.05-0.39,0.04-0.79c-0.27,0.32-0.6,0.47-1,0.47c-0.5,0-0.89-0.18-1.16-0.54s-0.41-0.79-0.41-1.3
		c0-0.35,0.06-0.67,0.19-0.96s0.31-0.52,0.55-0.68c0.24-0.16,0.52-0.24,0.84-0.24c0.43,0,0.78,0.17,1.06,0.52V1.54h0.57v3.14
		c0,0.57-0.06,0.97-0.17,1.2c-0.11,0.24-0.3,0.42-0.55,0.56c-0.25,0.14-0.56,0.21-0.92,0.21c-0.43,0-0.78-0.1-1.05-0.29
		C17.53,6.16,17.4,5.86,17.41,5.47z M17.92,3.29c0,0.48,0.09,0.82,0.28,1.04s0.43,0.33,0.71,0.33c0.28,0,0.52-0.11,0.71-0.33
		s0.29-0.56,0.29-1.02c0-0.44-0.1-0.78-0.3-1c-0.2-0.23-0.43-0.34-0.71-0.34c-0.27,0-0.51,0.11-0.7,0.33
		C18.02,2.52,17.92,2.85,17.92,3.29z"/>
	<path class="st0" d="M23.79,4.72c-0.23,0.19-0.45,0.33-0.66,0.41c-0.21,0.08-0.44,0.12-0.68,0.12c-0.4,0-0.71-0.1-0.92-0.29
		c-0.21-0.2-0.32-0.44-0.32-0.75c0-0.18,0.04-0.34,0.12-0.49c0.08-0.15,0.19-0.26,0.32-0.35c0.13-0.09,0.28-0.16,0.44-0.2
		c0.12-0.03,0.3-0.06,0.55-0.09c0.5-0.06,0.86-0.13,1.1-0.21c0-0.08,0-0.14,0-0.16c0-0.25-0.06-0.43-0.17-0.53
		c-0.16-0.14-0.39-0.21-0.7-0.21c-0.29,0-0.5,0.05-0.64,0.15c-0.14,0.1-0.24,0.28-0.31,0.54l-0.6-0.08
		c0.05-0.26,0.14-0.47,0.27-0.62s0.31-0.28,0.54-0.37c0.24-0.08,0.51-0.13,0.82-0.13c0.31,0,0.56,0.04,0.76,0.11
		s0.34,0.17,0.43,0.28s0.15,0.25,0.19,0.42c0.02,0.1,0.03,0.29,0.03,0.57v0.82c0,0.57,0.01,0.93,0.04,1.09
		c0.03,0.15,0.08,0.3,0.16,0.44h-0.64C23.85,5.04,23.81,4.89,23.79,4.72z M23.74,3.35c-0.22,0.09-0.56,0.17-1,0.23
		C22.48,3.62,22.3,3.66,22.2,3.7c-0.1,0.05-0.19,0.11-0.24,0.2s-0.09,0.19-0.09,0.29c0,0.16,0.06,0.3,0.19,0.41
		c0.12,0.11,0.31,0.16,0.54,0.16c0.24,0,0.45-0.05,0.63-0.16s0.32-0.25,0.41-0.42c0.07-0.14,0.1-0.34,0.1-0.62V3.35z"/>
	<path class="st0" d="M25.88,5.17h-0.57V0.16h0.62v1.79c0.26-0.33,0.59-0.49,0.99-0.49c0.22,0,0.43,0.04,0.63,0.13
		c0.2,0.09,0.36,0.22,0.49,0.38c0.13,0.16,0.23,0.36,0.3,0.59c0.07,0.23,0.11,0.48,0.11,0.74c0,0.62-0.15,1.1-0.46,1.44
		c-0.31,0.34-0.68,0.51-1.11,0.51c-0.43,0-0.76-0.18-1.01-0.54V5.17z M25.87,3.33c0,0.43,0.06,0.75,0.18,0.94
		c0.19,0.32,0.46,0.47,0.79,0.47c0.27,0,0.5-0.12,0.7-0.35s0.29-0.58,0.29-1.04c0-0.47-0.09-0.82-0.28-1.05
		c-0.19-0.23-0.42-0.34-0.68-0.34c-0.27,0-0.5,0.12-0.7,0.35S25.87,2.88,25.87,3.33z"/>
	<path class="st0" d="M31.57,4.72c-0.23,0.19-0.45,0.33-0.66,0.41c-0.21,0.08-0.44,0.12-0.68,0.12c-0.4,0-0.71-0.1-0.92-0.29
		C29.1,4.76,29,4.51,29,4.21c0-0.18,0.04-0.34,0.12-0.49c0.08-0.15,0.19-0.26,0.32-0.35c0.13-0.09,0.28-0.16,0.44-0.2
		c0.12-0.03,0.3-0.06,0.55-0.09c0.5-0.06,0.86-0.13,1.1-0.21c0-0.08,0-0.14,0-0.16c0-0.25-0.06-0.43-0.17-0.53
		c-0.16-0.14-0.39-0.21-0.7-0.21c-0.29,0-0.5,0.05-0.64,0.15c-0.14,0.1-0.24,0.28-0.31,0.54l-0.6-0.08
		c0.05-0.26,0.14-0.47,0.27-0.62s0.31-0.28,0.54-0.37c0.24-0.08,0.51-0.13,0.82-0.13c0.31,0,0.56,0.04,0.76,0.11
		s0.34,0.17,0.43,0.28s0.15,0.25,0.19,0.42c0.02,0.1,0.03,0.29,0.03,0.57v0.82c0,0.57,0.01,0.93,0.04,1.09
		c0.03,0.15,0.08,0.3,0.16,0.44H31.7C31.63,5.04,31.59,4.89,31.57,4.72z M31.52,3.35c-0.22,0.09-0.56,0.17-1,0.23
		c-0.25,0.04-0.43,0.08-0.54,0.12c-0.1,0.05-0.19,0.11-0.24,0.2s-0.09,0.19-0.09,0.29c0,0.16,0.06,0.3,0.19,0.41
		c0.12,0.11,0.31,0.16,0.54,0.16c0.24,0,0.45-0.05,0.63-0.16s0.32-0.25,0.41-0.42c0.07-0.14,0.1-0.34,0.1-0.62V3.35z"/>
	<path class="st0" d="M33.09,5.17V1.54h0.55v0.55c0.14-0.26,0.27-0.43,0.39-0.51c0.12-0.08,0.25-0.12,0.4-0.12
		c0.21,0,0.42,0.07,0.63,0.2l-0.21,0.57c-0.15-0.09-0.3-0.13-0.45-0.13c-0.13,0-0.26,0.04-0.36,0.12s-0.18,0.19-0.23,0.34
		c-0.07,0.22-0.1,0.46-0.1,0.72v1.9H33.09z"/>
	<path class="st0" d="M35.22,5.17v-0.7h0.7v0.7H35.22z"/>
	<path class="st0" d="M36.99,5.17V1.54h0.55v0.51c0.11-0.18,0.27-0.32,0.45-0.43s0.4-0.16,0.65-0.16c0.27,0,0.49,0.06,0.66,0.17
		c0.17,0.11,0.29,0.27,0.36,0.47c0.29-0.42,0.66-0.64,1.12-0.64c0.36,0,0.64,0.1,0.83,0.3s0.29,0.51,0.29,0.92v2.49H41.3V2.88
		c0-0.25-0.02-0.42-0.06-0.53c-0.04-0.11-0.11-0.2-0.22-0.26c-0.1-0.07-0.23-0.1-0.37-0.1c-0.26,0-0.47,0.08-0.64,0.25
		s-0.25,0.44-0.25,0.81v2.11h-0.62V2.81c0-0.27-0.05-0.48-0.15-0.62s-0.26-0.21-0.49-0.21c-0.17,0-0.33,0.05-0.48,0.14
		c-0.15,0.09-0.25,0.22-0.32,0.4c-0.07,0.18-0.1,0.43-0.1,0.76v1.88H36.99z"/>
	<path class="st0" d="M42.41,5.17l1.33-1.89l-1.23-1.74h0.77l0.56,0.85c0.1,0.16,0.19,0.3,0.25,0.41c0.1-0.15,0.19-0.28,0.28-0.4
		l0.61-0.86h0.73l-1.25,1.71l1.35,1.92h-0.76l-0.75-1.13l-0.2-0.3l-0.95,1.43H42.41z"/>
</g>
</svg>
