<?xml version="1.0" encoding="utf-8"?>
<!-- Generator: Adobe Illustrator 25.4.1, SVG Export Plug-In . SVG Version: 6.00 Build 0)  -->
<svg version="1.1" id="Capa_1" xmlns="http://www.w3.org/2000/svg" xmlns:xlink="http://www.w3.org/1999/xlink" x="0px" y="0px"
	 viewBox="0 0 69 12" style="enable-background:new 0 0 69 12;" xml:space="preserve">
<style type="text/css">
	.st0{fill:#3F3E3E;}
</style>
<g>
	<path class="st0" d="M8.42,4.44c0,0.02,0,0.05-0.01,0.09S8.39,4.62,8.38,4.67L6.95,9.26C6.94,9.3,6.93,9.33,6.9,9.36
		C6.88,9.38,6.85,9.4,6.81,9.42c-0.04,0.01-0.1,0.02-0.17,0.03c-0.07,0-0.16,0.01-0.27,0.01c-0.11,0-0.2,0-0.28-0.01
		S5.95,9.43,5.91,9.41C5.86,9.4,5.83,9.38,5.81,9.35C5.79,9.33,5.77,9.3,5.76,9.26L4.75,5.75L4.73,5.71L4.72,5.75L3.78,9.26
		C3.77,9.3,3.76,9.33,3.73,9.36C3.71,9.38,3.67,9.4,3.63,9.42C3.58,9.43,3.52,9.44,3.45,9.45c-0.07,0-0.16,0.01-0.27,0.01
		c-0.11,0-0.2,0-0.27-0.01C2.84,9.44,2.78,9.43,2.73,9.41C2.69,9.4,2.66,9.38,2.63,9.35C2.61,9.33,2.6,9.3,2.59,9.26L1.17,4.67
		c-0.02-0.05-0.03-0.1-0.04-0.13S1.13,4.47,1.13,4.44c0-0.03,0.01-0.06,0.02-0.08s0.04-0.04,0.07-0.05C1.25,4.3,1.3,4.3,1.36,4.29
		c0.06,0,0.13-0.01,0.21-0.01c0.1,0,0.18,0,0.24,0.01C1.87,4.3,1.92,4.31,1.95,4.32S2,4.35,2.02,4.38s0.03,0.05,0.04,0.08l1.17,3.99
		l0.01,0.05l0.01-0.05l1.07-3.99C4.32,4.43,4.33,4.4,4.35,4.38c0.02-0.02,0.04-0.04,0.07-0.05S4.49,4.3,4.55,4.29
		c0.06,0,0.13-0.01,0.22-0.01c0.09,0,0.16,0,0.21,0.01c0.06,0.01,0.1,0.01,0.13,0.03s0.06,0.03,0.07,0.05s0.02,0.05,0.03,0.08
		l1.15,4l0.01,0.05l0.01-0.05l1.15-3.99C7.54,4.43,7.55,4.4,7.57,4.38c0.02-0.02,0.04-0.04,0.08-0.05C7.68,4.31,7.72,4.3,7.78,4.29
		c0.06,0,0.13-0.01,0.23-0.01c0.09,0,0.15,0,0.21,0.01c0.05,0,0.09,0.01,0.12,0.03c0.03,0.01,0.05,0.03,0.06,0.05
		C8.42,4.39,8.42,4.41,8.42,4.44z"/>
	<path class="st0" d="M16.33,4.44c0,0.02,0,0.05-0.01,0.09s-0.02,0.08-0.04,0.13l-1.42,4.59c-0.01,0.04-0.03,0.07-0.05,0.1
		c-0.02,0.03-0.06,0.04-0.1,0.06c-0.04,0.01-0.1,0.02-0.17,0.03c-0.07,0-0.16,0.01-0.27,0.01c-0.11,0-0.2,0-0.28-0.01
		s-0.14-0.02-0.18-0.03c-0.04-0.01-0.08-0.03-0.1-0.06c-0.02-0.02-0.04-0.05-0.05-0.09l-1.02-3.51l-0.01-0.05l-0.01,0.05l-0.94,3.51
		c-0.01,0.04-0.03,0.07-0.05,0.1c-0.02,0.03-0.06,0.04-0.1,0.06c-0.05,0.01-0.11,0.02-0.18,0.03c-0.07,0-0.16,0.01-0.27,0.01
		c-0.11,0-0.2,0-0.27-0.01c-0.07-0.01-0.13-0.02-0.17-0.03c-0.04-0.01-0.08-0.03-0.1-0.06c-0.02-0.02-0.04-0.05-0.05-0.09L9.08,4.67
		c-0.02-0.05-0.03-0.1-0.04-0.13S9.03,4.47,9.03,4.44c0-0.03,0.01-0.06,0.02-0.08s0.04-0.04,0.07-0.05C9.16,4.3,9.21,4.3,9.26,4.29
		c0.06,0,0.13-0.01,0.21-0.01c0.1,0,0.18,0,0.24,0.01C9.77,4.3,9.82,4.31,9.85,4.32s0.06,0.03,0.07,0.05s0.03,0.05,0.04,0.08
		l1.17,3.99l0.01,0.05l0.01-0.05l1.07-3.99c0.01-0.03,0.02-0.06,0.04-0.08c0.02-0.02,0.04-0.04,0.07-0.05s0.08-0.02,0.13-0.03
		c0.06,0,0.13-0.01,0.22-0.01c0.09,0,0.16,0,0.21,0.01c0.06,0.01,0.1,0.01,0.13,0.03s0.06,0.03,0.07,0.05s0.02,0.05,0.03,0.08
		l1.15,4l0.01,0.05l0.01-0.05l1.15-3.99c0.01-0.03,0.02-0.06,0.04-0.08c0.02-0.02,0.04-0.04,0.08-0.05
		c0.03-0.01,0.08-0.02,0.14-0.03c0.06,0,0.13-0.01,0.23-0.01c0.09,0,0.15,0,0.21,0.01c0.05,0,0.09,0.01,0.12,0.03
		c0.03,0.01,0.05,0.03,0.06,0.05C16.32,4.39,16.33,4.41,16.33,4.44z"/>
	<path class="st0" d="M24.24,4.44c0,0.02,0,0.05-0.01,0.09s-0.02,0.08-0.04,0.13l-1.42,4.59c-0.01,0.04-0.03,0.07-0.05,0.1
		c-0.02,0.03-0.06,0.04-0.1,0.06c-0.04,0.01-0.1,0.02-0.17,0.03c-0.07,0-0.16,0.01-0.27,0.01c-0.11,0-0.2,0-0.28-0.01
		s-0.14-0.02-0.18-0.03c-0.04-0.01-0.08-0.03-0.1-0.06c-0.02-0.02-0.04-0.05-0.05-0.09l-1.02-3.51l-0.01-0.05l-0.01,0.05L19.6,9.26
		c-0.01,0.04-0.03,0.07-0.05,0.1c-0.02,0.03-0.06,0.04-0.1,0.06c-0.05,0.01-0.11,0.02-0.18,0.03c-0.07,0-0.16,0.01-0.27,0.01
		c-0.11,0-0.2,0-0.27-0.01c-0.07-0.01-0.13-0.02-0.17-0.03c-0.04-0.01-0.08-0.03-0.1-0.06c-0.02-0.02-0.04-0.05-0.05-0.09
		l-1.41-4.59c-0.02-0.05-0.03-0.1-0.04-0.13s-0.01-0.07-0.01-0.09c0-0.03,0.01-0.06,0.02-0.08S17,4.33,17.03,4.32
		c0.03-0.01,0.08-0.02,0.14-0.02c0.06,0,0.13-0.01,0.21-0.01c0.1,0,0.18,0,0.24,0.01c0.06,0.01,0.11,0.01,0.14,0.03
		s0.06,0.03,0.07,0.05s0.03,0.05,0.04,0.08l1.17,3.99l0.01,0.05l0.01-0.05l1.07-3.99c0.01-0.03,0.02-0.06,0.04-0.08
		c0.02-0.02,0.04-0.04,0.07-0.05s0.08-0.02,0.13-0.03c0.06,0,0.13-0.01,0.22-0.01c0.09,0,0.16,0,0.21,0.01
		c0.06,0.01,0.1,0.01,0.13,0.03s0.06,0.03,0.07,0.05s0.02,0.05,0.03,0.08l1.15,4l0.01,0.05l0.01-0.05l1.15-3.99
		c0.01-0.03,0.02-0.06,0.04-0.08c0.02-0.02,0.04-0.04,0.08-0.05c0.03-0.01,0.08-0.02,0.14-0.03c0.06,0,0.13-0.01,0.23-0.01
		c0.09,0,0.15,0,0.21,0.01c0.05,0,0.09,0.01,0.12,0.03c0.03,0.01,0.05,0.03,0.06,0.05C24.23,4.39,24.24,4.41,24.24,4.44z"/>
	<path class="st0" d="M25.78,8.84c0,0.25-0.04,0.42-0.13,0.51c-0.08,0.08-0.24,0.13-0.46,0.13c-0.21,0-0.36-0.04-0.45-0.12
		s-0.12-0.25-0.12-0.49c0-0.25,0.04-0.42,0.13-0.51c0.08-0.08,0.24-0.13,0.46-0.13c0.21,0,0.36,0.04,0.45,0.12
		C25.74,8.42,25.78,8.59,25.78,8.84z"/>
	<path class="st0" d="M31.57,4.67c0,0.12-0.02,0.22-0.05,0.27C31.48,5,31.44,5.03,31.39,5.03h-0.69c0.13,0.13,0.21,0.27,0.26,0.43
		c0.05,0.16,0.08,0.32,0.08,0.49c0,0.28-0.04,0.53-0.13,0.74s-0.22,0.4-0.38,0.54c-0.17,0.15-0.36,0.26-0.59,0.34
		c-0.23,0.08-0.48,0.12-0.76,0.12c-0.2,0-0.38-0.03-0.56-0.08c-0.18-0.05-0.31-0.12-0.41-0.2c-0.06,0.06-0.12,0.14-0.16,0.22
		c-0.04,0.08-0.06,0.18-0.06,0.29c0,0.12,0.06,0.23,0.17,0.31c0.12,0.08,0.27,0.13,0.46,0.13l1.26,0.05
		c0.24,0.01,0.46,0.04,0.66,0.1c0.2,0.06,0.37,0.14,0.52,0.25s0.26,0.24,0.34,0.4s0.12,0.34,0.12,0.56c0,0.22-0.05,0.43-0.14,0.63
		c-0.09,0.2-0.24,0.38-0.43,0.53c-0.19,0.15-0.44,0.27-0.73,0.36s-0.65,0.13-1.05,0.13c-0.39,0-0.72-0.03-1-0.1
		c-0.27-0.07-0.5-0.16-0.67-0.27s-0.3-0.25-0.38-0.41s-0.12-0.33-0.12-0.52c0-0.12,0.01-0.23,0.04-0.34
		c0.03-0.11,0.07-0.22,0.13-0.32c0.06-0.1,0.13-0.2,0.22-0.29c0.09-0.09,0.19-0.18,0.3-0.27c-0.18-0.09-0.31-0.2-0.39-0.34
		c-0.08-0.14-0.13-0.28-0.13-0.44c0-0.22,0.04-0.41,0.13-0.58s0.2-0.33,0.33-0.46c-0.11-0.13-0.2-0.28-0.26-0.45
		c-0.06-0.17-0.1-0.37-0.1-0.6c0-0.28,0.05-0.52,0.14-0.74s0.22-0.4,0.39-0.55s0.36-0.27,0.59-0.35c0.23-0.08,0.48-0.12,0.75-0.12
		c0.15,0,0.28,0.01,0.41,0.02c0.13,0.02,0.25,0.04,0.36,0.07h1.46c0.06,0,0.11,0.03,0.14,0.09C31.55,4.46,31.57,4.55,31.57,4.67z
		 M30.63,9.78c0-0.21-0.08-0.37-0.25-0.48c-0.17-0.11-0.4-0.17-0.69-0.18l-1.25-0.04c-0.11,0.09-0.21,0.17-0.28,0.26
		c-0.07,0.08-0.13,0.16-0.17,0.23s-0.07,0.15-0.09,0.22c-0.02,0.07-0.02,0.15-0.02,0.22c0,0.23,0.12,0.41,0.35,0.53
		s0.57,0.18,0.99,0.18c0.27,0,0.49-0.03,0.67-0.08c0.18-0.05,0.33-0.12,0.44-0.21s0.19-0.18,0.24-0.3
		C30.6,10.01,30.63,9.9,30.63,9.78z M30.18,5.95c0-0.33-0.09-0.59-0.27-0.77c-0.18-0.18-0.44-0.28-0.77-0.28
		c-0.17,0-0.32,0.03-0.45,0.09c-0.13,0.06-0.23,0.14-0.32,0.24c-0.08,0.1-0.15,0.22-0.19,0.35c-0.04,0.13-0.06,0.27-0.06,0.41
		c0,0.32,0.09,0.57,0.27,0.75C28.58,6.91,28.83,7,29.16,7c0.18,0,0.33-0.03,0.46-0.08s0.24-0.13,0.32-0.23
		c0.08-0.1,0.15-0.21,0.19-0.34C30.16,6.22,30.18,6.09,30.18,5.95z"/>
	<path class="st0" d="M36.15,9.29c0,0.04-0.01,0.08-0.04,0.1s-0.07,0.04-0.12,0.05c-0.05,0.01-0.12,0.02-0.22,0.02
		c-0.09,0-0.17,0-0.22-0.02c-0.06-0.01-0.1-0.03-0.12-0.05s-0.04-0.05-0.04-0.1V8.81c-0.21,0.23-0.45,0.4-0.71,0.53
		c-0.26,0.12-0.53,0.19-0.82,0.19c-0.25,0-0.48-0.03-0.69-0.1c-0.21-0.07-0.38-0.16-0.53-0.29c-0.14-0.12-0.26-0.28-0.34-0.46
		c-0.08-0.18-0.12-0.39-0.12-0.62c0-0.27,0.06-0.51,0.17-0.71c0.11-0.2,0.27-0.37,0.48-0.5s0.46-0.23,0.76-0.3s0.64-0.1,1.02-0.1
		h0.67V6.07c0-0.19-0.02-0.35-0.06-0.49s-0.1-0.26-0.19-0.36c-0.09-0.09-0.2-0.17-0.34-0.21c-0.14-0.05-0.31-0.07-0.52-0.07
		c-0.22,0-0.41,0.03-0.59,0.08c-0.17,0.05-0.33,0.11-0.46,0.17c-0.13,0.06-0.24,0.12-0.33,0.17c-0.09,0.05-0.15,0.08-0.2,0.08
		c-0.03,0-0.05-0.01-0.08-0.02c-0.02-0.01-0.04-0.04-0.06-0.06c-0.02-0.03-0.03-0.07-0.04-0.11s-0.01-0.09-0.01-0.15
		c0-0.09,0.01-0.16,0.02-0.21c0.01-0.05,0.04-0.1,0.09-0.15c0.05-0.05,0.13-0.1,0.25-0.16s0.25-0.12,0.41-0.17s0.32-0.09,0.5-0.13
		s0.37-0.05,0.55-0.05c0.35,0,0.64,0.04,0.89,0.12s0.44,0.19,0.59,0.35s0.26,0.34,0.33,0.57s0.1,0.49,0.1,0.79V9.29z M35.26,7.09
		h-0.76c-0.24,0-0.45,0.02-0.63,0.06s-0.33,0.1-0.45,0.18c-0.12,0.08-0.21,0.18-0.26,0.29c-0.06,0.11-0.08,0.24-0.08,0.39
		c0,0.25,0.08,0.45,0.24,0.6c0.16,0.15,0.38,0.22,0.67,0.22c0.23,0,0.45-0.06,0.65-0.18c0.2-0.12,0.41-0.3,0.63-0.54V7.09z"/>
	<path class="st0" d="M42.22,6.81c0,0.42-0.05,0.79-0.14,1.13c-0.09,0.33-0.23,0.62-0.4,0.86c-0.18,0.24-0.4,0.42-0.65,0.54
		s-0.55,0.19-0.89,0.19c-0.15,0-0.3-0.01-0.43-0.04c-0.13-0.03-0.26-0.08-0.38-0.15c-0.13-0.07-0.25-0.15-0.38-0.26
		c-0.13-0.1-0.26-0.23-0.4-0.38v0.59c0,0.03-0.01,0.05-0.02,0.08S38.5,9.4,38.47,9.41s-0.07,0.02-0.12,0.03
		c-0.05,0.01-0.11,0.01-0.19,0.01c-0.07,0-0.13,0-0.18-0.01s-0.09-0.02-0.12-0.03s-0.05-0.03-0.06-0.05s-0.02-0.05-0.02-0.08V2.11
		c0-0.03,0.01-0.05,0.02-0.07C37.8,2.02,37.83,2,37.86,1.98C37.9,1.97,37.94,1.96,38,1.95c0.06-0.01,0.13-0.01,0.21-0.01
		c0.09,0,0.16,0,0.22,0.01c0.06,0.01,0.1,0.02,0.13,0.03C38.6,2,38.62,2.02,38.64,2.04s0.02,0.05,0.02,0.07v2.9
		c0.14-0.15,0.28-0.27,0.42-0.37c0.13-0.1,0.27-0.18,0.4-0.25s0.26-0.11,0.39-0.14s0.27-0.04,0.41-0.04c0.35,0,0.65,0.07,0.9,0.21
		c0.25,0.14,0.45,0.33,0.61,0.56c0.16,0.23,0.27,0.51,0.34,0.82C42.18,6.12,42.22,6.46,42.22,6.81z M41.3,6.91
		c0-0.25-0.02-0.49-0.06-0.72c-0.04-0.23-0.1-0.44-0.2-0.62c-0.09-0.18-0.22-0.32-0.37-0.43s-0.35-0.16-0.58-0.16
		c-0.12,0-0.23,0.02-0.34,0.05c-0.11,0.03-0.23,0.09-0.34,0.16c-0.12,0.08-0.23,0.17-0.36,0.29c-0.12,0.12-0.26,0.27-0.4,0.45v1.93
		c0.25,0.3,0.48,0.52,0.7,0.68c0.22,0.16,0.46,0.23,0.7,0.23c0.22,0,0.41-0.05,0.57-0.16c0.16-0.11,0.29-0.25,0.39-0.43
		c0.1-0.18,0.17-0.38,0.22-0.6C41.28,7.36,41.3,7.13,41.3,6.91z"/>
	<path class="st0" d="M47.19,9.29c0,0.04-0.01,0.08-0.04,0.1s-0.07,0.04-0.12,0.05c-0.05,0.01-0.12,0.02-0.22,0.02
		c-0.09,0-0.17,0-0.22-0.02c-0.06-0.01-0.1-0.03-0.12-0.05s-0.04-0.05-0.04-0.1V8.81c-0.21,0.23-0.45,0.4-0.71,0.53
		c-0.26,0.12-0.53,0.19-0.82,0.19c-0.25,0-0.48-0.03-0.69-0.1C44,9.36,43.83,9.26,43.68,9.14c-0.14-0.12-0.26-0.28-0.34-0.46
		c-0.08-0.18-0.12-0.39-0.12-0.62c0-0.27,0.06-0.51,0.17-0.71c0.11-0.2,0.27-0.37,0.48-0.5s0.46-0.23,0.76-0.3s0.64-0.1,1.02-0.1
		h0.67V6.07c0-0.19-0.02-0.35-0.06-0.49s-0.1-0.26-0.19-0.36c-0.09-0.09-0.2-0.17-0.34-0.21c-0.14-0.05-0.31-0.07-0.52-0.07
		c-0.22,0-0.41,0.03-0.59,0.08c-0.17,0.05-0.33,0.11-0.46,0.17c-0.13,0.06-0.24,0.12-0.33,0.17c-0.09,0.05-0.15,0.08-0.2,0.08
		c-0.03,0-0.05-0.01-0.08-0.02c-0.02-0.01-0.04-0.04-0.06-0.06c-0.02-0.03-0.03-0.07-0.04-0.11s-0.01-0.09-0.01-0.15
		c0-0.09,0.01-0.16,0.02-0.21c0.01-0.05,0.04-0.1,0.09-0.15c0.05-0.05,0.13-0.1,0.25-0.16s0.25-0.12,0.41-0.17s0.32-0.09,0.5-0.13
		s0.37-0.05,0.55-0.05c0.35,0,0.64,0.04,0.89,0.12s0.44,0.19,0.59,0.35s0.26,0.34,0.33,0.57s0.1,0.49,0.1,0.79V9.29z M46.31,7.09
		h-0.76c-0.24,0-0.45,0.02-0.63,0.06s-0.33,0.1-0.45,0.18c-0.12,0.08-0.21,0.18-0.26,0.29c-0.06,0.11-0.08,0.24-0.08,0.39
		c0,0.25,0.08,0.45,0.24,0.6c0.16,0.15,0.38,0.22,0.67,0.22c0.23,0,0.45-0.06,0.65-0.18c0.2-0.12,0.41-0.3,0.63-0.54V7.09z"/>
	<path class="st0" d="M51.65,4.77c0,0.08,0,0.15-0.01,0.2c0,0.05-0.01,0.1-0.02,0.13s-0.02,0.05-0.04,0.07
		c-0.02,0.02-0.04,0.02-0.07,0.02s-0.06-0.01-0.1-0.02c-0.04-0.02-0.09-0.03-0.14-0.05c-0.05-0.02-0.11-0.03-0.17-0.05
		s-0.13-0.02-0.21-0.02c-0.09,0-0.18,0.02-0.26,0.05s-0.18,0.09-0.27,0.18c-0.09,0.08-0.19,0.19-0.3,0.33s-0.22,0.3-0.34,0.5v3.18
		c0,0.03-0.01,0.05-0.02,0.07s-0.04,0.04-0.07,0.05s-0.08,0.03-0.13,0.03s-0.13,0.01-0.22,0.01c-0.09,0-0.16,0-0.21-0.01
		s-0.1-0.02-0.14-0.03c-0.03-0.01-0.06-0.03-0.07-0.05c-0.01-0.02-0.02-0.04-0.02-0.07V4.45c0-0.03,0.01-0.05,0.02-0.07
		s0.03-0.04,0.06-0.05c0.03-0.02,0.07-0.03,0.12-0.03c0.05,0,0.12-0.01,0.2-0.01c0.08,0,0.14,0,0.2,0.01
		c0.05,0.01,0.09,0.02,0.12,0.03c0.03,0.02,0.05,0.03,0.06,0.05c0.01,0.02,0.02,0.04,0.02,0.07v0.7c0.13-0.19,0.26-0.35,0.37-0.47
		c0.12-0.12,0.23-0.22,0.33-0.29c0.1-0.07,0.21-0.12,0.31-0.15c0.1-0.03,0.2-0.04,0.31-0.04c0.05,0,0.1,0,0.16,0.01
		c0.06,0.01,0.12,0.02,0.19,0.03c0.06,0.01,0.12,0.03,0.17,0.05c0.05,0.02,0.09,0.04,0.11,0.05s0.04,0.04,0.04,0.05
		c0.01,0.02,0.01,0.04,0.02,0.06c0,0.02,0.01,0.06,0.01,0.11C51.65,4.62,51.65,4.69,51.65,4.77z"/>
	<path class="st0" d="M52.69,8.84c0,0.25-0.04,0.42-0.13,0.51c-0.08,0.08-0.24,0.13-0.46,0.13c-0.21,0-0.36-0.04-0.45-0.12
		s-0.12-0.25-0.12-0.49c0-0.25,0.04-0.42,0.13-0.51c0.08-0.08,0.24-0.13,0.46-0.13c0.21,0,0.36,0.04,0.45,0.12
		C52.65,8.42,52.69,8.59,52.69,8.84z"/>
	<path class="st0" d="M61.5,9.29c0,0.03-0.01,0.05-0.02,0.07s-0.04,0.04-0.07,0.05s-0.08,0.03-0.13,0.03s-0.13,0.01-0.21,0.01
		c-0.09,0-0.16,0-0.22-0.01s-0.1-0.02-0.14-0.03c-0.03-0.01-0.06-0.03-0.07-0.05S60.6,9.32,60.6,9.29V6.35
		c0-0.2-0.02-0.39-0.05-0.56s-0.09-0.31-0.17-0.44c-0.08-0.12-0.18-0.21-0.3-0.28s-0.27-0.1-0.43-0.1c-0.2,0-0.41,0.08-0.62,0.24
		c-0.21,0.16-0.43,0.39-0.68,0.69v3.38c0,0.03-0.01,0.05-0.02,0.07s-0.04,0.04-0.07,0.05c-0.03,0.01-0.08,0.03-0.14,0.03
		s-0.13,0.01-0.21,0.01c-0.08,0-0.15,0-0.21-0.01c-0.06-0.01-0.11-0.02-0.14-0.03c-0.03-0.01-0.06-0.03-0.07-0.05
		c-0.01-0.02-0.02-0.04-0.02-0.07V6.35c0-0.2-0.02-0.39-0.06-0.56s-0.1-0.31-0.18-0.44c-0.08-0.12-0.18-0.21-0.3-0.28
		c-0.12-0.06-0.26-0.1-0.43-0.1c-0.2,0-0.41,0.08-0.62,0.24c-0.21,0.16-0.43,0.39-0.68,0.69v3.38c0,0.03-0.01,0.05-0.02,0.07
		s-0.04,0.04-0.07,0.05s-0.08,0.03-0.13,0.03s-0.13,0.01-0.22,0.01c-0.09,0-0.16,0-0.21-0.01s-0.1-0.02-0.14-0.03
		c-0.03-0.01-0.06-0.03-0.07-0.05c-0.01-0.02-0.02-0.04-0.02-0.07V4.45c0-0.03,0.01-0.05,0.02-0.07s0.03-0.04,0.06-0.05
		c0.03-0.02,0.07-0.03,0.12-0.03c0.05,0,0.12-0.01,0.2-0.01c0.08,0,0.14,0,0.2,0.01c0.05,0.01,0.09,0.02,0.12,0.03
		c0.03,0.02,0.05,0.03,0.06,0.05c0.01,0.02,0.02,0.04,0.02,0.07v0.64c0.27-0.3,0.54-0.53,0.79-0.67c0.26-0.14,0.52-0.21,0.78-0.21
		c0.2,0,0.38,0.02,0.54,0.07c0.16,0.05,0.3,0.11,0.42,0.2s0.23,0.18,0.31,0.3s0.16,0.25,0.21,0.39c0.16-0.18,0.31-0.32,0.46-0.45
		c0.14-0.12,0.28-0.22,0.42-0.3c0.13-0.08,0.26-0.13,0.39-0.16c0.13-0.03,0.26-0.05,0.38-0.05c0.31,0,0.57,0.05,0.78,0.16
		S61,4.63,61.13,4.81c0.13,0.18,0.22,0.4,0.28,0.64c0.06,0.25,0.08,0.5,0.08,0.78V9.29z"/>
	<path class="st0" d="M66.67,9.19c0.03,0.05,0.04,0.09,0.04,0.13s-0.02,0.06-0.05,0.08c-0.03,0.02-0.09,0.04-0.16,0.05
		c-0.07,0.01-0.16,0.01-0.27,0.01c-0.11,0-0.19,0-0.25-0.01c-0.06-0.01-0.11-0.01-0.15-0.03c-0.04-0.01-0.07-0.03-0.09-0.05
		c-0.02-0.02-0.04-0.04-0.05-0.07l-1.16-1.92L63.38,9.3c-0.01,0.03-0.03,0.05-0.05,0.07c-0.02,0.02-0.05,0.04-0.09,0.05
		c-0.04,0.01-0.09,0.02-0.15,0.03c-0.06,0-0.14,0.01-0.24,0.01c-0.1,0-0.19,0-0.25-0.01c-0.07-0.01-0.11-0.02-0.15-0.05
		c-0.03-0.02-0.04-0.05-0.04-0.08c0-0.03,0.02-0.08,0.05-0.13l1.5-2.36l-1.42-2.27c-0.03-0.05-0.04-0.09-0.05-0.13
		c0-0.03,0.01-0.06,0.05-0.09c0.03-0.02,0.09-0.04,0.16-0.05c0.07-0.01,0.16-0.01,0.28-0.01c0.1,0,0.19,0,0.25,0.01
		c0.06,0.01,0.11,0.01,0.15,0.02s0.06,0.03,0.08,0.04s0.03,0.04,0.05,0.06l1.1,1.8l1.12-1.8c0.01-0.02,0.03-0.04,0.05-0.06
		c0.02-0.02,0.04-0.03,0.07-0.04c0.03-0.01,0.07-0.02,0.13-0.03c0.06,0,0.13-0.01,0.23-0.01c0.1,0,0.19,0,0.26,0.01
		c0.07,0.01,0.12,0.02,0.15,0.04s0.05,0.05,0.04,0.08c0,0.04-0.02,0.08-0.05,0.13L65.18,6.8L66.67,9.19z"/>
</g>
</svg>
